<svg id="Icons" height="300" viewBox="0 0 60 60" width="300" xmlns="http://www.w3.org/2000/svg" version="1.1" xmlns:xlink="http://www.w3.org/1999/xlink" xmlns:svgjs="http://svgjs.dev/svgjs"><g width="100%" height="100%" transform="matrix(1,0,0,1,0,0)"><path d="m28.526 7.489a.5.5 0 0 1 -.341-.864l2.984-2.8-5.889 3.4a.5.5 0 0 1 -.565-.821l2.236-1.824-1.829 1.056a.5.5 0 0 1 -.631-.757l1.676-1.966-1.423.821a.5.5 0 0 1 -.653-.728l.438-.6a.5.5 0 0 1 -.156-.924l1.536-.882a.5.5 0 0 1 .653.728l-.26.355 1.878-1.083a.5.5 0 0 1 .631.756l-1.675 1.963 4.714-2.719a.5.5 0 0 1 .565.82l-2.235 1.819 4.236-2.445a.5.5 0 0 1 .592.8l-2.987 2.8 3.3-1.9a.5.5 0 0 1 .587.8l-1.026.934.118-.07a.5.5 0 0 1 .6.079.5.5 0 0 1 .079.6l-.579 1.01a.492.492 0 0 1 .312.235.5.5 0 0 1 -.183.683l-1.11.641a.5.5 0 0 1 -.683-.683l.443-.764-2.52 1.455a.5.5 0 0 1 -.587-.8l1.028-.937-3.024 1.745a.489.489 0 0 1 -.25.067z" fill="#ffffff" fill-opacity="1" data-original-color="#663238ff" stroke="none" stroke-opacity="1"/><path d="m25.916 59.47a.5.5 0 0 1 -.3-.9l1.613-1.23-3.575 2.06a.5.5 0 0 1 -.654-.139.5.5 0 0 1 .076-.667l2.971-2.609-5.922 3.415a.5.5 0 0 1 -.589-.8l3.138-2.891-6.312 3.643a.5.5 0 0 1 -.584-.8l3.008-2.7-4.817 2.781a.5.5 0 0 1 -.573-.814l1.849-1.566-2.579 1.488a.5.5 0 0 1 -.583-.8l1.151-1.041-1.487.859a.5.5 0 0 1 -.664-.714l1.016-1.5-1.216.7a.5.5 0 0 1 -.7-.653l.313-.636a.491.491 0 0 1 -.239-.212.5.5 0 0 1 .184-.683l.825-.474a.5.5 0 0 1 .7.654l-.154.314 1.677-.968a.5.5 0 0 1 .664.714l-1.015 1.494 3.828-2.21a.5.5 0 0 1 .583.8l-1.149 1.042 3.169-1.827a.5.5 0 0 1 .574.814l-1.85 1.566 4.125-2.381a.5.5 0 0 1 .584.8l-3.008 2.701 6.083-3.512a.5.5 0 0 1 .589.8l-3.138 2.89 6.4-3.692a.5.5 0 0 1 .58.808l-2.971 2.61 5.922-3.419a.5.5 0 0 1 .554.83l-1.613 1.236 3.574-2.062a.5.5 0 0 1 .551.831l-1.482 1.124 3.389-1.956a.5.5 0 0 1 .58.808l-2.983 2.625 5.949-3.434a.5.5 0 0 1 .667.156.5.5 0 0 1 -.116.676l-1.416 1.068 3.3-1.9a.5.5 0 0 1 .591.8l-3.174 2.963 6.518-3.763a.5.5 0 0 1 .553.83l-1.572 1.2 2.008-1.159a.5.5 0 0 1 .607.783l-2.211 2.252.03-.016a.5.5 0 1 1 .5.865l-3.2 1.851a.5.5 0 0 1 -.607-.784l2.211-2.253-5.646 3.244a.5.5 0 0 1 -.553-.83l1.569-1.2-3.509 2.03a.5.5 0 0 1 -.591-.8l3.175-2.963-6.512 3.763a.5.5 0 0 1 -.552-.832l1.411-1.068-3.292 1.9a.5.5 0 0 1 -.58-.807l2.982-2.625-5.946 3.432a.5.5 0 0 1 -.552-.831l1.484-1.125-3.389 1.956a.493.493 0 0 1 -.25.07z" fill="#ffffff" fill-opacity="1" data-original-color="#5f8c2dff" stroke="none" stroke-opacity="1"/><path d="m12.513 26.493a.5.5 0 0 1 -.273-.92l6.269-4.065-8.26 4.768a.5.5 0 0 1 -.632-.11.5.5 0 0 1 0-.642l1.683-2.033-1.127.651a.5.5 0 0 1 -.5-.866l3.542-2.045a.5.5 0 0 1 .635.752l-1.687 2.034 22.557-13.023a.5.5 0 0 1 .522.853l-6.266 4.064 5.744-3.311a.5.5 0 0 1 .529.846l-7.328 4.943 6.818-3.937a.5.5 0 0 1 .53.847l-4.594 3.1 4.46-2.576a.5.5 0 0 1 .545.836l-5.859 4.289 6.542-3.776a.5.5 0 0 1 .558.826l-5.108 3.994 6.708-3.872a.5.5 0 0 1 .538.842l-1.229.86 2.024-1.168a.5.5 0 0 1 .572.815l-3.87 3.263 5.517-3.186a.5.5 0 0 1 .57.817l-2.713 2.251 4.019-2.32a.5.5 0 0 1 .588.8l-2.366 2.17 3.765-2.173a.5.5 0 0 1 .576.811l-1.141.984 2.066-1.193a.5.5 0 0 1 .582.807l-.644.57 1.3-.747a.5.5 0 0 1 .607.782l-.6.619 1.02-.589a.5.5 0 0 1 .627.76l-.173.2a.5.5 0 0 1 .355.922l-2.411 1.383a.5.5 0 0 1 -.627-.76l.127-.14-1.566.9a.5.5 0 0 1 -.607-.782l.6-.619-2.43 1.4a.5.5 0 0 1 -.582-.806l.641-.569-2.385 1.377a.5.5 0 0 1 -.577-.811l1.143-.985-3.114 1.8a.5.5 0 0 1 -.588-.8l2.365-2.165-5.147 2.972a.5.5 0 0 1 -.57-.817l2.713-2.256-5.327 3.075a.5.5 0 0 1 -.569-.814l3.87-3.263-7.07 4.079a.5.5 0 0 1 -.537-.842l1.232-.862-2.954 1.705a.5.5 0 0 1 -.558-.826l5.106-3.991-8.353 4.82a.5.5 0 0 1 -.545-.836l5.857-4.284-8.879 5.127a.5.5 0 0 1 -.53-.847l4.59-3.1-6.829 3.944a.5.5 0 0 1 -.529-.847l7.329-4.947-10.039 5.8a.494.494 0 0 1 -.248.063z" fill="#ffffff" fill-opacity="1" data-original-color="#5f8c2dff" stroke="none" stroke-opacity="1"/><path d="m24.919 15.971a.5.5 0 0 1 -.318-.886l1.981-1.633-1.3.751a.5.5 0 0 1 -.6-.791l.973-.944-.375.216a.5.5 0 0 1 -.737-.543l.306-1.357a.488.488 0 0 1 -.251-.216.5.5 0 0 1 .182-.682l.5-.29a.5.5 0 0 1 .738.543l-.25 1.108 2.877-1.661a.5.5 0 0 1 .6.791l-.974.944 3.021-1.743a.5.5 0 0 1 .568.818l-1.98 1.634 4.263-2.461a.5.5 0 0 1 .5.866l-9.474 5.465a.493.493 0 0 1 -.25.071z" fill="#ffffff" fill-opacity="1" data-original-color="#5f8c2dff" stroke="none" stroke-opacity="1"/><path d="m27.585 12.47a.5.5 0 0 1 -.3-.9l.96-.71-2.675 1.54a.5.5 0 0 1 -.551-.832l1.406-1.062-2.977 1.719a.5.5 0 0 1 -.55-.833l1.019-.764-1.367.789a.5.5 0 0 1 -.582-.807l1.905-1.69-1.593.919a.5.5 0 0 1 -.683-.682l1.013-1.757-.045.025a.5.5 0 0 1 -.5-.865l1.657-.96a.493.493 0 0 1 .6.079.5.5 0 0 1 .08.6l-1.01 1.764 4.237-2.443a.5.5 0 0 1 .582.806l-1.904 1.694 4.328-2.5a.5.5 0 0 1 .55.833l-1.018.762 2.765-1.595a.5.5 0 0 1 .551.832l-1.409 1.062 3.285-1.9a.5.5 0 0 1 .548.835l-.958.708 1.986-1.137a.5.5 0 0 1 .558.826l-1.493 1.161 1.641-.946a.5.5 0 0 1 .586.8l-1.505 1.374 1-.575a.5.5 0 0 1 .615.773l-.5.535a.506.506 0 0 1 .511.244.5.5 0 0 1 -.183.683l-2.647 1.525a.5.5 0 0 1 -.616-.773l.42-.45-2.122 1.223a.5.5 0 0 1 -.587-.8l1.509-1.372-3.767 2.172a.5.5 0 0 1 -.558-.826l1.489-1.166-3.451 1.992a.493.493 0 0 1 -.25.07z" fill="#ffffff" fill-opacity="1" data-original-color="#4f7726ff" stroke="none" stroke-opacity="1"/><path d="m11.189 54.492a.5.5 0 0 1 -.261-.926l9.136-5.609-9.639 5.565a.5.5 0 0 1 -.513-.858l12.625-7.789-12.258 7.076a.5.5 0 0 1 -.511-.858l11.364-7-10.985 6.345a.5.5 0 0 1 -.513-.858l15.147-9.425-14.787 8.537a.5.5 0 0 1 -.514-.857l11.662-7.223-11.285 6.515a.5.5 0 0 1 -.51-.859l3.714-2.268-3.31 1.91a.5.5 0 0 1 -.513-.857l6.662-4.129-6.268 3.621a.5.5 0 0 1 -.522-.853l14.654-9.492-14.314 8.262a.5.5 0 0 1 -.515-.857l5.065-3.17-4.666 2.693a.5.5 0 0 1 -.522-.853l9.413-6.1-9.042 5.225a.5.5 0 0 1 -.516-.857l.385-.241a.5.5 0 0 1 -.494-.866l7.747-5.16-7.373 4.252a.5.5 0 0 1 -.535-.843l7.303-5.047-6.937 4a.5.5 0 0 1 -.533-.845l4.143-2.837-3.743 2.16a.5.5 0 0 1 -.551-.832l4.953-3.73-4.566 2.646a.5.5 0 0 1 -.567-.82l3.455-2.82-3.054 1.758a.5.5 0 0 1 -.564-.822l.993-.8-.4.232a.5.5 0 0 1 -.681-.687l1.328-2.249a.5.5 0 0 1 -.009-.871l.907-.523a.5.5 0 0 1 .681.686l-1.077 1.826 4.355-2.51a.5.5 0 0 1 .563.822l-1 .8 2.82-1.622a.5.5 0 0 1 .566.82l-3.453 2.819 6.306-3.64a.5.5 0 0 1 .551.832l-4.956 3.727 7.908-4.564a.5.5 0 0 1 .532.844l-4.145 2.839 6.383-3.684a.5.5 0 0 1 .534.844l-7.3 5.043 10.2-5.888a.5.5 0 0 1 .527.848l-7.749 5.16 10.409-6.009a.5.5 0 0 1 .516.856l-.334.209 1.848-1.066a.5.5 0 0 1 .521.852l-9.424 6.108 12.057-6.96a.5.5 0 0 1 .516.856l-5.059 3.167 6.971-4.024a.5.5 0 0 1 .521.852l-14.652 9.494 17.922-10.347a.5.5 0 0 1 .512.857l-6.672 4.127 8.637-4.985a.5.5 0 0 1 .511.859l-3.706 2.268 5.419-3.128a.5.5 0 0 1 .513.857l-11.657 7.221 13.051-7.535a.5.5 0 0 1 .514.857l-15.144 9.423 15.373-8.876a.5.5 0 0 1 .512.859l-11.383 7.008 11.236-6.486a.5.5 0 0 1 .513.858l-12.621 7.787 12.15-7.015a.5.5 0 0 1 .512.858l-9.143 5.614 8.5-4.9a.5.5 0 0 1 .509.86l-1.9 1.157 1.277-.737a.5.5 0 0 1 .519.854l-15.382 9.786 14.67-8.469a.5.5 0 0 1 .517.856l-9.376 5.9 8.707-5.031a.5.5 0 0 1 .519.854l-9.935 6.354 9.254-5.343a.5.5 0 0 1 .516.856l-3.573 2.247 2.933-1.694a.5.5 0 0 1 .529.849l-9.762 6.525 9.046-5.222a.5.5 0 0 1 .527.848l-6.5 4.342 5.812-3.354a.5.5 0 0 1 .537.842l-6.403 4.494 5.689-3.285a.5.5 0 0 1 .53.847l-1.762 1.2 1.109-.639a.5.5 0 0 1 .552.831l-3.557 2.693 2.839-1.644a.5.5 0 0 1 .583.8l-2.714 2.43 1.946-1.123a.5.5 0 0 1 .577.811l-.4.342a.5.5 0 0 1 .4.742l-.518.932a.5.5 0 0 1 .166.926l-1.12.646a.5.5 0 0 1 -.6-.076.5.5 0 0 1 -.087-.6l.41-.736-2.443 1.418a.5.5 0 0 1 -.576-.811l.049-.042-1.481.854a.5.5 0 0 1 -.583-.8l2.715-2.431-5.608 3.237a.5.5 0 0 1 -.552-.831l3.556-2.693-6.111 3.522a.5.5 0 0 1 -.53-.847l1.763-1.2-3.542 2.048a.5.5 0 0 1 -.537-.842l6.407-4.5-9.251 5.341a.5.5 0 0 1 -.527-.849l6.5-4.342-9 5.193a.5.5 0 0 1 -.528-.849l9.758-6.522-12.766 7.376a.5.5 0 0 1 -.515-.855l3.591-2.262-5.4 3.114a.5.5 0 0 1 -.519-.854l9.928-6.347-12.476 7.2a.5.5 0 0 1 -.517-.856l9.381-5.9-11.7 6.757a.5.5 0 0 1 -.519-.855l15.372-9.779-18.436 10.644a.5.5 0 0 1 -.51-.86l1.921-1.164-3.518 2.03a.494.494 0 0 1 -.25.062z" fill="#ffffff" fill-opacity="1" data-original-color="#3e3e59ff" stroke="none" stroke-opacity="1"/><path d="m35.5 47.484a.5.5 0 0 1 -.25-.932l3.26-1.882a.5.5 0 0 1 .5.865l-3.26 1.882a.494.494 0 0 1 -.25.067z" fill="#ffffff" fill-opacity="1" data-original-color="#d7d8ecff" stroke="none" stroke-opacity="1"/><path d="m29.77 50.47a.5.5 0 0 1 -.291-.907l.773-.553-2.412 1.39a.5.5 0 0 1 -.551-.832l5.311-3.993-6.948 4.011a.5.5 0 0 1 -.533-.845l3.881-2.658-3.724 2.149a.5.5 0 0 1 -.536-.842l5.353-3.735-6.393 3.691a.5.5 0 0 1 -.54-.84l7.553-5.37-8.827 5.094a.5.5 0 0 1 -.522-.852l.977-.632-.934.539a.5.5 0 0 1 -.674-.167.5.5 0 0 1 .144-.68l5.928-4.014-5.383 3.107a.5.5 0 0 1 -.524-.85l1.82-1.192-1.607.928a.5.5 0 0 1 -.538-.841l6.935-4.889-6.96 4.013a.5.5 0 0 1 -.527-.849l2.351-1.563-2.033 1.174a.5.5 0 0 1 -.545-.837l6.355-4.635-5.8 3.35a.5.5 0 0 1 -.535-.843l2.541-1.766-1.687.973a.5.5 0 0 1 -.55-.832l3.014-2.264-1.532.892a.5.5 0 0 1 -.563-.822l1.946-1.561a.484.484 0 0 1 -.174-.177.5.5 0 0 1 .182-.683l3.828-2.21a.5.5 0 0 1 .563.822l-.609.49 3.038-1.759a.5.5 0 0 1 .549.832l-3.018 2.268 4.848-2.8a.5.5 0 0 1 .536.843l-2.542 1.767 3.579-2.066a.5.5 0 0 1 .545.837l-6.353 4.633 7.645-4.414a.5.5 0 0 1 .526.849l-2.343 1.557 2.778-1.6a.5.5 0 0 1 .539.841l-6.94 4.893 7.6-4.39a.5.5 0 0 1 .523.851l-1.803 1.182 1.9-1.1a.5.5 0 0 1 .53.847l-5.93 4.015 6.057-3.5a.5.5 0 0 1 .522.853l-.975.63.791-.457a.5.5 0 0 1 .54.84l-7.553 5.37 7.338-4.226a.5.5 0 0 1 .536.843l-5.353 3.735 4.763-2.749a.5.5 0 0 1 .533.845l-3.879 2.655 2.949-1.7a.5.5 0 0 1 .551.832l-5.318 4 4.179-2.416a.5.5 0 0 1 .541.839l-.776.556.2-.119a.5.5 0 0 1 .561.824l-3.864 3.085.014.023a.5.5 0 0 1 -.183.683l-2.612 1.509a.5.5 0 0 1 -.562-.823l1.394-1.112-3.354 1.935a.5.5 0 0 1 -.25.07z" fill="#ffffff" fill-opacity="1" data-original-color="#d7d8ecff" stroke="none" stroke-opacity="1"/><path d="m25.383 43.371a.5.5 0 0 1 -.432-.753l.99-1.687-1.609.928a.5.5 0 0 1 -.643-.742l.508-.643a.5.5 0 0 1 -.132-.918l1.658-.956a.5.5 0 0 1 .642.742l-.274.347.988-.57a.5.5 0 0 1 .605.08.5.5 0 0 1 .077.606l-.99 1.687.9-.52a.5.5 0 0 1 .5.865l-2.538 1.463a.489.489 0 0 1 -.25.071z" fill="#ffffff" fill-opacity="1" data-original-color="#3e3e59ff" stroke="none" stroke-opacity="1"/><path d="m33.353 43.359a.5.5 0 0 1 -.432-.752l1-1.71-1.6.921a.5.5 0 0 1 -.638-.747l.488-.6a.5.5 0 0 1 -.106-.911l1.658-.956a.5.5 0 0 1 .638.747l-.211.26.9-.516a.5.5 0 0 1 .682.684l-1 1.71.951-.547a.5.5 0 0 1 .5.865l-2.583 1.485a.494.494 0 0 1 -.247.067z" fill="#ffffff" fill-opacity="1" data-original-color="#3e3e59ff" stroke="none" stroke-opacity="1"/><g fill="#262626"><path d="m52.2 34.4c4.6-19.248-16.564-10.021-16.493-21.833 4.1.35 4.292-7.475.128-7.134 1.027-2.919.433-5.461-3.163-4.954-3.912.173-10.951-1.472-8.549 4.954-4.02-.116-4.007 7.634.159 7.136 1.123 7.959-10.444 6.641-14.682 10.905a.664.664 0 0 0 -.664.647c-3.877 6.933.374 16.185.019 23.888.045 4.791.945 10.931 6.945 11.277 31-1.737 34.985 9.282 36.3-24.886zm-26.779-30.109c-1.712-4.291 4.085-2.384 6.479-2.77 3.225-.614 3.27 1.463 2.493 3.907-2.916-.02-5.83.028-8.746-.01q-.112-.564-.226-1.127zm-2.208 6.756c-1.059-2.083-.945-5.208 2.29-4.48 3.681.32 7.8-.652 11.284.385.755 1.012 1 4.335-.732 4.481-4.206-.317-8.832.644-12.842-.386zm-2.533 7.971c3.126-.836 5.761-2.845 5.057-6.445 2.843-.014 5.686 0 8.53-.006-1.185 8.034 10.109 6.972 14.6 10.894h-37.967c2.8-2.179 6.581-2.942 9.78-4.443zm-11.522 14.338c-.167-2.863-1.136-6.424.746-8.817h40.023c3.073 7.283-.727 20.496-.927 28.995h-38.011c-.803-6.701-1.167-13.455-1.831-20.178zm34.418 25.336c-3.255-.52-16.2-.681-21.86-.433-7.952.349-8.662.818-10.443-3.793h37.47c-.743 2.326-2.184 4.128-5.167 4.226z" fill="#262626" fill-opacity="1" data-original-color="#262626ff" stroke="none" stroke-opacity="1"/><path d="m20.056 42.076c.32 2.868.507 5.55 4.226 5.38-.291 3.351 3.247 3.191 5.669 3.006 2.293.2 6.023.2 5.781-3.019 2.437.118 4.714-2.273 3.778-4.718 7.544-19.295-25.265-20.083-19.454-.649zm2.457-9.8c6.913-9.55 21.26.929 15.52 10.685a2.512 2.512 0 0 1 -2.765 3.574c-1.93-.084-.18 2.964-2.246 3-2.487-.316-7.75 1.447-7.293-2.613a.413.413 0 0 0 -.461-.387c-2.535.4-4.051-1.745-3.385-4.057a9.811 9.811 0 0 1 .63-10.199z" fill="#262626" fill-opacity="1" data-original-color="#262626ff" stroke="none" stroke-opacity="1"/><path d="m28.32 45.256a1.468 1.468 0 0 0 1.524-.477c.321.7 1.766.718 1.836-.035-.938-1.678-2.804-.932-3.36.512z" fill="#262626" fill-opacity="1" data-original-color="#262626ff" stroke="none" stroke-opacity="1"/><path d="m26.35 43.36c2.478-.273 3.271-3.866.709-4.695-4.127-1.425-5.367 5.468-.709 4.695zm-1.03-3.809a1.33 1.33 0 0 1 1.714.78 1.785 1.785 0 0 1 -.041 1.656 1.478 1.478 0 1 1 -1.673-2.436z" fill="#262626" fill-opacity="1" data-original-color="#262626ff" stroke="none" stroke-opacity="1"/><path d="m34.435 43.36c2.479-.273 3.271-3.866.71-4.695-4.128-1.425-5.367 5.468-.71 4.695zm-1.03-3.809a1.331 1.331 0 0 1 1.715.78 1.785 1.785 0 0 1 -.042 1.656 1.478 1.478 0 1 1 -1.673-2.436z" fill="#262626" fill-opacity="1" data-original-color="#262626ff" stroke="none" stroke-opacity="1"/></g></g></svg>