<svg id="Icons" viewBox="0 0 60 60" xmlns="http://www.w3.org/2000/svg" width="300" height="300" version="1.1" xmlns:xlink="http://www.w3.org/1999/xlink" xmlns:svgjs="http://svgjs.dev/svgjs"><g width="100%" height="100%" transform="matrix(1,0,0,1,0,0)"><path d="m10.835 56.47c-.167 0-.33-.084-.425-.236-.143-.229-.077-.53.147-.68l3.005-1.999-4.933 2.848c-.235.138-.533.06-.676-.17-.142-.23-.075-.532.151-.681l4.224-2.777-6.285 3.628c-.235.135-.534.061-.675-.17-.143-.229-.076-.531.149-.68l7.36-4.864-9.604 5.544c-.236.136-.532.06-.675-.168-.143-.229-.077-.53.146-.68l11.474-7.687-12.533 7.236c-.235.139-.537.059-.679-.175-.141-.233-.067-.537.163-.682l1.587-.992-1.436.828c-.235.136-.532.061-.675-.169s-.077-.53.147-.68l12.865-8.567-12.381 7.148c-.235.137-.534.061-.677-.172-.142-.23-.072-.533.155-.681l9.627-6.239-9.105 5.257c-.238.137-.539.058-.679-.175-.141-.234-.067-.537.164-.682l1.409-.881-.895.517c-.236.138-.535.06-.677-.173-.142-.231-.072-.534.156-.681l7.7-4.94-7.18 4.145c-.235.137-.534.061-.677-.172-.142-.23-.072-.533.155-.681l8.298-5.378-7.776 4.49c-.232.137-.53.061-.674-.167-.143-.229-.079-.529.144-.68l10.143-6.859-9.612 5.549c-.232.136-.527.062-.672-.164-.144-.225-.085-.523.135-.678l8.726-6.135-8.188 4.728c-.232.135-.527.062-.671-.163-.145-.226-.086-.524.133-.679l5.617-3.958-5.079 2.932c-.234.135-.531.06-.674-.168-.143-.229-.079-.528.145-.679l.711-.48-.182.104c-.227.133-.518.064-.664-.153-.147-.217-.101-.512.106-.673l3.646-2.852-3.088 1.782c-.223.131-.51.066-.659-.146-.149-.213-.111-.503.088-.67l2-1.68-1.429.824c-.204.119-.462.079-.621-.098-.158-.175-.172-.437-.034-.627l1.27-1.761-.03.017c-.24.138-.546.057-.683-.183-.139-.239-.057-.545.183-.683l2.05-1.184c.203-.119.462-.078.621.098.158.175.172.437.034.627l-1.27 1.762 4.346-2.509c.223-.132.511-.066.659.146.149.213.111.503-.088.67l-1.999 1.679 4.321-2.494c.227-.134.519-.064.664.153.147.217.101.512-.106.673l-3.646 2.853 6.371-3.679c.234-.137.53-.062.674.168.143.228.079.528-.145.679l-.714.482 2.303-1.329c.23-.135.527-.062.671.163.145.226.086.524-.133.679l-5.618 3.959 8.316-4.801c.232-.135.527-.062.672.164.144.225.085.523-.135.678l-8.726 6.134 12.084-6.976c.234-.135.531-.06.674.167.143.229.079.529-.144.68l-10.135 6.854 12.445-7.186c.236-.137.533-.06.677.172.142.23.072.533-.155.681l-8.309 5.384 8.792-5.075c.237-.137.536-.06.677.173.142.231.072.534-.156.681l-7.693 4.937 7.475-4.315c.236-.139.537-.059.679.175.141.234.067.537-.164.682l-1.409.881.895-.517c.236-.137.534-.061.677.172.142.23.072.533-.155.681l-9.627 6.239 9.105-5.257c.233-.138.532-.061.675.169s.077.53-.147.68l-12.863 8.565 12.336-7.122c.237-.136.539-.059.679.175.141.233.067.537-.163.682l-1.58.988 1.064-.614c.233-.137.532-.061.675.168s.077.53-.146.68l-11.48 7.691 10.952-6.323c.233-.138.533-.062.675.17.143.229.076.531-.149.68l-7.362 4.866 6.837-3.947c.236-.137.533-.06.676.17.142.23.075.532-.151.681l-4.216 2.772 3.691-2.131c.233-.137.532-.062.675.169.143.229.077.53-.147.68l-3.009 2.002 2.481-1.433c.235-.135.528-.061.673.165.144.227.082.526-.139.679l-3.356 2.32 2.822-1.629c.227-.133.519-.063.664.152.147.218.101.512-.105.674l-4.36 3.417 3.802-2.194c.216-.128.496-.071.649.132.152.201.13.485-.052.66l-3.007 2.904 2.409-1.391c.207-.12.47-.075.627.104.157.18.165.446.019.635l-1.106 1.431c.209-.059.445.033.56.233.139.239.057.545-.183.683l-2.05 1.184c-.205.122-.469.076-.627-.104-.157-.18-.165-.446-.019-.635l1.079-1.395-3.733 2.155c-.217.127-.497.071-.649-.132-.152-.201-.13-.485.052-.66l3.006-2.904-6.401 3.696c-.227.134-.518.063-.664-.152-.147-.218-.101-.512.105-.674l4.361-3.418-7.353 4.244c-.233.136-.527.061-.673-.165-.144-.227-.082-.526.139-.679l3.354-2.318-5.478 3.162c-.079.046-.165.067-.25.067z" fill="#ffffff" fill-opacity="1" data-original-color="#ea3446ff" stroke="none" stroke-opacity="1"/><path d="m40.007 56.47c-.168 0-.333-.085-.427-.239-.142-.231-.072-.534.156-.681l1.796-1.158-3.483 2.011c-.232.136-.529.062-.673-.166s-.081-.527.141-.68l10.283-7.025-12.986 7.497c-.235.138-.535.06-.678-.173-.141-.232-.07-.535.158-.682l5.536-3.534-6.021 3.476c-.235.137-.534.061-.676-.171-.142-.23-.074-.532.152-.681l9.906-6.456-9.906 5.719c-.235.137-.533.06-.676-.17-.142-.23-.075-.532.151-.681l11.443-7.519-10.925 6.308c-.235.139-.537.059-.679-.175-.141-.233-.067-.537.163-.682l2.48-1.554-1.965 1.134c-.235.138-.535.06-.678-.173-.141-.232-.07-.535.159-.682l6.969-4.447-6.45 3.724c-.235.137-.535.06-.677-.173-.142-.231-.072-.533.156-.681l7.89-5.067-7.369 4.254c-.235.138-.536.06-.677-.173-.142-.231-.072-.534.157-.681l6.785-4.354-6.266 3.617c-.235.136-.534.061-.675-.17-.143-.229-.076-.531.149-.68l8.745-5.781-8.22 4.745c-.235.138-.536.06-.678-.174-.141-.232-.07-.535.159-.681l.64-.406-.121.069c-.235.137-.535.06-.677-.173-.142-.231-.072-.533.156-.681l.692-.444-.172.099c-.232.137-.53.062-.674-.167-.143-.228-.08-.528.143-.68l4.319-2.934-3.788 2.187c-.23.134-.526.062-.67-.161-.145-.225-.088-.522.129-.678l4.352-3.123-3.811 2.2c-.23.134-.526.062-.67-.161-.145-.225-.088-.522.129-.678l1.898-1.362-1.357.783c-.218.129-.501.07-.652-.136-.151-.205-.124-.491.062-.664l3.032-2.803-2.442 1.41c-.203.12-.464.078-.621-.098-.158-.176-.172-.438-.033-.629l1.251-1.723-.013.007c-.239.138-.546.057-.683-.183-.139-.239-.057-.545.183-.683l2.05-1.184c.203-.119.464-.078.621.098.158.176.172.438.033.629l-1.252 1.724 4.283-2.473c.219-.128.502-.069.652.136.151.205.124.491-.062.664l-3.033 2.803 6.241-3.603c.229-.136.525-.062.67.161.145.225.088.522-.129.678l-1.897 1.362 3.812-2.201c.228-.136.525-.062.67.161.145.225.088.522-.129.678l-4.351 3.121 6.86-3.96c.234-.135.531-.062.674.167.143.228.08.528-.143.68l-4.32 2.935 6.55-3.781c.234-.136.535-.06.677.173.142.231.072.533-.156.681l-.692.444 2.249-1.298c.237-.137.537-.06.678.174.141.232.07.535-.159.681l-.639.405 2.184-1.26c.234-.137.533-.062.675.17.143.229.076.531-.149.68l-8.745 5.781 10.449-6.032c.238-.136.536-.059.677.173.142.231.072.534-.157.681l-6.779 4.35 7.144-4.124c.236-.137.535-.059.677.173s.072.534-.156.681l-7.888 5.066 7.668-4.427c.236-.137.536-.059.678.173.141.232.07.535-.159.682l-6.969 4.447 6.45-3.724c.236-.136.538-.059.679.175s.067.537-.163.682l-2.48 1.554 1.965-1.134c.236-.137.533-.06.676.17.142.23.075.532-.151.681l-11.447 7.521 10.923-6.306c.236-.136.534-.06.676.171s.074.532-.152.681l-9.895 6.448 9.371-5.41c.236-.136.536-.059.678.173.141.232.07.535-.158.682l-5.555 3.546 5.035-2.906c.234-.135.53-.061.673.166.144.228.081.527-.141.68l-10.284 7.026 9.752-5.63c.236-.137.536-.061.677.172.142.231.072.534-.156.681l-1.791 1.155 1.271-.733c.232-.135.528-.062.672.164s.084.525-.136.679l-6.099 4.253 5.562-3.211c.229-.136.524-.063.67.161.145.223.089.521-.127.677l-4.655 3.369 4.112-2.374c.229-.133.522-.062.668.158.146.222.093.519-.12.676l-2.728 2.022 2.18-1.259c.216-.128.497-.071.65.133.151.203.128.487-.056.661l-2.881 2.749 2.286-1.319c.219-.128.503-.069.654.138.15.207.121.493-.068.665l-.496.45c.181 0 .359.083.455.25.139.239.057.545-.183.683l-3.617 2.089c-.217.129-.502.069-.654-.138-.15-.207-.121-.493.068-.665l.301-.273-1.864 1.076c-.218.127-.499.07-.65-.133s-.128-.487.056-.661l2.882-2.75-6.139 3.544c-.228.135-.521.062-.668-.158-.146-.222-.093-.519.12-.676l2.73-2.024-4.951 2.858c-.229.133-.524.062-.67-.161-.145-.223-.089-.521.127-.677l4.652-3.367-7.283 4.205c-.229.135-.529.062-.672-.164-.144-.227-.084-.525.136-.679l6.099-4.253-8.827 5.096c-.079.046-.165.067-.25.067z" fill="#ffffff" fill-opacity="1" data-original-color="#f4c940ff" stroke="none" stroke-opacity="1"/><path d="m21.801 30.47c-.167 0-.331-.084-.425-.236-.143-.23-.076-.531.148-.681l5.677-3.763-7.989 4.612c-.235.135-.532.06-.674-.168-.143-.229-.079-.529.145-.68l9.797-6.581-11.931 6.888c-.235.136-.532.061-.675-.169s-.077-.53.147-.68l11.559-7.69-12.153 7.017c-.235.135-.534.062-.675-.17-.143-.229-.076-.531.149-.68l11.996-7.93-11.617 6.707c-.235.135-.533.06-.676-.17-.142-.23-.075-.531.15-.681l11.798-7.773-11.272 6.508c-.237.137-.539.058-.679-.176-.141-.233-.067-.537.164-.682l.786-.489-.271.156c-.235.136-.533.061-.676-.17-.142-.229-.075-.531.15-.68l11.612-7.662-11.087 6.4c-.235.137-.534.06-.676-.171s-.074-.532.152-.681l9.282-6.064-8.759 5.057c-.232.136-.529.062-.673-.166s-.081-.528.141-.68l10.352-7.069-9.819 5.669c-.232.137-.529.062-.673-.165s-.082-.526.139-.679l7.623-5.268-7.089 4.093c-.23.134-.524.062-.67-.161-.145-.223-.089-.521.127-.677l6.307-4.563-5.764 3.327c-.228.135-.521.063-.668-.158-.146-.222-.093-.518.12-.676l4.068-3.022-3.521 2.032c-.226.132-.514.066-.662-.149-.147-.215-.105-.507.097-.672l2.942-2.388-2.377 1.372c-.218.128-.5.069-.652-.136-.151-.204-.124-.49.062-.663l1.629-1.513-1.028.593c-.213.126-.487.072-.642-.122s-.143-.473.027-.653l.749-.796c-.1-.04-.187-.112-.244-.213-.139-.239-.057-.545.183-.683l2.05-1.184c.213-.125.487-.072.642.122s.143.473-.027.653l-.29.308 1.916-1.105c.218-.127.5-.069.652.136.151.204.124.49-.062.663l-1.627 1.512 4.002-2.311c.225-.132.514-.066.662.149.147.215.105.507-.097.672l-2.944 2.389 5.562-3.21c.229-.134.522-.062.668.158.146.222.093.518-.12.676l-4.067 3.021 6.679-3.855c.228-.136.524-.063.67.161.145.223.089.521-.127.677l-6.308 4.564 9.357-5.402c.231-.135.528-.061.673.165.144.227.082.526-.139.679l-7.625 5.269 10.588-6.112c.234-.135.53-.062.673.166.144.228.081.528-.141.68l-10.349 7.067 13.009-7.511c.235-.137.534-.061.676.171.142.23.074.532-.152.681l-9.284 6.065 9.899-5.715c.233-.137.533-.061.676.17.142.229.075.531-.15.68l-11.61 7.661 11.423-6.595c.236-.138.538-.059.679.176.141.233.067.537-.164.682l-.786.489.271-.156c.234-.138.532-.061.676.17.142.23.075.531-.15.681l-11.798 7.773 11.272-6.508c.234-.137.533-.062.675.17.143.229.076.531-.149.68l-11.992 7.927 11.467-6.62c.234-.137.531-.062.675.169.143.229.077.53-.147.68l-11.562 7.692 11.034-6.37c.234-.138.532-.061.674.168.143.229.079.529-.145.68l-9.8 6.583 9.271-5.352c.234-.137.533-.062.675.169.143.23.076.531-.148.681l-5.675 3.761 5.148-2.972c.229-.135.524-.063.67.161.145.224.088.521-.128.678l-7.268 5.227 6.726-3.883c.229-.135.525-.063.67.162.145.224.088.521-.129.677l-4.105 2.94 3.564-2.058c.227-.134.521-.063.668.157.146.222.094.518-.119.676l-2.811 2.101 2.262-1.306c.22-.128.504-.069.655.139.149.208.119.495-.071.666l-2.597 2.328 2.013-1.161c.22-.129.504-.068.654.139s.12.494-.069.666l-.522.47c.197-.038.416.052.524.241.139.239.057.545-.183.683l-3.863 2.23c-.218.13-.503.069-.654-.139-.15-.207-.12-.494.069-.666l.422-.379-2.051 1.184c-.219.13-.503.069-.655-.139-.149-.208-.119-.495.071-.666l2.597-2.328-5.428 3.133c-.227.135-.521.062-.668-.157-.146-.222-.094-.518.119-.676l2.808-2.098-5.077 2.931c-.23.133-.526.062-.67-.162-.145-.224-.088-.521.129-.677l4.106-2.941-6.548 3.78c-.23.133-.525.062-.67-.161-.145-.224-.088-.521.128-.678l7.268-5.227-10.506 6.065c-.079.046-.165.067-.25.067z" fill="#ffffff" fill-opacity="1" data-original-color="#4095c9ff" stroke="none" stroke-opacity="1"/><g fill="#262626"><path d="m2.766 56.301c6.701.382 13.515.004 20.256.133 4.535.525 5.107-3.97 4.705-7.425-.828-5.941 1.835-13.627-1.352-18.713h7.341c-3.346 4.799-.608 12.293-1.452 18.006.001 2.706-.846 7.269 2.68 8.136 6.72.345 13.541 0 20.296.118 2.333.198 4.46-1.346 4.497-3.775-1.317-22.7 7.096-24.453-19.467-23.353 3.457-5.288.554-15.906 1.457-22.499-.917-5.669-9-2.474-13.006-3.226-4.465.779-12.037-2.286-14.366 2.78-.25 5.105.012 10.283-.079 15.414.25 2.468-.79 5.775 1.155 7.663-5.311.659-16.632-2.907-15.157 6.019.912 4.742-2.431 19.237 2.492 20.722zm39.272-25.746c4.122 1.005 16.734-2.871 16.227 3.407-.973 4.369 2.437 20.782-2.205 21.482-6.197 0-12.392 0-18.588 0-2.737.515-4.235-1.68-3.735-4.263.163-6.373-.319-12.852.17-19.179 1.558-2.724 5.541-.973 8.131-1.447zm-25.582-1.792c-1.83-6.862-.266-14.762-.732-21.957.268-4.01 5.363-2.095 8.018-2.511 4.398 1.051 16.65-3.006 16.534 3.601-.709 6.93 1.786 15.28-1.102 21.536-7.389-.165-15.76 1.368-22.719-.669zm-14.66 3.509c.591-3.772 18.113-1.11 22.169-1.816 1.91.245 2.309 1.955 2.309 3.543-.898 4.589 2.5 20.265-2.134 21.567-28.137-.098-21.906 4.158-22.344-23.294z" fill="#262626" fill-opacity="1" data-original-color="#262626ff" stroke="none" stroke-opacity="1"/><path d="m10.718 49.412c4.403 1.18 10.379-3.231 4.905-6.547 2.856-1.048 2.712-5.442-.338-6.077-1.53.009-3.813-.623-5.01.406.405 3.858-.796 8.941.443 12.218zm5.411-2.396c-.211.656-.715 1.263-1.365 1.498-.011.002-.244.057-.19.047-.94.067-1.905.008-2.851.027v-5.176c2.329-.44 5.297.801 4.405 3.604zm-2.619-9.703c2.678-.032 3.799 3.82 1.5 5.204-1.04.212-2.2-.005-3.286.07v-5.275c.596-.002 1.191-.005 1.786 0z" fill="#262626" fill-opacity="1" data-original-color="#262626ff" stroke="none" stroke-opacity="1"/><path d="m44.369 49.151c2.488.667 5.507-.727 6.221-3.275-1.557-.976-1.762 2.104-3.078 2.517-2.364 1.175-4.921-1.355-4.787-3.74-1.089-5.223 2.864-11.185 6.426-4.459.095.342 1.543-.048 1.448-.388-1.379-4.925-9.235-3.526-9.323 1.393-.037 2.933-.554 7.028 3.093 7.952z" fill="#262626" fill-opacity="1" data-original-color="#262626ff" stroke="none" stroke-opacity="1"/><path d="m25.724 22.806c0-1.496-.016-2.995-.023-4.493h4.575c.301 1.342-1.006 6.59 1.449 4.493-.053-3.185.103-6.393-.054-9.565-.644-3.342-5.47-3.213-6.978-.638-.465.947-1.414 13.628 1.032 10.203zm1.806-11.477c3.315.049 2.787 4.051 2.75 6.358h-4.577c.22-2.041-.856-5.677 1.826-6.358z" fill="#262626" fill-opacity="1" data-original-color="#262626ff" stroke="none" stroke-opacity="1"/></g></g></svg>