<svg height="300" viewBox="0 0 60 60" width="300" xmlns="http://www.w3.org/2000/svg" version="1.1" xmlns:xlink="http://www.w3.org/1999/xlink" xmlns:svgjs="http://svgjs.dev/svgjs"><g width="100%" height="100%" transform="matrix(1,0,0,1,0,0)"><g id="012---Bank-Loan" fill="none"><path id="Path" d="m27.94 40.485c-.196435.0001443-.3747553-.1147462-.4558133-.2936774-.0810579-.1789311-.0498339-.3887477.0798133-.5363226l2.055-2.342-5.339 3.087c-.2268147.12995-.5154475.0632557-.6622581-.1530278-.1468106-.2162836-.1022433-.50915.1022581-.6719722l2.668-2.119-2.108 1.212c-.2271002.1265913-.5133226.0580067-.6583864-.1577626-.1450637-.2157693-.100553-.506709.1023864-.6692374l2.169-1.684-1.613.931c-.2236156.1271011-.5071788.0638125-.6555296-.1463081s-.1130835-.4985123.0815296-.6666919l3.8-3.245-3.226 1.864c-.226507.1291681-.5142486.0625855-.6609917-.1529516-.1467432-.2155372-.103215-.5076567.0999917-.6710484l2.71-2.159-2.149 1.24c-.2287194.1310429-.5198877.0620127-.6654353-.1577616-.1455476-.2197742-.0954752-.5147944.1144353-.6742384l1.4-1.05-.845.487c-.2287194.1310429-.5198877.0620127-.6654353-.1577616-.1455476-.2197742-.0954752-.5147944.1144353-.6742384l1.463-1.105-.912.527c-.2244518.1286386-.5099659.0648202-.6582866-.1471407-.1483207-.211961-.1104625-.5020607.0872866-.6688593l3.574-3-3 1.734c-.2190652.1318893-.5023394.0772423-.6566242-.1266708s-.1298566-.4913741.0566242-.6663292l2.053-1.98-1.457.841c-.216157.1232114-.4900183.0687436-.6425795-.1278015-.1525612-.196545-.1373975-.4753583.0355795-.6541985l.4-.4c-.1263285.0099006-.2516311-.0291222-.35-.109-.1606863-.1285873-.2261691-.3424978-.165-.539l.231-.742c-.0774786-.0446426-.1419426-.1087618-.187-.186-.1380647-.2391402-.0561341-.5449248.183-.683l.5-.29c.1783902-.1034727.4020078-.0868053.5630873.0419698.1610796.1287751.226571.3432361.1649127.5400302l-.123.395 1.706-.985c.216157-.1232114.4900183-.0687436.6425795.1278015.1525612.196545.1373975.4753583-.0355795.6541985l-.268.275 1.845-1.066c.2190652-.1318893.5023394-.0772423.6566242.1266708s.1298566.4913741-.0566242.6663292l-2.063 1.976 4.4-2.541c.2240372-.1259992.5071082-.0616068.6545964.1489061s.1113381.4985559-.0835964.6660939l-3.573 3 3-1.734c.2285233-.1282497.5172952-.0583047.6618051.1602995.14451.2186041.095725.5116937-.1118051.6717005l-1.466 1.107.919-.53c.2285233-.1282497.5172952-.0583047.6618051.1602995.14451.2186041.095725.5116937-.1118051.6717005l-1.394 1.05.846-.489c.2266681-.1317558.5166136-.0660514.6643416.1505461.1477279.2165976.1030619.5105201-.1023416.6734539l-2.709 2.158 2.15-1.241c.2233421-.1266456.5063058-.0635478.6546834.1459871.1483776.209535.1139372.4973954-.0796834.6660129l-3.8 3.246 3.232-1.866c.2272713-.1290292.5155715-.0612656.6615658.155498.1459944.2167636.1004262.5093938-.1045658.671502l-2.172 1.686 1.618-.934c.226507-.1291681.5142486-.0625855.6609917.1529516.1467432.2155372.103215.5076567-.0999917.6710484l-2.667 2.119 2.109-1.217c.2117396-.1215681.4803142-.0724346.6353005.1162229.1549864.1886576.1510546.4616611-.0093005.6457771l-2.054 2.341 1.432-.826c.1710205-.0986984.384109-.087504.5438466.0285705s.2362021.3152861.1951534.5084295l-.314 1.464c.1809121.0674302.3068361.2329938.3235064.4253428.0166702.192349-.0788925.377108-.2455064.4746572l-.5.29c-.1710205.0986984-.384109.087504-.5438466-.0285705s-.2362021-.3152861-.1951534-.5084295l.263-1.227-3.08 1.781c-.0758031.044382-.1621615.067526-.25.067z" fill="#ffffff" fill-opacity="1" data-original-color="#ced2dcff" stroke="none" stroke-opacity="1"/><path id="Path" d="m10.574 40.494c-.2114169.0001723-.4000924-.1326458-.4712423-.3317308-.0711499-.1990849-.0093945-.4214031.1542423-.5552692l1.7-1.394-2.677 1.545c-.22473633.1292165-.51095901.0652384-.65928911-.1473681-.1483301-.2126064-.10956628-.5033193.08928911-.6696319l3.514-2.935-2.944 1.7c-.23028726.1343427-.52547493.0643663-.67095179-.1590541-.14547685-.2234204-.0900639-.5216852.12595179-.6779459l.441-.32c-.22887232.0695482-.47494428-.032752-.58705613-.2440585-.11211185-.2113064-.05885467-.4724202.12705613-.6229415l2.968-2.4-2.4 1.387c-.227731.1281621-.51574432.059345-.66093914-.1579231-.14519482-.217268-.09859462-.509699.10693914-.6710769l1.926-1.481-1.372.792c-.22502775.1259685-.50894668.060127-.65556319-.1520265-.14661651-.2121536-.10782744-.5010142.08956319-.6669735l3.176-2.6-2.614 1.51c-.23041837.1322364-.52401892.0611893-.66848638-.1617642-.14446747-.2229535-.0893536-.5199576.12548638-.6762358l.364-.262c-.18962207.0243845-.37703347-.0589095-.486-.216-.14722505-.2185671-.09953717-.5138819.109-.675l2.131-1.651-1.575.909c-.22695866.1282325-.51435386.0605795-.66027781-.1554298s-.1014061-.5078844.10227781-.6705702l.917-.719-.359.206c-.22197649.128183-.50493512.0677387-.65516368-.1399529-.15022856-.2076917-.11906179-.4953507.07216368-.6660471l.549-.489c-.17121514.0793142-.37249877.0554845-.52046054-.0616166-.14796178-.1171012-.21739712-.3075262-.17953946-.4923834l.321-1.531c-.11211654-.0392594-.20624306-.1177574-.265-.221-.13806467-.2391402-.05613408-.5449248.183-.683l.5-.29c.17143336-.0968933.38342053-.0859822.544.028.16138975.1147812.2398228.3140012.2.508l-.272 1.3 3.2-1.849c.2219765-.128183.5049351-.0677387.6551637.1399529.1502285.2076917.1190618.4953507-.0721637.6660471l-.542.483 2.249-1.3c.2271272-.1307942.5167067-.0640046.6636035.1530559.1468968.2170604.1012506.5107158-.1046035.6729441l-.913.717 1.833-1.058c.2275891-.1298897.5168511-.062032.6629348.1555172.1460838.2175492.0994243.5109773-.1069348.6724828l-2.139 1.655 1.581-.912c.2304184-.1322364.5240189-.0611893.6684864.1617642.1444674.2229535.0893536.5199576-.1254864.6762358l-.361.261c.2214027-.0302615.4360048.0900616.525682.2947392.0896771.2046776.0326539.4440102-.139682.5862608l-3.177 2.6 2.614-1.508c.2279124-.1308241.5182022-.0628918.6643976.1554793.1461953.2183711.0983971.512647-.1093976.6735207l-1.928 1.481 1.375-.793c.2257586-.1294404.5130594-.0640705.6605892.1503047.1475298.2143751.1059565.5060712-.0955892.6706953l-2.969 2.4 2.408-1.39c.2300482-.1308569.5222207-.059778.6664488.1621318.1442281.2219099.0905463.5177734-.1224488.6748682l-.436.318c.2277625-.0693117.4728073.0315824.5857367.2411697.1129294.2095872.0624188.4697319-.1207367.6218303l-3.517 2.934 2.95-1.7c.2253151-.1304911.5130605-.0662242.6614447.1477312.1483843.2139555.1077334.5059746-.0934447.6712688l-1.7 1.393 1.133-.654c.2117396-.1215681.4803142-.0724346.6353005.1162229.1549864.1886576.1510546.4616611-.0093005.6457771l-1.245 1.425.623-.359c.1750132-.100361.3931948-.0857096.5532182.0371499s.2305325.3298532.1787818.5248501l-.264.985c.16734.0801345.2765476.2463425.2836784.4317431s-.0889878.3595058-.2496784.4522569l-.5.29c-.1750132.100361-.3931948.0857096-.5532182-.0371499s-.2305325-.3298532-.1787818-.5248501l.185-.689-2.186 1.262c-.2117396.1215681-.4803142.0724346-.6353005-.1162229-.1549864-.1886576-.1510546-.4616611.0093005-.6457771l1.245-1.425-3.809 2.2c-.0765276.0430675-.163205.0648231-.251.063z" fill="#ffffff" fill-opacity="1" data-original-color="#ced2dcff" stroke="none" stroke-opacity="1"/><g fill="#295474"><path id="Path" d="m26.359 24.471c-.2094807-.0003301-.3965479-.1312086-.4686561-.3278877s-.0139686-.4174576.1456561-.5531123l1.637-1.39-3.693 2.131c-.226507.1291681-.5142486.0625855-.6609917-.1529516-.1467432-.2155372-.103215-.5076567.0999917-.6710484l.893-.711-1.032.6c-.2111163.1217329-.4792426.0735321-.6347434-.1141072s-.1530747-.4600529.0057434-.6448928l1.47-1.707-.841.485c-.1742346.1003534-.3916318.0865755-.5518031-.0349714-.1601713-.1215468-.2319525-.3272136-.1821969-.5220286l.278-1.081c-.0946479-.0409954-.1737985-.1110402-.226-.2-.1375532-.2386555-.0561721-.5436114.182-.682l.5-.29c.1743361-.1011674.3923703-.087762.553.034.1604812.1217543.2322257.3279213.182.523l-.2.8 2.361-1.363c.2111163-.1217329.4792426-.0735321.6347434.1141072s.1530747.4600529-.0057434.6448928l-1.47 1.707 4.288-2.476c.2266681-.1317558.5166136-.0660514.6643416.1505461.1477279.2165976.1030619.5105201-.1023416.6734539l-.892.709 2.67-1.541c.2238916-.1275836.5080784-.0641108.6564103.1466086.148332.2107193.1122202.4996603-.0834103.6673914l-1.639 1.393 1.827-1.054c.2045748-.1162742.462539-.0741705.6195266.1011163.1569876.1752867.1705092.4363143.0324734.6268837l-1.396 1.881.741-.427c.2374252-.1242009.5305531-.0391619.6646466.1928199.1340935.2319817.0614797.5284321-.1646466.6721801l-2.809 1.619c-.2045748.1162742-.462539.0741705-.6195266-.1011163-.1569876-.1752867-.1705092-.4363143-.0324734-.6268837l1.392-1.894-4.543 2.622c-.0754832.0456007-.1618163.0701194-.25.071z" fill="#ffffff" fill-opacity="1" data-original-color="#295474ff" stroke="none" stroke-opacity="1"/><path id="Path" d="m25.433 44.493c-.2075161-.0003522-.3932458-.1288487-.4667419-.3229141-.0734962-.1940654-.0194807-.4133579.1357419-.5510859l1.891-1.675-3.713 2.144c-.2174475.1222843-.4917629.0655717-.6428937-.1329134-.1511308-.1984852-.1328285-.4780031.0428937-.6550866l1.915-1.893-1.315.759c-.1878733.1084308-.4242319.0833544-.585171-.0620835-.1609392-.1454379-.2097437-.3780585-.120829-.5759165l.607-1.351c-.2008285.0251522-.3973762-.0715492-.5-.246-.0666188-.1149293-.0847639-.2516448-.0504306-.3799727.0343334-.1283278.1183225-.2377179.2334306-.3040273l1.128-.65c.1878733-.1084308.4242319-.0833544.585171.0620835.1609392.1454379.2097437.3780585.120829.5759165l-.579 1.292 3.343-1.93c.2174475-.1222843.4917629-.0655717.6428937.1329134.1511308.1984852.1328285.4780031-.0428937.6550866l-1.917 1.894 4.649-2.679c.2217499-.124383.5015352-.0625469.6502105.143705.1486753.2062518.1188941.491237-.0692105.662295l-1.89 1.672 3.151-1.818c.2250277-.1259685.5089467-.060127.6555632.1520265.1466165.2121536.1078274.5010142-.0895632.6669735l-.5.41.026-.013c.2064426-.1180853.4674942-.0744119.6242603.1044374s.1658572.4433726.0217397.6325626l-.827 1.078.193-.111c.1549945-.0985297.351531-.1041539.5119064-.0146489.1603754.0895049.2587712.2597296.2562855.4433739s-.1054527.3511436-.2681919.436275l-2.37 1.365c-.2064426.1180853-.4674942.0744119-.6242603-.1044374s-.1658572-.4433726-.0217397-.6325626l.827-1.078-3.16 1.824c-.2251719.1281476-.5109328.0630663-.6584056-.14995-.1474728-.2130162-.107801-.5033971.0914056-.66905l.5-.411-2.141 1.237c-.0758413.0442906-.1621742.0674278-.25.067z" fill="#ffffff" fill-opacity="1" data-original-color="#295474ff" stroke="none" stroke-opacity="1"/><path id="Path" d="m12.586 24.471c-.2109044-.0003419-.3989157-.1329847-.4699642-.3315619s-.0098545-.4203827.1529642-.5544381l.71-.586-2.432 1.4c-.2184203.1276802-.4977941.0720852-.65069351-.1294872s-.13113426-.4855915.05069351-.6615128l2.227-2.165-3.832 2.216c-.21029413.1220171-.4778777.0750757-.63408277-.1112352-.15620506-.186311-.15574814-.4579804.00108277-.6437648l1.707-2.028-1.136.655c-.17328693.100122-.38958193.0872688-.54979187-.0326709-.16020994-.1199398-.23346655-.3238569-.18620813-.5183291l.292-1.2c-.10054741-.0419777-.18427581-.1162075-.238-.211-.13755324-.2386555-.05617205-.5436114.182-.682l.5-.29c.17316351-.1005217.38959626-.0880468.55006352.0317049.16046727.1197517.23402091.3236845.18693648.5182951l-.228.936 2.591-1.5c.2102941-.1220171.4778777-.0750757.6340828.1112352.156205.186311.1557481.4579804-.0010828.6437648l-1.705 2.032 4.841-2.8c.2184203-.1276802.4977941-.0720852.6506935.1294872s.1311343.4855915-.0506935.6615128l-2.227 2.165 4.2-2.423c.2251719-.1281476.5109328-.0630663.6584056.14995.1474728.2130162.107801.5033971-.0914056.66905l-.713.587.147-.084c.217123-.1206668.4899085-.063641.6405105.1338986s.1333491.4756874-.0405105.6531014l-.47.468c.2149015-.0496665.4371749.0458827.549.236.1382327.2388784.0567713.5445824-.182.683l-3.12 1.801c-.217123.1206668-.4899085.063641-.6405105-.1338986s-.1333491-.4756874.0405105-.6531014l.414-.412-2.078 1.2c-.0755826.0452501-.1619093.0694216-.25.07z" fill="#ffffff" fill-opacity="1" data-original-color="#295474ff" stroke="none" stroke-opacity="1"/><path id="Path" d="m8.03 44.5c-.21239328-.0002713-.40143691-.1346967-.47143072-.3352256-.06999382-.200529-.00566113-.4233944.16043072-.5557744l1.028-.821-.468.27c-.22063558.1300292-.50385102.072325-.65602439-.1336626-.15217338-.2059876-.12410138-.4936554.06502439-.6663374l.672-.633-.081.047c-.19389611.1109197-.43784384.079769-.597645-.0763158-.15980115-.1560849-.19668241-.3992322-.090355-.5956842l.452-.824c-.21164721-.0297205-.38100259-.1906783-.42143917-.4005419-.04043659-.2098636.05698762-.4222245.24243917-.5284581l1.128-.65c.19436215-.1130151.44025503-.082403.60097453.0748176.1607195.1572205.19673573.4023801.08802547.5991824l-.353.642 2.28-1.316c.2207276-.1320893.5056598-.0751513.6586724.1316224.1530126.2067738.124171.4959044-.0666724.6683776l-.674.632 2.474-1.429c.226047-.126152.5110038-.0589101.6568083.1549885.1458046.2138986.1042381.5037159-.0958083.6680115l-1.027.82 2.852-1.643c.2221262-.1265945.5039712-.0652242.6533525.1422642.1493814.2074884.1181698.4942439-.0723525.6647358l-1.883 1.663 2.631-1.518c.2238916-.1275836.5080784-.0641108.6564103.1466086.148332.2107193.1122202.4996603-.0834103.6673914l-.491.415c.2074518-.0784903.4418443-.0133138.579.161.1530833.1988024.1351171.4802742-.042.658l-.309.31c.1525643.0109759.2917119.091181.3776794.2176955s.1092966.2854191.0633206.4313045l-.218.693c.0761308.0441585.1392571.1076296.183.184.1373847.2389169.0555349.543953-.183.682l-.5.289c-.1783412.1027734-.4014418.085753-.5621286-.0428849-.1606868-.1286378-.2261219-.3426047-.1648714-.5391151l.107-.341-1.611.93c-.216926.1250668-.492915.0703862-.6457677-.1279434-.1528528-.1983296-.1354294-.4791432.0407677-.6570566l.076-.077-1.5.868c-.2238916.1275836-.5080784.0641108-.6564103-.1466086-.148332-.2107193-.1122202-.4996603.0834103-.6673914l.469-.4-2.114 1.218c-.2226165.1311453-.5084893.0710791-.6594995-.1385709-.1510103-.20965-.1174166-.4998269.0774995-.6694291l1.882-1.662-4.29 2.477c-.07564311.0449905-.16198867.0688219-.25.069z" fill="#ffffff" fill-opacity="1" data-original-color="#295474ff" stroke="none" stroke-opacity="1"/><path id="Path" d="m40.129 24.471c-.2104372-.0000946-.398292-.1319399-.4699198-.3298118-.0716278-.197872-.011696-.4194137.1499198-.5541882l1.5-1.251-2.843 1.641c-.225024.1298327-.5119893.0657046-.6603401-.147566s-.108657-.5046224.0913401-.670434l.93-.773-.545.314c-.2201191.1211079-.4959248.0600693-.6443868-.1426092s-.1234717-.48405.0583868-.6573908l.346-.314c-.1112366-.0001683-.2196333-.0351349-.31-.1-.1600231-.1203517-.2328153-.3245633-.185-.519l.289-1.186c-.0997336-.0419621-.1827334-.1158178-.236-.21-.1375532-.2386555-.0561721-.5436114.182-.682l.5-.29c.1732869-.100122.3895819-.0872688.5497919.0326709.1602099.1199398.2334665.3238569.1862081.5183291l-.224.917 2.56-1.477c.220007-.1195261.4945025-.0578939.6422936.1442135.147791.2021073.1233056.4823693-.0572936.6557865l-.129.118 1.607-.928c.2245986-.1270093.5089574-.0622563.656419.1494768.1474617.2117332.109592.5009023-.087419.6675232l-.932.775 2.77-1.6c.2248726-.1315945.5131068-.0684479.6623629.1451111.149256.213559.1094985.5059386-.0913629.6718889l-1.5 1.25 2.823-1.629c.2234866-.1250979.5053669-.0610931.6529133.148253.1475465.209346.1130458.4963352-.0799133.664747l-1.122.953.55-.316c.2104359-.1206411.4771079-.0728408.6325393.1133813.1554313.186222.1547824.4571434-.0015393.6426187l-.744.876.113-.065c.23893-.1358451.5427102-.0533708.6801373.1846528.137427.2380237.0569695.5423443-.1801373.6813472l-2.612 1.507c-.2103697.1193703-.4760224.0710392-.6308685-.1147762-.1548462-.1858154-.1544805-.4558286.0008685-.6412238l.745-.877-2.831 1.633c-.2236156.1271011-.5071788.0638125-.6555296-.1463081s-.1130835-.4985123.0815296-.6666919l1.121-.952-3.059 1.765c-.0754832.0456007-.1618163.0701194-.25.071z" fill="#ffffff" fill-opacity="1" data-original-color="#295474ff" stroke="none" stroke-opacity="1"/></g><path id="Path" d="m40.636 35.141c-.207106-.0000372-.3927519-.1277523-.466831-.3211565-.0740791-.1934041-.0212558-.4124595.132831-.5508435l2.8-2.523-3.822 2.208c-.2272713.1290292-.5155715.0612656-.6615658-.155498-.1459944-.2167636-.1004262-.5093938.1045658-.671502l2.293-1.79-1.736 1c-.22978.1349572-.525025.0659893-.6712375-.156798s-.0920063-.5210957.1232375-.678202l.863-.637-.315.181c-.2235892.1309392-.5101637.0693762-.6602503-.1418375-.1500866-.2112138-.1139527-.5020905.0832503-.6701625l3.66-3.159-3.083 1.781c-.2180963.1257781-.4956948.0697764-.6479698-.1307191-.1522751-.2004955-.1317242-.4829397.0479698-.6592809l1.672-1.635-1.073.619c-.1697587.0981872-.381244.088069-.5408535-.0258763-.1596096-.1139452-.2378711-.3106774-.2001465-.5031237l.336-1.727c-.1880076-.0610021-.3224329-.2270336-.3429782-.4236194-.0205452-.1965859.0766462-.3868238.2479782-.4853806l.5-.29c.1697587-.0981872.381244-.088069.5408535.0258763.1596096.1139452.2378711.3106774.2001465.5031237l-.294 1.512 3.56-2.056c.2180963-.1257781.4956948-.0697764.6479698.1307191.1522751.2004955.1317242.4829397-.0479698.6592809l-1.674 1.637 4.224-2.439c.2237086-.1333262.5122955-.0726121.6633185.1395516.151023.2121638.1139038.5047228-.0853185.6724484l-3.66 3.159 3.372-1.939c.2295527-.1314921.521805-.0614183.6667704.1598726.1449654.2212908.0924688.5172061-.1197704.6751274l-.86.635.316-.181c.2272713-.1290292.5155715-.0612656.6615658.155498.1459944.2167636.1004262.5093938-.1045658.671502l-2.3 1.791 1.741-1c.2198926-.1179958.4931214-.0557887.6402596.1457705s.1231296.4807496-.0562596.6542295l-2.8 2.523 2.225-1.284c.1837263-.1060059.4143442-.0845503.5753619.0535292.1610177.1380794.2173886.3627286.1406381.5604708l-.422 1.079c.2180813.01739.3995328.1745391.4478889.3879017.0483561.2133625-.0476138.4333858-.2368889.5430983l-.894.517c-.1839154.1064-.4149896.0849436-.57617-.0535004-.1611804-.1384441-.2172595-.3636347-.13983-.5614996l.37-.948-5.116 2.954c-.0759218.0427667-.1618747.0645138-.249.063z" fill="#ffffff" fill-opacity="1" data-original-color="#ced2dcff" stroke="none" stroke-opacity="1"/><path id="Path" d="m5.232 49.5c-.20998018.0001646-.39769116-.1308859-.469899-.3280602-.07220785-.1971744-.01352597-.4184572.146899-.5539398l2.8-2.365-3.43 1.977c-.21415602.122774-.48586267.0708854-.63970457-.1221662s-.14377368-.4694853.02370457-.6508338l2.168-2.331-1.552.9c-.20581399.1174316-.46579304.0742687-.62261826-.1033697-.15682523-.1776385-.16742357-.440963-.02538174-.6306303l.612-.809c-.20808727-.0347362-.37198273-.1963421-.40964268-.4039201-.03765994-.2075781.05901977-.4164589.24164268-.5220799l1.632-.943c.20606126-.1184061.46699602-.0754024.62416339.1028662.15716736.1782685.16713238.4425353.02383661.6321338l-.435.576 2.3-1.325c.21415602-.122774.48586267-.0708854.63970457.1221662s.14377368.4694853-.02370457.6508338l-2.174 2.327 5.388-3.11c.2238916-.1275836.5080784-.0641108.6564103.1466086.148332.2107193.1122202.4996603-.0834103.6673914l-2.8 2.366 5.514-3.183c.223215-.1246833.504532-.0608811.6521181.1478993.1475861.2087803.1138868.4952664-.0781181.6641007l-2.858 2.442 5.647-3.258c.2292016-.1303039.5201978-.0602449.6649792.1600976s.0935911.5152436-.1169792.6739024l-1.02.756 2.759-1.593c.2290632-.1321979.5214568-.063148.6671806.1575572.1457237.2207053.094369.5167199-.1171806.6754428l-1.233.922 3.045-1.758c.2231941-.1282474.5072862-.0660776.6565145.1436697s.1148202.4985197-.0795145.6673303l-2.926 2.532 5.8-3.347c.2251719-.1281476.5109328-.0630663.6584056.14995.1474728.2130162.107801.5033971-.0914056.66905l-2.589 2.129 5.113-2.951c.2202286-.1227467.4973928-.0623225.6465459.1409526s.1236267.4857984-.0595459.6590474l-3.137 2.855 5.726-3.306c.2236156-.1271011.5071788-.0638125.6555296.1463081s.1130835.4985123-.0815296.6666919l-2.433 2.068 1.8-1.038c.2198926-.1179958.4931214-.0557887.6402596.1457705s.1231296.4807496-.0562596.6542295l-.651.585.028-.015c.181296-.1037699.4079959-.0838969.5684722.0498333.1604764.1337303.2209038.3531301.1515278.5501667l-.455 1.277c.2103847.0307475.3783136.191184.4186249.3999473.0403114.2087633-.0558127.4201873-.2396249.5270527l-.8.463c-.181296.1037699-.4079959.0838969-.5684722-.0498333-.1604764-.1337303-.2209038-.3531301-.1515278-.5501667l.4-1.121-2.993 1.729c-.2198926.1179958-.4931214.0557887-.6402596-.1457705s-.1231296-.4807496.0562596-.6542295l.653-.587-2.415 1.393c-.2236156.1271011-.5071788.0638125-.6555296-.1463081s-.1130835-.4985123.0815296-.6666919l2.425-2.065-4.991 2.881c-.2202286.1227467-.4973928.0623225-.6465459-.1409526s-.1236267-.4857984.0595459-.6590474l3.138-2.854-6.343 3.661c-.2247421.1254395-.5079955.0597743-.6546194-.1517571-.1466238-.2115314-.1087109-.4998143.0876194-.6662429l2.587-2.128-5.11 2.95c-.2233144.1304087-.509223.0690136-.6593121-.1415784-.150089-.2105921-.1148283-.5008847.0813121-.6694216l2.93-2.533-5.8 3.347c-.2290632.1321979-.5214568.063148-.6671806-.1575572-.1457237-.2207053-.094369-.5167199.1171806-.6754428l1.234-.922-3.045 1.758c-.2292016.1303039-.5201978.0602449-.6649792-.1600976s-.0935911-.5152436.1169792-.6739024l1.025-.76-2.764 1.6c-.22361555.1271011-.50717883.0638125-.65552963-.1463081-.14835081-.2101206-.11308343-.4985123.08152963-.6666919l2.856-2.44-5.636 3.246c-.07570376.0447318-.16206851.0682231-.25.068z" fill="#ffffff" fill-opacity="1" data-original-color="#346d94ff" stroke="none" stroke-opacity="1"/><path id="Path" d="m45.781 59.448c-.2152152 0-.4062846-.137715-.4743416-.3418861-.0680571-.2041711.0021694-.4289848.1743416-.5581139l5.7-4.233-8.073 4.661c-.2335451.1328438-.5303244.0573638-.6720248-.1709163s-.0776546-.5277351.1450248-.6780837l2.955-1.969-4.026 2.321c-.2336556.130691-.5287926.0541466-.6694787-.1736308-.140686-.2277774-.0769932-.5259521.1444787-.6763692l2.952-1.936-3.727 2.152c-.2355494.1441463-.5433537.0700494-.6875-.1655s-.0700494-.5433537.1655-.6875l2.662-1.724-3.339 1.926c-.2342478.1308833-.5300435.0535271-.6702262-.1752769s-.074765-.527467.1482262-.6767231l3.654-2.367-4.143 2.39c-.2325262.1307666-.5267591.0559509-.6685809-.1700024s-.0812744-.5234503.1375809-.6759976l9.176-6.23-10.008 5.778c-.23171.1276221-.5227312.0526794-.6639792-.1709853s-.08384-.5186462.1309792-.6730147l10.396-7.123-11.1 6.412c-.2341443.133112-.5316521.0568382-.672871-.1725078-.1412189-.2293459-.075396-.5293391.148871-.6784922l7.026-4.61-7.202 4.161c-.2340569.1357068-.5336008.0606207-.6759704-.1694442s-.0759129-.5316408.1499704-.6805558l7.946-5.27-8.047 4.645c-.232368.1256461-.5223842.0488566-.6621282-.1753162-.1397441-.2241727-.0809951-.5183743.1341282-.6716838l8.516-5.718-8.5 4.908c-.2347713.1336383-.5332399.0566316-.6740509-.1739091-.1408109-.2305408-.0730402-.5312411.1530509-.6790909l2.76-1.782-2.38 1.376c-.2314518.1313128-.5252013.0583356-.6682918-.1660259-.1430904-.2243616-.0853808-.5214879.1312918-.6759741l9.223-6.468-8.738 5.045c-.2328603.1351428-.5309189.0616362-.6742423-.1662803-.1433233-.2279164-.080443-.5283964.1422423-.6797197l5.934-4.06-5.17 2.985c-.234721.145527-.542973.073221-.6885-.1615s-.073221-.542973.1615-.6885l1.489-.987-.478.276c-.2320312.1339105-.5283759.0611473-.672-.165-.1438968-.2264337-.0834385-.5260772.137-.679l2.507-1.739-1.064.613c-.2240372.1259992-.5071082.0616068-.6545964-.1489061s-.1113381-.4985559.0835964-.6660939l3.088-2.589c-.1510164-.0212958-.2836189-.1114212-.359-.244-.1380647-.2391402-.0561341-.5449248.183-.683l4.167-2.404c.2244518-.1286386.5099659-.0648202.6582866.1471407.1483207.211961.1104625.5020607-.0872866.6688593l-2.611 2.187 6.5-3.753c.2322938-.1351768.5298928-.0625367.6737842.164462.1438914.2269988.0825928.5271392-.1387842.679538l-2.495 1.737 4.094-2.363c.2340569-.1357068.5336008-.0606207.6759704.1694442s.0759129.5316408-.1499704.6805558l-1.492.989 2.472-1.432c.2328603-.1351428.5309189-.0616362.6742423.1662803.1433233.2279164.080443.5283964-.1422423.6797197l-5.94 4.063 7.252-4.186c.2314518-.1313128.5252013-.0583356.6682918.1660259.1430904.2243616.0853808.5214879-.1312918.6759741l-9.221 6.466 10.635-6.139c.2343611-.1288923.5286543-.0505227.6678755.1778537.1392213.2283764.0740613.5258734-.1478755.6751463l-2.775 1.784 3.208-1.851c.2330829-.1306613.5277074-.0549657.6689423.1718661.1412349.2268319.0791592.5246238-.1409423.6761339l-8.513 5.715 9.2-5.311c.2335451-.1328438.5303244-.0573638.6720248.1709163s.0776546.5277351-.1450248.6780837l-7.95 5.277 8.427-4.865c.2336556-.130691.5287926-.0541466.6694787.1736308.140686.2277774.0769932.5259521-.1444787.6763692l-7.027 4.611 7.208-4.162c.2324067-.1328499.5282158-.0590851.6710333.1673329s.0819688.5251514-.1380333.6776671l-10.392 7.111 10.611-6.126c.2338926-.1469077.5425923-.0763926.6895.1575s.0763926.5425923-.1575.6895l-9.179 6.232 9.122-5.266c.2342478-.1308833.5300435-.0535271.6702262.1752769s.074765.527467-.1482262.6767231l-3.652 2.371 3.264-1.884c.2342478-.1308833.5300435-.0535271.6702262.1752769s.074765.527467-.1482262.6767231l-2.663 1.726 2.18-1.258c.2341443-.133112.5316521-.0568382.672871.1725078.1412189.2293459.075396.5293391-.148871.6784922l-2.955 1.933 2.283-1.32c.2340027-.1389988.5362016-.0652981.6799386.1658244s.0762078.5347601-.1519386.6831756l-2.953 1.966 2.059-1.188c.2292016-.1303039.5201978-.0602449.6649792.1600976s.0935911.5152436-.1169792.6739024l-5.693 4.232 3.993-2.3c.2292016-.1303039.5201978-.0602449.6649792.1600976s.0935911.5152436-.1169792.6739024l-2.021 1.5c.1789914.0044665.3438322.0983394.439.25.1373847.2389169.0555349.543953-.183.682l-6.878 3.971c-.2292016.1303039-.5201978.0602449-.6649792-.1600976s-.0935911-.5152436.1169792-.6739024l1.569-1.162-3.906 2.254c-.075344.0411636-.1601645.0618515-.246.06z" fill="#ffffff" fill-opacity="1" data-original-color="#ffc306ff" stroke="none" stroke-opacity="1"/><path id="Path" d="m24.916 53.471c-.2087291-.0001193-.3954224-.1298878-.4682725-.3254914-.07285-.1956035-.0165268-.4158805.1412725-.5525086l1.757-1.521-4.038 2.328c-.2221262.1265945-.5039712.0652242-.6533525-.1422642-.1493814-.2074884-.1181698-.4942439.0723525-.6647358l1.863-1.642-4.243 2.449c-.220439.1262233-.5004889.0670999-.6510942-.1374575-.1506054-.2045574-.1238973-.4895314.0620942-.6625425l2.069-1.913-4.697 2.713c-.2167987.1191224-.4881174.0618073-.638215-.1348206s-.1338516-.473458.038215-.6511794l2.27-2.272-5.3 3.058c-.2154812.1230022-.4885691.0693794-.6415393-.1259712-.1529702-.1953505-.1395447-.4733291.0315393-.6530288l2.311-2.4-5.513 3.179c-.21712299.1206668-.48990849.063641-.64051049-.1338986s-.13334908-.4756874.04051049-.6531014l2.252-2.238-5.24 3.025c-.21679873.1191224-.48811736.0618073-.63821498-.1348206-.15009763-.1966279-.13385163-.473458.03821498-.6511794l2.25-2.251-5 2.889c-.219385.1342545-.50483439.0801688-.65990028-.1250351-.1550659-.2052038-.12915517-.4945743.05990028-.6689649l2.012-1.929-1.883 1.087c-.19815817.1168249-.45045587.0833756-.61132641-.0810488s-.18879979-.4173926-.06767359-.6129512l.9-1.472c-.24456405.0980971-.52328419-.010444-.6370961-.2481023s-.02364791-.5228539.2060961-.6518977l1.632-.943c.19803191-.1143195.44838304-.0797316.608.084.15998833.1640271.18801011.4158111.068.611l-.9 1.461 3.768-2.163c.219385-.1342545.50483439-.0801688.65990028.1250351.1550659.2052038.12915517.4945743-.05990028.6689649l-2.018 1.924 4.722-2.725c.21679873-.1191224.4881174-.0618073.638215.1348206s.1338516.473458-.038215.6511794l-2.249 2.254 5.27-3.042c.217123-.1206668.4899085-.063641.6405105.1338986s.1333491.4756874-.0405105.6531014l-2.251 2.237 5.244-3.027c.2154812-.1230022.4885691-.0693794.6415393.1259712.1529702.1953505.1395447.4733291-.0315393.6530288l-2.312 2.4 5.515-3.184c.2167987-.1191224.4881174-.0618073.638215.1348206s.1338516.473458-.038215.6511794l-2.269 2.273 5.3-3.061c.220439-.1262233.5004889-.0670999.6510942.1374575.1506054.2045574.1238973.4895314-.0620942.6625425l-2.065 1.919 4.7-2.714c.2225048-.1289965.5065753-.0681522.6567253.1406622.15015.2088145.1173946.4974755-.0757253.6673378l-1.865 1.643 4.253-2.457c.2231941-.1282474.5072862-.0660776.6565145.1436697s.1148202.4985197-.0795145.6673303l-1.76 1.519 3.725-2.15c.2208144-.1342809.5075757-.0781561.6614736.1294633s.1242133.4983097-.0684736.6705367l-1.935 1.819 1.931-1.115c.2135054-.1227461.4845965-.071745.6388985.1201978.1543021.1919428.1458589.4676604-.0198985.6498022l-.8.879.676-.39c.1496068-.0864159.3332261-.0894725.4856263-.0080839.1524001.0813886.2519839.2356885.2633737.4080839l.093 1.259c.2373927-.0356081.4665905.1025141.5460103.3290438.0794198.2265298-.0133533.4775328-.2210103.5979562l-.517.3c-.149181.0842578-.3307836.0876417-.483.009-.1525265-.0801496-.2530388-.2331852-.266-.405l-.091-1.22-2.8 1.615c-.2135054.1227461-.4845965.071745-.6388985-.1201978-.1543021-.1919428-.1458589-.4676604.0198985-.6498022l.806-.878-2.867 1.64c-.2207276.1320893-.5056598.0751513-.6586724-.1316224-.1530126-.2067738-.124171-.4959044.0666724-.6683776l1.94-1.822-4.538 2.622c-.0754237.0457373-.1617951.0702668-.25.071z" fill="#ffffff" fill-opacity="1" data-original-color="#295474ff" stroke="none" stroke-opacity="1"/><path id="Path" d="m10.87 20.472c-.2211793-.0003689-.4158354-.1460121-.4786071-.3580972-.0627717-.2120852.0212583-.4402122.2066071-.5609028l7.253-4.711-9.635 5.558c-.2327769.1270897-.52428602.0503218-.66427406-.174934-.13998804-.2252559-.07974688-.5206233.13727406-.673066l11.247-7.474-14.416 8.322c-.23051513.1085113-.5057581.0263402-.63905779-.1907845-.13329968-.2171247-.08202134-.4997575.11905779-.6562155l10.957-7.134-12.631 7.291c-.23541159.1379583-.53795774.061708-.67986369-.1713453-.14190596-.2330532-.07076502-.5368414.15986369-.6826547l10-6.434c-.237076.1096545-.5186085.0183439-.6461953-.2095832s-.0582291-.5156556.1591953-.6604168l12.586-8.386c-.0179292-.1943893.0789139-.38143704.248-.479l3.557-2.053c.2327769-.12708967.524286-.05032185.6642741.17493405.139988.22525589.0797468.52062323-.1372741.67306595l-3.364 2.242 4.344-2.508c.2343611-.12889229.5286543-.05052268.6678755.17785371.1392213.22837639.0740613.52587341-.1478755.67514629l-9.967 6.415 10.877-6.284c.2347034-.13648675.5354374-.06073246.6774741.17065437.1420368.23138684.073465.53383942-.1544741.68134563l-10.963 7.14 11.987-6.92c.2335451-.1328438.5303244-.05736382.6720248.17091629s.0776546.52773513-.1450248.67808371l-11.243 7.473 12.4-7.159c.2334572-.12530509.5241289-.04673672.6626677.17911863s.0768365.52056857-.1406677.67188137l-7.25 4.709 8.05-4.647c.2354379-.13454995.5352149-.05690217.6757281.17502611.1405133.23192829.0705395.53358878-.1577281.67997389l-1.71 1.082 2.178-1.257c.2325262-.13076655.5267591-.05595091.6685809.17000241s.0812744.52345026-.1375809.67599759l-8.763 5.974 9.861-5.694c.2355494-.14414631.5433537-.07004944.6875.1655.1441463.23554945.0700494.54335368-.1655.6875l-2.518 1.628 3.043-1.757c.2327682-.13793867.5330334-.06569054.677577.16303478s.0809181.53093515-.143577.68196522l-6.359 4.359 7.277-4.2c.1514806-.09467538.3419632-.1013451.4996948-.01749673.1577316.08384836.258749.24547625.265.424s-.0832142.34682135-.2346948.44149673l-3.659 2.458 4.315-2.488c.2296891-.12962966.5205695-.0585592.6646041.16238191.1440346.22094109.0916869.51576669-.1196041.67361809l-5.98 4.373 7.069-4.08c.2304184-.1322364.5240189-.0611893.6684864.1617642.1444674.2229535.0893536.5199576-.1254864.6762358l-4.156 3.007 5-2.887c.2266506-.1274915.5131906-.0599635.6590607.1553189.1458701.2152823.1023667.5064398-.1000607.6696811l-4.38 3.439 5.442-3.142c.2256098-.1311968.5141774-.0668035.6626093.1478598.1484318.2146634.1067938.5073817-.0956093.6721402l-3.328 2.719 4.3-2.479c.2208144-.1342809.5075757-.0781561.6614736.1294633s.1242133.4983097-.0684736.6705367l-2.792 2.631 3.905-2.255c.2260575-.1301558.5141897-.0646595.6617686.1504288.1475789.2150884.1050107.5074886-.0977686.6715712l-.5.4.929-.536c.2230711-.126215.5054574-.0633143.6538691.1456472.1484117.2089616.1147824.4963073-.0778691.6653528l-.252.217.635-.366c.2154812-.1230022.4885691-.0693794.6415393.1259712.1529702.1953505.1395447.4733291-.0315393.6530288l-.477.5.933-.538c.1941537-.1124089.4394114-.0817355.599901.0750271.1604895.1567626.1969159.4012321.089099.5979729l-.405.738.849-.491c.2394154-.1380712.5454288-.0559154.6835.1835s.0559154.5454288-.1835.6835l-2.392 1.379c-.1941537.1124089-.4394114.0817355-.599901-.0750271-.1604895-.1567626-.1969159-.4012321-.089099-.5979729l.4-.736-2.438 1.409c-.2154812.1230022-.4885691.0693794-.6415393-.1259712-.1529702-.1953505-.1395447-.4733291.0315393-.6530288l.476-.5-2.209 1.279c-.2222901.121792-.5005481.0579824-.6475595-.1484972s-.1162621-.4902993.0715595-.6605028l.25-.216-1.78 1.025c-.2257586.1294404-.5130594.0640705-.6605892-.1503047-.1475298-.2143751-.1059565-.5060712.0955892-.6706953l.495-.4-2.118 1.221c-.2208953.136633-.509623.0813788-.6644625-.1271591-.1548394-.208538-.1242214-.5009064.0704625-.6728409l2.794-2.637-5.948 3.437c-.2250277.1259685-.5089467.060127-.6555632-.1520265-.1466165-.2121536-.1078274-.5010142.0895632-.6669735l3.328-2.72-6.131 3.539c-.2268147.12995-.5154475.0632557-.6622581-.1530278-.1468106-.2162836-.1022433-.50915.1022581-.6719722l4.374-3.441-7.391 4.266c-.2304184.1322364-.5240189.0611893-.6684864-.1617642-.1444674-.2229535-.0893536-.5199576.1254864-.6762358l4.155-3.004-6.659 3.842c-.2273693.1126064-.5030336.0370622-.6412306-.1757254s-.095108-.4953492.1002306-.6572746l5.973-4.367-9.02 5.2c-.23265.1288599-.5254615.0530472-.6663444-.1725252s-.0805297-.5219566.1373444-.6744748l3.664-2.453-5.733 3.3c-.23171.1276221-.5227312.0526794-.6639792-.1709853s-.08384-.5186462.1309792-.6730147l6.362-4.356-9.019 5.2c-.2338963.1269547-.5262491.04845-.6650871-.1785941-.1388379-.227044-.0755015-.5230536.1440871-.6734059l2.513-1.625-4.293 2.477c-.2318412.125947-.5216461.0500755-.6620287-.1733204-.1403825-.223396-.0830243-.5174256.1310287-.6716796l8.76-5.971-11.808 6.816c-.2349709.1292146-.5300387.050062-.6687925-.179405-.1387537-.2294671-.0717837-.5275361.1517925-.675595l1.7-1.077-3.348 1.932c-.0755201.0456395-.1617733.0704804-.25.072z" fill="#ffffff" fill-opacity="1" data-original-color="#346d94ff" stroke="none" stroke-opacity="1"/><g id="Outer_Lines" fill="#262626"><path id="Shape" d="m.276 50.194c-.648 2.631.629 2.957 2.565 3.09 3.718.254 7.555 0 11.279 0h20.034c6.069 9.8 24.85 6.783 25.57-7.478-.395-7.838-6-12.021-12.043-12.694.0265499-.0426438.0426536-.090955.047-.141v-8.834c1.284-.722 1.061-2.28 1.008-3.769h4c.0708205-.0016979.1411017-.0127949.209-.033.1232764-.0079181.2443215-.0366578.358-.085 3.222-1.439-.619-3.338-2.134-4.384l-14.332-9.9c-2.127-1.466-5.604-5.112-8.384-5.324-2.174-.166-4.825 2.5-6.391 3.58-2.302 1.59-21.984 13.298-20.553 15.643.7 1.144 4.7.5 5.638.5h.119c-.034 1.605-.286 3.285 1.01 3.88v14.655c-.043.019-.09.031-.13.053-1.185.63-.977 2.356-.894 3.65-.3740509.0244806-.74594743.0749356-1.113.151-2.9.64-2.875 2.419-2.865 5-1.497.36-2.663 1.075-2.998 2.44zm58-4c-.417 8.256-8.255 15.048-16.75 11.469-4.7201455-2.0571619-7.7797084-6.7080897-7.8-11.857.032603-4.221823 2.1755136-8.1473018 5.709-10.458.0384752-.0218657.0752462-.0466025.11-.074 2.0520614-1.3307568 4.4726176-1.9779887 6.915-1.849.1999936.0906202.4254997.1079668.637.049.9497453.1026707 1.8837487.3188814 2.782.644 5.202 1.899 8.126 6.718 8.397 12.076zm-49.552-5.61c0-.36-.069-.993.116-1.194h7.635c.3878551.1090381.6909619.4121449.8.8.1418813.8128166.1509997 1.643264.027 2.459h-5.368c-.325 0-.655.008-.986.017-.726-.04-1.477-.09-2.221-.107.05974699-.6570244.05874273-1.3181602-.003-1.975zm8.569-20.11c.069.905.233 2.741-.334 3.052h-5.793c-.877 0-2.1.337-2.436-.738-.13792599-.7643641-.14806367-1.5463171-.03-2.314zm-.992 4c.0533442.6876989.0449774 1.3787941-.025 2.065v11.995c-.826-.031-1.692.03-2.525.076h-2.289c-.5835324-.0449283-1.1691648-.0562804-1.754-.034-.06622708-.7047278-.06086636-1.4143531.016-2.118v-11.976c2.188.066 4.388.004 6.576-.005zm1.423 14.257v-14.543c1.3-.726 1.068-2.329 1.015-3.82h3.529c-.1119505.9388385-.1092641 1.8878103.008 2.826.0844775.5291985.478969.9556438 1 1.081v14.625c-.041.019-.086.03-.125.051-1.222.65-.963 2.464-.888 3.768h-3.537c.021-1.367.488-3.465-1.002-3.985zm29.291-15.182h-7.5c-.3906048-.0829418-.6980743-.3841762-.789-.773-.131045-.77453-.1394814-1.5648491-.025-2.342h8.592c.062.866.234 2.725-.278 3.115zm-9.74-.41c.0514307.563258.4519748 1.0330962 1 1.173v10.761c-1.9426842 1.1572182-3.5218294 2.8361427-4.558 4.846-.0884032-.5442842-.4657342-.9974645-.985-1.183v-14.66c1.267-.714 1.071-2.227 1.009-3.708h3.526c-.0974507.9212432-.0947683 1.8503349.008 2.771zm-7.454-2.752c.1 0 .218-.008.352-.019h2.211c-.4.3.24 2.569-.278 3.164h-7.782c-.3113478-.1539345-.5331801-.4441652-.6-.785-.1302249-.7806049-.1393318-1.5766201-.027-2.36zm-6.1 20.2c-.0385176-.3733607-.014522-.7505307.071-1.116h7.861c.3031783.1393085.5298662.4047527.62.726.1418843.8131525.1510026 1.6439293.027 2.46h-5.366c-1.067 0-2.181.09-3.248 0 .0188537-.0209649.0319467-.0464619.038-.074.064436-.6647756.064436-1.3342244 0-1.999zm6.281-16.116c.4322726-.0371825.8663976-.0482026 1.3-.033.0321056.6619985.0214167 1.3253795-.032 1.986v12.108h-5.27c-.163 0-.368.019-.579.035-.218 0-.434 0-.648.009-.025 0-.047-.008-.071-.011-.0321056-.6619985-.0214167-1.3253795.032-1.986v-12.111zm9.723 9.843v-9.86h.443c1.422.03 2.848.017 4.273 0h1.828v8.568c-2.2487076-.0579105-4.4823891.3822692-6.541 1.289zm-33.111-14.682c-1.893 0-4.65.446-2.789-1.856 2.278-2.818 7.223-4.989 10.2-7.042l11.436-7.9c2.489-1.719 3.058-1.142 5.482.533l12.945 8.941 6.2 4.286c.161.112 3.8 2.237 2.848 3.038h-4.387c-.0843465-.0436922-.1780093-.066336-.273-.066h-10c-.1467553.0048935-.2924244.027046-.434.066h-4.377c-.0584857-.0104462-.1176296-.016795-.177-.019h-10c-.0720044.001637-.1438245.0079839-.215.019h-4.485c-.0927503-.0705228-.2064983-.1078518-.323-.106h-10c-.1930659.0053593-.38407883.041132-.566.106zm-1.89 27.49c-1.246-2.921.722-3.65 2.709-3.8.08808422.0187283.17795019.027782.268.027h10 .01c.1257585-.0081992.2503801-.0289695.372-.062h4.248c.1167938.049358.2434527.0709243.37.063h9.839c-.1788616.9387082-.2672664 1.8924092-.264 2.848 0 .525.029 1.03.075 1.522h-20.025c-2.48755951-.2137112-4.98518065-.2871608-7.481-.22-.0240004-.1306565-.06466574-.2576937-.121-.378zm-1.152 1.162h28.857c.1917123 1.5505163.6662322 3.0527106 1.4 4.432h-25.815c-1.116 0-4.508.614-5.5 0-1.891-1.167-.333-3.897 1.058-4.432z" fill="#262626" fill-opacity="1" data-original-color="#262626ff" stroke="none" stroke-opacity="1"/><path id="Shape" d="m46.724 37.647v-.841c0-.388-1.448-.135-1.448.388v.45c-1.3133.1919914-2.4848579.928617-3.227 2.029-1.2467495 1.8090607-.923242 4.2679766.749 5.693.629584.4787312 1.3529572.8194628 2.123 1 .117.038.236.069.355.1v6.943c-1.4822031-.5967629-2.4796445-2.0038118-2.552-3.6-.023-.517-1.475-.212-1.448.388.0311013 2.2172649 1.7847653 4.0261693 4 4.126v.874c0 .388 1.448.135 1.448-.388v-.54c.8414097-.1480657 1.6375543-.4874621 2.327-.992.0684728-.0308384.1305478-.074257.183-.128.0664687-.0467383.1198363-.1097465.155-.183 1.707-2.018 1.881-5.041-.581-6.65-.6428777-.376911-1.3490943-.6334397-2.084-.757v-7.238c1.5.487 2.416 2.533 2.552 3.873.053.531 1.508.2 1.448-.388-.1961093-2.1514215-1.8578525-3.879219-4-4.159zm2.237 10.99c.5972726 1.4568588.2399931 3.1309117-.9 4.217-.3869468.3182039-.8437414.5402616-1.333.648v-6.645c.985832.2027914 1.8155446.8641834 2.233 1.78zm-5.922-5.274c-.6048264-1.3694696-.3197461-2.9688451.721-4.045.430712-.4256441.9476574-.7540204 1.516-.963v6.858c-.9985687-.2235278-1.8300156-.9111348-2.237-1.85z" fill="#262626" fill-opacity="1" data-original-color="#262626ff" stroke="none" stroke-opacity="1"/></g></g></g></svg>