<svg id="Icons" height="300" viewBox="0 0 60 60" width="300" xmlns="http://www.w3.org/2000/svg" version="1.1" xmlns:xlink="http://www.w3.org/1999/xlink" xmlns:svgjs="http://svgjs.dev/svgjs"><g width="100%" height="100%" transform="matrix(1,0,0,1,0,0)"><path d="m12.373 30.491a.5.5 0 0 1 -.28-.914l2.144-1.454-2.237 1.293a.5.5 0 0 1 -.549-.834l6.5-4.846-6.494 3.749a.5.5 0 0 1 -.531-.845l2.224-1.515-2.025 1.169a.5.5 0 0 1 -.529-.848l1.141-.767-.916.528a.5.5 0 0 1 -.531-.846l1.778-1.209-1.567.9a.5.5 0 0 1 -.536-.843l2.6-1.816-2.419 1.4a.5.5 0 0 1 -.6-.79l1.033-1.003a.5.5 0 0 1 -.146-.922l2.7-1.558a.5.5 0 0 1 .6.79l-.664.65 9.154-5.284a.5.5 0 0 1 .536.843l-2.609 1.814 3.2-1.85a.5.5 0 0 1 .532.846l-1.773 1.2 1.748-1.009a.5.5 0 0 1 .53.848l-1.142.768 1.092-.63a.5.5 0 0 1 .531.845l-2.227 1.517 2.221-1.282a.5.5 0 0 1 .549.834l-6.5 4.845 6.806-3.929a.5.5 0 0 1 .53.847l-2.147 1.463 2.139-1.236a.5.5 0 0 1 .548.834l-4 2.97 4.132-2.385a.5.5 0 0 1 .536.843l-.1.068a.5.5 0 0 1 .534.844l-.587.432.421-.244a.5.5 0 0 1 .559.826l-.645.509.093-.052a.5.5 0 0 1 .646.737l-1.146 1.488.51-.294a.5.5 0 0 1 .727.584l-.216.681a.5.5 0 0 1 0 .864l-.5.288a.5.5 0 0 1 -.727-.584l.1-.323-1.578.91a.5.5 0 0 1 -.647-.737l1.145-1.488-3.863 2.23a.5.5 0 0 1 -.56-.825l.647-.511-2.321 1.339a.5.5 0 0 1 -.546-.836l.584-.429-2.2 1.268a.5.5 0 0 1 -.536-.843l.1-.07-1.586.916a.5.5 0 0 1 -.548-.834l4-2.971-6.6 3.809a.494.494 0 0 1 -.242.067z" fill="#ffffff" fill-opacity="1" data-original-color="#af3768ff" stroke="none" stroke-opacity="1"/><path d="m9.379 20.945a.5.5 0 0 1 -.3-.9l4.653-3.481-4.569 2.636a.5.5 0 0 1 -.545-.836l3.028-2.214-2.87 1.657a.5.5 0 0 1 -.573-.814l4.116-3.493-3.573 2.063a.5.5 0 0 1 -.558-.826l1.578-1.237a.5.5 0 0 1 -.289-.887l.155-.126a.5.5 0 0 1 -.474-.831l2.03-2.156-2.218 1.279a.5.5 0 0 1 -.585-.8l1.064-.959-1.044.6a.5.5 0 0 1 -.569-.82l.185-.154-.069.04a.5.5 0 0 1 -.652-.725l.915-1.261-.655.38a.5.5 0 1 1 -.5-.865l2.7-1.559a.5.5 0 0 1 .654.727l-.914 1.259 3.114-1.8a.5.5 0 0 1 .57.817l-.186.154.073-.042a.5.5 0 0 1 .585.8l-1.065.96 1.049-.6a.5.5 0 0 1 .614.775l-2.033 2.155 2.222-1.283a.5.5 0 0 1 .566.82l-.065.053a.5.5 0 0 1 .5.856l-1.13.887 2.3-1.329a.5.5 0 0 1 .573.814l-4.116 3.493 6.109-3.526a.5.5 0 0 1 .545.835l-3.025 2.219 3.82-2.2a.5.5 0 0 1 .549.833l-4.652 3.481 5.355-3.091a.5.5 0 0 1 .579.808l-3.062 2.683 3.45-1.992a.5.5 0 1 1 .5.865l-7.86 4.539a.5.5 0 0 1 -.579-.808l3.063-2.685-8.234 4.745a.491.491 0 0 1 -.25.067z" fill="#ffffff" fill-opacity="1" data-original-color="#e84376ff" stroke="none" stroke-opacity="1"/><path d="m5.056 20a.5.5 0 0 1 -.413-.782l1.322-1.938-1.634.944a.5.5 0 0 1 -.661-.717l.561-.814-.406.235a.5.5 0 0 1 -.742-.523l.075-.411a.51.51 0 0 1 -.543-.238.5.5 0 0 1 .184-.684l.791-.456a.5.5 0 0 1 .742.524l-.07.381 1.392-.8a.5.5 0 0 1 .661.717l-.56.812 1.615-.933a.5.5 0 0 1 .663.715l-1.323 1.931 1.828-1.055a.5.5 0 1 1 .5.865l-3.732 2.155a.489.489 0 0 1 -.25.072z" fill="#ffffff" fill-opacity="1" data-original-color="#2bc181ff" stroke="none" stroke-opacity="1"/><path d="m12.016 30.264a.5.5 0 0 1 -.333-.873l2.317-2.072-4.665 2.694a.5.5 0 0 1 -.553-.83l2.518-1.918-4.03 2.328a.5.5 0 0 1 -.557-.828l4.515-3.5-5.62 3.243a.5.5 0 0 1 -.539-.84l2.668-1.895-2.792 1.616a.5.5 0 0 1 -.558-.827l5.112-4-5.126 2.955a.5.5 0 0 1 -.546-.836l2.667-1.96-2.194 1.266a.5.5 0 0 1 -.55-.833l1.729-1.293-.884.511a.5.5 0 0 1 -.6-.794l2.06-1.973a.548.548 0 0 1 -.455-.25.5.5 0 0 1 .183-.682l3.184-1.838a.5.5 0 0 1 .6.794l-1.887 1.808 4.611-2.663a.5.5 0 0 1 .55.833l-1.732 1.293 2.735-1.578a.5.5 0 0 1 .546.836l-2.666 1.959 3.409-1.968a.5.5 0 0 1 .558.827l-5.113 4 5.889-3.4a.5.5 0 0 1 .539.84l-2.669 1.9 2.771-1.6a.5.5 0 0 1 .557.828l-4.511 3.496 4.47-2.58a.5.5 0 0 1 .553.83l-2.526 1.922 2.049-1.182a.5.5 0 0 1 .583.806l-2.316 2.069 1.235-.713a.5.5 0 1 1 .5.866l-5.436 3.142a.49.49 0 0 1 -.25.064z" fill="#ffffff" fill-opacity="1" data-original-color="#f2cb51ff" stroke="none" stroke-opacity="1"/><path d="m33.744 30.5a.5.5 0 0 1 -.277-.916l5.261-3.512-6.449 3.723a.5.5 0 0 1 -.52-.853l2.863-1.845-2.343 1.352a.5.5 0 0 1 -.527-.848l7.748-5.181-7.225 4.171a.5.5 0 0 1 -.53-.847l9.2-6.226-8.222 4.747a.5.5 0 0 1 -.522-.853l3.623-2.34-2.428 1.4a.5.5 0 0 1 -.522-.853l2.8-1.806-1.64.947a.5.5 0 0 1 -.522-.853l2.944-1.907-1.7.98a.5.5 0 0 1 -.528-.848l5.2-3.463-3.722 2.148a.5.5 0 0 1 -.522-.852l1.137-.736a.493.493 0 0 1 -.5-.232.5.5 0 0 1 .152-.68l1.387-.909a.5.5 0 0 1 -.454-.884l2.594-1.738-.872.5a.5.5 0 0 1 -.547-.835l5.252-3.876-2.59 1.495a.5.5 0 0 1 -.657-.143.5.5 0 0 1 .081-.668l4.086-3.525a.5.5 0 0 1 -.12-.915l3.618-2.089a.5.5 0 0 1 .576.812l-3.492 3.012 5.7-3.291a.5.5 0 0 1 .547.835l-5.25 3.875 5.8-3.345a.5.5 0 0 1 .529.848l-2.58 1.735 2.519-1.455a.5.5 0 0 1 .524.85l-1.3.85 1.057-.609a.5.5 0 0 1 .519.853l-.554.359.217-.125a.5.5 0 0 1 .528.848l-5.208 3.466 4.817-2.778a.5.5 0 0 1 .523.852l-2.943 1.907 2.439-1.407a.5.5 0 0 1 .521.853l-2.8 1.806 2.23-1.287a.5.5 0 0 1 .522.853l-3.625 2.341 2.987-1.724a.5.5 0 0 1 .53.847l-9.194 6.224 8.366-4.835a.5.5 0 0 1 .527.849l-7.747 5.176 6.85-3.955a.5.5 0 0 1 .52.852l-2.876 1.856 2.021-1.166a.5.5 0 0 1 .527.848l-5.26 3.511 4.255-2.456a.5.5 0 0 1 .545.836l-6.377 4.661 5.087-2.936a.5.5 0 0 1 .564.822l-4.371 3.519 2.914-1.681a.5.5 0 0 1 .586.8l-1.966 1.791.5-.29a.5.5 0 0 1 .653.728l-.924 1.265a.476.476 0 0 1 .146.159.5.5 0 0 1 -.183.682l-1.093.631a.5.5 0 0 1 -.653-.727l.5-.688-2.46 1.42a.5.5 0 0 1 -.587-.8l1.966-1.79-4.5 2.6a.5.5 0 0 1 -.564-.822l4.37-3.52-7.526 4.347a.5.5 0 0 1 -.545-.836l6.376-4.66-9.534 5.5a.494.494 0 0 1 -.253.074z" fill="#ffffff" fill-opacity="1" data-original-color="#7f5244ff" stroke="none" stroke-opacity="1"/><path d="m24.589 59.47a.5.5 0 0 1 -.269-.922l12.654-8.057-15.436 8.909a.5.5 0 0 1 -.518-.854l16.242-10.346-19.4 11.2a.5.5 0 0 1 -.515-.856l16.59-10.419-19.537 11.275a.5.5 0 0 1 -.517-.854l19.17-12.164-22.548 13.018a.5.5 0 0 1 -.518-.854l19.167-12.161-21.896 12.641a.5.5 0 0 1 -.512-.859l7.694-4.716-8.3 4.794a.5.5 0 0 1 -.515-.856l13.094-8.162-13.438 7.755a.5.5 0 0 1 -.513-.857l10.232-6.362-10.048 5.8a.5.5 0 0 1 -.511-.859l.537-.327-.119.067a.5.5 0 0 1 -.519-.854l12.424-7.931-12.055 6.96a.5.5 0 0 1 -.521-.852l11.028-7.109-10.657 6.153a.5.5 0 0 1 -.516-.857l2.67-1.673-2.257 1.3a.5.5 0 0 1 -.525-.851l8.8-5.794-8.422 4.864a.5.5 0 0 1 -.526-.851l6.03-3.969-5.635 3.253a.5.5 0 0 1 -.531-.846l5.711-3.86-5.316 3.073a.5.5 0 0 1 -.543-.838l6.158-4.462-5.778 3.336a.5.5 0 0 1 -.541-.839l3.172-2.276-2.758 1.592a.5.5 0 0 1 -.539-.841l.6-.421-.155.088a.5.5 0 0 1 -.595-.793l2.728-2.612-2.3 1.33a.5.5 0 0 1 -.59-.8l.45-.42a.5.5 0 0 1 -.7-.543l.229-1.301a.488.488 0 0 1 -.282-.227.5.5 0 0 1 .182-.682l.5-.289a.5.5 0 0 1 .741.523l-.2 1.1 2.809-1.625a.5.5 0 0 1 .591.8l-.443.413 2.1-1.213a.5.5 0 0 1 .6.794l-2.731 2.606 5.9-3.407a.5.5 0 0 1 .539.841l-.6.425 2.2-1.267a.5.5 0 0 1 .541.839l-3.173 2.269 5.4-3.114a.5.5 0 0 1 .543.838l-6.155 4.457 9.173-5.3a.5.5 0 0 1 .531.847l-5.724 3.872 8.164-4.713a.5.5 0 0 1 .525.851l-6.026 3.962 8.348-4.819a.5.5 0 0 1 .525.851l-8.793 5.791 11.508-6.644a.5.5 0 0 1 .515.856l-2.677 1.678 4.389-2.532a.5.5 0 0 1 .521.853l-11.021 7.105 13.787-7.96a.5.5 0 0 1 .519.855l-12.43 7.935 15.229-8.792a.5.5 0 0 1 .511.86l-.526.321 2.047-1.182a.5.5 0 0 1 .514.858l-10.241 6.366 12.517-7.227a.5.5 0 0 1 .515.857l-13.091 8.16 15.62-9.018a.5.5 0 0 1 .512.86l-7.683 4.709 9.647-5.57a.5.5 0 0 1 .517.855l-19.174 12.168 22.561-13.025a.5.5 0 0 1 .518.855l-19.169 12.164 22.12-12.771a.5.5 0 0 1 .515.857l-16.587 10.417 15.963-9.216a.5.5 0 0 1 .519.854l-16.246 10.35 15.542-8.973a.5.5 0 0 1 .518.855l-12.658 8.06 11.974-6.913a.5.5 0 0 1 .522.852l-12.34 8.012 11.639-6.719a.5.5 0 0 1 .524.851l-10.439 6.868 9.741-5.623a.5.5 0 0 1 .531.845l-9.618 6.539 8.9-5.137a.5.5 0 0 1 .527.848l-5.119 3.418 4.451-2.569a.5.5 0 0 1 .525.85l-1.69 1.118 1.052-.608a.5.5 0 0 1 .556.828l-5.652 4.382 4.9-2.827a.5.5 0 0 1 .573.814l-3.443 2.921 2.686-1.55a.5.5 0 0 1 .63.758l-1.778 2.076.389-.225a.5.5 0 1 1 .5.865l-2.92 1.686a.5.5 0 0 1 -.63-.758l1.779-2.076-4.947 2.853a.5.5 0 0 1 -.573-.813l3.44-2.921-6.468 3.734a.5.5 0 0 1 -.557-.828l5.649-4.38-9.021 5.208a.5.5 0 0 1 -.525-.849l1.7-1.123-3.419 1.972a.5.5 0 0 1 -.527-.848l5.117-3.417-7.389 4.265a.5.5 0 0 1 -.531-.845l9.62-6.54-12.794 7.385a.5.5 0 0 1 -.524-.85l10.438-6.868-13.37 7.718a.5.5 0 0 1 -.522-.851l12.34-8.013-15.354 8.864a.5.5 0 0 1 -.25.07z" fill="#ffffff" fill-opacity="1" data-original-color="#e88f52ff" stroke="none" stroke-opacity="1"/><path d="m30.529 35.47a.5.5 0 0 1 -.3-.9l1.134-.845-2.908 1.675a.5.5 0 0 1 -.575-.812l2.82-2.41-5.584 3.222a.5.5 0 0 1 -.572-.815l2.722-2.29-5.38 3.105a.5.5 0 0 1 -.579-.808l2.951-2.586-5.881 3.394a.5.5 0 0 1 -.583-.8l3.029-2.7-6.078 3.5a.5.5 0 0 1 -.551-.832l1.345-1.012-3.2 1.844a.5.5 0 0 1 -.563-.822l2.3-1.85-4.621 2.672a.5.5 0 0 1 -.586-.8l3.093-2.812-6.262 3.612a.5.5 0 0 1 -.573-.814l2.755-2.33-5.264 3.044a.5.5 0 0 1 -.583-.806l2.918-2.608-3.6 2.075a.5.5 0 0 1 -.574-.813l1.113-.948-.612.353a.5.5 0 0 1 -.673-.7l.878-1.393a.505.505 0 0 1 -.6-.222.5.5 0 0 1 .182-.682l1.659-.956a.5.5 0 0 1 .672.7l-.868 1.377 3.6-2.079a.5.5 0 0 1 .574.813l-1.104.945 3.044-1.756a.5.5 0 0 1 .583.8l-2.917 2.612 5.913-3.412a.5.5 0 0 1 .573.814l-2.756 2.33 5.448-3.144a.5.5 0 0 1 .586.8l-3.093 2.812 6.262-3.612a.5.5 0 0 1 .563.822l-2.306 1.849 4.632-2.671a.5.5 0 0 1 .551.832l-1.342 1.01 3.192-1.842a.5.5 0 0 1 .583.8l-3.03 2.7 6.08-3.508a.5.5 0 0 1 .579.808l-2.951 2.585 5.88-3.393a.5.5 0 0 1 .572.815l-2.722 2.293 5.376-3.1a.5.5 0 0 1 .575.812l-2.822 2.412 5.591-3.224a.5.5 0 0 1 .549.833l-1.131.843 2.905-1.676a.5.5 0 0 1 .547.835l-.941.7 2.653-1.535a.5.5 0 0 1 .58.808l-2.961 2.6 5.9-3.408a.5.5 0 0 1 .549.833l-1.262.946 3.088-1.779a.5.5 0 0 1 .588.8l-3.123 2.871 6.359-3.671a.5.5 0 0 1 .564.821l-2.4 1.948 4.792-2.769a.5.5 0 0 1 .566.82l-2.476 2.021 4.295-2.479a.5.5 0 0 1 .578.81l-2.488 2.161 2.725-1.576a.5.5 0 0 1 .629.759l-1.677 1.946 1.065-.614a.5.5 0 0 1 .5.865l-3.617 2.087a.5.5 0 0 1 -.629-.758l1.68-1.942-4.688 2.7a.5.5 0 0 1 -.578-.81l2.487-2.159-5.143 2.969a.5.5 0 0 1 -.567-.82l2.48-2.024-4.928 2.844a.5.5 0 0 1 -.565-.821l2.405-1.948-4.8 2.769a.5.5 0 0 1 -.588-.8l3.124-2.872-6.359 3.672a.5.5 0 0 1 -.55-.833l1.26-.945-3.08 1.778a.5.5 0 0 1 -.581-.808l2.961-2.6-5.9 3.408a.5.5 0 0 1 -.547-.835l.942-.7-2.657 1.535a.493.493 0 0 1 -.25.07z" fill="#ffffff" fill-opacity="1" data-original-color="#fba85bff" stroke="none" stroke-opacity="1"/><path d="m30.4 31.47a.5.5 0 0 1 -.4-.8l1.129-1.523-3.126 1.8a.5.5 0 0 1 -.594-.8l2.122-2.006-2.253 1.3a.5.5 0 0 1 -.568-.818l1.29-1.045-.715.412a.5.5 0 0 1 -.582-.806l2.27-2.017-1.688.974a.5.5 0 0 1 -.6-.793l2.966-2.848-2.371 1.366a.5.5 0 0 1 -.568-.817l1.35-1.118-.782.451a.5.5 0 0 1 -.572-.815l1.622-1.367-1.05.606a.5.5 0 0 1 -.6-.794l2.921-2.789-2.321 1.342a.5.5 0 0 1 -.582-.806l2.246-1.991-1.664.96a.5.5 0 0 1 -.564-.822l.961-.776-.4.228a.5.5 0 0 1 -.577-.81l1.987-1.723-1.41.814a.5.5 0 0 1 -.6-.792l3.007-2.9-2.41 1.392a.5.5 0 0 1 -.563-.822l.846-.68-.283.163a.5.5 0 0 1 -.592-.8l2.818-2.653-2.22 1.282a.5.5 0 0 1 -.566-.82l.874-.714-.308.178a.5.5 0 0 1 -.6-.785l1.886-1.9-1.286.742a.5.5 0 0 1 -.628-.759l.9-1.039a.5.5 0 0 1 -.186-.928l2.048-1.184a.5.5 0 0 1 .628.76l-.693.8 1.965-1.135a.5.5 0 0 1 .605.785l-1.886 1.9 2.415-1.394a.5.5 0 0 1 .567.82l-.876.715.579-.334a.5.5 0 0 1 .593.8l-2.811 2.646 2.22-1.283a.5.5 0 0 1 .563.822l-.846.68.283-.163a.5.5 0 0 1 .6.792l-3.007 2.9 2.41-1.391a.5.5 0 0 1 .577.81l-1.99 1.727 1.41-.814a.5.5 0 0 1 .564.822l-.961.776.4-.228a.5.5 0 0 1 .582.806l-2.249 1.991 1.664-.959a.5.5 0 0 1 .595.793l-2.921 2.79 2.326-1.343a.5.5 0 0 1 .572.814l-1.622 1.367 1.05-.605a.5.5 0 0 1 .568.817l-1.35 1.118.782-.451a.5.5 0 0 1 .6.793l-2.967 2.851 2.371-1.369a.5.5 0 0 1 .582.806l-2.27 2.017 1.684-.969a.5.5 0 0 1 .568.819l-1.283 1.051.715-.412a.5.5 0 0 1 .593.8l-2.121 2.002 1.528-.882a.5.5 0 0 1 .651.731l-1.13 1.523.4-.23a.5.5 0 0 1 .5.865l-2.487 1.433a.49.49 0 0 1 -.254.07z" fill="#ffffff" fill-opacity="1" data-original-color="#e88f52ff" stroke="none" stroke-opacity="1"/><path d="m8.94 7.132a.5.5 0 0 1 -.386-.817l1.146-1.409-2.8 1.616a.5.5 0 0 1 -.574-.813l.489-.416-.4.23a.5.5 0 0 1 -.649-.733l1.557-2.058-1 .575a.5.5 0 0 1 -.5-.866l3.132-1.805a.5.5 0 0 1 .649.733l-1.552 2.058 3.022-1.744a.5.5 0 0 1 .574.813l-.487.414.409-.235a.5.5 0 0 1 .631.108.5.5 0 0 1 .006.641l-1.15 1.409 1.232-.712a.5.5 0 1 1 .5.865l-3.599 2.078a.49.49 0 0 1 -.25.068z" fill="#ffffff" fill-opacity="1" data-original-color="#7f5244ff" stroke="none" stroke-opacity="1"/><g fill="#262626"><path d="m55.347 28.531h-6.27c11.932-26.764-.923-41.882-15.353-9.912-1.107-4.663 3.037-17.357-3.411-17.919-7.385.5-2.867 13.792-4.037 18.957-2.027-4.56-4.471-10.3-10.407-9.952-2.192-2.95-2.978-11.366-8.118-8.572-5.958 2.043.3 8.112 1.353 11.755a9.023 9.023 0 0 0 -1.343 2.241c-6-1.8-6.663.4-3.106 4.874a7.051 7.051 0 0 0 .145 8.515c-4.564-1.218-6.577 5.428-2.511 6.843 2.106 34.315 0 21.927 38.962 24.142 4.835-.673 13.489 2.438 14.789-4.259.784-6.609 1.1-13.3 1.661-19.934 3.892-1.64 2.426-7.995-2.354-6.779zm-9.028-26.122c11.467-4.19 3.666 21.379 1.32 26.122h-13.91c-.655-9.79 5.199-19.942 12.59-26.122zm-18.6 1.41c.061-3.936 5.111-2.5 4.551.862.026 7.093-.011 14.188 0 21.281 0 .832.458 4.625-.964 4.74-1.833.266-3.993-.3-3.587-2.588.021-8.092-.019-16.194.005-24.295zm-1.443 19.205c0 1.835.007 3.669 0 5.5-3.111 0-6.222-.023-9.335-.039a7.074 7.074 0 0 0 -.26-9.63l6.132-2.98c1.137 2.394 2.309 4.766 3.463 7.149zm-11.045-12.292a7.567 7.567 0 0 1 7.248 4.468l-6.406 3.113a7.664 7.664 0 0 0 -6.582-1.369 2.546 2.546 0 0 0 -.579-1.038c2.613-4.51 1.138-3.861-.749-8.322l4.067-1.984c1.084 1.52 1.37 4.32 3.001 5.132zm-8.265-8.107c2.83-2.133 3.73-.7 4.823 2.062l-4.067 1.984c-.461-1.249-1.955-2.806-.756-4.046zm-2.054 15.345a15.491 15.491 0 0 0 -1.1-2.547c1.583-.054 3.725.216 4.254 1.972a8.341 8.341 0 0 0 -2.552 1.628 3.508 3.508 0 0 1 -.602-1.053zm.99 2.007a.455.455 0 0 0 .215-.321 6.174 6.174 0 0 1 2.293-1.895 1.273 1.273 0 0 0 1.083-.37c5.83-1.217 10.213 6.634 6.255 11.092q-4.593-.021-9.184.018a7.067 7.067 0 0 1 -.664-8.524zm48.792 33.98c.154 2.449-1.293 4.9-4.008 4.54h-31.5c-20.008 1.668-12.295-4.617-15.4-23h52.45q-.773 9.233-1.542 18.46zm3.577-21.032c-.134 3.447-16.027.777-19.492 1.574h-29.016c-2.444-.538-6.8 1.372-8.013-1.368-.18-1.012-.27-3.381.987-3.661 7.812-.075 15.727.051 23.576 0 .592 2.888 6.356 2.41 7.272 0q11.574 0 23.145 0c1.755.184 1.626 2.135 1.541 3.455z" fill="#262626" fill-opacity="1" data-original-color="#262626ff" stroke="none" stroke-opacity="1"/><path d="m7.724 39.433c.724-.084 6.41.425 4.552-.866-.724.084-6.41-.425-4.552.866z" fill="#262626" fill-opacity="1" data-original-color="#262626ff" stroke="none" stroke-opacity="1"/><path d="m21.034 39.294c4.888-.43-3.111-1.225-3.758-.1a25.246 25.246 0 0 0 3.758.1z" fill="#262626" fill-opacity="1" data-original-color="#262626ff" stroke="none" stroke-opacity="1"/><path d="m27.715 39.4c.713-.077 6.329.395 4.571-.8-.714.079-6.33-.393-4.571.8z" fill="#262626" fill-opacity="1" data-original-color="#262626ff" stroke="none" stroke-opacity="1"/><path d="m37.727 39.443c.728-.086 6.431.434 4.547-.886-.729.086-6.432-.434-4.547.886z" fill="#262626" fill-opacity="1" data-original-color="#262626ff" stroke="none" stroke-opacity="1"/><path d="m52.27 38.546c-.817.128-6.294-.52-4.541.908.818-.128 6.295.52 4.541-.908z" fill="#262626" fill-opacity="1" data-original-color="#262626ff" stroke="none" stroke-opacity="1"/><path d="m12.733 48.941c.011-.78-5.449-.773-5.466.117-.012.781 5.449.774 5.466-.117z" fill="#262626" fill-opacity="1" data-original-color="#262626ff" stroke="none" stroke-opacity="1"/><path d="m22.724 48.806c-.669-.121-6.056-.34-5.2.465 1.65-.226 3.83.529 5.2-.465z" fill="#262626" fill-opacity="1" data-original-color="#262626ff" stroke="none" stroke-opacity="1"/><path d="m32.3 48.672c-.655.035-6.256-.273-4.608.656.659-.035 6.26.272 4.608-.656z" fill="#262626" fill-opacity="1" data-original-color="#262626ff" stroke="none" stroke-opacity="1"/><path d="m42.293 48.63c-.712.073-6.253-.37-4.586.74.712-.07 6.253.37 4.586-.74z" fill="#262626" fill-opacity="1" data-original-color="#262626ff" stroke="none" stroke-opacity="1"/><path d="m52.294 48.636c-.712.073-6.234-.364-4.589.728.713-.073 6.235.364 4.589-.728z" fill="#262626" fill-opacity="1" data-original-color="#262626ff" stroke="none" stroke-opacity="1"/><path d="m12.317 43.954c.31 1.163 2.851.221 3.919.51 4.745-.682-3.177-1.627-3.919-.51z" fill="#262626" fill-opacity="1" data-original-color="#262626ff" stroke="none" stroke-opacity="1"/><path d="m22.32 43.965c.34 1.112 2.843.2 3.911.48 4.793-.673-3.201-1.552-3.911-.48z" fill="#262626" fill-opacity="1" data-original-color="#262626ff" stroke="none" stroke-opacity="1"/><path d="m32.324 43.981c.385 1.036 2.831.162 3.9.437 4.676-.638-3.134-1.475-3.9-.437z" fill="#262626" fill-opacity="1" data-original-color="#262626ff" stroke="none" stroke-opacity="1"/><path d="m42.324 43.98c.381 1.042 2.832.165 3.9.44 4.763-.65-3.179-1.47-3.9-.44z" fill="#262626" fill-opacity="1" data-original-color="#262626ff" stroke="none" stroke-opacity="1"/><path d="m13.967 53.71c-4.679.5 2.508.995 3.586.3.369-.7-2.873-.122-3.586-.3z" fill="#262626" fill-opacity="1" data-original-color="#262626ff" stroke="none" stroke-opacity="1"/><path d="m27.307 53.684c-.66.033-6.217-.263-4.615.632.661-.033 6.218.263 4.615-.632z" fill="#262626" fill-opacity="1" data-original-color="#262626ff" stroke="none" stroke-opacity="1"/><path d="m37.07 53.489c-1.465.294-3.825-.684-4.8.571-.17 1.04 7.935.455 4.8-.571z" fill="#262626" fill-opacity="1" data-original-color="#262626ff" stroke="none" stroke-opacity="1"/><path d="m47.3 53.671c-.655.035-6.261-.274-4.608.658.659-.035 6.265.271 4.608-.658z" fill="#262626" fill-opacity="1" data-original-color="#262626ff" stroke="none" stroke-opacity="1"/><path d="m37.138 22.515c1.312.135 9.864 4.89 8.585 1.988-1.312-.135-9.864-4.89-8.585-1.988z" fill="#262626" fill-opacity="1" data-original-color="#262626ff" stroke="none" stroke-opacity="1"/><path d="m40.173 16.876c1.565.214 6.5 3.521 6.994 1.636-1.567-.212-6.504-3.522-6.994-1.636z" fill="#262626" fill-opacity="1" data-original-color="#262626ff" stroke="none" stroke-opacity="1"/><path d="m43.544 11.588c.925.225 5.738 2.83 4.731.581-.925-.225-5.738-2.831-4.731-.581z" fill="#262626" fill-opacity="1" data-original-color="#262626ff" stroke="none" stroke-opacity="1"/><path d="m48.192 6.582c3.121.272.8-1.007-.692-1.158-2.072.364-.214.79.692 1.158z" fill="#262626" fill-opacity="1" data-original-color="#262626ff" stroke="none" stroke-opacity="1"/></g></g></svg>