<svg id="Icons" viewBox="0 0 60 60" xmlns="http://www.w3.org/2000/svg" width="300" height="300" version="1.1" xmlns:xlink="http://www.w3.org/1999/xlink" xmlns:svgjs="http://svgjs.dev/svgjs"><g width="100%" height="100%" transform="matrix(1,0,0,1,0,0)"><path d="m20.342 56.465c-.154 0-.307-.072-.404-.205-.15-.207-.121-.493.068-.665l.421-.382-1.126.649c-.227.131-.517.064-.664-.151-.146-.218-.102-.511.104-.674l2.26-1.786-2.788 1.609c-.23.136-.526.062-.672-.163-.144-.226-.085-.524.134-.679l1.656-1.164-2.027 1.17c-.232.137-.53.062-.674-.167-.143-.228-.08-.528.143-.68l2.524-1.713-2.935 1.693c-.235.137-.533.06-.676-.17-.142-.23-.075-.532.151-.681l2.39-1.57-2.763 1.595c-.236.136-.532.061-.676-.171-.142-.23-.074-.531.151-.68l5.405-3.543-5.934 3.425c-.235.135-.533.062-.676-.17-.142-.229-.075-.531.15-.68l10.413-6.879-11.236 6.487c-.235.138-.536.06-.678-.174-.141-.233-.069-.536.161-.682l6.171-3.891-6.644 3.835c-.235.137-.536.061-.677-.172-.142-.231-.072-.534.155-.681l15.267-9.854-16.21 9.358c-.228.133-.521.063-.666-.155-.146-.22-.097-.515.112-.675l2.027-1.549-2.493 1.439c-.224.132-.516.066-.662-.149-.147-.216-.105-.509.099-.673l2.978-2.4-3.637 2.099c-.229.134-.525.062-.67-.16-.145-.224-.089-.521.126-.677l.594-.431-.877.506c-.225.132-.514.066-.662-.149-.147-.216-.105-.508.098-.672l2.986-2.411-3.646 2.105c-.226.133-.521.064-.666-.155-.146-.219-.098-.514.111-.674l2.097-1.607-2.575 1.486c-.228.133-.522.062-.668-.157-.146-.222-.094-.518.119-.676l1.486-1.11-1.874 1.081c-.227.135-.522.063-.668-.158s-.093-.518.12-.676l1.317-.979-1.684.972c-.227.132-.517.065-.664-.152-.146-.217-.102-.511.104-.673l2.619-2.065-3.195 1.845c-.226.132-.517.065-.664-.152s-.102-.511.104-.673l2.582-2.032-2.974 1.717c-.225.131-.515.066-.662-.149s-.105-.507.097-.671l2.916-2.371-.841.485c-.217.128-.5.07-.652-.136-.151-.204-.124-.49.062-.663l3.209-2.98s-.006-.009-.008-.013c-.139-.239-.057-.545.183-.683l1.566-.904c.217-.128.5-.07.652.136.151.204.124.49-.062.663l-1.614 1.5 2.442-1.41c.225-.131.514-.066.662.149.147.214.105.507-.097.671l-2.917 2.372 3.579-2.066c.226-.133.516-.065.664.152.147.217.102.511-.104.673l-2.58 2.03 3.151-1.819c.224-.134.516-.066.664.152.146.217.102.511-.104.673l-2.621 2.067 3.2-1.848c.229-.133.522-.062.668.158.146.222.093.518-.12.676l-1.313.976 1.682-.971c.227-.135.52-.063.668.157.146.222.094.518-.119.676l-1.489 1.113 1.88-1.085c.227-.133.519-.065.666.155.146.219.098.514-.111.674l-2.098 1.608 2.578-1.488c.225-.133.514-.066.662.149.147.216.105.508-.098.672l-2.986 2.41 3.649-2.106c.229-.135.524-.062.67.16.145.224.089.521-.126.677l-.595.432.88-.508c.225-.133.516-.066.662.149.147.216.105.509-.099.673l-2.978 2.401 3.639-2.101c.227-.135.52-.063.666.155.146.22.097.515-.112.675l-2.026 1.548 26.962-15.566c.235-.137.535-.061.677.172.142.231.072.534-.155.681l-15.27 9.856 11.409-6.587c.236-.137.537-.06.678.174s.069.536-.161.682l-6.154 3.88 3.381-1.951c.234-.137.532-.062.676.17.142.229.075.531-.15.68l-10.417 6.881 6.816-3.935c.235-.138.532-.06.676.171.142.23.074.531-.151.68l-5.403 3.543 2.478-1.431c.235-.136.532-.059.676.17.142.23.075.532-.151.681l-2.495 1.64c.217-.083.469-.002.598.203.143.228.08.528-.143.68l-2.603 1.767c.216-.081.467-.002.596.199.144.226.085.524-.134.679l-2.344 1.647c.155.005.305.082.398.219.146.218.102.511-.104.674l-2.746 2.171c.14.012.273.082.362.203.15.207.121.493-.068.665l-1.894 1.718c.017.021.032.042.045.065.139.239.057.545-.183.683l-1.937 1.118c-.078.046-.164.067-.25.067z" fill="#ffffff" fill-opacity="1" data-original-color="#579e63ff" stroke="none" stroke-opacity="1"/><path d="m20.42 41.563c-.169 0-.333-.086-.427-.24-.142-.231-.072-.534.157-.681l9.064-5.812-5.903 3.407c-.235.138-.536.06-.678-.174-.141-.232-.07-.535.159-.681l7.217-4.59-4.296 2.479c-.235.136-.533.061-.677-.172-.142-.231-.072-.533.155-.681l10.604-6.853-7.212 4.163c-.235.137-.535.061-.677-.172-.142-.231-.072-.534.156-.681l10.095-6.507-6.784 3.916c-.235.138-.536.061-.678-.174-.141-.232-.07-.534.159-.681l7.311-4.651-4.377 2.526c-.235.138-.538.061-.679-.175-.141-.233-.068-.536.163-.682l2.501-1.569-.035.02c-.236.138-.536.06-.678-.174-.141-.233-.069-.536.161-.682l2.177-1.373c-.175.02-.371-.065-.476-.232-.143-.228-.079-.528.144-.679l7.952-5.369-4.481 2.587c-.229.135-.526.062-.671-.162s-.087-.523.131-.678l6.744-4.799-3.072 1.773c-.233.136-.528.062-.671-.163-.145-.225-.086-.523.132-.678l2.607-1.847c-.191.034-.391-.04-.505-.209-.147-.215-.105-.508.099-.672l2.984-2.405c-.152 0-.302-.069-.398-.198-.152-.201-.131-.484.05-.66l2.164-2.104c-.008-.012-.015-.023-.021-.035-.139-.239-.057-.545.183-.683l1.479-.854c.216-.129.495-.071.648.131.152.201.131.484-.05.66l-.824.801 1.517-.875c.225-.132.516-.064.662.149.147.216.105.509-.099.673l-2.649 2.135 3.343-1.929c.232-.135.527-.062.671.163.145.225.086.523-.132.678l-2.355 1.668 2.863-1.652c.229-.136.525-.063.671.162.145.225.087.523-.131.678l-6.74 4.796 7.673-4.43c.234-.137.53-.062.674.168.143.228.079.528-.144.679l-7.951 5.369 8.802-5.082c.237-.136.537-.059.678.174s.069.536-.161.682l-1.245.785 1.217-.702c.237-.136.538-.06.679.175.141.233.068.536-.163.682l-2.5 1.569 1.037-.599c.238-.136.538-.06.678.174.141.232.07.534-.159.681l-7.324 4.66 4.391-2.534c.235-.136.536-.06.677.172.142.231.072.534-.156.681l-10.095 6.507 6.784-3.916c.236-.137.534-.061.677.172.142.231.072.533-.155.681l-10.599 6.85 7.206-4.16c.237-.137.537-.06.678.174.141.232.07.535-.159.681l-7.217 4.59 4.296-2.479c.237-.137.536-.059.677.173.142.231.072.534-.157.681l-9.07 5.817 5.91-3.412c.238-.14.545-.057.683.183.139.239.057.545-.183.683l-24.472 14.128c-.079.046-.165.067-.25.067z" fill="#ffffff" fill-opacity="1" data-original-color="#579e63ff" stroke="none" stroke-opacity="1"/><path d="m19.998 56.423c-.153 0-.304-.07-.401-.201-.151-.203-.126-.488.058-.662l2.923-2.765-4.062 2.345c-.227.135-.523.064-.669-.16-.146-.223-.091-.52.124-.677l.806-.588-1.111.642c-.227.134-.518.064-.665-.153-.146-.218-.1-.513.108-.674l2.385-1.855-2.915 1.683c-.225.131-.513.065-.661-.147-.148-.214-.107-.506.094-.671l3.231-2.659-3.959 2.285c-.228.134-.523.062-.669-.16s-.091-.52.124-.677l.781-.569-1.085.626c-.227.135-.521.063-.668-.158-.146-.223-.093-.519.121-.677l1.16-.857-1.507.87c-.222.129-.509.067-.658-.144s-.113-.501.083-.669l3.653-3.132-4.525 2.612c-.223.129-.508.067-.657-.144-.149-.21-.114-.5.081-.668l3.691-3.18-4.579 2.644c-.228.136-.522.063-.668-.158-.146-.223-.093-.519.121-.677l1.159-.856-1.506.869c-.229.134-.525.062-.669-.16-.146-.223-.09-.521.125-.677l.699-.509-.994.573c-.229.135-.525.062-.67-.16-.145-.224-.089-.521.127-.678l.556-.402-.837.482c-.227.131-.518.063-.664-.152-.147-.218-.101-.512.105-.674l2.524-1.98-3.082 1.779c-.229.134-.525.062-.67-.161s-.089-.521.127-.677l.45-.325-.72.415c-.226.132-.517.065-.664-.152-.146-.217-.102-.511.104-.673l2.613-2.061-3.189 1.841c-.22.13-.506.069-.656-.142-.149-.208-.117-.497.076-.667l3.857-3.391-4.817 2.781c-.227.135-.523.064-.669-.159-.145-.222-.091-.519.123-.676l1.052-.774-1.387.8c-.227.132-.516.065-.663-.151s-.104-.51.102-.672l2.776-2.212-3.324 1.919c-.226.133-.517.064-.665-.153-.146-.219-.1-.513.108-.674l2.307-1.793-1.522.878c-.217.126-.496.069-.649-.132-.152-.202-.129-.486.053-.661l4.385-4.211c-.011-.014-.021-.029-.029-.045-.139-.239-.057-.545.183-.683l1.568-.905c.215-.129.496-.07.649.132.152.202.129.486-.053.661l-3.04 2.919 4.256-2.456c.227-.133.518-.064.665.153.146.219.1.513-.108.674l-2.304 1.791 2.822-1.629c.225-.133.515-.066.663.151.147.216.104.51-.102.672l-2.777 2.213 3.389-1.956c.229-.134.523-.062.669.159.145.222.091.519-.123.676l-1.049.772 1.383-.798c.221-.129.507-.068.656.142.149.208.117.497-.076.667l-3.857 3.391 4.817-2.781c.226-.134.517-.066.664.152.146.217.102.511-.104.673l-2.616 2.063 3.192-1.843c.228-.136.524-.062.67.161.145.224.089.521-.127.677l-.44.318.709-.409c.225-.134.517-.064.664.152.147.218.101.512-.105.674l-2.529 1.984 3.088-1.782c.229-.135.524-.062.67.16.145.224.089.521-.127.678l-.553.4.833-.48c.228-.136.524-.062.669.16.146.223.09.521-.125.677l-.699.509.994-.573c.229-.134.522-.062.668.158.146.223.093.519-.121.677l-1.159.856 1.506-.869c.221-.13.507-.068.658.144.148.21.113.5-.082.668l-3.69 3.179 4.582-2.646c.22-.131.508-.068.658.144.149.211.113.501-.083.669l-3.654 3.133 4.53-2.615c.229-.134.522-.062.668.158.146.223.093.519-.121.677l-1.164.859 1.514-.873c.229-.133.523-.064.669.16.146.223.091.52-.124.677l-.782.57 1.088-.628c.224-.132.514-.065.661.147.148.214.107.506-.094.671l-3.229 2.656 3.959-2.285c.227-.133.518-.064.665.153.146.218.1.513-.108.674l-2.384 1.854 2.917-1.684c.229-.133.523-.063.669.16s.091.52-.124.677l-1.005.733c.184-.041.384.031.503.19.151.203.126.488-.058.662l-3.525 3.334c.1.041.188.113.245.214.139.239.057.545-.183.683l-2.645 1.526c-.078.046-.164.067-.25.067z" fill="#ffffff" fill-opacity="1" data-original-color="#6bb577ff" stroke="none" stroke-opacity="1"/><path d="m57.268 6.124c-6.057-5.799-6.431-3.48-10.902 2.052-8.928 11.016-17.855 22.032-26.783 33.049-3.547-3.2-6.985-6.539-10.547-9.711-1.646-1.278-3.145.04-4.252 1.253-1.453 2.113-6.568 4.893-3.313 7.418 5.631 5.184 11.262 10.369 16.893 15.553 2.848 2.212 5.035-1.406 6.563-3.292 9.81-12.106 19.621-24.211 29.431-36.317 2.034-3.397 8.577-6.861 2.909-10.005zm-35.752 48.883c-1.201 2.767-14.47-12.311-17.025-13.834-5.301-3.637-1.103-4.865 1.57-8.339 1.331-2.364 3.131.759 4.321 1.711 5.291 4.879 10.593 9.735 15.883 14.615-1.545 1.944-3.018 4.081-4.749 5.848zm35.774-44.145c-10.071 12.427-20.141 24.854-30.212 37.281-2.245-2.068-4.49-4.136-6.734-6.205 10.347-12.763 20.71-25.562 31.045-38.31.524-.341.939.11 1.322.423 1.663 1.36 3.552 2.624 5.07 4.144 1.022 1.024.158 1.865-.491 2.666z" fill="#262626" fill-opacity="1" data-original-color="#262626ff" stroke="none" stroke-opacity="1"/></g></svg>