<svg id="Icons" height="300" viewBox="0 0 60 60" width="300" xmlns="http://www.w3.org/2000/svg" version="1.1" xmlns:xlink="http://www.w3.org/1999/xlink" xmlns:svgjs="http://svgjs.dev/svgjs"><g width="100%" height="100%" transform="matrix(1,0,0,1,0,0)"><path d="m9.007 34.86a.5.5 0 0 1 -.468-.676l.539-1.426-1.917 1.106a.5.5 0 0 1 -.633-.754l1.242-1.479-2.431 1.4a.5.5 0 0 1 -.567-.82l.127-.1-.7.405a.5.5 0 0 1 -.566-.821l1.453-1.185-2.333 1.345a.5.5 0 0 1 -.559-.826l1.644-1.286-2.347 1.357a.5.5 0 0 1 -.6-.788l.24-.238a.516.516 0 0 1 -.45-.25.5.5 0 0 1 .182-.682l2.976-1.718a.5.5 0 0 1 .6.788l-.076.075 5.131-2.962a.5.5 0 0 1 .559.826l-1.646 1.287 1.548-.894a.5.5 0 0 1 .566.82l-1.45 1.183.7-.405a.5.5 0 0 1 .567.82l-.391.318a.454.454 0 0 1 .408.178.5.5 0 0 1 0 .643l-1.239 1.481.675-.39a.5.5 0 0 1 .718.61l-.539 1.427a.5.5 0 0 1 .472.879l-1.185.685a.5.5 0 0 1 -.25.067z" fill="#ffffff" fill-opacity="1" data-original-color="#e2b321ff" stroke="none" stroke-opacity="1"/><path d="m49.78 34.036a.5.5 0 0 1 -.336-.871l2.747-2.487-1.96 1.132a.5.5 0 0 1 -.619-.771l1.833-2-1.18.682a.5.5 0 0 1 -.616-.775l.43-.458a.5.5 0 0 1 -.6-.678l.446-1.025a.5.5 0 0 1 -.348-.923l1.146-.661a.5.5 0 0 1 .708.633l-.431.98 1.471-.848a.5.5 0 0 1 .615.774l-.4.427 1.068-.616a.5.5 0 0 1 .619.77l-1.832 2 3.219-1.858a.5.5 0 0 1 .586.8l-2.746 2.494 4.141-2.391a.5.5 0 0 1 .607.783l-1.7 1.731 2.07-1.194a.5.5 0 1 1 .5.865l-5.259 3.036a.5.5 0 0 1 -.606-.783l1.7-1.732-5.018 2.9a.489.489 0 0 1 -.255.064z" fill="#ffffff" fill-opacity="1" data-original-color="#e2b321ff" stroke="none" stroke-opacity="1"/><path d="m28.374 46.383a.5.5 0 0 1 -.287-.909l7.9-5.552-10.147 5.86a.5.5 0 0 1 -.522-.852l3.882-2.517-4.911 2.835a.5.5 0 0 1 -.517-.855l.284-.179-.91.524a.5.5 0 0 1 -.529-.847l10.983-7.391-12.345 7.127a.5.5 0 0 1 -.528-.848l12.313-8.264-13.476 7.785a.5.5 0 0 1 -.524-.851l11.506-7.57-12.295 7.1a.5.5 0 0 1 -.525-.85l12.6-8.325-13.252 7.65a.5.5 0 0 1 -.513-.857l.144-.09-.173.1a.5.5 0 0 1 -.521-.853l9.883-6.38-10.105 5.826a.5.5 0 0 1 -.521-.852l10.144-6.571-10.246 5.913a.5.5 0 0 1 -.524-.85l11.373-7.47-11.346 6.55a.5.5 0 0 1 -.52-.854l6.89-4.41-6.625 3.824a.5.5 0 0 1 -.521-.852l7.444-4.811-7.037 4.066a.5.5 0 0 1 -.526-.849l9.342-6.21-8.75 5.051a.5.5 0 0 1 -.527-.849l7.645-5.1-6.794 3.923a.5.5 0 0 1 -.531-.849l4.2-2.768-3.155 1.822a.5.5 0 0 1 -.53-.847l4.075-2.76-2.609 1.506a.5.5 0 0 1 -.53-.847l1.454-.981a.5.5 0 0 1 -.29-.9l2.705-2.04a.507.507 0 0 1 -.167-.174.5.5 0 0 1 .183-.683l4.811-2.777a.5.5 0 0 1 .55.832l-.968.73 4.2-2.425a.5.5 0 0 1 .529.847l-.6.4 2.3-1.329a.5.5 0 0 1 .53.847l-4.076 2.761 5.831-3.367a.5.5 0 0 1 .526.851l-4.2 2.766 5.5-3.174a.5.5 0 0 1 .527.848l-7.647 5.1 9.035-5.216a.5.5 0 0 1 .526.849l-9.344 6.211 10.592-6.114a.5.5 0 0 1 .522.852l-7.439 4.815 8.241-4.758a.5.5 0 0 1 .52.853l-6.886 4.409 7.482-4.32a.5.5 0 0 1 .524.851l-11.376 7.473 12.134-7a.5.5 0 0 1 .521.852l-10.139 6.563 10.619-6.131a.5.5 0 0 1 .521.852l-9.884 6.381 10.205-5.891a.5.5 0 0 1 .513.857l-.153.095.1-.06a.5.5 0 0 1 .526.85l-12.587 8.322 12.8-7.388a.5.5 0 0 1 .524.851l-11.505 7.57 11.47-6.624a.5.5 0 0 1 .528.848l-12.317 8.266 12.092-6.98a.5.5 0 0 1 .529.848l-10.98 7.39 10.465-6.042a.5.5 0 0 1 .517.856l-.547.344a.506.506 0 0 1 .576.217.5.5 0 0 1 -.155.681l-3.878 2.512 3.046-1.758a.5.5 0 0 1 .537.842l-7.9 5.551 6.435-3.717a.5.5 0 0 1 .545.837l-5.2 3.792 2.947-1.7a.5.5 0 0 1 .547.835l-2.418 1.781a.476.476 0 0 1 .159.168.5.5 0 0 1 -.183.682l-5.27 3.043a.5.5 0 0 1 -.545-.838l.417-.307-3.294 1.9a.5.5 0 0 1 -.545-.837l5.21-3.8-8.059 4.652a.493.493 0 0 1 -.255.075z" fill="#ffffff" fill-opacity="1" data-original-color="#fdd026ff" stroke="none" stroke-opacity="1"/><path d="m42.926 59.481a.5.5 0 0 1 -.284-.911l6.006-4.158-8.448 4.88a.5.5 0 0 1 -.528-.848l6.619-4.437-6.922 4a.5.5 0 0 1 -.53-.847l8.418-5.709-8.828 5.1a.5.5 0 0 1 -.521-.854l3.117-2-3.234 1.867a.5.5 0 0 1 -.524-.851l6.981-4.588-7.261 4.192a.5.5 0 0 1 -.524-.851l7.733-5.08-8.04 4.642a.5.5 0 0 1 -.517-.855l2.9-1.839-3 1.732a.5.5 0 0 1 -.519-.854l5.01-3.212-5.186 2.994a.5.5 0 0 1 -.524-.851l8.91-5.811-9.242 5.336a.5.5 0 0 1 -.524-.85l9.716-6.388-10.1 5.829a.5.5 0 0 1 -.527-.849l8.931-5.946-9.316 5.379a.5.5 0 0 1 -.526-.843l6.88-4.627-7.2 4.157a.5.5 0 0 1 -.521-.852l.252-.163-.281.162a.5.5 0 0 1 -.554-.83l3.851-2.94-.669.386a.5.5 0 0 1 -.5-.865l7.408-4.277a.5.5 0 0 1 .553.831l-3.85 2.938 10.643-6.144a.5.5 0 0 1 .522.852l-.243.157 2.743-1.585a.5.5 0 0 1 .529.848l-6.886 4.631 10.252-5.919a.5.5 0 0 1 .528.848l-8.933 5.947 11.534-6.663a.5.5 0 0 1 .525.85l-9.714 6.382 10.175-5.874a.5.5 0 0 1 .523.852l-8.909 5.812 8.425-4.863a.5.5 0 0 1 .519.853l-5.012 3.2 4.493-2.593a.5.5 0 0 1 .517.854l-2.891 1.835 2.369-1.367a.5.5 0 0 1 .524.851l-7.738 5.084 7.214-4.168a.5.5 0 0 1 .524.85l-6.988 4.593 6.464-3.732a.5.5 0 0 1 .52.854l-3.09 1.985 2.57-1.483a.5.5 0 0 1 .53.847l-8.423 5.716 7.893-4.556a.5.5 0 0 1 .528.847l-6.624 4.441 6.1-3.519a.5.5 0 0 1 .534.844l-6 4.154 5.468-3.156a.5.5 0 0 1 .553.83l-5.959 4.546 5.4-3.117a.5.5 0 0 1 .548.834l-2.481 1.844 1.933-1.116a.5.5 0 0 1 .589.8l-2.583 2.379 1.994-1.15a.5.5 0 0 1 .681.685l-1.038 1.77.1-.056a.5.5 0 1 1 .5.865l-1.735 1a.5.5 0 0 1 -.682-.685l1.038-1.771-4.26 2.459a.5.5 0 0 1 -.652-.136.5.5 0 0 1 .063-.665l2.582-2.377-5.517 3.184a.5.5 0 0 1 -.548-.834l2.477-1.842-4.639 2.679a.5.5 0 0 1 -.554-.83l5.953-4.546-9.316 5.379a.491.491 0 0 1 -.247.067z" fill="#ffffff" fill-opacity="1" data-original-color="#75b74cff" stroke="none" stroke-opacity="1"/><path d="m12.683 19.177a.5.5 0 0 1 -.336-.871l2.466-2.232-2.866 1.655a.5.5 0 0 1 -.556-.829l.83-.642-.678.39a.5.5 0 0 1 -.564-.822l.688-.553-.525.3a.5.5 0 0 1 -.631-.756l1.9-2.238-1.963 1.134a.5.5 0 0 1 -.633-.755l.883-1.05-.76.44a.5.5 0 0 1 -.729-.577l.457-1.525-.156.09a.5.5 0 1 1 -.5-.865l1.247-.72a.5.5 0 0 1 .728.576l-.457 1.525 2.132-1.229a.5.5 0 0 1 .633.755l-.883 1.049 1.99-1.152a.5.5 0 0 1 .631.756l-1.9 2.24 3.645-2.105a.5.5 0 0 1 .564.822l-.685.551 1.428-.824a.5.5 0 0 1 .557.828l-.834.646.573-.331a.5.5 0 0 1 .586.8l-4.455 4.03a.5.5 0 0 1 -.211.625l-1.372.792a.5.5 0 0 1 -.244.072z" fill="#ffffff" fill-opacity="1" data-original-color="#e2b321ff" stroke="none" stroke-opacity="1"/><path d="m33.185 10.716a.5.5 0 0 1 -.442-.736l.115-.213-1.2.689a.5.5 0 0 1 -.619-.769l.114-.126-1.482.855a.5.5 0 0 1 -.621-.769l1.459-1.607-4.222 2.438a.5.5 0 0 1 -.569-.818l1.84-1.525-1.475.851a.5.5 0 0 1 -.561-.824l1.139-.9a.591.591 0 0 1 -.416-.2.5.5 0 0 1 .064-.664l1.479-1.368a.492.492 0 0 1 -.507-.144.5.5 0 0 1 -.036-.627l1.455-2.046a.5.5 0 0 1 -.223-.2.5.5 0 0 1 .184-.684l1.244-.719a.5.5 0 0 1 .657.725l-1.162 1.619 1.72-.992a.5.5 0 0 1 .589.8l-1.425 1.318 1.427-.823a.5.5 0 0 1 .56.824l-.82.651.736-.424a.5.5 0 0 1 .57.817l-1.841 1.525 1.85-1.067a.5.5 0 0 1 .621.769l-1.456 1.608 1.516-.875a.5.5 0 0 1 .619.769l-.126.139a.505.505 0 0 1 .532.106.5.5 0 0 1 .093.594l-.194.364a.5.5 0 0 1 .209.93l-1.145.661a.493.493 0 0 1 -.25.068z" fill="#ffffff" fill-opacity="1" data-original-color="#e2b321ff" stroke="none" stroke-opacity="1"/><path d="m46.893 19.188a.5.5 0 0 1 -.4-.807l.142-.182-.372.214a.5.5 0 0 1 -.628-.761l1.614-1.852-2.119 1.223a.5.5 0 0 1 -.582-.806l1.852-1.641-2.343 1.352a.5.5 0 0 1 -.557-.828l.523-.395-.811.468a.5.5 0 0 1 -.559-.826l1.507-1.184-2.016 1.163a.5.5 0 0 1 -.682-.682l.46-.795-.334.192a.5.5 0 1 1 -.5-.865l1.953-1.128a.494.494 0 0 1 .6.079.5.5 0 0 1 .08.6l-.46.794 6.468-3.734a.5.5 0 0 1 .559.826l-1.507 1.187 1.791-1.033a.5.5 0 0 1 .551.832l-.782.589a.5.5 0 0 1 .394.871l-1.846 1.641.444-.256a.5.5 0 0 1 .628.761l-1.607 1.851a.5.5 0 0 1 .645.739l-.661.85a.493.493 0 0 1 .12.14.5.5 0 0 1 -.183.683l-1.134.655a.493.493 0 0 1 -.248.065z" fill="#ffffff" fill-opacity="1" data-original-color="#e2b321ff" stroke="none" stroke-opacity="1"/><path d="m3.76 59.47a.5.5 0 0 1 -.269-.922l6.021-3.834-7.441 4.3a.5.5 0 0 1 -.521-.853l9.1-5.87-9.35 5.394a.5.5 0 0 1 -.524-.852l10.229-6.68-9.725 5.616a.5.5 0 0 1 -.518-.855l4.96-3.158-4.442 2.563a.5.5 0 0 1 -.525-.849l8.827-5.824-8.3 4.792a.5.5 0 0 1 -.527-.849l8.232-5.489-7.707 4.449a.5.5 0 0 1 -.518-.855l.5-.315a.5.5 0 0 1 -.5-.864l3.608-2.359-3.09 1.781a.5.5 0 0 1 -.535-.843l6.919-4.81-6.384 3.686a.5.5 0 0 1 -.547-.835l7.1-5.246-6.553 3.781a.5.5 0 0 1 -.532-.846l1.842-1.26-1.31.756a.5.5 0 0 1 -.536-.842l1.367-.953-.831.48a.5.5 0 0 1 -.57-.817l3.8-3.162-3.23 1.864a.5.5 0 0 1 -.6-.791l2.435-2.367-1.835 1.061a.5.5 0 0 1 -.68-.693l.974-1.643-.014.009a.5.5 0 1 1 -.5-.866l1.671-.965a.5.5 0 0 1 .68.687l-.975 1.644 3.664-2.112a.5.5 0 0 1 .6.792l-2.436 2.368 4.809-2.777a.5.5 0 0 1 .571.818l-3.8 3.158 5.976-3.45a.5.5 0 0 1 .536.842l-1.375.958 2.438-1.407a.5.5 0 0 1 .532.846l-1.833 1.254 2.869-1.656a.5.5 0 0 1 .547.835l-7.1 5.247 9.059-5.23a.5.5 0 0 1 .535.843l-6.918 4.808 8.368-4.831a.5.5 0 0 1 .524.852l-3.612 2.361 4.458-2.573a.5.5 0 0 1 .518.855l-.483.307 1.051-.606a.5.5 0 0 1 .527.848l-8.236 5.491 9.367-5.407a.5.5 0 0 1 .525.85l-8.817 5.823 9.846-5.684a.5.5 0 0 1 .518.854l-4.966 3.162 5.583-3.222a.5.5 0 0 1 .524.851l-10.232 6.679 11.144-6.434a.5.5 0 0 1 .521.853l-9.101 5.868 9.826-5.673a.5.5 0 0 1 .518.855l-6.023 3.836 6.519-3.764a.5.5 0 0 1 .528.847l-10.489 7.045 11.313-6.531a.5.5 0 0 1 .527.849l-8.056 5.377 8.65-4.994a.5.5 0 0 1 .526.85l-5.1 3.357 5.462-3.154a.5.5 0 0 1 .532.845l-6.309 4.326 6.755-3.9a.5.5 0 0 1 .533.846l-4.369 2.991 4.654-2.686a.5.5 0 0 1 .537.842l-3.771 2.636 4-2.31a.5.5 0 0 1 .54.84l-2.81 2.01 2.97-1.713a.5.5 0 0 1 .569.817l-3.792 3.15 4.107-2.371a.5.5 0 0 1 .563.823l-1.505 1.2 1.519-.876a.5.5 0 0 1 .584.8l-1.08.97 1.036-.6a.5.5 0 0 1 .6.786l-.309.309.13-.075a.489.489 0 0 1 .475-.013.5.5 0 0 1 .272.389l.149 1.3a.5.5 0 0 1 .223.932l-.393.226a.5.5 0 0 1 -.748-.368l-.139-1.207-2.738 1.581a.5.5 0 0 1 -.6-.786l.309-.309-1.902 1.095a.5.5 0 0 1 -.584-.8l1.079-.971-3.075 1.771a.5.5 0 0 1 -.563-.823l1.5-1.2-3.509 2.023a.5.5 0 0 1 -.569-.817l3.791-3.148-6.871 3.965a.5.5 0 0 1 -.54-.839l2.817-2.011-4.937 2.85a.5.5 0 0 1 -.537-.841l3.768-2.636-6.028 3.477a.5.5 0 0 1 -.532-.845l4.36-2.982-6.633 3.827a.5.5 0 0 1 -.532-.844l6.311-4.328-8.959 5.172a.5.5 0 0 1 -.525-.85l5.1-3.356-7.291 4.206a.5.5 0 0 1 -.528-.848l8.057-5.377-10.785 6.225a.5.5 0 0 1 -.528-.847l10.488-7.041-13.665 7.888a.5.5 0 0 1 -.25.07z" fill="#ffffff" fill-opacity="1" data-original-color="#87d356ff" stroke="none" stroke-opacity="1"/><g fill="#262626"><path d="m59.724 35.205c-.034-2.206-1.762-2.626-3.618-2.57 8.647-2.95-.837-5.685-4.5-7.426-4.527-.762-1.507 5.847-2.587 8.388q-1.48.3-2.933.692c5.807-27.083-37.375-27.036-32.3-.211-.928-.239-1.864-.452-2.808-.632-1.021-2.343 1.531-7.952-1.559-8.353-3.369 1.255-14.475 4.665-5.834 7.5-6.36-.985-2.19 19.888-3.31 24.6.127 4.487 17.745 1.368 21.771 2.241 43.354-2.172 37.537 9.914 37.678-24.229zm-21.516 17.724a39.193 39.193 0 0 0 -2.826-4.45 38.136 38.136 0 0 1 22.9-9c-.008 2.391 0 4.781 0 7.171-7.068.374-14.352 3.35-18.782 8.938-.4-.902-.822-1.788-1.292-2.659zm18.409-19.507c2.457.382 1.47 3.422 1.665 5.16a40.365 40.365 0 0 0 -23.506 9.089 37.755 37.755 0 0 0 -3.94-4.358c6.999-6.457 16.504-9.62 25.781-9.891zm-6.038-.99c.461-2.081-.226-4.339.041-6.32 9.309 3.843 10.821 4.431-.134 7.213a4.861 4.861 0 0 1 .093-.893zm-26.527-16.9c11.667-5.145 24.589 7.3 20.521 19.193a39.449 39.449 0 0 0 -14.411 7.965 38.029 38.029 0 0 0 -14.716-8.136c-2.223-7.494 1.264-15.915 8.606-19.019zm-22.009 13.749c8.707-3.408 7.052-5.86 7.463 3.927-1.506-.197-8.863-1.872-7.463-3.927zm20.549 29.285c-4-7.706-12.466-11.557-20.866-12.021v-7c12.4.736 24.941 7.409 30.245 19.017zm-15.532 0c-8.092 1.584-4.663-6-5.334-11.045 7.624.4 15.532 4.167 19.193 11.045zm26.544 0c-5.751-12.36-18.552-19.359-31.878-20.045-1.126-7.27 3.463-4.746 8.339-4.241 13.035 2.405 24.635 11.49 29.013 24.286zm24.01-.167c-5.519.6-11.321.021-16.928.217a12.436 12.436 0 0 0 -.7-1.867c3.971-5.8 11.339-9.189 18.286-9.339-.472 3.465 1.028 7.961-.658 10.99z" fill="#262626" fill-opacity="1" data-original-color="#262626ff" stroke="none" stroke-opacity="1"/><path d="m16.315 10.716c-2.661-1.316-9.9-3.961-7.256 1.748 1.3 2.067 1.346 8.245 4.949 6.31 1.728-2.993 9.438-6.459 2.307-8.058zm-3.244 7.591c-.035.049-.03.033 0 0zm.8-1.049a9.79 9.79 0 0 0 -.776 1.011c-.74-.985-3.847-8.082-2.887-8.673 6.25 3.184 11.279.998 3.666 7.662z" fill="#262626" fill-opacity="1" data-original-color="#262626ff" stroke="none" stroke-opacity="1"/><path d="m31.953 1.809c-3.341-5-6.174 5.37-7.089 7.737.72 2.317 3.793.589 5.534.98 8.08 1.742 3.09-4.835 1.555-8.717zm1.6 7.905c-9.078-.585-8.141 1.7-4.328-7.107.15-.536.645-1.637 1.153-.692.866 2.572 2.974 5.224 3.173 7.799z" fill="#262626" fill-opacity="1" data-original-color="#262626ff" stroke="none" stroke-opacity="1"/><path d="m41.087 14.087c2.634 1.058 4.3 6.882 7.424 4.287.563-2.516 4.386-7.457 2.26-9.423-1.319-.386-12.858 2.993-9.684 5.136zm7.46-4.29c3.855-1.313-1.083 6.9-1.3 8.53-5.471-6.433-8.371-5.173 1.3-8.527z" fill="#262626" fill-opacity="1" data-original-color="#262626ff" stroke="none" stroke-opacity="1"/><path d="m26.9 18.016c-5.184-.135-12.7 12.6-8.011 9.894.579-7.856 11.639-9.865 8.011-9.894z" fill="#262626" fill-opacity="1" data-original-color="#262626ff" stroke="none" stroke-opacity="1"/></g></g></svg>