<svg id="Icons" viewBox="0 0 60 60" xmlns="http://www.w3.org/2000/svg" width="300" height="300" version="1.1" xmlns:xlink="http://www.w3.org/1999/xlink" xmlns:svgjs="http://svgjs.dev/svgjs"><g width="100%" height="100%" transform="matrix(1,0,0,1,0,0)"><path d="m8.909 59.47c-.17 0-.336-.087-.43-.244-.14-.234-.065-.538.167-.682l20.267-12.485-22.623 13.061c-.238.137-.541.058-.68-.178-.14-.235-.064-.539.169-.682l17.228-10.504-18.393 10.619c-.239.138-.541.058-.681-.179s-.062-.54.172-.682l10.695-6.456-11.263 6.502c-.237.137-.54.058-.679-.176-.141-.234-.066-.538.166-.682l27.689-17.129-28.444 16.424c-.238.138-.542.059-.681-.179-.14-.237-.062-.542.174-.683l5.251-3.149-5.235 3.022c-.237.137-.539.059-.68-.177-.14-.234-.065-.538.168-.682l27.205-16.746-27.159 15.681c-.238.137-.54.058-.681-.178-.14-.236-.062-.54.171-.683l18.472-11.205-17.994 10.389c-.238.138-.542.059-.681-.18-.14-.236-.062-.541.174-.682l2.694-1.612-2.188 1.263c-.238.138-.542.058-.681-.179-.14-.236-.062-.541.173-.683l12.118-7.302-11.61 6.703c-.238.137-.541.058-.68-.178-.14-.235-.064-.539.17-.682l22.132-13.492-21.621 12.485c-.238.137-.54.058-.681-.178-.14-.236-.062-.54.172-.683l18.274-11.083-17.765 10.258c-.238.137-.542.058-.681-.179-.14-.236-.062-.541.174-.683l7.271-4.363-6.764 3.904c-.238.137-.542.058-.681-.179-.14-.237-.062-.542.174-.683l5.566-3.337-5.06 2.921c-.238.137-.54.059-.68-.177s-.064-.54.169-.683l24.166-14.781-23.654 13.659c-.238.137-.54.058-.68-.176-.14-.235-.065-.539.167-.683l28.431-17.556-27.918 16.119c-.238.138-.542.059-.681-.179-.14-.236-.062-.541.173-.683l7.644-4.593-7.136 4.119c-.238.138-.54.057-.681-.178-.14-.236-.062-.541.172-.683l14.478-8.765-13.969 8.066c-.238.137-.54.058-.68-.176-.14-.235-.065-.538.167-.683l25.585-15.815-25.072 14.476c-.238.137-.539.058-.679-.176-.141-.234-.067-.537.165-.682l24.741-15.368-24.227 13.989c-.238.134-.54.058-.679-.176-.141-.234-.066-.538.165-.682l20.114-12.456-19.6 11.316c-.238.135-.54.058-.68-.177s-.065-.539.168-.682l13.039-8.001-12.527 7.232c-.238.136-.539.058-.679-.176-.141-.233-.067-.537.164-.681l17.067-10.663-16.552 9.557c-.238.136-.54.058-.68-.177s-.064-.539.168-.682l6.424-3.936-5.912 3.413c-.238.136-.539.058-.679-.176-.141-.234-.067-.538.164-.682l10.699-6.662-10.184 5.882c-.235.136-.537.059-.679-.175-.141-.234-.067-.537.164-.682l9.355-5.851-8.84 5.105c-.236.136-.535.06-.676-.171-.142-.23-.074-.532.152-.681l14.575-9.544-14.051 8.113c-.235.134-.533.06-.675-.17-.143-.229-.076-.531.148-.68l12.194-8.084-11.667 6.736c-.235.136-.536.059-.678-.174-.141-.232-.07-.535.159-.681l3.922-2.498-3.403 1.965c-.235.136-.534.059-.678-.174-.141-.232-.07-.535.159-.681l1.877-1.197-1.358.785c-.23.134-.528.062-.672-.166-.144-.226-.083-.525.137-.678l7.634-5.297-7.099 4.099c-.229.132-.526.062-.671-.163s-.087-.522.131-.677l5.631-4.006-5.091 2.939c-.232.135-.528.062-.673-.167-.144-.228-.081-.528.141-.679l1.053-.718-.52.3c-.228.134-.522.063-.668-.158s-.093-.517.119-.676l2.504-1.869-1.737 1.003c-.214.124-.493.072-.646-.128-.152-.199-.135-.479.042-.657l2.347-2.365c-.227.101-.506.017-.634-.208-.139-.239-.057-.545.183-.683l3.185-1.838c.216-.122.493-.072.646.128.152.199.135.479-.042.657l-2.338 2.356 5.851-3.378c.229-.131.522-.062.668.158.146.221.093.517-.119.676l-2.503 1.868 4.679-2.702c.234-.133.53-.061.673.167.144.228.081.528-.141.679l-1.054.718 2.71-1.564c.229-.134.525-.063.671.163.145.225.087.522-.131.677l-5.632 4.006 8.396-4.846c.229-.134.528-.061.672.166.144.226.083.525-.137.678l-7.635 5.298 10.637-6.142c.238-.135.535-.059.678.174.141.232.07.535-.159.681l-1.883 1.201 3.56-2.056c.237-.135.537-.059.678.174s.07.535-.159.681l-3.921 2.498 5.807-3.353c.234-.136.533-.06.675.17.143.229.076.531-.148.68l-12.191 8.083 15.468-8.933c.235-.136.534-.059.676.171s.074.532-.152.681l-14.576 9.545 18.006-10.397c.236-.135.538-.059.679.175s.067.537-.164.682l-9.354 5.85 11.615-6.707c.236-.136.537-.058.679.176.141.234.067.538-.164.682l-10.705 6.665 13.029-7.523c.236-.136.538-.058.68.177.14.235.064.539-.168.682l-6.426 3.937 8.308-4.796c.236-.136.537-.059.679.176.141.233.067.537-.164.681l-17.064 10.661 19.948-11.518c.237-.136.539-.058.68.177.14.235.065.539-.168.682l-13.035 8 15.343-8.859c.236-.136.539-.059.679.176.141.234.066.538-.165.682l-20.124 12.462 23.06-13.314c.237-.137.537-.059.679.176.141.234.067.538-.165.682l-24.73 15.361 26.994-15.586c.236-.137.538-.059.68.177.14.234.065.538-.167.682l-25.588 15.817 26.846-15.5c.238-.138.54-.058.681.179.14.236.062.54-.172.682l-14.497 8.776 14.913-8.61c.238-.138.541-.058.681.179s.062.541-.173.683l-7.629 4.584 7.729-4.462c.236-.137.538-.059.68.177.14.234.065.538-.167.682l-28.428 17.555 28.555-16.488c.236-.137.538-.058.68.178.14.235.064.539-.169.682l-24.174 14.786 23.776-13.727c.237-.138.542-.058.681.18.14.236.062.541-.174.682l-5.525 3.312 5.019-2.898c.237-.138.542-.058.681.179.14.237.062.542-.174.683l-7.289 4.375 6.782-3.916c.237-.138.54-.058.681.178.14.236.062.541-.172.683l-18.274 11.083 17.766-10.257c.236-.137.54-.058.68.178s.064.54-.17.682l-22.142 13.498 21.632-12.489c.237-.138.542-.058.681.179.14.236.062.541-.173.682l-12.103 7.292 11.595-6.694c.237-.137.542-.058.681.18.14.237.062.542-.174.683l-2.694 1.611 2.188-1.263c.237-.138.54-.058.681.178.14.236.062.54-.171.683l-18.482 11.211 17.973-10.376c.236-.136.538-.059.68.177.14.234.065.539-.168.682l-27.2 16.743 26.688-15.409c.237-.137.542-.058.681.18.14.236.062.541-.174.682l-5.254 3.151 4.747-2.741c.236-.137.539-.059.679.177.141.234.066.538-.166.682l-27.683 17.125 27.17-15.687c.237-.138.54-.058.681.179.14.236.062.541-.172.683l-10.717 6.469 10.208-5.894c.236-.137.54-.059.68.178.14.236.064.54-.169.682l-17.224 10.501 16.713-9.649c.236-.137.538-.058.68.177.14.235.065.539-.167.682l-20.27 12.488 19.757-11.407c.236-.136.538-.059.679.176.141.234.067.537-.164.682l-21.314 13.288 20.8-12.008c.236-.138.538-.059.68.176.14.235.065.538-.167.683l-14.929 9.226 14.416-8.322c.236-.139.538-.06.679.176.141.233.067.537-.164.682l-14.625 9.104 14.11-8.146c.236-.137.537-.06.678.174s.069.536-.16.682l-15.663 9.903 15.146-8.744c.236-.136.536-.059.678.173.141.232.07.535-.159.682l-14.114 9.002 13.596-7.849c.236-.136.536-.059.677.173.142.232.071.534-.157.681l-11.533 7.382 11.014-6.358c.236-.137.538-.06.679.175.141.233.068.536-.163.682l-4.758 2.988 4.242-2.449c.235-.137.535-.061.676.171.142.231.074.533-.153.681l-8.8 5.731 8.277-4.778c.233-.138.532-.062.675.169.143.229.077.53-.147.68l-8.226 5.484 7.698-4.444c.235-.137.535-.06.677.173.142.231.072.533-.156.681l-1.333.856.812-.469c.233-.137.533-.062.675.169.143.229.077.531-.148.681l-3.135 2.08 2.608-1.506c.234-.135.528-.061.673.165.144.227.082.526-.139.679l-3.686 2.549 3.151-1.819c.229-.133.522-.062.668.157.146.222.093.518-.119.676l-3.847 2.869 3.242-1.871c.228-.135.52-.064.666.156s.097.515-.113.675l-1.755 1.332.769-.443c.22-.128.506-.068.655.141.15.208.118.496-.073.666l-1.682 1.492c.106.039.201.113.262.22.139.239.057.545-.183.683l-3.184 1.839c-.219.129-.505.068-.655-.14-.15-.209-.118-.497.073-.667l1.02-.904-3.374 1.947c-.229.132-.521.063-.666-.156-.146-.22-.097-.515.113-.675l1.754-1.331-3.746 2.162c-.228.135-.521.062-.668-.157-.146-.222-.093-.518.119-.676l3.845-2.868-6.411 3.701c-.233.136-.527.062-.673-.165-.144-.227-.082-.526.139-.679l3.688-2.55-5.879 3.394c-.234.136-.534.061-.675-.169-.143-.229-.077-.531.148-.681l3.133-2.078-5.072 2.928c-.235.137-.536.06-.677-.173-.142-.231-.072-.533.156-.681l1.33-.854-2.959 1.708c-.235.136-.532.061-.675-.169s-.077-.53.147-.68l8.227-5.484-10.971 6.333c-.235.137-.534.06-.676-.171s-.074-.533.153-.681l8.805-5.735-11.409 6.587c-.236.138-.538.061-.679-.175-.141-.233-.068-.536.163-.682l4.757-2.987-6.658 3.844c-.235.138-.536.06-.677-.173-.142-.232-.071-.534.157-.681l11.527-7.378-14.258 8.231c-.235.138-.535.06-.678-.173-.141-.232-.07-.535.159-.682l14.118-9.005-17.078 9.859c-.235.138-.536.06-.678-.174-.141-.233-.069-.536.16-.682l15.662-9.902-18.634 10.758c-.238.137-.538.058-.679-.176s-.067-.537.164-.682l14.626-9.104-17.256 9.962c-.238.137-.54.058-.68-.176-.14-.235-.065-.538.167-.683l14.932-9.228-17.471 10.086c-.238.137-.538.058-.679-.176s-.067-.537.164-.681l21.31-13.285-24.495 14.142c-.079.046-.165.067-.25.067z" fill="#ffffff" fill-opacity="1" data-original-color="#dd4752ff" stroke="none" stroke-opacity="1" style=""/><g fill="#fff"><path d="m44.06 47.438c-.147 0-.292-.065-.391-.188-.154-.192-.145-.47.022-.651l.682-.74-2.039 1.177c-.212.125-.484.073-.64-.12-.155-.192-.146-.469.021-.65l2.172-2.364-3.126 1.804c-.222.131-.507.067-.658-.144-.148-.21-.113-.5.082-.668l1.077-.928-1.423.821c-.213.125-.487.073-.642-.122-.154-.193-.143-.472.026-.652l2.303-2.461-3.124 1.804c-.214.125-.488.073-.643-.124-.154-.195-.141-.474.03-.653l2.249-2.358-3.029 1.749c-.219.13-.506.07-.657-.143-.149-.209-.115-.498.079-.667l1.19-1.036-1.561.9c-.217.127-.497.071-.649-.132-.151-.201-.13-.484.052-.66l1.936-1.875-2.542 1.468c-.215.127-.493.072-.646-.128-.152-.199-.135-.48.043-.658l2.095-2.1-2.778 1.604c-.225.133-.514.066-.662-.149-.147-.215-.105-.508.098-.672l.319-.259-.531.307c-.216.126-.495.07-.648-.131-.152-.2-.131-.482.049-.659l1.994-1.952-2.626 1.516c-.218.128-.5.07-.65-.134-.152-.203-.128-.487.057-.662l1.821-1.724-2.379 1.373c-.239.138-.546.057-.683-.183-.139-.239-.057-.545.183-.683l6.059-3.498c.217-.128.499-.071.65.134.152.203.128.487-.057.662l-1.823 1.726 2.379-1.373c.216-.127.495-.072.648.131.152.2.131.482-.049.659l-1.994 1.952 2.622-1.514c.225-.133.514-.066.662.149.147.215.105.508-.098.672l-.321.26.532-.307c.215-.126.493-.071.646.128.152.199.135.48-.043.658l-2.093 2.098 2.772-1.601c.216-.127.496-.072.649.132.151.201.13.484-.052.66l-1.936 1.875 2.539-1.466c.221-.129.506-.069.657.143.149.209.115.498-.079.667l-1.19 1.036 1.559-.899c.213-.125.489-.074.643.124.154.195.141.474-.03.653l-2.249 2.358 3.025-1.747c.213-.125.488-.073.642.122.154.193.143.472-.026.652l-2.304 2.462 3.122-1.802c.224-.13.508-.066.658.144.148.21.113.5-.082.668l-1.078.928 1.338-.771c.212-.124.484-.073.641.12.154.192.145.469-.022.65l-2.171 2.363 2.046-1.181c.212-.125.484-.073.641.12.154.192.145.47-.022.651l-.973 1.057c.134.028.255.111.328.239.139.239.057.545-.183.683l-2.187 1.263c-.078.046-.164.067-.25.067z" fill="#ffffff" fill-opacity="1" data-original-color="#ffffffff" stroke="none" stroke-opacity="1" style=""/><path d="m32.762 22.98c-.164 0-.324-.081-.419-.228-.146-.223-.09-.521.125-.677l4.828-3.508c-.197.059-.425-.013-.551-.193-.149-.212-.11-.503.088-.669l3.618-3.036c-.009-.012-.017-.024-.023-.037-.139-.239-.057-.545.183-.683l2.28-1.317c.222-.129.51-.066.659.146s.11.503-.088.669l-1.607 1.349 3.098-1.789c.228-.134.525-.063.669.161.146.223.09.521-.125.677l-4.723 3.432 5.406-3.122c.238-.138.545-.057.683.183.139.239.057.545-.183.683l-13.668 7.891c-.078.045-.165.067-.25.067z" fill="#ffffff" fill-opacity="1" data-original-color="#ffffffff" stroke="none" stroke-opacity="1" style=""/><path d="m15.596 47.37c-.164 0-.324-.081-.42-.229-.145-.224-.088-.521.128-.678l.054-.038-.632.364c-.23.136-.527.062-.673-.165-.143-.227-.082-.526.138-.679l2.766-1.915-3.137 1.811c-.232.137-.53.062-.674-.167-.143-.229-.079-.528.144-.68l10.283-6.966-10.285 5.938c-.236.137-.536.061-.677-.172-.142-.231-.072-.534.156-.681l5.935-3.825-4.759 2.747c-.235.137-.533.06-.676-.17-.142-.23-.075-.532.151-.681l13.369-8.795-7.739 4.468c-.236.137-.536.061-.677-.172-.142-.232-.072-.534.156-.681l9.504-6.122-4.791 2.766c-.234.136-.534.061-.677-.172-.142-.231-.072-.533.155-.681l7.446-4.82-5.152 2.975c-.223.13-.513.066-.661-.148-.147-.213-.107-.505.093-.671l.621-.513-.878.507c-.214.123-.489.072-.644-.125-.153-.196-.14-.475.032-.654l2.252-2.353-3.025 1.747c-.225.131-.514.065-.662-.15-.147-.215-.105-.508.098-.672l.319-.258-.529.306c-.226.13-.516.064-.663-.151-.147-.216-.104-.509.101-.672l.2-.161-.395.228c-.222.128-.508.067-.657-.143s-.115-.499.08-.668l1.161-1.007-1.522.879c-.218.126-.5.07-.651-.135-.151-.204-.126-.489.06-.663l1.748-1.636-2.276 1.314c-.218.127-.502.069-.654-.138-.15-.207-.121-.493.068-.665l1.552-1.411-2.016 1.164c-.212.122-.485.072-.642-.122-.153-.194-.143-.471.025-.652l2.32-2.491-3.15 1.819c-.218.125-.497.07-.649-.133-.152-.202-.129-.485.053-.661l1.896-1.823-2.482 1.433c-.219.128-.504.069-.655-.14-.15-.208-.119-.496.072-.667l1.392-1.239-1.81 1.045c-.217.124-.496.07-.648-.131s-.131-.483.049-.66l1.966-1.919-2.357 1.361c-.217.125-.496.07-.648-.131s-.131-.484.05-.66l1.609-1.567-1.247.72c-.215.123-.489.073-.644-.125-.154-.196-.14-.476.034-.655l.876-.906c-.104-.04-.196-.114-.256-.218-.139-.239-.057-.545.183-.683l2.193-1.266c.214-.124.489-.072.645.125.153.196.139.476-.035.655l-.411.426 1.631-.942c.215-.124.495-.071.648.131.152.201.131.484-.05.66l-1.61 1.568 2.339-1.351c.216-.126.495-.071.648.131.152.201.131.483-.049.66l-1.966 1.918 2.587-1.494c.22-.126.506-.068.655.14.15.208.119.496-.072.667l-1.392 1.239 1.812-1.046c.216-.127.497-.071.649.133.152.202.129.485-.053.661l-1.895 1.822 2.483-1.434c.212-.122.485-.073.642.122.153.194.143.471-.025.652l-2.319 2.491 3.152-1.821c.219-.126.503-.069.653.138.151.207.122.493-.067.665l-1.555 1.414 2.022-1.167c.217-.126.501-.07.651.135.151.204.126.489-.06.663l-1.747 1.634 2.277-1.315c.221-.128.508-.068.657.143.149.21.115.499-.08.668l-1.163 1.009 1.527-.882c.225-.132.515-.065.663.151.147.216.104.509-.101.672l-.199.16.395-.228c.224-.13.514-.065.662.15.147.215.105.508-.098.672l-.318.257.53-.306c.214-.123.49-.072.644.125.153.196.14.475-.032.654l-2.253 2.354 3.03-1.749c.224-.13.512-.066.661.148.147.213.107.505-.093.671l-.62.512 17.002-9.816c.236-.135.534-.059.677.172.142.231.072.533-.155.681l-7.448 4.821 5.566-3.214c.236-.135.536-.06.677.173.142.231.072.534-.156.681l-9.492 6.114 4.779-2.76c.236-.135.533-.06.676.17.142.23.075.532-.151.68l-13.375 8.799 7.621-4.4c.235-.135.536-.059.677.172.142.232.072.534-.156.681l-5.927 3.82 4.629-2.673c.234-.134.53-.06.674.168.143.228.079.528-.144.679l-10.291 6.971 1.615-.932c.233-.136.528-.061.673.165.143.227.082.526-.138.679l-3.714 2.572c.146.015.283.094.368.226.145.224.088.521-.128.678l-2.716 1.953c.044.036.082.081.112.134.139.239.057.545-.183.683l-5.422 3.131c-.078.046-.165.067-.25.067z" fill="#ffffff" fill-opacity="1" data-original-color="#ffffffff" stroke="none" stroke-opacity="1" style=""/></g><path d="m.276 41.881c-.22 10.995-1.472 19.075 12.791 17.51h37.17c10.482.766 9.752-9.242 9.487-16.736 0-9.167 0-18.333 0-27.5.324-6.181.59-14.545-7.748-14.547-59.258 2.214-51.383-12.766-51.7 41.273zm2.708-37.958c3.905-4.698 13.258-1.745 18.886-2.532h25.629c4.863-.755 10.864.997 10.777 6.86.003 8.599-.001 17.2 0 25.8-1.073 6.846 3.883 23.81-5.988 24.557-13.904 0-27.807 0-41.71 0-6.744.988-9.829-4.579-8.853-10.637 0-8.472 0-16.944 0-25.417.601-6.111-1.441-12.982 1.259-18.631z" fill="#262626" fill-opacity="1" data-original-color="#262626ff" stroke="none" stroke-opacity="1" style=""/><path d="m13.476 40.953c-3.718 3.697 1.964 8.791 5.625 5.489 3.743-3.42 7.132-7.255 10.799-10.77 4.087 3.14 8.912 11.182 13.807 11.797 3.298-.216 5.31-3.991 2.96-6.573l-10.994-10.994c2.698-3.862 14.967-11.141 11.229-15.949-5.525-5.526-12.449 7.438-16.799 10.373-4.085-2.936-10.299-13.897-15.589-11.309-2.026 1.017-2.926 3.614-1.617 5.557 3.662 3.955 7.661 7.65 11.43 11.525-3.618 3.608-7.353 7.131-10.851 10.854zm7.069-5.527c1.583-1.943 4.324-3.611 5.322-5.73-3.547-3.547-7.094-7.093-10.64-10.64-2.438-1.59-1.62-6.226 1.712-5.464 16.831 12.947 7.425 17.835 24.296 1.143 1.096-1.096 2.439-1.783 3.883-.606 5.077 3.97-9.682 12.394-10.985 16.175 3.733 3.733 7.466 7.466 11.2 11.2 1.447 1.59 1.182 4.977-1.562 4.997-3.248.113-12.111-13.523-14.367-11.877-3.715 3.714-7.428 7.432-11.143 11.144-1.14 1.019-2.653.949-3.711-.201-2.895-4.168 3.93-7.168 5.996-10.142z" fill="#262626" fill-opacity="1" data-original-color="#262626ff" stroke="none" stroke-opacity="1" style=""/></g></svg>