<svg id="Icon" height="300" viewBox="0 0 60 60" width="300" xmlns="http://www.w3.org/2000/svg" version="1.1" xmlns:xlink="http://www.w3.org/1999/xlink" xmlns:svgjs="http://svgjs.dev/svgjs"><g width="100%" height="100%" transform="matrix(1,0,0,1,0,0)"><path d="m50.668 42.14c-.158 0-.313-.075-.41-.214-.148-.213-.109-.504.09-.67l3.52-2.932-.569.328c-.213.125-.487.074-.642-.122-.154-.193-.143-.472.026-.652l2.313-2.471c-.056-.04-.104-.092-.14-.155-.139-.239-.057-.545.183-.683l1.681-.971c.213-.126.487-.073.642.122.154.193.143.472-.026.652l-1.619 1.729 2.706-1.562c.224-.132.511-.066.66.146.148.213.109.504-.09.67l-3.517 2.93 2.961-1.71c.239-.139.545-.057.683.183.139.239.057.545-.183.683l-8.019 4.631c-.078.046-.164.067-.25.067z" fill="#ffffff" fill-opacity="1" data-original-color="#ff634eff" stroke="none" stroke-opacity="1" style=""/><path d="m50.014 48.369c-.151 0-.3-.068-.397-.196-.152-.199-.133-.48.045-.658l.694-.691-1.559.899c-.226.132-.517.065-.664-.152-.146-.217-.102-.511.104-.673l1.114-.88-1.437.829c-.229.132-.521.063-.667-.156-.146-.221-.095-.517.116-.676l2.928-2.21-3.439 1.985c-.203.119-.464.078-.622-.099-.158-.176-.171-.438-.032-.629l.98-1.344-1.523.879c-.208.121-.473.075-.63-.107-.156-.184-.16-.452-.009-.64l.821-1.017-1.237.714c-.202.118-.46.078-.619-.095-.158-.173-.175-.433-.04-.625l1.017-1.45-1.605.927c-.208.12-.473.075-.629-.106-.157-.183-.162-.45-.012-.639l.837-1.047-1.265.729c-.239.139-.546.056-.683-.183-.139-.239-.057-.545.183-.683l3.56-2.055c.206-.122.472-.076.629.106s.162.45.012.639l-.836 1.046 1.266-.73c.203-.119.46-.079.619.095.158.173.175.433.04.625l-1.017 1.451 1.61-.93c.206-.123.473-.076.63.107.156.184.16.452.009.64l-.821 1.017 1.24-.716c.203-.12.464-.077.622.099s.171.438.032.629l-.98 1.344 8.426-4.864c.226-.135.521-.064.667.156.146.221.095.517-.116.676l-2.926 2.209.379-.219c.225-.134.516-.066.664.152.146.217.102.511-.104.673l-1.851 1.461c.109.025.211.088.284.184.152.199.133.48-.045.658l-1.705 1.697c.031.031.06.067.082.107.139.239.057.545-.183.683l-1.707.985c-.078.046-.164.067-.25.067z" fill="#ffffff" fill-opacity="1" data-original-color="#ff634eff" stroke="none" stroke-opacity="1" style=""/><path d="m33.689 42.716c-.162 0-.321-.079-.417-.225-.146-.221-.095-.517.117-.675l5.767-4.332c-.061-.216.029-.453.231-.569l2.301-1.328c.227-.134.521-.065.667.157.146.221.095.517-.116.675l-1.632 1.227 2.561-1.479c.239-.139.545-.058.683.183.139.239.057.545-.183.683l-9.729 5.616c-.078.046-.165.067-.25.067z" fill="#ffffff" fill-opacity="1" data-original-color="#ff634eff" stroke="none" stroke-opacity="1" style=""/><path d="m31.073 49.39c-.162 0-.321-.079-.417-.225-.146-.221-.095-.517.117-.676l1.261-.943-2.147 1.239c-.235.136-.533.06-.676-.17-.142-.23-.075-.531.15-.68l1.32-.871-1.416.817c-.232.136-.53.062-.674-.167-.143-.228-.08-.527.143-.679l3.938-2.684-4.078 2.354c-.218.126-.496.07-.648-.131s-.131-.484.05-.66l.061-.059c-.198.093-.438.045-.586-.124-.157-.18-.166-.445-.021-.634l1.086-1.418-1.257.726c-.211.124-.479.074-.637-.115-.155-.188-.15-.463.011-.646l.771-.883-.817.472c-.205.121-.471.077-.628-.105-.157-.181-.163-.448-.015-.637l1.032-1.312-1.176.679c-.217.125-.494.072-.647-.13-.152-.2-.133-.482.046-.658l.136-.134-.047.026c-.199.117-.454.081-.613-.09-.159-.168-.182-.424-.055-.617l1.274-1.938-1.594.92c-.214.126-.489.071-.645-.125-.153-.196-.139-.476.035-.655l.378-.391-.329.189c-.206.122-.469.077-.627-.104-.157-.181-.164-.447-.018-.636l1.043-1.337-1.193.688c-.208.121-.475.074-.631-.108-.156-.185-.159-.454-.006-.641l.938-1.147-1.041.601c-.209.121-.476.075-.632-.109-.156-.185-.158-.455-.004-.642l.916-1.109-1.009.582c-.203.119-.463.078-.622-.099-.157-.175-.171-.438-.032-.628l1.154-1.586-1.369.79c-.201.117-.456.078-.615-.091-.158-.17-.18-.427-.051-.62l1.253-1.873-1.557.898c-.207.121-.474.076-.63-.107s-.16-.451-.01-.639l.982-1.222-1.107.639c-.202.119-.457.079-.617-.094-.159-.172-.177-.43-.045-.622l1.229-1.784-1.505.869c-.209.122-.478.075-.634-.112s-.155-.458.002-.644l.862-1.019-.938.542c-.213.124-.485.073-.64-.12-.155-.192-.146-.469.021-.65l.604-.659-.607.351c-.217.127-.495.071-.647-.129s-.133-.482.046-.659l.163-.162-.081.047c-.208.121-.473.076-.629-.106-.157-.182-.162-.45-.012-.638l1.013-1.272-1.15.664c-.216.125-.496.07-.647-.13-.153-.2-.133-.482.047-.659l.129-.127-.041.023c-.24.138-.546.057-.683-.183-.139-.239-.057-.545.183-.683l3.438-1.984c.215-.128.495-.071.647.13.153.2.133.482-.047.659l-.129.126.039-.021c.206-.122.472-.076.629.106s.162.45.012.638l-1.012 1.271 1.146-.661c.215-.127.494-.071.647.129.152.2.133.481-.046.659l-.165.164.081-.047c.212-.124.484-.072.64.12s.146.469-.021.65l-.604.659.604-.349c.209-.123.478-.075.634.112s.155.458-.002.644l-.861 1.017.935-.539c.202-.118.458-.078.617.094.159.171.177.43.045.622l-1.229 1.785 1.502-.866c.206-.122.472-.076.63.107.156.183.16.451.01.639l-.98 1.22 1.102-.636c.2-.118.454-.079.615.091.158.17.18.427.051.62l-1.254 1.874 1.552-.896c.203-.12.464-.079.622.099.157.175.171.438.032.628l-1.153 1.585 1.367-.789c.207-.122.475-.076.632.109.156.185.158.455.004.642l-.916 1.11 1.011-.584c.207-.122.474-.074.631.108.156.185.159.454.006.641l-.938 1.147 1.046-.604c.207-.121.471-.076.627.104.157.181.164.447.018.636l-1.043 1.338 1.195-.69c.214-.126.489-.072.645.125.153.196.139.476-.035.655l-.379.393.333-.192c.2-.116.455-.08.613.09.159.168.182.424.055.617l-1.274 1.938 1.597-.922c.216-.127.493-.071.647.13.152.2.133.482-.046.658l-.134.132.047-.026c.207-.12.471-.077.628.105.157.181.163.448.015.637l-1.033 1.312 1.18-.681c.21-.123.48-.074.637.115.155.188.15.463-.011.646l-.771.883.819-.473c.205-.121.468-.078.626.103.157.18.166.445.021.634l-1.086 1.417 1.26-.727c.216-.127.496-.071.648.131.152.201.131.484-.05.66l-.055.053 12.215-7.052c.234-.136.53-.061.674.167.143.228.08.527-.143.679l-3.936 2.682 4.4-2.54c.234-.138.533-.061.676.17.142.23.075.531-.15.68l-5.938 3.915c.037.03.069.066.097.108.146.221.095.517-.117.676l-5.495 4.113c.059.214-.031.448-.232.563l-2.301 1.329c-.078.046-.165.067-.25.067z" fill="#ffffff" fill-opacity="1" data-original-color="#ff634eff" stroke="none" stroke-opacity="1" style=""/><path d="m4.029 31.037c-.16 0-.317-.077-.413-.219-.147-.216-.104-.51.102-.673l.553-.439c-.228.128-.519.059-.663-.163s-.091-.519.123-.676l6.19-4.554-5.648 3.261c-.229.134-.525.062-.671-.162-.144-.225-.087-.522.131-.678l4.202-2.994-2.738 1.581c-.227.132-.517.065-.664-.152s-.102-.511.104-.673l7.636-6.014c-.094-.228-.006-.495.213-.621l2.193-1.267c.226-.133.516-.065.664.152.147.217.102.511-.104.673l-4.516 3.556 5.784-3.339c.228-.136.525-.063.671.162.144.225.087.522-.131.678l-4.203 2.995 4.402-2.542c.229-.133.523-.062.669.159.145.222.091.519-.123.676l-7.754 5.703c.079.037.149.095.201.172.147.216.104.51-.102.673l-4.533 3.609c-.002.171-.092.337-.25.429l-1.075.62c-.079.045-.165.066-.25.066z" fill="#ffffff" fill-opacity="1" data-original-color="#ff634eff" stroke="none" stroke-opacity="1" style=""/><g fill="#f2cc2f"><path d="m4.028 45.788c-.157 0-.311-.074-.407-.21-.149-.211-.115-.5.08-.668l2.064-1.784-1.49.86c-.229.135-.521.064-.668-.159-.146-.222-.093-.519.121-.676l1.652-1.219-1.107.639c-.228.135-.522.063-.668-.158s-.093-.518.12-.676l4.371-3.246-2.709 1.564c-.229.136-.526.062-.672-.164-.144-.226-.084-.524.135-.678l2.388-1.678c-.069-.034-.132-.085-.181-.151-.15-.204-.125-.489.062-.663l3.774-3.518c-.012-.016-.023-.033-.034-.051-.138-.239-.056-.545.184-.684l1.724-.994c.22-.126.5-.067.652.137.15.204.125.489-.062.663l-2.342 2.182 3.428-1.979c.23-.135.527-.062.672.164.144.226.084.524-.135.678l-.333.234.474-.273c.229-.133.522-.063.668.158s.093.518-.12.676l-4.376 3.249 1.307-.754c.229-.134.522-.063.668.159s.093.519-.121.676l-2.896 2.137c.095.033.181.096.243.183.149.211.115.5-.08.668l-3.395 2.933c.043.037.081.081.11.133.139.239.057.545-.183.683l-2.668 1.54c-.078.046-.165.067-.25.067z" fill="#ffffff" fill-opacity="1" data-original-color="#f2cc2fff" stroke="none" stroke-opacity="1" style=""/><path d="m17.577 42.481c-.15 0-.299-.068-.396-.195-.152-.198-.135-.479.042-.657l1.484-1.493-2.186 1.262c-.225.132-.514.065-.662-.149-.147-.216-.105-.508.098-.672l2.154-1.741-2.523 1.456c-.199.115-.45.08-.609-.086-.16-.165-.187-.417-.064-.612l1.158-1.849-1.771 1.022c-.207.121-.473.076-.629-.106s-.162-.449-.013-.637l.896-1.129-1.234.712c-.24.139-.546.057-.683-.183-.139-.239-.057-.545.183-.683l3.511-2.026c.206-.122.472-.075.629.106.156.182.162.449.013.637l-.896 1.129 1.235-.713c.197-.116.449-.081.609.086.16.165.187.417.064.612l-1.158 1.849 6.313-3.645c.225-.132.514-.066.662.149.147.216.105.508-.098.672l-2.179 1.762c.202-.081.441-.02.58.16.152.198.135.479-.042.657l-1.983 1.995c.104.039.194.113.254.217.139.239.057.545-.183.683l-2.326 1.343c-.078.046-.164.067-.25.067z" fill="#ffffff" fill-opacity="1" data-original-color="#f2cc2fff" stroke="none" stroke-opacity="1" style=""/><path d="m18.11 36.646c-.16 0-.317-.077-.414-.22-.146-.217-.102-.511.104-.673l4.03-3.177-1.425.822c-.232.134-.526.062-.671-.162-.145-.225-.087-.523.131-.678l1.974-1.404c-.219.114-.492.054-.638-.149-.15-.208-.119-.496.072-.666l3.329-2.967-.508.293c-.214.125-.488.073-.643-.123-.154-.195-.141-.474.03-.654l1.55-1.632c-.041-.035-.077-.078-.105-.128-.139-.239-.057-.545.183-.683l1.596-.921c.214-.125.488-.073.643.123.154.195.141.474-.03.654l-.733.772 1.741-1.005c.222-.129.506-.066.655.14.15.208.119.496-.072.666l-3.327 2.965 4.893-2.824c.231-.135.525-.062.671.162.145.225.087.523-.131.678l-3.289 2.34c.109.031.208.1.276.2.146.217.102.511-.104.673l-4.03 3.177 1.43-.825c.238-.14.545-.058.683.183.139.239.057.545-.183.683l-7.437 4.293c-.078.046-.165.067-.25.067z" fill="#ffffff" fill-opacity="1" data-original-color="#f2cc2fff" stroke="none" stroke-opacity="1" style=""/><path d="m36.057 32.469c-.145 0-.286-.062-.385-.181-.155-.187-.153-.459.005-.645l1.771-2.073-3.441 1.986c-.229.132-.521.062-.666-.155-.146-.22-.097-.516.113-.676l.957-.728-1.706.984c-.232.136-.526.062-.672-.164-.144-.226-.084-.524.135-.678l.292-.205-.922.532c-.199.118-.452.079-.613-.089-.158-.168-.182-.423-.056-.616l1.056-1.624-2.454 1.417c-.216.126-.496.07-.648-.13s-.132-.483.048-.659l.242-.238-.854.493c-.24.139-.546.057-.683-.183-.139-.239-.057-.545.183-.683l4.261-2.46c.215-.127.495-.071.648.13.152.2.132.483-.048.659l-.242.238.854-.493c.2-.117.453-.079.613.089.158.168.182.423.056.616l-1.056 1.624 9.023-5.21c.229-.136.526-.062.672.164.144.226.084.524-.135.678l-1.344.941c.134.021.258.097.338.217.146.22.097.516-.113.675l-1.523 1.159c.129.012.253.072.341.179.155.187.153.459-.005.645l-2.223 2.602c.082.042.153.107.202.193.139.239.057.545-.183.683l-1.589.917c-.078.046-.164.067-.25.067z" fill="#ffffff" fill-opacity="1" data-original-color="#f2cc2fff" stroke="none" stroke-opacity="1" style=""/><path d="m36.354 26.118c-.162 0-.321-.079-.417-.224-.146-.221-.095-.517.115-.676l5.435-4.103-2.862 1.652c-.224.132-.511.066-.66-.146-.148-.213-.109-.504.09-.67l3.414-2.85-.911.525c-.21.123-.479.074-.635-.113s-.153-.46.005-.645l2.193-2.56c-.08-.042-.15-.107-.198-.191-.139-.239-.057-.545.183-.683l1.589-.917c.21-.123.479-.075.635.113.155.188.153.46-.005.645l-1.734 2.022 3.402-1.963c.224-.131.512-.066.66.146s.109.504-.09.67l-3.412 2.849 4.864-2.809c.226-.134.521-.065.667.156s.095.517-.115.676l-5.434 4.102.158-.091c.238-.139.545-.057.683.183.139.239.057.545-.183.683l-7.187 4.149c-.078.046-.165.067-.25.067z" fill="#ffffff" fill-opacity="1" data-original-color="#f2cc2fff" stroke="none" stroke-opacity="1" style=""/><path d="m50.876 22.46c-.145 0-.287-.062-.385-.181-.155-.188-.153-.46.005-.645l1.301-1.517-2.644 1.525c-.219.131-.506.069-.656-.142-.15-.209-.116-.498.077-.667l2.694-2.355-4.058 2.342c-.204.12-.464.077-.622-.099-.158-.177-.171-.439-.031-.63l1.008-1.374-2.252 1.3c-.24.138-.546.057-.683-.183-.139-.239-.057-.545.183-.683l4.312-2.489c.205-.119.464-.076.622.099.158.177.171.439.031.63l-1.008 1.374 6.43-3.712c.222-.13.507-.068.656.142.15.209.116.498-.077.667l-2.694 2.355.745-.43c.21-.123.479-.075.635.113.155.188.153.46-.005.645l-1.584 1.848c.125.032.236.113.306.233.139.239.057.545-.183.683l-1.874 1.082c-.078.046-.164.067-.25.067z" fill="#ffffff" fill-opacity="1" data-original-color="#f2cc2fff" stroke="none" stroke-opacity="1" style=""/><path d="m50.763 16.528c-.162 0-.321-.079-.417-.225-.146-.221-.095-.517.116-.675l1.121-.843c-.141-.016-.273-.09-.358-.215-.148-.215-.104-.508.099-.672l2.246-1.809-.509.293c-.219.13-.504.069-.654-.139-.15-.207-.12-.494.069-.665l2.217-2.001-.314.182c-.21.123-.479.075-.635-.114-.156-.188-.153-.46.006-.645l1.35-1.564c-.086-.043-.161-.11-.212-.199-.139-.239-.057-.545.183-.683l1.648-.952c.209-.123.479-.076.635.114.156.188.153.46-.006.645l-.912 1.057 1.854-1.069c.223-.129.505-.068.654.139.15.207.12.494-.069.665l-2.214 1.997 2.006-1.157c.225-.133.515-.065.662.15.148.215.104.508-.099.672l-2.246 1.809.615-.354c.227-.134.521-.064.667.157s.095.517-.116.675l-1.118.841c.153.017.297.104.38.247.139.239.057.545-.183.683l-6.216 3.589c-.078.046-.165.067-.25.067z" fill="#ffffff" fill-opacity="1" data-original-color="#f2cc2fff" stroke="none" stroke-opacity="1" style=""/></g><path d="m3.269 20.464c-3.932-.367-4.018 1.501 0 1.071v7.176c-3.733-.143-3.8.867 0 .577v7.336c-3.831-.231-3.906 1.101 0 .751v7.129c-3.895-.336-3.992 1.407 0 .991-.006 2.396.015 4.789-.016 7.186-3.747-.17-3.847.945-.008.637-.067 3.837-.819 7.098 4.384 6.178 16.963-.093 33.934.172 50.895 0 5.673-1.869-17.018-.695-18.457-.994-11.626-.39-23.994.751-35.271-.395-.209-3.745.016-7.615-.064-11.404 2.686-2.926 5.372-5.853 8.058-8.779 3.626 5.469 6.672 6.174 9.806-.178 8.006 14.453 6.321 14.531 19.078 3.664 3.24 2.802 8.166 10.964 11.715 4.14 1.366-3.338 8.373-8.059 5.36-11.522-4.628-2.03-6.436 5.296-9.006 7.885-8.572-10.5-9.131-5.467-17.846 1.13-2.009-3.517-4.017-7.033-6.026-10.55.697-1.103 1.41-2.196 2.112-3.295 12.724 7.139 10.114.133 17.072-9.004 2.323.688 4.589 2.838 7.092 1.96 3.469-3.767 5.166-9.39 7.562-13.958.351-2.272-2.319-3.129-3.997-2.251-2.874 2.804-3.861 7.263-5.977 10.69-9.531-6.088-9.998 4.077-14.77 10.058-4.709-1.879-9.239-6.033-11.979.744-7.42-13.987-6.67-13.209-18.253-3.006.234-2.255.323-35.739-1.463-19.792-3.813-.22-3.883 1.061 0 .72v7.333c-3.771-.159-3.846.919 0 .615v7.157zm27.619 23.741c3.733-.669 6.58-5.459 10.062-7.368 1.743-1.06 2.928 1.397 4.115 2.32 1.672.968 3.332 5.061 5.37 3.752 1.945-2.609 3.641-5.522 5.616-8.067 6.055-.728-2.402 7.656-3.312 9.676-1.096 1.903-2.62 4.251-4.434 1.615-8.737-9.847-6.349-4.792-15.805 1.578-2.975 3.407-7.001-9.375-9.03-11.355.509-.824 1.017-1.647 1.525-2.468 1.964 3.438 3.928 6.877 5.892 10.315zm-26.157-18.576c12.866-10.785 8.958-11.049 17.368 3.184-.518.805-1.036 1.611-1.554 2.416-7.548-14.105-4.737-9.724-15.814-1.455zm0 5.139c3.119-2.639 6.238-5.278 9.357-7.917 1.857 3.251 3.715 6.502 5.572 9.753-.619.962-1.238 1.925-1.857 2.887-4.998-8.711-8.696-.423-13.071 3.758v-8.481zm0 10.026c2.481-2.676 4.921-5.42 7.403-8.08 2.247-.945 3.43 2.982 4.985 4.164.296.357 1.136.067 1.348-.263 2.375-2.437 6.066-12.232 9.001-12.02 11.702 6.109 7.634 1.962 15.386-8.467.438-.575.935-.815 1.632-.53 1.98.361 4.393 2.94 6.241 1.807 1.723-3.42 3.436-6.856 5.158-10.269 1.213-1.661 2.683.235 2.299 1.539-.84 1.929-1.927 3.773-2.827 5.687-3.657 6.762-1.937 8.879-9.983 4.754-.379-.161-1.023-.035-1.251.336-11.269 17.41-3.114 11.278-17.05 8.999-1.917 1.779-7.735 15.074-9.874 12.57-1.282-1.348-2.406-2.884-3.597-4.312-3.038.3-6.183 6.369-8.87 8.451v-4.367z" fill="#262626" fill-opacity="1" data-original-color="#262626ff" stroke="none" stroke-opacity="1" style=""/></g></svg>