<svg id="Icons" viewBox="0 0 60 60" xmlns="http://www.w3.org/2000/svg" width="300" height="300" version="1.1" xmlns:xlink="http://www.w3.org/1999/xlink" xmlns:svgjs="http://svgjs.dev/svgjs"><g width="100%" height="100%" transform="matrix(-1,0,0,-1,59.893802642822266,59.8577783703804)"><path d="m28.147 59.47c-.157 0-.312-.074-.409-.212-.148-.212-.111-.502.086-.669l3.604-3.059-5.227 3.017c-.23.134-.525.062-.669-.16-.146-.224-.09-.521.125-.677l.692-.503-.766.441c-.227.132-.516.064-.663-.15-.147-.216-.104-.509.101-.672l1.387-1.113-1.309.755c-.21.123-.48.075-.637-.116-.155-.188-.15-.463.012-.646l1.522-1.731-1.543.891c-.165.097-.37.089-.528-.018-.159-.106-.243-.294-.217-.482l.212-1.558c-.131-.029-.251-.112-.323-.238-.139-.239-.057-.545.183-.683l.502-.29c.165-.097.37-.089.528.018.159.106.243.294.217.482l-.189 1.393 3.295-1.902c.21-.124.481-.074.637.115s.15.464-.012.647l-1.523 1.732 4.337-2.503c.225-.133.515-.065.663.15.147.216.104.509-.101.672l-1.385 1.111 3.362-1.94c.229-.135.525-.063.669.16.146.224.09.521-.125.677l-.695.505 1.761-1.016c.224-.13.509-.067.659.145.148.212.111.502-.086.669l-3.604 3.059 2.789-1.609c.216-.128.497-.071.649.132.151.201.13.484-.052.66l-1.613 1.562.09-.051c.239-.139.546-.058.683.183.139.239.057.545-.183.683l-3.594 2.074c-.218.127-.497.07-.649-.132-.151-.201-.13-.484.052-.66l1.612-1.562-4.077 2.354c-.078.046-.165.067-.25.067z" fill="#ffffff" fill-opacity="1" data-original-color="#bfc2e0ff" stroke="none" stroke-opacity="1"/><path d="m29.071 54.47c-.163 0-.323-.08-.419-.227-.145-.222-.091-.519.123-.676l1.616-1.189-3.507 2.024c-.227.133-.519.065-.665-.154-.146-.218-.099-.513.109-.674l5.499-4.258-8.453 4.88c-.235.136-.533.061-.675-.169-.143-.229-.077-.531.148-.681l1.482-.983-1.794 1.035c-.235.136-.534.061-.675-.169-.143-.23-.076-.531.148-.681l2.149-1.424-1.88 1.085c-.232.137-.529.062-.673-.166s-.081-.527.141-.679l5.015-3.436-4.482 2.588c-.229.133-.521.063-.666-.155-.146-.22-.097-.516.113-.675l5.671-4.318-5.118 2.955c-.226.132-.517.065-.664-.152-.146-.217-.102-.511.104-.673l3.278-2.584-2.719 1.569c-.225.132-.512.066-.66-.146s-.109-.503.089-.67l1.598-1.336-1.026.592c-.215.128-.491.072-.646-.127-.153-.197-.137-.479.039-.656l.828-.841-.222.127c-.173.101-.391.088-.552-.034-.16-.121-.232-.327-.183-.522l.279-1.096c-.093-.042-.174-.111-.228-.206-.139-.239-.057-.545.183-.683l.501-.289c.175-.101.392-.088.552.034.16.121.232.327.183.521l-.208.815 2.385-1.377c.215-.125.493-.072.646.127.153.197.137.479-.039.656l-.828.842 2.823-1.63c.224-.132.512-.066.66.146s.109.503-.089.67l-1.6 1.339 3.741-2.16c.226-.134.516-.066.664.152.146.217.102.511-.104.673l-3.277 2.583 5.914-3.414c.227-.134.52-.063.666.155.146.22.097.516-.113.675l-5.67 4.317 8.929-5.155c.232-.135.53-.061.673.166.144.228.081.527-.141.679l-5.022 3.44 4.695-2.71c.233-.138.533-.062.675.169.143.23.076.531-.148.681l-2.141 1.418 1.614-.932c.233-.137.533-.062.675.169.143.229.077.531-.148.681l-1.479.981.952-.55c.227-.133.519-.065.665.154.146.218.099.513-.109.674l-5.501 4.26 4.945-2.854c.229-.134.523-.063.669.159.145.222.091.519-.123.676l-1.613 1.188 1.067-.616c.225-.134.517-.064.664.152.147.218.101.512-.105.674l-1.01.792.451-.26c.202-.119.46-.078.619.096.158.174.175.434.039.625l-1.355 1.919.637-.367c.237-.139.545-.058.683.183.139.239.057.545-.183.683l-2.61 1.507c-.203.118-.46.077-.619-.096-.158-.174-.175-.434-.039-.625l1.355-1.919-4.573 2.64c-.227.131-.518.063-.664-.152-.147-.218-.101-.512.105-.674l1.007-.79-2.8 1.616c-.078.046-.165.067-.25.067z" fill="#ffffff" fill-opacity="1" data-original-color="#e1e1f9ff" stroke="none" stroke-opacity="1"/><path d="m25.6 42.47c-.169 0-.333-.086-.427-.24-.142-.232-.071-.534.157-.681l3.038-1.944-4.847 2.798c-.235.136-.533.06-.676-.17-.142-.23-.075-.531.15-.681l10.686-7.038-12.836 7.41c-.236.138-.537.059-.679-.175-.141-.233-.067-.537.163-.682l4.351-2.725-4.466 2.578c-.238.138-.539.058-.679-.175-.141-.234-.067-.537.164-.682l4.251-2.654-3.969 2.291c-.235.138-.535.06-.678-.173-.141-.232-.07-.535.159-.682l10.25-6.541-10.158 5.864c-.238.138-.539.058-.679-.175-.141-.234-.067-.537.164-.682l5.346-3.341-5.3 3.06c-.236.138-.537.059-.679-.175-.141-.233-.067-.537.163-.682l6.292-3.939-6.366 3.676c-.235.139-.536.06-.678-.174-.141-.233-.069-.536.16-.682l9.392-5.938-9.719 5.61c-.235.136-.533.061-.677-.172-.142-.23-.073-.532.154-.681l14.518-9.415-15.319 8.844c-.236.137-.534.061-.677-.172-.142-.23-.072-.533.154-.681l15.092-9.783-15.819 9.133c-.237.137-.539.058-.679-.175-.141-.234-.067-.537.164-.682l7.542-4.71-7.783 4.493c-.235.138-.538.059-.679-.175s-.068-.536.163-.682l8.972-5.627-9.163 5.29c-.235.137-.534.061-.677-.172-.142-.231-.072-.533.155-.681l15.053-9.73-15.366 8.871c-.238.137-.54.058-.679-.176-.141-.234-.066-.538.165-.682l4.265-2.641-4.172 2.408c-.237.137-.539.058-.679-.176-.141-.233-.067-.537.164-.682l5.813-3.617-5.675 3.275c-.238.138-.538.058-.679-.175-.141-.234-.067-.538.164-.682l5.938-3.703-5.727 3.306c-.235.138-.536.061-.678-.175-.142-.232-.069-.536.161-.681l7.89-4.966-7.614 4.396c-.236.137-.536.061-.677-.172-.142-.232-.072-.534.156-.681l11.449-7.373-11.07 6.392c-.235.138-.536.061-.678-.175-.141-.232-.069-.536.161-.681l5.705-3.594-5.182 2.991c-.235.135-.533.06-.676-.17-.142-.229-.075-.531.15-.68l11.564-7.627-10.809 6.24c-.236.138-.536.06-.677-.172-.142-.231-.072-.534.156-.681l6.495-4.188-5.579 3.221c-.232.136-.53.062-.674-.167-.143-.229-.079-.528.144-.68l9.104-6.177-7.664 4.425c-.234.137-.535.059-.677-.172-.142-.232-.072-.534.156-.682l1.119-.72c-.184.023-.363-.069-.465-.233-.143-.229-.079-.529.145-.68l2.182-1.465-.25.144c-.229.133-.521.064-.667-.156s-.095-.517.116-.676l3.301-2.488c-.096-.041-.18-.112-.235-.209-.139-.239-.057-.545.183-.683l5.311-3.066c.227-.135.521-.064.667.156.146.221.095.517-.116.676l-1.987 1.498 5.921-3.418c.233-.137.531-.062.674.168.143.229.079.529-.145.68l-2.186 1.468 4.225-2.438c.236-.137.536-.059.677.172.142.232.072.534-.156.682l-.271.174 1.587-.916c.234-.136.53-.061.674.167.143.229.079.528-.144.68l-9.105 6.178 11.273-6.509c.234-.138.535-.061.677.172.142.231.072.534-.156.681l-6.488 4.184 7.741-4.469c.234-.137.532-.06.676.17.142.229.075.531-.15.68l-11.565 7.628 13.09-7.558c.236-.137.537-.06.678.175.141.232.069.536-.161.681l-5.71 3.597 6.459-3.729c.235-.138.535-.06.677.172s.072.534-.156.681l-11.445 7.37 12.431-7.177c.237-.137.537-.06.678.175.142.232.069.536-.161.681l-7.887 4.964 8.485-4.898c.236-.139.537-.059.679.175.141.234.067.538-.164.682l-5.939 3.705 6.361-3.673c.236-.138.538-.059.679.176.141.233.067.537-.164.682l-5.825 3.625 6.156-3.554c.237-.138.539-.059.679.176.141.234.066.538-.165.682l-4.269 2.643 4.487-2.59c.235-.137.534-.061.677.172.142.231.072.533-.155.681l-15.051 9.729 15.607-9.011c.237-.137.539-.059.679.175.141.233.067.536-.163.682l-8.965 5.622 9.125-5.268c.236-.139.537-.059.679.175.141.234.067.537-.164.682l-7.557 4.72 7.602-4.389c.235-.137.534-.061.677.172.142.23.072.533-.154.681l-15.091 9.782 15.248-8.803c.234-.137.534-.061.677.172.142.23.073.532-.154.681l-14.516 9.414 14.481-8.36c.237-.136.537-.059.678.174s.069.536-.16.682l-9.383 5.934 9.102-5.255c.237-.137.538-.058.679.175s.067.537-.163.682l-6.303 3.945 5.899-3.405c.236-.138.538-.059.679.175s.067.537-.164.682l-5.335 3.334 4.826-2.786c.237-.137.535-.059.678.173.141.232.07.535-.159.682l-10.26 6.548 9.593-5.538c.236-.139.537-.059.679.175.141.234.067.537-.164.682l-4.228 2.64 3.449-1.991c.236-.137.538-.058.679.175s.067.537-.163.682l-4.364 2.733 3.436-1.983c.234-.137.532-.06.676.17.142.23.075.531-.15.681l-10.689 7.041 9.123-5.267c.237-.137.536-.059.677.173.142.232.071.534-.157.681l-3.041 1.946 1.411-.814c.234-.137.533-.062.675.169.143.23.076.531-.148.681l-4.257 2.821 1.582-.913c.232-.136.528-.062.672.164.144.227.084.525-.136.679l-3.368 2.352.662-.382c.224-.131.511-.066.659.146.149.212.111.503-.087.67l-3.027 2.549 1.343-.775c.222-.129.508-.068.657.143.149.209.115.498-.079.667l-.624.543c.15.019.291.104.372.246.139.239.057.545-.183.683l-3.793 2.19c-.219.13-.507.07-.657-.143-.149-.209-.115-.498.079-.667l.228-.198-1.746 1.008c-.222.131-.511.067-.659-.146-.149-.212-.111-.503.087-.67l3.029-2.55-5.83 3.365c-.232.135-.528.062-.672-.164s-.084-.525.136-.679l3.366-2.351-5.531 3.193c-.235.136-.533.061-.675-.169-.143-.23-.076-.531.148-.681l4.259-2.822-6.361 3.672c-.079.046-.165.067-.25.067z" fill="#ffffff" fill-opacity="0" data-original-color="#f4c811ff" stroke="none" stroke-opacity="1"/><path d="m21.564 53.244c.425.776 1.084 1.091 1.819 1.22.831 2.194 1.614 5.057 4.505 4.882 3.95.551 7.838-.394 8.596-4.86 4.321-1.762 1.473-8.338 2.251-12.038 3.083-.839 2.249-7.131 7.087-10.837 8.861-11.081 1.607-28.861-12.366-30.893-15.185-3.007-28.527 14.096-21.188 27.948 1.233 2.889 3.725 4.834 5.425 7.379 1.445 2.043.608 5.822 3.571 6.429.235 3.544-.49 7.33.3 10.77zm15.704-3.613h-14.532v-3.298h14.528c.003 1.1-.006 2.199.004 3.298zm-3.054 7.148c-.618 2.62-3.519 1.742-5.51 1.874-2.365.119-2.981-2.313-3.679-4.098 3.36.011 6.711-.023 10.072.015-.294.736-.589 1.472-.883 2.208zm3.051-4.733c-.57 2.911-8.598.782-11.18 1.398-2.384.468-3.806-.551-3.35-3.076h14.543c.01.561.016 1.122-.013 1.677zm0-6.379h-14.528v-3.113h14.528zm-10.531-18.329c0-.309.01-.638.021-.974 2.237-1.023 4.292-.799 6.512.077v15.004h-6.533zm-7.921 7.717c-13.568-11.689-5.853-34.875 12.76-33.423 9.138.849 16.429 8.752 16.684 17.903 1.049 8.241-6.536 12.784-8.677 19.831.045 2.842-2.916 1.969-4.847 2.079 0-4.989 0-9.978 0-14.967 11.214-2.538-1.396-13.26-1.465-1.159-2.092-1.154-4.392-.988-6.486.043.114-12.313-12.925-.984-1.506 1.131-.025 4.984-.004 9.968-.011 14.952-5.939 1.011-4.092-2.767-6.454-6.39zm15.921-9.6c-.591-1.939 1.323-6.989 3.073-3.467.435 1.874-1.277 3.42-3.073 3.467zm-9.459-.041c-2.12-.022-4.395-2.99-2.436-4.604 2.235-.656 2.517 3.219 2.436 4.604z" fill="#262626" fill-opacity="1" data-original-color="#262626ff" stroke="none" stroke-opacity="1"/></g></svg>