<svg id="Icons" height="300" viewBox="0 0 60 60" width="300" xmlns="http://www.w3.org/2000/svg" version="1.1" xmlns:xlink="http://www.w3.org/1999/xlink" xmlns:svgjs="http://svgjs.dev/svgjs"><g width="100%" height="100%" transform="matrix(1,0,0,1,0,0)"><path d="m15.838 59.471a.5.5 0 0 1 -.26-.928l5.387-3.274-7.165 4.131a.5.5 0 0 1 -.512-.858l14.112-8.661-16.5 9.519a.5.5 0 0 1 -.514-.857l22.973-14.306-26.268 15.163a.5.5 0 0 1 -.513-.857l24-14.843-26.97 15.574a.5.5 0 0 1 -.51-.859l21.16-12.926-22.245 12.843a.5.5 0 0 1 -.51-.86l17.672-10.719-17.775 10.264a.5.5 0 0 1 -.511-.859l27.749-17.089-27.358 15.795a.5.5 0 0 1 -.51-.859l22.93-14-22.421 12.949a.5.5 0 0 1 -.507-.861l4.671-2.8-4.164 2.407a.5.5 0 0 1 -.507-.861l5.658-3.394-5.151 2.973a.5.5 0 0 1 -.508-.86l16.146-9.784-15.638 9.026a.5.5 0 0 1 -.511-.859l22.584-13.86-22.073 12.746a.5.5 0 0 1 -.512-.857l22.762-14.083-22.25 12.845a.5.5 0 0 1 -.509-.859l11.268-6.859-10.759 6.211a.5.5 0 0 1 -.512-.859l15.362-9.466-14.851 8.574a.5.5 0 0 1 -.514-.858l16.173-10.065-15.659 9.04a.5.5 0 0 1 -.513-.858l12.267-7.614-11.754 6.781a.5.5 0 0 1 -.51-.859l3.972-2.43-3.462 2a.5.5 0 0 1 -.517-.854l13.313-8.457-12.8 7.388a.5.5 0 0 1 -.522-.853l13.488-8.749-12.962 7.483a.5.5 0 0 1 -.519-.853l8.126-5.195-7.607 4.391a.5.5 0 0 1 -.528-.848l10.78-7.241-10.253 5.919a.5.5 0 0 1 -.521-.852l4.015-2.6-3.494 2.018a.5.5 0 0 1 -.528-.848l5.373-3.607-4.845 2.8a.5.5 0 0 1 -.522-.853l.38-.248a.5.5 0 0 1 -.391-.9l2.57-1.763-2.037 1.173a.5.5 0 0 1 -.544-.837l2.811-2.048-2.267 1.308a.5.5 0 0 1 -.57-.816l2.756-2.3-2.186 1.263a.5.5 0 0 1 -.627-.761l1.663-1.91-1.037.6a.5.5 0 0 1 -.657-.723l.79-1.11c-.01-.013-.018-.028-.027-.041a.5.5 0 0 1 .183-.687l.7-.405a.5.5 0 0 1 .657.723l-.16.225 1.647-.943a.5.5 0 0 1 .627.76l-1.663 1.908 4.627-2.668a.5.5 0 0 1 .57.816l-2.756 2.3 5.4-3.116a.5.5 0 0 1 .544.837l-2.821 2.048 5.006-2.885a.5.5 0 0 1 .534.844l-2.56 1.756 4.507-2.6a.5.5 0 0 1 .522.851l-.033.022 1.514-.873a.5.5 0 0 1 .528.847l-5.372 3.607 7.717-4.454a.5.5 0 0 1 .521.852l-4.007 2.594 5.971-3.447a.5.5 0 0 1 .528.847l-10.785 7.24 14.017-8.092a.5.5 0 0 1 .519.853l-8.12 5.191 10.472-6.045a.5.5 0 0 1 .522.852l-13.481 8.746 16.627-9.6a.5.5 0 0 1 .518.854l-13.323 8.463 16.137-9.316a.5.5 0 0 1 .511.859l-3.976 2.436 5.708-3.295a.5.5 0 0 1 .514.857l-12.267 7.614 14.676-8.472a.5.5 0 0 1 .515.857l-16.171 10.064 18.917-10.921a.5.5 0 0 1 .512.858l-15.349 9.458 17.871-10.317a.5.5 0 0 1 .51.859l-11.279 6.865 13.381-7.724a.5.5 0 0 1 .513.857l-22.756 14.078 25.872-14.936a.5.5 0 0 1 .512.858l-22.582 13.86 24.352-14.057a.5.5 0 0 1 .508.86l-16.17 9.8 16.69-9.635a.5.5 0 0 1 .507.862l-5.638 3.381 5.428-3.134a.5.5 0 0 1 .507.861l-4.671 2.8 4.164-2.4a.5.5 0 0 1 .51.859l-22.924 13.98 22.409-12.937a.5.5 0 0 1 .511.858l-27.761 17.095 27.25-15.732a.5.5 0 0 1 .509.86l-17.678 10.723 17.169-9.913a.5.5 0 0 1 .51.86l-21.153 12.922 20.643-11.92a.5.5 0 0 1 .512.857l-24.003 14.843 23.491-13.559a.5.5 0 0 1 .514.858l-22.973 14.309 22.46-12.966a.5.5 0 0 1 .511.858l-14.11 8.667 13.6-7.851a.5.5 0 0 1 .509.86l-5.359 3.259 4.85-2.8a.5.5 0 0 1 .51.859l-5.332 3.255 4.826-2.786a.5.5 0 0 1 .515.856l-14.678 9.211 14.158-8.173a.5.5 0 0 1 .512.858l-7.347 4.549 6.835-3.946a.5.5 0 0 1 .513.858l-6.284 3.9 5.771-3.331a.5.5 0 0 1 .518.855l-10.058 6.4 9.54-5.508a.5.5 0 0 1 .675.17.5.5 0 0 1 -.149.68l-12.114 8.028 11.588-6.69a.5.5 0 0 1 .532.845l-10.853 7.418 10.326-5.961a.5.5 0 0 1 .534.844l-8.03 5.544 7.491-4.323a.5.5 0 0 1 .542.838l-6.531 4.709 5.989-3.457a.5.5 0 0 1 .552.831l-4.767 3.625 4.215-2.433a.5.5 0 0 1 .561.823l-2.782 2.217 2.222-1.282a.5.5 0 0 1 .591.8l-1.743 1.626 1.124-.649a.5.5 0 0 1 .618.772l-.789.853a.505.505 0 0 1 .23.207.5.5 0 0 1 -.183.683l-1.924 1.111a.5.5 0 0 1 -.618-.771l.319-.345-2.073 1.2a.5.5 0 0 1 -.59-.8l1.741-1.625-4.2 2.423a.5.5 0 0 1 -.562-.823l2.784-2.222-5.272 3.042a.5.5 0 0 1 -.553-.831l4.767-3.624-7.718 4.455a.5.5 0 0 1 -.542-.838l6.533-4.71-9.612 5.548a.5.5 0 0 1 -.534-.843l8.024-5.545-11.066 6.388a.5.5 0 0 1 -.533-.845l10.851-7.412-14.306 8.257a.5.5 0 0 1 -.526-.849l12.118-8.023-15.368 8.872a.5.5 0 0 1 -.519-.854l10.062-6.406-12.576 7.26a.5.5 0 0 1 -.514-.857l6.289-3.907-8.252 4.764a.5.5 0 0 1 -.512-.857l7.343-4.543-9.363 5.4a.5.5 0 0 1 -.516-.856l14.664-9.206-17.428 10.062a.5.5 0 0 1 -.511-.859l5.329-3.25-7.118 4.109a.5.5 0 0 1 -.25.071z" fill="#ffffff" fill-opacity="1" data-original-color="#dbdfe2ff" stroke="none" stroke-opacity="1"/><path d="m1.956 17.5a.5.5 0 0 1 -.29-.907l6.909-4.929-7.295 4.211a.5.5 0 0 1 -.544-.837l5.27-3.838-4.727 2.733a.5.5 0 0 1 -.567-.819l4.41-3.631-3.843 2.217a.5.5 0 0 1 -.579-.807l2.147-1.879-1.568.9a.5.5 0 0 1 -.647-.736l1.118-1.458a.52.52 0 0 1 -.5-.245.5.5 0 0 1 .183-.683l1.928-1.116a.5.5 0 0 1 .648.736l-1.063 1.388 3.819-2.2a.5.5 0 0 1 .579.808l-2.144 1.877 4.654-2.685a.5.5 0 0 1 .567.818l-4.409 3.63 7.706-4.448a.5.5 0 0 1 .544.837l-5.27 3.834 8.091-4.671a.5.5 0 0 1 .54.84l-6.908 4.927 9.991-5.767a.5.5 0 0 1 .522.852l-.08.051 1.568-.9a.5.5 0 0 1 .67.161.5.5 0 0 1 -.128.678l-7.115 5.108 10.311-5.95a.5.5 0 0 1 .546.836l-7.006 5.017 10.138-5.853a.5.5 0 0 1 .542.839l-7.074 5.073 10.247-5.912a.5.5 0 0 1 .538.841l-6.547 4.619 9.462-5.46a.5.5 0 0 1 .53.846l-4.7 3.187 6.982-4.033a.5.5 0 0 1 .537.841l-6.306 4.42 9.115-5.261a.5.5 0 0 1 .542.838l-6.56 4.627 9.473-5.465a.5.5 0 0 1 .541.839l-7.01 5.023 10.156-5.862a.5.5 0 0 1 .525.849l-2.825 1.865 4.707-2.714a.5.5 0 0 1 .521.852l-.468.3 2-1.156a.5.5 0 0 1 .531.846l-4.581 3.1 6.145-3.542a.5.5 0 0 1 .534.845l-5 3.444 5.57-3.215a.5.5 0 0 1 .55.833l-5.936 4.444 5.848-3.376a.5.5 0 0 1 .541.839l-2.254 1.613 1.718-.991a.5.5 0 0 1 .663.151.5.5 0 0 1 -.1.673l-2.38 1.888 1.826-1.054a.5.5 0 0 1 .591.8l-1.561 1.457.976-.564a.5.5 0 0 1 .625.763l-.468.532a.5.5 0 0 1 .349.923l-2.433 1.4a.5.5 0 0 1 -.625-.762l.414-.47-2.137 1.233a.5.5 0 0 1 -.591-.8l1.563-1.458-3.911 2.257a.5.5 0 0 1 -.56-.824l2.381-1.889-4.7 2.715a.5.5 0 0 1 -.541-.839l2.251-1.611-4.247 2.451a.5.5 0 0 1 -.549-.833l5.935-4.443-9.147 5.279a.5.5 0 0 1 -.535-.845l5-3.443-7.43 4.29a.5.5 0 0 1 -.53-.847l4.585-3.1-6.844 3.951a.5.5 0 0 1 -.522-.852l.471-.3-2.007 1.158a.5.5 0 0 1 -.525-.85l2.814-1.873-4.7 2.715a.5.5 0 0 1 -.541-.839l7.011-5.024-10.161 5.867a.5.5 0 0 1 -.539-.841l6.559-4.63-9.478 5.472a.5.5 0 0 1 -.538-.842l6.306-4.42-9.117 5.264a.5.5 0 0 1 -.53-.847l4.7-3.183-6.984 4.032a.5.5 0 0 1 -.539-.841l6.546-4.619-9.46 5.462a.5.5 0 0 1 -.542-.839l7.071-5.075-10.25 5.916a.5.5 0 0 1 -.541-.839l7.01-5.021-10.151 5.861a.5.5 0 0 1 -.542-.839l7.114-5.113-10.313 5.954a.5.5 0 0 1 -.522-.853l.081-.053-1.571.908a.491.491 0 0 1 -.25.067z" fill="#ffffff" fill-opacity="1" data-original-color="#f16c51ff" stroke="none" stroke-opacity="1"/><path d="m10.675 11.471a.5.5 0 0 1 -.385-.82l.52-.627-1.687.976a.5.5 0 0 1 -.582-.807l.409-.363-.485.28a.5.5 0 0 1 -.6-.787l2.025-2.016-1.611.929a.5.5 0 0 1 -.592-.8l1.771-1.657-1.179.681a.5.5 0 0 1 -.625-.76l2.046-2.322-1.421.822a.5.5 0 0 1 -.658-.721l.7-.994a.5.5 0 0 1 -.249-.932l1.635-.944a.5.5 0 0 1 .658.722l-.609.861 2.099-1.212a.5.5 0 0 1 .625.764l-2.048 2.319 2.288-1.321a.5.5 0 0 1 .592.8l-1.773 1.658 1.182-.681a.5.5 0 0 1 .6.787l-2.021 2.012 1.421-.818a.5.5 0 0 1 .579.8l-.467.414a.5.5 0 0 1 .519.8l-.618.747a.49.49 0 0 1 .46.249.5.5 0 0 1 -.182.682l-2.087 1.208a.49.49 0 0 1 -.25.071z" fill="#ffffff" fill-opacity="1" data-original-color="#dbdfe2ff" stroke="none" stroke-opacity="1"/><path d="m23.417 11.471a.5.5 0 0 1 -.36-.847l.1-.105-.96.553a.5.5 0 0 1 -.6-.793l1.065-1.025-1.24.716a.5.5 0 0 1 -.61-.781l2.3-2.378-1.833 1.063a.5.5 0 0 1 -.574-.812l.8-.684-.225.13a.5.5 0 0 1 -.62-.769l2.005-2.2-1.385.8a.5.5 0 0 1 -.664-.712l.769-1.14a.507.507 0 0 1 -.491-.247.5.5 0 0 1 .182-.682l1.631-.949a.5.5 0 0 1 .664.712l-.717 1.064 2.286-1.32a.5.5 0 0 1 .621.769l-2 2.2 2.159-1.244a.5.5 0 0 1 .574.813l-.8.687.232-.133a.5.5 0 0 1 .609.781l-2.3 2.375 1.693-.977a.5.5 0 0 1 .6.793l-1.078 1.027.471-.271a.5.5 0 0 1 .61.779l-.419.435a.5.5 0 0 1 .15.922l-2.395 1.379a.49.49 0 0 1 -.25.071z" fill="#ffffff" fill-opacity="1" data-original-color="#dbdfe2ff" stroke="none" stroke-opacity="1"/><path d="m35.8 11.416a.5.5 0 0 1 -.4-.8l1.632-2.124-2.599 1.5a.5.5 0 0 1 -.607-.783l2.2-2.229-1.747 1.006a.5.5 0 0 1 -.58-.807l1.174-1.035-.594.342a.5.5 0 0 1 -.6-.788l1.613-1.592-1.012.584a.5.5 0 0 1 -.68-.69l.937-1.564a.5.5 0 0 1 -.463-.885l1.633-.942a.5.5 0 0 1 .679.69l-.936 1.561 2.718-1.569a.5.5 0 0 1 .6.788l-1.612 1.592 1.564-.9a.5.5 0 0 1 .58.807l-1.176 1.034.6-.343a.5.5 0 0 1 .606.783l-2.2 2.227 1.589-.917a.5.5 0 0 1 .646.738l-1.631 2.125.956-.552a.5.5 0 1 1 .5.865l-3.136 1.811a.489.489 0 0 1 -.254.067z" fill="#ffffff" fill-opacity="1" data-original-color="#dbdfe2ff" stroke="none" stroke-opacity="1"/><path d="m48.575 11.355a.5.5 0 0 1 -.346-.861l.411-.393-.9.518a.5.5 0 0 1 -.576-.811l.449-.387-.292.168a.5.5 0 0 1 -.59-.8l1.642-1.523-1.094.634a.5.5 0 0 1 -.6-.794l1.893-1.806-1.293.746a.5.5 0 0 1 -.606-.783l1.527-1.557-.919.53a.5.5 0 0 1 -.66-.718l.722-1.034a.531.531 0 0 1 -.448-.25.5.5 0 0 1 .182-.682l1.63-.943a.5.5 0 0 1 .618.091.5.5 0 0 1 .042.624l-.641.919 2.153-1.243a.5.5 0 0 1 .606.783l-1.525 1.557 1.7-.983a.5.5 0 0 1 .6.794l-1.893 1.811 1.354-.781a.5.5 0 0 1 .59.8l-1.642 1.519 1.052-.6a.5.5 0 0 1 .576.811l-.488.42a.5.5 0 0 1 .507.835l-.466.447a.5.5 0 0 1 .371.918l-3.4 1.961a.489.489 0 0 1 -.246.063z" fill="#ffffff" fill-opacity="1" data-original-color="#dbdfe2ff" stroke="none" stroke-opacity="1"/><g fill="#262626"><path d="m59.733 14.027a30.893 30.893 0 0 0 0-5.153c-.679-3.79-3.929-3.466-7-3.4v-2.546c0-.022-.013-.034-.015-.054s.014-.044.01-.068c-.4-2.97-5.441-3.169-6.336-.387a9.351 9.351 0 0 0 -.132 3.044h-6.536v-2.657c-.379-2.8-5.242-2.9-6.267-.451a8.559 8.559 0 0 0 -.183 3.173h-6.55v-2.722c-.382-2.827-5.244-2.949-6.269-.461a9.172 9.172 0 0 0 -.179 3.265v.085h-6.54v-2.751c0-.027-.015-.044-.019-.069a.326.326 0 0 0 .009-.069c-.4-3-5.456-3.272-6.345-.418a9.736 9.736 0 0 0 -.128 3.072c-2.441-.08-5.469-.336-6.666 2.227-.561 1.2-.32 2.874-.32 4.155v22.2c0 6.9-.219 13.835 0 20.731.144 4.551 3.041 4.746 6.875 4.746h37.492c4.013 0 14.119 2.151 15.1-3.594.814-4.768 0-10.388 0-15.207zm-12-11.066c.567-2.355 3.257-1.733 3.542.21v4.229a7.685 7.685 0 0 1 0 1.64 1.78 1.78 0 0 1 -3.508.076 10.78 10.78 0 0 1 -.1-3.082.447.447 0 0 0 .01-.154c.027-.446.052-.88.052-1.278a7.685 7.685 0 0 1 0-1.641zm-13.009-.122c.4-2.445 3.27-1.725 3.552.355v4.327a6.99 6.99 0 0 1 -.063 2.133c-.748 2.043-3.253.823-3.489-.848a16.47 16.47 0 0 1 -.039-2.968.223.223 0 0 0 0-.068c.019-.438.036-.872.036-1.291a10.689 10.689 0 0 1 .003-1.64zm-13 .1c.406-2.405 3.26-1.9 3.552.26v4.322a8.64 8.64 0 0 1 0 1.64c-.5 2.386-3.227 1.692-3.552-.355a26.344 26.344 0 0 1 0-3.963 12.166 12.166 0 0 1 0-1.909zm-12.99.091a1.779 1.779 0 0 1 3.532.127v3.862a10.23 10.23 0 0 1 0 1.909 1.779 1.779 0 0 1 -3.5.2c-.35-1.261-.032-3.043-.032-4.328a8.764 8.764 0 0 1 0-1.775zm-7 7.2c.455-3.117 2.7-3.633 5.518-3.692a16.615 16.615 0 0 0 .02 2.594c.372 2.929 5.1 3.4 6.248.725a8.817 8.817 0 0 0 .215-3.322v-.23h6.525a18.068 18.068 0 0 0 .017 2.889c.356 2.73 4.94 2.956 6.168.7.513-.942.294-2.379.282-3.421h6.529a16.57 16.57 0 0 0 .021 2.722c.353 2.7 4.938 2.91 6.166.69.506-.917.3-2.316.286-3.347h6.528a16.767 16.767 0 0 0 .017 2.6c.365 2.9 5.1 3.287 6.238.687a8.536 8.536 0 0 0 .219-3.292c2.6.031 5.011.347 5.537 3.479a40.359 40.359 0 0 1 0 6.486h-56.568a35.43 35.43 0 0 1 .033-6.275zm56.533 44.17c-.688 5.638-6.552 4.076-11.015 4.076h-31.378c-3.619 0-12.978 1.951-14.141-2.965-.976-4.128 0-9.641 0-13.861v-23.62c0-.172-.005-.348-.008-.523h56.542v19.493c0 5.652.684 11.788 0 17.4z" fill="#262626" fill-opacity="1" data-original-color="#262626ff" stroke="none" stroke-opacity="1"/><path d="m4.264 21.048v1c0 .786 1.472.594 1.472-.1v-1c0-.782-1.472-.59-1.472.1z" fill="#262626" fill-opacity="1" data-original-color="#262626ff" stroke="none" stroke-opacity="1"/><path d="m4.27 26.07v16c0 .7 1.46.435 1.46-.14v-16c0-.695-1.46-.43-1.46.14z" fill="#262626" fill-opacity="1" data-original-color="#262626ff" stroke="none" stroke-opacity="1"/><path d="m54.274 54.084v1c0 .631 1.452.338 1.452-.168v-1c0-.631-1.452-.338-1.452.168z" fill="#262626" fill-opacity="1" data-original-color="#262626ff" stroke="none" stroke-opacity="1"/><path d="m55.725 49.91v-16c0-.6-1.45-.3-1.45.18v16c0 .602 1.45.298 1.45-.18z" fill="#262626" fill-opacity="1" data-original-color="#262626ff" stroke="none" stroke-opacity="1"/><path d="m27.969 29.152c-2-3.346-6.406-2.587-9.694-2.587-.576 0-1.526.87-.55.87 1.386 0 2.819-.112 4.2 0 1.639.133 2.057-.718 4.095 1.483 2.631 2.841.933 7.233-3.143 7.654-.519.054-1.287.768-.367.863 3.035.314 6.583 4.006 4.109 7.092-.918 1.147-3.045 1.836-4.424 2.038a27.872 27.872 0 0 1 -3.92 0c-.576 0-1.526.87-.55.87 3.033 0 6.724.621 9.174-1.585 3.567-3.214 1.476-7.571-2.217-8.91 3.112-1.204 5.352-4.34 3.287-7.788z" fill="#262626" fill-opacity="1" data-original-color="#262626ff" stroke="none" stroke-opacity="1"/><path d="m41.267 46.532h-3.543v-19.726c0-.307-1.316.167-1.437.328l-3 4a1.958 1.958 0 0 0 1.426-.268l1.563-2.084v17.75h-3.009c-.619 0-1.51.936-.534.936h8c.619 0 1.51-.936.534-.936z" fill="#262626" fill-opacity="1" data-original-color="#262626ff" stroke="none" stroke-opacity="1"/></g></g></svg>