<svg id="Icons" height="300" viewBox="0 0 60 60" width="300" xmlns="http://www.w3.org/2000/svg" version="1.1" xmlns:xlink="http://www.w3.org/1999/xlink" xmlns:svgjs="http://svgjs.dev/svgjs"><g width="100%" height="100%" transform="matrix(1,0,0,1,0,0)"><path d="m53.3 8.154a.5.5 0 0 1 -.25-.932l3.686-2.128a.5.5 0 1 1 .5.865l-3.685 2.128a.494.494 0 0 1 -.251.067z" fill="#ffffff" fill-opacity="1" data-original-color="#5ca049ff" stroke="none" stroke-opacity="1"/><path d="m49.211 6.581a.5.5 0 0 1 -.25-.933l2.82-1.628a.5.5 0 1 1 .5.865l-2.82 1.629a.494.494 0 0 1 -.25.067z" fill="#ffffff" fill-opacity="1" data-original-color="#5ca049ff" stroke="none" stroke-opacity="1"/><path d="m43.558 8.175a.5.5 0 0 1 -.337-.869l.692-.634a.5.5 0 0 1 -.223-.144.5.5 0 0 1 -.028-.631l1.924-2.597a.49.49 0 0 1 -.088-.113.5.5 0 0 1 .183-.682l.956-.552a.5.5 0 0 1 .651.731l-1.388 1.873.937-.541a.5.5 0 0 1 .587.8l-.279.254a.516.516 0 0 1 .492.247.5.5 0 0 1 -.181.683l-3.648 2.107a.493.493 0 0 1 -.25.068z" fill="#ffffff" fill-opacity="1" data-original-color="#5ca049ff" stroke="none" stroke-opacity="1"/><path d="m39.129 10.133a.5.5 0 0 1 -.348-.86l.763-.739a.5.5 0 0 1 -.47-.779l1.012-1.478a.5.5 0 0 1 -.722-.586l.446-1.423a.5.5 0 0 1 -.046-.889l.563-.325a.5.5 0 0 1 .728.582l-.355 1.132.789-.455a.5.5 0 0 1 .663.714l-1.01 1.478 1.273-.734a.5.5 0 0 1 .649.13.5.5 0 0 1 -.051.662l-.637.617.551-.318a.5.5 0 0 1 .5.866l-4.048 2.337a.49.49 0 0 1 -.25.068z" fill="#ffffff" fill-opacity="1" data-original-color="#5ca049ff" stroke="none" stroke-opacity="1"/><path d="m33.729 7.531a.5.5 0 0 1 -.393-.809l1.28-1.62a.5.5 0 0 1 -.449-.694l.533-1.282a.524.524 0 0 1 -.153-.164.5.5 0 0 1 .183-.684l.575-.331a.5.5 0 0 1 .711.627l-.358.854.592-.341a.5.5 0 0 1 .643.742l-1.154 1.464 1.372-.793a.5.5 0 1 1 .5.865l-3.632 2.1a.494.494 0 0 1 -.25.066z" fill="#ffffff" fill-opacity="1" data-original-color="#5ca049ff" stroke="none" stroke-opacity="1"/><path d="m27.727 7.6a.5.5 0 0 1 -.355-.853l1.19-1.2a.5.5 0 0 1 -.535-.768l.887-1.3a.521.521 0 0 1 -.368-.118.5.5 0 0 1 -.146-.561l.348-.92a.49.49 0 0 1 -.169-.175.5.5 0 0 1 .182-.683l.551-.319a.5.5 0 0 1 .719.609l-.2.532.422-.244a.5.5 0 0 1 .663.715l-.826 1.208 1.16-.669a.5.5 0 0 1 .6.786l-1.132 1.15 1.262-.728a.5.5 0 1 1 .5.865l-4.5 2.6a.5.5 0 0 1 -.253.073z" fill="#ffffff" fill-opacity="1" data-original-color="#5ca049ff" stroke="none" stroke-opacity="1"/><path d="m21.263 9.322a.5.5 0 0 1 -.337-.87l.876-.8a.5.5 0 0 1 -.456-.83l1.339-1.462a.483.483 0 0 1 -.4-.185.5.5 0 0 1 .017-.65l1.198-1.334a.5.5 0 0 1 .184-.682l.974-.563a.5.5 0 0 1 .622.768l-.22.243a.486.486 0 0 1 .442.184.5.5 0 0 1 -.022.651l-1.204 1.315.958-.552a.5.5 0 0 1 .586.8l-.772.7.6-.343a.5.5 0 1 1 .5.865l-4.636 2.678a.488.488 0 0 1 -.249.067z" fill="#ffffff" fill-opacity="1" data-original-color="#5ca049ff" stroke="none" stroke-opacity="1"/><path d="m16.79 7.885a.5.5 0 0 1 -.392-.812l2.027-2.544a.509.509 0 0 1 -.108-.13.5.5 0 0 1 .183-.682l1.143-.659a.5.5 0 0 1 .641.744l-1.457 1.829 1.037-.6a.5.5 0 1 1 .5.865l-3.324 1.921a.5.5 0 0 1 -.25.068z" fill="#ffffff" fill-opacity="1" data-original-color="#5ca049ff" stroke="none" stroke-opacity="1"/><path d="m12.451 8.418a.5.5 0 0 1 -.368-.84l.688-.741a.507.507 0 0 1 -.445-.157.5.5 0 0 1 -.038-.626l.647-.912a.512.512 0 0 1 -.354-.107.5.5 0 0 1 -.168-.537l.4-1.324a.5.5 0 0 1 -.05-.892l.561-.324a.5.5 0 0 1 .729.578l-.317 1.041.614-.354a.5.5 0 0 1 .658.721l-.582.821.633-.366a.5.5 0 0 1 .617.773l-.609.656.522-.3a.5.5 0 1 1 .5.866l-3.389 1.957a.5.5 0 0 1 -.249.067z" fill="#ffffff" fill-opacity="1" data-original-color="#5ca049ff" stroke="none" stroke-opacity="1"/><path d="m7.469 8.561a.5.5 0 0 1 -.383-.823l.629-.746a.653.653 0 0 1 -.325-.115.5.5 0 0 1 -.152-.552l.382-1.076a.5.5 0 0 1 -.025-.88l.584-.337a.5.5 0 0 1 .721.6l-.266.749.93-.537a.5.5 0 0 1 .636.756l-.508.6.891-.513a.5.5 0 1 1 .5.865l-3.364 1.941a.493.493 0 0 1 -.25.068z" fill="#ffffff" fill-opacity="1" data-original-color="#5ca049ff" stroke="none" stroke-opacity="1"/><path d="m3.686 12.486a.5.5 0 0 1 -.386-.816l1.576-1.93-2.276 1.312a.5.5 0 0 1 -.612-.779l1.089-1.133-.516.3a.5.5 0 0 1 -.631-.757l.67-.79a.5.5 0 0 1 -.426-.693l.352-.841a.481.481 0 0 1 -.166-.172.5.5 0 0 1 .182-.687l.6-.346a.5.5 0 0 1 .712.626l-.183.435.772-.446a.5.5 0 0 1 .631.757l-.506.595 1.042-.6a.5.5 0 0 1 .611.779l-1.088 1.138 1.612-.931a.5.5 0 0 1 .637.749l-1.582 1.93 5.772-3.332a.5.5 0 0 1 .622.766l-2.12 2.361 5.905-3.409a.5.5 0 0 1 .559.826l-.818.643 4.209-2.43a.5.5 0 0 1 .552.831l-1.463 1.112 1.116-.644a.5.5 0 0 1 .566.82l-.87.71.541-.312a.5.5 0 0 1 .656.725l-1.1 1.536 6.2-3.577a.5.5 0 0 1 .611.778l-2.119 2.21 7.92-4.573a.5.5 0 0 1 .584.8l-3.465 3.1 3.542-2.027a.5.5 0 0 1 .587.8l-1.482 1.348 5.5-3.174a.5.5 0 0 1 .595.794l-2.717 2.6 2.693-1.555a.5.5 0 0 1 .61.779l-1.049 1.093.743-.429a.5.5 0 0 1 .75.428l.013 1.33 7.721-4.457a.5.5 0 0 1 .606.784l-2.219 2.247 6.477-3.739a.5.5 0 0 1 .6.79l-2.883 2.824 7.205-4.163a.5.5 0 0 1 .575.813l-3.053 2.615 2.692-1.554a.5.5 0 0 1 .586.8l-1.242 1.126.952-.549a.5.5 0 0 1 .7.653l-.787 1.608a.5.5 0 0 1 .154.923l-.976.563a.5.5 0 0 1 -.7-.652l.689-1.409-3.575 2.063a.5.5 0 0 1 -.586-.8l1.242-1.128-3.345 1.928a.5.5 0 0 1 -.575-.812l3.053-2.611-5.933 3.425a.5.5 0 0 1 -.6-.79l2.879-2.821-6.263 3.616a.5.5 0 0 1 -.606-.784l2.218-2.246-5.249 3.031a.5.5 0 0 1 -.75-.428l-.014-1.33-3.047 1.759a.5.5 0 0 1 -.611-.779l1.048-1.092-3.241 1.872a.5.5 0 0 1 -.6-.794l2.718-2.6-5.881 3.394a.5.5 0 0 1 -.587-.8l1.479-1.351-3.732 2.154a.5.5 0 0 1 -.584-.805l3.464-3.1-6.762 3.905a.5.5 0 0 1 -.612-.778l2.112-2.213-5.183 2.992a.5.5 0 0 1 -.657-.725l1.1-1.536-3.919 2.263a.5.5 0 0 1 -.566-.82l.874-.712-2.649 1.532a.5.5 0 0 1 -.553-.831l1.467-1.111-3.367 1.943a.5.5 0 0 1 -.559-.826l.817-.641-2.548 1.468a.5.5 0 0 1 -.622-.767l2.12-2.361-5.42 3.129a.488.488 0 0 1 -.249.067z" fill="#ffffff" fill-opacity="1" data-original-color="#5ca049ff" stroke="none" stroke-opacity="1"/><path d="m17.3 11.5a.5.5 0 0 1 -.4-.8l1.549-2.06-1.859 1.069a.5.5 0 0 1 -.608-.782l1.232-1.262-.147.085a.5.5 0 0 1 -.64-.75l1.992-2.476a.5.5 0 0 1 .081-.807l1.144-.66a.5.5 0 0 1 .64.746l-1.4 1.74.975-.564a.5.5 0 0 1 .608.783l-1.234 1.266.839-.483a.5.5 0 0 1 .65.733l-1.549 2.061 1.3-.75a.5.5 0 0 1 .689.672l-.251.461a.5.5 0 0 1 .315.928l-1.32.762a.5.5 0 0 1 -.689-.672l.217-.4-1.882 1.086a.491.491 0 0 1 -.252.074z" fill="#ffffff" fill-opacity="1" data-original-color="#64af4bff" stroke="none" stroke-opacity="1"/><path d="m26.768 11.5a.5.5 0 0 1 -.322-.883l1.739-1.46-1.643.948a.5.5 0 0 1 -.58-.808l2.165-1.91-.12.069a.5.5 0 0 1 -.633-.753l1.643-1.966-.158.091a.5.5 0 0 1 -.645-.74l.532-.682a.5.5 0 0 1 -.333-.662l.331-.859a.511.511 0 0 1 -.164-.172.5.5 0 0 1 .183-.683l.553-.319a.5.5 0 0 1 .575.053.5.5 0 0 1 .141.559l-.177.46.367-.212a.5.5 0 0 1 .645.741l-.289.37.383-.221a.5.5 0 0 1 .634.753l-1.644 1.963 2.007-1.158a.5.5 0 0 1 .581.807l-2.164 1.908 2.249-1.3a.5.5 0 0 1 .571.815l-1.738 1.46 1.64-.946a.5.5 0 0 1 .641.744l-1.372 1.727 1.179-.679a.5.5 0 0 1 .735.554l-.243.966a.5.5 0 0 1 .2.931l-.691.4a.5.5 0 0 1 -.735-.554l.211-.84-2.435 1.405a.5.5 0 0 1 -.641-.744l1.371-1.725-4.3 2.483a.491.491 0 0 1 -.249.069z" fill="#ffffff" fill-opacity="1" data-original-color="#64af4bff" stroke="none" stroke-opacity="1"/><path d="m7.37 11.5a.5.5 0 0 1 -.326-.88l.319-.272-.069.039a.5.5 0 0 1 -.642-.743l1.722-2.175-.534.307a.5.5 0 0 1 -.635-.752l.408-.492a.489.489 0 0 1 -.186-.1.5.5 0 0 1 -.129-.57l.271-.641a.488.488 0 0 1 -.156-.166.5.5 0 0 1 .187-.686l.585-.338a.5.5 0 0 1 .71.627l-.095.218.437-.252a.5.5 0 0 1 .635.752l-.117.142.389-.225a.5.5 0 0 1 .642.743l-1.723 2.174 2.466-1.424a.5.5 0 0 1 .571.814l-.317.272.295-.17a.5.5 0 0 1 .684.681l-.712 1.243.846-.488a.5.5 0 0 1 .739.33l.166.786a.526.526 0 0 1 .452.25.5.5 0 0 1 -.182.683l-.38.219a.5.5 0 0 1 -.739-.33l-.154-.727-1.848 1.068a.5.5 0 0 1 -.684-.681l.712-1.243-3.358 1.938a.494.494 0 0 1 -.25.069z" fill="#ffffff" fill-opacity="1" data-original-color="#64af4bff" stroke="none" stroke-opacity="1"/><path d="m42 11.478a.5.5 0 0 1 -.455-.708l.755-1.657-3.017 1.742a.5.5 0 0 1 -.629-.759l1.7-1.972-.625.36a.5.5 0 0 1 -.618-.093.5.5 0 0 1 -.043-.624l1-1.445a.5.5 0 0 1 -.717-.587l.453-1.464a.5.5 0 0 1 -.048-.89l.564-.326a.5.5 0 0 1 .728.58l-.365 1.177.82-.473a.5.5 0 0 1 .618.094.5.5 0 0 1 .043.624l-1 1.446 1.256-.723a.5.5 0 0 1 .629.76l-1.7 1.971 1.811-1.046a.5.5 0 0 1 .7.64l-.827 1.808a.5.5 0 0 1 .2.93l-.983.567a.5.5 0 0 1 -.25.068z" fill="#ffffff" fill-opacity="1" data-original-color="#64af4bff" stroke="none" stroke-opacity="1"/><path d="m49.667 11.49a.5.5 0 0 1 -.383-.821l.977-1.169-1.988 1.15a.5.5 0 0 1 -.61-.778l1.766-1.842-1.477.853a.5.5 0 0 1 -.589-.8l1.664-1.537a.5.5 0 0 1 -.066-.9l2.82-1.628a.5.5 0 0 1 .589.8l-1.033.955.638-.368a.5.5 0 0 1 .61.779l-1.766 1.842 1.394-.8a.5.5 0 0 1 .633.754l-.978 1.167.652-.376a.5.5 0 0 1 .744.508l-.144.928a.5.5 0 0 1 .121.917l-.5.286a.5.5 0 0 1 -.741-.51l.115-.742-2.2 1.269a.489.489 0 0 1 -.248.063z" fill="#ffffff" fill-opacity="1" data-original-color="#64af4bff" stroke="none" stroke-opacity="1"/><path d="m7.025 59.47a.5.5 0 0 1 -.257-.929l2.932-1.764-4.545 2.623a.5.5 0 0 1 -.508-.86l9.977-6.021-11.824 6.826a.5.5 0 0 1 -.51-.861l17.3-10.5-18.046 10.422a.5.5 0 0 1 -.507-.861l10-6.019-9.757 5.636a.5.5 0 0 1 -.511-.862l24.851-15.219-24.34 14.052a.5.5 0 0 1 -.508-.862l9.188-5.525-8.68 5.011a.5.5 0 0 1 -.507-.857l1.717-1.033-1.21.7a.5.5 0 0 1 -.508-.867l4.848-2.91-4.341 2.51a.5.5 0 0 1 -.507-.861l1.91-1.148-1.4.81a.5.5 0 0 1 -.508-.861l5.187-3.14-4.682 2.7a.5.5 0 0 1 -.515-.857l22.25-13.967-21.735 12.555a.5.5 0 0 1 -.515-.856l16.974-10.589-16.459 9.5a.5.5 0 0 1 -.509-.86l.43-.256a.5.5 0 0 1 -.426-.9l.651-.4-.141.081a.5.5 0 0 1 -.526-.851l16.559-10.663-16.039 9.263a.5.5 0 0 1 -.52-.853l12.39-7.947-11.87 6.853a.5.5 0 0 1 -.518-.853l8.413-5.363-7.895 4.556a.5.5 0 0 1 -.529-.848l11.674-7.863-11.145 6.434a.5.5 0 0 1 -.532-.845l9.074-6.2-8.542 4.935a.5.5 0 0 1 -.534-.845l6.421-4.422-5.888 3.4a.5.5 0 0 1 -.526-.85l.957-.633-.431.248a.5.5 0 0 1 -.554-.829l4.977-3.823-4.423 2.548a.5.5 0 0 1 -.559-.825l2.614-2.063-2.055 1.188a.5.5 0 0 1 -.625-.764l2.07-2.346-1.445.834a.5.5 0 0 1 -.673-.7l.85-1.345a.485.485 0 0 1 -.072-.095.5.5 0 0 1 .184-.684l.7-.4a.5.5 0 0 1 .672.7l-.41.649 2.343-1.349a.5.5 0 0 1 .637.116.5.5 0 0 1 -.012.647l-2.071 2.343 5.389-3.106a.5.5 0 0 1 .56.825l-2.612 2.057 5-2.887a.5.5 0 0 1 .555.829l-4.974 3.823 8.057-4.653a.5.5 0 0 1 .526.849l-.95.629 2.563-1.479a.5.5 0 0 1 .534.845l-6.418 4.422 9.126-5.268a.5.5 0 0 1 .532.846l-9.074 6.2 12.2-7.043a.5.5 0 0 1 .53.847l-11.669 7.858 15.082-8.71a.5.5 0 0 1 .519.854l-8.422 5.369 10.782-6.224a.5.5 0 0 1 .519.853l-12.392 7.946 15.243-8.8a.5.5 0 0 1 .52.852l-16.551 10.66 19.944-11.513a.5.5 0 0 1 .51.859l-.645.393 2.171-1.253a.5.5 0 0 1 .509.86l-.089.054 1.584-.914a.5.5 0 0 1 .515.856l-16.975 10.591 19.83-11.449a.5.5 0 0 1 .516.856l-22.25 13.966 25.68-14.823a.5.5 0 0 1 .508.86l-5.2 3.139 6.93-4a.5.5 0 0 1 .508.861l-1.938 1.157 3.5-2.022a.5.5 0 0 1 .508.861l-4.828 2.9 6.52-3.765a.5.5 0 0 1 .507.861l-1.725 1.043 2.7-1.56a.5.5 0 0 1 .507.861l-9.168 5.514 9.2-5.309a.5.5 0 0 1 .51.86l-24.845 15.219 24.626-14.218a.5.5 0 0 1 .508.861l-10.023 6.029 9.515-5.493a.5.5 0 0 1 .509.861l-17.3 10.5 16.791-9.696a.5.5 0 0 1 .509.861l-9.983 6.024 9.474-5.469a.5.5 0 0 1 .508.862l-2.928 1.76 2.423-1.4a.5.5 0 0 1 .514.856l-23.737 14.836 23.22-13.406a.5.5 0 0 1 .512.858l-16.371 10.116 15.859-9.156a.5.5 0 0 1 .511.86l-9.688 5.936 9.177-5.3a.5.5 0 0 1 .512.859l-10.132 6.246 9.62-5.55a.5.5 0 0 1 .516.856l-14.552 9.176 14.036-8.1a.5.5 0 0 1 .521.852l-15.665 10.126 15.144-8.743a.5.5 0 0 1 .521.853l-11.902 7.68 11.381-6.57a.5.5 0 0 1 .519.855l-7.3 4.66 6.781-3.914a.5.5 0 0 1 .52.852l-6.206 4 5.686-3.283a.5.5 0 0 1 .519.854l-2.539 1.622 2.023-1.167a.5.5 0 0 1 .52.852l-1.635 1.053 1.115-.643a.5.5 0 0 1 .541.84l-6.964 4.977 6.422-3.707a.5.5 0 0 1 .555.828l-5.6 4.34 5.048-2.914a.5.5 0 0 1 .537.841l-.378.265a.511.511 0 0 1 .508.216.5.5 0 0 1 -.116.676l-.716.54.165-.095a.5.5 0 0 1 .585.8l-1.1.993.515-.3a.5.5 0 0 1 .653.727l-.663.907a.5.5 0 0 1 .223.931l-1.659.957a.5.5 0 0 1 -.653-.727l.543-.742-2.555 1.476a.5.5 0 0 1 -.585-.8l1.1-.993-3.111 1.8a.5.5 0 0 1 -.551-.832l.717-.541-2.384 1.366a.5.5 0 0 1 -.537-.841l.109-.078-1.592.919a.5.5 0 0 1 -.556-.828l5.6-4.34-8.944 5.168a.5.5 0 0 1 -.541-.839l6.961-4.975-10.073 5.814a.5.5 0 0 1 -.521-.852l1.631-1.048-3.3 1.9a.5.5 0 0 1 -.519-.853l2.541-1.625-4.29 2.478a.5.5 0 0 1 -.521-.852l6.21-4-8.408 4.852a.5.5 0 0 1 -.52-.854l7.3-4.661-9.553 5.515a.5.5 0 0 1 -.521-.852l11.9-7.677-14.773 8.529a.5.5 0 0 1 -.522-.852l15.67-10.132-19.026 10.984a.5.5 0 0 1 -.517-.855l14.549-9.175-17.374 10.03a.5.5 0 0 1 -.512-.858l10.135-6.242-12.311 7.1a.5.5 0 0 1 -.512-.859l9.677-5.929-11.759 6.788a.5.5 0 0 1 -.513-.858l16.379-10.12-19.017 10.978a.5.5 0 0 1 -.515-.856l23.733-14.829-27.173 15.685a.5.5 0 0 1 -.25.07z" fill="#ffffff" fill-opacity="1" data-original-color="#7f4733ff" stroke="none" stroke-opacity="1"/><path d="m1.883 22.5a.5.5 0 0 1 -.314-.89l4.876-3.931-5.167 2.982a.5.5 0 0 1 -.549-.834l1.4-1.041-.854.493a.5.5 0 0 1 -.621-.767l2.224-2.459-1.606.926a.5.5 0 0 1 -.68-.687l.645-1.092a.5.5 0 0 1 -.157-.924l1.183-.676a.5.5 0 0 1 .68.687l-.518.875 2.708-1.562a.5.5 0 0 1 .621.767l-2.225 2.46 5.593-3.227a.5.5 0 0 1 .548.834l-1.4 1.037 3.247-1.871a.5.5 0 0 1 .662.149.5.5 0 0 1 -.1.673l-4.872 3.927 8.233-4.749a.5.5 0 0 1 .546.836l-3.427 2.507 5.791-3.343a.5.5 0 0 1 .557.827l-4.525 3.522 7.537-4.35a.5.5 0 0 1 .553.831l-4.2 3.191 6.968-4.022a.5.5 0 0 1 .533.844l-.955.655 2.6-1.5a.5.5 0 0 1 .561.823l-4.764 3.8 8-4.621a.5.5 0 0 1 .539.841l-2.454 1.733 4.471-2.581a.5.5 0 0 1 .535.844l-1.31.9 3.029-1.749a.5.5 0 0 1 .549.833l-3.84 2.869 6.407-3.7a.5.5 0 0 1 .546.836l-3.443 2.521 5.817-3.358a.5.5 0 0 1 .55.832l-3.985 2.995 6.629-3.827a.5.5 0 0 1 .557.828l-4.451 3.447 7.408-4.276a.5.5 0 0 1 .563.822l-4.85 3.906 8.192-4.728a.5.5 0 0 1 .555.828l-4.384 3.384 7.293-4.21a.5.5 0 0 1 .565.82l-4.917 4 6.83-3.943a.5.5 0 0 1 .559.826l-3.475 2.729 3.033-1.751a.5.5 0 0 1 .565.821l-1.6 1.3 1.045-.6a.5.5 0 0 1 .635.752l-1.327 1.6.7-.405a.5.5 0 0 1 .733.565l-.254.928a.508.508 0 0 1 .211.2.5.5 0 0 1 -.182.683l-.5.289a.5.5 0 0 1 -.556-.036.5.5 0 0 1 -.177-.528l.17-.625-2.07 1.185a.5.5 0 0 1 -.635-.752l1.326-1.6-4.075 2.352a.5.5 0 0 1 -.565-.82l1.606-1.306-3.683 2.133a.5.5 0 0 1 -.559-.826l3.478-2.729-6.162 3.557a.5.5 0 0 1 -.565-.82l4.919-4-8.355 4.822a.5.5 0 0 1 -.555-.828l4.384-3.383-7.3 4.211a.5.5 0 0 1 -.564-.822l4.848-3.905-8.192 4.729a.5.5 0 0 1 -.556-.828l4.45-3.447-7.409 4.277a.5.5 0 0 1 -.551-.832l3.987-3-6.628 3.835a.5.5 0 0 1 -.545-.836l3.443-2.521-5.82 3.359a.5.5 0 0 1 -.549-.833l3.84-2.863-6.406 3.7a.5.5 0 0 1 -.534-.844l1.315-.908-3.036 1.753a.5.5 0 0 1 -.54-.841l2.456-1.739-4.472 2.581a.5.5 0 0 1 -.561-.823l4.764-3.8-8.007 4.622a.5.5 0 0 1 -.533-.845l.954-.653-2.6 1.5a.5.5 0 0 1 -.553-.831l4.2-3.19-6.97 4.023a.5.5 0 0 1 -.557-.827l4.525-3.524-7.54 4.353a.5.5 0 0 1 -.544-.831l3.424-2.5-5.79 3.343a.494.494 0 0 1 -.251.057z" fill="#ffffff" fill-opacity="1" data-original-color="#663729ff" stroke="none" stroke-opacity="1"/><path d="m2.5 15.5a.5.5 0 0 1 -.3-.9l.227-.172-1.147.662a.5.5 0 0 1 -.59-.8l1.719-1.59-1.129.652a.5.5 0 0 1 -.711-.627l.65-1.544a.5.5 0 0 1 -.386-.914l1.167-.667a.5.5 0 0 1 .581.057.5.5 0 0 1 .13.57l-.64 1.52 3.717-2.147a.5.5 0 0 1 .589.8l-1.718 1.585 4.141-2.385a.5.5 0 0 1 .552.831l-.225.171 1.736-1a.5.5 0 0 1 .552.832l-.106.079 1.574-.913a.5.5 0 0 1 .578.81l-1.788 1.55 4.093-2.36a.5.5 0 0 1 .556.828l-.566.437 2.194-1.265a.5.5 0 0 1 .553.83l-.337.258 1.885-1.088a.5.5 0 0 1 .564.821l-1.15.928 3.035-1.749a.5.5 0 0 1 .611.778l-2.328 2.433 5.559-3.211a.5.5 0 0 1 .551.832l-.024.018 1.473-.85a.5.5 0 0 1 .567.819l-1.309 1.073 3.279-1.892a.5.5 0 0 1 .612.776l-2.33 2.457 5.6-3.233a.5.5 0 0 1 .591.8l-2.094 1.947 4.756-2.747a.5.5 0 0 1 .577.81l-1.755 1.52 4.037-2.33a.5.5 0 0 1 .607.782l-2.3 2.357 5.44-3.139a.5.5 0 0 1 .576.811l-1.717 1.479 3.968-2.29a.5.5 0 0 1 .571.816l-1.482 1.237 3.564-2.053a.5.5 0 0 1 .56.824l-.933.741 2.708-1.565a.5.5 0 0 1 .664.151.5.5 0 0 1 -.1.674l-.883.7 2.635-1.525a.494.494 0 0 1 .647.13.5.5 0 0 1 -.045.658l-2.238 2.212 5.036-2.907a.5.5 0 0 1 .591.8l-2 1.866 1.981-1.143a.5.5 0 0 1 .612.777l-.781.821.18-.1a.5.5 0 0 1 .554.035.5.5 0 0 1 .18.526l-.257.968a.5.5 0 0 1 .035.884l-.5.288a.5.5 0 0 1 -.733-.56l.178-.674-2.136 1.219a.5.5 0 0 1 -.613-.777l.782-.82-2.771 1.6a.5.5 0 0 1 -.591-.8l2-1.866-4.618 2.666a.5.5 0 0 1 -.6-.788l2.237-2.208-5.194 3a.5.5 0 0 1 -.561-.825l.883-.7-2.644 1.528a.5.5 0 0 1 -.56-.824l.935-.743-2.718 1.568a.5.5 0 0 1 -.57-.816l1.48-1.236-3.559 2.054a.5.5 0 0 1 -.573-.813l1.718-1.481-3.972 2.293a.5.5 0 0 1 -.607-.782l2.3-2.357-5.441 3.141a.5.5 0 0 1 -.577-.811l1.755-1.519-4.04 2.332a.5.5 0 0 1 -.591-.8l2.094-1.945-4.763 2.749a.5.5 0 0 1 -.613-.776l2.331-2.457-5.6 3.235a.5.5 0 0 1 -.567-.819l1.312-1.076-3.284 1.9a.5.5 0 0 1 -.551-.832l.025-.019-1.476.852a.5.5 0 0 1 -.611-.778l2.328-2.433-5.57 3.209a.5.5 0 0 1 -.564-.822l1.15-.928-3.033 1.751a.5.5 0 0 1 -.554-.83l.337-.257-1.887 1.088a.5.5 0 0 1 -.556-.828l.562-.436-2.191 1.266a.5.5 0 0 1 -.578-.811l1.789-1.553-4.1 2.365a.5.5 0 0 1 -.551-.832l.106-.079-1.582.912a.488.488 0 0 1 -.248.068z" fill="#ffffff" fill-opacity="1" data-original-color="#74c15bff" stroke="none" stroke-opacity="1"/><path d="m50.97 45.6a.5.5 0 0 1 -.382-.823l.135-.16-.84.485a.5.5 0 1 1 -.5-.866l3.317-1.917a.5.5 0 0 1 .632.755l-.485.576a.5.5 0 0 1 .071.9l-1.7.978a.49.49 0 0 1 -.248.072z" fill="#ffffff" fill-opacity="1" data-original-color="#ffca95ff" stroke="none" stroke-opacity="1"/><path d="m41.462 54.383a.5.5 0 0 1 -.43-.756l1.062-1.778-1.782 1.028a.5.5 0 0 1 -.563-.823l1.977-1.581-1.967 1.134a.5.5 0 0 1 -.54-.839l4.587-3.268-5.872 3.39a.5.5 0 0 1 -.527-.85l.463-.306-.492.284a.5.5 0 0 1 -.657-.723l.646-.91a.494.494 0 0 1 -.465-.249.5.5 0 0 1 .183-.683l1.7-.978a.5.5 0 0 1 .658.722l-.58.803 12.608-7.279a.5.5 0 0 1 .526.849l-.469.311.809-.467a.5.5 0 0 1 .54.84l-5.6 3.992a.5.5 0 0 1 .223.883l-3.673 2.939.036.033a.5.5 0 0 1 .074.607l-1.062 1.778.911-.525a.5.5 0 1 1 .5.865l-2.575 1.486a.49.49 0 0 1 -.249.071z" fill="#ffffff" fill-opacity="1" data-original-color="#ffca95ff" stroke="none" stroke-opacity="1"/><path d="m41.263 47.317a.5.5 0 0 1 -.295-.9l3.195-2.334a.47.47 0 0 1 -.143-.124.5.5 0 0 1 .033-.655l2.453-2.552-.312.18a.5.5 0 0 1 -.641-.743l.547-.689a.5.5 0 0 1 -.141-.921l1.69-.975a.494.494 0 0 1 .629.106.5.5 0 0 1 .013.637l-.321.405 1.094-.632a.5.5 0 0 1 .611.779l-2.453 2.552 2.627-1.516a.5.5 0 0 1 .545.836l-1.31.956 1.966-1.134a.5.5 0 0 1 .5.865l-10.037 5.792a.491.491 0 0 1 -.25.067z" fill="#ffffff" fill-opacity="1" data-original-color="#ffca95ff" stroke="none" stroke-opacity="1"/><path d="m17.714 51.47a.5.5 0 0 1 -.355-.853l1.359-1.367-3.535 2.04a.5.5 0 0 1 -.6-.793l1.726-1.655-3 1.728a.5.5 0 0 1 -.609-.77l2.318-2.469-3.4 1.964a.5.5 0 0 1 -.571-.816l1.2-1.006-1.687.973a.5.5 0 0 1 -.565-.82l.851-.691-1.145.66a.5.5 0 0 1 -.628-.76l1.564-1.8-1.36.785a.5.5 0 0 1 -.722-.6l.358-1.025a.5.5 0 0 1 -.1-.911l.69-.4a.5.5 0 0 1 .723.6l-.279.794 2.77-1.6a.5.5 0 0 1 .628.76l-1.563 1.8 4.009-2.314a.5.5 0 0 1 .565.82l-.847.689 1.234-.712a.5.5 0 0 1 .571.816l-1.2 1.006 1.344-.775a.5.5 0 0 1 .614.774l-2.318 2.47 3.638-2.1a.5.5 0 0 1 .6.793l-1.734 1.655 3.208-1.851a.5.5 0 0 1 .605.785l-1.359 1.367 2.741-1.582a.5.5 0 0 1 .614.775l-.928.988 2.22-1.281a.5.5 0 0 1 .618.093.5.5 0 0 1 .044.623l-.793 1.152 3.172-1.829a.5.5 0 0 1 .614.775l-.441.47 1.136-.656a.5.5 0 1 1 .5.865l-4.071 2.346a.5.5 0 0 1 -.642-.122.5.5 0 0 1 .027-.653l.442-.47-2.157 1.245a.5.5 0 0 1 -.662-.716l.794-1.152-3.24 1.868a.5.5 0 0 1 -.614-.775l.928-.987-3.051 1.762a.489.489 0 0 1 -.249.07z" fill="#ffffff" fill-opacity="1" data-original-color="#eaa663ff" stroke="none" stroke-opacity="1"/><path d="m9.979 43.968a.5.5 0 0 1 -.29-.907l5.941-4.221-7.075 4.085a.5.5 0 0 1 -.53-.847l2.575-1.737-2.32 1.338a.5.5 0 0 1 -.548-.835l6.074-4.491-5.526 3.19a.5.5 0 0 1 -.556-.828l4.588-3.549-4.032 2.327a.5.5 0 0 1 -.578-.81l2.874-2.492-2.17 1.252a.5.5 0 0 1 -.587-.8l.978-.893a.484.484 0 0 1 -.193-.188.5.5 0 0 1 .183-.683l2.677-1.546a.5.5 0 0 1 .587.8l-.152.138 2.7-1.559a.5.5 0 0 1 .578.81l-2.872 2.491 5.92-3.413a.5.5 0 0 1 .556.828l-4.581 3.546 6.757-3.9a.5.5 0 0 1 .547.835l-6.083 4.491 7-4.042a.5.5 0 0 1 .53.847l-2.566 1.735 3.948-2.279a.5.5 0 0 1 .54.84l-5.942 4.221 8.2-4.736a.5.5 0 0 1 .553.83l-6.1 4.646 8.159-4.71a.5.5 0 0 1 .55.833l-3.871 2.9 4.538-2.619a.5.5 0 0 1 .555.829l-2.7 2.077 2.767-1.6a.5.5 0 0 1 .568.818l-1.877 1.549 1.441-.831a.5.5 0 0 1 .591.8l-.883.821.292-.169a.5.5 0 0 1 .648.736l-.4.531a.434.434 0 0 1 .438.25.5.5 0 0 1 -.182.682l-1.807 1.041a.5.5 0 0 1 -.648-.735l.3-.4-1.963 1.135a.5.5 0 0 1 -.59-.8l.883-.822-2.807 1.622a.5.5 0 0 1 -.568-.818l1.88-1.552-4.106 2.37a.5.5 0 0 1 -.555-.829l2.7-2.074-5.281 3.048a.5.5 0 0 1 -.549-.833l3.868-2.9-7.677 4.433a.5.5 0 0 1 -.553-.83l6.1-4.648-10.616 6.133a.5.5 0 0 1 -.25.068z" fill="#ffffff" fill-opacity="1" data-original-color="#ffbb71ff" stroke="none" stroke-opacity="1"/><path d="m18.028 39.078a.5.5 0 0 1 -.421-.768l.664-1.041-1.615.931a.5.5 0 0 1 -.7-.657l.821-1.633-.213.122a.5.5 0 1 1 -.5-.865l1.66-.958a.5.5 0 0 1 .7.657l-.824 1.634 1.941-1.12a.5.5 0 0 1 .671.7l-.678 1.065a.5.5 0 0 1 .581.227.5.5 0 0 1 -.183.683l-1.657.956a.489.489 0 0 1 -.247.067z" fill="#ffffff" fill-opacity="1" data-original-color="#d3915aff" stroke="none" stroke-opacity="1"/><g fill="#262626"><path d="m59.733 41.44v-27.231c-.179-1.458.652-3.942-1.067-4.6-1.006-5.148-.651-5.773-5.5-2.442.138-5.2-2.584-3.15-5.079-.726.013-6.695-2.381-5.241-4.654-.392-1.965-3.982-4.542-4.2-4.453.747-1.421-4.058-4.414-8.226-5.4-1.231-.834-1.685-3.048-6.671-5.26-4.365a18.462 18.462 0 0 1 -1.262 5.691 13.592 13.592 0 0 1 -1.3-4.5c-2-2.409-4.041 2.859-4.676 4.423-.064-5.349-1.975-4.853-4.375-.8-1.974-4.934-4.82-6.363-4.772.261-2.115-2.354-5.263-4.037-5.035.668-4.584-3.343-4.682-1.995-5.5 2.719-1.263.32-1.231 1.847-1.132 2.911v38.74c-.115 5.106-1.118 9.207 5.742 8.197h50.921c5.19.036 1.955-14.16 2.802-18.07zm-43.726-30.929h38.943c4-.506 3.4.769 3.4 4.123h-56.617c.313-1.146-.883-4.136.826-4.123zm-14.274 7.337v-2.482h56.606c-.072 2.1-.079 4.158-.071 6.248h-56.535zm53.21-11.011a9.626 9.626 0 0 1 1.544-.86 17.707 17.707 0 0 0 .586 3.488c-1.142-.023-2.288-.006-3.432.011-.109-.409-.2-.822-.288-1.238a8.946 8.946 0 0 1 1.59-1.401zm-3.543-1.81.055-.027a23.812 23.812 0 0 0 .653 4.493h-3.452c-.889-2.008 1.251-3.501 2.744-4.466zm-6.069-.243a10.537 10.537 0 0 1 .969-1.563 38.582 38.582 0 0 0 .819 6.268h-3.325a16.8 16.8 0 0 1 1.538-4.705zm-2.608 3.342q-.183.675-.316 1.363h-2.6a30.189 30.189 0 0 0 .846-5.013 10.627 10.627 0 0 1 2.07 3.65zm-7.34-3.791c.076-.3.144-.6.194-.9a13.933 13.933 0 0 1 2.55 6.052h-3.458a19.566 19.566 0 0 0 -.451-2.079 16.132 16.132 0 0 0 1.165-3.073zm-6.2.5a16.216 16.216 0 0 0 .477-2.7 13.737 13.737 0 0 1 3.488 7.362h-6.056a14.64 14.64 0 0 0 2.09-4.665zm-5.428-.648a9.391 9.391 0 0 1 .612-.869 15.533 15.533 0 0 0 1.886 5.239c-.184.32-.379.634-.593.935h-3.835a15.514 15.514 0 0 1 1.929-5.308zm-4.445.146a28.1 28.1 0 0 0 .79 5.156h-2.435c-.79-1.932.405-3.689 1.644-5.159zm-4.3 1.491a17.25 17.25 0 0 1 1.13 3.665h-3.309a36.869 36.869 0 0 0 .839-5.946 11.5 11.5 0 0 1 1.338 2.278zm-5.361.1c1.039.915 2.4 2.077 1.744 3.57h-3.554a24.219 24.219 0 0 0 .684-4.33 8.524 8.524 0 0 1 1.124.755zm-5.192.776a9.493 9.493 0 0 1 2.174 1.814c-.065.327-.146.65-.225.975h-3.574a15.791 15.791 0 0 0 .631-3.337c.346.168.682.362.994.548zm52.613 51.789h-53.013c-1.892.358-2.648-1.286-2.324-3.014v-33.089h56.535v33.614c0 .962.159 2.379-1.198 2.489z" fill="#262626" fill-opacity="1" data-original-color="#262626ff" stroke="none" stroke-opacity="1"/><path d="m32.6 36.429c-.92-3.653-5.608-3.8-8.64-3.926-1.491-.147-2.08-1.8-3.635-2-3.475-.064-7.465-.274-10.613 1.486-2.996 1.311-3.492 9.729-1.312 11.611-1.372 7.3 8.07 8.3 13.3 7.761 2.677-.27 5.86.781 8.131-1.01.764-.631 1.617-2.776-.1-2.732.45-1.534-1.768-1.385-1.46.018a16.178 16.178 0 0 1 -2.546-.134c.351-1.09-1.089-1.106-1.438-.344-1.824-.646-3.929-.788-5.544-1.89-.722-.681-1.05-1.777-2.01-2.207a31.5 31.5 0 0 1 5.537-.543c-.4 1.362 1.7 1.226 1.462 0h2.538c-.407 1.347 1.687 1.2 1.46 0 .747-.013 1.609.1 2.546.074-.338 1.328 1.813.815 1.448-.275 1.817-1.125.887-4.078.876-5.889zm-13.9 10.106c3.179.913 6.321 2.177 9.686 1.81a.777.777 0 0 0 .755.09c.564 3.373-4.233 1.91-6.232 2.2-4.925.43-13.47.1-13.194-6.6 7.158-.187 3.432-2.066 8.985 2.5zm9.467-5.055c-6.039-.52-11.906.921-17.836 1.5-2.536.437-1.8-7.73-1.051-9.033 2.188-3.054 7.266-2.361 10.535-2.4 1.408.417 1.984 2.077 3.634 2 2.622.11 6.892.084 7.7 3.279a21.937 21.937 0 0 1 .115 4.231c-.451.965-2.164.188-3.092.423z" fill="#262626" fill-opacity="1" data-original-color="#262626ff" stroke="none" stroke-opacity="1"/><path d="m19.1 34.3c-4.2-1.324-5.428 5.377-.7 4.715 2.48-.281 3.261-3.888.7-4.715zm-.121 3.388a.986.986 0 0 1 -1.237.373c-1.217-.491-1.4-2.615-.068-2.98a1.666 1.666 0 0 1 1.306 2.602z" fill="#262626" fill-opacity="1" data-original-color="#262626ff" stroke="none" stroke-opacity="1"/><path d="m52.977 44.673c1.821-2.136.044-3.89-2.092-4.442-.176-4.628-7.7-2.39-5.233 1.424l-5.092 5.092c-4.032-1.747-6.311 4.267-1.56 4.881.416 4.666 7.641 2.845 5.345-1.277l5.093-5.093a3.232 3.232 0 0 0 3.539-.585zm-10.12 6.052c1.742 1.671-1 4.27-2.049 1.715-.185-.493-.08-.989-.472-1.4s-.837-.346-1.326-.481c-2.163-.475-1.232-4.474.889-2.792.945.975 6.78-5.491 7.245-6.491-1.265-1.167-.044-3.943 1.617-2.371.853 1.385.41 2.482 2.5 2.636 1.926.751.7 4.371-1.165 2.691-.941-.975-6.774 5.492-7.239 6.493z" fill="#262626" fill-opacity="1" data-original-color="#262626ff" stroke="none" stroke-opacity="1"/><path d="m28.282 36.591c-.6.037-1.28-.133-1.8.244-1.177 1.213 3.744.371 1.8-.244z" fill="#262626" fill-opacity="1" data-original-color="#262626ff" stroke="none" stroke-opacity="1"/><path d="m37.7 36.352c.847-.155 2.779.448 2.976-.617-.43-.311-4.651-.029-2.976.617z" fill="#262626" fill-opacity="1" data-original-color="#262626ff" stroke="none" stroke-opacity="1"/><path d="m42.928 27.5c.832-.087 1.79.213 2.545-.2 1.615-1.623-5.462-.633-2.545.2z" fill="#262626" fill-opacity="1" data-original-color="#262626ff" stroke="none" stroke-opacity="1"/><path d="m50.719 32.412c.829-.162 2.915.488 2.954-.7-.499-.375-4.659-.136-2.954.7z" fill="#262626" fill-opacity="1" data-original-color="#262626ff" stroke="none" stroke-opacity="1"/><path d="m8.278 27.28c4.012-.517-1.516-1.038-2-.086a8.475 8.475 0 0 0 2 .086z" fill="#262626" fill-opacity="1" data-original-color="#262626ff" stroke="none" stroke-opacity="1"/><path d="m35.3 28.646c-.845.155-2.783-.449-2.975.62.429.314 4.654.034 2.975-.62z" fill="#262626" fill-opacity="1" data-original-color="#262626ff" stroke="none" stroke-opacity="1"/><path d="m52.724 51.728c-.472.009-1.187.04-1.448.466 1.013.086 2.646.373 3.449-.388a9.24 9.24 0 0 0 -2.001-.078z" fill="#262626" fill-opacity="1" data-original-color="#262626ff" stroke="none" stroke-opacity="1"/><path d="m8.306 52.68c-.86.148-2.7-.421-2.986.575.392.28 4.662-.042 2.986-.575z" fill="#262626" fill-opacity="1" data-original-color="#262626ff" stroke="none" stroke-opacity="1"/><path d="m11.276 36.194v3c1.865.795 1.43-1.841 1.448-3.016.336-.773-1.288-.552-1.448.016z" fill="#262626" fill-opacity="1" data-original-color="#262626ff" stroke="none" stroke-opacity="1"/></g></g></svg>