<svg height="300" viewBox="0 0 64 64" width="300" xmlns="http://www.w3.org/2000/svg" version="1.1" xmlns:xlink="http://www.w3.org/1999/xlink" xmlns:svgjs="http://svgjs.dev/svgjs"><g width="100%" height="100%" transform="matrix(1,0,0,1,0,0)"><g id="Filled_outline" data-name="Filled outline"><path d="m3 10h58v44h-58z" fill="#ffffff" fill-opacity="1" data-original-color="#233b8eff" stroke="none" stroke-opacity="1"/><path d="m61 25h-25v-15h-8v15h-25v14h25v15h8v-15h25z" fill="#ffffff" fill-opacity="1" data-original-color="#da1c4bff" stroke="none" stroke-opacity="1"/><path d="m24 10v11l-11-11h-5l15 15h1 4v-15z" fill="#ffffff" fill-opacity="1" data-original-color="#f4f4e6ff" stroke="none" stroke-opacity="1"/><path d="m8 10 15 15h-6l-14-14v-1z" fill="#ffffff" fill-opacity="1" data-original-color="#da1c4bff" stroke="none" stroke-opacity="1"/><path d="m3 11 14 14h-5l-9-9z" fill="#ffffff" fill-opacity="1" data-original-color="#f4f4e6ff" stroke="none" stroke-opacity="1"/><path d="m24 54v-11l-11 11h-5l15-15h1 4v15z" fill="#ffffff" fill-opacity="1" data-original-color="#f4f4e6ff" stroke="none" stroke-opacity="1"/><path d="m8 54 15-15h-6l-14 14v1z" fill="#ffffff" fill-opacity="1" data-original-color="#da1c4bff" stroke="none" stroke-opacity="1"/><path d="m3 53 14-14h-5l-9 9z" fill="#ffffff" fill-opacity="1" data-original-color="#f4f4e6ff" stroke="none" stroke-opacity="1"/><path d="m40 10v11l11-11h5l-15 15h-1-4v-15z" fill="#ffffff" fill-opacity="1" data-original-color="#f4f4e6ff" stroke="none" stroke-opacity="1"/><path d="m56 10-15 15h6l14-14v-1z" fill="#ffffff" fill-opacity="1" data-original-color="#da1c4bff" stroke="none" stroke-opacity="1"/><path d="m61 11-14 14h5l9-9z" fill="#ffffff" fill-opacity="1" data-original-color="#f4f4e6ff" stroke="none" stroke-opacity="1"/><path d="m40 54v-11l11 11h5l-15-15h-1-4v15z" fill="#ffffff" fill-opacity="1" data-original-color="#f4f4e6ff" stroke="none" stroke-opacity="1"/><path d="m56 54-15-15h6l14 14v1z" fill="#ffffff" fill-opacity="1" data-original-color="#da1c4bff" stroke="none" stroke-opacity="1"/><g fill="#f4f4e6"><path d="m61 53-14-14h5l9 9z" fill="#ffffff" fill-opacity="1" data-original-color="#f4f4e6ff" stroke="none" stroke-opacity="1"/><path d="m3 25h25v4h-25z" fill="#ffffff" fill-opacity="1" data-original-color="#f4f4e6ff" stroke="none" stroke-opacity="1"/><path d="m3 35h25v4h-25z" fill="#ffffff" fill-opacity="1" data-original-color="#f4f4e6ff" stroke="none" stroke-opacity="1"/><path d="m36 25h25v4h-25z" fill="#ffffff" fill-opacity="1" data-original-color="#f4f4e6ff" stroke="none" stroke-opacity="1"/><path d="m36 35h25v4h-25z" fill="#ffffff" fill-opacity="1" data-original-color="#f4f4e6ff" stroke="none" stroke-opacity="1"/></g><path d="m2 55h60v-46h-60zm2.414-2 13-13h3.172l-13 13zm18.586 0h-7.586l7.586-7.586zm4 0h-2v-10a1 1 0 0 0 -1.707-.707l-10.707 10.707h-2.172l13-13h3.586zm14 0v-7.586l7.586 7.586zm10.414 0-10.707-10.707a1 1 0 0 0 -1.707.707v10h-2v-13h3.586l13 13zm5 0-13-13h3.172l13 13zm3.586-2.414-10.586-10.586h2.172l8.414 8.414zm0-5-5.586-5.586h5.586zm0-7.586h-23v-2h23zm0-14h-5.586l5.586-5.586zm0-8.414-8.414 8.414h-2.172l10.586-10.586zm-.414-4.586-13 13h-3.172l13-13zm-18.586 0h7.586l-7.586 7.586zm-4 0h2v10a1 1 0 0 0 1.707.707l10.707-10.707h2.172l-13 13h-3.586zm0 15h23v2h-23zm-14-15v7.586l-7.586-7.586zm-10.414 0 10.707 10.707a1 1 0 0 0 1.707-.707v-10h2v13h-3.586l-13-13zm-5 0 13 13h-3.172l-13-13zm-3.586 2.414 10.586 10.586h-2.172l-8.414-8.414zm0 5 5.586 5.586h-5.586zm0 7.586h23v2h-23zm0 4h24a1 1 0 0 0 1-1v-18h6v18a1 1 0 0 0 1 1h24v4h-24a1 1 0 0 0 -1 1v18h-6v-18a1 1 0 0 0 -1-1h-24zm0 6h23v2h-23zm0 4h5.586l-5.586 5.586zm0 8.414 8.414-8.414h2.172l-10.586 10.586z" fill="#000000" fill-opacity="1" data-original-color="#000000ff" stroke="none" stroke-opacity="1"/></g></g></svg>