<svg id="Icons" height="300" viewBox="0 0 60 60" width="300" xmlns="http://www.w3.org/2000/svg" version="1.1" xmlns:xlink="http://www.w3.org/1999/xlink" xmlns:svgjs="http://svgjs.dev/svgjs"><g width="100%" height="100%" transform="matrix(1,0,0,1,0,0)"><path d="m24.976 6.5a.5.5 0 0 1 -.317-.888l1.273-1.037-2.652 1.525a.5.5 0 0 1 -.6-.787l1.954-1.954-1.351.78a.5.5 0 0 1 -.654-.727l.672-.926a.5.5 0 0 1 -.233-.932l1.654-.954a.5.5 0 0 1 .621.1.5.5 0 0 1 .033.629l-.563.775 2.606-1.504a.5.5 0 0 1 .6.786l-1.95 1.952 4.746-2.738a.5.5 0 0 1 .567.82l-1.273 1.035 3.218-1.855a.5.5 0 0 1 .566.82l-1.258 1.023 2.9-1.675a.5.5 0 0 1 .565.832l-.361.279.662-.382a.5.5 0 0 1 .632.755l-1.582 1.871 1.278-.737a.5.5 0 0 1 .711.624l-.389.941a.5.5 0 0 1 .194.93l-.907.523a.5.5 0 0 1 -.712-.624l.328-.793-2.467 1.424a.5.5 0 0 1 -.633-.755l1.578-1.875-4.57 2.638a.5.5 0 0 1 -.556-.828l.361-.279-1.926 1.111a.5.5 0 0 1 -.565-.82l1.259-1.026-3.209 1.852a.494.494 0 0 1 -.25.071z" fill="#ffffff" fill-opacity="1" data-original-color="#b5bbc6ff" stroke="none" stroke-opacity="1"/><path d="m18.781 59.47a.5.5 0 0 1 -.267-.922l10.135-6.436-12.607 7.279a.5.5 0 0 1 -.517-.856l11.018-6.935-12.561 7.252a.5.5 0 0 1 -.518-.852l15.966-10.177-16.982 9.8a.5.5 0 0 1 -.515-.856l13-8.134-13.282 7.667a.5.5 0 0 1 -.511-.86l5.1-3.125-4.9 2.83a.5.5 0 0 1 -.512-.858l5.86-3.594-5.4 3.119a.5.5 0 0 1 -.514-.856l13.426-8.387-12.92 7.458a.5.5 0 0 1 -.511-.858l6.857-4.214-6.346 3.663a.5.5 0 0 1 -.512-.857l9.713-6.006-9.2 5.311a.5.5 0 0 1 -.51-.859l5.029-3.081-4.52 2.609a.5.5 0 0 1 -.515-.856l15.117-9.492-14.6 8.429a.5.5 0 0 1 -.518-.854l18.914-12.068-18.398 10.621a.5.5 0 0 1 -.516-.856l16.636-10.507-16.12 9.307a.5.5 0 0 1 -.512-.858l8.039-4.952-7.527 4.345a.5.5 0 0 1 -.517-.855l17.227-10.907-16.71 9.648a.5.5 0 0 1 -.516-.856l15.924-10.024-15.408 8.9a.5.5 0 0 1 -.511-.859l7.324-4.5-6.813 3.919a.5.5 0 0 1 -.515-.856l14.546-9.117-14.031 8.1a.5.5 0 0 1 -.514-.857l13.291-8.3-12.777 7.376a.5.5 0 0 1 -.512-.859l7.47-4.6-6.958 4.014a.5.5 0 0 1 -.518-.854l16.308-10.373-15.79 9.116a.5.5 0 0 1 -.513-.857l7.221-4.474-6.708 3.873a.5.5 0 0 1 -.517-.855l11.511-7.292-10.994 6.347a.5.5 0 0 1 -.521-.852l11.887-7.68-11.366 6.561a.5.5 0 0 1 -.518-.854l6.114-3.884-5.6 3.231a.5.5 0 0 1 -.528-.848l10.153-6.817-9.621 5.556a.5.5 0 0 1 -.522-.852l3.7-2.4-3.178 1.836a.5.5 0 0 1 -.54-.84l7.654-5.449-7.114 4.1a.5.5 0 0 1 -.539-.841l4.359-3.079-3.817 2.2a.5.5 0 0 1 -.541-.839l2.4-1.723-1.862 1.082a.5.5 0 0 1 -.564-.822l2.636-2.134-2.031 1.167a.5.5 0 0 1 -.617-.772l1.724-1.867a.5.5 0 0 1 -.373-.917l2.681-1.548a.5.5 0 0 1 .618.772l-1.682 1.821 4.681-2.7a.5.5 0 0 1 .564.821l-2.635 2.132 5.118-2.953a.5.5 0 0 1 .541.839l-2.4 1.72 4.438-2.559a.5.5 0 0 1 .539.84l-4.358 3.082 6.8-3.924a.5.5 0 0 1 .54.84l-7.653 5.453 10.898-6.291a.5.5 0 0 1 .523.852l-3.687 2.387 5.619-3.239a.5.5 0 0 1 .529.847l-10.163 6.819 13.284-7.666a.5.5 0 0 1 .518.854l-6.112 3.88 8.2-4.736a.5.5 0 0 1 .521.852l-11.877 7.676 14.773-8.526a.5.5 0 0 1 .518.855l-11.514 7.291 13.586-7.846a.5.5 0 0 1 .514.858l-7.219 4.471 8-4.617a.5.5 0 0 1 .518.855l-16.316 10.378 17.04-9.84a.5.5 0 0 1 .513.858l-7.461 4.6 7.453-4.3a.5.5 0 0 1 .514.857l-13.287 8.3 12.984-7.5a.5.5 0 0 1 .515.857l-14.554 9.123 14.043-8.11a.5.5 0 0 1 .511.859l-7.324 4.5 6.813-3.933a.5.5 0 0 1 .516.856l-15.924 10.034 15.408-8.9a.5.5 0 0 1 .517.856l-17.227 10.91 16.71-9.647a.5.5 0 0 1 .512.858l-8.018 4.939 7.506-4.334a.5.5 0 0 1 .516.856l-16.646 10.514 16.13-9.313a.5.5 0 0 1 .518.855l-18.916 12.068 18.4-10.621a.5.5 0 0 1 .515.856l-15.119 9.497 14.6-8.43a.5.5 0 0 1 .51.859l-5.028 3.078 4.52-2.607a.5.5 0 0 1 .512.857l-9.713 6.003 9.2-5.311a.5.5 0 0 1 .511.858l-6.857 4.214 6.346-3.663a.5.5 0 0 1 .514.856l-13.433 8.386 12.92-7.455a.5.5 0 0 1 .511.858l-5.847 3.587 5.336-3.08a.5.5 0 0 1 .511.86l-5.1 3.126 4.591-2.65a.5.5 0 0 1 .515.857l-12.996 8.132 12.479-7.2a.5.5 0 0 1 .518.855l-15.966 10.17 15.448-8.918a.5.5 0 0 1 .516.855l-11.022 6.939 10.506-6.066a.5.5 0 0 1 .517.855l-10.143 6.44 9.626-5.557a.5.5 0 0 1 .518.855l-7.8 4.96 7.278-4.2a.5.5 0 0 1 .526.849l-10.381 6.884 9.859-5.691a.5.5 0 0 1 .533.844l-9.629 6.629 9.1-5.251a.5.5 0 0 1 .54.84l-7.609 5.406 7.069-4.08a.5.5 0 0 1 .537.843l-3.99 2.791 3.453-1.993a.5.5 0 0 1 .543.838l-2.872 2.082 2.329-1.345a.5.5 0 0 1 .558.826l-2.331 1.83 1.747-1.007a.5.5 0 0 1 .587.8l-1.543 1.407.314-.181a.5.5 0 0 1 .5.865l-4.323 2.491a.5.5 0 0 1 -.587-.8l1.541-1.4-3.822 2.2a.5.5 0 0 1 -.558-.826l2.329-1.829-4.6 2.655a.5.5 0 0 1 -.543-.838l2.87-2.08-5.054 2.918a.5.5 0 0 1 -.538-.842l3.992-2.792-6.3 3.634a.5.5 0 0 1 -.54-.839l7.61-5.409-10.819 6.248a.5.5 0 0 1 -.533-.844l9.626-6.626-12.942 7.47a.5.5 0 0 1 -.526-.849l10.387-6.886-13.4 7.735a.5.5 0 0 1 -.518-.854l7.8-4.963-10.077 5.817a.5.5 0 0 1 -.25.07z" fill="#ffffff" fill-opacity="1" data-original-color="#d4d9e0ff" stroke="none" stroke-opacity="1"/><path d="m20.846 55.47a.5.5 0 0 1 -.266-.924l1.521-.955-3.139 1.809a.5.5 0 0 1 -.519-.854l7.322-4.673-9.565 5.527a.5.5 0 0 1 -.522-.851l12.95-8.407-13.348 7.702a.5.5 0 0 1 -.514-.858l4.234-2.636-3.72 2.15a.5.5 0 0 1 -.518-.854l10.645-6.784-10.127 5.846a.5.5 0 0 1 -.518-.854l10.864-6.93-10.346 5.976a.5.5 0 0 1 -.517-.855l9.025-5.709-8.508 4.908a.5.5 0 0 1 -.515-.856l7-4.4-6.485 3.749a.5.5 0 0 1 -.519-.853l11.317-7.236-10.8 6.234a.5.5 0 0 1 -.514-.857l5.4-3.37-4.884 2.819a.5.5 0 0 1 -.513-.858l2.5-1.551-1.987 1.149a.5.5 0 0 1 -.519-.854l11.188-7.148-10.669 6.159a.5.5 0 0 1 -.512-.857l1.894-1.172-1.382.8a.5.5 0 0 1 -.516-.856l8.256-5.206-7.74 4.468a.5.5 0 0 1 -.521-.853l13.291-8.595-12.77 7.37a.5.5 0 0 1 -.513-.858l2.5-1.55-1.987 1.148a.5.5 0 0 1 -.517-.856l9.366-5.932-8.849 5.108a.5.5 0 0 1 -.518-.854l9.993-6.348-9.475 5.472a.5.5 0 0 1 -.516-.856l8.518-5.377-8 4.62a.5.5 0 0 1 -.519-.855l10.371-6.621-9.854 5.689a.5.5 0 0 1 -.518-.854l6.958-4.426-6.44 3.718a.5.5 0 0 1 -.524-.851l8.868-5.823-8.344 4.813a.5.5 0 0 1 -.528-.848l7.787-5.223-7.259 4.194a.5.5 0 0 1 -.534-.844l6.776-4.691-6.242 3.6a.5.5 0 0 1 -.541-.839l5.29-3.794-4.749 2.741a.5.5 0 0 1 -.55-.833l3.716-2.782-3.166 1.828a.5.5 0 0 1 -.574-.813l2.9-2.47-2.326 1.342a.5.5 0 0 1 -.577-.811l.762-.661-.185.107a.5.5 0 0 1 -.706-.637l.6-1.351a.5.5 0 0 1 -.528-.241.5.5 0 0 1 .183-.682l1.171-.669a.5.5 0 0 1 .706.636l-.585 1.309 3.365-1.945a.5.5 0 0 1 .577.81l-.76.66 2.548-1.47a.5.5 0 0 1 .574.813l-2.9 2.471 5.689-3.284a.5.5 0 0 1 .55.833l-3.715 2.78 6.26-3.613a.5.5 0 0 1 .67.161.5.5 0 0 1 -.129.678l-5.292 3.8 8.028-4.639a.5.5 0 0 1 .534.843l-6.773 4.687 9.584-5.53a.5.5 0 0 1 .528.847l-7.79 5.225 10.518-6.072a.5.5 0 0 1 .525.85l-8.866 5.823 11.554-6.673a.5.5 0 0 1 .519.854l-6.952 4.422 9.059-5.23a.5.5 0 0 1 .52.854l-10.363 6.616 10.537-6.083a.5.5 0 0 1 .516.856l-8.518 5.377 8-4.62a.5.5 0 0 1 .518.855l-10.003 6.355 9.487-5.476a.5.5 0 0 1 .517.855l-9.354 5.925 8.837-5.1a.5.5 0 0 1 .513.857l-2.5 1.551 1.991-1.149a.5.5 0 0 1 .521.853l-13.295 8.594 12.77-7.372a.5.5 0 0 1 .516.855l-8.269 5.215 7.753-4.476a.5.5 0 0 1 .512.858l-1.871 1.154 1.359-.784a.5.5 0 0 1 .519.853l-11.188 7.153 10.669-6.159a.5.5 0 0 1 .513.857l-2.5 1.551 1.991-1.149a.5.5 0 0 1 .514.857l-5.4 3.37 4.882-2.819a.5.5 0 0 1 .519.854l-11.317 7.235 10.8-6.233a.5.5 0 0 1 .515.856l-7.019 4.406 6.5-3.754a.5.5 0 0 1 .517.855l-9.013 5.7 8.5-4.9a.5.5 0 0 1 .518.855l-10.866 6.925 10.346-5.972a.5.5 0 0 1 .518.854l-10.645 6.783 10.127-5.846a.5.5 0 0 1 .514.857l-4.234 2.637 3.724-2.15a.5.5 0 0 1 .522.852l-12.955 8.408 12.429-7.176a.5.5 0 0 1 .518.855l-7.323 4.675 6.805-3.929a.5.5 0 0 1 .515.856l-1.529.961 1.014-.585a.5.5 0 0 1 .521.853l-4.581 2.956 4.06-2.344a.5.5 0 0 1 .518.855l-.594.38.076-.044a.5.5 0 0 1 .534.843l-6.11 4.217 5.576-3.219a.5.5 0 0 1 .546.835l-5.542 4.077 5-2.884a.5.5 0 0 1 .549.834l-3.053 2.268 2.5-1.443a.5.5 0 0 1 .587.8l-2.883 2.625 2.3-1.325a.5.5 0 0 1 .622.766l-1.176 1.311.55-.318a.5.5 0 0 1 .67.7l-.3.474a.5.5 0 0 1 .082.9l-1.161.67a.5.5 0 0 1 -.67-.7l.095-.148-1.476.851a.5.5 0 0 1 -.622-.766l1.172-1.307-3.597 2.074a.5.5 0 0 1 -.587-.8l2.885-2.627-5.941 3.427a.5.5 0 0 1 -.549-.834l3.047-2.266-5.368 3.1a.5.5 0 0 1 -.545-.835l5.54-4.075-8.5 4.91a.5.5 0 0 1 -.534-.843l6.111-4.218-8.772 5.061a.5.5 0 0 1 -.518-.854l.6-.383-2.149 1.237a.5.5 0 0 1 -.522-.852l4.58-2.955-6.591 3.807a.5.5 0 0 1 -.254.07z" fill="#ffffff" fill-opacity="1" data-original-color="#74c154ff" stroke="none" stroke-opacity="1"/><path d="m26.642 48.413a.5.5 0 0 1 -.377-.172.5.5 0 0 1 -.018-.636l.907-1.162-.559.323a.5.5 0 0 1 -.586-.8l.659-.6a.5.5 0 0 1 -.323-.869l1.554-1.42-.528.3a.5.5 0 0 1 -.58-.808l2.309-2.027-1.242.716a.5.5 0 0 1 -.577-.811l3.492-3.028-2.344 1.353a.5.5 0 0 1 -.556-.828l2.358-1.821-1.377.794a.5.5 0 0 1 -.55-.832l2.626-1.985-1.65.953a.5.5 0 0 1 -.571-.816l2.3-1.929-3.622 2.092a.5.5 0 0 1 -.559-.826l.73-.571-2.423 1.4a.5.5 0 0 1 -.585-.8l3.1-2.788-3.079 1.777a.5.5 0 0 1 -.56-.824l2.606-2.071-1.941 1.12a.5.5 0 0 1 -.545-.835l.853-.625-.23.132a.5.5 0 0 1 -.557-.828l3.146-2.437-2.482 1.432a.5.5 0 0 1 -.541-.839l1.09-.781-.469.271a.5.5 0 0 1 -.543-.838l1.948-1.407-1.318.76a.5.5 0 0 1 -.548-.834l2.974-2.214-2.325 1.341a.5.5 0 0 1 -.556-.828l1.427-1.109-.788.454a.5.5 0 0 1 -.645-.739l1.672-2.155-.887.512a.5.5 0 0 1 -.6-.072.5.5 0 0 1 -.1-.593l.317-.6a.507.507 0 0 1 -.231-.207.5.5 0 0 1 .184-.683l.86-.5a.5.5 0 0 1 .693.666l-.136.259 1.6-.924a.5.5 0 0 1 .645.739l-1.66 2.155 5.012-2.89a.5.5 0 0 1 .555.828l-1.433 1.108 3.312-1.912a.5.5 0 0 1 .549.834l-2.97 2.212 2.378-1.373a.5.5 0 0 1 .543.838l-1.948 1.407.821-.474a.5.5 0 0 1 .541.839l-1.1.785.025-.013a.5.5 0 0 1 .557.828l-3.144 2.435 1.866-1.077a.5.5 0 0 1 .545.836l-.961.7a.5.5 0 0 1 .453.871l-2.605 2.07 1.347-.778a.5.5 0 0 1 .585.8l-3.1 2.788 4.44-2.552a.5.5 0 0 1 .559.826l-.73.571 2.423-1.4a.5.5 0 0 1 .572.815l-2.3 1.93 3.784-2.185a.5.5 0 0 1 .551.832l-2.625 1.979.748-.432a.5.5 0 0 1 .555.828l-2.349 1.818.422-.244a.5.5 0 0 1 .577.811l-3.493 3.029 1.074-.62a.5.5 0 0 1 .58.808l-2.31 2.034.156-.089a.5.5 0 0 1 .587.8l-1.768 1.614a.528.528 0 0 1 .414.2.5.5 0 0 1 -.068.665l-1.2 1.085a.547.547 0 0 1 .15.118.5.5 0 0 1 .017.636l-1.527 1.971a.437.437 0 0 1 .072.1.5.5 0 0 1 -.182.682l-.989.572a.491.491 0 0 1 -.25.059z" fill="#ffffff" fill-opacity="1" data-original-color="#ffffffff" stroke="none" stroke-opacity="1"/><g fill="#262626"><path d="m10.272 10.145q-.017 21.672 0 43.347c-.205 6.375 6.51 6.28 11.214 5.961 7.383-1.524 27.972 4.617 28.242-6.115-.031-14.45.052-28.9 0-43.349-.172-6.431-7.43-5.471-11.986-5.443.616-3.2-1.877-4.687-4.8-4.108-3.7.48-11.5-2.056-10.684 4.1-4.592-.098-11.724-.726-11.986 5.607zm14.675-8.583c3.3.844 12.09-2.485 11.329 2.984q-6.276 0-12.552-.008c-.051-1.158-.193-2.895 1.223-2.976zm-6.078 3.892h3.615c4.581.047 9.354-.033 14 0 5.09-.043 12.635-1.333 11.788 6.3-.055 14.1.09 28.2 0 42.292-.839 8.133-14.318 3.239-19.995 4.5-5.137-.907-13.434 2.575-16.277-3.1-.774-11.5-.015-23.213-.273-34.78.332-5.98-2.467-17.011 7.142-15.212z" fill="#262626" fill-opacity="1" data-original-color="#262626ff" stroke="none" stroke-opacity="1"/><path d="m14.266 39.9c-.534 20.072-1.645 15.1 16.92 15.635 3.919-.677 11.8 1.531 14.457-1.132.378-1.015.091-2.534.091-3.578v-37.62c.407-3.934-.2-5.312-4.488-4.74-37.811.25-24.726-5.675-26.98 31.435zm1.468-29.728c.092-1.191 1.8-.553 2.563-.634 8.424.1 16.9-.158 25.3 0 1.935 13.871.021 29.96.674 44.519-8.759 1.181-18.843.011-28.029.411-1.452-14.152-.042-29.729-.508-44.299z" fill="#262626" fill-opacity="1" data-original-color="#262626ff" stroke="none" stroke-opacity="1"/><path d="m23.955 34.324c1.375.429 2.987-.011 4.412.125-.919 4.239-2.067 8.451-2.947 12.687 2.212 6.307 10.593-14.822 12.662-16.773 1.938-3.077-4.514-1.415-6.05-1.813.14-2.306 5.409-11.587 2.6-12-1.8-.184-3.714 0-5.521 0-1.171 0-3.893-.49-4.588.8-.098 5.458-1.618 11.811-.568 16.974zm3 13.172c.2-.079.1.273 0 0zm.362-30.047c1.268.415 7.579-1.065 6.732.846-.641 3.495-3.767 8.2-3.14 11.154 1.97.083 4.119-.132 6.043 0-2.729 6.02-6.842 11.973-10.022 17.957.462-4.489 2.166-8.989 2.979-13.485-.553-.857-2.326-.153-3.3-.371-.546 0-1.5.224-1.665-.3.263-5.218.65-10.546.929-15.8.484-.002.964 0 1.443-.001z" fill="#262626" fill-opacity="1" data-original-color="#262626ff" stroke="none" stroke-opacity="1"/></g></g></svg>