<svg id="Icons" height="300" viewBox="0 0 60 60" width="300" xmlns="http://www.w3.org/2000/svg" version="1.1" xmlns:xlink="http://www.w3.org/1999/xlink" xmlns:svgjs="http://svgjs.dev/svgjs"><g width="100%" height="100%" transform="matrix(1,0,0,1,0,0)"><path d="m33.387 59.444a.5.5 0 0 1 -.38-.825l.982-1.147-2.426 1.4a.5.5 0 0 1 -.577-.81l1.119-.969-1.428.824a.5.5 0 0 1 -.567-.82l1.317-1.075-1.131.653a.5.5 0 1 1 -.5-.865l6.491-3.747a.5.5 0 0 1 .567.82l-1.314 1.071.612-.352a.5.5 0 0 1 .577.81l-1.119.97.408-.236a.5.5 0 0 1 .629.758l-1.1 1.289a.616.616 0 0 1 .442.25.5.5 0 0 1 -.182.683l-2.167 1.251a.489.489 0 0 1 -.253.067z" fill="#ffffff" fill-opacity="1" data-original-color="#3149bcff" stroke="none" stroke-opacity="1"/><path d="m26.361 59.4a.5.5 0 0 1 -.3-.9l2.839-2.082-3.761 2.172a.5.5 0 0 1 -.535-.844l1.996-1.382-2.207 1.274a.5.5 0 0 1 -.544-.837l5.073-3.686-4.939 2.852a.5.5 0 0 1 -.536-.844l3.358-2.323-2.954 1.7a.5.5 0 0 1 -.548-.834l6.661-4.937-6.3 3.636a.5.5 0 0 1 -.54-.84l5.551-3.957-5.169 2.984a.5.5 0 0 1 -.54-.84l5.948-4.246-5.571 3.216a.5.5 0 0 1 -.53-.848l.594-.4-.165.094a.5.5 0 0 1 -.549-.833l3-2.237-2.593 1.494a.5.5 0 0 1 -.554-.829l1.5-1.158-1.068.616a.5.5 0 0 1 -.593-.8l1.542-1.46-1.091.629a.5.5 0 0 1 -.629-.759l.457-.532a.5.5 0 0 1 -.677-.588l.153-.586a.5.5 0 0 1 -.02-.877l.476-.274a.5.5 0 0 1 .733.559l-.071.273 1.442-.832a.5.5 0 0 1 .629.759l-.45.523 2.22-1.281a.5.5 0 0 1 .594.8l-1.534 1.465 3.905-2.255a.5.5 0 0 1 .555.829l-1.507 1.156 3.447-1.989a.5.5 0 0 1 .548.833l-2.994 2.234 5.314-3.067a.5.5 0 0 1 .529.847l-.59.4 2.025-1.168a.5.5 0 0 1 .54.84l-5.952 4.249 5.231-3.02a.5.5 0 0 1 .54.84l-5.55 3.955 4.837-2.792a.5.5 0 0 1 .548.834l-6.659 4.936 5.9-3.408a.5.5 0 0 1 .535.843l-3.361 2.329 2.687-1.55a.5.5 0 0 1 .544.837l-5.076 3.687 4.357-2.515a.5.5 0 0 1 .535.844l-2 1.386 1.335-.771a.5.5 0 0 1 .545.836l-6.662 4.877a.5.5 0 0 1 -.19.671l-3.467 2a.491.491 0 0 1 -.247.072z" fill="#ffffff" fill-opacity="1" data-original-color="#3149bcff" stroke="none" stroke-opacity="1"/><g fill="#3f54ea"><path d="m30.437 15.448a.5.5 0 0 1 -.349-.857l2.686-2.634-5.016 2.9a.5.5 0 0 1 -.56-.826l3.048-2.406-3.946 2.275a.5.5 0 0 1 -.544-.836l2.2-1.6-2.533 1.462a.5.5 0 0 1 -.537-.842l1.231-.864-1.267.731a.5.5 0 0 1 -.559-.826l4.7-3.687-4.657 2.689a.5.5 0 0 1 -.566-.82l4.502-3.679-3.99 2.3a.5.5 0 0 1 -.574-.814l3.223-2.748-2.407 1.392a.5.5 0 0 1 -.594-.795l1.656-1.576a.5.5 0 0 1 -.161-.925l2.935-1.7a.5.5 0 0 1 .595.8l-1.293 1.23 3.5-2.021a.5.5 0 0 1 .574.814l-3.223 2.749 4.634-2.675a.5.5 0 0 1 .566.82l-4.511 3.681 5.373-3.1a.5.5 0 0 1 .559.826l-4.696 3.684 4.98-2.87a.5.5 0 0 1 .537.842l-1.23.864.95-.548a.5.5 0 0 1 .544.836l-2.2 1.6 1.7-.981a.5.5 0 0 1 .559.825l-3.046 2.4 2.459-1.419a.5.5 0 0 1 .6.79l-2.686 2.634 1.088-.628a.5.5 0 1 1 .5.865l-4.507 2.6a.489.489 0 0 1 -.247.068z" fill="#ffffff" fill-opacity="1" data-original-color="#3f54eaff" stroke="none" stroke-opacity="1"/><path d="m41.612 38.3a.505.505 0 0 1 -.382-.177.5.5 0 0 1 0-.641l1.6-1.946-2.35 1.355a.5.5 0 0 1 -.5-.866l4.74-2.736a.5.5 0 0 1 .635.75l-1.6 1.945.934-.539a.5.5 0 0 1 .5.866l-3.326 1.92a.49.49 0 0 1 -.251.069z" fill="#ffffff" fill-opacity="1" data-original-color="#3f54eaff" stroke="none" stroke-opacity="1"/><path d="m28.887 42.436a.5.5 0 0 1 -.289-.908l7.402-5.259-9.8 5.66a.5.5 0 0 1 -.528-.848l6.559-4.394-7.9 4.562a.5.5 0 0 1 -.531-.849l8.5-5.7-9.593 5.538a.5.5 0 0 1 -.523-.851l7.36-4.811-7.944 4.589a.5.5 0 0 1 -.516-.856l.467-.293-.57.329a.5.5 0 0 1 -.525-.851l9.225-6.064-9.46 5.461a.5.5 0 0 1 -.5-.866l24.379-14.079a.5.5 0 0 1 .525.851l-9.225 6.064 9.132-5.271a.5.5 0 0 1 .516.856l-.481.3.114-.065a.5.5 0 0 1 .523.851l-7.349 4.808 6.865-3.963a.5.5 0 0 1 .528.848l-8.5 5.7 7.971-4.6a.5.5 0 0 1 .528.848l-6.553 4.387 6.026-3.479a.5.5 0 0 1 .539.84l-7.41 5.264 6.871-3.967a.5.5 0 0 1 .528.847l-5.13 3.444a.485.485 0 0 1 .119.12.5.5 0 0 1 -.087.67l-1.8 1.517a.5.5 0 0 1 .233.209.5.5 0 0 1 -.182.683l-3.593 2.072a.5.5 0 0 1 -.573-.815l.921-.775-3.769 2.177a.5.5 0 0 1 -.529-.847l1.542-1.035-3.262 1.883a.493.493 0 0 1 -.251.068z" fill="#ffffff" fill-opacity="1" data-original-color="#3f54eaff" stroke="none" stroke-opacity="1"/><path d="m17.682 38.455a.5.5 0 0 1 -.264-.925l.093-.057-1 .575a.5.5 0 0 1 -.521-.854l9.226-5.923-9.73 5.618a.5.5 0 0 1 -.524-.851l12.676-8.338-12.358 7.132a.5.5 0 0 1 -.517-.855l5.356-3.389-4.839 2.794a.5.5 0 0 1 -.527-.849l11.605-7.733-11.078 6.4a.5.5 0 0 1 -.526-.849l9.3-6.169-8.774 5.061a.5.5 0 0 1 -.517-.855l.429-.272a.5.5 0 0 1 -.45-.881l8.914-6.295-8.349 4.821a.5.5 0 0 1 -.53-.847l3.429-2.314-2.68 1.545a.5.5 0 0 1 -.557-.827l5.454-4.251-3.87 2.233a.5.5 0 0 1 -.571-.817l2.54-2.125a.5.5 0 0 1 -.135-.919l4.025-2.324a.5.5 0 0 1 .57.817l-1.935 1.619 5.121-2.951a.5.5 0 0 1 .558.827l-5.456 4.25 8.8-5.079a.5.5 0 0 1 .53.846l-3.423 2.311 5.467-3.155a.5.5 0 0 1 .538.84l-8.912 6.291 11.886-6.862a.5.5 0 0 1 .518.856l-.249.157 1.074-.62a.5.5 0 0 1 .526.849l-9.3 6.167 10.629-6.136a.5.5 0 0 1 .528.848l-11.6 7.73 12.744-7.358a.5.5 0 0 1 .518.856l-5.356 3.387 5.758-3.324a.5.5 0 0 1 .525.851l-12.671 8.344 13.286-7.676a.5.5 0 0 1 .52.853l-9.226 5.925 9.409-5.432a.5.5 0 0 1 .511.854l-24.319 15.114a.481.481 0 0 1 -.193.2l-1.856 1.072a.494.494 0 0 1 -.25.069z" fill="#ffffff" fill-opacity="1" data-original-color="#3f54eaff" stroke="none" stroke-opacity="1"/></g><path d="m42.993 18.488a12.076 12.076 0 0 0 -9.658-4.055c2.763-1.392 3.723-4.559 3.389-7.489.174-5.167-6.056-7.953-10.2-5.317-4.436 2.447-4.52 10.283-.208 12.813-6.525-.042-12.361 5.4-12.056 12.116v8.066c0 1.253.067 2.448 1.174 3.287a3.312 3.312 0 0 0 4.262-.291 8.725 8.725 0 0 0 1.9 2.314q.639 7.355 1.283 14.712c.118 1.351.137 2.667 1.171 3.71a4.051 4.051 0 0 0 5.894-.317c2.4 3.138 7.391.765 7.137-3.111q.66-7.553 1.319-15.106a8.914 8.914 0 0 0 1.809-2.19 3.309 3.309 0 0 0 5.34-1.217c.528-1.406.187-3.381.187-4.839 0-4.594.495-9.333-2.743-13.086zm-18.269-9.682c-.809-5.482 4.174-9.965 8.844-5.771 2.813 3.122 2.468 9.855-1.895 11.366-.994-.024-2-.049-3-.045a5.982 5.982 0 0 1 -3.949-5.55zm1.69 49.556c-2.244-.751-2-3.4-2.19-5.306q-.526-6.019-1.051-12.039a13.618 13.618 0 0 0 6.091 1.528v13.5c-.04 1.518-1.245 2.855-2.85 2.317zm9.13-2.474a2.407 2.407 0 1 1 -4.809.07q0-6.706 0-13.415a13.488 13.488 0 0 0 6.118-1.634c-.427 4.991-.817 9.991-1.309 14.979zm8.72-22.695c0 .727.018 1.457 0 2.184-.053 2.071-2.5 2.837-3.4.748a16.5 16.5 0 0 0 -1.139-13.319c-.242-.366-1.578.194-1.449.388a16.367 16.367 0 0 1 1.28 12.806.437.437 0 0 0 -.179.329c-1.625 3.805-5.369 5.12-9.321 5.112-10.505.538-12.593-11.019-8.339-18.559.157-.237-.524-.186-.59-.176a1.244 1.244 0 0 0 -.844.416 16.554 16.554 0 0 0 -1.183 13.229c-1 2.052-3.284.718-3.361-1.191-.036-.911 0-1.831 0-2.743-.706-8.7.97-17.152 11.555-16.856 14.199-1.028 17.858 3.858 16.97 17.632z" fill="#262626" fill-opacity="1" data-original-color="#262626ff" stroke="none" stroke-opacity="1"/></g></svg>