<svg id="Icons" viewBox="0 0 60 60" xmlns="http://www.w3.org/2000/svg" width="300" height="300" version="1.1" xmlns:xlink="http://www.w3.org/1999/xlink" xmlns:svgjs="http://svgjs.dev/svgjs"><g width="100%" height="100%" transform="matrix(1,0,0,1,0,0)"><path d="m30.64 59.454c-.168 0-.333-.086-.427-.24-.142-.231-.072-.533.156-.681l7.767-4.99-10.006 5.776c-.235.138-.537.061-.679-.175-.141-.233-.068-.536.163-.682l5.938-3.725-7.537 4.352c-.237.137-.539.059-.68-.177-.14-.234-.065-.538.167-.682l2.521-1.555-3.67 2.118c-.237.138-.539.059-.679-.176-.141-.233-.067-.537.165-.682l8.138-5.062-9.484 5.476c-.235.138-.536.06-.678-.174-.141-.233-.069-.536.161-.682l14.59-9.2-16.223 9.366c-.235.139-.536.06-.678-.174-.141-.232-.07-.535.16-.681l18.525-11.752-20.237 11.683c-.235.139-.536.06-.678-.174-.141-.232-.069-.535.16-.682l20.492-12.979-22.086 12.751c-.235.137-.538.061-.679-.175-.141-.233-.068-.536.163-.682l20.174-12.661-21.479 12.401c-.237.138-.539.059-.68-.177-.14-.234-.065-.539.168-.682l13.922-8.559-14.714 8.495c-.238.138-.541.059-.681-.179-.14-.235-.062-.54.172-.682l3.304-1.997-3.708 2.141c-.238.137-.539.058-.679-.176-.141-.234-.067-.538.165-.682l19.879-12.338-20.757 11.983c-.238.138-.54.059-.68-.177-.14-.234-.065-.538.167-.682l18.345-11.317-19.036 10.99c-.238.137-.54.059-.68-.177-.14-.234-.065-.538.167-.682l19.099-11.784-19.725 11.388c-.239.137-.542.058-.681-.179-.14-.236-.062-.541.173-.683l2.475-1.489-2.646 1.526c-.237.137-.539.058-.679-.176-.141-.234-.067-.537.165-.682l22.474-13.957-23.072 13.32c-.239.138-.541.058-.681-.179s-.062-.54.173-.682l4.952-2.988-5.06 2.921c-.238.138-.539.059-.679-.176-.141-.234-.067-.537.165-.682l22.761-14.134-23.201 13.395c-.238.138-.541.058-.68-.178-.14-.235-.064-.54.17-.683l11.647-7.08-11.742 6.779c-.238.137-.541.057-.68-.177-.14-.235-.064-.54.169-.683l14.947-9.133-15.043 8.685c-.238.137-.539.058-.679-.176-.141-.234-.066-.538.165-.682l21.724-13.472-21.879 12.645c-.238.137-.541.058-.681-.178s-.062-.541.172-.683l6.847-4.143-6.719 3.879c-.238.138-.54.059-.68-.177s-.064-.539.168-.682l15.972-9.799-15.884 9.17c-.237.137-.539.058-.679-.176-.141-.234-.066-.538.165-.682l20.07-12.449-19.946 11.519c-.238.138-.541.057-.68-.178-.14-.235-.064-.54.17-.682l9.24-5.623-8.948 5.166c-.238.138-.54.058-.681-.179-.14-.235-.062-.54.172-.682l2.849-1.722-2.485 1.435c-.238.137-.54.059-.68-.177s-.065-.539.168-.682l13.323-8.187-12.925 7.464c-.237.138-.539.059-.68-.176-.14-.235-.065-.538.167-.683l14.806-9.152-14.318 8.267c-.238.137-.54.059-.68-.177s-.064-.54.169-.683l8.052-4.924-7.485 4.321c-.238.137-.54.058-.679-.176-.141-.234-.066-.538.166-.682l12.443-7.703-11.766 6.794c-.238.137-.541.058-.68-.178-.14-.235-.064-.539.169-.682l3.202-1.953-2.488 1.437c-.238.137-.54.059-.68-.177s-.064-.539.169-.683l3.887-2.379-3.088 1.782c-.237.137-.539.059-.68-.177-.14-.235-.064-.539.169-.683l1.99-1.218-1.11.641c-.237.137-.539.058-.679-.176-.141-.234-.067-.537.165-.682l7.035-4.373-5.947 3.434c-.236.138-.534.06-.678-.173-.141-.232-.07-.535.158-.681l11.216-7.165-9.716 5.609c-.235.137-.535.061-.676-.171-.142-.231-.074-.533.153-.681l10.254-6.677-8.291 4.787c-.235.137-.536.061-.677-.172-.142-.232-.072-.534.156-.681l4.375-2.818-2.296 1.325c-.236.136-.534.061-.677-.172-.142-.231-.072-.533.155-.681l2.112-1.368c-.155-.009-.304-.09-.394-.23-.144-.225-.085-.523.135-.678l3.835-2.695c-.062-.041-.113-.097-.152-.164-.139-.239-.057-.545.183-.683l6.592-3.806c.232-.135.527-.062.672.164.144.225.085.523-.135.678l-1.238.87 5.613-3.24c.236-.137.534-.061.677.172.142.231.072.533-.155.681l-.78.505 3.173-1.831c.235-.137.535-.061.677.172s.072.534-.156.681l-4.365 2.812 6.644-3.835c.235-.137.534-.06.676.171s.074.533-.153.681l-10.262 6.682 12.848-7.416c.238-.137.535-.059.678.173.141.232.07.535-.158.681l-11.219 7.166 13.276-7.664c.237-.139.537-.06.679.176.141.234.067.537-.165.682l-7.023 4.365 8.345-4.817c.236-.139.538-.06.68.177.14.235.064.539-.169.683l-1.988 1.217 2.906-1.678c.237-.139.539-.06.68.177.14.235.064.539-.169.683l-3.895 2.384 4.798-2.77c.236-.139.54-.059.68.178.14.235.064.539-.169.682l-3.175 1.936 3.963-2.287c.237-.139.539-.06.679.176.141.234.066.538-.166.682l-12.477 7.724 13.574-7.836c.236-.138.54-.059.68.177s.064.54-.169.683l-8.022 4.905 8.804-5.082c.236-.138.538-.059.68.176.14.235.065.538-.167.683l-14.806 9.152 15.783-9.112c.236-.139.538-.06.68.177.14.235.065.539-.168.682l-13.328 8.189 14.126-8.155c.237-.139.54-.059.681.179.14.235.062.54-.172.682l-2.84 1.716 3.256-1.879c.237-.139.541-.058.68.178.14.235.064.54-.17.682l-9.234 5.619 9.754-5.631c.236-.139.538-.06.679.176.141.234.066.538-.165.682l-20.082 12.456 20.918-12.076c.237-.138.539-.06.68.177.14.235.064.539-.168.682l-15.969 9.797 16.535-9.546c.237-.139.54-.059.681.178.14.236.062.541-.172.683l-6.843 4.14 7.117-4.108c.236-.138.539-.059.679.176.141.234.066.538-.165.682l-21.709 13.462 22.333-12.894c.236-.139.54-.058.68.177s.064.54-.169.683l-14.963 9.143 15.283-8.823c.236-.139.541-.058.68.178.14.235.064.54-.17.683l-11.635 7.072 11.83-6.83c.237-.139.537-.06.679.176.141.234.067.537-.165.682l-22.764 14.136 23.157-13.369c.237-.139.54-.059.681.179.14.236.062.54-.173.682l-4.977 3.003 4.967-2.867c.236-.139.537-.06.679.176.141.234.067.537-.165.682l-22.472 13.956 22.696-13.104c.238-.14.541-.059.681.179.14.236.062.541-.173.683l-2.46 1.48 2.329-1.344c.236-.138.538-.06.68.177.14.234.065.538-.167.682l-19.094 11.781 19.097-11.025c.236-.138.538-.06.68.177.14.234.065.538-.167.682l-18.359 11.326 18.268-10.546c.237-.139.537-.06.679.176.141.234.067.538-.165.682l-19.869 12.332 19.709-11.379c.237-.14.54-.059.681.179.14.235.062.54-.172.682l-3.309 2 2.957-1.707c.236-.138.538-.06.68.177.14.234.065.539-.168.682l-13.909 8.55 13.543-7.818c.237-.137.538-.06.679.175.141.233.068.536-.163.682l-20.178 12.664 19.722-11.387c.238-.136.537-.059.678.174s.069.535-.16.682l-20.505 12.986 19.875-11.474c.238-.136.537-.059.678.174s.07.535-.16.681l-18.516 11.746 17.677-10.205c.236-.137.537-.06.678.174s.069.536-.161.682l-14.592 9.201 13.595-7.849c.236-.139.538-.06.679.176.141.233.067.537-.165.682l-8.122 5.053 7.077-4.086c.237-.139.539-.06.68.177.14.234.065.538-.167.682l-2.533 1.562 1.441-.832c.237-.137.538-.06.679.175.141.233.068.536-.163.682l-5.938 3.725 4.578-2.643c.236-.137.536-.06.677.173.142.231.072.533-.156.681l-7.768 4.991 5.931-3.424c.234-.136.53-.061.673.166.144.228.081.527-.141.68l-8.955 6.127 5.825-3.362c.234-.136.531-.061.674.167s.08.527-.143.679l-3.177 2.161c.138.026.264.11.339.241.139.239.057.545-.183.683l-10.024 5.787c-.232.137-.53.062-.674-.167-.143-.228-.08-.527.143-.679l1.808-1.23-5.402 3.119c-.233.137-.529.062-.673-.166s-.081-.527.141-.68l8.954-6.127-12.823 7.403c-.079.046-.165.067-.25.067z" fill="#ffffff" fill-opacity="1" data-original-color="#e2b73fff" stroke="none" stroke-opacity="1"/><path d="m30.972 55.445c-.166 0-.329-.083-.424-.234-.143-.229-.079-.528.144-.68l10.422-7.069-13.509 7.799c-.235.136-.534.06-.676-.171s-.074-.533.153-.681l10.754-7.001-12.866 7.428c-.236.137-.534.061-.677-.172-.142-.231-.072-.533.155-.681l13.259-8.585-15.193 8.771c-.235.138-.537.059-.679-.175-.141-.233-.067-.536.163-.682l9.287-5.824-10.482 6.052c-.237.137-.539.059-.68-.177-.14-.234-.065-.538.167-.682l4.824-2.974-5.63 3.25c-.237.138-.54.059-.679-.176-.141-.234-.066-.538.165-.682l8.519-5.279-9.384 5.417c-.235.138-.536.06-.678-.174-.141-.232-.069-.535.16-.682l16.369-10.364-17.591 10.156c-.238.137-.541.058-.68-.178-.14-.235-.064-.539.17-.682l2.673-1.629-3.129 1.806c-.235.139-.537.061-.679-.175-.141-.233-.068-.536.163-.681l16.829-10.578-17.771 10.259c-.238.137-.541.058-.68-.178-.14-.235-.064-.539.17-.682l4.531-2.762-4.897 2.827c-.238.137-.54.059-.68-.177s-.064-.539.168-.682l9.003-5.522-9.428 5.443c-.237.137-.54.058-.679-.176-.141-.234-.066-.538.166-.682l13.812-8.55-14.319 8.268c-.238.137-.538.058-.679-.176s-.067-.537.165-.682l15.802-9.82-16.287 9.403c-.235.139-.536.061-.678-.175-.142-.232-.069-.536.161-.681l19.991-12.584-20.543 11.86c-.236.137-.537.061-.679-.175-.141-.233-.068-.536.163-.682l19.177-12.029-19.569 11.298c-.239.138-.54.057-.681-.178-.139-.235-.063-.54.171-.683l4.219-2.562-4.205 2.428c-.239.137-.541.058-.681-.178s-.063-.54.171-.683l3.273-1.986-3.207 1.852c-.236.138-.536.06-.678-.174-.141-.233-.069-.536.161-.682l20.402-12.891-20.575 11.879c-.239.138-.541.058-.681-.178s-.062-.54.171-.683l2.131-1.292-1.933 1.115c-.236.138-.536.061-.678-.174-.141-.232-.069-.535.16-.681l19.944-12.644-19.897 11.487c-.235.138-.537.061-.678-.174-.141-.232-.069-.535.16-.681l18.802-11.919-18.589 10.731c-.237.137-.541.058-.68-.177-.14-.235-.064-.54.169-.683l4.553-2.783-4.142 2.391c-.235.138-.536.061-.678-.174-.141-.232-.07-.535.16-.681l16.6-10.533-16.098 9.308c-.236.137-.536.06-.677-.173-.142-.231-.072-.534.156-.681l16.81-10.789-16.113 9.303c-.238.137-.54.058-.679-.176-.141-.234-.066-.538.165-.682l5.758-3.567-5.008 2.891c-.238.138-.539.059-.679-.176-.141-.233-.067-.537.164-.682l5.706-3.552-4.84 2.794c-.238.137-.54.058-.68-.176-.14-.235-.065-.538.167-.683l.991-.612-.06.034c-.236.138-.538.061-.679-.175-.141-.233-.068-.536.163-.682l4.376-2.748-3.224 1.861c-.233.137-.529.061-.674-.167-.143-.229-.079-.529.144-.68l11.361-7.681-9.263 5.348c-.232.136-.528.062-.673-.166-.144-.227-.082-.526.14-.679l7.16-4.93-4.367 2.521c-.228.134-.523.064-.669-.159-.145-.223-.091-.52.123-.677l4.048-2.969c-.103-.04-.192-.113-.251-.216-.139-.239-.057-.545.183-.683l6.099-3.521c.229-.133.524-.063.669.159s.091.52-.123.677l-2.661 1.952 7.364-4.252c.234-.135.53-.062.673.166.144.227.082.526-.14.679l-7.164 4.932 10.571-6.103c.234-.135.531-.06.674.167.143.229.079.529-.144.68l-11.36 7.68 14.353-8.286c.237-.136.538-.06.679.175.141.233.068.536-.163.682l-4.387 2.754 5.698-3.289c.236-.138.538-.059.68.176.14.235.065.538-.167.683l-.959.592 1.891-1.091c.236-.139.537-.06.679.176.141.233.067.537-.164.682l-5.729 3.566 6.799-3.925c.236-.138.539-.059.679.176.141.234.066.538-.165.682l-5.762 3.57 6.7-3.868c.236-.136.537-.059.677.173.142.231.072.534-.156.681l-16.803 10.784 18.394-10.619c.236-.136.537-.06.678.174.141.232.07.535-.16.681l-16.606 10.538 17.874-10.319c.237-.138.54-.059.68.177s.064.54-.169.683l-4.551 2.782 5.073-2.929c.237-.136.537-.06.678.174.141.232.069.535-.16.681l-18.8 11.918 19.897-11.487c.238-.137.537-.06.678.174.141.232.069.535-.16.681l-19.947 12.646 20.939-12.089c.237-.139.54-.058.681.178.14.236.062.54-.171.683l-2.105 1.276 2.339-1.35c.236-.136.537-.059.678.174s.069.536-.161.682l-20.398 12.888 21.152-12.212c.237-.14.54-.058.681.178.14.236.063.54-.171.683l-3.285 1.993 3.419-1.974c.237-.139.539-.058.681.178.139.235.063.54-.171.683l-4.224 2.565 4.332-2.501c.237-.137.538-.06.679.175.141.233.068.536-.163.682l-19.178 12.03 19.591-11.311c.237-.137.537-.061.678.175.141.232.069.536-.161.681l-19.986 12.58 20.304-11.722c.237-.138.537-.059.679.176.141.234.067.537-.165.682l-15.807 9.823 15.905-9.183c.237-.139.539-.06.679.176.141.234.066.538-.166.682l-13.812 8.549 13.776-7.953c.237-.139.539-.06.68.177.14.235.064.539-.168.682l-9.036 5.542 8.868-5.119c.236-.139.54-.059.68.178.14.235.064.539-.17.682l-4.514 2.751 4.253-2.455c.237-.136.538-.06.679.175.141.233.068.536-.163.681l-16.822 10.574 16.589-9.577c.236-.139.54-.059.68.178.14.235.064.539-.17.682l-2.666 1.625 2.261-1.305c.237-.136.537-.06.678.174.141.232.069.535-.16.682l-16.377 10.369 15.91-9.186c.236-.138.539-.059.679.176.141.234.066.538-.165.682l-8.509 5.273 7.922-4.573c.236-.139.538-.06.68.177.14.234.065.538-.167.682l-4.839 2.982 4.176-2.41c.236-.136.538-.058.679.175s.067.536-.163.682l-9.276 5.817 8.454-4.881c.235-.137.534-.061.677.172.142.231.072.533-.155.681l-13.259 8.585 12.081-6.975c.236-.137.535-.061.676.171.142.231.074.533-.153.681l-10.761 7.006 9.28-5.357c.234-.135.531-.062.674.167s.079.528-.144.68l-10.419 7.067 8.177-4.721c.229-.136.523-.062.669.16s.091.521-.125.677l-7.304 5.32 3.464-1.999c.239-.14.546-.057.683.183.139.239.057.545-.183.683l-11.629 6.715c-.229.134-.524.062-.669-.16-.146-.223-.091-.521.125-.677l7.308-5.324-11.971 6.911c-.079.046-.165.067-.25.067z" fill="#ffffff" fill-opacity="1" data-original-color="#edcc41ff" stroke="none" stroke-opacity="1"/><g fill="#fff"><path d="m39.027 19.116c-.115 0-.229-.04-.321-.117-.161-.135-.221-.356-.148-.554l.49-1.344c-.147-.007-.346-.088-.439-.25-.139-.239-.057-.545.183-.683l.914-.528c.183-.105.411-.085.571.05.161.135.221.356.148.554l-.456 1.251 1.099-.634c.239-.14.545-.058.683.183.139.239.057.545-.183.683l-2.29 1.322c-.078.045-.164.067-.25.067z" fill="#ffffff" fill-opacity="1" data-original-color="#ffffffff" stroke="none" stroke-opacity="1"/><path d="m39.487 26.428c-.155 0-.309-.072-.405-.207-.15-.208-.119-.495.072-.666l1.844-1.644-1.731.999c-.225.132-.514.066-.662-.149-.147-.214-.105-.507.097-.671l.466-.379c-.194.07-.416.011-.552-.153-.155-.188-.152-.461.007-.646l1.921-2.224-4.702 2.714c-.227.131-.518.064-.663-.151-.147-.216-.104-.51.102-.673l1.115-.888-2.966 1.712c-.209.123-.476.075-.632-.11s-.157-.455-.003-.642l1.509-1.818-4.452 2.57c-.208.123-.477.076-.633-.111-.156-.186-.156-.456 0-.642l1.501-1.796-4.414 2.549c-.225.133-.513.064-.661-.147-.148-.214-.107-.506.094-.671l.133-.109-1.608.928c-.214.125-.49.072-.644-.124s-.14-.476.033-.655l1.355-1.412-3.803 2.195c-.24.138-.546.057-.683-.183-.139-.239-.057-.545.183-.683l6.851-3.955c.214-.125.49-.073.644.124.153.196.14.476-.033.655l-1.355 1.412 3.805-2.196c.225-.133.513-.065.661.147.148.214.107.506-.094.671l-.131.108 1.612-.931c.209-.123.477-.076.633.111.156.186.156.456 0 .642l-1.502 1.796 4.426-2.555c.208-.122.476-.075.632.11s.157.455.003.642l-1.509 1.818 6.355-3.669c.225-.134.517-.065.663.151.147.216.104.51-.102.673l-1.117.89 1.458-.842c.21-.123.479-.075.636.114.155.188.152.461-.007.646l-1.921 2.224 2.743-1.583c.226-.132.514-.065.662.149.147.214.105.507-.097.671l-.422.344.518-.299c.22-.129.506-.069.655.14.15.208.119.495-.072.666l-3.943 3.516c.092.228.004.492-.214.618l-1.404.811c-.078.046-.165.067-.25.067z" fill="#ffffff" fill-opacity="1" data-original-color="#ffffffff" stroke="none" stroke-opacity="1"/><path d="m16.225 30.47c-.141 0-.279-.06-.377-.171-.157-.181-.165-.446-.019-.636l1.185-1.526-1.733 1c-.219.13-.504.069-.654-.139-.15-.207-.12-.495.07-.666l.454-.408c-.199.048-.42-.029-.538-.212-.146-.222-.092-.519.121-.676l4.197-3.092-3.65 2.107c-.22.13-.506.069-.656-.142-.15-.209-.117-.497.076-.667l3.703-3.248-2.845 1.642c-.218.127-.5.07-.652-.136-.151-.204-.124-.49.062-.663l1.574-1.462c-.12-.035-.228-.114-.294-.23-.139-.239-.057-.545.183-.683l2.94-1.697c.217-.128.5-.07.652.136.151.204.124.49-.062.663l-1.068.993 3.4-1.963c.222-.13.507-.067.656.142.15.209.117.497-.076.667l-3.7 3.246 7.034-4.062c.229-.133.524-.063.668.159.146.222.092.519-.121.676l-7.386 5.44s.004.005.005.007c.15.207.12.495-.07.666l-.454.408c.177-.044.372.014.497.156.157.181.165.446.019.636l-1.185 1.526.539-.311c.239-.14.545-.058.683.183.139.239.057.545-.183.683l-2.745 1.585c-.078.046-.164.067-.25.067z" fill="#ffffff" fill-opacity="1" data-original-color="#ffffffff" stroke="none" stroke-opacity="1"/><path d="m40.727 36.557c-.152 0-.302-.07-.399-.199-.152-.202-.129-.486.053-.661l1.269-1.219-.368.213c-.219.13-.502.069-.654-.139-.15-.206-.121-.493.069-.665l.461-.416c-.156.041-.327.003-.455-.108-.161-.141-.215-.368-.134-.565l.665-1.619c-.217.067-.463-.021-.582-.228-.139-.239-.057-.545.183-.683l1.16-.67c.186-.106.417-.085.579.056.161.142.215.369.134.566l-.657 1.602 2.631-1.519c.221-.129.503-.068.654.139.15.206.121.493-.069.665l-.439.397c.194-.06.415.008.544.178.152.202.129.486-.053.661l-1.271 1.22.674-.389c.238-.139.545-.057.683.183.139.239.057.545-.183.683l-4.243 2.45c-.078.046-.164.067-.25.067z" fill="#ffffff" fill-opacity="1" data-original-color="#ffffffff" stroke="none" stroke-opacity="1"/><path d="m21.474 41.499c-.172 0-.341-.09-.433-.25-.139-.239-.057-.545.183-.683l6.875-3.969c.21-.123.478-.075.635.113.155.187.153.459-.005.644l-1.495 1.753 4.349-2.51c.224-.132.513-.065.661.147.147.214.107.505-.093.671l-.171.142 1.662-.96c.21-.124.48-.074.637.116.155.189.15.463-.012.646l-1.468 1.667 4.21-2.43c.211-.124.481-.074.637.115s.15.464-.011.647l-1.465 1.667 8.55-4.936c.221-.129.507-.068.657.142.149.21.115.498-.078.668l-3.518 3.07 2.626-1.516c.225-.132.515-.065.661.148.148.215.106.507-.095.672l-1.04.849c.103.039.193.113.252.216.139.239.057.545-.183.683l-4.039 2.332c-.225.132-.515.065-.661-.148-.148-.215-.106-.507.095-.672l.138-.111-1.701.981c-.22.13-.506.068-.657-.142-.149-.21-.115-.498.078-.668l3.518-3.07-6.731 3.886c-.21.124-.48.074-.637-.115-.155-.189-.15-.464.011-.647l1.465-1.667-4.22 2.436c-.21.123-.481.074-.637-.116-.155-.189-.15-.463.012-.646l1.468-1.667-4.22 2.436c-.224.131-.513.065-.661-.147-.147-.214-.107-.505.093-.671l.175-.144-1.673.965c-.21.123-.478.075-.635-.113-.155-.187-.153-.459.005-.644l1.495-1.753-4.358 2.516c-.079.046-.165.067-.25.067z" fill="#ffffff" fill-opacity="1" data-original-color="#ffffffff" stroke="none" stroke-opacity="1"/><path d="m20.045 44.427c-.121 0-.24-.044-.335-.129-.161-.145-.21-.377-.121-.575l.298-.666-.65.375c-.218.128-.499.071-.651-.135-.151-.203-.126-.488.059-.662l3.207-3.013-4.105 2.37c-.218.128-.499.07-.652-.136-.151-.204-.124-.49.062-.663l1.637-1.521-2.158 1.245c-.213.126-.488.074-.642-.122-.154-.193-.143-.471.026-.652l2.304-2.463-3.036 1.753c-.218.13-.504.069-.654-.139-.15-.207-.12-.494.07-.666l3.945-3.551c-.097-.229-.01-.5.211-.627l1.405-.812c.221-.129.504-.068.654.139s.12.494-.07.666l-1.935 1.74 1.821-1.051c.213-.125.487-.074.642.122.154.193.143.471-.026.652l-2.305 2.464 3.074-1.774c.217-.127.5-.069.652.136.151.204.124.49-.062.663l-1.636 1.52 4.017-2.318c.217-.127.499-.071.651.135.151.203.126.488-.059.662l-4.362 4.099c.15.146.195.371.108.563l-.38.85c.14.025.267.11.343.242.139.239.057.545-.183.683l-.914.528c-.078.045-.164.067-.25.067z" fill="#ffffff" fill-opacity="1" data-original-color="#ffffffff" stroke="none" stroke-opacity="1"/></g><path d="m39.688 2.14c-48.734-12.178-53.75 63.292-3.597 56.534 28.896-5.539 31.79-47.549 3.597-56.534zm18.588 28.054c-3.931 48.743-73.976 27.968-52.51-15.083 14.23-24.741 53.063-13.018 52.51 15.083z" fill="#262626" fill-opacity="1" data-original-color="#262626ff" stroke="none" stroke-opacity="1"/><path d="m46.515 10.38c-17.399-15.168-46.617 1.563-41.835 24.303 12.779 44.429 74.683 8.722 41.835-24.303zm7.383 24.017c-3.899 24.157-38.439 27.068-46.607 4.122-11.46-40.062 50.615-45.387 46.607-4.122z" fill="#262626" fill-opacity="1" data-original-color="#262626ff" stroke="none" stroke-opacity="1"/><path d="m15.568 30.289c7.447 1.082 1.93-5.105 5.149-7 5.816-.07 11.712.059 17.556-.008-.6 6.994 5.366-.293 7.298-2.08.449-.748-.837-1.553-1.309-2.008-1.757-2.183-6.514-6.192-6.012-.481-8.041 1.048-25.245-4.365-23.976 8.841 0 1.169-.272 2.604 1.292 2.737zm.157-5.138c.474-10.149 16.061-4.477 22.801-5.864 1.79.17.967-1.612 1.2-2.717 3.866 4.348 6.593 3.587.9 8.272-.397.323-1.307 1.593-.903.264-.122-.684.343-2.085-.253-2.395-3.662 0-7.323 0-10.984 0-3.162.546-8.399-1.54-10.135 1.94-.259 1.467-.011 3.037-.074 4.524.084.588.25.42-.219.536-3.124.855-2.252-2.632-2.332-4.56z" fill="#262626" fill-opacity="1" data-original-color="#262626ff" stroke="none" stroke-opacity="1"/><path d="m43.695 29.439c-1.034-.006-2.403-.215-3.115.734-1.069 1.425.905 6.004-1.529 6.266-5.747.086-11.529-.055-17.289 0 .566-6.929-5.5.262-7.317 2.132-.536.892.54 1.577 1.112 2.129 1.849 2.005 6.595 6.927 6.208.861 7.263-1.124 17.889 3.058 23.054-3.347.973-2.198 2.53-8.601-1.125-8.775zm.569 5.598c-.817 9.43-16.666 4.077-23.205 5.404-1.44-.04-.355 2.318-.793 2.907-1.175-1.462-3.463-2.928-4.436-4.512 1.422-1.249 2.973-3.113 4.427-4.161.341.797-.658 2.823.688 2.887 4.413-.951 20.136 2.497 20.79-2.607.453-1.255-1.032-4.543.979-4.394 2.626-.604 1.241 2.95 1.548 4.476z" fill="#262626" fill-opacity="1" data-original-color="#262626ff" stroke="none" stroke-opacity="1"/></g></svg>