<svg id="Icons" height="300" viewBox="0 0 60 60" width="300" xmlns="http://www.w3.org/2000/svg" version="1.1" xmlns:xlink="http://www.w3.org/1999/xlink" xmlns:svgjs="http://svgjs.dev/svgjs"><g width="100%" height="100%" transform="matrix(1,0,0,1,0,0)"><path d="m23.972 24.429a.5.5 0 0 1 -.367-.84l1.241-1.337-1.734 1a.5.5 0 0 1 -.592-.8l1.1-1.034-1.482.855a.5.5 0 0 1 -.569-.818l.307-.253-.514.3a.5.5 0 0 1 -.573-.814l1.126-.957-1.474.851a.5.5 0 0 1 -.572-.815l1.537-1.292-1.949 1.125a.5.5 0 0 1 -.562-.824l1.376-1.1-1.738 1a.5.5 0 0 1 -.555-.828l1.244-.963-1.573.907a.5.5 0 0 1 -.546-.835l.442-.326-.67.387a.5.5 0 0 1 -.575-.818l3.223-2.722-3.46 2a.5.5 0 0 1 -.557-.827l1.894-1.475-1.84 1.062a.5.5 0 0 1 -.566-.82l2.166-1.76-2.07 1.2a.5.5 0 0 1 -.587-.8l2.776-2.531-2.647 1.528a.5.5 0 0 1 -.569-.818l1.057-.877-.679.392a.5.5 0 0 1 -.575-.812l.631-.542-.1.06a.5.5 0 0 1 -.66-.72l1.125-1.606a.507.507 0 0 1 -.511-.244.5.5 0 0 1 .182-.683l1.736-1a.5.5 0 0 1 .659.72l-1.087 1.534 2.806-1.62a.5.5 0 0 1 .576.812l-.631.542 1.151-.665a.5.5 0 0 1 .569.818l-1.062.881 1.526-.881a.5.5 0 0 1 .587.8l-2.776 2.533 3.522-2.033a.5.5 0 0 1 .566.82l-2.164 1.757 2.562-1.479a.5.5 0 0 1 .558.826l-1.886 1.475 2.148-1.239a.5.5 0 0 1 .572.814l-3.226 2.724 3.59-2.073a.5.5 0 0 1 .547.835l-.439.324.19-.11a.5.5 0 0 1 .556.828l-1.244.963 1.027-.592a.5.5 0 0 1 .562.823l-1.382 1.107 1.174-.678a.5.5 0 0 1 .573.816l-1.533 1.288 1.34-.775a.5.5 0 0 1 .574.813l-1.127.958.907-.523a.5.5 0 0 1 .661.147.5.5 0 0 1 -.093.671l-.306.252.036-.02a.5.5 0 0 1 .592.8l-1.1 1.035.882-.508a.5.5 0 0 1 .616.772l-1.242 1.337 1.049-.605a.5.5 0 1 1 .5.865l-3.926 2.267a.49.49 0 0 1 -.251.068z" fill="#ffffff" fill-opacity="1" data-original-color="#d6d6d6ff" stroke="none" stroke-opacity="1"/><path d="m21.1 28.217a.5.5 0 0 1 -.423-.767l.893-1.415-2.534 1.465a.5.5 0 0 1 -.6-.786l2.353-2.353-4.233 2.439a.5.5 0 0 1 -.574-.815l2.2-1.865-3.656 2.11a.5.5 0 0 1 -.551-.831l1.128-.853-2.152 1.242a.5.5 0 0 1 -.579-.81l3.648-3.178-5.208 3.01a.5.5 0 0 1 -.542-.838l.806-.584-1.222.7a.5.5 0 0 1 -.541-.84l.244-.173-.551.317a.5.5 0 0 1 -.543-.837l.605-.439-.9.519a.5.5 0 0 1 -.565-.822l2.689-2.179-3.225 1.866a.5.5 0 0 1 -.56-.824l1.828-1.448-2.109 1.218a.5.5 0 0 1 -.55-.833l.038-.028-.036.02a.5.5 0 0 1 -.616-.772l2.292-2.473-2.417 1.395a.5.5 0 0 1 -.647-.736l.846-1.108a.5.5 0 0 1 -.418-.9l2.071-1.2a.5.5 0 0 1 .626.1.5.5 0 0 1 .022.634l-.837 1.095 3.12-1.8a.5.5 0 0 1 .616.772l-2.289 2.471 4.453-2.572a.5.5 0 0 1 .55.833l-.036.027.73-.422a.5.5 0 0 1 .561.824l-1.83 1.45 2.8-1.617a.5.5 0 0 1 .565.822l-2.69 2.179 3.765-2.172a.5.5 0 0 1 .543.837l-.6.435 1.142-.654a.5.5 0 0 1 .541.84l-.244.173.686-.395a.5.5 0 0 1 .542.838l-.8.581 1.261-.728a.5.5 0 0 1 .58.81l-3.646 3.18 4.68-2.707a.5.5 0 0 1 .551.831l-1.129.853 1.483-.855a.5.5 0 0 1 .573.814l-2.2 1.866 2.7-1.56a.5.5 0 0 1 .6.786l-2.353 2.35 1-.574a.5.5 0 0 1 .673.7l-1.062 1.681a.489.489 0 0 1 .3.234.5.5 0 0 1 -.182.682l-1.207.7a.5.5 0 0 1 -.247.064z" fill="#ffffff" fill-opacity="1" data-original-color="#ccccccff" stroke="none" stroke-opacity="1"/><path d="m7.116 46.27a.5.5 0 0 1 -.291-.908l7.624-5.446-9.1 5.256a.5.5 0 0 1 -.527-.85l3.804-2.522-3.742 2.16a.5.5 0 0 1 -.546-.836l7.309-5.366-5.922 3.422a.5.5 0 0 1 -.577-.812l4.077-3.517a.484.484 0 0 1 -.166-.173.5.5 0 0 1 .182-.683l2.992-1.727a.5.5 0 0 1 .577.811l-3 2.587 9.22-5.323a.5.5 0 0 1 .546.836l-7.31 5.367 10.044-5.8a.5.5 0 0 1 .527.85l-3.81 2.521 3.862-2.229a.5.5 0 0 1 .671.162.5.5 0 0 1 -.13.678l-7.62 5.445 7.789-4.5a.5.5 0 0 1 .547.834l-5.657 4.2.185-.106a.5.5 0 0 1 .5.865l-7.722 4.458a.5.5 0 0 1 -.548-.834l5.658-4.2-9.196 5.31a.493.493 0 0 1 -.25.07z" fill="#ffffff" fill-opacity="1" data-original-color="#d6d6d6ff" stroke="none" stroke-opacity="1"/><path d="m15.808 55.721a.5.5 0 0 1 -.3-.9l3.066-2.335-3.669 2.114a.5.5 0 0 1 -.54-.839l2.493-1.779-2.372 1.369a.5.5 0 0 1 -.535-.842l2.068-1.438-1.635.944a.5.5 0 0 1 -.53-.847l.938-.637-.312.18a.5.5 0 0 1 -.549-.833l6.262-4.678-5.157 2.977a.5.5 0 0 1 -.54-.84l4.488-3.194-3.161 1.824a.5.5 0 0 1 -.547-.835l3.755-2.777-2.074 1.2a.5.5 0 0 1 -.571-.817l3.124-2.615-.69.4a.5.5 0 0 1 -.6-.786l2.58-2.595a.5.5 0 0 1 .193-.664l1.167-.678a.5.5 0 0 1 .605.785l-1.174 1.178 2.4-1.385a.5.5 0 0 1 .572.816l-3.126 2.616 4.748-2.74a.5.5 0 0 1 .546.835l-3.756 2.778 4.619-2.666a.5.5 0 0 1 .54.839l-4.486 3.194 3.352-1.936a.5.5 0 0 1 .55.833l-6.263 4.682 4.97-2.869a.5.5 0 0 1 .53.846l-.934.633a.5.5 0 0 1 .521.852l-2.074 1.447 1.077-.622a.5.5 0 0 1 .54.84l-2.487 1.772 1.445-.834a.5.5 0 0 1 .553.83l-3.065 2.334.613-.353a.5.5 0 0 1 .5.865l-7.418 4.283a.5.5 0 0 1 -.25.068z" fill="#ffffff" fill-opacity="1" data-original-color="#ccccccff" stroke="none" stroke-opacity="1"/><path d="m42.331 55.729a.5.5 0 0 1 -.341-.866l.293-.272-.959.554a.5.5 0 0 1 -.615-.774l2.331-2.5-3.519 2.029a.5.5 0 0 1 -.594-.8l2.9-2.757-3.775 2.187a.5.5 0 0 1 -.565-.821l2.05-1.66-2.437 1.408a.5.5 0 0 1 -.578-.811l3.313-2.877-3.869 2.231a.5.5 0 0 1 -.556-.828l1.944-1.5-2.135 1.228a.5.5 0 0 1 -.571-.816l2.859-2.384-2.741 1.582a.5.5 0 0 1 -.557-.827l1.187-.925-.965.558a.5.5 0 0 1 -.6-.794l2.838-2.712-2.777 1.6a.5.5 0 0 1 -.563-.823l.549-.442-.293.169a.5.5 0 0 1 -.585-.8l1.378-1.246-1.178.68a.5.5 0 0 1 -.612-.778l1.648-1.729-1.5.864a.5.5 0 0 1 -.61-.779l1.029-1.068-.807.465a.5.5 0 0 1 -.5-.865l3.877-2.238a.5.5 0 0 1 .611.779l-1.03 1.067 1.438-.829a.5.5 0 0 1 .612.778l-1.648 1.729 2.246-1.3a.5.5 0 0 1 .585.8l-1.377 1.245 1.8-1.04a.5.5 0 0 1 .563.822l-.552.445.8-.459a.5.5 0 0 1 .6.794l-2.838 2.711 3.645-2.1a.5.5 0 0 1 .556.827l-1.188.926 1.512-.873a.5.5 0 0 1 .57.816l-2.86 2.383 3.48-2.009a.5.5 0 0 1 .556.829l-1.945 1.5 1.975-1.133a.5.5 0 0 1 .578.81l-3.314 2.881 3.432-1.981a.5.5 0 0 1 .565.821l-2.052 1.662 1.939-1.119a.5.5 0 0 1 .595.795l-2.9 2.757 2.761-1.594a.5.5 0 0 1 .616.773l-2.331 2.5 1.889-1.09a.5.5 0 0 1 .591.8l-.517.481a.5.5 0 0 1 .247.933l-3.351 1.934a.489.489 0 0 1 -.253.066z" fill="#ffffff" fill-opacity="1" data-original-color="#d6d6d6ff" stroke="none" stroke-opacity="1"/><path d="m50.842 46.327a.5.5 0 0 1 -.343-.863l1.116-1.054-2.61 1.506a.5.5 0 0 1 -.562-.823l.614-.489-1.544.89a.5.5 0 0 1 -.569-.818l1.883-1.551-3.02 1.743a.5.5 0 0 1 -.547-.835l.338-.249-.977.564a.5.5 0 0 1 -.559-.826l2.25-1.77-3.185 1.839a.5.5 0 0 1 -.557-.827l2.39-1.859-3.241 1.871a.5.5 0 0 1 -.547-.835l1.333-.982-1.9 1.1a.5.5 0 0 1 -.562-.824l3.061-2.447-3.889 2.245a.5.5 0 0 1 -.549-.833l1.238-.924-1.656.957a.5.5 0 0 1 -.566-.821l2.269-1.85-2.806 1.619a.5.5 0 0 1 -.6-.792l2.708-2.617-2.511 1.449a.5.5 0 0 1 -.579-.81l.863-.754a.564.564 0 0 1 -.344-.128.5.5 0 0 1 -.124-.574l.981-2.217a.488.488 0 0 1 -.069-.093.5.5 0 0 1 .182-.683l.45-.26a.5.5 0 0 1 .707.635l-.709 1.617 2.632-1.519a.5.5 0 0 1 .579.809l-.627.547 1.6-.921a.5.5 0 0 1 .6.792l-2.707 2.616 4.662-2.691a.5.5 0 0 1 .566.82l-2.275 1.849 3.67-2.117a.5.5 0 0 1 .549.833l-1.249.928 2.235-1.29a.5.5 0 0 1 .562.824l-3.056 2.443 3.921-2.264a.5.5 0 0 1 .547.835l-1.336.985 1.789-1.033a.5.5 0 0 1 .556.828l-2.392 1.86 2.939-1.7a.5.5 0 0 1 .559.825l-2.25 1.77 2.7-1.558a.5.5 0 0 1 .547.835l-.337.248.461-.266a.5.5 0 0 1 .568.818l-1.881 1.55 2.1-1.21a.5.5 0 0 1 .562.824l-.617.492.542-.313a.5.5 0 0 1 .593.8l-1.114 1.053.829-.479a.5.5 0 0 1 .5.866l-4.535 2.617a.489.489 0 0 1 -.25.067z" fill="#ffffff" fill-opacity="1" data-original-color="#ccccccff" stroke="none" stroke-opacity="1"/><path d="m37.893 28.222a.5.5 0 0 1 -.285-.911l7.146-4.936-7.38 4.26a.5.5 0 0 1 -.522-.852l1.309-.85-1.275.736a.5.5 0 0 1 -.538-.841l6.675-4.706-5.723 3.3a.5.5 0 0 1 -.528-.849l2.849-1.9a.5.5 0 0 1 -.109-.85l2.99-2.372a.417.417 0 0 1 -.04-.06.5.5 0 0 1 .183-.682l2.95-1.7a.5.5 0 0 1 .663.151.5.5 0 0 1 -.1.673l-.7.554 4.463-2.577a.5.5 0 0 1 .527.849l-.2.135 1.848-1.067a.5.5 0 0 1 .538.841l-6.682 4.711 8.342-4.815a.5.5 0 0 1 .522.851l-1.3.848 1.442-.833a.5.5 0 0 1 .534.844l-7.143 4.934 6.623-3.823a.5.5 0 0 1 .552.831l-4.983 3.77 2.616-1.511a.5.5 0 1 1 .5.865l-9.594 5.54a.5.5 0 0 1 -.552-.831l4.985-3.77-10.353 5.975a.5.5 0 0 1 -.25.068z" fill="#ffffff" fill-opacity="1" data-original-color="#d6d6d6ff" stroke="none" stroke-opacity="1"/><path d="m37.606 24.27a.5.5 0 0 1 -.351-.857l.845-.832-1.9 1.1a.5.5 0 0 1 -.557-.826l1.085-.855-2.065 1.191a.5.5 0 0 1 -.549-.833l2.672-2-3.918 2.262a.5.5 0 0 1 -.543-.838l4.3-3.107-3.925 2.274a.5.5 0 0 1 -.55-.833l6.419-4.8-5.119 2.953a.5.5 0 0 1 -.551-.832l6.065-4.559-4.774 2.756a.5.5 0 0 1 -.543-.838l3.815-2.756-2.7 1.559a.5.5 0 0 1 -.547-.835l3.329-2.453-1.985 1.145a.5.5 0 0 1 -.579-.81l3.873-3.365a.5.5 0 0 1 -.142-.921l3.617-2.088a.5.5 0 0 1 .578.81l-3.349 2.911 5.243-3.027a.5.5 0 0 1 .547.835l-3.33 2.454 3.42-1.975a.5.5 0 0 1 .543.838l-3.81 2.753 3.444-1.988a.5.5 0 0 1 .551.832l-6.065 4.561 5.257-3.035a.5.5 0 0 1 .55.833l-6.414 4.8 5.107-2.953a.5.5 0 0 1 .542.838l-4.3 3.111 2.8-1.615a.5.5 0 0 1 .548.833l-2.67 1.994.9-.518a.5.5 0 0 1 .558.827l-1.678 1.309a.494.494 0 0 1 .331.193.5.5 0 0 1 -.046.659l-2.4 2.368a.5.5 0 0 1 -.207.636l-1.116.644a.49.49 0 0 1 -.256.07z" fill="#ffffff" fill-opacity="1" data-original-color="#ccccccff" stroke="none" stroke-opacity="1"/><g fill="#e2e2e0"><path d="m13.184 35.467a.5.5 0 0 1 -.312-.892l2.309-1.838-4.422 2.553a.5.5 0 0 1 -.541-.839l1.859-1.33-3.317 1.915a.5.5 0 0 1 -.536-.843l2.654-1.857-3.986 2.3a.5.5 0 0 1 -.539-.84l3.386-2.405-4.633 2.675a.5.5 0 0 1 -.547-.834l4.382-3.255-5.6 3.234a.5.5 0 0 1 -.533-.845l.675-.464-1.083.622a.5.5 0 0 1 -.562-.823l3.588-2.871-4.019 2.319a.5.5 0 0 1 -.615-.773l1.964-2.105-.692.4a.5.5 0 0 1 -.5-.865l3.593-2.076a.5.5 0 0 1 .615.774l-1.963 2.1 6.81-3.931a.5.5 0 0 1 .563.823l-3.582 2.875 6.479-3.74a.5.5 0 0 1 .533.845l-.679.466 2.016-1.164a.5.5 0 0 1 .548.834l-4.387 3.256 6.345-3.662a.5.5 0 0 1 .539.84l-3.383 2.4 4.733-2.731a.5.5 0 0 1 .537.843l-2.656 1.857 2.258-1.3a.5.5 0 0 1 .541.839l-1.862 1.332 1.325-.764a.5.5 0 0 1 .562.824l-2.307 1.834 1.75-1.01a.5.5 0 0 1 .591.8l-1.272 1.188.685-.395a.5.5 0 0 1 .687.677l-.32.568a.5.5 0 0 1 .137.92l-1.083.626a.5.5 0 0 1 -.687-.677l.191-.339-2.9 1.677a.5.5 0 0 1 -.591-.8l1.27-1.189-3.766 2.174a.5.5 0 0 1 -.25.067z" fill="#ffffff" fill-opacity="1" data-original-color="#e2e2e0ff" stroke="none" stroke-opacity="1"/><path d="m29.781 59.452a.5.5 0 0 1 -.344-.862l.714-.68-1.492.861a.5.5 0 0 1 -.6-.792l3.017-2.9-3.69 2.131a.5.5 0 0 1 -.55-.833l.83-.622-.79.456a.5.5 0 0 1 -.571-.815l3.9-3.269-3.984 2.3a.5.5 0 0 1 -.569-.819l4.37-3.608-4.279 2.47a.5.5 0 0 1 -.564-.822l4.371-3.529-4.1 2.369a.5.5 0 0 1 -.556-.828l3.637-2.82-3.22 1.86a.5.5 0 0 1 -.557-.827l3.519-2.738-2.982 1.722a.5.5 0 0 1 -.555-.83l2.862-2.2-2.221 1.282a.5.5 0 0 1 -.563-.822l1.645-1.319-.9.516a.5.5 0 0 1 -.606-.783l1.147-1.157-.19.108a.5.5 0 0 1 -.689-.671l.538-.992a.482.482 0 0 1 -.09-.114.5.5 0 0 1 .183-.683l.617-.356a.5.5 0 0 1 .689.671l-.214.393 1.856-1.07a.5.5 0 0 1 .606.783l-1.137 1.155 3.37-1.946a.5.5 0 0 1 .562.823l-1.642 1.317 3.094-1.786a.5.5 0 0 1 .555.829l-2.865 2.2 2.724-1.572a.5.5 0 0 1 .556.827l-3.523 2.74 3.288-1.9a.5.5 0 0 1 .556.828l-3.639 2.821 3.295-1.9a.5.5 0 0 1 .565.821l-4.365 3.53 3.914-2.259a.5.5 0 0 1 .568.818l-4.372 3.608 3.75-2.164a.5.5 0 0 1 .571.816l-3.895 3.267 3.079-1.777a.5.5 0 0 1 .55.833l-.83.622h.007a.5.5 0 0 1 .6.793l-3.016 2.9 1.574-.917a.5.5 0 0 1 .595.8l-1.283 1.21a.488.488 0 0 1 .258.219.5.5 0 0 1 -.183.683l-2.656 1.533a.489.489 0 0 1 -.25.067z" fill="#ffffff" fill-opacity="1" data-original-color="#e2e2e0ff" stroke="none" stroke-opacity="1"/><path d="m46.68 35.464a.5.5 0 0 1 -.308-.894l4.428-3.459-7.05 4.07a.5.5 0 0 1 -.532-.845l1.272-.872-2.484 1.436a.5.5 0 0 1 -.538-.84l3.1-2.19-4.434 2.56a.5.5 0 0 1 -.558-.827l5.442-4.242-5.5 3.176a.5.5 0 0 1 -.547-.835l2.39-1.767-1.841 1.059a.5.5 0 0 1 -.582-.807l2.477-2.187-1.895 1.093a.5.5 0 0 1 -.716-.614l.579-1.492a.5.5 0 0 1 -.363-.921l1.081-.623a.506.506 0 0 1 .575.054.5.5 0 0 1 .14.561l-.566 1.459 4.979-2.874a.5.5 0 0 1 .582.807l-2.477 2.188 5.166-2.983a.5.5 0 0 1 .547.835l-2.385 1.764 4.1-2.367a.5.5 0 0 1 .557.827l-5.444 4.243 7.73-4.457a.5.5 0 0 1 .539.841l-3.1 2.185 4.228-2.44a.5.5 0 0 1 .533.845l-1.277.874 1.949-1.124a.5.5 0 0 1 .557.826l-4.426 3.46 5.377-3.1a.5.5 0 0 1 .54.84l-.8.574.843-.487a.5.5 0 0 1 .577.812l-1.9 1.638 1.258-.725a.5.5 0 1 1 .5.865l-5.85 3.378a.5.5 0 0 1 -.576-.812l1.9-1.639-5.248 3.029a.5.5 0 0 1 -.541-.84l.808-.576-2.566 1.476a.493.493 0 0 1 -.25.064z" fill="#ffffff" fill-opacity="1" data-original-color="#e2e2e0ff" stroke="none" stroke-opacity="1"/><path d="m28.7 21.244a.5.5 0 0 1 -.327-.878l2.218-1.923-4.218 2.435a.5.5 0 0 1 -.57-.816l4.363-3.634-4.321 2.494a.5.5 0 0 1 -.564-.822l4.25-3.418-4.02 2.318a.5.5 0 0 1 -.545-.837l1.954-1.426-1.555.9a.5.5 0 0 1 -.541-.839l1.146-.82-.672.387a.5.5 0 0 1 -.557-.828l3.39-2.627-2.831 1.634a.5.5 0 0 1 -.562-.823l3.482-2.779-2.79 1.611a.5.5 0 0 1 -.57-.818l3.371-2.8-2.483 1.429a.5.5 0 0 1 -.553-.83l.813-.619a.505.505 0 0 1 -.562-.179.5.5 0 0 1 .064-.663l2.122-1.957-.69.4a.5.5 0 0 1 -.593-.8l1.164-1.1a.49.49 0 0 1 -.11-.132.5.5 0 0 1 .183-.682l2.073-1.202a.5.5 0 0 1 .594.8l-.13.123.9-.522a.5.5 0 0 1 .589.8l-2.112 1.957 2.72-1.57a.5.5 0 0 1 .553.83l-.751.573.785-.453a.5.5 0 0 1 .569.817l-3.376 2.804 3.5-2.022a.5.5 0 0 1 .561.824l-3.478 2.776 3.417-1.971a.5.5 0 0 1 .557.828l-3.393 2.63 3.174-1.834a.5.5 0 0 1 .541.839l-1.145.819.783-.451a.5.5 0 0 1 .545.837l-1.954 1.425 1.54-.889a.5.5 0 0 1 .564.823l-4.251 3.419 3.758-2.169a.5.5 0 0 1 .57.816l-4.363 3.634 3.69-2.13a.5.5 0 0 1 .577.81l-2.219 1.927 1.409-.812a.5.5 0 0 1 .673.7l-1.1 1.735a.5.5 0 0 1 .374.917l-1.609.929a.5.5 0 0 1 -.673-.7l1.076-1.7-4.179 2.412a.491.491 0 0 1 -.245.063z" fill="#ffffff" fill-opacity="1" data-original-color="#e2e2e0ff" stroke="none" stroke-opacity="1"/></g><path d="m29.435 40.447a.5.5 0 0 1 -.286-.91l.3-.21-1.424.821a.5.5 0 0 1 -.552-.83l5.939-4.525-7.768 4.484a.5.5 0 0 1 -.543-.837l6.8-4.955-8.001 4.624a.5.5 0 0 1 -.522-.851l.078-.052-.331.191a.5.5 0 0 1 -.525-.85l2.1-1.382-2.338 1.35a.5.5 0 0 1 -.524-.851l2.237-1.472-2.375 1.368a.5.5 0 0 1 -.525-.851l2.5-1.648-2.521 1.455a.5.5 0 0 1 -.532-.846l5.3-3.621-5.275 3.051a.5.5 0 0 1 -.539-.841l6.526-4.625-6.318 3.647a.5.5 0 0 1 -.537-.841l4.8-3.37-4.259 2.459a.5.5 0 0 1 -.556-.828l5.713-4.428-4.543 2.627a.5.5 0 0 1 -.592-.8l3.223-3.027-.08.046a.5.5 0 0 1 -.5-.865l3.827-2.209a.5.5 0 0 1 .591.8l-3.222 3.025 7.172-4.14a.5.5 0 0 1 .556.828l-5.716 4.429 7.733-4.463a.5.5 0 0 1 .537.841l-4.8 3.368 5.782-3.339a.5.5 0 0 1 .539.84l-6.525 4.625 7.4-4.273a.5.5 0 0 1 .533.846l-5.306 3.624 5.747-3.318a.5.5 0 0 1 .525.851l-2.5 1.649 2.608-1.505a.5.5 0 0 1 .524.851l-2.233 1.469 2.215-1.278a.5.5 0 0 1 .525.85l-2.097 1.375 1.945-1.122a.5.5 0 0 1 .522.852l-.207.134a.5.5 0 0 1 .463.875l-6.807 4.961 6.384-3.691a.5.5 0 0 1 .553.83l-5.939 4.524 4.96-2.863a.5.5 0 0 1 .536.843l-.914.635a.506.506 0 0 1 .418.213.5.5 0 0 1 -.085.669l-2.329 1.971a.5.5 0 0 1 .118.915l-3.828 2.21a.5.5 0 0 1 -.573-.814l1.692-1.43-4.624 2.668a.5.5 0 0 1 -.25.067z" fill="#ffffff" fill-opacity="1" data-original-color="#efb31dff" stroke="none" stroke-opacity="1"/><path d="m58.938 27.961c-2.152-2.412-5.863-3-8.9-3.369 10.488-7.1 6.008-14.507-5.308-9.212 5.557-11-1.925-15.3-9.171-5.628-.659-11.819-10.012-12.138-11.052-.263-6.894-9.659-14.634-5.106-9.507 5.611-11.374-5-15.222 3.05-5.048 9.688-12.898 1.112-12.227 10.012.389 10.518-10.747 6.975-6.769 14.538 4.95 9.122-5.547 10.872 1.727 16.072 9.167 5.965.66 11.686 10.049 11.548 11.02.095 6.916 9.685 14.673 5.044 9.5-5.655 11.068 4.825 15.393-2.734 5.214-9.473 3.587-.276 11.871-2.479 8.746-7.399zm-9.426-13.181c9.5-1.7 3.425 7.465-1.03 9.688a25.354 25.354 0 0 0 -8.78 1.024 10.231 10.231 0 0 0 -1.041-1.725 24.41 24.41 0 0 0 5.4-7.051 21.328 21.328 0 0 1 5.451-1.936zm-13.58 22.806c-.3.1-.559.273-.566.458-9.48 6.883-20.122-8.257-11.426-15.493.373-.072.726-.306.715-.571a8.9 8.9 0 0 1 1.257-.76 1.082 1.082 0 0 0 .977-.416 8.709 8.709 0 0 1 6.192.181c6.573 2.421 8.349 12.025 2.851 16.601zm5.868-32.386c8.357-.354-.313 15.334-3.654 17.944a10.088 10.088 0 0 0 -3.57-2.584 24.627 24.627 0 0 0 1.112-9.217c1.531-2.327 3.528-4.933 6.112-6.143zm-13.9-2.129c6.2-6.758 7.45 13.706 5.407 17.029a11.352 11.352 0 0 0 -6.484.172c-1.597-5.512-1.734-12.06 1.077-17.201zm-12.831 7.339c-1.862-9.869 6.954-3.19 9.221 1.256a24.564 24.564 0 0 0 1.134 9.15 11.5 11.5 0 0 0 -1.17.626 25.021 25.021 0 0 0 -7.173-5.365 22.236 22.236 0 0 1 -2.012-5.667zm-9.112 8.278c-3-9.77 15.084-.03 17.15 3.566a9.935 9.935 0 0 0 -2.7 3.3 25.851 25.851 0 0 0 -8.379-.936 17.752 17.752 0 0 1 -6.071-5.93zm-2.702 13.512c-4.991-4.395 4.3-6.828 7.689-6.74a24.185 24.185 0 0 1 9.056 1.021 10.244 10.244 0 0 0 -.082 7.209c-5.364 1.41-11.818 1.51-16.663-1.49zm7.123 13.212c-9.407 1.417-3.278-7.821 1.132-10.036a26.152 26.152 0 0 0 8.68-1.013 8.942 8.942 0 0 0 1.054 1.776 25.539 25.539 0 0 0 -5.531 7.432 19.739 19.739 0 0 1 -5.335 1.842zm7.922 9.088c-8.585 1.405.267-15.223 3.63-17.524a10.1 10.1 0 0 0 3.527 2.453 24.489 24.489 0 0 0 -1.154 9.078c-1.51 2.293-3.464 4.793-6.003 5.993zm13.88 2.415c-3.811 6.008-6.625-5.75-6.422-8.686a24.629 24.629 0 0 1 .909-8.371 11.227 11.227 0 0 0 6.5-.144c1.616 5.523 1.733 12.016-.984 17.205zm12.72-7.503c2.028 10.067-6.822 3.537-9.195-1.086a24.308 24.308 0 0 0 -1.129-9.16 11.435 11.435 0 0 0 1.167-.639 25.026 25.026 0 0 0 7.146 5.328 22.9 22.9 0 0 1 2.011 5.557zm9.191-8.027c2.9 9.868-15.137-.046-17.229-3.657a10.56 10.56 0 0 0 2.65-3.207 25.593 25.593 0 0 0 8.739 1 17.009 17.009 0 0 1 5.835 5.864zm-3.725-7.126a24.571 24.571 0 0 1 -10.339-.838 9.781 9.781 0 0 0 .1-6.945c8.299-3.929 29.589 3.951 10.234 7.783z" fill="#262626" fill-opacity="1" data-original-color="#262626ff" stroke="none" stroke-opacity="1"/></g></svg>