<svg id="Icons" viewBox="0 0 60 60" xmlns="http://www.w3.org/2000/svg" width="300" height="300" version="1.1" xmlns:xlink="http://www.w3.org/1999/xlink" xmlns:svgjs="http://svgjs.dev/svgjs"><g width="100%" height="100%" transform="matrix(1,0,0,1,0,0)"><path d="m29.871 17.087c-.167 0-.331-.084-.425-.237-.143-.23-.076-.531.149-.68l4.147-2.743-3.78 2.183c-.233.134-.529.062-.673-.166-.144-.227-.082-.526.139-.679l7.998-5.52-7.682 4.435c-.233.135-.529.061-.673-.167-.144-.227-.081-.527.141-.679l5.576-3.814-5.229 3.019c-.235.134-.533.06-.675-.17-.143-.229-.076-.531.149-.68l.711-.47c-.21.069-.451-.008-.576-.202-.146-.223-.09-.521.125-.677l3.312-2.403-1.851 1.068c-.219.127-.501.069-.653-.138-.15-.206-.122-.492.066-.665l2.702-2.471c-.158-.013-.308-.101-.393-.249-.139-.239-.057-.545.183-.683l3.382-1.953c.22-.126.502-.068.653.138.15.206.122.492-.066.665l-2.399 2.194 6.172-3.563c.229-.134.524-.063.669.161.146.223.09.521-.125.677l-3.309 2.401 5.834-3.369c.233-.135.533-.061.675.17.143.23.076.531-.149.68l-.578.382 2.215-1.279c.235-.133.53-.061.673.167.144.227.081.527-.141.679l-5.574 3.812 7.09-4.093c.234-.133.53-.062.673.166.144.227.082.526-.139.679l-7.996 5.518 7.308-4.219c.233-.135.533-.06.675.17.143.23.076.531-.149.68l-4.152 2.746 3.071-1.773c.229-.134.524-.062.67.162.145.224.089.521-.127.677l-4.457 3.216 2.617-1.511c.238-.138.545-.058.683.183.139.239.057.545-.183.683l-11.144 6.434c-.229.132-.524.062-.67-.162-.145-.224-.089-.521.127-.677l4.456-3.215-8.823 5.094c-.079.045-.165.067-.25.067z" fill="#ffffff" fill-opacity="1" data-original-color="#9bba39ff" stroke="none" stroke-opacity="1" style=""/><path d="m29.52 18.313c-.118 0-.236-.042-.329-.124-.161-.141-.215-.369-.133-.566l.356-.867-1.528.883c-.199.115-.453.08-.612-.088-.159-.167-.183-.422-.058-.616l1.177-1.82-2.987 1.725c-.21.122-.48.074-.638-.117-.154-.19-.149-.464.014-.647l2.138-2.411-4.07 2.351c-.219.128-.507.069-.657-.144-.149-.21-.115-.499.08-.668l2.223-1.921-3.626 2.094c-.226.131-.52.064-.665-.154-.146-.218-.1-.513.108-.674l1.898-1.474-3.039 1.754c-.229.133-.525.062-.669-.161-.146-.223-.09-.521.125-.677l1.126-.817-2.048 1.182c-.23.132-.525.062-.669-.161-.146-.223-.09-.52.125-.677l2.066-1.504-3.147 1.817c-.227.131-.518.064-.664-.153-.147-.218-.101-.512.106-.674l4.667-3.647-6.445 3.721c-.229.131-.521.063-.666-.156-.146-.219-.097-.514.112-.674l5.215-3.989-7.026 4.057c-.229.134-.526.062-.672-.164-.144-.226-.084-.525.135-.678l3.298-2.314-4.174 2.41c-.229.132-.525.062-.671-.163-.144-.225-.087-.522.131-.678l4.054-2.893-4.464 2.578c-.232.134-.526.061-.672-.164-.144-.226-.084-.524.135-.678l2.724-1.913-2.902 1.676c-.227.131-.518.065-.664-.153-.147-.218-.101-.512.106-.674l4.389-3.43-4.658 2.69c-.219.128-.505.068-.656-.142-.149-.208-.117-.497.076-.667l3.195-2.814-3.269 1.888c-.22.128-.507.068-.657-.143-.149-.209-.115-.499.079-.667l.771-.668-.491.284c-.184.105-.41.084-.571-.05-.161-.135-.221-.356-.148-.554l.389-1.075c-.217.069-.466-.018-.585-.226-.139-.239-.057-.545.183-.683l1.083-.625c.183-.105.409-.085.571.05.161.135.221.356.148.554l-.383 1.058 3.822-2.207c.221-.127.508-.067.657.143.149.209.115.499-.079.667l-.77.667 3.104-1.792c.222-.127.507-.067.656.142.149.208.117.497-.076.667l-3.195 2.814 6.492-3.749c.226-.131.518-.064.664.153.147.218.101.512-.106.674l-4.39 3.431 6.476-3.739c.229-.134.527-.061.672.164.144.226.084.524-.135.678l-2.727 1.915 3.712-2.143c.229-.134.525-.062.671.163.144.225.087.522-.131.678l-4.053 2.892 4.978-2.874c.23-.134.527-.062.672.164.144.226.084.525-.135.678l-3.297 2.313 3.898-2.251c.227-.133.521-.064.666.156.146.219.097.514-.112.674l-5.215 3.989 5.947-3.434c.227-.132.519-.064.664.153.147.218.101.512-.106.674l-4.667 3.648 5.155-2.977c.228-.134.524-.063.669.161.146.223.09.52-.125.677l-2.065 1.503 2.141-1.236c.229-.134.524-.063.669.161.146.223.09.521-.125.677l-1.126.817 1.082-.625c.227-.132.519-.064.665.154s.1.513-.108.674l-1.897 1.473 1.861-1.075c.221-.128.508-.068.657.144.149.21.115.499-.08.668l-2.222 1.92 2.174-1.255c.21-.121.48-.074.638.117.154.19.149.464-.014.647l-2.139 2.412 2.113-1.22c.201-.114.453-.079.612.088s.183.422.058.616l-1.176 1.819 1.005-.581c.186-.107.42-.085.579.057.161.141.215.369.133.566l-.512 1.243c.074.042.139.104.185.184.139.239.057.545-.183.683l-.619.357c-.078.045-.164.067-.25.067z" fill="#ffffff" fill-opacity="1" data-original-color="#a6ce44ff" stroke="none" stroke-opacity="1" style=""/><path d="m16.739 42.463c-.164 0-.324-.081-.419-.228-.146-.224-.09-.521.125-.677l7.779-5.647-10.546 6.088c-.233.137-.528.061-.672-.165-.144-.227-.083-.525.137-.679l9.422-6.528-11.391 6.576c-.235.137-.535.06-.676-.171-.142-.23-.074-.532.152-.681l6.601-4.305-7.635 4.408c-.235.137-.536.06-.678-.174-.141-.232-.069-.535.16-.681l3.239-2.055-3.86 2.229c-.234.136-.532.061-.675-.169-.143-.229-.077-.529.146-.68l11.859-7.933-13.01 7.511c-.238.138-.539.059-.679-.176-.141-.233-.067-.537.164-.682l.237-.146-.499.287c-.238.137-.539.058-.679-.176-.141-.233-.067-.537.164-.682l1.151-.717-1.376.794c-.236.136-.535.06-.676-.171-.142-.23-.074-.531.152-.68l11.551-7.564-12.134 7.005c-.235.137-.534.061-.676-.171-.143-.231-.074-.533.153-.681l10.924-7.104-11.298 6.522c-.238.137-.539.058-.679-.176-.141-.234-.067-.538.165-.682l.236-.146-.184.105c-.236.137-.536.061-.677-.172-.142-.231-.072-.533.155-.681l9.68-6.249-9.769 5.64c-.236.137-.534.06-.676-.171s-.074-.533.153-.681l10.411-6.78-10.364 5.993c-.235.135-.536.059-.677-.173-.142-.232-.072-.534.156-.681l7.491-4.808-7.257 4.19c-.235.133-.532.06-.675-.169s-.077-.53.147-.68l11.159-7.449-10.785 6.228c-.234.135-.533.06-.676-.17-.142-.23-.075-.531.15-.68l8.281-5.457-7.669 4.428c-.235.136-.533.06-.676-.171-.142-.23-.075-.532.151-.68l5.957-3.907-5.141 2.968c-.236.137-.535.059-.677-.173s-.072-.534.156-.681l1.01-.648-.091.053c-.236.134-.533.06-.676-.17-.142-.23-.075-.531.15-.68l2.684-1.771-1.457.841c-.234.134-.533.059-.675-.17-.143-.229-.077-.531.148-.68l1.249-.829c-.161.011-.335-.068-.438-.216-.147-.215-.105-.508.098-.672l3.569-2.889c-.161-.011-.314-.099-.4-.249-.139-.239-.057-.545.183-.683l4.811-2.778c.226-.13.514-.065.662.15.147.215.105.508-.098.672l-3.151 2.551 7.465-4.311c.234-.135.533-.061.675.17.143.229.077.53-.148.68l-.523.348 1.985-1.146c.234-.135.532-.061.676.17.142.23.075.531-.15.68l-2.679 1.769 4.047-2.337c.236-.135.536-.06.677.173.142.232.072.534-.156.681l-1.015.651 1.949-1.125c.236-.135.533-.06.676.171.142.23.075.532-.151.68l-5.952 3.904 7.124-4.113c.234-.135.532-.061.676.17.142.23.075.531-.15.68l-8.286 5.459 9.437-5.448c.233-.136.531-.06.675.169.143.229.077.53-.147.68l-11.157 7.447 12.339-7.124c.237-.136.536-.059.677.173.142.232.072.534-.156.681l-7.491 4.808 8.103-4.678c.236-.135.534-.059.676.171.142.231.074.533-.153.681l-10.411 6.781 11.067-6.39c.236-.134.536-.059.677.172.142.231.072.534-.155.681l-9.682 6.25 10.127-5.847c.236-.137.538-.058.679.176s.067.538-.165.682l-.235.146.271-.156c.235-.135.534-.06.676.172.143.231.074.533-.153.68l-10.926 7.105 11.195-6.464c.235-.135.534-.06.676.171s.074.532-.152.681l-11.553 7.565 11.697-6.753c.237-.137.537-.058.679.176.141.234.067.538-.164.682l-1.145.713.936-.541c.236-.137.538-.058.679.176s.067.538-.164.682l-.257.16c.228-.116.511-.039.649.183.143.229.077.53-.146.68l-11.859 7.933 11.59-6.691c.236-.135.537-.059.678.174.141.232.069.535-.16.681l-3.229 2.048 2.731-1.577c.235-.135.534-.06.676.171s.074.533-.152.681l-6.601 4.304 5.943-3.432c.23-.133.529-.061.672.166.144.227.083.526-.137.679l-9.426 6.531 8.332-4.81c.229-.133.524-.062.669.161.146.223.09.521-.125.677l-7.777 5.646 5.924-3.42c.227-.135.52-.064.666.156s.097.515-.113.675l-3.918 2.976.98-.565c.238-.14.545-.057.683.183.139.239.057.545-.183.683l-7.842 4.527c-.228.133-.521.063-.666-.156-.146-.22-.097-.515.113-.675l3.918-2.976-7.355 4.246c-.078.046-.165.067-.25.067z" fill="#ffffff" fill-opacity="1" data-original-color="#3063d6ff" stroke="none" stroke-opacity="1" style=""/><path d="m47.655 41.78c-.161 0-.318-.078-.415-.221-.146-.219-.1-.513.108-.674l3.225-2.505-5.282 3.049c-.234.136-.53.061-.674-.168-.143-.229-.079-.528.145-.68l.642-.433-1.019.588c-.235.136-.532.061-.675-.169s-.077-.53.147-.68l1.199-.8-1.611.93c-.235.135-.531.06-.674-.168-.143-.229-.079-.528.145-.68l3.494-2.354-4.076 2.353c-.236.136-.533.06-.677-.171-.142-.231-.073-.533.154-.681l.845-.549-1.228.708c-.233.136-.529.062-.673-.167-.144-.228-.081-.527.141-.679l6.814-4.65-7.676 4.432c-.235.137-.534.061-.677-.172-.142-.23-.073-.533.154-.681l2.904-1.883-3.396 1.96c-.236.136-.534.061-.677-.172-.142-.231-.072-.533.155-.681l3.392-2.194-3.906 2.255c-.235.135-.531.06-.675-.168-.143-.229-.077-.53.146-.681l8.052-5.387-8.934 5.158c-.234.137-.535.061-.676-.171-.142-.23-.074-.532.152-.681l6.445-4.213-7.148 4.127c-.232.136-.53.062-.674-.167-.143-.229-.079-.529.144-.68l10.385-7.026-11.482 6.629c-.235.137-.536.061-.677-.172-.142-.231-.072-.533.155-.681l6.124-3.956-6.776 3.912c-.233.137-.53.062-.674-.167-.143-.229-.079-.528.144-.68l11.44-7.754-12.626 7.29c-.236.133-.531.06-.674-.168-.143-.229-.079-.529.145-.68l11.441-7.724-12.605 7.277c-.235.136-.535.059-.677-.172s-.072-.534.155-.681l6.978-4.507-7.673 4.43c-.235.137-.535.06-.677-.173-.142-.232-.072-.534.156-.681l5.834-3.743-5.942 3.431c-.235.137-.535.06-.677-.173-.142-.232-.071-.535.157-.681l4.695-3.004-4.162 2.403c-.236.136-.536.06-.678-.174-.141-.232-.07-.535.16-.681l1.763-1.118-1.109.64c-.234.133-.531.061-.674-.168s-.079-.529.145-.679l7.655-5.154-6.675 3.854c-.232.134-.529.062-.673-.166-.144-.227-.082-.527.14-.679l6.331-4.356-4.911 2.835c-.233.135-.53.062-.674-.167-.143-.228-.08-.528.143-.679l2.388-1.627-.7.405c-.226.13-.517.064-.664-.153s-.102-.511.104-.673l3.233-2.545c-.121-.034-.229-.114-.296-.231-.139-.239-.057-.545.183-.683l4.81-2.777c.226-.131.516-.065.664.153.147.217.102.511-.104.673l-2.396 1.887 6.298-3.637c.233-.134.531-.061.674.167s.08.528-.143.679l-2.395 1.632 4.234-2.445c.234-.134.529-.061.673.166s.082.527-.14.679l-6.324 4.351 8.284-4.783c.234-.135.531-.061.674.168s.079.529-.145.679l-7.661 5.158 9.225-5.326c.237-.135.537-.059.678.174.141.232.07.535-.16.681l-1.763 1.118 2.467-1.424c.236-.134.536-.059.677.173.142.232.071.535-.157.681l-4.688 3 5.43-3.135c.237-.134.536-.058.677.173.142.232.072.534-.156.681l-5.835 3.744 6.524-3.767c.235-.135.535-.059.677.172s.072.534-.155.681l-6.984 4.512 7.613-4.396c.234-.135.531-.061.674.168s.079.529-.145.68l-11.439 7.723 12.31-7.107c.234-.133.531-.06.674.167.143.228.079.528-.144.68l-11.437 7.752 12.101-6.987c.235-.135.535-.06.677.172.142.231.072.534-.155.681l-6.132 3.961 6.302-3.638c.234-.133.531-.061.674.168.143.228.079.528-.144.679l-10.38 7.023 10.639-6.143c.235-.136.535-.059.676.171.142.23.074.532-.152.68l-6.447 4.215 6.39-3.689c.234-.136.532-.06.675.169s.077.53-.146.68l-8.056 5.39 7.903-4.563c.235-.136.534-.059.677.172.142.231.072.533-.155.681l-3.383 2.188 3.029-1.749c.235-.135.534-.06.677.172.142.231.073.533-.154.681l-2.91 1.887 2.454-1.417c.234-.133.53-.061.673.167.144.228.081.527-.141.679l-6.816 4.652 6.181-3.569c.235-.135.534-.06.677.172.142.231.073.533-.154.681l-.835.542.098-.056c.234-.136.53-.061.674.168.143.229.079.529-.145.679l-3.499 2.357 2.511-1.449c.234-.135.531-.061.675.169.143.229.077.53-.147.679l-1.208.806.058-.032c.233-.137.53-.061.674.168.143.229.079.528-.145.68l-1.239.835c.172-.017.346.066.45.22.146.219.1.513-.108.674l-3.252 2.526c.222-.09.491-.004.617.215.139.239.057.545-.183.683l-6.226 3.595c-.078.046-.165.067-.25.067z" fill="#ffffff" fill-opacity="1" data-original-color="#234fc1ff" stroke="none" stroke-opacity="1" style=""/><path d="m30.213 59.463c-.165 0-.326-.082-.421-.23-.145-.226-.086-.523.133-.678l5.817-4.108-8.188 4.728c-.232.137-.529.062-.673-.166-.144-.227-.082-.526.14-.679l7.844-5.39-9.732 5.619c-.234.135-.534.06-.676-.17s-.075-.531.15-.68l6.957-4.587-8.183 4.724c-.235.137-.534.061-.677-.172-.142-.23-.073-.533.154-.681l6.611-4.287-7.539 4.353c-.235.139-.537.06-.679-.175-.141-.233-.067-.537.163-.682l.958-.601-1.411.814c-.235.137-.535.061-.677-.172-.142-.231-.072-.533.155-.681l8.109-5.238-8.841 5.104c-.235.137-.536.06-.678-.174-.141-.233-.069-.536.161-.682l4.335-2.735-4.721 2.726c-.238.138-.538.058-.679-.175-.141-.234-.067-.537.164-.682l2.26-1.413-2.495 1.44c-.238.138-.538.058-.679-.175-.141-.234-.067-.537.164-.682l2.332-1.457-2.502 1.444c-.235.138-.535.061-.677-.172-.142-.231-.072-.534.155-.681l9.783-6.312-10.136 5.852c-.235.136-.534.061-.675-.17-.143-.229-.076-.53.148-.68l12.916-8.546-13.273 7.663c-.236.138-.534.059-.678-.173-.141-.232-.07-.535.158-.682l7.705-4.918-7.696 4.442c-.236.138-.537.061-.679-.175-.141-.233-.068-.536.163-.682l3.297-2.069-3.11 1.796c-.235.139-.536.06-.678-.174-.141-.233-.069-.536.16-.682l4.604-2.909-4.349 2.51c-.236.137-.533.06-.676-.17-.142-.23-.075-.532.151-.681l9.834-6.454-9.513 5.492c-.234.137-.533.061-.676-.171-.142-.23-.074-.531.151-.68l8.271-5.419-7.749 4.474c-.235.137-.536.061-.677-.172-.142-.231-.072-.534.155-.681l4.634-2.989-3.938 2.273c-.234.136-.533.061-.675-.17-.143-.229-.076-.531.149-.68l5.819-3.846-4.882 2.818c-.236.137-.533.06-.676-.171-.142-.23-.074-.531.151-.68l2.646-1.733-1.531.884c-.232.136-.529.061-.673-.165-.144-.228-.082-.527.139-.68l4.019-2.77-2.32 1.34c-.225.132-.515.065-.661-.148-.148-.215-.106-.507.095-.672l3.67-2.992c-.172 0-.341-.09-.433-.25-.139-.24-.057-.545.183-.684l4.811-2.778c.225-.131.515-.065.661.149.148.215.106.507-.095.672l-3.349 2.73 7.781-4.493c.233-.133.53-.061.673.166.144.227.082.526-.139.679l-4.021 2.771 6.04-3.487c.236-.135.533-.06.676.171.142.23.074.532-.151.681l-2.641 1.729 3.888-2.245c.233-.135.533-.061.675.17.143.23.076.531-.149.68l-5.827 3.851 7.137-4.121c.236-.135.536-.059.677.172.142.232.072.534-.155.681l-4.632 2.988 5.557-3.208c.236-.135.533-.06.676.171.142.23.074.532-.151.681l-8.27 5.417 9.298-5.369c.235-.136.533-.06.676.171.142.23.075.532-.151.68l-9.834 6.454 10.775-6.222c.237-.135.538-.059.678.174.141.233.069.536-.16.681l-4.601 2.908 5.038-2.908c.237-.136.538-.061.679.175.141.233.068.536-.163.682l-3.306 2.074 3.605-2.081c.237-.137.536-.059.678.173.141.232.07.535-.158.682l-7.701 4.916 8.074-4.661c.233-.137.533-.062.675.17.143.229.076.53-.148.68l-12.916 8.546 13.449-7.765c.235-.137.535-.061.677.172.142.231.072.534-.155.681l-9.777 6.309 9.963-5.752c.236-.139.537-.059.679.175.141.234.067.537-.164.682l-2.331 1.456 2.229-1.286c.236-.139.538-.059.679.175s.067.537-.164.682l-2.275 1.423 2.104-1.215c.236-.136.537-.059.678.174s.069.536-.161.682l-4.322 2.727 4.098-2.365c.234-.137.535-.061.677.172.142.231.072.533-.155.681l-8.111 5.239 7.816-4.513c.237-.136.538-.059.679.175s.067.536-.163.682l-.974.61.528-.305c.236-.136.534-.061.677.172.142.23.073.533-.154.681l-6.609 4.285 6.045-3.489c.234-.137.532-.06.676.17.142.23.075.531-.15.68l-6.955 4.586 6.171-3.562c.234-.135.53-.061.673.166.144.227.082.526-.14.679l-7.842 5.388 6.633-3.829c.229-.136.527-.062.671.163.145.226.086.523-.133.678l-5.815 4.107 4.023-2.323c.225-.132.514-.066.662.149.147.214.105.507-.097.671l-3.734 3.038c.219-.072.468.017.588.226.139.239.057.545-.183.683l-5.273 3.044c-.225.133-.514.066-.662-.149-.147-.214-.105-.507.097-.671l3.678-2.992-8.089 4.67c-.078.046-.165.067-.25.067z" fill="#ffffff" fill-opacity="1" data-original-color="#427de5ff" stroke="none" stroke-opacity="1" style=""/><path d="m11.346 27.241c-.154 0-.306-.072-.403-.204-.15-.206-.123-.492.065-.664l1.118-1.027-1.589.917c-.218.127-.501.07-.652-.137-.151-.205-.124-.491.062-.664l1.609-1.488-1.636.945c-.218.125-.498.07-.65-.133-.151-.203-.128-.487.056-.662l.941-.898c-.149.039-.311.007-.435-.091-.16-.126-.228-.338-.17-.535l.237-.8c-.024-.026-.047-.056-.065-.089-.139-.239-.057-.545.183-.683l.307-.177c.175-.103.398-.087.56.041.16.126.228.338.17.535l-.076.257 2.359-1.362c.216-.127.497-.07.65.133.151.203.128.487-.056.662l-.885.843 1.886-1.089c.219-.126.503-.069.652.137.151.205.124.491-.062.664l-1.61 1.488 1.652-.954c.219-.127.502-.069.653.137.15.206.123.492-.065.664l-1.119 1.027 1.276-.737c.186-.107.416-.085.578.056.161.14.216.366.136.564l-.913 2.267c.017.02.031.042.045.065.139.239.057.545-.183.683l-.362.21c-.185.106-.415.085-.578-.056-.161-.14-.216-.366-.136-.564l.658-1.634-3.959 2.286c-.078.045-.164.067-.25.067z" fill="#ffffff" fill-opacity="1" data-original-color="#274b9bff" stroke="none" stroke-opacity="1" style=""/><path d="m28.412 49.746c-.154 0-.305-.071-.402-.203-.151-.205-.124-.49.062-.663l.71-.66-1.574.909c-.215.126-.49.072-.645-.126-.153-.197-.138-.478.037-.656l2.202-2.257-2.479 1.431c-.208.123-.478.076-.633-.111-.156-.186-.156-.457 0-.643l1.762-2.098-1.116.645c-.178.104-.399.086-.562-.041-.16-.128-.227-.341-.167-.538l.287-.938c-.022-.025-.043-.054-.062-.084-.138-.239-.056-.545.184-.684l.307-.177c.179-.1.4-.084.562.042.16.128.227.341.167.538l-.117.382 2.479-1.431c.208-.122.477-.076.633.111.156.186.156.457 0 .643l-1.762 2.098 3.158-1.823c.214-.126.49-.073.645.126.153.197.138.478-.037.656l-2.202 2.257 2.277-1.314c.219-.128.501-.069.652.136s.124.49-.062.663l-.888.824c.119-.013.24.028.338.106.16.126.228.338.17.534l-.236.799c.024.026.047.056.065.088.139.239.057.545-.182.684l-.307.178c-.177.103-.397.087-.561-.04-.16-.126-.228-.338-.17-.534l.076-.257-2.36 1.362c-.078.046-.164.067-.25.067z" fill="#ffffff" fill-opacity="1" data-original-color="#274b9bff" stroke="none" stroke-opacity="1" style=""/><path d="m48.865 31.232c-.144 0-.286-.062-.384-.18-.156-.187-.155-.458.003-.644l1.658-1.956-2.906 1.678c-.214.123-.488.073-.643-.124-.154-.195-.141-.474.03-.654l2.315-2.429-2.646 1.528c-.218.127-.5.069-.652-.136-.151-.205-.124-.491.062-.664l.924-.855-1.216.702c-.191.111-.435.082-.594-.07-.161-.152-.202-.392-.102-.589l1.1-2.165c-.11-.232-.025-.515.202-.646l.307-.177c.191-.11.435-.082.594.07.161.152.202.392.102.589l-.649 1.28 3.617-2.089c.22-.126.501-.068.652.136.151.205.124.491-.062.664l-.924.855 1.797-1.037c.214-.123.488-.073.643.124.154.195.141.474-.03.654l-2.315 2.428 2.392-1.381c.209-.12.478-.075.634.113.156.187.155.458-.003.644l-1.658 1.956.33-.191c.239-.138.546-.057.683.183.139.239.057.545-.183.683l-2.826 1.631c-.078.046-.164.067-.25.067z" fill="#ffffff" fill-opacity="1" data-original-color="#274b9bff" stroke="none" stroke-opacity="1" style=""/><g fill="#262626"><path d="m13.348 42.106c-.895 23.077 34.175 22.576 33.329-.248 17.347-3.544 16.998-29.305-.539-31.862 1.384-2.063 5.086-8.881.233-8.502-6.622-.148-14.771.16-17.128 7.682-2.824-8.519-11.964-9.742-19.658-7.992-7.592-.789-3.208 7.233-.474 10.361-13.418 6.574-10.56 27.986 4.237 30.561zm22.036 15.494c-24.892 7.377-28.262-33.464-2.382-29.791 14.643 2.765 16.513 24.816 2.382 29.791zm22.045-26.326c-1.669 4.901-5.769 8.785-10.811 9.991-.774-9.072-9.818-16.125-18.856-14.532-.26-6.022 2.916-11.481 7.673-14.341 11.776-7.347 26.812 6.128 21.994 18.882zm-24.131-26.184c3.647-3.324 9.124-2.272 13.644-2.59 1.074 2.28-.993 5.281-2.157 7.317-2.968-.276-6.02.202-8.825 1.481 1.228-3.261 5.359-3.265 7.216-5.135-3.349-.716-8.026 2.767-9.118 6.156-1.124.637-2.139 1.491-3.033 2.39-.29-1.165-.621-2.356-1.02-3.53.577-2.223 1.657-4.454 3.294-6.089zm-25.687 1.34c-.608-1.719-1.79-4.533 1.152-4.132 10.766-2.954 18.879 1.446 20.79 12.714-1.479-1.611-3.229-2.88-5.137-3.783.223-2.636-12.82-7.238-12.251-4.927 3.416.945 7.472 1.457 10.042 4.081-3.805-1.192-7.997-1.067-11.772.529-1.195-1.323-2.179-2.812-2.825-4.483zm-5.806 17.947c.906-13.717 19.69-18.886 27.441-7.519-2.031 2.93-3.067 6.484-2.935 10.149-6.622 1.392-12.139 7.282-12.858 14.025-7.313-1.962-12.386-8.989-11.649-16.655z" fill="#262626" fill-opacity="1" data-original-color="#262626ff" stroke="none" stroke-opacity="1"/><path d="m8.435 24.394c1.838.66.211 3.243 1.853 2.886 1.496-.66 2.12 2.296 3.398.778.49-1.584 3.45.142 2.764-2.007-.323-1.202 1.747-1.836 1.115-2.446-1.837-.66-.212-3.244-1.853-2.887-1.311.552-1.679-1.277-2.734-1.186-.253.048-.532.172-.665.408-.436 1.503-2.636.051-2.871 1.42.758 1.777-1.669 2.36-1.008 3.032zm4.458-3.406c.575.516 1.337.769 2.118.76-.079.906.297 1.774.999 2.352-.613.541-1.041 1.293-1.015 2.166-.69.058-1.351.312-1.887.745-.575-.519-1.337-.768-2.12-.757.08-.91-.3-1.784-1.009-2.362.628-.564 1.013-1.314 1.009-2.155.696-.056 1.363-.312 1.904-.748z" fill="#262626" fill-opacity="1" data-original-color="#262626ff" stroke="none" stroke-opacity="1"/><path d="m32.553 43.066c.104-.372-.67-.256-.807-.217-.805.23-1.639-.366-2.022-1.043-1.234-.959-1.706 1.573-2.974 1.033-.283-.079-.587-.038-.858.072-.153.062-.51.233-.449.451.257.918-.011 1.971-.883 2.46-.879.447 1.672 1.404.886 3.112-.104.373.671.255.807.217.811-.227 1.637.357 2.022 1.043 1.233.959 1.706-1.573 2.974-1.033.283.079.587.038.858-.072.153-.062.51-.233.449-.451-.297-.901.037-1.988.883-2.46.878-.449-1.672-1.402-.886-3.112zm-3.41 6.024c-.594-.533-1.372-.758-2.185-.715.147-.994-.264-1.911-1.071-2.501.709-.561 1.131-1.372 1.097-2.267.678-.064 1.339-.294 1.875-.7.594.53 1.372.759 2.182.718-.148.999.269 1.92 1.084 2.508-.686.542-1.162 1.335-1.117 2.259-.674.065-1.332.294-1.865.697z" fill="#262626" fill-opacity="1" data-original-color="#262626ff" stroke="none" stroke-opacity="1"/><path d="m44.549 26.779c-.892.543 1.69 1.427.894 3.142-.113.403.659.327.824.28.804-.225 1.619.299 2.009.993 1.243 1.051 1.757-1.636 3.114-.964 2.019.279.381-2.43 2.062-3.01.891-.546-1.69-1.426-.894-3.142.113-.403-.658-.328-.824-.28-.798.228-1.621-.308-2.009-.993-1.244-1.05-1.757 1.636-3.114.964-2.031-.273-.37 2.428-2.061 3.01zm4.328-2.847c.586.525 1.35.768 2.15.741-.119.957.277 1.856 1.04 2.441-.662.537-1.102 1.356-1.068 2.219-.678.066-1.339.316-1.872.732-.586-.528-1.35-.767-2.153-.738.119-.957-.277-1.858-1.041-2.443.673-.557 1.069-1.353 1.053-2.216.685-.063 1.353-.315 1.891-.736z" fill="#262626" fill-opacity="1" data-original-color="#262626ff" stroke="none" stroke-opacity="1"/></g></g></svg>