<svg height="300" viewBox="-49 0 503 503.11681" width="300" xmlns="http://www.w3.org/2000/svg" version="1.1" xmlns:xlink="http://www.w3.org/1999/xlink" xmlns:svgjs="http://svgjs.dev/svgjs"><g width="100%" height="100%" transform="matrix(1,0,0,1,0,0)"><path d="m201.21875 501.613281c-1.769531.003907-3.355469-1.085937-3.992188-2.738281-.632812-1.648438-.183593-3.519531 1.132813-4.703125l26.273437-23.636719-41.351562 23.890625c-1.917969 1.121094-4.371094.582031-5.644531-1.234375-1.273438-1.816406-.941407-4.304687.761719-5.726562l36.285156-30.558594-45.046875 25.984375c-1.9375 1.109375-4.398438.539063-5.652344-1.304687-1.253906-1.847657-.871094-4.347657.875-5.734376l17.066406-13.425781-18.304687 10.550781c-1.941406 1.105469-4.410156.527344-5.65625-1.328124-1.25-1.855469-.851563-4.359376.910156-5.738282l7.75-5.972656-6.582031 3.796875c-1.941407 1.113281-4.421875.535156-5.667969-1.328125s-.839844-4.375.933594-5.746094l2.082031-1.605468c-1.492187.347656-3.054687-.128907-4.097656-1.25-1.039063-1.121094-1.402344-2.714844-.945313-4.175782l3.925782-12.546875c-1.449219-.667969-2.402344-2.085937-2.472657-3.679687-.070312-1.59375.75-3.089844 2.132813-3.886719l4.75-2.742187c1.523437-.875 3.425781-.730469 4.796875.367187 1.371093 1.097656 1.929687 2.925781 1.40625 4.601563l-3.128907 9.992187 44.371094-25.601563c1.945313-1.113281 4.421875-.535156 5.671875 1.328126 1.246094 1.863281.839844 4.375-.933593 5.746093l-.980469.761719 4.742187-2.75c1.949219-1.171875 4.472656-.609375 5.742188 1.277344 1.265625 1.886718.832031 4.4375-.988282 5.796875l-7.75 5.976562 15.351563-8.894531c1.933594-1.085938 4.378906-.511719 5.625 1.328125 1.246094 1.835937.875 4.320313-.855469 5.710937l-17.066406 13.417969 35.441406-20.480469c1.914063-1.113281 4.359375-.578124 5.632813 1.234376 1.273437 1.808593.949219 4.292968-.742188 5.71875l-36.277343 30.550781 34.730468-20.046875c1.878906-1.019532 4.21875-.492188 5.480469 1.230468 1.261719 1.726563 1.054687 4.117188-.488281 5.597657l-26.28125 23.652343 16.679687-9.625c2.027344-1.058593 4.527344-.332031 5.671875 1.644532 1.144532 1.980468.527344 4.511718-1.402344 5.738281l-51.746093 30.019531c-.660157.375-1.410157.566406-2.167969.546875zm0 0" fill="#ffffff" fill-opacity="1" data-original-color="#9579daff" stroke="none" stroke-opacity="1"/><path d="m155.15625 348.523438c-1.933594 0-3.621094-1.296876-4.121094-3.160157-.5-1.867187.3125-3.835937 1.988282-4.800781l5.972656-3.414062c2.023437-1.058594 4.527344-.332032 5.671875 1.648437 1.144531 1.976563.523437 4.507813-1.40625 5.734375l-5.972657 3.414062c-.648437.378907-1.382812.578126-2.132812.578126zm0 0" fill="#ffffff" fill-opacity="1" data-original-color="#ac92eaff" stroke="none" stroke-opacity="1"/><path d="m172.777344 432.988281c-1.617188 0-3.09375-.914062-3.816406-2.359375-.722657-1.445312-.566407-3.175781.402343-4.46875l9.070313-12.132812-28.601563 16.503906c-1.859375 1.058594-4.214843.574219-5.507812-1.125-1.296875-1.703125-1.128907-4.101562.386719-5.609375l18.671874-18.378906-29.117187 16.816406c-1.921875 1.113281-4.378906.566406-5.644531-1.257813-1.265625-1.828124-.917969-4.320312.796875-5.730468l18.570312-15.359375-22.425781 12.980469c-1.960938 1.105468-4.441406.5-5.671875-1.386719s-.78125-4.402344 1.019531-5.75l3.5-2.558594-3.320312 1.921875c-1.949219 1.09375-4.414063.496094-5.648438-1.371094-1.230468-1.863281-.816406-4.363281.957032-5.730468l3.480468-2.628907-2.441406 1.410157c-1.875 1.003906-4.207031.476562-5.464844-1.246094-1.253906-1.71875-1.050781-4.101563.480469-5.582032l20.960937-18.875-17.820312 10.238282c-1.632812.964844-3.707031.734375-5.089844-.5625-1.382812-1.296875-1.742187-3.351563-.882812-5.042969l3.679687-7.296875c-.550781-.355469-1.003906-.84375-1.324219-1.414062-1.179687-2.039063-.484374-4.648438 1.554688-5.828126l5.902344-3.414062c1.632812-.964844 3.707031-.734375 5.089844.5625 1.382812 1.296875 1.742187 3.351562.882812 5.042969l-1.703125 3.414062 40.710937-23.5c1.875-1.007812 4.207032-.476562 5.464844 1.242188 1.253906 1.71875 1.050782 4.101562-.480468 5.582031l-20.933594 18.824219 28.390625-16.382813c1.949219-1.09375 4.414062-.496094 5.648437 1.367188 1.230469 1.867187.816406 4.367187-.957031 5.734375l-3.480469 2.625 10.148438-5.859375c1.960937-1.136719 4.464844-.535156 5.707031 1.359375 1.238281 1.898437.777344 4.433593-1.050781 5.773437l-4.027344 2.953125c1.953125-.695312 4.121094.109375 5.144531 1.90625 1.023438 1.800781.605469 4.078125-.988281 5.398438l-18.628906 15.417969 13.707031-7.902344c1.855469-1.058594 4.210937-.574219 5.507813 1.125 1.292968 1.703125 1.125 4.101562-.390626 5.609375l-18.652343 18.371093 17.585937-10.152343c1.753906-1.007813 3.96875-.648438 5.3125.859375 1.34375 1.507812 1.445313 3.753906.242188 5.375l-9.078125 12.160156 11.09375-6.414062c1.324219-.84375 3-.890626 4.367187-.125 1.371094.761718 2.210938 2.214843 2.1875 3.78125-.019531 1.566406-.898437 2.996093-2.289062 3.722656l-29.082032 16.792968c-.636718.375-1.367187.574219-2.105468.574219zm0 0" fill="#ffffff" fill-opacity="1" data-original-color="#ac92eaff" stroke="none" stroke-opacity="1"/><path d="m240.488281 348.515625c-1.929687 0-3.621093-1.296875-4.121093-3.160156-.5-1.867188.316406-3.835938 1.988281-4.800781l5.921875-3.414063c2.027344-1.058594 4.527344-.332031 5.671875 1.644531 1.144531 1.980469.523437 4.511719-1.40625 5.738282l-5.921875 3.414062c-.648438.375-1.382813.574219-2.132813.578125zm0 0" fill="#ffffff" fill-opacity="1" data-original-color="#b3a4eeff" stroke="none" stroke-opacity="1"/><path d="m249.023438 433.175781c-1.773438-.003906-3.355469-1.101562-3.984376-2.757812-.628906-1.652344-.167968-3.527344 1.160157-4.699219l9.257812-8.195312-24.851562 14.335937c-1.941407 1.109375-4.410157.53125-5.65625-1.324219-1.246094-1.855468-.847657-4.363281.914062-5.738281l12.800781-9.910156-20.574218 11.878906c-1.929688 1.078125-4.363282.503906-5.605469-1.320313-1.246094-1.828124-.890625-4.300781.816406-5.703124l28.835938-23.039063-35.984375 20.78125c-1.941406 1.121094-4.421875.550781-5.675782-1.308594-1.253906-1.859375-.855468-4.371093.914063-5.75l20.683594-16.128906-23.226563 13.40625c-1.949218 1.109375-4.425781.519531-5.667968-1.347656-1.238282-1.867188-.824219-4.375.957031-5.742188l10.5625-8.003906-9.855469 5.691406c-1.902344 1.105469-4.335938.585938-5.617188-1.207031s-.988281-4.265625.675782-5.707031l23.894531-20.8125-21.675781 12.511719c-1.566406.902343-3.53125.722656-4.902344-.449219-1.375-1.175781-1.863281-3.085938-1.214844-4.773438l3.875-10.148437c-1.207031-.832032-1.902344-2.222656-1.839844-3.6875.058594-1.460938.867188-2.792969 2.136719-3.523438l4.464844-2.558594c1.5625-.898437 3.527344-.714843 4.894531.460938 1.378906 1.171875 1.867188 3.082031 1.222656 4.769531l-2.492187 6.527344 49.492187-28.515625c1.902344-1.09375 4.324219-.5625 5.597657 1.222656 1.273437 1.785156.984375 4.242188-.664063 5.6875l-23.894531 20.8125 30.773437-17.765625c1.949219-1.117187 4.433594-.527343 5.675782 1.347657 1.242187 1.875.816406 4.390624-.976563 5.753906l-10.621093 7.992187 17.433593-10.058593c1.9375-1.125 4.417969-.554688 5.671875 1.304687 1.257813 1.859375.855469 4.371094-.910156 5.75l-20.679688 16.148437 32.0625-18.5c1.929688-1.078124 4.359376-.503906 5.605469 1.320313 1.242188 1.824219.886719 4.296875-.820312 5.699219l-28.851563 23.042968 26.546875-15.363281c1.941407-1.085937 4.390625-.5 5.628907 1.347657 1.238281 1.847656.851562 4.335937-.890626 5.71875l-12.800781 9.875 6.222657-3.585938c1.894531-1.078125 4.300781-.554688 5.574218 1.214844 1.273438 1.769531 1.007813 4.21875-.617187 5.671875l-12.339844 10.921875c1.839844.1875 3.347656 1.539062 3.738281 3.347656s-.429687 3.664062-2.03125 4.589844l-31.035156 17.921875c-.648438.375-1.386719.574219-2.132812.570312zm0 0" fill="#ffffff" fill-opacity="1" data-original-color="#b3a4eeff" stroke="none" stroke-opacity="1"/><path d="m283.242188 271.671875c-1.933594 0-3.621094-1.296875-4.121094-3.160156-.5-1.867188.3125-3.835938 1.984375-4.800781l5.839843-3.359376c2.023438-1.0625 4.527344-.335937 5.671876 1.644532 1.144531 1.980468.523437 4.507812-1.40625 5.734375l-5.835938 3.371093c-.648438.375-1.386719.570313-2.132812.570313zm0 0" fill="#ffffff" fill-opacity="1" data-original-color="#9579daff" stroke="none" stroke-opacity="1"/><path d="m278.667969 364.816406c-1.78125-.003906-3.375-1.109375-3.996094-2.777344-.621094-1.671874-.140625-3.550781 1.203125-4.714843l25.824219-22.316407-38.683594 22.332032c-1.917969 1.089844-4.351563.535156-5.609375-1.277344s-.925781-4.285156.761719-5.703125l34.570312-28.492187-42.136719 24.328124c-1.90625 1.082032-4.320312.542969-5.585937-1.246093-1.269531-1.789063-.972656-4.246094.679687-5.683594l33.636719-28.859375-36.957031 21.332031c-1.957031 1.128907-4.449219.539063-5.695312-1.34375-1.242188-1.882812-.804688-4.410156 1-5.761719l8.382812-6.28125-5.976562 3.414063c-1.933594 1.074219-4.371094.488281-5.605469-1.347656-1.238281-1.835938-.867188-4.3125.855469-5.703125l10.597656-8.292969-6.347656 3.660156c-1.644532.949219-3.710938.699219-5.082032-.609375s-1.714844-3.367187-.84375-5.046875l6.359375-12.253906c-1.25-.808594-1.988281-2.207031-1.953125-3.691406.039063-1.484375.84375-2.84375 2.132813-3.589844l6.238281-3.609375c1.640625-.945312 3.710938-.699219 5.078125.609375 1.371094 1.308594 1.714844 3.367187.84375 5.050781l-4.386719 8.445313 46.300782-26.726563c1.941406-1.101562 4.398437-.523437 5.644531 1.328125 1.246093 1.847657.859375 4.347657-.890625 5.730469l-10.554688 8.261719 15.027344-8.671875c1.953125-1.128906 4.449219-.539063 5.691406 1.34375 1.242188 1.882812.804688 4.410156-1 5.765625l-8.386718 6.28125 15.195312-8.773438c1.910156-1.097656 4.339844-.566406 5.609375 1.226563 1.273437 1.796875.972656 4.265625-.691406 5.703125l-33.683594 28.832031 46.558594-26.878906c1.921875-1.109375 4.371093-.5625 5.636719 1.257812 1.265624 1.820313.925781 4.308594-.78125 5.722656l-34.558594 28.507813 33.277344-19.207031c1.902343-1.089844 4.324218-.5625 5.597656 1.222656 1.273437 1.785156.988281 4.246094-.664063 5.691406l-25.855469 22.347656 18.191407-10.503906c1.878906-1.007812 4.210937-.476562 5.464843 1.242188 1.257813 1.71875 1.050782 4.101562-.480468 5.582031l-12.578125 11.28125c1.359375.734375 2.21875 2.148437 2.238281 3.695313.019531 1.546874-.796875 2.984374-2.136719 3.753906l-23.984375 13.9375c-1.878906 1.003906-4.210937.476562-5.464844-1.246094-1.253906-1.71875-1.050781-4.101562.480469-5.582031l5.265625-4.71875-21.640625 12.492187c-.652343.363282-1.386719.546875-2.132812.53125zm0 0" fill="#ffffff" fill-opacity="1" data-original-color="#9579daff" stroke="none" stroke-opacity="1"/><path d="m197.898438 271.683594c-1.9375.003906-3.636719-1.292969-4.136719-3.164063-.5-1.871093.324219-3.847656 2.003906-4.808593l5.921875-3.414063c2.042969-1.175781 4.652344-.476563 5.832031 1.566406 1.179688 2.042969.476563 4.65625-1.566406 5.832031l-5.921875 3.414063c-.648438.371094-1.382812.566406-2.132812.574219zm0 0" fill="#ffffff" fill-opacity="1" data-original-color="#ac92eaff" stroke="none" stroke-opacity="1"/><path d="m205.1875 365.539062c-1.78125.003907-3.375-1.101562-4-2.765624-.625-1.667969-.152344-3.546876 1.191406-4.71875l2.242188-1.945313-12.660156 7.304687c-1.910157 1.101563-4.339844.566407-5.609376-1.226562-1.273437-1.796875-.972656-4.265625.691407-5.703125l13.132812-11.289063-21.671875 12.511719c-1.921875 1.109375-4.371094.558594-5.636718-1.257812-1.265626-1.820313-.925782-4.308594.78125-5.722657l21.871093-18.089843-27.929687 16.117187c-1.921875 1.09375-4.363282.539063-5.621094-1.277344-1.257812-1.820312-.917969-4.296874.78125-5.710937l33.808594-27.742187-37.835938 21.828124c-1.9375 1.074219-4.371094.492188-5.609375-1.34375-1.238281-1.835937-.867187-4.3125.855469-5.703124l18.851562-14.746094-18.074218 10.425781c-1.878906 1.035156-4.230469.515625-5.5-1.214844-1.265625-1.730469-1.054688-4.128906.5-5.609375l26.75-24.226562-21.632813 12.484375c-1.699219 1.007812-3.871093.71875-5.246093-.707031-1.371094-1.421876-1.589844-3.601563-.519532-5.265626l5.050782-8.234374c-.3125-.296876-.578126-.636719-.792969-1.007813-1.171875-2.039063-.476563-4.640625 1.5625-5.820313l6.234375-3.609374c1.691406-.972657 3.824218-.675782 5.183594.722656 1.363281 1.394531 1.601562 3.535156.585937 5.199218l-1.765625 2.882813 41.746094-24.097656c1.878906-1.03125 4.230468-.511719 5.496094 1.21875 1.269531 1.730469 1.054687 4.128906-.496094 5.609375l-26.742188 24.3125 36.050782-20.8125c1.9375-1.097656 4.390624-.519532 5.636718 1.324218 1.242188 1.84375.863282 4.335938-.875 5.722657l-18.875 14.769531 30.269532-17.464844c1.917968-1.09375 4.359374-.539062 5.617187 1.277344 1.257813 1.820312.917969 4.296875-.78125 5.710938l-33.800781 27.734374 26.855468-15.5c1.917969-1.085937 4.351563-.53125 5.609376 1.28125 1.257812 1.808594.929687 4.28125-.761719 5.699219l-21.855469 18.074219 17.210938-9.933594c1.910156-1.117187 4.355468-.589844 5.636718 1.210938 1.28125 1.804687.972656 4.285156-.710937 5.71875l-13.109375 11.265625 11.453125-6.613281c1.898437-1.070313 4.300781-.539063 5.566406 1.234374 1.265625 1.777344.992187 4.21875-.632813 5.667969l-2.210937 1.9375 1.238281-.714843c1.320313-.84375 3-.890626 4.367188-.125 1.367187.761718 2.207031 2.214843 2.1875 3.78125-.023438 1.566406-.902344 2.996093-2.289063 3.722656l-39.601562 22.878906c-.660157.378906-1.410157.578125-2.167969.570312zm0 0" fill="#ffffff" fill-opacity="1" data-original-color="#ac92eaff" stroke="none" stroke-opacity="1"/><path d="m114.289062 270.667969c-1.929687 0-3.621093-1.296875-4.121093-3.164063-.5-1.863281.316406-3.832031 1.988281-4.800781l4.199219-2.421875c1.320312-.839844 3-.886719 4.367187-.125 1.367188.765625 2.207032 2.214844 2.1875 3.785156-.023437 1.566406-.902344 2.996094-2.289062 3.722656l-4.199219 2.421876c-.648437.378906-1.382813.578124-2.132813.582031zm0 0" fill="#ffffff" fill-opacity="1" data-original-color="#9579daff" stroke="none" stroke-opacity="1"/><path d="m112.214844 365.222656c-1.773438.003906-3.359375-1.09375-3.988282-2.75-.628906-1.65625-.167968-3.53125 1.15625-4.707031l9.695313-8.59375-20.03125 11.5625c-1.898437 1.101563-4.320313.582031-5.601563-1.199219s-1.003906-4.246094.644532-5.695312l22.546875-19.914063-31.140625 17.96875c-1.917969 1.042969-4.308594.46875-5.546875-1.328125s-.921875-4.238281.734375-5.660156l30.722656-24.839844-35.320312 20.394532c-1.9375 1.15625-4.445313.605468-5.714844-1.261719-1.273438-1.867188-.867188-4.398438.917968-5.777344l23.613282-18.773437-24.226563 13.984374c-1.917969 1.089844-4.351562.535157-5.609375-1.277343-1.257812-1.8125-.929687-4.285157.761719-5.703125l21.027344-17.347656-18.382813 10.605468c-1.597656.917969-3.601562.707032-4.972656-.523437-1.371094-1.226563-1.796875-3.199219-1.058594-4.886719l7.492188-16.980469c-1.4375-.675781-2.378906-2.089843-2.449219-3.675781-.066406-1.585938.75-3.078125 2.125-3.875l6.117187-3.53125c1.597657-.917969 3.601563-.707031 4.972657.523438 1.371093 1.226562 1.796875 3.199218 1.0625 4.886718l-6.25 14.15625 51.492187-29.722656c1.921875-1.113281 4.378906-.566406 5.644532 1.261719 1.265624 1.824219.917968 4.316406-.796876 5.726562l-21.019531 17.324219 29.441407-16.992188c1.933593-1.125 4.40625-.5625 5.667968 1.285157 1.261719 1.847656.878906 4.355469-.871094 5.746093l-23.613281 18.773438 32.699219-18.875c1.925781-1.105469 4.378906-.546875 5.636719 1.28125 1.261719 1.832031.90625 4.320312-.816407 5.726562l-30.71875 24.855469 20.949219-12.089843c1.894531-1.082032 4.300781-.558594 5.574219 1.210937 1.277344 1.773437 1.011719 4.21875-.617188 5.675781l-22.542968 19.914063 19.445312-11.21875c1.894532-1.078125 4.296875-.558594 5.570313 1.210937 1.273437 1.765625 1.015625 4.207032-.601563 5.664063l-9.679687 8.613281 9.0625-5.234375c2.027343-1.058594 4.527343-.332031 5.671875 1.648437 1.144531 1.976563.527344 4.507813-1.402344 5.734376l-45.320312 26.164062c-.65625.367188-1.398438.554688-2.152344.535156zm0 0" fill="#ffffff" fill-opacity="1" data-original-color="#9579daff" stroke="none" stroke-opacity="1"/><g fill="#ac92ea"><path d="m297.996094 211.019531c-1.761719 0-3.34375-1.078125-3.984375-2.722656-.636719-1.640625-.203125-3.503906 1.097656-4.695313l10.386719-9.554687-27.203125 15.71875c-1.941407 1.140625-4.433594.578125-5.695313-1.285156-1.261718-1.863281-.863281-4.386719.914063-5.765625l15.976562-12.578125-24.664062 14.25c-1.914063 1.097656-4.351563.554687-5.617188-1.253907-1.265625-1.808593-.941406-4.285156.746094-5.707031l35.039063-29.3125-43.519532 25.128907c-1.984375 1.207031-4.5625.609374-5.8125-1.34375-1.25-1.953126-.710937-4.546876 1.210938-5.839844l6.945312-4.90625-7.816406 4.503906c-1.960938 1.117188-4.457031.511719-5.6875-1.382812-1.230469-1.894532-.769531-4.417969 1.046875-5.757813l15.523437-11.296875-15.363281 8.898438c-1.925781 1.167968-4.429687.632812-5.714843-1.21875-1.285157-1.851563-.90625-4.382813.859374-5.777344l29.375-23.441406-26.933593 15.554687c-1.921875 1.136719-4.398438.59375-5.671875-1.238281-1.273438-1.835938-.917969-4.34375.816406-5.75l21.335938-17.65625-13.511719 7.808594c-1.894531 1.113281-4.324219.601562-5.613281-1.175782-1.289063-1.78125-1.015626-4.246094.632812-5.703125l12.660156-11.375c-.742187-.378906-1.359375-.972656-1.765625-1.707031-1.175781-2.039062-.476562-4.648438 1.5625-5.828125l24.355469-14.0625c1.875-1.003906 4.207031-.476563 5.460938 1.246094 1.257812 1.71875 1.050781 4.101562-.480469 5.582031l-5.707031 5.121094 21.964843-12.683594c1.925781-1.132812 4.398438-.59375 5.671875 1.242188 1.273438 1.835937.917969 4.339843-.816406 5.75l-21.332031 17.644531 32.3125-18.660157c1.9375-1.125 4.410156-.566406 5.671875 1.285157 1.257812 1.847656.878906 4.355469-.875 5.746093l-29.371094 23.429688 36.378906-21c1.960938-1.117188 4.457032-.507812 5.6875 1.382812 1.230469 1.894532.769532 4.421876-1.046875 5.761719l-15.5625 11.324219 17.414063-10.054688c1.972656-1.136718 4.496094-.523437 5.722656 1.394532 1.230469 1.917968.734375 4.464844-1.121094 5.78125l-6.898437 4.882812 6.332031-3.660156c1.921875-1.125 4.378906-.585938 5.652344 1.238281 1.273437 1.820313.9375 4.316407-.777344 5.734375l-35.054688 29.320313 33.492188-19.339844c1.9375-1.113281 4.410156-.542969 5.664062 1.308594 1.253907 1.851562.863282 4.359375-.894531 5.742187l-15.980469 12.621094 9.308594-5.375c1.878906-1.0625 4.257813-.554688 5.535156 1.1875 1.28125 1.738281 1.058594 4.160156-.519531 5.636719l-13.363281 12.289062c1.8125.238281 3.273438 1.605469 3.628906 3.402344.355469 1.792969-.472656 3.613281-2.058594 4.523437l-27.835937 16.078126c-.640625.378906-1.371094.582031-2.113281.589843zm0 0" fill="#ffffff" fill-opacity="1" data-original-color="#ac92eaff" stroke="none" stroke-opacity="1"/><path d="m129.058594 210.371094c-1.613282 0-3.09375-.914063-3.816406-2.359375-.722657-1.445313-.566407-3.175781.40625-4.46875l12.003906-15.785157-35.8125 20.617188c-1.90625 1.109375-4.347656.585938-5.628906-1.210938-1.277344-1.796874-.976563-4.273437.695312-5.710937l18.253906-15.855469-26.609375 15.359375c-1.925781 1.125-4.394531.578125-5.664062-1.261719-1.265625-1.839843-.902344-4.34375.835937-5.742187l25.796875-21.027344-30.917969 17.867188c-1.949218 1.152343-4.457031.582031-5.71875-1.300781-1.257812-1.882813-.824218-4.417969.984376-5.78125l29.0625-22.347657-30.71875 17.742188c-1.945313 1.140625-4.445313.570312-5.703126-1.304688-1.257812-1.875-.835937-4.402343.957032-5.769531l26.695312-20.652344-25.097656 14.507813c-1.9375 1.132812-4.417969.570312-5.679688-1.285157-1.261718-1.855468-.871093-4.371093.890626-5.753906l21.820312-17.394531-16.210938 9.386719c-1.839843 1.050781-4.171874.59375-5.476562-1.074219s-1.191406-4.039063.269531-5.570313l17-17.742187c-1.804687.398437-3.660156-.429687-4.566406-2.039063-1.179687-2.039062-.484375-4.648437 1.554687-5.828124l24.265626-14.019532c1.84375-1.0625 4.1875-.609375 5.496093 1.066406 1.308594 1.675782 1.1875 4.058594-.289062 5.589844l-16.460938 17.140625 39.585938-22.859375c1.9375-1.15625 4.445312-.605468 5.714843 1.261719 1.269532 1.863281.867188 4.398437-.917968 5.777344l-21.820313 17.382812 30.328125-17.511719c1.941406-1.105468 4.410156-.527343 5.65625 1.328126 1.246094 1.855468.847656 4.359374-.914062 5.738281l-26.699219 20.667969 31.921875-18.429688c1.945312-1.117188 4.421875-.539062 5.671875 1.324219 1.246094 1.863281.839844 4.375-.933594 5.75l-29.058593 22.339843 20.855468-12.03125c1.925782-1.101562 4.371094-.542968 5.628906 1.28125 1.257813 1.820313.910157 4.304688-.796874 5.714844l-25.804688 21.066406 19.242188-11.089843c1.902343-1.09375 4.320312-.5625 5.59375 1.222656 1.273437 1.785156.988281 4.242187-.660157 5.6875l-18.253906 15.863281 15.769531-9.105468c1.757813-1.007813 3.988282-.636719 5.324219.886718 1.339844 1.523438 1.421875 3.777344.195313 5.394532l-11.996094 15.777343 5.972656-3.464843c2.042969-1.175782 4.652344-.476563 5.832031 1.566406 1.179688 2.042968.476563 4.65625-1.566406 5.832031l-24.351563 14.0625c-.648437.375-1.386718.574219-2.136718.574219zm0 0" fill="#ffffff" fill-opacity="1" data-original-color="#ac92eaff" stroke="none" stroke-opacity="1"/><path d="m240.488281 194.933594c-1.929687 0-3.621093-1.296875-4.121093-3.164063-.5-1.863281.316406-3.832031 1.988281-4.796875l5.972656-3.464844c2.039063-1.160156 4.632813-.457031 5.804687 1.574219 1.171876 2.03125.484376 4.628907-1.539062 5.816407l-5.972656 3.464843c-.648438.371094-1.382813.570313-2.132813.570313zm0 0" fill="#ffffff" fill-opacity="1" data-original-color="#ac92eaff" stroke="none" stroke-opacity="1"/><path d="m247.757812 288.917969c-1.746093 0-3.3125-1.066407-3.957031-2.6875-.644531-1.625-.234375-3.476563 1.03125-4.675781l8.34375-7.875-21.101562 12.183593c-1.859375 1.074219-4.230469.597657-5.527344-1.113281-1.300781-1.710938-1.125-4.121094.40625-5.625l24.953125-24.390625-37.425781 21.5625c-1.933594 1.082031-4.371094.507813-5.617188-1.324219-1.242187-1.828125-.878906-4.308594.835938-5.707031l24.421875-19.371094-28.660156 16.546875c-1.96875 1.148438-4.484376.550782-5.726563-1.355468s-.769531-4.453126 1.074219-5.785157l11.691406-8.535156-11.65625 6.734375c-1.925781 1.121094-4.390625.570312-5.65625-1.261719s-.910156-4.328125.816406-5.734375l23.203125-18.9375-21.964843 12.679688c-1.914063 1.109375-4.351563.574218-5.625-1.230469-1.273438-1.808594-.957032-4.285156.726562-5.714844l20.480469-17.40625-15.277344 8.8125c-1.699219.976563-3.84375.667969-5.199219-.746093-1.355468-1.414063-1.578125-3.566407-.535156-5.226563l4.976562-7.789063c-.996093-.921874-1.496093-2.257812-1.34375-3.605468.148438-1.347656.929688-2.542969 2.101563-3.222656l6.597656-3.8125c1.699219-.976563 3.84375-.667969 5.203125.746093 1.355469 1.410157 1.574219 3.566407.53125 5.226563l-1.484375 2.320312 40.960938-23.628906c1.910156-1.109375 4.351562-.574219 5.625 1.234375 1.273437 1.804687.957031 4.28125-.726563 5.710937l-20.480468 17.398438 27.015624-15.597656c1.925782-1.121094 4.386719-.570313 5.65625 1.261718 1.265626 1.832032.910157 4.328126-.816406 5.734376l-23.203125 18.9375 35.113281-20.277344c1.964844-1.144532 4.484376-.546875 5.726563 1.359375s.769531 4.453125-1.074219 5.785156l-11.742187 8.53125 9.660156-5.570313c1.933594-1.109374 4.398437-.539062 5.652344 1.304688 1.25 1.847656.871093 4.34375-.875 5.734375l-24.394531 19.34375 16.460937-9.496094c1.859375-1.074219 4.226563-.59375 5.527344 1.117188 1.300781 1.710937 1.125 4.121093-.410157 5.625l-24.925781 24.421875 23.382813-13.507813c1.882812-1.128906 4.316406-.640625 5.621094 1.121094 1.304687 1.765625 1.058593 4.234375-.570313 5.707031l-8.34375 7.875 8.148437-4.703125c2.039063-1.160156 4.628907-.453125 5.804688 1.578125 1.171875 2.03125.484375 4.625-1.539062 5.8125l-39.773438 22.964844c-.644531.363281-1.375.554688-2.117188.542969zm0 0" fill="#ffffff" fill-opacity="1" data-original-color="#ac92eaff" stroke="none" stroke-opacity="1"/></g><path d="m328.824219 191.726562c-1.929688 0-3.621094-1.300781-4.121094-3.164062-.5-1.867188.316406-3.832031 1.988281-4.800781l6.484375-3.746094c2.039063-1.15625 4.632813-.453125 5.804688 1.578125s.488281 4.625-1.535157 5.8125l-6.488281 3.746094c-.644531.378906-1.382812.574218-2.132812.574218zm0 0" fill="#ffffff" fill-opacity="1" data-original-color="#b3a4eeff" stroke="none" stroke-opacity="1"/><path d="m342.65625 287.128906c-1.722656 0-3.277344-1.03125-3.941406-2.625-.664063-1.589844-.308594-3.421875.90625-4.648437l14.726562-14.898438-36.691406 21.164063c-1.90625 1.078125-4.320312.542968-5.585938-1.246094-1.269531-1.789062-.972656-4.246094.679688-5.683594l29.710938-25.429687-41.042969 23.730469c-1.964844 1.117187-4.457031.511718-5.6875-1.382813s-.773438-4.417969 1.042969-5.757813l13.765624-10.035156-16.761718 9.675782c-1.953125 1.089843-4.414063.484374-5.640625-1.386719-1.226563-1.871094-.800781-4.371094.976562-5.730469l21.535157-15.992188-23.039063 13.332032c-1.945313 1.132812-4.433594.558594-5.6875-1.304688-1.257813-1.867187-.847656-4.390625.933594-5.761718l28.757812-22.308594-28.414062 16.410156c-1.960938 1.125-4.453125.523438-5.691407-1.363281-1.238281-1.886719-.789062-4.414063 1.023438-5.761719l12.457031-9.214844-9.011719 5.214844c-1.617187.925781-3.652343.695312-5.023437-.574219-1.367187-1.269531-1.753906-3.28125-.949219-4.964843l7.132813-14.984376c-.714844-.375-1.308594-.949218-1.707031-1.65625-1.175782-2.039062-.476563-4.648437 1.5625-5.828124l6.308593-3.636719c1.617188-.921875 3.644531-.691407 5.011719.574219 1.367188 1.265624 1.757812 3.273437.960938 4.957031l-5.699219 11.828125 62.429687-36.046875c1.957032-1.121094 4.449219-.523438 5.6875 1.367187 1.238282 1.886719.789063 4.410156-1.023437 5.757813l-12.480469 9.21875 17.355469-9.976563c1.941406-1.109375 4.410156-.53125 5.65625 1.328125 1.246093 1.855469.847656 4.359375-.914063 5.738281l-28.773437 22.3125 33.1875-19.15625c1.957031-1.113281 4.4375-.515624 5.675781 1.367188 1.234375 1.878906.796875 4.394531-1 5.75l-21.546875 15.941406 22.117187-12.800781c1.96875-1.164063 4.503907-.566406 5.75 1.351563 1.242188 1.917968.753907 4.472656-1.105468 5.796874l-13.738282 10.011719 11.382813-6.570312c1.910156-1.101563 4.34375-.570313 5.617187 1.230469 1.273438 1.800781.964844 4.273437-.710937 5.707031l-29.714844 25.429687 24.109375-13.925781c1.847656-1.003906 4.148438-.515625 5.425782 1.15625 1.277343 1.671875 1.144531 4.023437-.308594 5.539063l-16.058594 16.214843c1.953125-.066406 3.703125 1.207031 4.242188 3.085938.542968 1.878906-.265626 3.886719-1.953126 4.867187l-24.132812 13.933594c-.628906.402344-1.347656.628906-2.09375.660156zm0 0" fill="#ffffff" fill-opacity="1" data-original-color="#b3a4eeff" stroke="none" stroke-opacity="1"/><path d="m83.917969 287.597656c-1.6875 0-3.214844-.996094-3.898438-2.539062-.683593-1.546875-.390625-3.347656.742188-4.597656l9.914062-10.914063-28.6875 16.53125c-1.878906 1.046875-4.246093.53125-5.515625-1.203125-1.273437-1.734375-1.054687-4.144531.507813-5.625l19.769531-17.96875-30.128906 17.390625c-1.9375 1.109375-4.398438.539063-5.652344-1.308594-1.253906-1.84375-.871094-4.34375.871094-5.734375l18.835937-14.847656-22.835937 13.175781c-1.9375 1.109375-4.398438.542969-5.652344-1.304687-1.253906-1.84375-.871094-4.34375.871094-5.734375l28.425781-22.46875-30.855469 17.792969c-1.953125 1.117187-4.4375.527343-5.679687-1.347657-1.242188-1.875-.8125-4.390625.976562-5.753906l12.605469-9.488281-11.164062 6.445312c-1.953126 1.144532-4.460938.5625-5.710938-1.324218-1.253906-1.886719-.8125-4.421876 1-5.777344l6.351562-4.796875-3.242187 1.878906c-1.953125 1.132813-4.449219.554687-5.699219-1.324219s-.820312-4.40625.980469-5.765625l4.8125-3.671875c-1.800781.230469-3.546875-.707031-4.355469-2.328125-.8125-1.625-.503906-3.582031.761719-4.882812l16.425781-16.851563c-1.671875.191406-3.296875-.644531-4.113281-2.117187-1.175781-2.039063-.476563-4.648438 1.5625-5.828125l24.242187-13.996094c1.847657-1.0625 4.199219-.601562 5.503907 1.082031 1.308593 1.6875 1.167969 4.078125-.324219 5.601563l-15.445312 15.785156 27.152343-15.683594c1.953125-1.132812 4.449219-.554687 5.699219 1.324219s.820312 4.40625-.976562 5.765625l-2.75 2.101562 5.121093-2.988281c1.953125-1.144531 4.460938-.5625 5.710938 1.324219 1.253906 1.886719.8125 4.421875-1 5.777344l-6.351563 4.792968 11.0625-6.355468c1.953125-1.144532 4.460938-.566406 5.710938 1.320312 1.253906 1.886719.8125 4.425782-1.003906 5.78125l-12.617188 9.546875 22.039062-12.730469c1.9375-1.132812 4.421876-.570312 5.683594 1.285157 1.257813 1.851562.867188 4.367187-.894531 5.753906l-28.417969 22.46875 23.417969-13.527344c1.9375-1.113281 4.40625-.542969 5.660156 1.308594 1.253907 1.851563.863281 4.355469-.890625 5.742187l-18.816406 14.863282 13.125-7.578125c1.878906-1.046875 4.242188-.53125 5.515625 1.203125s1.054687 4.148437-.507813 5.625l-19.761718 17.988281 18.011718-10.410156c1.820313-1.046875 4.132813-.617188 5.449219 1.019531 1.320313 1.632812 1.25 3.984375-.15625 5.542969l-9.925781 10.921875 5.230469-3.019532c1.320312-.777343 2.957031-.78125 4.28125-.019531 1.328125.761719 2.148437 2.175781 2.144531 3.707031s-.828125 2.945313-2.160156 3.699219l-28.894532 16.683594c-.632812.375-1.351562.574219-2.089843.582031zm0 0" fill="#ffffff" fill-opacity="1" data-original-color="#ac92eaff" stroke="none" stroke-opacity="1"/><path d="m192.292969 210.609375c-1.8125 0-3.425781-1.144531-4.027344-2.851563-.601563-1.707031-.058594-3.609374 1.355469-4.742187l2.277344-1.828125-8.933594 5.164062c-1.90625 1.097657-4.335938.566407-5.609375-1.230468-1.273438-1.792969-.972657-4.261719.695312-5.699219l21.835938-18.851563-29.652344 17.128907c-1.953125 1.144531-4.460937.5625-5.714844-1.324219-1.25-1.886719-.8125-4.421875 1.003907-5.777344l16.417968-12.390625-19.34375 11.164063c-1.957031 1.074218-4.410156.460937-5.628906-1.410156-1.21875-1.867188-.792969-4.359376.976562-5.714844l19.199219-14.109375-19.488281 11.222656c-1.945312 1.117187-4.421875.539063-5.671875-1.328125-1.246094-1.863281-.839844-4.371094.933594-5.746094l26.15625-20.15625-24.542969 14.167969c-1.902344 1.074219-4.3125.539063-5.578125-1.246094-1.265625-1.78125-.980469-4.234375.664063-5.675781l29.074218-25.089844-23.042968 13.289063c-1.863282 1.089843-4.246094.613281-5.550782-1.105469-1.304687-1.71875-1.117187-4.144531.433594-5.644531l14.941406-14.507813c-1.839844-.1875-3.351562-1.539062-3.738281-3.347656-.390625-1.808594.429687-3.660156 2.03125-4.589844l24.667969-14.242187c1.867187-1.105469 4.269531-.632813 5.578125 1.09375 1.3125 1.730469 1.113281 4.167969-.457031 5.667969l-12.484376 12.140624 32.554688-18.773437c1.902344-1.074219 4.3125-.539063 5.582031 1.242187 1.265625 1.785157.976563 4.238282-.667969 5.679688l-29.0625 25.078125 40.816407-23.566406c1.945312-1.144531 4.445312-.574219 5.699219 1.300781 1.257812 1.875.839843 4.402344-.957032 5.773438l-26.1875 20.1875 31.230469-18.03125c1.960937-1.132813 4.46875-.535157 5.707031 1.363281 1.238282 1.894531.78125 4.429687-1.046875 5.769531l-19.164062 14.097656 12.0625-6.960937c1.957031-1.144531 4.464843-.566407 5.714843 1.320312 1.253907 1.886719.8125 4.425781-1.003906 5.777344l-16.390625 12.375 8.796875-5.121094c1.90625-1.09375 4.328125-.5625 5.601563 1.226563 1.273437 1.789062.980469 4.253906-.675781 5.695312l-21.847657 18.859375 18.339844-10.601562c1.933594-1.148438 4.429687-.59375 5.699219 1.265625 1.269531 1.855468.878906 4.382812-.894532 5.765625l-2.273437 1.8125.617187-.335938c1.839844-1.0625 4.183594-.605469 5.492188 1.066407 1.3125 1.675781 1.1875 4.058593-.289062 5.589843l-6.6875 6.972657c2.054687-.460938 4.140624.652343 4.90625 2.613281.761718 1.964843-.019532 4.191406-1.84375 5.246093l-24.371094 14.070313c-1.839844 1.0625-4.179688.613281-5.492188-1.058594-1.308594-1.671875-1.191406-4.054687.277344-5.585937l6.210938-6.46875-23.132813 13.394531c-.640625.359375-1.363281.542969-2.097656.53125zm0 0" fill="#ffffff" fill-opacity="1" data-original-color="#b3a4eeff" stroke="none" stroke-opacity="1"/><path d="m155.15625 194.933594c-1.933594 0-3.621094-1.296875-4.121094-3.164063-.5-1.863281.3125-3.832031 1.988282-4.796875l5.972656-3.464844c1.320312-.773437 2.953125-.78125 4.28125-.019531s2.144531 2.179688 2.140625 3.707031c0 1.53125-.824219 2.945313-2.15625 3.703126l-5.972657 3.464843c-.648437.371094-1.386718.570313-2.132812.570313zm0 0" fill="#ffffff" fill-opacity="1" data-original-color="#b3a4eeff" stroke="none" stroke-opacity="1"/><path d="m158.089844 289.0625c-1.777344.003906-3.367188-1.097656-3.996094-2.761719-.625-1.664062-.15625-3.539062 1.179688-4.710937l6.339843-5.5625-16.5 9.519531c-1.882812 1.09375-4.285156.597656-5.578125-1.15625-1.292968-1.75-1.058594-4.195313.542969-5.667969l23.277344-21.648437-33.867188 19.566406c-1.921875 1.074219-4.34375.511719-5.59375-1.296875-1.253906-1.8125-.921875-4.277344.761719-5.691406l29.714844-24.320313-34.988282 20.1875c-1.925781 1.121094-4.386718.570313-5.652343-1.261719-1.269531-1.832031-.914063-4.328124.816406-5.734374l28.074219-22.953126-29.210938 16.859376c-1.921875 1.144531-4.398437.613281-5.679687-1.214844-1.28125-1.832032-.933594-4.34375.796875-5.753906l22.785156-19.058594-20.214844 11.675781c-1.609375.929687-3.632812.714844-5.007812-.535156s-1.78125-3.246094-1.007813-4.933594l7.679688-16.847656c-1.523438-.609375-2.5625-2.042969-2.671875-3.679688-.105469-1.640625.738281-3.195312 2.167968-4l6.597657-3.8125c1.605469-.929687 3.632812-.714843 5.007812.535157 1.371094 1.25 1.78125 3.246093 1.007813 4.933593l-6.484375 14.242188 51.199219-29.585938c1.917968-1.121093 4.378906-.582031 5.652343 1.238281 1.273438 1.824219.933594 4.320313-.78125 5.734376l-22.773437 19.054687 32.09375-18.535156c1.925781-1.125 4.394531-.574219 5.664062 1.261719 1.265625 1.839843.902344 4.34375-.835937 5.746093l-28.058594 22.953125 34.988281-20.179687c1.921875-1.101563 4.367188-.542969 5.628906 1.28125 1.257813 1.824219.910157 4.304687-.800781 5.714843l-29.71875 24.328126 21.035157-12.140626c1.882812-1.109374 4.296874-.617187 5.597656 1.140626 1.296875 1.757812 1.058594 4.210937-.554688 5.683593l-23.273437 21.648438 21.335937-12.304688c1.898438-1.101562 4.328125-.582031 5.609375 1.203125 1.28125 1.789063.996094 4.253906-.660156 5.703125l-6.339844 5.5625 5.390625-3.113281c2.039063-1.160156 4.632813-.457031 5.804688 1.574219s.484375 4.628906-1.535156 5.8125l-42.8125 24.75c-.65625.375-1.398438.566406-2.152344.550781zm0 0" fill="#ffffff" fill-opacity="1" data-original-color="#b3a4eeff" stroke="none" stroke-opacity="1"/><path d="m91.753906 109.710938c-1.835937 0-3.46875-1.175782-4.050781-2.917969-.578125-1.742188.019531-3.660157 1.488281-4.761719l17.324219-12.707031-30.234375 17.460937c-1.941406 1.121094-4.421875.550782-5.675781-1.308594-1.253907-1.859374-.855469-4.371093.914062-5.75l39.253907-30.617187-51.949219 29.984375c-1.957031 1.148438-4.464844.566406-5.714844-1.320312-1.253906-1.886719-.8125-4.421876 1.003906-5.777344l37.101563-28.058594-45.484375 26.265625c-1.972657 1.160156-4.507813.554687-5.746094-1.367187-1.238281-1.925782-.738281-4.484376 1.132813-5.800782l21.058593-15.035156-24.917969 14.386719c-1.921874 1.136719-4.398437.59375-5.671874-1.238281-1.273438-1.835938-.917969-4.34375.816406-5.75l36.386718-30.011719-40.660156 23.464843c-1.839844 1.078126-4.1875.632813-5.507812-1.039062-1.316406-1.675781-1.199219-4.0625.277344-5.597656l16.296874-17.066406-17.570312 10.128906c-1.867188 1.125-4.285156.660156-5.601562-1.082032-1.316407-1.738281-1.109376-4.191406.480468-5.683593l2.023438-1.949219-.109375.0625c-1.601563.921875-3.613281.710938-4.988281-.523438-1.375-1.234374-1.796876-3.214843-1.046876-4.90625l5.324219-11.945312-3.941406 2.277344c-1.5.871094-3.378906.75-4.75-.3125-1.375-1.058594-1.96875-2.84375-1.503906-4.515625l1.519531-5.480469c-.667969.023438-1.328125-.136719-1.914062-.460938-1.285157-.648437-2.160157-1.902343-2.320313-3.335937l-.851563-7.542969c-.230468-.238281-.425781-.503906-.589843-.792968-.566407-.980469-.71875-2.148438-.421875-3.238282.292968-1.09375 1.011718-2.027344 1.992187-2.589844l.800781-.460937c1.25-.722656 2.78125-.769531 4.066407-.117187 1.289062.648437 2.160156 1.90625 2.316406 3.34375l.429687 3.96875 1.023438-.589844c1.5-.871094 3.378906-.75 4.75.3125 1.375 1.058594 1.96875 2.84375 1.503906 4.515625l-1.296875 4.703125 6.304688-3.644532c1.601562-.929687 3.621093-.71875 4.996093.523438 1.375 1.238281 1.796876 3.222656 1.039063 4.914062l-5.324219 11.945313 18.773438-10.855469c1.867187-1.125 4.285156-.65625 5.601562 1.082032 1.316406 1.738281 1.109375 4.191406-.484375 5.6875l-2.011719 1.9375 13.199219-7.621094c1.839844-1.0625 4.175781-.613282 5.488281 1.054687s1.199219 4.046875-.265624 5.582031l-16.296876 17.066407 59.296876-34.207031c1.921874-1.117188 4.378906-.566407 5.644531 1.257812 1.265625 1.828125.917969 4.320312-.796875 5.730469l-36.351563 30.003906 57.105469-32.976563c1.972656-1.15625 4.507812-.550781 5.746094 1.371094 1.238281 1.921875.738281 4.480469-1.128906 5.796875l-21.097657 15.0625 28.589844-16.511719c1.953125-1.144531 4.460937-.566406 5.710937 1.320313 1.253907 1.890625.8125 4.425781-1.003906 5.78125l-37.09375 28.097656 45.484375-26.257812c1.9375-1.097657 4.398438-.519531 5.644531 1.328125 1.246094 1.851562.855469 4.347656-.890624 5.730468l-39.253907 30.609376 44.867188-25.914063c1.96875-1.183594 4.519531-.601563 5.773437 1.324219 1.253906 1.921875.761719 4.492187-1.113281 5.816406l-17.324219 12.699219 16.519532-9.601563c1.894531-1.09375 4.308593-.578125 5.59375 1.195313 1.28125 1.769531 1.015624 4.226562-.617188 5.683593l-20.328125 18.148438 10.4375-6.03125c2.042969-1.179688 4.65625-.476562 5.832031 1.566406 1.179688 2.042969.476563 4.652344-1.566406 5.832032l-46.488281 26.84375c-1.898438 1.117187-4.332031.605468-5.621094-1.179688-1.289063-1.78125-1.007813-4.253906.644531-5.707031l20.335938-18.113281-48.203125 27.835937c-.648438.375-1.386719.574219-2.132813.570313zm0 0" fill="#ffffff" fill-opacity="1" data-original-color="#9ed26aff" stroke="none" stroke-opacity="1"/><path d="m304.019531 109.746094c-1.851562-.003906-3.488281-1.199219-4.054687-2.964844-.566406-1.761719.066406-3.6875 1.570312-4.765625l13.40625-9.617187-26.308594 15.1875c-1.957031 1.15625-4.476562.578124-5.730468-1.316407-1.253906-1.898437-.800782-4.445312 1.03125-5.792969l51.992187-39.074218-69.835937 40.304687c-1.949219 1.109375-4.425782.519531-5.664063-1.347656-1.242187-1.867187-.824219-4.378906.953125-5.742187l42.246094-32.164063-53.757812 31.027344c-1.941407 1.109375-4.410157.53125-5.65625-1.328125-1.246094-1.855469-.851563-4.359375.910156-5.738282l33.28125-25.769531-39.59375 22.851563c-1.941406 1.125-4.421875.554687-5.675782-1.304688-1.253906-1.859375-.855468-4.371094.914063-5.753906l28.816406-22.519531-30.566406 17.640625c-1.957031 1.140625-4.464844.550781-5.710937-1.34375-1.246094-1.890625-.792969-4.425782 1.027343-5.773438l11.363281-8.492187-7.574218 4.378906c-1.898438 1.082031-4.308594.558594-5.582032-1.21875-1.277343-1.773437-1.003906-4.222656.632813-5.675781l13.652344-12.023438c-1.8125-.242187-3.269531-1.613281-3.621094-3.40625-.351563-1.792968.472656-3.609375 2.058594-4.519531l31.085937-17.921875c1.902344-1.105469 4.332032-.582031 5.613282 1.203125s.992187 4.253906-.664063 5.699219l-10.238281 9.03125 33.050781-19.089844c1.949219-1.105469 4.425781-.507812 5.660156 1.367188 1.234375 1.871093.804688 4.378906-.976562 5.738281l-11.394531 8.535156 20.824218-12.015625c1.9375-1.101562 4.398438-.523438 5.644532 1.328125 1.246093 1.847656.855468 4.347656-.890626 5.730469l-28.785156 22.425781 41.285156-23.835937c1.941407-1.105469 4.410157-.527344 5.65625 1.328124 1.246094 1.855469.847657 4.359376-.914062 5.738282l-33.277344 25.789062 56.761719-32.8125c1.953125-1.132812 4.449219-.554687 5.699219 1.324219s.820312 4.40625-.980469 5.769531l-42.238281 32.210938 73.15625-42.238282c1.957031-1.160156 4.476562-.578124 5.730468 1.316407 1.253907 1.898437.800782 4.445312-1.027343 5.789062l-51.976563 39.117188 40.414063-23.328125c1.972656-1.160156 4.507812-.554688 5.746093 1.367187 1.238282 1.925781.738282 4.484375-1.132812 5.800781l-13.421875 9.589844 2.089844-1.203125c1.917969-1.097656 4.351562-.550781 5.617187 1.257813s.945313 4.28125-.742187 5.707031l-18.175781 15.25c1.675781.429687 2.925781 1.832031 3.164062 3.550781.234375 1.714844-.589844 3.40625-2.089844 4.273438l-33.722656 19.445312c-1.917969 1.117188-4.371094.582032-5.644531-1.234375-1.273438-1.816406-.941407-4.308593.761719-5.726562l12.800781-10.726563-34.886719 20.136719c-.636719.375-1.363281.570313-2.105469.574219zm0 0" fill="#ffffff" fill-opacity="1" data-original-color="#9ed26aff" stroke="none" stroke-opacity="1"/><path d="m222.320312 114.507812c-1-.015624-1.964843-.382812-2.722656-1.035156-1.371094-1.148437-1.878906-3.035156-1.269531-4.71875l1.578125-4.375-9.941406 5.742188c-1.828125 1.058594-4.160156.621094-5.476563-1.035156-1.316406-1.65625-1.222656-4.023438.21875-5.570313l.710938-.757813-15.6875 9.0625c-1.835938 1.046876-4.164063.59375-5.46875-1.070312-1.308594-1.664062-1.199219-4.035156.257812-5.570312l19.71875-20.667969-24.917969 14.378906c-1.878906 1.078125-4.269531.574219-5.554687-1.171875s-1.058594-4.179688.53125-5.65625l22.601563-20.886719-17.585938 10.152344c-1.882812 1.128906-4.3125.640625-5.621094-1.121094-1.304687-1.765625-1.058594-4.234375.570313-5.703125l24.183593-22.835937-19.132812 11.066406c-1.933594 1.125-4.40625.5625-5.667969-1.285156-1.261719-1.847657-.878906-4.355469.871094-5.746094l4.601563-3.667969c-1.871094.945313-4.152344.390625-5.382813-1.304687-1.230469-1.699219-1.042969-4.042969.441406-5.523438l16.410157-16.273437-11.246094 6.484375c-1.78125 1.019531-4.03125.625-5.359375-.933594-1.332031-1.558594-1.367188-3.839844-.085938-5.4375l8.703125-10.753906c-1.902344-.0625-3.535156-1.382813-3.996094-3.230469-.464843-1.847656.355469-3.78125 2.007813-4.730469l16.496094-9.550781c1.78125-1.003906 4.023437-.605469 5.347656.953125s1.355469 3.835937.078125 5.429687l-7.578125 9.386719 19.738281-11.390625c1.855469-1.03125 4.179688-.542968 5.464844 1.144532 1.285156 1.683593 1.140625 4.058593-.34375 5.570312l-16.339844 16.25 20.394532-11.75c1.929687-1.097656 4.375-.53125 5.628906 1.300781 1.25 1.835938.886718 4.320313-.835938 5.71875l-4.554687 3.644531 1.621093-.9375c1.882813-1.128906 4.3125-.640624 5.621094 1.121094 1.304688 1.765625 1.058594 4.234375-.570312 5.707032l-24.15625 22.78125 19.121094-11.042969c1.882812-1.074219 4.273437-.570313 5.558593 1.175781 1.285157 1.746094 1.054688 4.175781-.53125 5.652344l-22.597656 20.882812 17.570313-10.148437c1.835937-1.046875 4.164062-.59375 5.472656 1.070312 1.304687 1.664063 1.195312 4.035157-.257813 5.570313l-19.730469 20.675781 14.507813-8.386719c1.828125-1.050781 4.144531-.605468 5.457031 1.039063 1.316406 1.648437 1.230469 4.007812-.199218 5.554687l-2.648438 2.851563c1.296875.148437 2.453125.878906 3.144531 1.984375.6875 1.109375.832031 2.472656.390625 3.699218l-2.441406 6.738282c1.53125.601562 2.582031 2.023437 2.703125 3.664062s-.710937 3.203125-2.140625 4.019532l-5.554688 3.207031c-.644531.378906-1.375.582031-2.125.589843zm0 0" fill="#ffffff" fill-opacity="1" data-original-color="#937661ff" stroke="none" stroke-opacity="1"/><path d="m77.535156 108.363281c4.0625.703125 8.167969 1.144531 12.289063 1.320313-18.542969 8.789062-30.277344 27.5625-30.054688 48.078125-.113281 7.742187 1.382813 15.417969 4.386719 22.554687-35.492188 8.386719-60.367188 46.328125-39.765625 81.671875 8.621094 15.039063 24.023437 24.945313 41.285156 26.546875-7.003906 14.328125-7.1875 31.050782-.492187 45.527344 6.691406 14.472656 19.546875 25.167969 35 29.113281 2.933594.722657 5.917968 1.21875 8.925781 1.484375-4.433594 14.691406-2.230469 30.585938 6.027344 43.515625 8.261719 12.933594 21.753906 21.613281 36.945312 23.769531-4.644531 15.734376-2.085937 32.714844 6.984375 46.378907 9.070313 13.667969 23.726563 22.621093 40.027344 24.449219 16.164062 1.753906 32.332031-3.253907 44.675781-13.835938 12.339844-10.585938 19.757813-25.800781 20.492188-42.039062-.351563-6.425782-1.496094-12.777344-3.414063-18.917969 21.65625-7.589844 36.488282-27.621094 37.429688-50.542969-.238282-4.308594-.867188-8.582031-1.878906-12.777344 27.109374-4.4375 47.457031-27.175781 48.871093-54.613281 0-.195313-.101562-.304687-.128906-.484375-.023437-.179688.128906-.300781.113281-.460938-.453125-7.90625-2.371094-15.660156-5.660156-22.863281 26.792969-4.371093 46.914062-26.828125 48.324219-53.9375-.800781-27.632812-22.609375-50.0625-50.210938-51.636719 4.460938-7.675781 7.046875-16.296874 7.546875-25.164062-.464844-20.511719-13.210937-38.738281-32.316406-46.214844 16.308594-1.210937 32.050781-6.527344 45.753906-15.453125 29.765625-19.867187 41.421875-57.054687 46.292969-91.007812 0-.097657-.050781-.148438-.042969-.230469.039063-.296875-.019531-.597656-.167968-.855469-1.195313-3.089843-9.695313-1.6484372-11.675782 1.613281l-.066406.050782c-24.578125 37.886718-72.808594 5.683594-106.230469 8.890625-15.179687 1.71875-29.675781 7.261719-42.132812 16.105469-3.765625 2.578124-7.238281 5.5625-10.359375 8.898437v-9.777344c-5.433594-40.183593-60.371094-32.429687-63.554688 4.453125-.085937.921875-.066406 1.859375-.136718 2.789063-12.566407-12.1875-28.765626-19.945313-46.140626-22.09375-35.933593-4.65625-87.054687 27.699219-112.449218-11.457031-1.980469-3.046876-12.496094.167968-11.949219 4.019531 6.539063 45.523437 27.230469 93.992187 77.457031 103.132812zm200.808594 103.757813c-7.101562 16.25-6.15625 34.894531 2.558594 50.34375-34.867188 42.957031-95.574219-1.152344-75.734375-49.671875 14.78125-.988281 28.652343-7.480469 38.878906-18.191407 2.085937 1.988282 4.351563 3.777344 6.765625 5.347657 7.949219 6.402343 17.445312 10.601562 27.53125 12.171875zm-46.558594 93.34375c-.679687 2.132812-1.113281 4.339844-1.289062 6.570312.15625 9.894532 2.980468 19.558594 8.175781 27.980469-9.917969 13.949219-27.316406 20.464844-43.957031 16.46875-2.316406-.601563-4.597656-1.34375-6.824219-2.214844-.308594-.128906-.625-.242187-.941406-.378906-2.363281-1.058594-4.648438-2.296875-6.824219-3.703125-1.007812-.664062-1.980469-1.398438-2.953125-2.132812-.972656-.734376-1.707031-1.332032-2.476563-2.023438-5.964843-5.191406-10.695312-11.652344-13.847656-18.90625-.238281-.488281-.671875-.847656-1.195312-.992188-.667969-.332031-1.398438-.511718-2.140625-.527343.738281-2.015625 1.066406-4.15625.953125-6.300781.242187-5.425782.121094-10.859376-.355469-16.269532-.007813-.128906-.035156-.257812-.085937-.378906.785156-4.984375 2.285156-9.835938 4.453124-14.394531 10.320313-.882813 20.25-4.351563 28.878907-10.085938l.648437-.417969c1.992188-1.351562 3.914063-2.8125 5.75-4.378906l.230469-.203125c1.152344-.992187 2.347656-1.921875 3.414063-2.988281 3.28125 3.75 7.078124 7.015625 11.269531 9.703125 2.136719 1.019531 4.367187 1.820313 6.667969 2.382813 4.453124 2.171874 9.152343 3.808593 13.992187 4.863281.273437.15625.527344.34375.75.5625.691406 1.257812.957031 2.707031.753906 4.128906-1.546875 4.410156-2.570312 8.988281-3.046875 13.636719zm-38.402344-94.285156c-3.554687 7.929687-5.328124 16.542968-5.195312 25.234374.167969 9.425782 2.847656 18.632813 7.765625 26.675782-2.445313 3.199218-5.238281 6.117187-8.328125 8.703125-.613281.503906-1.210938 1.042969-1.851562 1.519531-.402344.296875-.8125.546875-1.222657.851562-.851562.625-1.796875 1.230469-2.730469 1.800782-32.773437 19.304687-73.699218-17.066406-64.492187-56.214844.761719-2.734375 1.714844-5.410156 2.859375-8.007812 13.726562-1.140626 26.65625-6.933594 36.640625-16.425782.527344-.460937 1.09375-.851562 1.605469-1.347656 4.527344 4.84375 9.992187 8.722656 16.058594 11.402344 5.941406 2.929687 12.3125 4.894531 18.875 5.808594zm-79.066406 61.441406c.058594-.121094 0-.195313.066406-.316406.648438-.589844 1.304688-1.167969 1.9375-1.792969 6.53125 7.390625 15.019532 12.789062 24.480469 15.566406 1.085938.324219 2.175781.433594 3.269531.699219 3.984376 1.867187 3.992188-.46875 5.121094 5.121094.003906.355468-.027344.707031-.09375 1.058593-1.035156 2.761719-1.859375 5.597657-2.46875 8.480469-.421875 1.082031-.746094 2.203125-.960937 3.34375-1.03125 8.632812-.097657 17.382812 2.730469 25.601562.417968 1.355469 2.300781 1.542969 3.503906 1.554688v.082031c-.707032.113281-.894532.640625-.679688 1.488281-.761718 2.230469-.085937 4.703126 1.707032 6.234376-1.414063 1.761718-2.917969 3.445312-4.507813 5.042968-15.558594-2.847656-28.789063-13.011718-35.554687-27.308594-6.765626-14.296874-6.230469-30.976562 1.429687-44.8125zm119.515625-132.515625c-1.46875 4.078125-2.46875 8.308593-2.976562 12.613281-1.585938 10.75.246093 21.726562 5.238281 31.378906-.027344 1.847656-.417969 3.675782-1.152344 5.375-8.023437 9.214844-19.695312 14.429688-31.914062 14.265625-1.265625-.054687-2.527344.113281-3.738282.488281-12.628906-1.988281-24.011718-8.753906-31.792968-18.894531-2.683594-3.773437-4.855469-7.886719-6.460938-12.226562l-.28125-.769531c-1.875-5.261719-2.847656-10.804688-2.875-16.390626.007813-1.660156.105469-3.320312.296875-4.96875.070313-.46875.085938-.980468.164063-1.441406 0-.1875.074218-.359375.101562-.546875.730469-4.273437 1.964844-8.449219 3.675782-12.429687.207031-.453125.402343-.921875.617187-1.367188.332031-.71875.757813-1.441406 1.125-2.167968 5.929687-10.960938 16.167969-18.949219 28.246094-22.03125h.085937c.238282-.0625.484375-.070313.714844-.128907 2.0625-.421875 4.148438-.707031 6.246094-.855469 7.269531-.402343 14.515625 1.085938 21.035156 4.320313.394531.203125.785156.410156 1.167969.621094 14.882812 7.648437 14.730469 15.199219 12.476562 25.15625zm-63.101562-26.972657c-3.621094 2.1875-6.980469 4.78125-10.019531 7.722657-7.523438-7.820313-17.121094-13.328125-27.664063-15.878907 13.851563-3.359374 26.628906-10.179687 37.136719-19.816406.261718 9.335938.511718 18.6875.546875 27.929688zm-98.195313 37.855469c1.148438-12.578125 7.605469-24.070312 17.746094-31.597656 10.144531-7.523437 23.011719-10.371094 35.382812-7.828125 10.316407 2.285156 26.199219 9.589844 25.371094 21.929688v.15625c-3.429687 6.808593-5.3125 14.289062-5.523437 21.910156-.109375.746094-.332031 1.460937-.375 2.203125 0 .257812.109375.410156.144531.632812.035156.222657-.109375.28125-.09375.433594 0 .554687.136719 1.117187.214844 1.707031.074218.589844-.058594.914063 0 1.398438.429687 7.332031 2.335937 14.5 5.605468 21.078125-.382812 14.566406-21.070312 21.332031-33.050781 21.1875h-.074219c-13.960937-.898438-26.867187-7.730469-35.457031-18.773438l-.324219-.425781c-.488281-.613281-.9375-1.296875-1.417968-1.945312-6.464844-9.371094-9.355469-20.75-8.148438-32.066407zm-40.386718 67.164063c3.195312-10.300782 9.996093-19.105469 19.15625-24.796875 6.257812-5.71875 15.953124-5.335938 21.742187.851562 3.605469 3.886719 7.8125 7.167969 12.460937 9.71875 6.929688 4.039063 14.597657 6.652344 22.550782 7.679688-7.652344 16.363281-6.800782 35.433593 2.28125 51.046875-1.570313 2-3.28125 3.886718-5.121094 5.640625-23.214844-4.707031-39.949219-25.039063-40.105469-48.722657-.085937-3.039062-12.484375-.855468-12.367187 3.308594.585937 25.464844 19.054687 46.976563 44.136718 51.414063-33.445312 19.003906-78.242187-14.488281-64.734374-56.140625zm52.46875 124.246094c-12.726563-14.972657-15.636719-35.960938-7.457032-53.828126 7.300782-.621093 14.441406-2.503906 21.101563-5.554687-4.40625 14.660156-2.386719 30.503906 5.554687 43.59375s21.066406 22.195313 36.105469 25.054687c-6.417969 4.304688-14.066406 6.402344-21.785156 5.972657-1.058594-.046875-2.117188.0625-3.140625.335937-11.777344-1.007812-22.683594-6.601562-30.378906-15.574218zm36.542968 23.652343c6.230469-.527343 12.332032-2.109375 18.039063-4.675781-1.140625 13.980469 3.210937 27.851562 12.132812 38.675781 2.160157 2.703125 13.988281-1.460937 11.570313-4.472656-9.636719-11.71875-13.546875-27.125-10.65625-42.019531 2.378906-1.832032 4.628906-3.828125 6.730468-5.972656 3 3.472656 6.441407 6.539062 10.242188 9.113281 3.078125 2.039062 7.234375 3.175781 10.171875 5.34375 5.121094 3.789062 4.324219 1.304687 5.015625 8.335937.128906 1.261719.09375 2.449219.113281 3.660156-.484375 3.949219-.53125 7.9375-.144531 11.894532 0 2.738281.347656 5.464844 1.03125 8.117187 1.988281 6.902344 5.277344 13.363281 9.683594 19.039063-9.226563 8.679687-21.632813 13.164062-34.277344 12.386718-.238281 0-.539062 0-.800781 0-13.035157-2.722656-24.453125-10.515624-31.742188-21.660156-7.285156-11.144531-9.84375-24.730468-7.109375-37.765625zm73.035156 125.628907c-23.417968-8.300782-36.617187-33.117188-30.40625-57.171876 13.949219-.421874 27.351563-5.53125 38.035157-14.507812 13.054687 11.285156 30.398437 16.273438 47.453125 13.652344 1.492187 4.5625 2.320312 9.3125 2.457031 14.105468-1.578125 29.226563-27.015625 53.964844-57.539063 43.921876zm64.171876-67.15625c-1.636719-.621094-3.417969-.746094-5.121094-.359376-15.71875 3.683594-32.222656-1.113281-43.519532-12.644531-9.382812-10.722656-14.074218-24.757812-13.023437-38.964843.277344-2.53125.710937-5.042969 1.304687-7.519532.675782 0 1.339844.128906 2.007813.128906 16.542969-.023437 32.390625-6.660156 44.015625-18.429687.230469.246094.441406.527344.679688.773437 9.59375 10.957032 23.285156 17.460938 37.839843 17.980469h1.867188c.992187 4.996094 1.496093 10.078125 1.503906 15.171875-.09375 18.679688-10.773437 35.6875-27.554687 43.886719zm16.988281-69.050782c-5.246094-1.777344-10.140625-4.457031-14.457031-7.929687l-.066407-.058594c-.90625-.734375-1.707031-1.535156-2.558593-2.332031-.855469-.792969-1.605469-1.59375-2.375-2.414063-.765626-.820312-1.5-1.644531-2.183594-2.558593l-.152344-.1875c-1.882812-2.464844-3.511719-5.105469-4.863281-7.894532-.148438-.324218-.34375-.640625-.488281-.957031-.238282-.511719-.410157-1.039063-.632813-1.558594-.578125-1.390625-1.089844-2.78125-1.550781-4.183593-.316406-.996094-.613282-1.996094-.855469-3.011719-.144531-.519531-.246094-1.050781-.367187-1.570313-2.261719-10.796875-1.175782-22.027344 3.109374-32.195312.921876-.058594 1.832032-.164063 2.746094-.265625 13.988282-1.121094 27.066406-7.394531 36.695313-17.605469 10.21875 11.046875 24.464843 17.492188 39.507812 17.878906 3.4375 7.289063 5.464844 15.167969 5.972657 23.210938-1.792969 29.441406-26.605469 54.222656-57.480469 43.65625zm100.199219-119.84375c-.230469 22.800782-16.683594 42.191406-39.144532 46.132813-1.121094-.351563-2.300781-.476563-3.472656-.367188-15.808594-.242187-30.476562-8.285156-39.175781-21.488281l-.222657-.332031v-.09375c-1.917968-3.3125-3.507812-6.804688-4.742187-10.429688-.316406-1.007812-.71875-1.980469-.972656-3.003906-.222657-.800781-.367188-1.601563-.546875-2.40625-1.109375-5.617187-1.328125-11.378906-.648438-17.066406.144532-1.023438.324219-2.054688.546875-3.078125.125-.777344.332031-1.546875.492188-2.324219.976562-3.695313 2.296875-7.292969 3.945312-10.742187 17.003907-1.914063 32.53125-10.558594 43.117188-24.003907 23.460937 4.800781 40.4375 25.257813 40.824219 49.203125zm-42.667969-76.800781c-1.59375 24.082031-19.257813 45.097656-41.378907 46.429687-.824218-.882812-1.945312-1.4375-3.148437-1.5625-15.027344-.875-28.828125-8.585937-37.453125-20.921874-.3125-.503907-.554688-1.050782-.851562-1.5625-4.234376-7.777344-6.675782-16.398438-7.152344-25.242188 0-.117188 0-.238281 0-.355469.414062-9.40625 3.167968-18.5625 8.015625-26.632812v-.078125c12.28125-18.847656 37.074219-24.949219 56.703125-13.953125 15.507812 9.210937 25.085937 25.84375 25.265625 43.878906zm-96.167969-103.988281c6.347656-37.390625 56.480469-35.839844 83.667969-28.21875 11.179687 3.433594 22.964843 4.414062 34.558593 2.875 12.574219-1.804688 24.660157-6.101563 35.550782-12.636719-3.011719 20.113281-10.433594 39.308594-21.742188 56.210937-20.292968 26.894532-50.484375 33.203126-81.640625 27.175782-22.757812-4.394532-55.125-17.578125-50.394531-45.40625zm22.328125 46.515625c4.949219 1.902343 10.015625 3.484375 15.164063 4.738281-10.597657 2.238281-20.355469 7.410156-28.160157 14.921875-3.503906-3.582031-7.476562-6.671875-11.816406-9.179687.054687-.167969.097656-.34375.117187-.519532v-26.179687c6.917969 7.179687 15.359376 12.722656 24.695313 16.21875zm-75.945313-67.222657c-.144531-2.105468-.144531-4.21875 0-6.324218.085938-13.746094 10.675782-18.519532 31.769532-14.328125 4.5625 4.617187 7.105468 10.855469 7.074218 17.347656v74.785156c-12.742187-3.84375-26.394531-3.375-38.84375 1.332031v-44.003906c0-1.179687 0-2.347656 0-3.527344v-.714843s0-.078125 0-.121094v-.109375c-.058593-8.105469-.195312-16.230469.007813-24.335938zm-13.3125 23.363282v9.121094c-12.175781 54.503906-104.804687 40.105468-131.078124 7.398437-11.574219-15.875-19.421876-34.152344-22.957032-53.476563 46.832032 27.40625 138.878906-28.058593 154.035156 36.957032zm0 0" fill="#262626" fill-opacity="1" data-original-color="#262626ff" stroke="none" stroke-opacity="1"/><path d="m209.058594 460.328125c-4.484375-.167969-8.589844-2.570313-10.929688-6.398437-2.808594-4.046876-14.710937.390624-11.390625 5.171874 4.105469 5.765626 10.71875 9.230469 17.800781 9.316407 3.148438.34375 6.242188-1.03125 8.097657-3.601563 1.289062-2.59375-1.117188-4.402344-3.578125-4.488281zm0 0" fill="#262626" fill-opacity="1" data-original-color="#262626ff" stroke="none" stroke-opacity="1"/><path d="m106.308594 155.519531c.15625-4.492187 2.867187-12.382812 8.3125-12.5625 3.046875.09375 6.003906-1.023437 8.226562-3.105469 1.476563-2.253906-1.269531-2.65625-3.070312-2.5625-12.980469-.832031-24.335938 8.652344-25.824219 21.574219-.085937 2.492188 12.222656.707031 12.355469-3.34375zm0 0" fill="#262626" fill-opacity="1" data-original-color="#262626ff" stroke="none" stroke-opacity="1"/></g></svg>