<svg id="Icons" height="300" viewBox="0 0 60 60" width="300" xmlns="http://www.w3.org/2000/svg" version="1.1" xmlns:xlink="http://www.w3.org/1999/xlink" xmlns:svgjs="http://svgjs.dev/svgjs"><g width="100%" height="100%" transform="matrix(1,0,0,1,0,0)"><path d="m37.958 59.47a.5.5 0 0 1 -.315-.888l1.139-.927-3.026 1.745a.5.5 0 0 1 -.6-.793l2.2-2.119-5.039 2.912a.5.5 0 0 1 -.6-.791l2.221-2.156-5.1 2.947a.5.5 0 0 1 -.571-.815l1.53-1.284-3.637 2.1a.5.5 0 0 1 -.58-.807l1.854-1.632-4.229 2.438a.5.5 0 0 1 -.585-.8l1.98-1.787-4.49 2.587a.5.5 0 0 1 -.578-.809l1.778-1.546-4.078 2.355a.5.5 0 0 1 -.569-.817l1.4-1.157-1.779 1.026a.5.5 0 0 1 -.636-.749l1.532-1.873-.9.519a.5.5 0 0 1 -.733-.561l.27-1.017a.492.492 0 0 1 -.219-.2.5.5 0 0 1 .182-.682l.5-.289a.5.5 0 0 1 .734.56l-.193.725 2.232-1.288a.5.5 0 0 1 .636.749l-1.534 1.873 4.545-2.629a.5.5 0 0 1 .569.817l-1.4 1.159 3.431-1.979a.5.5 0 0 1 .578.809l-1.778 1.547 4.086-2.359a.5.5 0 0 1 .585.8l-1.971 1.792 4.495-2.595a.5.5 0 0 1 .58.808l-1.857 1.631 4.23-2.443a.5.5 0 0 1 .571.816l-1.53 1.283 3.642-2.1a.5.5 0 0 1 .6.791l-2.222 2.157 5.113-2.951a.5.5 0 0 1 .6.793l-2.2 2.118 4.898-2.834a.5.5 0 0 1 .565.821l-1.14.927.575-.332a.5.5 0 0 1 .626.1.5.5 0 0 1 .021.634l-1.135 1.485.488-.28a.5.5 0 0 1 .5.865l-2.65 1.53a.5.5 0 0 1 -.647-.736l1.134-1.485-3.849 2.221a.493.493 0 0 1 -.25.07z" fill="#ffffff" fill-opacity="1" data-original-color="#b57746ff" stroke="none" stroke-opacity="1"/><path d="m40.5 28.47a.5.5 0 0 1 -.283-.912l1.834-1.258-3.64 2.1a.5.5 0 0 1 -.554-.83l5.715-4.361-4.528 2.614a.5.5 0 0 1 -.577-.81l4.744-4.1a.5.5 0 0 1 .224-.592l1.432-.827a.5.5 0 0 1 .577.811l-2.33 2.013 6.7-3.868a.5.5 0 0 1 .554.83l-5.716 4.362 8.036-4.639a.5.5 0 0 1 .534.845l-1.83 1.255 1.187-.685a.5.5 0 0 1 .564.822l-3.816 3.078 2.973-1.713a.5.5 0 0 1 .556.828l-.7.544a.5.5 0 0 1 .533.779l-1.179 1.6a.5.5 0 0 1 .421.9l-1.98 1.144a.5.5 0 0 1 -.652-.729l1.168-1.586-4.012 2.315a.5.5 0 0 1 -.557-.827l.6-.466-2.241 1.293a.5.5 0 0 1 -.564-.822l3.817-3.078-6.757 3.9a.5.5 0 0 1 -.253.07z" fill="#ffffff" fill-opacity="1" data-original-color="#b0dd44ff" stroke="none" stroke-opacity="1"/><path d="m35.8 28.482a.5.5 0 0 1 -.321-.882l1.676-1.41-2.314 1.336a.5.5 0 0 1 -.54-.839l1.008-.718-.961.554a.5.5 0 0 1 -.542-.837l6.094-4.393-6.327 3.652a.5.5 0 0 1 -.516-.855l.166-.105-.094.054a.5.5 0 0 1 -.528-.848l11.811-7.931-12.151 7.014a.5.5 0 0 1 -.516-.856l2-1.253-1.965 1.135a.5.5 0 0 1 -.52-.854l7.469-4.8-6.644 3.835a.5.5 0 0 1 -.527-.849l11-7.345-3.523 2.033a.5.5 0 0 1 -.536-.842l6.052-4.231-1.042.6a.5.5 0 0 1 -.56-.825l3.729-2.948-1.259.726a.5.5 0 0 1 -.593-.8l1.719-1.615a.5.5 0 0 1 -.137-.92l2.943-1.7a.5.5 0 0 1 .592.8l-1.287 1.21 3.474-2a.5.5 0 0 1 .559.825l-3.733 2.944 5.1-2.942a.5.5 0 0 1 .536.842l-6.049 4.227 6.787-3.918a.5.5 0 0 1 .527.849l-11 7.343 11.431-6.6a.5.5 0 0 1 .521.853l-7.465 4.802 7.317-4.225a.5.5 0 0 1 .516.857l-2 1.254 1.52-.878a.5.5 0 0 1 .529.847l-11.81 7.929 10.317-5.951a.5.5 0 0 1 .517.855l-7.7 4.839a.51.51 0 0 1 .093.108.5.5 0 0 1 -.127.677l-6.1 4.393 1.489-.859a.5.5 0 0 1 .54.84l-2.46 1.751a.5.5 0 0 1 .161.856l-2.914 2.45a.492.492 0 0 1 .153.164.5.5 0 0 1 -.183.683l-3.162 1.825a.491.491 0 0 1 -.24.067z" fill="#ffffff" fill-opacity="1" data-original-color="#995f38ff" stroke="none" stroke-opacity="1"/><path d="m19.81 28.5a.5.5 0 0 1 -.293-.905l3.455-2.5-3.6 2.08a.5.5 0 0 1 -.555-.829l3.735-2.869-3.052 1.753a.5.5 0 0 1 -.551-.832l1.2-.9-.547.317a.5.5 0 0 1 -.559-.827l.5-.394a.5.5 0 0 1 -.43-.87l.247-.209a.5.5 0 0 1 -.443-.817l.809-.968-.342.2a.5.5 0 0 1 -.719-.606l.44-1.193a.5.5 0 0 1 -.305-.931l.992-.573a.5.5 0 0 1 .719.605l-.42 1.138 1.586-.915a.5.5 0 0 1 .634.753l-.809.968 2.045-1.181a.5.5 0 0 1 .573.815l-.079.066 1.029-.594a.5.5 0 0 1 .559.826l-.369.29 1.511-.873a.5.5 0 0 1 .55.832l-1.2.9 2.5-1.444a.5.5 0 0 1 .555.83l-3.733 2.867 5.386-3.11a.5.5 0 0 1 .543.838l-3.454 2.5 4.509-2.6a.5.5 0 0 1 .538.84l-1.53 1.081 2.069-1.2a.5.5 0 0 1 .576.812l-3.74 3.229 4.607-2.66a.5.5 0 0 1 .6.787l-2.617 2.6 3.07-1.766a.5.5 0 0 1 .642.743l-1.291 1.629 1.216-.7a.5.5 0 0 1 .745.511l-.184 1.165a.5.5 0 0 1 .112.915l-.49.282a.5.5 0 0 1 -.75-.513l.153-.973-2.58 1.489a.5.5 0 0 1 -.641-.743l1.291-1.628-4.12 2.377a.5.5 0 0 1 -.6-.787l2.616-2.6-5.882 3.4a.5.5 0 0 1 -.576-.812l3.74-3.223-7 4.042a.5.5 0 0 1 -.538-.841l1.527-1.077-3.33 1.917a.5.5 0 0 1 -.25.066z" fill="#ffffff" fill-opacity="1" data-original-color="#b0dd44ff" stroke="none" stroke-opacity="1"/><path d="m7.061 28.483a.5.5 0 0 1 -.3-.9l2.479-1.819-2.659 1.536a.5.5 0 0 1 -.556-.828l2.675-2.066-2.517 1.451a.5.5 0 0 1 -.562-.824l1.643-1.306-1.377.794a.5.5 0 0 1 -.62-.768l2.068-2.277-1.774 1.024a.5.5 0 0 1 -.642-.743l.91-1.147-.445.257a.5.5 0 0 1 -.718-.61l.429-1.13a.528.528 0 0 1 -.481-.248.5.5 0 0 1 .186-.679l.988-.57a.5.5 0 0 1 .718.61l-.406 1.06 1.5-.868a.5.5 0 0 1 .642.743l-.91 1.145 2.273-1.311a.5.5 0 0 1 .62.768l-2.064 2.277 4.428-2.554a.5.5 0 0 1 .561.824l-1.641 1.306 3.136-1.811a.5.5 0 0 1 .555.829l-2.674 2.065 4.12-2.378a.5.5 0 0 1 .546.836l-2.474 1.816 3.446-1.987a.5.5 0 0 1 .573.814l-3.5 2.967 4.582-2.645a.5.5 0 0 1 .567.82l-1.818 1.482 2.27-1.311a.5.5 0 0 1 .607.782l-1.777 1.817 2.134-1.232a.5.5 0 0 1 .644.74l-.8 1.031.736-.425a.5.5 0 0 1 .726.582l-.181.578a.5.5 0 0 1 .238.933l-.817.471a.5.5 0 0 1 -.727-.582l.15-.478-1.841 1.061a.5.5 0 0 1 -.645-.74l.8-1.03-3.071 1.773a.5.5 0 0 1 -.608-.782l1.777-1.815-4.5 2.6a.5.5 0 0 1 -.567-.82l1.821-1.484-4 2.306a.5.5 0 0 1 -.573-.813l3.5-2.967-6.553 3.783a.494.494 0 0 1 -.25.067z" fill="#ffffff" fill-opacity="1" data-original-color="#96b23eff" stroke="none" stroke-opacity="1"/><path d="m17.1 55.474a.5.5 0 0 1 -.266-.924l16.005-10.016-17.732 10.237a.5.5 0 0 1 -.518-.855l18.457-11.73-19.746 11.4a.5.5 0 0 1 -.519-.855l17.319-11.056-18.421 10.638a.5.5 0 0 1 -.52-.854l15.636-10-16.524 9.541a.5.5 0 0 1 -.513-.857l6.742-4.19-7.109 4.1a.5.5 0 0 1 -.523-.852l14.4-9.37-15.1 8.719a.5.5 0 0 1 -.514-.858l2.833-1.759-2.966 1.716a.5.5 0 0 1 -.521-.849l8.44-5.4-8.7 5.021a.5.5 0 0 1 -.517-.854l4.779-3.031-4.86 2.803a.5.5 0 0 1 -.521-.854l5.268-3.38-5.319 3.071a.5.5 0 0 1 -.527-.849l7.484-4.976-7.564 4.366a.5.5 0 0 1 -.539-.841l8.576-6.087-8.681 5.011a.5.5 0 0 1 -.538-.842l5.6-3.944-5.481 3.166a.5.5 0 0 1 -.551-.831l5.11-3.866-4.9 2.828a.5.5 0 0 1 -.559-.82l3.6-2.95-3.243 1.873a.5.5 0 0 1 -.591-.8l2.114-1.976-1.6.922a.5.5 0 0 1 -.609-.781l.535-.553a.5.5 0 0 1 -.659-.606l.248-.858a.5.5 0 0 1 -.018-.876l.5-.289a.5.5 0 0 1 .731.571l-.156.537 1.925-1.105a.5.5 0 0 1 .61.78l-.52.537 2.285-1.317a.5.5 0 0 1 .592.8l-2.114 1.971 4.812-2.778a.5.5 0 0 1 .567.819l-3.609 2.95 6.534-3.771a.5.5 0 0 1 .551.831l-5.109 3.864 8.138-4.7a.5.5 0 0 1 .538.842l-5.6 3.944 8.3-4.788a.5.5 0 0 1 .539.841l-8.591 6.092 12.007-6.932a.5.5 0 0 1 .527.849l-7.471 4.966 10.084-5.821a.5.5 0 0 1 .52.854l-5.267 3.386 7.342-4.238a.5.5 0 0 1 .517.855l-4.791 3.034 6.738-3.89a.5.5 0 0 1 .52.854l-8.426 5.393 10.823-6.249a.5.5 0 0 1 .514.858l-2.849 1.769 4.553-2.628a.5.5 0 0 1 .523.852l-14.404 9.371 17.709-10.225a.5.5 0 0 1 .514.858l-6.736 4.183 8.736-5.043a.5.5 0 0 1 .519.854l-15.635 10 18.8-10.856a.5.5 0 0 1 .519.855l-17.326 11.059 20.64-11.916a.5.5 0 0 1 .519.855l-18.458 11.729 21.759-12.561a.5.5 0 0 1 .515.856l-16 10.01 15.485-8.938a.5.5 0 0 1 .518.854l-16.918 10.785 16.38-9.454a.5.5 0 0 1 .513.858l-4.8 2.961 4.187-2.424a.5.5 0 0 1 .514.858l-5.8 3.61 5.093-2.939a.5.5 0 0 1 .514.857l-1.571.974.814-.46a.5.5 0 0 1 .524.852l-10.081 6.578 8.979-5.184a.5.5 0 0 1 .52.854l-4.646 2.988 3.5-2.02a.5.5 0 0 1 .535.844l-8.012 5.55 6.134-3.541a.5.5 0 0 1 .527.85l-1.526 1.011a.507.507 0 0 1 .488.211.5.5 0 0 1 -.1.672l-4.575 3.7a.5.5 0 0 1 .455.889l-5.45 3.146a.5.5 0 0 1 -.565-.821l4.56-3.69-7.818 4.511a.5.5 0 0 1 -.526-.849l1.063-.705-2.693 1.554a.5.5 0 0 1 -.535-.843l8.007-5.547-11.07 6.39a.5.5 0 0 1 -.52-.853l4.668-3-6.678 3.853a.5.5 0 0 1 -.523-.851l10.081-6.582-12.877 7.433a.5.5 0 0 1 -.514-.857l1.56-.966-3.156 1.828a.5.5 0 0 1 -.515-.857l5.8-3.612-7.744 4.469a.5.5 0 0 1 -.512-.858l4.8-2.962-6.619 3.82a.5.5 0 0 1 -.518-.854l16.908-10.779-20.153 11.634a.5.5 0 0 1 -.247.068z" fill="#ffffff" fill-opacity="1" data-original-color="#995f38ff" stroke="none" stroke-opacity="1"/><path d="m23.839 31.47a.5.5 0 0 1 -.32-.884l.262-.22-1.795 1.034a.5.5 0 0 1 -.6-.786l1.259-1.262-3.551 2.048a.5.5 0 0 1 -.575-.812l.51-.439-2.167 1.251a.5.5 0 0 1 -.569-.817l.193-.16-1.694.977a.5.5 0 0 1 -.653-.136.5.5 0 0 1 .061-.664l.927-.847-2.854 1.647a.5.5 0 0 1 -.634-.752l1.487-1.794-4.411 2.546a.5.5 0 0 1 -.591-.8l1.01-.94-3.013 1.74a.5.5 0 0 1 -.572-.815l.34-.285-1.908 1.1a.5.5 0 0 1 -.6-.785l1.266-1.27-2.701 1.555a.5.5 0 0 1 -.6-.793l.617-.593-.63.363a.5.5 0 0 1 -.645-.74l.517-.662a.5.5 0 0 1 -.144-.921l1.661-.954a.5.5 0 0 1 .644.74l-.3.389 1.956-1.129a.5.5 0 0 1 .6.793l-.622.591 2.4-1.384a.5.5 0 0 1 .605.785l-1.266 1.27 3.567-2.055a.5.5 0 0 1 .572.815l-.34.285 1.907-1.1a.5.5 0 0 1 .591.8l-1.01.94 3.013-1.74a.5.5 0 0 1 .632.11.5.5 0 0 1 0 .642l-1.487 1.794 4.416-2.546a.5.5 0 0 1 .588.8l-.927.847 2.856-1.647a.5.5 0 0 1 .57.817l-.192.159 1.692-.976a.5.5 0 0 1 .575.812l-.511.439 2.167-1.251a.5.5 0 0 1 .6.786l-1.258 1.262 3.551-2.048a.5.5 0 0 1 .57.816l-.263.22 1.8-1.036a.5.5 0 0 1 .589.8l-.963.889 2.92-1.689a.5.5 0 0 1 .6.785l-1.264 1.277 3.574-2.062a.5.5 0 0 1 .632.755l-1.481 1.755 4.35-2.51a.5.5 0 0 1 .6.794l-1.116 1.066 3.223-1.86a.5.5 0 0 1 .638.748l-1.491 1.831 4.463-2.579a.5.5 0 0 1 .59.8l-.976.9 2.949-1.7a.5.5 0 0 1 .608.781l-1.321 1.36 3.711-2.141a.5.5 0 0 1 .628.759l-1.468 1.7 4.26-2.459a.5.5 0 0 1 .585.8l-.859.776 2.686-1.55a.5.5 0 0 1 .589.8l-.926.851 1.567-.9a.5.5 0 0 1 .63.758l-.807.941.568-.327a.5.5 0 1 1 .5.865l-3.1 1.79a.5.5 0 0 1 -.629-.757l.807-.943-2.946 1.7a.5.5 0 0 1 -.589-.8l.925-.851-2.862 1.647a.5.5 0 0 1 -.585-.8l.858-.776-2.736 1.576a.5.5 0 0 1 -.628-.759l1.467-1.7-4.259 2.459a.5.5 0 0 1 -.609-.781l1.323-1.361-3.713 2.142a.5.5 0 0 1 -.589-.8l.974-.9-2.947 1.7a.5.5 0 0 1 -.638-.748l1.492-1.831-4.468 2.579a.5.5 0 0 1 -.6-.794l1.116-1.066-3.22 1.86a.5.5 0 0 1 -.632-.755l1.48-1.754-4.348 2.509a.5.5 0 0 1 -.605-.785l1.271-1.279-3.576 2.064a.5.5 0 0 1 -.589-.8l.963-.889-2.925 1.689a.493.493 0 0 1 -.25.07z" fill="#ffffff" fill-opacity="1" data-original-color="#b57746ff" stroke="none" stroke-opacity="1"/><path d="m57.244 26.446c-1.576-.016-3.169 0-4.751-.007 2.215-10.972 2.619-8.923-7.063-6.828 2.809-4.5 8.156-5.914 11.447-9.677 3.27-5.385-3.217-11.378-8.568-8.642-3.1 1.323-3.712 4.46-5.6 6.946-3.443 4.155-7.887 7.345-11.808 11.031-3.178-.9-6.675-.7-9.666-2.265-2.768-1.4-3.37 1.639-2.755 3.725-2.414-1.2-5.165-1.22-7.763-1.718-8.77-3.852-6.528 1.07-5.322 7.425-3.544-1.02-7.814 3.191-3.125 5.028-.504 9.585 4.237 19.441 12.992 23.836-.044 1.729-.484 4.145 1.824 4.227 7.133.029 14.27-.019 21.4 0 3.721.056 7.155.761 6.246-4.408 8.7-4.541 13.409-14.116 12.993-23.75 2.875-.552 2.457-4.869-.481-4.923zm-8.394-6.97a15.3 15.3 0 0 0 3.019-1.128c1.127 2.2-.339 5.62-.725 8.091h-11.761l5.551-6.268a32.89 32.89 0 0 0 3.916-.695zm-10.684-5.527c3.031-2.687 6.091-5.3 7.862-9.049a5.625 5.625 0 0 1 3.49-3.425c5.123-1.243 8.872 5.6 5.382 9.434-6.8 3.786-11.793 9.6-16.791 15.53h-.449a8.7 8.7 0 0 0 -5.833-6.871zm-18.401 4.451c.031-.395-.273-1.278.383-.75 5.567 2.393 14.641.979 16.013 8.787h-12.688a8.759 8.759 0 0 0 -3.343-4.731c-.169-1.095-.296-2.196-.365-3.306zm-14.03.332c5.316 2.349 13.908.8 16.178 7.7h-14.949a31.591 31.591 0 0 1 -1.229-7.698zm12.565 39.743c-1.91.562-1.751-1.251-1.6-2.95h26.588c.051.944.146 2.891-.222 2.95zm37.976-25.4a24.441 24.441 0 0 1 -12.141 21.406c-21.251-.64-38.8 6.006-40.4-22.92 17.549.024 34.979-.059 52.536.047zm.721-2.636q-23.4 0-46.812 0c-2.094-.292-10.833 1.361-7.776-2.759 10.4-.352 20.94 0 31.386-.12 2.344.75 30.793-2.091 23.197 2.879z" fill="#262626" fill-opacity="1" data-original-color="#262626ff" stroke="none" stroke-opacity="1"/></g></svg>