<svg height="300" viewBox="0 0 61 60" width="300" xmlns="http://www.w3.org/2000/svg" version="1.1" xmlns:xlink="http://www.w3.org/1999/xlink" xmlns:svgjs="http://svgjs.dev/svgjs"><g width="100%" height="100%" transform="matrix(1,0,0,1,0,0)"><g id="001---Social-Marketing" fill="none"><path id="Path" d="m10.644 59.471c-.2238015.0001026-.4204126-.1485273-.4813425-.363875-.0609299-.2153478.0286636-.4449556.2193425-.562125l17.285-10.6-19.756 11.403c-.2372063.1413849-.54411508.0637063-.68549997-.1735s-.06370631-.5441151.17349997-.6855l22.684-13.98-24.537 14.166c-.2372063.141661-.54433896.0642063-.686-.173s-.0642063-.544339.173-.686l26.048-16.088-27.181 15.694c-.2372063.1413849-.54411508.0637063-.68549997-.1735s-.06370631-.5441151.17349997-.6855l25.27-15.529-25.768 14.875c-.23571786.1278172-.53029699.0469384-.66770199-.1833224-.13740501-.2302607-.06871185-.5279174.15570199-.6746776l27.722-17.085-27.732 16.01c-.23803473.1402803-.54471967.0610347-.685-.177s-.06103473-.5447197.177-.685l11.391-6.861-10.971 6.334c-.23638246.1285498-.53210687.0469768-.6691568-.184581-.13704993-.2315579-.06627089-.5300498.1601568-.675419l11.507-6.941-11 6.35c-.23693016.1419372-.54406281.0649301-.68599999-.172-.14193717-.2369302-.06493016-.5440628.17199999-.686l26.257-16.308-25.741 14.861c-.23583577.1260453-.52910097.0442222-.66561588-.1857118-.13651492-.2299339-.06795177-.5265795.15561588-.6732882l14.764-9.012-14.254 8.229c-.23508655.127347-.52875831.0472199-.66659082-.1818764-.13783251-.2290964-.071048-.5260868.15159082-.6741236l21.272-13.272-20.757 11.983c-.23637787.1427656-.54373437.0668778-.68649997-.1695-.14276561-.2363779-.06687788-.5437344.16949997-.6865l20.167-12.7-19.65 11.346c-.23620749.133071-.53543293.0536509-.67455995-.1790411-.13912701-.2326919-.06746125-.5338687.16155995-.6789589l10.5-6.477-9.987 5.763c-.23551248.13196-.53324972.0531389-.67262044-.1780652-.13937073-.2312042-.07004227-.5312938.15662044-.6779348l13.736-8.632-13.22 7.626c-.2353357.1240261-.52657993.04207-.66269982-.1864836-.13611989-.2285535-.06945065-.5236725.15169982-.6715164l1.9-1.168-1.393.8c-.2372063.1413849-.54411508.0637063-.68549997-.1735s-.06370631-.5441151.17349997-.6855l.492-.3c-.23896262.1270217-.53561484.0408643-.66935707-.1944029-.13374224-.2352672-.05602577-.5342417.17535707-.6745971l3.3-2.049-2.782 1.615c-.15219514.0936036-.34276617.0989017-.49992682.0138987-.15716065-.0850031-.25703449-.2473934-.262-.426-.00496551-.1786067.08573168-.3462951.23792682-.4398987l11.25-7.351-10.726 6.191c-.23486417.1312813-.53150396.0531604-.67124116-.1767732-.1397372-.2299337-.07245767-.5292187.15224116-.6772268l4.428-2.819-3.909 2.258c-.23448097.1270728-.52742279.0477401-.66573664-.1802909-.13831386-.2280309-.07330581-.5244809.14773664-.6737091l1.869-1.188-1.351.779c-.23486417.1312813-.53150396.0531604-.67124116-.1767732-.1397372-.2299337-.07245767-.5292187.15224116-.6772268l.778-.5-.259.15c-.23470337.1364868-.53543738.0607325-.67747413-.1706544-.14203676-.2313868-.07346495-.5338394.15447413-.6813456l1.951-1.266-1.428.824c-.2328603.1351428-.53091891.0616362-.67424226-.1662803-.14332335-.2279164-.08044309-.5283964.14224226-.6797197l3.919-2.682-3.387 1.954c-.15183788.0946754-.34265057.1011545-.5005608.0169967-.15791022-.0841577-.25892765-.2461668-.265-.425-.00607234-.1788331.08372292-.3473213.2355608-.4419967l.857-.581-.327.19c-.22977999.1349572-.525025.0659893-.67123752-.156798-.14621251-.2227873-.09200627-.5210957.12323752-.678202l2.718-2.008-2.17 1.253c-.22729856.1336432-.51931311.0678079-.6672772-.1504392-.14796409-.218247-.10101733-.5138867.1072772-.6755608l1.741-1.373-1.181.68c-.2216325.1226125-.49994169.0601259-.64788528-.1454647-.1479436-.2055906-.11878242-.4893338.06788528-.6605353l.958-.847-.377.218c-.20922217.121191-.47518786.0753075-.6317098-.1089805s-.15874925-.4541733-.0052902-.6410195l.51-.623c-.24228637.0620774-.49317108-.0644237-.58732124-.2961391-.09415017-.2317154-.00259904-.4973543.21432124-.6218609l2.211-1.274c.20922217-.121191.47518786-.0753075.6317098.1089805s.15874925.4541733.0052902.6410195l-.477.582 2.307-1.332c.22223957-.1285782.50574389-.0679309.65592975.1403165s.11823213.4963997-.07392975.6666835l-.959.848 2.868-1.655c.22665062-.1274915.51319057-.0599635.65906069.1553189.14587011.2152823.1023667.5064398-.10006069.6696811l-1.738 1.369 3.806-2.2c.22978-.1349572.525025-.0659893.6712375.156798s.0920063.5210957-.1232375.678202l-2.719 2.014 4.93-2.847c.2329673-.1327691.5291919-.0581284.6714287.1691822.1422368.2273105.0798406.5263539-.1414287.6778178l-.855.579 2.469-1.422c.2328603-.1351428.5309189-.0616362.6742423.1662803.1433233.2279164.080443.5283964-.1422423.6797197l-3.923 2.684 6.111-3.53c.2347034-.1364868.5354374-.0607325.6774741.1706544.1420368.2313868.073465.5338394-.1544741.6813456l-1.945 1.268 3.673-2.12c.2348642-.1312813.531504-.0531604.6712412.1767732.1397372.2299337.0724576.5292187-.1522412.6772268l-.785.5 2.352-1.354c.2354379-.13455.5352149-.0569022.6757281.1750261.1405133.2319283.0705395.5335888-.1577281.6799739l-1.869 1.188 3.538-2.043c.2354379-.13455.5352149-.0569022.6757281.1750261.1405133.2319283.0705395.5335888-.1577281.6799739l-4.428 2.818 6.362-3.673c.2341443-.133112.5316521-.0568382.672871.1725078.1412189.2293459.075396.5293391-.148871.6784922l-11.247 7.349 14.206-8.2c.2369302-.1419372.5440628-.0649301.686.172.1419371.2369302.0649301.5440628-.172.686l-3.3 2.051 5.034-2.909c.2374824-.1413849.5446151-.0634824.686.174s.0634824.5446151-.174.686l-.484.3 2-1.157c.2374824-.1411088.5443912-.0629824.6855.1745s.0629824.5443912-.1745.6855l-1.882 1.147 3.491-2.01c.2350866-.127347.5287583-.0472199.6665908.1818764.1378325.2290964.071048.5260868-.1515908.6741236l-13.736 8.629 16.438-9.485c.2362075-.133071.5354329-.0536509.6745599.1790411.1391271.2326919.0674613.5338687-.1615599.6789589l-10.5 6.48 12.715-7.338c.1529097-.0923532.3434739-.0961147.4999089-.0098676s.2549746.2493998.2585.428c.0035253.1786003-.0884992.3455144-.2414089.4378676l-20.17 12.7 23.478-13.562c.2369302-.1422133.5442867-.0654301.6865.1715.1422133.2369302.0654301.5442867-.1715.6865l-21.269 13.271 24.47-14.129c.2374824-.1411088.5443912-.0629824.6855.1745s.0629824.5443912-.1745.6855l-14.76 9.008 17.093-9.868c.2362075-.133071.5354329-.0536509.6745599.1790411.1391271.2326919.0674613.5338687-.1615599.6789589l-26.248 16.304 29.432-16.993c.2380347-.1402803.5447197-.0610347.685.177s.0610347.5447197-.177.685l-11.527 6.952 12.378-7.147c.2380347-.1402803.5447197-.0610347.685.177s.0610347.5447197-.177.685l-11.394 6.863 11.165-6.446c.2372063-.1413849.5441151-.0637063.6855.1735s.0637063.5441151-.1735.6855l-27.721 17.085 27.209-15.709c.2362845-.1306359.5336041-.0500916.6716393.181948s.0669238.5317553-.1606393.677052l-25.266 15.527 24.755-14.292c.2357179-.1278172.530297-.0469384.667702.1833224.137405.2302607.0687118.5279174-.155702.6746776l-26.043 16.087 25.531-14.74c.2372063-.1413849.5441151-.0637063.6855.1735s.0637063.5441151-.1735.6855l-22.693 13.986 22.181-12.806c.2362845-.1306359.5336041-.0500916.6716393.181948s.0669238.5317553-.1606393.677052l-17.268 10.592 16.757-9.675c.2362845-.1306359.5336041-.0500916.6716393.181948s.0669238.5317553-.1606393.677052l-14.567 8.939 14.056-8.115c.2377586-.1405565.5444435-.0617586.685.176.1405564.2377586.0617586.5444435-.176.685l-2.2 1.329 1.689-.975c.2354667-.1225198.5256326-.0396943.6609447.1886614.135312.2283558.0686058.5226457-.1519447.6703386l-5.462 3.328 4.953-2.86c.2362845-.1306359.5336041-.0500916.6716393.181948s.0669238.5317553-.1606393.677052l-7.349 4.506 6.84-3.948c.2372063-.1413849.5441151-.0637063.6855.1735.1413848.2372063.0637063.5441151-.1735.6855l-8.639 5.341 8.127-4.691c.2347345-.1238045.5252986-.0426548.6619149.1848618.1366163.2275167.0716853.5221296-.1479149.6711382l-9.65 6.028 9.137-5.276c.2354379-.13455.5352149-.0569022.6757281.1750261.1405133.2319283.0705395.5335888-.1577281.6799739l-11.856 7.561 11.338-6.545c.2356087-.1297647.5316571-.04988.6700067.1807924.1383496.2306723.0694166.5294607-.1560067.6762076l-4.011 2.5 3.5-2.019c.2337734-.1287456.5274505-.051198.667188.1761759.1397374.2273739.07627.5244122-.144188.6748241l-10.209 6.682 9.683-5.59c.2329061-.1254293.5232086-.0477402.6623373.1772508s.0789338.5194187-.1373373.6717492l-8.236 5.444 7.711-4.451c.2321092-.1290838.5246372-.0541763.6661393.170578.1415021.2247542.0825963.5209195-.1341393.674422l-7.823 5.354 7.291-4.21c.2321092-.1290838.5246372-.0541763.6661393.170578.1415021.2247542.0825963.5209195-.1341393.674422l-4.809 3.285 4.277-2.469c.2293391-.1285228.5190351-.0574922.6629121.1625395s.0927858.5139004-.1169121.6724605l-5.057 3.72 4.511-2.6c.2296891-.1296297.5205695-.0585592.6646041.1623819s.0916869.5157667-.1196041.6736181l-2.3 1.683 1.689-.975c.220007-.1195261.4945025-.0578939.6422936.1442135.147791.2021073.1233056.4823693-.0572936.6557865l-2.668 2.405 1.363-.786c.2374252-.1242009.5305531-.0391619.6646466.1928199.1340935.2319817.0614797.5284321-.1646466.6721801l-5.469 3.156c-.220007.1195261-.4945025.0578939-.6422936-.1442135-.147791-.2021073-.1233056-.4823693.0572936-.6557865l2.669-2.406-5.561 3.206c-.2296891.1296297-.5205695.0585592-.6646041-.1623819s-.0916869-.5157667.1196041-.6736181l2.3-1.681-4.365 2.517c-.2293391.1285228-.5190351.0574922-.6629121-.1625395s-.0927858-.5139004.1169121-.6724605l5.056-3.718-7.889 4.553c-.2321092.1290838-.5246372.0541763-.6661393-.170578-.1415021-.2247542-.0825963-.5209195.1341393-.674422l4.807-3.284-7.151 4.129c-.2321092.1290838-.5246372.0541763-.6661393-.170578-.1415021-.2247542-.0825963-.5209195.1341393-.674422l7.822-5.355-10.737 6.2c-.233204.1287421-.5263939.0520483-.6666872-.1743946-.1402933-.226443-.0784231-.5231151.1406872-.6746054l8.234-5.442-10.898 6.291c-.2330372.1238601-.5222123.0452782-.6605113-.1794907s-.0780959-.5183212.1375113-.6705093l10.209-6.679-13.042 7.529c-.2350866.127347-.5287583.0472199-.6665908-.1818764-.1378325-.2290964-.071048-.5260868.1515908-.6741236l4.016-2.507-5.827 3.363c-.2348642.1312813-.531504.0531604-.6712412-.1767732-.1397372-.2299337-.0724576-.5292187.1522412-.6772268l11.844-7.553-14.568 8.407c-.2347345.1238045-.5252986.0426548-.6619149-.1848618-.1366163-.2275167-.0716853-.5221296.1479149-.6711382l9.652-6.026-11.925 6.882c-.2357179.1278172-.530297.0469384-.667702-.1833224-.137405-.2302607-.0687118-.5279174.155702-.6746776l8.629-5.334-10.725 6.192c-.2357179.1278172-.530297.0469384-.667702-.1833224-.137405-.2302607-.0687118-.5279174.155702-.6746776l7.351-4.508-9.296 5.366c-.2358358.1260453-.529101.0442222-.6656159-.1857118-.1365149-.2299339-.0679517-.5265795.1556159-.6732882l5.474-3.334-7.263 4.193c-.2363825.1285498-.5321069.0469768-.6691568-.184581-.1370499-.2315579-.0662709-.5300498.1601568-.675419l2.2-1.328-3.795 2.188c-.2357179.1278172-.530297.0469384-.667702-.1833224-.137405-.2302607-.0687118-.5279174.155702-.6746776l14.565-8.935-16.967 9.793c-.075172.0454741-.1611495.0699898-.249.071z" fill="#ffffff" fill-opacity="1" data-original-color="#cbb9a7ff" stroke="none" stroke-opacity="1" style=""/><path id="Path" d="m2.822 19.5c-.22324103.000448-.41973146-.1471482-.48148979-.3616772-.06175833-.2145289.02618057-.4440064.21548979-.5623228l5.384-3.376-5.66 3.268c-.15326694.0918173-.34387535.094893-.5000249.0080685-.15614954-.0868244-.25411739-.2503583-.257-.429s.08975796-.3452512.2430249-.4370685l.554-.343-.04.023c-.23477127.1336383-.53323995.0566316-.67405087-.1739091-.14081092-.2305408-.07304023-.5312411.15305087-.6790909l7.452-4.806-6.931 4c-.23637787.1427656-.54373439.0668779-.6865-.1695s-.06687787-.5437344.1695-.6865l.834-.526-.317.183c-.23470287.1405531-.53878699.0663884-.6824238-.1664401-.14363681-.2328284-.07348967-.5378644.1574238-.6845599l5.412-3.561-4.887 2.824c-.23306416.1496692-.54333082.0820641-.69299998-.151-.14966916-.2330642-.08206417-.5433308.15099998-.693l7.614-5.452-7.072 4.083c-.22764735.1206255-.50968474.0485277-.65151594-.1665485-.14183119-.2150761-.09701975-.50271323.10351594-.6644515l5.358-3.978-4.81 2.778c-.22502404.12983267-.51198925.06570465-.6603401-.14756599s-.10865701-.50462239.0913401-.67043401l4.029-3.33-3.285 1.9c-.21554136.12924329-.49352391.07840894-.64937633-.11875071-.15585243-.19715965-.14113674-.47936858.03437633-.65924929l2.09-2.227c-.24286358.06942225-.49936238-.05319359-.59784831-.28579344s-.00802429-.50212345.21084831-.62820656l2.781-1.605c.21459408-.12282353.486738-.07035061.64028186.12345476.15354386.19380536.14237308.47073665-.02628186.65154524l-2.054 2.189 5.533-3.192c.225024-.12983267.5119893-.06570465.6603401.14756599s.108657.50462239-.0913401.67043401l-4.029 3.326 7.183-4.144c.2292016-.13030393.5201978-.0602449.6649792.1600976.1447814.22034249.0935911.51524355-.1169792.6739024l-5.36 3.973 8.331-4.807c.2308022-.1338179.5260112-.06285643.670779.16123991.1447678.22409633.0880924.52237765-.128779.67776009l-7.614 5.454 10.905-6.293c.2336556-.13069104.5287926-.05414659.6694787.17363081.140686.22777741.0769932.52595205-.1444787.67636919l-5.411 3.558 7.641-4.408c.2355125-.13195996.5332497-.0531389.6726204.17806525.1393708.23120415.0700423.53129378-.1566204.67793475l-.827.522 2.386-1.378c.2347713-.13363828.5332399-.05663158.6740509.17390914.1408109.23054072.0730402.5312411-.1530509.67909086l-7.459 4.807 9.81-5.66c.2369302-.14193718.5440628-.06493016.686.172s.0649302.54406282-.172.686l-.551.341 2.077-1.199c.236654-.14248945.5440105-.066154.6865.17050001.1424894.23665401.066154.54401052-.1705.68649999l-5.377 3.37 7.327-4.227c.2347034-.13648675.5354374-.06073246.6774741.17065438.1420368.23138683.073465.53383941-.1544741.68134562l-11.647 7.557 14.57-8.409c.2337734-.12874562.5274505-.05119801.667188.1761759.1397374.22737391.07627.52441224-.144188.6748241l-12.43 8.128 15.561-8.979c.234481-.12707284.5274228-.04774006.6657366.18029089.1383139.22803094.0733058.52448086-.1477366.67370911l-9.085 5.79 11.513-6.644c.1532669-.09181726.3438754-.09489296.5000249-.00806853.1561495.08682444.2541174.25035831.257.429s-.089758.34525127-.2430249.43706853l-2.177 1.35 3.825-2.208c.2352733-.14469858.5433014-.07127328.688.16400002.1446986.23527329.0712733.54330137-.164.68799998l-12.083 7.873 15.119-8.725c.2355125-.13195996.5332497-.0531389.6726204.17806525.1393708.23120415.0700423.53129378-.1566204.67793475l-7.029 4.434 9.168-5.29c.2369302-.14193718.5440628-.06493016.686.172s.0649302.54406282-.172.686l-3.012 1.87 4.6-2.655c.2355494-.14414631.5433537-.07004943.6875.16550001s.0700494.54335367-.1655.68749999l-11.475 7.447 13.216-7.63c.2348663-.12231188.5243654-.04029567.6601778.1870309.1358123.22732657.0708339.52111934-.1481778.6699691l-4.255 2.67 4.85-2.8c.2363779-.14276561.5437344-.06687787.6865.1695s.0668779.54373439-.1695.6865l-5.712 3.622 6.131-3.54c.2341443-.13311196.5316521-.0568382.672871.17250776s.075396.52933917-.148871.67849224l-8.791 5.756 9.012-5.2c.2333403-.14773617.5422638-.07834031.69.155s.0783403.54226383-.155.69l-10.255 7.072 10.149-5.86c.2342478-.13088329.5300435-.05352709.6702262.17527691.1401827.22880401.074765.52746697-.1482262.67672309l-2.281 1.476 1.777-1.026c.1509447-.09556855.3414086-.10334948.4996457-.0204118.1582372.08293769.2602076.24399378.2675.4225.0072925.17850623-.081201.34734325-.2321457.4429118l-5.572 3.861 5.042-2.911c.2286618-.12658792.5162385-.05570878.6598832.16264166s.0948861.51049224-.1118832.67035834l-5.231 3.909 4.687-2.706c.2287194-.1310429.5198877-.0620127.6654353.1577616.1455476.2197742.0954752.5147944-.1144353.6742384l-2.649 1.994 2.1-1.214c.2268311-.1346393.5192384-.0699075.6680488.1478896s.1028302.513733-.1050488.6761104l-1.491 1.192.932-.538c.2217155-.1278094.5041476-.0675735.6544252.1395729.1502777.2071463.1198841.4943266-.0704252.6654271l-.7.628.121-.07c.1708489-.0984729.3836186-.0873305.5432474.028449s.2362978.3145683.1957526.507551l-.334 1.595c.1892087.0594947.3253626.2252044.347028.4223596.0216654.1971551-.0752542.3884773-.247028.4876404l-.523.3c-.1707299.0988773-.3836412.0881125-.5435273-.0274809-.1598862-.1155934-.2368488-.3143995-.1964727-.5075191l.289-1.383-3.325 1.92c-.2198926.1179958-.4931214.0557887-.6402596-.1457705s-.1231296-.4807496.0562596-.6542295l.7-.627-2.484 1.434c-.2266681.1317558-.5166136.0660514-.6643416-.1505461-.1477279-.2165976-.1030619-.5105201.1023416-.6734539l1.492-1.193-3.495 2.018c-.2292793.1356576-.5246567.0677215-.6716308-.1544735-.1469742-.2221949-.0939218-.520605.1206308-.6785265l2.648-1.993-4.9 2.827c-.2288588.1292299-.518701.0592157-.6633326-.1602346-.1446317-.2194502-.0946742-.513414.1143326-.6727654l5.236-3.909-8.214 4.743c-.2327102.1415972-.5359455.0708583-.6819808-.1590928-.1460353-.229951-.0811265-.5344876.1459808-.6849072l5.573-3.861-8.153 4.707c-.2347713.1336383-.5332399.0566316-.6740509-.1739091-.1408109-.2305408-.0730402-.5312411.1530509-.6790909l2.29-1.484-4.05 2.338c-.2327682.1379387-.5330334.0656905-.677577-.1630348s-.0809181-.5309351.143577-.6819652l10.252-7.069-13.719 7.92c-.2347034.1364868-.5354374.0607325-.6774741-.1706544-.1420368-.2313868-.073465-.5338394.1544741-.6813456l8.8-5.756-11.454 6.605c-.2349709.1292146-.5300387.050062-.6687925-.179405-.1387537-.2294671-.0717837-.5275361.1517925-.675595l5.715-3.625-7.763 4.482c-.236654.1424895-.5440105.066154-.6865-.1705s-.066154-.5440105.1705-.6865l4.254-2.662-6.107 3.52c-.2342478.1308833-.5300435.0535271-.6702262-.1752769s-.074765-.527467.1482262-.6767231l11.472-7.447-14.377 8.3c-.2369302.1422133-.5442867.0654301-.6865-.1715-.1422133-.2369302-.0654301-.5442867.1715-.6865l3.013-1.873-4.733 2.732c-.234285.1222281-.52323.0410463-.6595757-.1853141-.1363457-.2263603-.0730104-.5197344.1445757-.6696859l7.035-4.441-9.176 5.3c-.2347034.1364868-.5354374.0607325-.6774741-.1706544-.1420368-.2313868-.073465-.5338394.1544741-.6813456l12.08-7.874-15.122 8.726c-.2369302.1419372-.5440628.0649302-.686-.172s-.0649302-.5440628.172-.686l2.165-1.343-3.815 2.2c-.2361017.1433179-.5436821.0681017-.687-.168s-.0681017-.5436821.168-.687l9.081-5.792-11.514 6.651c-.2341443.133112-.53165209.0568382-.67287099-.1725078-.1412189-.2293459-.07539606-.5293391.14887099-.6784922l12.429-8.13-15.559 8.983c-.2352733.1446986-.5433014.0712733-.688-.164s-.0712733-.5433014.164-.688l11.644-7.561-14.573 8.415c-.07571462.0437194-.16156969.066821-.249.067z" fill="#ffffff" fill-opacity="1" data-original-color="#80624bff" stroke="none" stroke-opacity="1" style=""/><path id="Path" d="m48.756 15.471c-.2124206.0004723-.401952-.1333248-.4726265-.3336441-.0706745-.2003194-.0070625-.4234278.1586265-.5563559l1.136-.912-2.789 1.61c-.228242.1318458-.5196375.063862-.6659708-.1553737-.1463332-.2192358-.0973404-.5144185.1119708-.6746263l2.3-1.761-2.991 1.727c-.2309306.1317312-.5245674.0597083-.6683337-.1639283-.1437664-.2236366-.0873821-.520673.1283337-.6760717l1.233-.881-.96.554c-.2279124.1308241-.5182022.0628918-.6643976-.1554793-.1461953-.2183711-.0983971-.512647.1093976-.6735207l3.411-2.635-2.857 1.649c-.2231941.1282474-.5072862.0660776-.6565145-.1436697s-.1148202-.4985197.0795145-.6673303l2.932-2.539-2.352 1.359c-.220007.11952609-.4945025.05789392-.6422936-.14421346-.147791-.20210737-.1233056-.48236936.0572936-.65578654l.9-.813-.316.182c-.2063079.1194052-.468219.07656927-.6257371-.10234018-.1575181-.17890944-.1668365-.44413672-.0222629-.63365982l.6-.8c-.2065745-.03705257-.3680246-.1991664-.4042294-.40589118-.0362048-.20672477.0605422-.41405799.2422294-.51910882l1.632-.94c.2063609-.12058674.4692075-.07826311.6272855.10100568.1580781.17926879.1671769.44534557.0217145.63499432l-.422.554 2.259-1.3c.220007-.11952609.4945025-.05789392.6422936.14421346.147791.20210737.1233056.48236936-.0572936.65578654l-.9.813 2.8-1.618c.2231941-.12824745.5072862-.06607757.6565145.14366969s.1148202.49851967-.0795145.66733031l-2.929 2.54 4.759-2.746c.2280989-.13381665.5209547-.06687212.6682583.15275862.1473036.21963075.0981078.51598498-.1122583.67624138l-3.408 2.631 3.494-2.017c.2303174-.12729352.5198822-.05427815.6623044.16700374s.0889497.51508401-.1223044.67199626l-1.237.883.7-.4c.2280542-.12904158.517047-.0601323.6623353.15793143.1452882.21806373.0975826.5113034-.1093353.67206857l-2.3 1.762 1.749-1.01c.2263606-.13092511.5153721-.06531659.6630162.15051137.1476442.21582796.1040467.50896853-.1000162.67248863l-1.137.913.574-.331c.2217155-.1278094.5041476-.0675735.6544252.1395729.1502777.2071463.1198841.4943266-.0704252.6654271l-.479.429c.1915609-.0564454.3984026.0050587.528.157.1555302.1857411.1555302.4562589 0 .642l-.484.58c.0986783.0423259.1808407.1157102.234.209.0667019.114808.0849993.2514322.0508574.3797457-.0341419.1283134-.1179189.2377776-.2328574.3042543l-1.614.932c-.2100901.1220992-.4775473.0754755-.6339316-.1105084s-.1564132-.4574745-.0000684-.6434916l.109-.131-1.558.9c-.2198926.1179958-.4931214.0557887-.6402596-.1457705s-.1231296-.4807496.0562596-.6542295l.431-.387-2.07 1.182c-.0756184.0452887-.1618652.0697828-.25.071z" fill="#ffffff" fill-opacity="1" data-original-color="#56463bff" stroke="none" stroke-opacity="1" style=""/><path id="Path" d="m29.724 51.355c-.2204385.0002701-.4150451-.143855-.4790634-.354793s.0176583-.4389133.2010634-.561207l6.172-4.109-8.1 4.678c-.2355494.1441463-.5433537.0700494-.6875-.1655s-.0700494-.5433537.1655-.6875l5.612-3.631-6.908 3.986c-.2340569.1357068-.5336008.0606207-.6759704-.1694442s-.0759129-.5316408.1499704-.6805558l10.892-7.222-12.552 7.248c-.2355494.1441463-.5433537.0700494-.6875-.1655s-.0700494-.5433537.1655-.6875l10.316-6.682-11.581 6.686c-.2354116.1379583-.5379577.061708-.6798637-.1713453-.1419059-.2330532-.070765-.5368414.1598637-.6826547l9.822-6.283-10.687 6.17c-.2356087.1297647-.5316571.04988-.6700067-.1807924-.1383496-.2306723-.0694166-.5294607.1560067-.6762076l3.714-2.313-4.228 2.442c-.2354116.1379583-.5379577.061708-.6798637-.1713453-.1419059-.2330532-.070765-.5368414.1598637-.6826547l11.835-7.574-12.57 7.257c-.236654.1424894-.5440105.066154-.6865-.1705-.1424894-.236654-.066154-.5440105.1705-.6865l8.444-5.3-8.932 5.157c-.2362075.133071-.5354329.0536509-.6745599-.1790411-.1391271-.2326919-.0674613-.5338687.1615599-.6789589l3.878-2.4-4.09 2.361c-.234481.1270728-.5274228.0477401-.6657366-.1802909-.1383139-.2280309-.0733058-.5244809.1477366-.6737091l11.788-7.489-12.191 7.039c-.2369302.1419372-.5440628.0649301-.686-.172-.1419372-.2369302-.0649301-.5440628.172-.686l6.872-4.281-7.044 4.069c-.2343611.1288923-.5286543.0505227-.6678755-.1778537-.1392213-.2283764-.0740613-.5258734.1478755-.6751463l13.556-8.687-13.786 7.959c-.2338963.1269547-.5262491.04845-.6650871-.1785941-.1388379-.227044-.0755015-.5230536.1440871-.6734059l14.339-9.247-14.5 8.374c-.2347713.1336383-.5332399.0566316-.6740509-.1739091-.1408109-.2305408-.0730402-.5312411.1530509-.6790909l14.1-9.118-14.089 8.132c-.2369302.1419372-.5440628.0649301-.686-.172-.1419372-.2369302-.0649301-.5440628.172-.686l4.109-2.553-3.834 2.213c-.2356087.1297647-.5316571.04988-.6700067-.1807924-.1383496-.2306723-.0694166-.5294607.1560067-.6762076l3.786-2.355-3.385 1.955c-.2336556.130691-.5287926.0541466-.6694787-.1736308-.140686-.2277774-.0769932-.5259521.1444787-.6763692l13.7-9.028-13.275 7.661c-.236654.1424895-.5440105.066154-.6865-.1705s-.066154-.5440105.1705-.6865l3.3-2.066-2.657 1.534c-.2340569.1357068-.5336008.0606207-.6759704-.1694442s-.0759129-.5316408.1499704-.6805558l10.551-6.971-9.686 5.593c-.1529097.0923532-.3434739.0961147-.4999089.0098676s-.2549746-.2493998-.2585-.428c-.0035253-.1786003.0884992-.3455144.2414089-.4378676l2.011-1.274-1.08.624c-.2324067.1328499-.5282158.0590851-.6710333-.1673329s-.0819688-.5251514.1380333-.6776671l8.665-5.951-7.021 4.053c-.2325262.1307666-.5267591.0559509-.6685809-.1700024s-.0812744-.5234503.1375809-.6759976l4.15-2.827-2.183 1.261c-.2272986.1336432-.5193131.0678079-.6672772-.1504392-.1479641-.218247-.1010173-.5138867.1072772-.6755608l3.92-3.091c-.2082376-.0344242-.3724317-.1959008-.4103261-.403535-.0378943-.2076341.0586736-.4167012.2413261-.522465l5.053-2.914c.2268147-.12995.5154475-.0632557.6622581.1530278.1468106.2162836.1022433.50915-.1022581.6719722l-3.3 2.6 7.849-4.53c.2325262-.1307666.5267591-.0559509.6685809.1700024s.0812744.5234503-.1375809.6759976l-4.151 2.826 6.43-3.715c.2324067-.1328499.5282158-.0590851.6710333.1673329s.0819688.5251514-.1380333.6776671l-8.663 5.955 11.081-6.4c.2354379-.13455.5352149-.0569022.6757281.1750261.1405133.2319283.0705395.5335888-.1577281.6799739l-2.017 1.278 2.987-1.725c.2340569-.1357068.5336008-.0606207.6759704.1694442s.0759129.5316408-.1499704.6805558l-10.549 6.967 12.146-7.013c.236654-.1424895.5440105-.066154.6865.1705s.066154.5440105-.1705.6865l-3.3 2.07 4.04-2.333c.2349972-.1452509.5432491-.0724971.6885.1625.1452509.2349972.0724971.5432491-.1625.6885l-13.7 9.027 15.048-8.684c.1532669-.0918173.3438754-.094893.5000249-.0080685.1561495.0868244.2541174.2503583.257.429s-.089758.3452512-.2430249.4370685l-3.774 2.342 4.291-2.477c.2362075-.133071.5354329-.0536509.6745599.1790411.1391271.2326919.0674613.5338687-.1615599.6789589l-4.115 2.558 4.51-2.6c.2347713-.1336383.5332399-.0566316.6740509.1739091.1408109.2305408.0730402.5312411-.1530509.6790909l-14.108 9.119 14.937-8.624c.2347713-.1336383.5332399-.0566316.6740509.1739091.1408109.2305408.0730402.5312411-.1530509.6790909l-14.33 9.242 14.949-8.631c.2354116-.1379583.5379577-.061708.6798637.1713453.1419059.2330532.070765.5368414-.1598637.6826547l-13.555 8.683 14.045-8.11c.1532669-.0918173.3438754-.094893.5000249-.0080685.1561495.0868244.2541174.2503583.257.429s-.089758.3452512-.2430249.4370685l-6.888 4.291 6.942-4.007c.2354379-.13455.5352149-.0569022.6757281.1750261.1405133.2319283.0705395.5335888-.1577281.6799739l-11.773 7.477 11.937-6.894c.2372063-.1413849.5441151-.0637063.6855.1735.1413848.2372063.0637063.5441151-.1735.6855l-3.893 2.41 3.781-2.182c.236654-.1424895.5440105-.066154.6865.1705s.066154.5440105-.1705.6865l-8.443 5.3 8.3-4.794c.2354116-.1379583.5379577-.061708.6798637.1713453.1419059.2330532.070765.5368414-.1598637.6826547l-11.837 7.58 11.7-6.754c.1532669-.0918173.3438754-.094893.5000249-.0080685.1561495.0868244.2541174.2503583.257.429s-.089758.3452512-.2430249.4370685l-3.709 2.307 3.307-1.91c.152731-.0928891.3434161-.097241.5002259-.0114166s.2559212.2487865.26.4275c.0040787.1787135-.0874949.3460275-.2402259.4389166l-9.83 6.288 9.462-5.463c.2347713-.1336383.5332399-.0566316.6740509.1739091.1408109.2305408.0730402.5312411-.1530509.6790909l-10.31 6.677 9.616-5.553c.2340569-.1357068.5336008-.0606207.6759704.1694442s.0759129.5316408-.1499704.6805558l-10.9 7.226 10.016-5.776c.2342478-.1308833.5300435-.0535271.6702262.1752769s.074765.527467-.1482262.6767231l-5.6 3.624 4.577-2.641c.2327769-.1270897.524286-.0503218.6642741.174934.139988.2252559.0797468.5206233-.1372741.673066l-6.185 4.117 4.7-2.711c.2318412-.125947.5216461-.0500755.6620287.1733204.1403825.223396.0830243.5174256-.1310287.6716796l-4.254 2.894 2.315-1.336c.229416-.1334891.5231565-.0644561.6690977.1572468.1459412.221703.0932171.5188044-.1200977.6767532l-3.2 2.381c.2353017-.0274201.4575505.1140461.5323178.3388319.0747672.2247857-.0184705.4711877-.2233178.5901681l-6.955 4.015c-.2292016.1303039-.5201978.0602449-.6649792-.1600976s-.0935911-.5152436.1169792-.6739024l2.923-2.179-6.632 3.829c-.2328603.1351428-.5309189.0616362-.6742423-.1662803-.1433233-.2279164-.080443-.5283964.1422423-.6797197l4.259-2.9-6.521 3.765c-.0757009.0448547-.1620087.0686756-.25.069z" fill="#ffffff" fill-opacity="1" data-original-color="#e5d5c7ff" stroke="none" stroke-opacity="1" style=""/><path id="Path" d="m31.463 47.424c-.2152152 0-.4062846-.137715-.4743416-.3418861-.0680571-.2041711.0021694-.4289848.1743416-.5581139l6.617-4.905-9.5 5.486c-.2311923.1280141-.5220815.054013-.6639947-.1689178-.1419132-.2229309-.0858401-.5178012.1279947-.6730822l8.351-5.85-10.28 5.934c-.2334461.1352991-.5321345.0609722-.6749447-.1679561-.1428102-.2289282-.0782242-.5298733.1459447-.6800439l8.281-5.569-9.567 5.519c-.2334572.1253051-.5241289.0467367-.6626677-.1791186-.1385388-.2258554-.0768365-.5205686.1406677-.6718814l5.977-3.879-6.807 3.928c-.232368.1256461-.5223842.0488566-.6621282-.1753162-.1397441-.2241727-.0809951-.5183743.1341282-.6716838l10.694-7.163-11.69 6.751c-.2335451.1328438-.5303244.0573638-.6720248-.1709163s-.0776546-.5277351.1450248-.6780837l11.019-7.331-11.777 6.8c-.2341443.133112-.5316521.0568382-.672871-.1725078-.1412189-.2293459-.075396-.5293391.148871-.6784922l9.995-6.557-10.531 6.08c-.2355494.1441463-.5433537.0700494-.6875-.1655s-.0700494-.5433537.1655-.6875l8.63-5.588-8.836 5.1c-.2363779.1427656-.5437344.0668778-.6865-.1695-.1427656-.2363779-.0668779-.5437344.1695-.6865l3.785-2.383-3.83 2.211c-.2341443.133112-.5316521.0568382-.672871-.1725078-.1412189-.2293459-.075396-.5293391.148871-.6784922l9.635-6.306-9.622 5.556c-.2343611.1288923-.5286543.0505227-.6678755-.1778537-.1392213-.2283764-.0740613-.5258734.1478755-.6751463l6.742-4.343-6.626 3.826c-.2329673.1327691-.5291919.0581284-.6714287-.1691822-.1422368-.2273105-.0798406-.5263539.1414287-.6778178l11.169-7.554-10.855 6.267c-.2337259.1351461-.5325293.0603345-.675-.169-.1425758-.2291883-.0775112-.5301672.147-.68l8.567-5.72-8 4.617c-.2340569.1357068-.5336008.0606207-.6759704-.1694442s-.0759129-.5316408.1499704-.6805558l5.9-3.9-5.195 3c-.1523738.0932463-.3429193.098119-.4998598.0127826-.1569406-.0853364-.2564332-.2479173-.261-.4265s.086486-.3460363.2388598-.4392826l1.757-1.139-.77.445c-.2341687.1463555-.5426445.0751687-.689-.159s-.0751687-.5426445.159-.689l3.674-2.483-2.4 1.383c-.2318603.1330617-.527371.0602043-.6708066-.1653857-.1434357-.22559-.0840493-.5240996.1348066-.6776143l2.36-1.643-.609.348c-.2283835.1299972-.5184238.0610156-.6638282-.1578813-.1454044-.2188968-.0965443-.5129964.1118282-.6731187l2.734-2.08c-.059516-.0419051-.1093112-.0961341-.146-.159-.1380647-.2391402-.0561341-.5449248.183-.683l4.468-2.58c.2285788-.1329729.5211739-.064966.667677.1551861.1465031.220152.0962484.5163129-.114677.6758139l-.915.7 4.031-2.328c.2327102-.1415972.5359455-.0708583.6819808.1590928.1460353.229951.0811265.5344876-.1459808.6849072l-2.359 1.642 4.349-2.511c.2329673-.1327691.5291919-.0581284.6714287.1691822.1422368.2273105.0798406.5263539-.1414287.6778178l-3.675 2.485 5.3-3.057c.2347034-.1364868.5354374-.0607325.6774741.1706544.1420368.2313868.073465.5338394-.1544741.6813456l-1.76 1.134 2.672-1.542c.2340569-.1357068.5336008-.0606207.6759704.1694442s.0759129.5316408-.1499704.6805558l-5.9 3.9 7.078-4.085c.2335451-.1328438.5303244-.0573638.6720248.1709163s.0776546.5277351-.1450248.6780837l-8.564 5.719 9.761-5.629c.2333681-.1382671.5344194-.0652417.6785003.1645824.144081.2298241.078635.5326135-.1475003.6824176l-11.174 7.554 12.293-7.1c.2343611-.1288923.5286543-.0505227.6678755.1778537.1392213.2283764.0740613.5258734-.1478755.6751463l-6.74 4.341 7.284-4.206c.2352733-.1446986.5433014-.0712733.688.164s.0712733.5433014-.164.688l-9.644 6.31 10.181-5.878c.2355125-.13196.5332497-.0531389.6726204.1780652.1393708.2312042.0700423.5312938-.1566204.6779348l-3.774 2.384 3.945-2.278c.2355494-.1441463.5433537-.0700494.6875.1655s.0700494.5433537-.1655.6875l-8.632 5.589 8.839-5.1c.2341443-.133112.5316521-.0568382.672871.1725078.1412189.2293459.075396.5293391-.148871.6784922l-10 6.552 10.147-5.857c.234721-.145527.5429729-.073221.6885.1615.145527.234721.073221.542973-.1615.6885l-11.015 7.329 11.05-6.38c.2334461-.1352991.5321345-.0609722.6749447.1679561.1428102.2289282.0782242.5298733-.1459447.6800439l-10.7 7.165 10.432-6.023c.2355494-.1441463.5433537-.0700494.6875.1655s.0700494.5433537-.1655.6875l-5.98 3.881 5.573-3.215c.2329673-.1327691.5291919-.0581284.6714287.1691822.1422368.2273105.0798406.5263539-.1414287.6778178l-8.281 5.57 7.543-4.355c.2314518-.1313128.5252013-.0583356.6682918.1660259.1430904.2243616.0853808.5214879-.1312918.6759741l-8.351 5.849 7.178-4.143c.2292016-.1303039.5201978-.0602449.6649792.1600976s.0935911.5152436-.1169792.6739024l-6.615 4.9 4.64-2.678c.2277686-.1327124.5194462-.0657934.6665848.1529333s.0991876.5141157-.1095848.6750667l-2.931 2.288c.2156169.0219965.3925111.1804032.4380792.3922948.045568.2118916-.0505672.4290143-.2380792.5377052l-5.395 3.118c-.2277686.1327124-.5194462.0657934-.6665848-.1529333s-.0991876-.5141157.1095848-.6750667l2.41-1.88-6 3.463c-.075814.0445881-.1620483.0683888-.25.069z" fill="#ffffff" fill-opacity="1" data-original-color="#1f8cb2ff" stroke="none" stroke-opacity="1" style=""/><path id="Path" d="m26.843 41.337c-.1991178.000129-.3793327-.1179-.4587897-.3004774-.0794569-.1825773-.0430087-.3948974.0927897-.5405226l1.842-1.975-3.079 1.779c-.2091618.1199379-.4741262.0735246-.6300667-.1103675s-.1584356-.4528792-.0059333-.6396325l1.436-1.75-1.6.923c-.1776681.1022345-.3997391.0856716-.5602758-.0417875s-.2270159-.3399924-.1677242-.5362125l.4-1.32c-.1907658-.0565484-.3298479-.2208237-.3541532-.4183042-.0243053-.1974806.0707925-.390578.2421532-.4916958l.635-.366c.1775379-.1026213.399737-.0864357.5605292.0408305.1607922.1272663.2275756.339809.1684708.5361695l-.333 1.1 2.891-1.669c.2091618-.1199379.4741262-.0735246.6300667.1103675s.1584356.4528792.0059333.6396325l-1.436 1.747 3.598-2.074c.2144477-.1242599.4875608-.0726667.6419004.1212601.1543397.1939268.1433197.4716518-.0259004.6527399l-1.845 1.976 1.012-.583c.23893-.1358451.5427102-.0533708.6801373.1846528.137427.2380237.0569695.5423443-.1801373.6813472l-3.911 2.257c-.0757146.0437194-.1615697.066821-.249.067z" fill="#ffffff" fill-opacity="1" data-original-color="#ccd0daff" stroke="none" stroke-opacity="1" style=""/><path id="Path" d="m35.5 37.47c-.1588582.0003487-.3084293-.0748126-.4029533-.202489-.0945239-.1276764-.1227515-.2926733-.0760467-.444511l.125-.4-1.383.8c-.2039168.1241051-.4671216.0867538-.6284593-.0891846s-.1758037-.4413864-.0345407-.6338154l1.237-1.812-3.7 2.138c-.223215.1246833-.504532.0608811-.6521181-.1478993-.1475861-.2087803-.1138868-.4952664.0781181-.6641007l1.468-1.255-3.107 1.793c-.2288588.1292299-.518701.0592157-.6633326-.1602346-.1446317-.2194502-.0946742-.513414.1143326-.6727654l1.15-.863-2.1 1.21c-.2268147.12995-.5154475.0632557-.6622581-.1530278-.1468106-.2162836-.1022433-.50915.1022581-.6719722l3.919-3.1-4 2.311c-.2318603.1330617-.527371.0602043-.6708066-.1653857-.1434357-.22559-.0840493-.5240996.1348066-.6776143l.406-.282c-.2236547.0558675-.456517-.048417-.5637666-.2524761-.1072497-.2040591-.0610848-.4549952.1117666-.6075239l2.436-2.143-1.864 1.076c-.1935758.1115285-.4376484.081108-.597926-.0745239-.1602777-.1556319-.1978621-.3987045-.092074-.5954761l.823-1.526c-.2034446.0277868-.4038106-.0686565-.509-.245-.1380647-.2391402-.0561341-.5449248.183-.683l1.321-.762c.1935758-.1115285.4376484-.081108.597926.0745239.1602777.1556319.1978621.3987045.092074.5954761l-.792 1.471 4.7-2.715c.2227723-.1294397.5074311-.0684047.6575526.1409889s.1165485.4985799-.0775526.6680111l-2.438 2.144 5.578-3.22c.2322938-.1351768.5298928-.0625367.6737842.164462.1438914.2269988.0825928.5271392-.1387842.679538l-.4.28c.2281147-.0557697.4643014.0547242.5676839.2655763.1033824.2108522.0460986.465237-.1376839.6114237l-3.921 3.1 3.366-1.943c.2290632-.1321979.5214568-.063148.6671806.1575572.1457237.2207053.094369.5167199-.1171806.6754428l-1.147.861.6-.347c.2234669-.1287231.5081764-.0663691.6573848.1439733.1492085.2103425.1139612.4996608-.0813848.6680267l-1.471 1.257.9-.519c.2018619-.1159573.4570425-.0772592.6154493.0933328.1584069.1705919.1781225.427936.0475507.6206672l-1.237 1.811.581-.335c.1778976-.103234.4008646-.0869947.5619264.0409268s.227355.3414239.1670736.5380732l-.23.748c.0784369.043721.1434426.1080351.188.186.1373847.2389169.0555349.543953-.183.682l-.5.288c-.075521.044419-.1613881.0682135-.249.069z" fill="#ffffff" fill-opacity="1" data-original-color="#d6dbe3ff" stroke="none" stroke-opacity="1" style=""/><path id="Path" d="m26.5 36.47c-.1517605.0000078-.295311-.0689109-.3902099-.18734-.0948988-.1184292-.1308739-.2735495-.0977901-.42166l.244-1.1-2.381 1.374c-.2100901.1220992-.4775473.0754755-.6339316-.1105084s-.1564132-.4574745-.0000684-.6434916l1.548-1.85-2.528 1.459c-.2159307.1231341-.4895276.0689462-.642223-.1271971-.1526954-.1961432-.1381159-.4746734.034223-.6538029l2.441-2.506-2.682 1.548c-.2225048.1289965-.5065753.0681522-.6567253-.1406622-.15015-.2088145-.1173946-.4974755.0757253-.6673378l1.717-1.516-1.132.653c-.2187434.1297091-.5000021.0745628-.6535686-.128145s-.1305136-.4883932.0535686-.663855l.908-.876c-.0784369-.043721-.1434426-.1080351-.188-.186-.1380647-.2391402-.0561341-.5449248.183-.683l2.309-1.333c.2190652-.1318893.5023394-.0772423.6566242.1266708s.1298566.4913741-.0566242.6663292l-.178.171 1.914-1.105c.2225048-.1289965.5065753-.0681522.6567253.1406622.15015.2088145.1173946.4974755-.0757253.6673378l-1.716 1.523 1.5-.864c.216157-.1232114.4900183-.0687436.6425795.1278015.1525612.196545.1373975.4753583-.0355795.6541985l-2.441 2.505 1.842-1.062c.2100291-.1208078.4764517-.0736423.6322418.1119276.1557901.18557.1561096.4561351.0007582.6420724l-1.548 1.85.923-.532c.1716564-.0989851.3855712-.0872613.5453821.02989.1598109.1171514.2353613.3176237.1926179.51111l-.3 1.346c.1065696.0404926.1956849.1168772.252.216.1373847.2389169.0555349.543953-.183.682l-.5.288c-.0768866.0431822-.163826.0652621-.252.064z" fill="#ffffff" fill-opacity="1" data-original-color="#f9b058ff" stroke="none" stroke-opacity="1" style=""/><path id="Path" d="m37.048 39.46c-.189386 0-.3625176-.1070012-.4472136-.2763932s-.066418-.372098.0472136-.5236068l.518-.708-1.323.764c-.2151117.1243892-.4889299.0719324-.6428382-.1231521s-.1411987-.4735922.0298382-.6538479l1.015-1.071-.962.555c-.2225048.1289965-.5065753.0681522-.6567253-.1406622-.15015-.2088145-.1173946-.4974755.0757253-.6673378l.374-.33c-.1652942.0139594-.3267506-.0549686-.431-.184-.1543589-.1906758-.1475812-.4651746.016-.648l1.837-2.045-1.216.7c-.2119487.1215228-.4806809.0720808-.6354985-.1169206-.1548177-.1890014-.1503782-.4622079.0104985-.6460794l1.915-2.168-1.29.744c-.2160105.1246636-.4908577.0710795-.6442199-.1255968s-.1383361-.4762947.0352199-.6554032l1.453-1.5-.844.487c-.2202286.1227467-.4973928.0623225-.6465459-.1409526s-.1236267-.4857984.0595459-.6590474l.442-.4c-.1925758.0410603-.3913193-.0347274-.5076585-.1935877-.1163393-.1588603-.1286092-.3712095-.0313415-.5424123l1.021-1.8-.043.025c-.23893.1358451-.5427102.0533708-.6801373-.1846528-.137427-.2380237-.0569695-.5423443.1801373-.6813472l1.634-.95c.1956493-.1137094.4432793-.081839.6037604.077705s.1938012.4069831.0812396.603295l-1.023 1.8 2.151-1.242c.2202286-.1227467.4973928-.0623225.6465459.1409526s.1236267.4857984-.0595459.6590474l-.36.329c.2192902-.1109734.4867155-.0461212.6308118.1529756s.1221313.4733952-.0518118.6470244l-1.455 1.5.847-.489c.2122255-.1228453.4822194-.073656.6374856.1161414s.1499782.4641845-.0124856.6478586l-1.915 2.168 1.29-.745c.2128621-.1227709.4833831-.0726697.6381602.1181888.1547771.1908586.1479267.4658947-.0161602.6488112l-1.837 2.044 1.215-.7c.2225048-.1289965.5065753-.0681522.6567253.1406622.15015.2088145.1173946.4974755-.0757253.6673378l-.374.33c.2068469-.0178572.4032081.0939709.4933821.280982.090174.1870112.0553968.4102908-.0873821.561018l-1.018 1.073.4-.233c.2048731-.1183073.4646227-.0768354.6224712.0993845s.1705878.4389507.0305288.6296155l-.654.892c.2162656.021415.3939329.1800752.4395775.392551.0456447.2124758-.0511872.4301047-.2395775.538449l-1.624.938c-.0733759.0448224-.1570706.0699653-.243.073z" fill="#ffffff" fill-opacity="1" data-original-color="#f9b058ff" stroke="none" stroke-opacity="1" style=""/><g fill="#262626"><path id="Shape" d="m30.43 47.365c.0920256.025487.187871.0342925.283.026 8.015-.361 15.142-5.759 15.948-14.124.3354913-4.2891437-1.1322788-8.5239813-4.0501376-11.6855327-2.9178589-3.1615515-7.021627-4.9635739-11.3238624-4.9724673-7.98-.008-15.2 6.053-15.948 14.125-.848 9.133 6.366 16.096 15.091 16.631zm.283-29.974c18.187-.091 19.416 28.369.574 29.218-6.952-.309-13.117-5.061-14.32-12.109-1.449-8.485 4.784-17.062 13.746-17.109z" fill="#262626" fill-opacity="1" data-original-color="#262626ff" stroke="none" stroke-opacity="1" style=""/><path id="Shape" d="m23.631 36.117c-.5240743 1.209584-.3728506 2.6057153.3980655 3.6750307.7709162 1.0693155 2.0477234 1.6539645 3.3609345 1.5389693 1.1354025.0126142 2.2283356-.4311329 3.0335826-1.2316797s1.2553846-1.8908634 1.2494174-3.0263203c.906.131 1.811.261 2.712.378.193144 1.0115786 1.0307957 1.7742654 2.056 1.872.0777852.0247013.1597362.0335425.241.026h.02c.014 0 .032-.006.047-.007.046 0 .079 0 .134-.01 3.476-.56 2.841-3.667 2.841-6.427 0-2.489 1.137-7.552-2.142-8.219-.015 0-.034-.009-.052-.013s-.047-.015-.073-.02c-.0249799-.0014194-.0500201-.0014194-.075 0-.032 0-.047-.009-.084-.009-1.274299-.1302137-2.453578.6870916-2.779 1.926-2.463.328-4.95.772-7.423.922-3.034.183-6.777.535-6.828 4.566-.032 2.608 1.488 3.616 3.363 4.059zm2.747 4.1c-1.3330297-.7937506-1.9407563-2.4032928-1.465-3.88.626.077 1.261.121 1.867.16 1.123.074 2.25.211 3.376.363.364 2.177-1.307 4.819-3.778 3.36zm10.252-14.848c2.452.5 1.646 4.849 1.646 6.547 0 1.248.733 6.255-1.07 6.719-2.211-.148-1.482-5.344-1.482-6.552 0-.836-.588-6.526.906-6.714zm-2.321 2.209c-.0819796 1.1699249-.0929998 2.3437421-.033 3.515-.1548767 1.7525513-.1909592 3.5135756-.108 5.271l-5.449-.681c-.318-.04-.652-.065-1-.086v-7.211c.23-.02.454-.042.664-.068zm-8.033.931v7.006c-2.059-.141-4.059-.536-4.487-2.99-.567-3.25 2.018-3.787 4.487-4.016z" fill="#262626" fill-opacity="1" data-original-color="#262626ff" stroke="none" stroke-opacity="1" style=""/><path id="Shape" d="m5.242 59c2.222.928 5.265.509 7.6.509h41.088c.0980123.0002617.1953705-.0159646.288-.048 7.716-.981 6.514-8.8 6.514-14.674v-30.087c0-5.719 1.227-13.6-6.662-14.208-6.912-.536-14.075 0-21 0-8.127 0-16.439-.516-24.552 0-7.018.443-7.25 5.93-7.25 11.481v29.6c0 4.974-1.938 14.961 3.974 17.427zm-2.51-51.989c1.146-7.8 12.8-5.5 18.023-5.5h26.175c2.2154299-.11800037 4.4355701-.11800037 6.651 0 4.485.489 5.642 3.689 5.687 7.477.037 3.167.043 6.335.0413391 9.5h-14.1493391c-3.6570418-3.8854749-8.7642608-6.076508-14.1-6.049-5.3145236.0365192-10.3928715 2.2007598-14.1 6.009h-14.421c-.29255189-3.8100077-.22793688-7.6390325.193-11.437zm28.117 6.589c10.315-.1 18.064 8.472 18.415 18.446-.364 10.368-8.611 19.081-19.377 18.354-9.626311-.7911354-17.0624747-8.7896398-17.151-18.448.0249514-10.0323162 8.0818728-18.1955482 18.113-18.352zm-28.26 5.949h13.35c-2.9916619 3.4802562-4.6486538 7.9107158-4.675 12.5.1095343 10.7952775 8.8831793 19.4935759 19.679 19.51 10.8090662-.1202813 19.5706712-8.7995512 19.793-19.607-.1408509-4.547461-1.7785443-8.9213221-4.659-12.443h13.231c-.008 5.172-.04 10.345-.04 15.516v13.123c0 3.862.99 9.717-5.2 10.341h-41.4c-2.325 0-5.39.423-7.462-.922-2.915-1.892-2.474-5.367-2.474-8.318v-24.763c0-1.6-.067-3.258-.143-4.937z" fill="#262626" fill-opacity="1" data-original-color="#262626ff" stroke="none" stroke-opacity="1" style=""/><path id="Shape" d="m44.347 13.726c.5 1.708 2.276 1.552 3.679 1.552h4.385c.0895839.010305.1801868.0076105.269-.008 1.365-.184 2.742-.664 3.009-2.2.1186979-1.2801277.1304051-2.5679259.035-3.85 0-1.182.3-2.922-.6-3.853-.84-.86-2.23-.647-3.317-.647-1.954 0-6.019-.733-7.242 1.4-.567.991-.284 2.6-.284 3.68-.1497041 1.3059257-.127515 2.6258442.066 3.926zm1.925-8.159c.861-.662 2.742-.289 3.837-.289 1.595 0 3.663-.389 4.131 1.65.1345457 1.1494702.1466134 2.30998049.036 3.462 0 .867.409 4.126-.94 4.336-1.945.038-6.876.848-7.54-1.388-.1895674-1.233945-.2137807-2.4876556-.072-3.728 0-1.01-.378-3.331.548-4.043z" fill="#262626" fill-opacity="1" data-original-color="#262626ff" stroke="none" stroke-opacity="1" style=""/><path id="Path" d="m48.729 10.453h2c.3670163.0337954.7259272-.1219086.952-.413.153-.294-.132-.493-.41-.493h-2c-.3670163-.03379537-.7259272.1219086-.952.413-.153.294.132.493.41.493z" fill="#262626" fill-opacity="1" data-original-color="#262626ff" stroke="none" stroke-opacity="1" style=""/><path id="Path" d="m7.724 13.806v-8c0-.333-1.448-.1-1.448.388v8c0 .333 1.448.097 1.448-.388z" fill="#262626" fill-opacity="1" data-original-color="#262626ff" stroke="none" stroke-opacity="1" style=""/><path id="Path" d="m11.724 13.909v-8c0-.6-1.448-.295-1.448.182v8c0 .6 1.448.295 1.448-.182z" fill="#262626" fill-opacity="1" data-original-color="#262626ff" stroke="none" stroke-opacity="1" style=""/><path id="Path" d="m15.724 13.806v-8c0-.3-1.448-.076-1.448.388v8c0 .306 1.448.076 1.448-.388z" fill="#262626" fill-opacity="1" data-original-color="#262626ff" stroke="none" stroke-opacity="1" style=""/></g></g></g></svg>