<svg id="Icons" height="300" viewBox="0 0 60 60" width="300" xmlns="http://www.w3.org/2000/svg" version="1.1" xmlns:xlink="http://www.w3.org/1999/xlink" xmlns:svgjs="http://svgjs.dev/svgjs"><g width="100%" height="100%" transform="matrix(1,0,0,1,0,0)"><path d="m30.515 9.765a.5.5 0 0 1 -.3-.9l2.411-1.83a.5.5 0 0 1 .023-.852l4.62-2.667a.5.5 0 0 1 .552.831l-.677.514 3.745-2.161a.5.5 0 0 1 .5.865l-10.624 6.135a.493.493 0 0 1 -.25.065z" fill="#ffffff" fill-opacity="1" data-original-color="#f74850ff" stroke="none" stroke-opacity="1"/><path d="m29.4 56.722a.5.5 0 0 1 -.377-.827l.844-.975-.774.447a.5.5 0 0 1 -.582-.806l1.532-1.36-1.588.916a.5.5 0 0 1 -.545-.837l.442-.321-.429.247a.5.5 0 0 1 -.54-.84l7.2-5.122-7.683 4.434a.5.5 0 0 1 -.524-.851l9.724-6.367-10.213 5.894a.5.5 0 0 1 -.524-.852l14.318-9.343-15.081 8.709a.5.5 0 0 1 -.521-.853l14.907-9.567-15.7 9.066a.5.5 0 0 1 -.52-.854l17.302-11.107-18.287 10.557a.5.5 0 0 1 -.518-.854l17.937-11.428-18.954 10.943a.5.5 0 0 1 -.515-.857l13.775-8.583-14.529 8.388a.5.5 0 0 1 -.51-.86l3.646-2.22-4.053 2.34a.5.5 0 0 1 -.515-.857l15.955-9.951-16.823 9.715a.5.5 0 0 1 -.515-.857l17.847-11.158-18.809 10.858a.5.5 0 0 1 -.513-.858l14.278-8.816-15.03 8.677a.5.5 0 0 1 -.512-.858l11.435-7.011-12.058 6.962a.5.5 0 0 1 -.509-.86l1.038-.627-1.376.794a.5.5 0 0 1 -.509-.861l.746-.45-1.068.617a.5.5 0 0 1 -.51-.86l7.447-4.528-7.9 4.557a.5.5 0 0 1 -.512-.858l14.52-8.933-15.147 8.747a.5.5 0 0 1 -.512-.859l13.246-8.127-13.785 7.958a.5.5 0 0 1 -.511-.859l10.683-6.526-11.1 6.409a.5.5 0 0 1 -.511-.86l10-6.1-10.352 5.973a.5.5 0 0 1 -.513-.857l16.474-10.2-16.952 9.791a.5.5 0 0 1 -.515-.857l18.9-11.812-19.386 11.194a.5.5 0 0 1 -.515-.856l16.955-10.575-17.27 9.97a.5.5 0 0 1 -.511-.858l9.733-5.986-9.789 5.652a.5.5 0 0 1 -.518-.855l7.135-4.532-7.106 4.109a.5.5 0 0 1 -.52-.854l8.542-5.475-8.458 4.878a.5.5 0 0 1 -.515-.856l3.423-2.149-3.172 1.83a.5.5 0 0 1 -.515-.856l1.715-1.069-1.375.794a.5.5 0 0 1 -.525-.855l5.085-3.231-4.685 2.707a.5.5 0 0 1 -.528-.848l10.834-7.261-10.262 5.924a.5.5 0 0 1 -.517-.855l.566-.357a.5.5 0 0 1 -.434-.888l9.446-6.545-8.291 4.787a.5.5 0 0 1 -.521-.853l.926-.6a.506.506 0 0 1 -.519-.226.5.5 0 0 1 .147-.68l1.8-1.2-.326.188a.5.5 0 0 1 -.571-.816l4.004-3.364a.5.5 0 0 1 -.389-.913l4.755-2.745a.5.5 0 0 1 .571.815l-3.942 3.313 8.724-5.04a.5.5 0 0 1 .528.848l-1.794 1.2 3.34-1.927a.5.5 0 0 1 .521.852l-.437.282 1.493-.855a.5.5 0 0 1 .535.844l-9.451 6.548 11.433-6.6a.5.5 0 0 1 .517.856l-.287.18.894-.515a.5.5 0 0 1 .529.847l-10.833 7.26 12.125-7a.5.5 0 0 1 .518.855l-5.086 3.225 5.619-3.243a.5.5 0 0 1 .514.856l-1.724 1.078 2.019-1.165a.5.5 0 0 1 .516.857l-3.412 2.141 3.68-2.124a.5.5 0 0 1 .52.854l-8.536 5.47 8.886-5.133a.5.5 0 0 1 .519.854l-7.15 4.541 20.569-11.873a.5.5 0 0 1 .512.859l-9.713 5.972 11.427-6.6a.5.5 0 0 1 .515.856l-16.957 10.579 18.764-10.833a.5.5 0 0 1 .514.854l-18.906 11.817 20.444-11.8a.5.5 0 0 1 .512.858l-16.474 10.2 17.524-10.126a.5.5 0 0 1 .511.859l-10.011 6.111 10.632-6.136a.5.5 0 0 1 .511.859l-10.686 6.528 11.199-6.47a.5.5 0 0 1 .512.858l-13.259 8.142 13.743-7.937a.5.5 0 0 1 .512.859l-14.514 8.929 14.926-8.617a.5.5 0 0 1 .51.86l-7.424 4.515 7.572-4.372a.5.5 0 0 1 .509.861l-.767.464.762-.441a.5.5 0 0 1 .509.86l-1.014.613.958-.553a.5.5 0 0 1 .512.858l-11.442 7.016 11.439-6.6a.5.5 0 0 1 .513.858l-14.279 8.813 14.219-8.209a.5.5 0 0 1 .515.857l-17.846 11.157 17.7-10.219a.5.5 0 0 1 .515.857l-15.949 9.945 15.612-9.012a.5.5 0 0 1 .51.86l-3.664 2.231 3.164-1.826a.5.5 0 0 1 .515.857l-13.771 8.579 13.1-7.56a.5.5 0 0 1 .518.854l-17.954 11.435 16.9-9.756a.5.5 0 0 1 .52.854l-17.3 11.1 15.688-9.056a.5.5 0 0 1 .52.853l-14.918 9.573 12.508-7.22a.5.5 0 0 1 .524.851l-14.311 9.339 9.7-5.6a.5.5 0 0 1 .525.851l-9.724 6.369 1.468-.846a.5.5 0 0 1 .54.839l-7.589 5.4a.532.532 0 0 1 .468.225.5.5 0 0 1 -.124.677l-2.221 1.619a.479.479 0 0 1 .171.15.5.5 0 0 1 -.073.666l-2.068 1.835a.5.5 0 0 1 .251.81l-1.34 1.544a.5.5 0 0 1 0 .868l-1.589.918a.49.49 0 0 1 -.244.067z" fill="#ffffff" fill-opacity="1" data-original-color="#f74850ff" stroke="none" stroke-opacity="1"/><path d="m59.487 22.279c3.47-16.53-19.347-26.918-29.396-13.359-9.491-13.146-31.844-3.65-29.755 12.272 1.7 16.919 23.081 20.765 28.492 35.689 1.522 1.548 2.824-.912 3.173-2.26 6.363-13.087 24.663-17.081 27.486-32.342zm-25.257 27.07a25.988 25.988 0 0 0 -4.152 6.52c-5.152-12.636-20.5-16.7-26.545-28.647-8.89-16.802 14.427-33.806 25.743-17.022.222.36 1.2.086 1.389-.216 8.935-14.324 30.782-2.99 27.383 12.516-2.396 12.876-16.085 17.71-23.818 26.849z" fill="#262626" fill-opacity="1" data-original-color="#262626ff" stroke="none" stroke-opacity="1"/></g></svg>