<svg height="300" viewBox="0 -3 504.56829 504" width="300" xmlns="http://www.w3.org/2000/svg" version="1.1" xmlns:xlink="http://www.w3.org/1999/xlink" xmlns:svgjs="http://svgjs.dev/svgjs"><g width="100%" height="100%" transform="matrix(1,0,0,1,0,0)"><path d="m112.140625 495.496094c-1.886719.007812-3.546875-1.246094-4.054687-3.0625-.507813-1.816406.257812-3.75 1.871093-4.726563l58.949219-35.789062-74.5 42.984375c-1.980469 1.085937-4.464844.417968-5.625-1.519532s-.582031-4.445312 1.308594-5.675781l192.4375-119.890625-220.175782 127.085938c-1.980468 1.070312-4.453124.390625-5.605468-1.539063-1.152344-1.933593-.578125-4.433593 1.308594-5.664062l174.253906-107.035157-195.550782 112.894532c-1.976562 1.027344-4.410156.332031-5.546874-1.585938-1.136719-1.914062-.574219-4.386718 1.277343-5.625l160.816407-98.042968-169.859376 98.066406c-1.992187 1.179687-4.566406.519531-5.746093-1.476563-1.179688-1.996093-.519531-4.570312 1.476562-5.75l155.394531-94.433593-158.753906 91.65625c-1.988281 1.132812-4.519531.464843-5.6875-1.503907-1.167968-1.96875-.539062-4.511719 1.40625-5.714843l160.316406-97.363282-159.550781 92.101563c-1.984375 1.0625-4.457031.371093-5.597656-1.570313-1.144531-1.941406-.550781-4.4375 1.34375-5.65625l62.226563-37.351562-58.34375 33.675781c-1.980469 1.09375-4.476563.417969-5.636719-1.527344-1.15625-1.949219-.5625-4.464843 1.347656-5.683593l213.699219-130.9375-209.410156 120.867187c-1.289063.757813-2.890626.769531-4.195313.03125s-2.117187-2.117187-2.128906-3.617187.777343-2.890626 2.070312-3.652344l10.296875-6.167969-6.074218 3.5c-1.980469 1.042969-4.433594.351563-5.570313-1.578125-1.140625-1.925781-.566406-4.410156 1.304687-5.640625l107.328126-64.6875-103.03125 59.476563c-1.988282 1.132812-4.519532.464843-5.6875-1.507813-1.167969-1.96875-.539063-4.507813 1.410156-5.710937l203.503906-124.441407-199.226562 114.988281c-1.289063.761719-2.890626.773438-4.195313.035157s-2.117187-2.117188-2.128906-3.617188.777343-2.890625 2.070312-3.652343l3.945313-2.347657c-2.011719.917969-4.386719.117188-5.4375-1.824219-1.046875-1.945312-.410156-4.371093 1.457031-5.546874l230.679687-141.933594-226.390624 130.703125c-1.992188 1.179687-4.566407.519531-5.746094-1.476563-1.179688-1.996094-.519532-4.570312 1.476562-5.75l129.855469-78.503906-125.585937 72.511719c-1.980469 1.097656-4.476563.417969-5.636719-1.527344-1.15625-1.949219-.5625-4.464844 1.347656-5.683594l220.882813-135.597656-216.550782 125.0625c-1.980468 1.058594-4.441406.371094-5.585937-1.558594-1.144531-1.929687-.570313-4.417969 1.304687-5.648437l202.84375-124.054688-198.605468 114.621094c-1.976563 1.070312-4.449219.390625-5.601563-1.539062-1.15625-1.933594-.578125-4.433594 1.304687-5.664063l230.644532-142.09375-226.347656 130.679687c-1.976563 1.027344-4.410157.332032-5.546876-1.585937-1.136718-1.914063-.574218-4.386719 1.277344-5.625l170.496094-103.929687-166.226562 95.972656c-1.996094 1.175781-4.570313.511718-5.746094-1.484375-1.179688-2-.515625-4.574219 1.484375-5.75l40.824219-24.5-36.5625 21.097656c-1.988282 1.109375-4.496094.429687-5.65625-1.53125-1.15625-1.960937-.539063-4.488281 1.394531-5.695313l48.832031-29.375-44.570312 25.71875c-1.984376 1.078126-4.464844.394532-5.613282-1.550781-1.152344-1.945312-.558594-4.449219 1.34375-5.667969l58.855469-35.539062-54.558594 31.507812c-1.976562 1.042969-4.421875.355469-5.5625-1.5625-1.144531-1.921874-.582031-4.398437 1.273438-5.636718l146.785156-90.398438-142.523437 82.273438c-1.96875 1.050781-4.414063.378906-5.570313-1.535156-1.152344-1.910157-.609375-4.390626 1.242187-5.640626l179.507813-112.976562-175.1875 101.148438c-1.980469 1.042968-4.429687.351562-5.570313-1.578126-1.136718-1.925781-.5625-4.410156 1.308594-5.640624l12.699219-7.703126-8.394531 4.867188c-1.960938 1.003906-4.359375.320312-5.503906-1.558594-1.140626-1.882812-.632813-4.328125 1.164062-5.601562l88.476562-54.699219-84.179687 48.554687c-1.972656 1.070313-4.4375.398438-5.59375-1.527343-1.15625-1.921875-.597656-4.414063 1.273437-5.65625l108.515626-68.164063-104.195313 60.15625c-1.285156.769532-2.886719.796875-4.195313.066406-1.3125-.726562-2.132812-2.101562-2.15625-3.601562-.027343-1.496094.75-2.894531 2.039063-3.667969l74.589844-46.648437-70.277344 40.582031c-1.980469 1.140625-4.515625.488281-5.691406-1.476563-1.179688-1.960937-.570313-4.503906 1.371093-5.71875l54.730469-34.242187-50.410156 29.097656c-1.964844 1.140625-4.476563.507813-5.671875-1.421875-1.195312-1.929687-.636719-4.460937 1.257812-5.710937l108.132813-71.589844-103.71875 59.878906c-1.984375 1.199219-4.5625.5625-5.761719-1.421875-1.199218-1.984375-.5625-4.5625 1.421875-5.761718l27.699219-17.550782-23.390625 13.511719c-1.976563 1.109375-4.476563.449219-5.648437-1.492187-1.167969-1.941407-.585938-4.460938 1.316406-5.691407l3.851562-2.425781c-1.988281.769531-4.238281-.078125-5.226562-1.96875-.988282-1.886719-.40625-4.21875 1.359375-5.417969l33.503906-21.820312-29.125 16.785156c-1.941406 1.121094-4.417969.515625-5.628906-1.371094-1.210938-1.886719-.722657-4.390625 1.105469-5.6875l60.9375-43.191406-56.414063 32.558594c-1.9375 1.050781-4.359375.421875-5.539063-1.441407-1.183593-1.859374-.726562-4.320312 1.050782-5.628906l29.710937-20.679687-25.179687 14.554687c-1.9375 1.105469-4.402344.5-5.609375-1.375-1.207031-1.878906-.734375-4.371094 1.078125-5.675781l18.742187-13.378906-14.269531 8.214843c-1.933594 1.113282-4.398438.515626-5.609375-1.355468-1.214844-1.871094-.75-4.363282 1.050781-5.675782l5.96875-4.316406-1.410156.839844c-1.894531 1.066406-4.289062.511719-5.519531-1.277344-1.230469-1.792968-.890625-4.226562.785156-5.613281l9.835937-7.964844-4.4375 2.519531c-1.800781 1.015626-4.074218.570313-5.359374-1.050781-1.285157-1.621093-1.191407-3.9375.214843-5.457031l9.484375-10.070312c-1.714844-.34375-3.03125-1.710938-3.316406-3.433594s.527344-3.441406 2.039062-4.3125l19.398438-11.171875c1.800781-1.03125 4.085938-.59375 5.371094 1.035156 1.289062 1.625 1.195312 3.949219-.21875 5.46875l-6.992188 7.410156 25.808594-14.871093c1.894531-1.066407 4.289062-.511719 5.519531 1.277343 1.230469 1.792969.890625 4.226563-.785156 5.613281l-9.828125 7.957032 25.734375-14.847656c1.933594-1.109376 4.398437-.515626 5.613281 1.355468 1.210938 1.871094.75 4.367188-1.054687 5.675782l-6.011719 4.339843 19.71875-11.371093c1.9375-1.105469 4.402344-.503907 5.609375 1.375 1.207031 1.875.734375 4.371093-1.078125 5.675781l-18.777344 13.359375 35.40625-20.410156c1.9375-1.050782 4.359375-.421876 5.539063 1.4375 1.183593 1.859374.726562 4.320312-1.050781 5.628906l-29.660157 20.628906 48.015625-27.695312c1.9375-1.078126 4.378906-.464844 5.574219 1.398437 1.199219 1.867187.738281 4.339844-1.046875 5.652344l-60.921875 43.199219 87.074219-50.25c1.960937-1.054688 4.398437-.394532 5.5625 1.503906 1.164062 1.894531.644531 4.367187-1.179688 5.636718l-33.574218 21.867188 50.257812-29.007812c1.96875-1.054688 4.417969-.378907 5.574219 1.53125 1.152343 1.910156.605469 4.390624-1.242188 5.644531l-3.011719 1.90625 15.738282-9.082031c1.96875-1.085938 4.445312-.421876 5.613281 1.503906 1.164063 1.925781.601563 4.429687-1.277344 5.671875l-27.695312 17.535156 42.789062-24.710937c1.960938-1.117188 4.449219-.484376 5.640625 1.433593 1.1875 1.914063.652344 4.429688-1.21875 5.691407l-108.113281 71.5625 136.339844-78.6875c1.976562-1.109376 4.476562-.445313 5.648437 1.492187 1.167969 1.941406.585938 4.460937-1.316406 5.691406l-54.691406 34.1875 71.722656-41.371093c1.972656-1.070313 4.4375-.398438 5.59375 1.523437 1.15625 1.925781.597656 4.417969-1.273438 5.660156l-74.699218 46.699219 93.367187-53.882812c1.976563-1.109376 4.476563-.445313 5.644531 1.492187 1.171876 1.941406.589844 4.460937-1.3125 5.691406l-108.511718 68.128907 130.503906-75.3125c1.980469-1.117188 4.492188-.453126 5.660156 1.5 1.167969 1.953124.566406 4.484374-1.355468 5.699218l-88.398438 54.617188 107.125-61.816406c1.984375-1.082032 4.464844-.394532 5.617188 1.546874 1.148437 1.945313.554687 4.449219-1.347657 5.671876l-12.984375 7.886718 26.148438-15.105468c1.96875-1.085938 4.449218-.421876 5.613281 1.503906 1.164063 1.925781.601563 4.429687-1.277344 5.671875l-179.433593 112.847656 208-120.023437c1.976562-1.074219 4.449218-.394532 5.601562 1.539062 1.15625 1.929688.578125 4.429688-1.304688 5.660156l-146.800781 90.382813 169.050781-97.582031c1.984376-1.082032 4.464844-.394532 5.617188 1.546874 1.148438 1.945313.554688 4.449219-1.34375 5.671876l-58.949219 35.585937 74.15625-42.804687c1.988281-1.109376 4.5-.429688 5.65625 1.53125 1.160157 1.960937.539063 4.488281-1.390625 5.695312l-48.925781 29.417969 61.121094-35.253907c1.988281-1.105468 4.5-.425781 5.65625 1.535157 1.15625 1.960937.539062 4.488281-1.394531 5.691406l-40.503907 24.34375 46.582031-26.859375c1.988282-1.132812 4.519532-.464844 5.6875 1.503906 1.167969 1.96875.542969 4.511719-1.40625 5.714844l-170.460937 103.808594 175.363281-101.183594c1.285156-.765625 2.886719-.789062 4.195313-.058594 1.308593.734375 2.128906 2.105469 2.148437 3.605469.019532 1.5-.757812 2.894531-2.046875 3.664063l-230.804687 142.117187 231.441406-133.621094c1.984375-1.097656 4.480469-.421875 5.636719 1.523438 1.160156 1.949219.5625 4.464843-1.347657 5.683593l-202.769531 124.015626 198.75-114.75c1.976563-1.039063 4.417969-.351563 5.5625 1.566406 1.140625 1.917968.582031 4.394531-1.273437 5.636718l-220.882813 135.605469 216.59375-125.054687c1.996094-1.179688 4.570313-.519532 5.75 1.476562 1.179688 1.996094.519531 4.570313-1.476562 5.75l-129.855469 78.503906 125.582031-72.511718c1.984375-1.09375 4.480469-.417969 5.636719 1.527344 1.160156 1.949218.5625 4.464843-1.347656 5.683593l-230.675782 141.933594 226.386719-130.703125c1.992188-1.148438 4.539063-.476562 5.707031 1.503906 1.171876 1.984375.523438 4.542969-1.453124 5.730469l-3.945313 2.351563c2.015625-.933594 4.40625-.136719 5.460937 1.820312 1.050782 1.953125.398438 4.390625-1.488281 5.558594l-203.507812 124.472656 199.226562-114.988281c1.988281-1.109375 4.5-.429688 5.65625 1.53125 1.15625 1.960937.539063 4.488281-1.390625 5.695312l-107.296875 64.660157 103.03125-59.484376c1.984375-1.0625 4.457031-.367187 5.597657 1.570313 1.144531 1.941406.550781 4.4375-1.34375 5.65625l-10.296876 6.171875 6.078126-3.5c1.992187-1.183594 4.566406-.53125 5.75 1.464844 1.1875 1.992187.53125 4.566406-1.460938 5.753906l-213.699219 130.9375 209.410157-120.867188c1.984374-1.0625 4.453124-.371093 5.597656 1.570313 1.140625 1.941406.546875 4.4375-1.34375 5.65625l-62.269532 37.351563 57.980469-33.464844c1.984375-1.078125 4.464844-.394532 5.617188 1.550781 1.148437 1.941406.554687 4.449219-1.34375 5.667969l-160.367188 97.414062 156.117188-90.113281c1.984375-1.078125 4.46875-.394531 5.617187 1.550781 1.152344 1.941406.558594 4.449219-1.34375 5.667969l-155.546875 94.496094 151.214844-87.292969c1.984375-1.078125 4.46875-.394531 5.617187 1.546875 1.152344 1.945313.558594 4.449219-1.34375 5.671875l-160.675781 97.957031 156.4375-90.320312c1.976563-1.039063 4.417969-.351563 5.5625 1.566406 1.140625 1.917969.582031 4.394531-1.273437 5.636719l-174.179688 107.015625 169.890625-98.078125c1.976563-1.089844 4.460938-.417969 5.625 1.519531 1.160157 1.933594.582031 4.441406-1.3125 5.671875l-192.417969 119.9375 188.105469-108.621094c1.984375-1.078125 4.464844-.394531 5.617188 1.550782 1.148437 1.941406.554687 4.449218-1.34375 5.667968l-59 35.839844 54.75-31.609375c1.976562-1.070313 4.441406-.398437 5.597656 1.527344 1.15625 1.921875.59375 4.414062-1.273437 5.65625l-158.953126 99.679687 154.613282-89.261718c1.980468-1.058594 4.441406-.371094 5.585937 1.558593 1.148438 1.929688.570313 4.417969-1.304687 5.648438l-59.066406 36.195312 54.785156-31.628906c1.972656-1.101563 4.460937-.445313 5.632812 1.484375 1.175782 1.929688.609375 4.441406-1.277344 5.683594l-149.015624 95.609375 144.660156-83.511719c1.96875-1.027344 4.390625-.347656 5.535156 1.554688 1.144531 1.898437.613281 4.363281-1.210938 5.621093l-85.800781 53.945313 81.476563-47.003906c1.976562-1.089844 4.460937-.417969 5.625 1.515624 1.160156 1.9375.582031 4.445313-1.308594 5.675782l-42.019531 26.164062 37.703125-21.757812c1.964844-1.0625 4.417968-.40625 5.582031 1.5 1.167969 1.90625.632813 4.390625-1.207031 5.652344l-89.753906 58.082031 85.378906-49.285157c1.957031-1.066406 4.410156-.414062 5.578125 1.484376 1.171875 1.898437.652343 4.378906-1.179688 5.648437l-76.765625 50.363281 72.367188-41.777344c1.96875-1.179687 4.523437-.554687 5.726562 1.398438 1.207032 1.953125.617188 4.515625-1.320312 5.746094l-56.980469 37.542968 52.574219-30.351562c1.957031-1.113281 4.441406-.484375 5.636718 1.421875 1.191407 1.90625.667969 4.417969-1.1875 5.6875l-52.148437 35.253906 47.699219-27.53125c1.941406-1.058593 4.375-.429687 5.558594 1.4375 1.183593 1.871094.710937 4.335938-1.074219 5.640625l-40.441407 27.921875 35.957032-20.738281c1.933594-1.109375 4.398437-.515625 5.609375 1.359375 1.214843 1.871094.75 4.363281-1.050781 5.675781l-33.953126 24.617188 29.378907-16.964844c1.878906-1.058594 4.253906-.515625 5.492187 1.25 1.238282 1.769531.9375 4.183594-.699218 5.589844l-31.894532 26.792968 27.109375-15.652343c1.804688-1.042969 4.101563-.605469 5.394531 1.027343 1.292969 1.632813 1.1875 3.96875-.242187 5.484376l-17.699219 18.785156 9.1875-5.304688c1.304688-.828125 2.953125-.875 4.296875-.121094 1.347657.75 2.171875 2.179688 2.152344 3.71875-.019531 1.542969-.882813 2.949219-2.25 3.664063l-33.933594 19.574219c-1.804687 1.027344-4.085937.589844-5.375-1.039063-1.289062-1.625-1.195312-3.949219.21875-5.46875l17.703125-18.792969-43.832031 25.300782c-1.878906 1.054687-4.253906.515625-5.492187-1.25-1.238282-1.769532-.9375-4.1875.699218-5.59375l31.894532-26.78125-58.25 33.625c-1.933594 1.109375-4.398438.511718-5.609376-1.359375-1.210937-1.871094-.75-4.363281 1.054688-5.675781l33.964844-24.59375-54.808594 31.628906c-1.941406 1.058594-4.371094.429687-5.554688-1.441406-1.183593-1.867188-.714843-4.332032 1.074219-5.636719l40.40625-27.949219-60.675781 35.027344c-1.949219 1.066406-4.394531.429687-5.574219-1.453125-1.179687-1.882813-.6875-4.363281 1.125-5.648438l52.121094-35.253906-73.390625 42.355469c-1.964844 1.136718-4.476562.507812-5.671875-1.425782-1.195313-1.929687-.640625-4.460937 1.257813-5.710937l57.007812-37.558594-77.414062 44.695313c-1.960938 1.09375-4.4375.453125-5.617188-1.460938-1.183594-1.910156-.648438-4.414062 1.210938-5.675781l76.777343-50.359375-99.589843 57.496094c-1.964844 1.097656-4.449219.449218-5.625-1.472656-1.175782-1.921876-.628907-4.429688 1.242187-5.679688l89.703125-58.09375-112.976562 65.246094c-1.984376 1.140625-4.515626.484375-5.695313-1.476563-1.175781-1.960937-.566406-4.503906 1.371094-5.71875l41.894531-26.078125-57.664062 33.273438c-1.964844 1.023437-4.390626.34375-5.535157-1.558594-1.144531-1.898438-.613281-4.359375 1.210938-5.621094l85.875-53.976562-105.933594 61.15625c-1.96875 1.078125-4.4375.421875-5.605469-1.496094-1.167968-1.914062-.621094-4.414062 1.242188-5.664062l149.039062-95.609376-178.046875 102.769532c-1.980469 1.054687-4.441406.371094-5.589843-1.5625-1.144532-1.929688-.570313-4.417969 1.308593-5.648438l58.953125-36.09375-75.070312 43.304688c-1.976563 1.105468-4.476563.445312-5.644532-1.496094-1.171874-1.941406-.589843-4.460938 1.3125-5.691406l158.921876-99.636719-185.066407 106.824219c-.632812.378906-1.359375.582031-2.097656.59375zm0 0" fill="#ffffff" fill-opacity="1" data-original-color="#4fc0e8ff" stroke="none" stroke-opacity="1"/><path d="m162.222656 159.757812c-1.835937.003907-3.460937-1.1875-4.011718-2.9375-.550782-1.753906.101562-3.660156 1.613281-4.707031l13.328125-9.234375-28.292969 16.285156c-1.949219 1.097657-4.414063.476563-5.609375-1.410156-1.199219-1.890625-.703125-4.386718 1.125-5.675781l10.074219-6.957031-24.34375 14.042968c-1.933594 1.09375-4.386719.488282-5.589844-1.378906-1.203125-1.871094-.742187-4.351562 1.050781-5.664062l23.148438-16.460938-38.945313 22.46875c-1.90625 1.085938-4.328125.515625-5.550781-1.304687-1.226562-1.820313-.84375-4.273438.875-5.636719l36.226562-28.183594-47.164062 27.195313c-1.902344 1.105469-4.335938.554687-5.574219-1.265625-1.238281-1.816406-.863281-4.285156.859375-5.652344l28.335938-22.542969-31.652344 18.28125c-1.835938 1.085938-4.195312.625-5.484375-1.078125-1.289063-1.699218-1.097656-4.097656.449219-5.570312l23.5-22.714844-20.898438 12.0625c-1.804687 1.042969-4.105468.605469-5.394531-1.03125-1.292969-1.640625-1.1875-3.976562.25-5.488281l9.5-10.007813c-1.707031-.347656-3.019531-1.71875-3.296875-3.441406-.277344-1.71875.535156-3.433594 2.046875-4.304688l19.378906-11.1875c1.804688-1.042968 4.101563-.605468 5.394531 1.027344 1.292969 1.632813 1.191407 3.96875-.238281 5.484375l-6.917969 7.3125 25.652344-14.78125c1.835938-1.089843 4.195313-.625 5.484375 1.074219 1.289063 1.703125 1.09375 4.101562-.449219 5.574219l-23.5625 22.726562 50.882813-29.375c1.902344-1.105469 4.335937-.554687 5.578125 1.261719 1.238281 1.820312.863281 4.285156-.859375 5.652344l-28.320313 22.519531 51.023438-29.433594c1.90625-1.082031 4.328125-.515625 5.550781 1.304688 1.226563 1.820312.84375 4.277343-.875 5.636719l-36.226562 28.183593 60.851562-35.125c1.933594-1.09375 4.386719-.488281 5.59375 1.378907 1.203125 1.867187.742188 4.351562-1.050781 5.664062l-23.074219 16.457031 40.773438-23.5c1.949219-1.101562 4.414062-.480469 5.609375 1.410157 1.195312 1.890624.699218 4.386718-1.125 5.671874l-10.074219 6.960938 24.339844-14.042969c1.945312-1.085937 4.398437-.464843 5.59375 1.414063 1.191406 1.878906.707031 4.363281-1.101563 5.660156l-13.304687 9.234375 28.238281-16.308594c1.902344-1.105469 4.335938-.554687 5.574219 1.261719 1.238281 1.820312.867187 4.285156-.859375 5.652344l-39.683594 31.601562 66.710938-38.515625c1.921874-1.109375 4.375-.53125 5.597656 1.316407 1.226562 1.855468.796875 4.34375-.980469 5.675781l-32.476563 24.28125 54.121094-31.273438c1.90625-1.089843 4.328125-.53125 5.558594 1.285157 1.234375 1.8125.859375 4.273437-.855469 5.640624l-38.9375 30.761719 65.292969-37.6875c1.910156-1.0625 4.320312-.476562 5.53125 1.34375 1.210938 1.824219.820312 4.269531-.898438 5.621094l-35.253906 26.859375 58.664063-33.824219c1.949219-1.070312 4.390625-.433593 5.570312 1.453125 1.183594 1.882813.6875 4.359375-1.125 5.648438l-2.433593 1.675781 10.914062-6.285156c1.898438-1.0625 4.296875-.5 5.519531 1.300781 1.226563 1.804688.867188 4.242188-.820312 5.617188l-36.234375 28.738281 44.953125-25.953125c1.894531-1.09375 4.308593-.554688 5.554687 1.238281 1.242188 1.796875.902344 4.25-.785156 5.636719l-26.859375 22.097656 28.621094-16.523438c1.800781-1.046874 4.097656-.609374 5.390625 1.019532 1.292968 1.632812 1.195312 3.964844-.226563 5.484375l-20.035156 21.394531 14.394531-8.308594c1.300782-.828125 2.949219-.875 4.296875-.125 1.34375.753906 2.171875 2.179688 2.148438 3.722656-.019531 1.539063-.882813 2.945313-2.25 3.660157l-38.914063 22.371093c-1.796875 1.03125-4.078125.589844-5.371094-1.03125-1.289062-1.625-1.199218-3.945312.210938-5.464843l20.027344-21.386719-48.304688 27.882812c-1.890625 1.09375-4.304687.554688-5.550781-1.242187s-.90625-4.246094.785156-5.632813l26.855469-22.101562-50.148438 28.976562c-1.902343 1.0625-4.296874.496094-5.523437-1.304687-1.222656-1.800781-.867187-4.238281.824219-5.613281l36.273437-28.738282-61.816406 35.65625c-1.953125 1.097657-4.421875.46875-5.613281-1.429687-1.1875-1.894531-.679688-4.390625 1.15625-5.671875l2.417968-1.679688-15.109374 8.746094c-1.914063 1.082032-4.339844.503906-5.558594-1.324218-1.21875-1.832032-.820313-4.292969.917968-5.640626l35.253907-26.859374-58.664063 33.859374c-1.902344 1.089844-4.324218.53125-5.558594-1.285156-1.230468-1.816406-.859374-4.273437.859376-5.640625l38.96875-30.769531-65.300782 37.695312c-1.921875 1.109376-4.375.527344-5.597656-1.324218-1.222656-1.851563-.792969-4.335938.980469-5.667969l32.46875-24.273437-54.164063 31.265624c-1.902344 1.105469-4.335937.554688-5.574218-1.265624-1.242188-1.816407-.867188-4.285157.855468-5.652344l39.695313-31.601563-66.71875 38.519531c-.636719.378907-1.359375.585938-2.101563.59375zm0 0" fill="#ffffff" fill-opacity="1" data-original-color="#f4f6f8ff" stroke="none" stroke-opacity="1" style=""/><path d="m210.34375 411.5625c-1.839844-.003906-3.460938-1.203125-4.003906-2.960938-.542969-1.761718.125-3.664062 1.644531-4.703124l5.035156-3.441407-18.253906 10.507813c-1.929687 1.097656-4.382813.503906-5.59375-1.359375s-.761719-4.347657 1.027344-5.664063l27.875-20.328125-47.398438 27.351563c-1.902343 1.09375-4.324219.53125-5.558593-1.285156-1.230469-1.8125-.859376-4.273438.859374-5.636719l39.171876-30.921875-65.644532 37.84375c-1.949218 1.101562-4.414062.480468-5.609375-1.410156-1.195312-1.890626-.699219-4.382813 1.125-5.671876l9.722657-6.714843-23.871094 13.796875c-1.941406 1.089844-4.394532.476562-5.59375-1.394532-1.195313-1.875-.726563-4.359374 1.078125-5.664062l18.566406-13.085938-32.171875 18.617188c-1.914062 1.097656-4.351562.527344-5.578125-1.304688-1.226563-1.832031-.824219-4.300781.917969-5.652343l34.136718-26.214844-42.976562 24.804687c-1.878906 1.070313-4.261719.539063-5.507812-1.230468-1.246094-1.769532-.941407-4.195313.699218-5.601563l31.425782-26.691406-35.144532 20.277344c-1.902344 1.132812-4.355468.585937-5.605468-1.242188-1.25-1.824219-.863282-4.308593.882812-5.671875l11.019531-8.796875-7.773437 4.441407c-1.773438 1.019531-4.023438.613281-5.328125-.964844-1.304688-1.578125-1.28125-3.867188.058593-5.414063l11.40625-13.164062c-1.976562.230469-3.839843-.957031-4.46875-2.84375-.628906-1.886719.15625-3.953125 1.875-4.953125l19.371094-11.1875c1.773438-1.023438 4.027344-.613282 5.328125.964844 1.304688 1.578124 1.28125 3.863281-.054687 5.414062l-10.746094 12.378906 34.210938-19.679687c1.902343-1.101563 4.328124-.550781 5.566406 1.261719 1.238281 1.8125.875 4.273437-.839844 5.644531l-11.011719 8.796875 27.210938-15.703125c1.878906-1.070313 4.257812-.539063 5.503906 1.226562 1.242187 1.761719.949219 4.183594-.683594 5.59375l-31.433593 26.703125 58.0625-33.523437c1.914062-1.101563 4.351562-.53125 5.578124 1.304687 1.226563 1.832032.824219 4.300782-.917968 5.652344l-34.144532 26.21875 57.476563-33.175781c1.941406-1.089844 4.394531-.476563 5.59375 1.394531 1.195313 1.875.726563 4.359375-1.078125 5.664062l-18.566406 13.082032 34.902344-20.140625c1.945312-1.074219 4.386718-.445313 5.574218 1.433593 1.183594 1.878907.703125 4.351563-1.101562 5.648438l-9.710938 6.714844 23.863282-13.796875c1.90625-1.117188 4.347656-.5625 5.585937 1.261719 1.242187 1.824218.859375 4.296874-.878906 5.660156l-39.121094 30.929687 65.59375-37.851562c1.933594-1.128907 4.410156-.542969 5.632813 1.332031 1.222656 1.875.757812 4.378906-1.058594 5.691406l-27.855469 20.320313 47.363281-27.34375c1.949219-1.085938 4.402344-.457031 5.589844 1.429687 1.1875 1.886719.695312 4.371094-1.125 5.660156l-5.035156 3.457032 18.296875-10.546875c1.90625-1.078125 4.316406-.511719 5.542969 1.304687 1.222656 1.8125.851562 4.261719-.859376 5.625l-38.347656 30.066406 64.058594-36.996093c1.890625-1.070313 4.289062-.511719 5.519531 1.277343 1.230469 1.792969.886719 4.226563-.789062 5.613282l-40.628907 32.785156 68.730469-39.675781c1.894531-1.054688 4.28125-.492188 5.503907 1.296875 1.226562 1.789062.882812 4.21875-.785157 5.601562l-40.238281 32.296875 59.148438-34.160156c1.90625-1.097656 4.335937-.539063 5.570312 1.285156 1.234375 1.820313.851562 4.285157-.878906 5.648438l-31.894532 25.042969 37.863282-21.90625c1.933594-1.109376 4.398437-.511719 5.609375 1.359374 1.214843 1.871094.75 4.363282-1.050781 5.675782l-5.449219 3.945312 4.917969-2.839844c1.820312-.996093 4.097656-.515624 5.359374 1.132813 1.257813 1.652344 1.121094 3.976563-.320312 5.464844l-20.851562 20.894531 16.097656-9.292969c1.300781-.828125 2.953125-.875 4.296875-.125 1.347656.753907 2.171875 2.183594 2.152343 3.722657-.019531 1.542968-.886718 2.949218-2.25 3.664062l-43.589843 25.179688c-1.816407 1-4.09375.519531-5.355469-1.132813-1.257812-1.648437-1.125-3.972656.320312-5.464844l20.832032-20.882812-47.589844 27.453125c-1.933594 1.109375-4.398438.515625-5.609375-1.355469-1.214844-1.871094-.75-4.367187 1.050781-5.675781l5.464844-3.953125-19.042969 10.984375c-1.90625 1.097656-4.339843.539062-5.570312-1.285156-1.234375-1.820313-.851563-4.285157.878906-5.648438l31.933594-25.035156-55.394531 31.96875c-1.890626 1.046875-4.265626.484375-5.488282-1.292969-1.222656-1.78125-.898437-4.195313.753906-5.589844l40.289063-32.289062-67.921875 39.171875c-1.890625 1.066406-4.285156.511718-5.519531-1.277344-1.230469-1.792969-.886719-4.226562.789062-5.613281l40.621094-32.785157-68.691406 39.675782c-1.90625 1.097656-4.335938.539062-5.570313-1.285156-1.230468-1.820313-.847656-4.285157.878906-5.648438l38.351563-30.0625-64.136719 36.996094c-.632812.382812-1.359375.585937-2.097656.597656zm0 0" fill="#ffffff" fill-opacity="1" data-original-color="#f4f6f8ff" stroke="none" stroke-opacity="1" style=""/><path d="m171.945312 285.660156c-1.832031 0-3.453124-1.191406-4.003906-2.9375-.550781-1.75.097656-3.652344 1.601563-4.699218l14.53125-10.132813-29.789063 17.171875c-1.933594 1.113281-4.398437.515625-5.613281-1.355469-1.210937-1.871093-.75-4.363281 1.054687-5.675781l26.355469-19.097656-45.265625 26.128906c-1.894531 1.070312-4.289062.511719-5.519531-1.277344-1.230469-1.792968-.890625-4.226562.785156-5.613281l40.902344-33.136719-65.789063 37.972656c-1.914062 1.097657-4.347656.527344-5.578124-1.304687-1.226563-1.832031-.824219-4.304687.921874-5.652344l33.570313-25.785156-41.679687 24.0625c-1.882813 1.082031-4.28125.546875-5.527344-1.234375-1.242188-1.777344-.925782-4.214844.734375-5.613281l29.527343-24.609375-32.492187 18.765625c-1.90625 1.085937-4.324219.515625-5.550781-1.304688-1.226563-1.816406-.84375-4.273437.878906-5.636719l7.484375-5.824218-4.339844 2.519531c-1.765625 1.023437-4.015625.621094-5.324219-.945313-1.308593-1.570312-1.296874-3.855468.03125-5.410156l11.867188-13.925781c-1.765625.351563-3.558594-.460937-4.457031-2.019531-1.152344-2.007813-.464844-4.566406 1.535156-5.726563l19.378906-11.1875c1.769531-1.023437 4.019531-.625 5.328125.945313 1.304688 1.570312 1.292969 3.851562-.03125 5.410156l-11.4375 13.402344 35.949219-20.730469c1.90625-1.085937 4.324219-.515625 5.550781 1.304687 1.226563 1.820313.84375 4.273438-.878906 5.636719l-7.503906 5.875 22.152344-12.816406c1.882812-1.0625 4.265624-.519531 5.5 1.25 1.238281 1.773437.929687 4.195313-.714844 5.597656l-29.511719 24.59375 54.472656-31.441406c1.910157-1.078125 4.328125-.5 5.546875 1.324219 1.21875 1.824218.828125 4.277344-.898437 5.632812l-33.574219 25.800782 56.757812-32.734376c1.894532-1.085937 4.308594-.539062 5.546876 1.261719 1.238281 1.800781.886718 4.25-.804688 5.628907l-40.890625 33.128906 69.34375-40.042969c1.933594-1.109375 4.398437-.515625 5.613281 1.355469 1.210938 1.871094.75 4.367187-1.054687 5.675781l-26.378907 19.054687 45.265626-26.085937c1.9375-1.074219 4.382812-.453125 5.570312 1.417969 1.191406 1.871094.722656 4.34375-1.074219 5.648437l-14.511719 10.105469 29.773438-17.171875c1.914062-1.085937 4.339844-.503906 5.558594 1.324219 1.21875 1.832031.820312 4.292968-.917969 5.640625l-35.421875 27.042969 58.921875-34.007813c1.898437-1.085937 4.308594-.539063 5.546875 1.261719 1.238281 1.796875.890625 4.246094-.804688 5.628906l-40.875 33.101562 69.261719-39.992187c1.910157-1.089844 4.339844-.523437 5.566407 1.304687 1.226562 1.824219.835937 4.289063-.898438 5.644532l-36.652344 28.277344 61.011719-35.253907c1.894531-1.089843 4.316406-.542969 5.554687 1.265625 1.238282 1.804688.878907 4.257813-.820312 5.636719l-40.574219 32.734375 65.046875-37.546875c1.917969-1.105469 4.363282-.535156 5.589844 1.304687 1.230469 1.839844.816406 4.320313-.9375 5.664063l-32.792969 25.027344 40.730469-23.5c1.925781-1.058594 4.335938-.453125 5.535156 1.382812 1.199219 1.839844.78125 4.289063-.960937 5.625l-14.023438 10.265625 15.308594-8.839844c1.882813-1.09375 4.289063-.566406 5.542969 1.214844 1.25 1.78125.933594 4.226563-.734375 5.625l-20.613281 17.425782 19.304687-11.128907c1.75-1.007812 3.972656-.628906 5.285156.90625 1.316407 1.535157 1.347657 3.789063.078125 5.363281l-12.898437 15.949219c2.019531-.996093 4.464843-.21875 5.542969 1.761719 1.074218 1.976562.394531 4.453125-1.539063 5.605469l-19.375 11.191406c-1.75 1.007813-3.96875.625-5.285156-.910156-1.3125-1.535157-1.34375-3.789063-.078125-5.363281l12.894531-15.945313-40.179687 23.171875c-1.878907 1.074219-4.265626.539062-5.511719-1.230469-1.242188-1.765625-.941407-4.191406.703125-5.601562l20.628906-17.472657-42.117188 24.339844c-1.929687 1.089844-4.371093.492188-5.578124-1.363281-1.210938-1.855469-.769532-4.328125 1.003906-5.652344l14.015625-10.25-29.921875 17.230469c-1.914063 1.109375-4.363282.539062-5.589844-1.300781-1.226562-1.839844-.816406-4.320313.941406-5.664063l32.792969-25.039062-55.449219 32.003906c-1.898437 1.09375-4.316406.542969-5.554687-1.261719-1.238281-1.804687-.878907-4.257812.820312-5.636719l40.558594-32.683593-68.574219 39.582031c-1.910156 1.09375-4.339844.523438-5.566406-1.304688-1.222656-1.824218-.832031-4.289062.898438-5.644531l36.636718-28.257812-60.953125 35.207031c-1.894531 1.089844-4.304687.539062-5.542969-1.257812-1.238281-1.800782-.890624-4.25.800782-5.632813l40.878906-33.101563-69.332031 39.992188c-1.914063 1.085938-4.339844.507812-5.558594-1.324219-1.21875-1.828125-.820313-4.292969.917969-5.640625l35.421875-27.042968-58.90625 34.007812c-.632813.382812-1.359375.589844-2.097657.597656zm0 0" fill="#ffffff" fill-opacity="1" data-original-color="#f4f6f8ff" stroke="none" stroke-opacity="1" style=""/><g fill="#262626"><path d="m502.476562 110.277344c0-39.253906 14.167969-105-41.019531-107.902344-70.503906-3.710938-142.257812 0-212.882812 0-65.902344 0-133.714844-4.703125-199.476563 0-51.636718 3.683594-45.59375 47.429688-45.59375 86.703125v257.945313c0 39.148437-20.027344 139.375 35.671875 146.886718 65.972657 8.878906 139.1875 0 205.640625 0h214.03125.21875c.867188-.015625 1.730469-.101562 2.585938-.253906 56.882812-9.171875 40.824218-77.964844 40.824218-120.980469zm-37.382812 378.914062h-371.578125c-17.300781 0-38.929687 3.578125-55.320313-3.070312-26.390624-10.710938-22.554687-35.253906-22.554687-58.578125v-329.964844c0-17.011719-4.875-42.460937 0-58.953125 2.886719-9.738281 17.242187-28.269531 26.976563-31.550781 7.683593-1.03125 15.472656-1.03125 23.15625 0h325.917968c21.21875-1.242188 42.488282-1.242188 63.707032 0 31.171874 3.757812 34.515624 25.054687 34.925781 49.519531 1.277343 76.867188 0 153.871094 0 230.746094v123.105468c0 21.503907 8.59375 72.125-25.230469 78.746094zm0 0" fill="#262626" fill-opacity="1" data-original-color="#262626ff" stroke="none" stroke-opacity="1" style=""/><path d="m381.410156 86.015625h-206.226562c-30.132813 0-104.421875-12.03125-104.5 37.535156-.089844 51.082031 92.113281 34.890625 122.175781 34.890625h198.925781c.933594.050782 1.867188-.007812 2.785156-.175781 25.441407-4.105469 51.109376-24.433594 36.636719-52.878906-10.347656-20.398438-30.492187-19.371094-49.796875-19.371094zm16.109375 67.144531h-255.714843c-7.9375.476563-15.894532.476563-23.832032 0-31.421875-3.835937-46.003906-30.550781-22.390625-52.207031 16.617188-15.242187 39.792969-9.660156 61.742188-9.660156h206.855469c8.277343-.507813 16.582031-.507813 24.859374 0 30.511719 3.878906 55.507813 53.667969 8.460938 61.867187zm0 0" fill="#262626" fill-opacity="1" data-original-color="#262626ff" stroke="none" stroke-opacity="1" style=""/><path d="m383.84375 336.710938c-68.867188-1.554688-137.945312 0-206.832031 0-31.1875 0-105.882813-12.59375-106.386719 37.996093-.535156 53.179688 92.859375 36.652344 123.847656 36.652344h197.714844c.914062.132813 1.84375.117187 2.753906-.050781 26.078125-4.195313 50.496094-25.734375 36.300782-54.121094-9.761719-19.519531-28.527344-20.082031-47.398438-20.476562zm12.824219 67.144531h-245.507813c-26.957031 0-93.527344-1.675781-55.578125-45.070313 18.160157-20.765625 36.207031-14.570312 63.351563-14.570312h195.886718c10.375-.769532 20.789063-.769532 31.164063 0 1.964844.300781 4.199219-.414063 6.179687 0 20.804688 4.347656 60.742188 50.410156 4.503907 59.640625zm0 0" fill="#262626" fill-opacity="1" data-original-color="#262626ff" stroke="none" stroke-opacity="1" style=""/><path d="m385.773438 210.40625c-68.824219-1.679688-137.96875 0-206.863282 0-31.667968 0-108.628906-13.171875-108.273437 38.808594.34375 53.375 93.953125 36.648437 125.523437 36.648437h196.160156c.910157.167969 1.84375.167969 2.753907 0 .917969-.007812 1.820312-.1875 2.671875-.53125 23.625-4.851562 44.59375-23.039062 35.644531-49.921875-7.496094-22.53125-27.925781-24.535156-47.617187-25.003906zm10.527343 67.144531h-249.636719c-9.4375.640625-18.902343.640625-28.335937 0-28.070313-3.953125-62.953125-43.761719-8.648437-58.835937 12.699218-3.527344 31.644531 0 44.597656 0h202.203125c10.382812-.699219 20.796875-.699219 31.175781 0 25.835938 3.660156 65.695312 49.628906 8.644531 58.835937zm0 0" fill="#262626" fill-opacity="1" data-original-color="#262626ff" stroke="none" stroke-opacity="1" style=""/><path d="m37.078125 417.628906v16.789063c0 2.367187 12.152344.519531 12.152344-3.257813v-16.785156c0-2.367188-12.152344-.523438-12.152344 3.253906zm0 0" fill="#262626" fill-opacity="1" data-original-color="#262626ff" stroke="none" stroke-opacity="1" style=""/><path d="m37.078125 115.464844v268.589844c0 2.46875 12.152344.597656 12.152344-3.253907v-268.589843c0-2.46875-12.152344-.597657-12.152344 3.253906zm0 0" fill="#262626" fill-opacity="1" data-original-color="#262626ff" stroke="none" stroke-opacity="1" style=""/><path d="m37.003906 63.980469v16.789062c0 6.183594 12.304688 4.246094 12.304688-1.007812v-16.789063c0-6.210937-12.304688-4.246094-12.304688 1.007813zm0 0" fill="#262626" fill-opacity="1" data-original-color="#262626ff" stroke="none" stroke-opacity="1" style=""/></g></g></svg>