<svg height="300" viewBox="0 -1 506.22362 506" width="300" xmlns="http://www.w3.org/2000/svg" version="1.1" xmlns:xlink="http://www.w3.org/1999/xlink" xmlns:svgjs="http://svgjs.dev/svgjs"><g width="100%" height="100%" transform="matrix(1,0,0,1,0,0)"><path d="m245.515625 504.058594c-1.738281-.003906-3.304687-1.066406-3.953125-2.679688-.644531-1.617187-.246094-3.464844 1.011719-4.667968l20.605469-19.6875-25.597657 14.769531c-1.949219 1.171875-4.472656.613281-5.742187-1.273438-1.269532-1.890625-.832032-4.4375.988281-5.800781l21.496094-16.664062-23.382813 13.484374c-1.96875 1.121094-4.476562.507813-5.703125-1.402343-1.226562-1.90625-.746093-4.441407 1.09375-5.765625l16.675781-11.863282-17.742187 10.242188c-1.980469 1.132812-4.507813.503906-5.726563-1.429688-1.21875-1.933593-.699218-4.480468 1.179688-5.78125l18.757812-12.871093-19.78125 11.410156c-1.988281 1.113281-4.503906.46875-5.707031-1.464844-1.207031-1.9375-.675781-4.476562 1.199219-5.769531l17.632812-11.792969-18.519531 10.691407c-2 1.164062-4.566406.515624-5.78125-1.457032-1.210937-1.976562-.625-4.554687 1.320313-5.8125l13.21875-8.636718-13.859375 7.996093c-1.984375 1.152344-4.523438.53125-5.75-1.40625-1.226563-1.933593-.703125-4.496093 1.183593-5.796875l81.066407-56.097656-85.476563 49.355469c-1.992187 1.097656-4.492187.445312-5.691406-1.488281-1.195312-1.929688-.667969-4.464844 1.203125-5.757813l79.394531-52.71875-82.824218 47.789063c-2.003907 1.140624-4.550782.484374-5.753907-1.484376s-.625-4.535156 1.304688-5.796874l73.207031-47.332032-75.765625 43.742188c-1.996094 1.097656-4.5.4375-5.691406-1.503906-1.195313-1.941407-.652344-4.476563 1.226562-5.757813l108.820313-70.871094-112.796875 65.109375c-2.015625 1.136719-4.566407.457032-5.753907-1.527344-1.1875-1.984374-.574218-4.554687 1.378907-5.792968l38.1875-23.730469-39.253907 22.644531c-2.003906 1.121094-4.535156.457032-5.730468-1.507812-1.191406-1.960938-.617188-4.515625 1.300781-5.777344l120.054687-76.46875-123.613281 71.375c-2.011719 1.074219-4.515625.375-5.679687-1.585938-1.164063-1.960937-.578125-4.492187 1.328125-5.746093l8.234375-5.035157-8.644532 4.992188c-2.003906 1.085938-4.511718.402344-5.6875-1.550781-1.175781-1.957031-.605468-4.488281 1.292969-5.753907l118.9375-74.375-121.863281 70.347657c-2.011719 1.125-4.550781.453125-5.742188-1.519531-1.1875-1.972657-.597656-4.53125 1.339844-5.785157l165.921875-104.667969-170.34375 98.328126c-2.007812 1.085937-4.511719.402343-5.6875-1.550782-1.175781-1.957031-.605469-4.492187 1.292969-5.753906l143.511719-89.488281-146.867188 84.796875c-2.011719 1.089844-4.523437.398437-5.695312-1.566406-1.171875-1.964844-.585938-4.503907 1.328125-5.757813l81.859375-50.183594-83.507813 48.203125c-2.007812 1.148438-4.566406.488282-5.765625-1.492187s-.601562-4.554688 1.347657-5.800781l174.4375-110.328126-179.199219 103.441407c-2.007813 1.101562-4.523438.425781-5.707031-1.53125-1.183594-1.957031-.613282-4.503907 1.292968-5.765625l169.320313-106.886719-173.859375 100.351563c-2.015625 1.21875-4.640625.570312-5.859375-1.449219-1.214844-2.015625-.570313-4.636719 1.449219-5.855469l163.285156-102.84375-167.527344 96.714844c-2.027344 1.203125-4.648438.53125-5.847656-1.496094-1.203125-2.03125-.53125-4.648438 1.496094-5.851562l22.304687-13.53125-22.902344 13.214843c-2.011719 1.109375-4.535156.425781-5.71875-1.539062-1.179687-1.96875-.589843-4.519531 1.332031-5.773438l115.117188-71.285156-117.609375 67.90625c-2.007813 1.074219-4.5.382813-5.671875-1.570313-1.167969-1.953124-.597656-4.480468 1.296875-5.742187l126.625-78.738281-129.5625 74.777344c-2.003906 1.105468-4.523437.429687-5.707031-1.527344-1.183594-1.960938-.613282-4.503906 1.296875-5.765625l159.667969-100.632813-163.882813 94.589844c-2.015625 1.164062-4.59375.496094-5.789063-1.5-1.199218-1.992188-.578124-4.578125 1.394532-5.8125l145.355468-91.121094-148.984374 86.019532c-2.003907 1.085937-4.511719.402343-5.6875-1.554688-1.175782-1.953125-.605469-4.488281 1.292968-5.75l132.019532-82.433594-135.183594 78.039063c-2.003906 1.082031-4.503906.40625-5.683594-1.539063-1.179688-1.945312-.625-4.476562 1.261719-5.75l150.03125-95.25-154.304688 89.082032c-2.007812 1.117187-4.539062.453124-5.730469-1.511719-1.191406-1.960938-.617187-4.515625 1.300782-5.777344l132.828125-84.546875-136.738281 78.941406c-1.300782.792969-2.925782.835938-4.265626.109375-1.339843-.730469-2.1875-2.117187-2.226562-3.640625-.039062-1.523437.738281-2.953125 2.039062-3.75l131.414063-84.90625-135.84375 78.4375c-1.992187 1.085938-4.480469.421875-5.671875-1.507812-1.1875-1.929688-.660156-4.453125 1.199219-5.742188l124.632812-81.777344-129.410156 74.710938c-2 1.097656-4.511719.429688-5.699219-1.519531s-.632812-4.488281 1.261719-5.761719l77.558594-49.679688-80.066407 46.226563c-1.988281 1.113281-4.503906.46875-5.707031-1.46875-1.207031-1.933594-.675781-4.476563 1.203125-5.769531l100.75-67.488282-104.257812 60.191407c-2.011719 1.179687-4.59375.527343-5.804688-1.460938-1.210937-1.988281-.601562-4.582031 1.367188-5.824219l33.9375-21.675781-26.546875 15.359375c-1.980469 1.117188-4.488281.488282-5.707031-1.433594-1.214844-1.921874-.710938-4.457031 1.148437-5.769531l74.238281-51.378906-41.546875 23.980469c-1.941406 1.101562-4.398437.523437-5.644531-1.328125-1.246094-1.847657-.859375-4.347657.890625-5.730469l48.640625-37.785156-13.59375 7.84375c-1.882812 1.144531-4.332031.667968-5.644531-1.105469s-1.058594-4.253906.585937-5.722656l23.25-22.039063c-.339844-.296875-.628906-.648437-.851562-1.042968-1.175782-2.035157-.480469-4.640626 1.554687-5.820313l17.132813-9.898437c1.886718-1.164063 4.347656-.695313 5.671875 1.085937 1.320312 1.777344 1.058593 4.273437-.601563 5.742187l-14.082031 13.335938 36.234375-20.921875c1.9375-1.082031 4.378906-.496094 5.617188 1.34375 1.238281 1.84375.859374 4.324219-.875 5.710937l-48.636719 37.796876 77.710937-44.851563c1.976563-1.105469 4.472656-.472656 5.683594 1.4375 1.214844 1.910156.722656 4.4375-1.117188 5.753906l-74.171874 51.320313 101.390624-58.511719c2-1.101563 4.511719-.433594 5.699219 1.515625 1.191407 1.949219.632813 4.488281-1.261719 5.761719l-34.039062 21.734375 50.28125-29.011719c1.980469-1.074219 4.457031-.417969 5.648438 1.496094 1.191406 1.910156.691406 4.421875-1.144532 5.730469l-100.753906 67.472656 129.433594-74.699219c2-1.101563 4.511718-.433594 5.699218 1.515625s.632813 4.488281-1.261718 5.761719l-77.53125 49.648437 98.644531-56.925781c1.988281-1.085937 4.480469-.421875 5.671875 1.507813 1.1875 1.929687.660156 4.453124-1.203125 5.746093l-124.671875 81.796875 154.257812-89.050781c1.996094-1.085937 4.492188-.414063 5.675782 1.523437s.644531 4.460938-1.230469 5.746094l-131.429687 84.890625 159.667968-92.160156c2.003906-1.121094 4.535156-.453125 5.726563 1.507813 1.195312 1.960937.621093 4.515624-1.296875 5.777343l-132.832032 84.515625 159.078126-91.800781c2-1.058594 4.472656-.371094 5.644531 1.5625s.628906 4.441406-1.230469 5.722656l-149.992188 95.207031 173.253907-100.019531c2.003906-1.054687 4.480469-.363281 5.648437 1.578125 1.164063 1.941406.609375 4.457032-1.261718 5.726563l-131.945313 82.382812 138.738281-80.070312c2.007813-1.125 4.546875-.453125 5.738282 1.519531 1.1875 1.972656.597656 4.535156-1.335938 5.785156l-145.425781 91.144532 150.476562-86.878907c2.007813-1.125 4.550781-.453125 5.738281 1.519531 1.191407 1.972657.597657 4.535157-1.335937 5.785157l-159.699219 100.695312 165.46875-95.558593c2.011719-1.105469 4.535156-.425782 5.71875 1.542968 1.179688 1.96875.589844 4.519532-1.332031 5.773438l-126.585937 78.71875 130.828124-75.519532c2.007813-1.109374 4.535157-.425781 5.714844 1.542969 1.179688 1.96875.59375 4.515625-1.332031 5.769531l-115.0625 71.261719 118.835937-68.617187c2.027344-1.199219 4.648438-.53125 5.847657 1.5 1.203125 2.027344.53125 4.644531-1.496094 5.847656l-22.390625 13.59375 23.894531-13.796875c2.007813-1.128906 4.546875-.453125 5.738281 1.519531 1.1875 1.972656.597657 4.53125-1.335937 5.785156l-163.261719 102.859376 169.113282-97.636719c2.011718-1.128907 4.550781-.457031 5.742187 1.515625 1.1875 1.976562.597656 4.535156-1.335937 5.785156l-169.292969 106.882812 175.445312-101.28125c2.007813-1.148437 4.566407-.488281 5.765625 1.492188 1.199219 1.980469.601563 4.554688-1.347656 5.800781l-174.402344 110.304688 180.8125-104.347657c2.007813-1.058593 4.492188-.359374 5.652344 1.589844 1.164062 1.953125.59375 4.46875-1.292969 5.730469l-82.003906 50.289063 84.480469-48.792969c2.003906-1.085938 4.511718-.402344 5.6875 1.550781 1.175781 1.957031.605468 4.488281-1.292969 5.753906l-143.457031 89.429688 140.800781-81.273438c2.019531-1.21875 4.640625-.570312 5.859375 1.445313 1.21875 2.019531.570312 4.640625-1.445312 5.859375l-165.914063 104.652344 143.230469-82.6875c2.003906-1.054688 4.484375-.363282 5.648437 1.578124 1.167969 1.941407.613281 4.453126-1.261719 5.726563l-118.894531 74.359375 98.464844-56.847656c2.027344-1.207032 4.644531-.539063 5.851563 1.488281 1.203124 2.027344.535156 4.644531-1.488282 5.847656l-13.730468 8.382813c2.03125-.523438 4.140624.507812 4.972656 2.433594.835937 1.921874.148437 4.167968-1.621094 5.296874l-120.054688 76.484376 98.132813-56.636719c2.015625-1.136719 4.570313-.457031 5.757813 1.527343 1.1875 1.984376.574218 4.554688-1.378907 5.792969l-38.171875 23.714844 21.90625-12.636719c1.992188-1.070312 4.472656-.398437 5.65625 1.527344 1.179688 1.929688.652344 4.441406-1.203125 5.734375l-108.832031 70.910156 85.878906-49.601562c2.003906-1.140625 4.550782-.484375 5.75 1.484375 1.203125 1.964844.625 4.53125-1.304687 5.792968l-73.164063 47.285157 53.375-30.816407c1.992188-1.097656 4.492188-.441406 5.691406 1.488282 1.195313 1.933594.667969 4.464844-1.203124 5.757812l-79.480469 52.777344 57.738281-33.332031c1.980469-1.117188 4.488281-.484375 5.703125 1.4375 1.214844 1.917969.710937 4.457031-1.144531 5.765625l-81.027344 56.082031 56.738281-32.75c2-1.136719 4.539063-.484375 5.742188 1.472656 1.207031 1.957031.644531 4.515625-1.269531 5.789063l-14.804688 9.675781c2.03125-.648437 4.230469.300781 5.148438 2.226563.917968 1.921874.277343 4.230468-1.503907 5.402343l-17.632812 11.777344 1.324219-.753906c1.976562-1.085938 4.460937-.449219 5.667968 1.460937 1.203125 1.910156.714844 4.425782-1.121094 5.742188l-18.773437 12.886718 1.90625-1.101562c1.96875-1.125 4.476563-.507812 5.703125 1.398438 1.226562 1.910156.742188 4.445312-1.097656 5.769531l-16.800782 11.945312c1.96875-.984375 4.363282-.3125 5.527344 1.550781 1.167969 1.867188.726563 4.316407-1.023437 5.652344l-21.460938 16.640625 2.203125-1.261719c1.871094-1.148437 4.308594-.6875 5.628906 1.066407 1.324219 1.75 1.105469 4.21875-.507812 5.707031l-21.574219 20.601562c1.71875-.25 3.410157.582032 4.265625 2.089844 1.179688 2.039063.484375 4.644532-1.550781 5.828125l-28.289063 16.332031c-.640624.378907-1.371093.578126-2.117187.582032zm0 0" fill="#ffffff" fill-opacity="1" data-original-color="#66d4f1ff" stroke="none" stroke-opacity="1"/><path d="m255.75 494.679688c-1.742188-.003907-3.304688-1.0625-3.953125-2.675782-.648437-1.613281-.253906-3.457031 1-4.664062l10.238281-9.847656-2.003906 1.152343c-1.882812 1.109375-4.300781.617188-5.597656-1.140625-1.300782-1.757812-1.058594-4.210937.554687-5.6875l23.890625-22.269531-14.609375 8.4375c-1.941406 1.152344-4.441406.589844-5.707031-1.28125-1.261719-1.871094-.851562-4.402344.9375-5.773437l11.886719-9.292969-4.265625 2.464843c-1.921875 1.128907-4.386719.589844-5.660156-1.238281-1.277344-1.828125-.929688-4.332031.796874-5.742187l38.773438-32.273438-29.351562 16.9375c-1.953126 1.121094-4.4375.53125-5.679688-1.34375s-.816406-4.394531.976562-5.753906l32.425782-24.414062-24.140625 13.945312c-1.949219 1.132812-4.445313.550781-5.695313-1.324219-1.25-1.878906-.824218-4.40625.976563-5.769531l50.484375-38.324219-41.363282 23.894531c-1.972656 1.160157-4.507812.554688-5.746093-1.367187-1.238281-1.925781-.738281-4.484375 1.132812-5.800781l43.636719-31.078125-35.386719 20.421875c-1.972656 1.089844-4.457031.460937-5.667969-1.441406-1.210937-1.902344-.730468-4.421876 1.09375-5.746094l48.007813-33.558594-39.796875 22.96875c-1.96875 1.074219-4.429688.441406-5.636719-1.445312-1.207031-1.882813-.753906-4.382813 1.042969-5.722657l67.816406-47.878906-58.921875 34.023437c-1.996093 1.113282-4.515625.460938-5.714843-1.484374-1.199219-1.941407-.65625-4.488282 1.234374-5.769532l35.789063-23.664062-28.324219 16.351562c-1.992187 1.152344-4.539062.519532-5.757812-1.433594-1.21875-1.953124-.667969-4.523437 1.246094-5.804687l59.730468-40.03125-51.667968 29.867187c-1.996094 1.1875-4.574219.558594-5.800782-1.414062-1.226562-1.972656-.652344-4.5625 1.292969-5.828125l70.53125-47.105469-62.292969 35.941406c-1.996094 1.117188-4.515625.464844-5.714844-1.480468-1.199218-1.945313-.65625-4.488282 1.234376-5.773438l70.304687-46.300781-62.15625 35.898437c-2.011719 1.230469-4.640625.59375-5.867187-1.417968-1.226563-2.011719-.589844-4.640625 1.421874-5.867188l43.273438-27.757812-35.902344 20.71875c-2.003906 1.117187-4.535156.453125-5.726562-1.511719-1.191406-1.960937-.617188-4.515625 1.296875-5.777344l16.214843-10.367187-9.300781 5.367187c-1.972656 1.15625-4.507812.554688-5.746093-1.371093-1.238282-1.921876-.742188-4.480469 1.128906-5.796876l69.230468-49.304687-60.175781 34.738281c-1.945312 1.101563-4.414062.511719-5.652343-1.347656-1.238282-1.859375-.832032-4.363281.933593-5.734375l50.910157-38.734375-41.667969 24.097656c-1.96875 1.113282-4.460938.496094-5.6875-1.402344-1.222657-1.898437-.753907-4.421874 1.070312-5.757812l9.890625-7.089844-2.679687 1.546875c-1.9375 1.09375-4.390625.515625-5.636719-1.328125-1.242188-1.84375-.863281-4.335937.875-5.722656l9.660156-7.558594-2.160156 1.234375c-1.878906 1.046875-4.246094.53125-5.515625-1.203125-1.273437-1.734375-1.054687-4.144531.507813-5.621094l6.261718-5.691406c-1.28125.226563-2.597656-.15625-3.558594-1.035156-1.375-1.226562-1.804687-3.199219-1.066406-4.886719l4.574219-10.496093c-.472656-.351563-.871094-.796876-1.160156-1.308594-1.171875-2.039063-.472657-4.640625 1.5625-5.816406l4.835937-2.800782c1.59375-.914062 3.597656-.707031 4.96875.515625 1.371094 1.226563 1.804688 3.191407 1.074219 4.878907l-2.902344 6.5625 20.78125-11.949219c1.878907-1.046875 4.242188-.53125 5.515625 1.203125 1.273438 1.734375 1.054688 4.144531-.507812 5.625l-5.359375 4.863281 20.359375-11.75c1.9375-1.09375 4.390625-.515625 5.636718 1.324219 1.242188 1.84375.863282 4.335937-.875 5.722656l-9.675781 7.578125 25.394531-14.660156c1.96875-1.109375 4.460938-.496094 5.6875 1.402343 1.222657 1.898438.753907 4.425782-1.070312 5.757813l-9.898438 7.097656 24.746094-14.28125c1.945313-1.101562 4.414063-.515625 5.652344 1.347657 1.238281 1.859374.832031 4.363281-.933594 5.734374l-50.875 38.679688 79.445313-45.867188c1.96875-1.121093 4.476562-.507812 5.703125 1.398438 1.226562 1.910156.746094 4.445312-1.09375 5.769531l-69.234375 49.308594 97.914062-56.527344c2.015625-1.222656 4.640625-.582031 5.863281 1.433594 1.222657 2.015625.578126 4.640625-1.433593 5.863281l-16.214844 10.351563 27.023437-15.597657c2.003907-1.140624 4.550782-.484374 5.753907 1.480469 1.203125 1.96875.621093 4.535157-1.304688 5.796875l-43.25 27.75 30.679688-17.707031c1.996093-1.15625 4.550781-.515625 5.765625 1.445313 1.214844 1.964843.648437 4.539062-1.277344 5.808593l-70.367188 46.335938 49.84375-28.773438c1.996094-1.1875 4.574219-.558593 5.800782 1.414063 1.226562 1.972656.652344 4.5625-1.296875 5.828125l-70.507813 47.082031 49.226563-28.445312c1.992187-1.152344 4.542969-.519532 5.761719 1.433593s.667968 4.523438-1.246094 5.804688l-59.734375 40.003906 39.375-22.734375c1.992187-1.113281 4.511719-.460938 5.710937 1.484375 1.199219 1.941406.65625 4.488281-1.234375 5.769531l-35.734375 23.648438 18.03125-10.402344c1.96875-1.109375 4.464844-.484375 5.683594 1.417969 1.21875 1.90625.738281 4.429687-1.09375 5.757812l-67.832031 47.886719 44.125-25.46875c1.972656-1.09375 4.457031-.460938 5.667969 1.441406 1.210937 1.902344.730468 4.417969-1.09375 5.742188l-47.964844 33.535156 27.230468-15.726562c1.96875-1.125 4.476563-.507813 5.703126 1.398437 1.226562 1.910156.746093 4.445313-1.097657 5.769531l-43.648437 31.113282 22.828125-13.175782c1.949219-1.132812 4.449219-.554687 5.699219 1.324219s.820312 4.40625-.980469 5.765625l-50.449219 38.300781 26.171875-15.113281c1.953125-1.117188 4.4375-.53125 5.679687 1.34375 1.242188 1.878906.8125 4.394531-.976562 5.753906l-32.511719 24.464844 11.835938-6.824219c1.917969-1.105469 4.359375-.558593 5.625 1.257813 1.265625 1.8125.933593 4.292968-.761719 5.714844l-38.757812 32.253906 13.609374-7.851563c1.9375-1.113281 4.410157-.546875 5.664063 1.308594 1.253906 1.851563.863281 4.355469-.894531 5.742187l-15.222656 11.945313c1.746093.015625 3.304687 1.09375 3.9375 2.722656.632812 1.628907.207031 3.476563-1.070313 4.667969l-23.894531 22.261719.078125-.042969c1.867187-1.125 4.285156-.65625 5.601562 1.082031 1.316407 1.742188 1.109375 4.195313-.480469 5.6875l-15.363281 14.746094c.863281.351563 1.578125.984375 2.042969 1.789063 1.179688 2.039062.484375 4.648437-1.554688 5.828124l-21.625 12.484376c-.660156.371093-1.410156.554687-2.164062.53125zm0 0" fill="#ffffff" fill-opacity="1" data-original-color="#4fc0e8ff" stroke="none" stroke-opacity="1"/><path d="m243.347656 502.042969c-1.425781 0-2.757812-.710938-3.550781-1.898438-.792969-1.183593-.9375-2.6875-.390625-4.007812l1.015625-2.464844-1.167969.683594c-1.679687.96875-3.804687.683593-5.167968-.699219-1.363282-1.378906-1.625-3.503906-.636719-5.171875l1.707031-2.851563-1.109375.640626c-1.699219 1-3.863281.703124-5.234375-.714844-1.371094-1.421875-1.585938-3.59375-.523438-5.257813l3.8125-6.117187-4.265624 2.457031c-1.726563.992187-3.914063.65625-5.261719-.808594-1.351563-1.464843-1.507813-3.667969-.378907-5.3125l5.625-8.140625-6.699218 3.867188c-1.78125 1.023437-4.042969.632812-5.375-.929688-1.335938-1.5625-1.363282-3.855468-.070313-5.453125l6.09375-7.5-7.007812 4.042969c-1.832031 1.046875-4.152344.601562-5.464844-1.054688-1.308594-1.652343-1.214844-4.015624.226563-5.558593l4.933593-5.246094-5.359375 3.097656c-1.855468 1.042969-4.199218.558594-5.488281-1.136719-1.289063-1.691406-1.132813-4.078124.367187-5.589843l4.777344-4.699219-5.171875 2.976562c-1.882812 1.144532-4.328125.667969-5.644531-1.105468-1.3125-1.769532-1.058594-4.25.585938-5.722656l5.375-5.117188-5.820313 3.351562c-1.867187 1.125-4.285156.660157-5.601563-1.082031-1.316406-1.738281-1.109374-4.191406.484376-5.683593l9.105468-8.695313-10.242187 5.886719c-1.847657 1.050781-4.183594.585937-5.484375-1.09375-1.300782-1.683594-1.167969-4.0625.3125-5.585938l15.957031-16.214844-18.601563 10.777344c-1.90625 1.097656-4.335937.566406-5.609374-1.226562-1.273438-1.796875-.972657-4.265625.695312-5.703125l8.960938-7.679688-9.824219 5.667969c-1.90625 1.117188-4.351563.589844-5.632813-1.210938-1.28125-1.804687-.972656-4.285156.710938-5.71875l12.515625-10.777343-13.875 8.003906c-1.910157 1.089844-4.335938.546875-5.601563-1.25-1.265625-1.800781-.957031-4.265625.714844-5.695313l14.445312-12.246093-15.992187 9.230469c-1.941406 1.109374-4.410156.53125-5.65625-1.324219s-.847656-4.363281.914063-5.738281l5.484374-4.269532-5.859374 3.414063c-1.949219 1.144531-4.449219.570312-5.703126-1.300781-1.257812-1.875-.839843-4.40625.957032-5.773438l7.492187-5.765625-8.046875 4.640625c-1.878906 1.019531-4.21875.492188-5.480468-1.230469-1.261719-1.726562-1.054688-4.117187.488281-5.597656l29.867187-26.914063-34.015625 19.628907c-1.949219 1.109375-4.421875.519531-5.664062-1.347657-1.238281-1.867187-.824219-4.378906.953125-5.746093l12.894531-9.855469-13.917969 8.03125c-1.96875 1.140625-4.488281.535156-5.722656-1.375-1.234375-1.914062-.75-4.460938 1.097656-5.785156l.992188-.699219-1.050782.605469c-1.957031 1.121094-4.453124.523437-5.691406-1.363282-1.234375-1.890624-.789062-4.414062 1.023438-5.761718l12.714844-9.386719-13.652344 7.875c-1.941406 1.085937-4.390625.5-5.628906-1.347656-1.238282-1.847657-.851563-4.335938.890624-5.71875l25.847657-19.964844-28.097657 16.210937c-1.949218 1.101563-4.414062.515626-5.652343-1.347656-1.242188-1.859375-.832031-4.363281.933593-5.734375l26.980469-20.539062-29.210937 16.871093c-1.9375 1.15625-4.441406.605469-5.714844-1.261718-1.269531-1.867188-.867188-4.398438.921875-5.78125l39.167969-31.160156-42.992188 24.804687c-1.96875 1.113281-4.460937.496094-5.683594-1.402344-1.226562-1.898437-.757812-4.421875 1.066407-5.757812l19.910156-14.277344-21.222656 12.253906c-1.980469 1.136719-4.5.515625-5.726563-1.410156-1.222656-1.925781-.714844-4.472656 1.152344-5.78125l10.667969-7.414063-11.324219 6.535157c-1.953125 1.09375-4.414062.496093-5.648438-1.367188-1.234374-1.867187-.816406-4.367187.953126-5.734375l40.832031-30.796875-44.152344 25.492188c-1.972656 1.117187-4.480469.496093-5.703125-1.417969-1.21875-1.914062-.726562-4.449219 1.121094-5.769531l21.878906-15.359375-23.191406 13.421875c-1.972656 1.125-4.476563.511719-5.703125-1.398438-1.226563-1.90625-.746094-4.441406 1.09375-5.769531l32.820312-23.386719-34.882812 20.164063c-1.980469 1.117187-4.488281.484375-5.707031-1.4375-1.214844-1.917969-.710938-4.457032 1.148437-5.765625l23.21875-16.042969-24.574219 14.15625c-1.984375 1.152344-4.523437.535156-5.75-1.402344-1.230468-1.9375-.707031-4.5 1.183594-5.800781l29.328125-20.359375-31.019531 17.921875c-1.96875 1.042969-4.410156.398437-5.605469-1.484375-1.191406-1.882812-.734375-4.367188 1.050781-5.703125l31.574219-21.894531-33.359375 19.242187c-2 1.25-4.636719.644531-5.886719-1.359375-1.25-2-.644531-4.636718 1.355469-5.886718l12.246094-8.175782-12.894532 7.441406c-1.933593 1.09375-4.386718.519532-5.632812-1.324218s-.867188-4.335938.871094-5.722656l47.113281-36.8125-51.464844 29.746093c-1.933593 1.101563-4.386719.535157-5.640625-1.304687-1.25-1.839844-.878906-4.332032.855469-5.726563l30.667969-24.386719-33.640625 19.386719c-1.917969 1.105469-4.367188.554688-5.628907-1.265625-1.269531-1.820312-.925781-4.308594.785157-5.722656l19.003906-15.71875-20.992187 12.125c-1.917969 1.132812-4.378907.605469-5.660157-1.214844-1.28125-1.820312-.949219-4.320312.761719-5.738281l7.960938-6.734375-8.679688 5.007812c-1.667969.960938-3.777344.683594-5.140625-.679687-1.363281-1.359375-1.644531-3.46875-.6875-5.140625l8.636719-15.050781-11.863282 6.828125c-1.265624.726562-2.816406.757812-4.113281.078125-1.292969-.679688-2.148437-1.976563-2.269531-3.433594l-.65625-8.449219c-1.984375.15625-3.816406-1.082031-4.40625-2.984375-.59375-1.902343.210938-3.960937 1.933594-4.957031l4.101562-2.375c1.273438-.722656 2.824219-.753906 4.125-.085938 1.285156.679688 2.136719 1.964844 2.257813 3.414063l.625 7.996094 19.730469-11.382813c1.667968-.953125 3.769531-.675781 5.128906.683594 1.363281 1.355469 1.648437 3.457031.699218 5.128906l-8.613281 15.101563 36.226563-20.914063c1.910156-1.089844 4.335937-.546875 5.601562 1.25 1.265625 1.800782.957032 4.265625-.710937 5.695313l-7.964844 6.734375 23.75-13.707032c1.917969-1.085937 4.351563-.53125 5.609375 1.277344 1.257812 1.8125.925781 4.285156-.761719 5.703125l-19.082031 15.746094 39.414062-22.75c1.933594-1.101563 4.390626-.535156 5.640626 1.304687 1.253906 1.839844.882812 4.332032-.851563 5.726563l-30.667969 24.378906 54.476563-31.445312c1.9375-1.09375 4.386719-.515625 5.632812 1.328125 1.246094 1.84375.867188 4.332031-.871093 5.722656l-47.085938 36.8125 73.726562-42.574219c1.992188-1.132812 4.523438-.488281 5.734376 1.457031 1.210937 1.949219.664062 4.503907-1.238282 5.789063l-12.3125 8.226563 9.8125-5.667969c1.980469-1.117188 4.488282-.488281 5.703125 1.433593 1.214844 1.921876.710938 4.457032-1.144531 5.769532l-31.574219 21.871094 29.492188-17.066407c1.984375-1.210937 4.570312-.605469 5.816406 1.355469 1.246094 1.964844.695313 4.5625-1.242187 5.84375l-29.355469 20.429688 27.238281-15.710938c1.972656-1.078125 4.445312-.4375 5.648438 1.464844 1.203124 1.898437.726562 4.40625-1.09375 5.730468l-23.226563 16.050782 20.949219-12.089844c1.972656-1.125 4.476562-.511719 5.703125 1.398438 1.226562 1.90625.746093 4.441406-1.09375 5.769531l-32.785157 23.371093 30.789063-17.773437c1.972656-1.121094 4.480469-.5 5.699219 1.414063 1.222656 1.914062.730468 4.453124-1.117188 5.769531l-21.863281 15.300781 19.539063-11.265625c1.953124-1.117187 4.4375-.527344 5.679687 1.347656s.816406 4.394531-.976563 5.753907l-40.816406 30.777343 39.253906-22.644531c1.976563-1.105469 4.472657-.472656 5.683594 1.4375 1.214844 1.910156.722656 4.4375-1.117187 5.753906l-10.71875 7.460938 8.183593-4.730469c1.96875-1.109375 4.460938-.496094 5.6875 1.402344 1.222657 1.902343.753907 4.425781-1.070312 5.757812l-19.898438 14.277344 17.585938-10.164063c1.9375-1.15625 4.445312-.605468 5.714844 1.261719 1.269531 1.867188.867187 4.398438-.917969 5.777344l-39.152344 31.140625 37.726563-21.785156c1.945312-1.101563 4.410156-.515625 5.652344 1.347656 1.238281 1.859375.832031 4.363281-.933594 5.734375l-27.007813 20.554687 24.984375-14.421874c1.941406-1.105469 4.410156-.527344 5.65625 1.328124 1.25 1.855469.851563 4.359376-.910156 5.738282l-25.8125 19.910156 23.789062-13.652344c1.960938-1.125 4.453126-.527344 5.691407 1.363282 1.234375 1.886718.789062 4.414062-1.023438 5.761718l-12.800781 9.386719 10.285156-5.921875c1.96875-1.144531 4.488282-.539062 5.722656 1.375 1.234376 1.910156.75 4.457031-1.097656 5.78125l-1.886718 1.347656c1.976562-.585937 4.089843.328125 5.019531 2.167969.929687 1.839844.414062 4.082031-1.230469 5.328125l-12.910156 9.828125 10.460937-6.042969c1.875-1.019531 4.21875-.492187 5.480469 1.230469 1.261719 1.726563 1.050781 4.117187-.488281 5.597656l-29.867188 26.914063 28.425781-16.332032c1.945313-1.140624 4.445313-.570312 5.699219 1.304688 1.257813 1.871094.839844 4.402344-.957031 5.769531l-7.472656 5.75 4.785156-2.753906c1.945312-1.132813 4.433594-.5625 5.6875 1.304687 1.257812 1.867188.847656 4.386719-.933594 5.757813l-5.46875 4.269531 2.71875-1.5625c1.914063-1.089844 4.335938-.546875 5.601563 1.25 1.265625 1.800782.960937 4.265625-.710938 5.695313l-14.453125 12.253906 12.066406-6.972656c1.90625-1.097657 4.335938-.566407 5.609376 1.230469 1.273437 1.792968.972656 4.261718-.695313 5.699218l-12.527344 10.785156 10.050781-5.792968c1.90625-1.078125 4.3125-.539063 5.582032 1.242187 1.265625 1.785157.976562 4.238281-.664063 5.679688l-8.96875 7.679687 6.304688-3.636718c1.847656-1.050782 4.1875-.582032 5.488281 1.097656 1.300781 1.679687 1.164062 4.0625-.316406 5.585937l-15.957032 16.210938 13.832032-7.976563c1.871094-1.144531 4.308594-.683594 5.628906 1.066406 1.324219 1.75 1.105469 4.21875-.507812 5.707032l-9.125 8.6875 6.410156-3.683594c1.882812-1.167969 4.347656-.695312 5.667968 1.082031 1.324219 1.78125 1.0625 4.277344-.597656 5.742188l-5.402344 5.121093 2.472657-1.425781c1.855469-1.042969 4.199219-.558593 5.488281 1.132813 1.289062 1.695312 1.132812 4.082031-.367188 5.589844l-4.796874 4.746093 1.792968-1.03125c1.832032-1.050781 4.152344-.601562 5.464844 1.050781 1.308594 1.65625 1.214844 4.019532-.226562 5.5625l-4.957032 5.265626 1.929688-1.101563c1.78125-1.027344 4.039062-.636719 5.375.929687 1.332031 1.5625 1.363281 3.855469.070312 5.453126l-6.027344 7.378906 3.097657-1.789063c1.726562-.988281 3.902343-.652343 5.253906.808594 1.347656 1.460937 1.507813 3.660156.386719 5.300781l-5.632813 8.15625 2.613281-1.5c1.699219-.992187 3.859376-.691406 5.222657.726563 1.367187 1.417969 1.582031 3.585937.527343 5.246093l-3.8125 6.125.476563-.269531c1.675781-.992187 3.808594-.707031 5.164063.6875 1.363281 1.378907 1.625 3.503907.640624 5.171875l-2.082031 3.507813c1.175781-.109375 2.351563.261719 3.25 1.03125 1.375 1.207031 1.828125 3.160156 1.125 4.847656l-1.535156 3.703125c1.839844.1875 3.347656 1.539062 3.738281 3.347656s-.429687 3.664063-2.03125 4.589844l-7.765625 4.480469c-.671875.378906-1.429687.574219-2.203125.5625zm0 0" fill="#ffffff" fill-opacity="1" data-original-color="#4fc0e8ff" stroke="none" stroke-opacity="1"/><path d="m173.070312 125.183594c-1.65625.003906-3.160156-.945313-3.867187-2.441406-.707031-1.492188-.488281-3.261719.5625-4.535157l15.097656-18.324219-18.613281 10.746094c-1.941406 1.121094-4.421875.550782-5.675781-1.308594-1.253907-1.859374-.855469-4.371093.914062-5.75l1.808594-1.417968-1.808594 1.042968c-1.941406 1.121094-4.421875.546876-5.675781-1.3125-1.253906-1.867187-.847656-4.386718.933594-5.761718l16.65625-12.800782-18.023438 10.402344c-1.9375 1.101563-4.398437.523438-5.644531-1.328125-1.246094-1.847656-.859375-4.34375.890625-5.726562l43.554688-33.9375-47.523438 27.433593c-1.960938 1.117188-4.453125.507813-5.683594-1.382812-1.234375-1.894531-.773437-4.417969 1.042969-5.761719l30.378906-22.183593-32.511719 18.773437c-1.929687 1.074219-4.359374.5-5.605468-1.324219-1.242188-1.824218-.890625-4.296875.816406-5.699218l29.195312-23.324219-32.019531 18.5c-1.851562 1.03125-4.179687.546875-5.464843-1.140625-1.285157-1.6875-1.136719-4.058594.347656-5.574219l23.890625-23.679687-27.960938 16.09375c-1.851562 1.066406-4.207031.601562-5.511719-1.089844-1.304687-1.695313-1.15625-4.089844.347657-5.609375l9.71875-9.761719-11.042969 6.375c-1.6875.972656-3.820312.679688-5.183594-.714844-1.363281-1.394531-1.605468-3.535156-.59375-5.199218l4.976563-8.175782-5.972657 3.476563c-1.363281.785156-3.042968.757812-4.378906-.070313-1.335937-.828125-2.109375-2.324218-2.011718-3.890625l.210937-3.414062c-2.058594.484375-4.164063-.613281-4.941406-2.582031-.78125-1.96875 0-4.210938 1.835937-5.269532l5.699219-3.292968c1.363281-.789063 3.050781-.765626 4.386719.0625 1.339844.828124 2.113281 2.324218 2.015625 3.898437l-.199219 3.15625 13.542969-7.78125c1.6875-.960937 3.808593-.664063 5.164062.726563 1.355469 1.386718 1.605469 3.515624.605469 5.175781l-4.976562 8.175781 24.414062-14.078125c1.847656-1.003906 4.152344-.515625 5.429688 1.15625 1.277343 1.671875 1.144531 4.023437-.308594 5.542969l-9.675782 9.742187 28.519532-16.441406c1.851562-1.03125 4.179687-.542969 5.464844 1.140625 1.285156 1.6875 1.136718 4.058594-.347657 5.574219l-23.824219 23.664062 52.667969-30.378906c1.929688-1.078125 4.359375-.503906 5.605469 1.320313 1.242188 1.828124.890625 4.300781-.816406 5.703124l-29.195313 23.292969 52.566407-30.316406c1.964843-1.148437 4.484374-.550781 5.726562 1.355469s.765625 4.453125-1.074219 5.785156l-30.371093 22.1875 32.023437-18.484375c1.9375-1.078125 4.382813-.492187 5.621094 1.347656 1.238281 1.839844.855469 4.324219-.875 5.710938l-43.578125 33.851562 19.871094-11.476562c1.949218-1.144531 4.445312-.570313 5.703124 1.300781 1.257813 1.875.835938 4.40625-.957031 5.773438l-17.195312 13.234374c1.96875-.625 4.101562.246094 5.066406 2.070313s.484375 4.078125-1.140625 5.351563l-11.390625 8.9375c.613281.253906 1.15625.652343 1.578125 1.167968 1.335938 1.570313 1.359375 3.875.050781 5.46875l-20.148437 24.515625c1.058594.898438 1.613281 2.253907 1.488281 3.636719-.121094 1.378906-.910156 2.617188-2.109375 3.3125l-10.359375 5.972656c-.648437.382813-1.382813.585938-2.132813.585938zm0 0" fill="#ffffff" fill-opacity="1" data-original-color="#3aadd9ff" stroke="none" stroke-opacity="1"/><path d="m328.769531 128.453125c-1.59375-.019531-3.042969-.921875-3.761719-2.34375-.714843-1.417969-.582031-3.121094.347657-4.414063l9.726562-13.507812-12.253906 7.074219c-1.878906 1.046875-4.242187.53125-5.515625-1.203125s-1.054688-4.144532.507812-5.625l15.425782-14.042969-17.390625 10.035156c-1.929688 1.117188-4.394531.554688-5.65625-1.285156-1.261719-1.84375-.886719-4.34375.851562-5.738281l22.625-18.082032-24.746093 14.292969c-1.953126 1.117188-4.4375.527344-5.679688-1.347656s-.816406-4.394531.976562-5.753906l34.132813-25.691407-36.914063 21.261719c-1.964843 1.117188-4.457031.511719-5.6875-1.382812-1.230468-1.894531-.773437-4.417969 1.042969-5.757813l31.710938-23.039062-33.902344 19.515625c-1.929687 1.125-4.398437.574219-5.664063-1.261719-1.269531-1.839844-.90625-4.34375.832032-5.746094l33.121094-27.015625-36.582032 21.113281c-1.921875 1.105469-4.371094.558594-5.636718-1.261718-1.265626-1.820313-.925782-4.304688.78125-5.71875l18.148437-14.976563-20.027344 11.535157c-1.867187 1.109374-4.265625.636718-5.578125-1.09375-1.308594-1.730469-1.113281-4.167969.457032-5.664063l13.652343-13.15625-15.527343 8.957031c-1.855469 1.042969-4.199219.5625-5.488282-1.132812-1.289062-1.695313-1.132812-4.078125.367188-5.589844l2.933594-2.902344-2.910157 1.707032c-1.65625.960937-3.746093.699218-5.117187-.640626-1.371094-1.335937-1.679688-3.421874-.761719-5.101562l2.679687-4.882812-2.652343 1.527343c-1.207031.695313-2.671875.757813-3.933594.171875-1.261719-.589844-2.15625-1.753906-2.398437-3.125l-.683594-3.828125c-1.925782-.039062-3.585938-1.359375-4.054688-3.226562-.46875-1.871094.371094-3.820313 2.050782-4.761719l3.113281-1.765625c1.207031-.6875 2.671875-.75 3.933593-.171875 1.261719.589844 2.15625 1.753906 2.398438 3.125l.554688 3.15625 10.589843-6.109375c1.652344-.980469 3.757813-.714844 5.121094.640625 1.375 1.339844 1.6875 3.433594.757813 5.117188l-2.660157 4.863281 18.371094-10.621094c1.855469-1.042969 4.195313-.5625 5.484375 1.132813 1.292969 1.695312 1.136719 4.078124-.363281 5.589843l-2.945313 2.917969 16.742188-9.640625c1.867187-1.109375 4.265625-.636719 5.578125 1.09375 1.308593 1.726563 1.113281 4.167969-.457031 5.664063l-13.652344 13.132812 34.523437-19.890625c1.921875-1.109375 4.371094-.5625 5.636719 1.257813 1.265625 1.820312.925781 4.304687-.78125 5.722656l-18.148438 14.949218 38.03125-21.929687c1.925782-1.101563 4.371094-.542969 5.628907 1.28125 1.257812 1.820313.910156 4.304687-.796875 5.714844l-33.121094 27 58.300781-33.648438c1.960938-1.089843 4.433594-.476562 5.65625 1.40625 1.21875 1.882813.773438 4.390625-1.023437 5.738281l-31.691406 23.039063 27.035156-15.609375c1.949218-1.09375 4.414062-.496094 5.644531 1.371094 1.234375 1.863281.816406 4.363281-.953125 5.730468l-34.082031 25.695313 13.226562-7.628906c1.933594-1.117188 4.398438-.558594 5.65625 1.28125 1.261719 1.84375.890625 4.34375-.851562 5.742187l-22.671875 18.121094 2.746094-1.578125c1.878906-1.03125 4.230468-.511719 5.5 1.21875 1.265624 1.730469 1.050781 4.128906-.5 5.609375l-17.808594 16.214844c1.554687.085937 2.9375 1.011718 3.609375 2.417968s.523437 3.066407-.382813 4.332032l-17.066406 23.6875c.617188 1.914062-.183594 4.003906-1.929688 5.007812l-3.675781 2.125c-.644531.390625-1.375.597656-2.125.605469zm0 0" fill="#ffffff" fill-opacity="1" data-original-color="#3aadd9ff" stroke="none" stroke-opacity="1"/><path d="m222.679688 130.46875c-1.804688.003906-3.417969-1.128906-4.027344-2.828125s-.082032-3.597656 1.316406-4.742187l29.507812-24.175782-53.992187 31.148438c-1.929687 1.082031-4.367187.507812-5.613281-1.324219-1.242188-1.832031-.882813-4.308594.835937-5.707031l44.671875-35.414063-46.363281 26.75c-1.945313 1.109375-4.421875.523438-5.664063-1.34375-1.238281-1.871093-.824218-4.378906.957032-5.746093l35.367187-26.878907-14 8.082031c-1.90625 1.074219-4.316406.539063-5.582031-1.246093-1.265625-1.78125-.976562-4.234375.664062-5.675781l29.507813-25.445313-6.015625 3.472656c-1.851562 1.082031-4.222656.617188-5.53125-1.082031-1.308594-1.703125-1.152344-4.109375.371094-5.625l18.515625-18.664062c-.8125-.210938-1.542969-.664063-2.097657-1.296876-1.34375-1.519531-1.433593-3.773437-.214843-5.394531l11.203125-14.828125c-.507813-1.867187.304687-3.84375 1.980468-4.8125l3.679688-2.125c1.753906-1.003906 3.972656-.640625 5.3125.875 1.339844 1.511719 1.433594 3.757813.226562 5.378906l-2.9375 3.882813 2.851563-1.640625c1.851563-1.078125 4.21875-.617188 5.527344 1.078125 1.3125 1.699219 1.15625 4.105469-.355469 5.621094l-15.164062 15.285156 17.59375-10.15625c1.902343-1.074219 4.3125-.539063 5.582031 1.242187 1.265625 1.785157.976562 4.238282-.667969 5.679688l-29.523438 25.464844 33.136719-19.125c1.949219-1.132813 4.445313-.554688 5.695313 1.324218 1.25 1.878907.820312 4.40625-.976563 5.765626l-35.398437 26.90625 38.324218-22.117188c1.929688-1.082031 4.367188-.507812 5.613282 1.324219s.882812 4.308593-.835938 5.707031l-44.671875 35.421875 49-28.289063c1.925781-1.117187 4.386719-.570312 5.652344 1.261719s.914063 4.332031-.816406 5.738281l-29.507813 24.171876 32.605469-18.773438c1.898437-1.078125 4.300781-.554688 5.578125 1.214844 1.273438 1.769531 1.007812 4.21875-.617188 5.671875l-18.988281 16.71875 21.332031-12.304688c1.886719-1.1875 4.367188-.726562 5.699219 1.0625 1.328125 1.789063 1.058594 4.296875-.621093 5.761719l-9.386719 8.925781 10.53125-6.058593c1.84375-.992188 4.136719-.496094 5.410156 1.164062 1.269531 1.664062 1.148437 4.007812-.289063 5.527344l-1.433593 1.449218 1.089843-.628906c1.550782-.90625 3.496094-.746094 4.878907.398438 1.378906 1.144531 1.894531 3.03125 1.292969 4.71875l-1.957032 5.667968 1.972656-1.136718c2.039063-1.15625 4.632813-.453125 5.804688 1.578125s.484375 4.628906-1.539062 5.8125l-11.84375 6.828125c-1.539063.886718-3.46875.730468-4.84375-.402344-1.375-1.128906-1.902344-2.992188-1.324219-4.675781l1.953125-5.65625-18.613282 10.640625c-1.847656 1.050781-4.1875.582031-5.488281-1.101563-1.300781-1.683593-1.160156-4.066406.328125-5.589843l1.425782-1.449219-14.105469 8.140625c-1.871094 1.066406-4.246094.570312-5.535157-1.152344-1.285156-1.726562-1.089843-4.140625.464844-5.632812l9.386719-8.925782-27.238281 15.710938c-1.894532 1.078125-4.300782.554687-5.574219-1.214844-1.277344-1.769531-1.007813-4.21875.617187-5.671875l18.976563-16.75-40.960937 23.636719c-.640626.382812-1.375.589844-2.125.597656zm0 0" fill="#ffffff" fill-opacity="1" data-original-color="#4fc0e8ff" stroke="none" stroke-opacity="1"/><path d="m251.824219 498.585938c-1.382813.003906-2.675781-.664063-3.476563-1.789063-.800781-1.121094-1.011718-2.5625-.5625-3.867187l2.742188-7.96875c-1.730469.632812-3.667969.085937-4.8125-1.355469-1.144532-1.441407-1.234375-3.457031-.222656-4.996094l9.136718-13.875c-.226562-1.71875.605469-3.402344 2.109375-4.265625l1.953125-1.117188c1.714844-.984374 3.878906-.664062 5.230469.773438 1.355469 1.4375 1.546875 3.617188.460937 5.265625l-4.222656 6.417969c.285156.140625.554688.3125.800782.511718 1.375 1.136719 1.898437 3.003907 1.316406 4.6875l-4.363282 12.6875c.207032.230469.386719.480469.546876.742188.570312.980469.726562 2.144531.433593 3.242188-.289062 1.09375-1.003906 2.027343-1.984375 2.59375l-2.945312 1.707031c-.648438.386719-1.386719.597656-2.140625.605469zm0 0" fill="#ffffff" fill-opacity="1" data-original-color="#4fc0e8ff" stroke="none" stroke-opacity="1"/><path d="m242.394531 501.128906c-1.453125 0-2.804687-.738281-3.585937-1.957031-.785156-1.21875-.898438-2.753906-.296875-4.074219l3.855469-8.472656-.144532-.230469c-.570312-.980469-.722656-2.148437-.429687-3.242187.292969-1.097656 1.007812-2.03125 1.992187-2.597656l3.011719-1.707032c1.609375-.929687 3.632813-.710937 5.007813.539063s1.78125 3.242187 1.007812 4.933593l-1.570312 3.414063c1.847656.179687 3.363281 1.535156 3.75 3.347656.390624 1.8125-.433594 3.671875-2.042969 4.59375l-8.449219 4.882813c-.640625.371094-1.367188.566406-2.105469.570312zm0 0" fill="#ffffff" fill-opacity="1" data-original-color="#3aadd9ff" stroke="none" stroke-opacity="1"/><g fill="#262626"><path d="m504.792969 124.035156c-.222657-3.085937-.917969-6.113281-2.054688-8.988281-.0625-.144531-.230469-.210937-.316406-.339844-.085937-.128906 0-.195312-.09375-.289062-18.082031-22.089844-36.164063-44.179688-54.253906-66.269531-11.460938-14.003907-21.335938-30.722657-36.695313-39.253907.851563-2.730469-2.851562-3.652343-6.554687-3.003906-2.28125-.859375-4.632813-1.515625-7.03125-1.964844-43.664063-7.5-94.121094-1.894531-139.886719-.347656-2.402344-1.316406-5.324219-1.261719-7.679688.136719-3.855468.082031-7.757812.210937-11.527343.210937h-97.714844c-12.292969-1.0625-24.671875-.585937-36.847656 1.425781-3.480469-.515624-6.949219.996094-8.941407 3.890626-17.109374 9.976562-30.550781 33.511718-42.121093 47.640624-14.671875 17.921876-39.734375 39.042969-49.289063 60.324219-1.300781 3.0625-1.992187 6.347657-2.039062 9.675781-1.871094 1.058594-2.6875 2.007813-.136719 2.023438.699219 29.550781 40.105469 70.988281 52.777344 90.65625l121.089843 187.351562 44.277344 68.554688c7.320313 11.332031 13.601563 26.96875 28.390625 29.175781 26.402344 3.933594 44.195313-40.738281 55.015625-57.480469l132.25-204.652343 52.300782-80.949219c8.019531-12.414062 17.421874-22.570312 17.175781-35.746094 1.546875-.9375 2.039062-1.730468-.09375-1.78125zm-68.265625-71.304687 53.894531 65.832031c.683594 1.753906 1.15625 3.582031 1.410156 5.445312h-154.121093l68.042968-105.925781c11.714844 10.171875 22.058594 21.816407 30.773438 34.648438zm-183.058594 418.96875-70.117188-342.792969h140.226563zm-69.902344-347.691407 68.707032-106.871093c22.90625 35.625 45.804687 71.246093 68.703124 106.871093zm203.382813-113.921874c3.324219.582031 6.570312 1.546874 9.675781 2.871093-22.03125 34.308594-44.070312 68.613281-66.109375 102.917969l-68-105.789062h53.699219c22.613281 0 48.425781-3.710938 70.734375 0zm-186.285157 0h44.785157l-68.265625 106.257812-66.238282-103.089844c26.734376-9.675781 60.476563-3.167968 89.71875-3.167968zm-113.082031 18.339843c3.574219-3.8125 7.652344-7.113281 12.125-9.8125 22.566407 35.132813 45.136719 70.265625 67.703125 105.394531h-151.371094c1.65625-7.121093 4.832032-13.796874 9.308594-19.574218 18.765625-26.894532 39.570313-52.304688 62.234375-76.007813zm116.710938 400.683594-104.5-161.734375c-25.601563-39.558594-60.425781-80.734375-79.949219-123.730469-2.289062-4.601562-3.660156-9.605469-4.042969-14.730469h154.554688c24.542969 120.007813 49.085937 240.015626 73.632812 360.023438-17.203125-13.46875-33.023437-49.503906-39.695312-59.828125zm232.105469-205.585937-106.667969 165.136718c-13.703125 21.21875-27.410157 42.4375-41.121094 63.652344-5.777344 8.941406-16.296875 34.90625-25.921875 40.105469-.617188.269531-1.253906.488281-1.90625.65625 24.832031-121.390625 49.664062-242.78125 74.488281-364.175781h156.722657c-.785157 30.292968-42.597657 74.554687-55.558594 94.625zm0 0" fill="#262626" fill-opacity="1" data-original-color="#262626ff" stroke="none" stroke-opacity="1"/><path d="m79.570312 91.847656 20.8125-25.414062c1.757813-2.160156-1.554687-2.558594-3.046874-2.492188-3.035157-.027344-5.96875 1.066406-8.242188 3.074219l-20.804688 25.417969c-1.769531 2.152344 1.542969 2.5625 3.035157 2.492187 3.035156.027344 5.972656-1.070312 8.246093-3.078125zm0 0" fill="#262626" fill-opacity="1" data-original-color="#262626ff" stroke="none" stroke-opacity="1"/><path d="m80.96875 175.308594c-2.039062-3.15625-14.082031.742187-11.519531 4.695312l77.132812 119.464844c2.039063 3.160156 14.070313-.742188 11.519531-4.691406zm0 0" fill="#262626" fill-opacity="1" data-original-color="#262626ff" stroke="none" stroke-opacity="1"/><path d="m168.195312 332.914062 5.511719 8.53125c2.269531 3.523438 13.859375-.996093 12.367188-3.308593l-5.511719-8.535157c-2.269531-3.523437-13.859375 1-12.367188 3.3125zm0 0" fill="#262626" fill-opacity="1" data-original-color="#262626ff" stroke="none" stroke-opacity="1"/></g></g></svg>