<svg xmlns="http://www.w3.org/2000/svg" id="Icons" viewBox="0 0 60 60" width="300" height="300" version="1.1" xmlns:xlink="http://www.w3.org/1999/xlink" xmlns:svgjs="http://svgjs.dev/svgjs"><g width="100%" height="100%" transform="matrix(1,0,0,1,0,0)"><path d="M2.847,59.47a.5.5,0,0,1-.426-.762l1.092-1.781L1.28,58.216a.5.5,0,0,1-.625-.763L2.578,55.27l-1.3.749a.5.5,0,0,1-.614-.776l1.615-1.719-1,.579a.5.5,0,0,1-.6-.793l1-.959-.4.229A.5.5,0,0,1,.673,51.8l1.4-1.438-.8.459a.5.5,0,0,1-.586-.8l.5-.455a.5.5,0,0,1-.54-.8L2.565,46.6l-1.285.742a.5.5,0,0,1-.6-.786l1.248-1.246-.645.371A.5.5,0,0,1,.666,44.9l1.617-1.719-1,.578a.5.5,0,0,1-.587-.8l.546-.5a.5.5,0,0,1-.587-.782l1.985-2.285-1.357.783a.5.5,0,0,1-.609-.78L2.118,37.9l-.838.484A.5.5,0,0,1,.673,37.6l1.4-1.437-.8.459a.5.5,0,0,1-.628-.76l2-2.315-1.373.793a.5.5,0,0,1-.609-.781L2.118,32.07l-.838.484A.5.5,0,0,1,.651,31.8l2.025-2.356-1.4.806a.5.5,0,0,1-.618-.77L2.4,27.585l-1.116.644a.5.5,0,0,1-.615-.774L2.309,25.7l-1.029.594a.5.5,0,0,1-.626-.762L2.607,23.3l-1.327.767a.5.5,0,0,1-.615-.775l1.522-1.626-.907.524a.5.5,0,0,1-.707-.637l.607-1.357a.5.5,0,0,1-.347-.924L2,18.6a.5.5,0,0,1,.707.637l-.587,1.315L4.6,19.112a.5.5,0,0,1,.615.775L3.7,21.511l1.022-.59a.5.5,0,0,1,.626.762L3.393,23.917,4.72,23.15a.5.5,0,0,1,.615.775L3.691,25.683l1.029-.594a.5.5,0,0,1,.618.77L3.6,27.749,4.72,27.1a.5.5,0,0,1,.629.759L3.324,30.219l1.4-.806a.5.5,0,0,1,.609.78L3.882,31.687,4.72,31.2a.5.5,0,0,1,.628.76l-2,2.316,1.374-.793a.5.5,0,0,1,.607.783l-1.4,1.436.8-.459a.5.5,0,0,1,.609.78L3.884,37.518l.836-.483a.5.5,0,0,1,.628.761L3.363,40.081,4.72,39.3a.5.5,0,0,1,.587.8l-.548.5a.5.5,0,0,1,.575.8l-1.617,1.72,1-.578a.5.5,0,0,1,.6.786L4.075,44.57,4.72,44.2a.5.5,0,0,1,.625.764l-1.909,2.16,1.284-.741a.5.5,0,0,1,.586.8l-.5.456a.5.5,0,0,1,.561.165.5.5,0,0,1-.037.656L3.924,49.9l.8-.459a.5.5,0,0,1,.6.793l-.993.957.4-.228a.5.5,0,0,1,.614.775L3.719,53.456l1-.578a.5.5,0,0,1,.625.763L3.422,55.824l1.3-.749a.5.5,0,0,1,.676.7L4.3,57.552l.417-.24a.5.5,0,0,1,.5.865L3.1,59.4A.49.49,0,0,1,2.847,59.47Z" fill="#ffffff" fill-opacity="1" data-original-color="#c97f5fff" stroke="none" stroke-opacity="1"/><path d="M4.282,43.493a.5.5,0,0,1-.349-.857l2.253-2.2L1.28,43.267a.5.5,0,0,1-.566-.82l1.118-.915-.552.319a.5.5,0,0,1-.648-.736L1.708,39.7l-.428.247a.5.5,0,0,1-.723-.592l.206-.611A.481.481,0,0,1,.6,38.568a.5.5,0,0,1,.182-.682l.5-.289a.5.5,0,0,1,.724.592l-.076.227,1.426-.824A.5.5,0,0,1,4,38.326L2.927,39.745l3.741-2.159a.5.5,0,0,1,.566.819l-1.121.917,3.018-1.741a.5.5,0,0,1,.6.79l-2.251,2.2,5.191-3a.5.5,0,0,1,.592.8l-2.149,2.014,4.608-2.659a.5.5,0,0,1,.592.8l-1.989,1.871,1.408-.813a.5.5,0,0,1,.674.7l-.787,1.255.124-.071a.5.5,0,1,1,.5.865l-1.868,1.079a.5.5,0,0,1-.674-.7l.788-1.256-3.4,1.961a.5.5,0,0,1-.593-.8l1.99-1.871L7.857,43.419a.5.5,0,0,1-.591-.8l2.147-2.014L4.532,43.426A.489.489,0,0,1,4.282,43.493Z" fill="#ffffff" fill-opacity="1" data-original-color="#915849ff" stroke="none" stroke-opacity="1"/><path d="M16.416,59.47a.5.5,0,0,1-.377-.828l.581-.667-1.291.745a.5.5,0,0,1-.622-.767l1.8-2.014-1.23.71a.5.5,0,0,1-.595-.794l.948-.908-.353.2a.5.5,0,0,1-.59-.8l.682-.633-.092.052A.5.5,0,0,1,14.664,53l1.664-1.786-1.048.6a.5.5,0,0,1-.589-.8l.644-.6-.055.031a.5.5,0,0,1-.668-.707l1.1-1.675-.43.248a.5.5,0,0,1-.74-.53l.209-1.049a.484.484,0,0,1-.151-.163.5.5,0,0,1,.182-.682l.352-.2a.5.5,0,0,1,.74.531l-.136.68,1.295-.747a.5.5,0,0,1,.668.707l-1.1,1.674,2.118-1.223a.5.5,0,0,1,.589.8l-.644.595.055-.031a.5.5,0,0,1,.616.773l-1.664,1.786,1.048-.6a.5.5,0,0,1,.59.8l-.679.63.089-.051a.5.5,0,0,1,.6.794l-.948.908.353-.2a.5.5,0,0,1,.622.766l-1.8,2.014,1.181-.682a.5.5,0,0,1,.627.761l-.587.674a.5.5,0,0,1,.461.886L16.666,59.4A.49.49,0,0,1,16.416,59.47Z" fill="#ffffff" fill-opacity="1" data-original-color="#c97f5fff" stroke="none" stroke-opacity="1"/><path d="M57.757,59.47a.5.5,0,0,1-.462-.693l.644-1.547-2.6,1.505a.5.5,0,0,1-.6-.787l1.153-1.143-.6.347a.5.5,0,0,1-.614-.775l1.6-1.7-.99.571a.5.5,0,0,1-.628-.76l1.992-2.3-1.364.788a.5.5,0,0,1-.582-.807l.4-.357a.5.5,0,0,1-.406-.865l.5-.455a.5.5,0,0,1-.521-.822l1.346-1.364-.74.425a.5.5,0,0,1-.616-.773l1.672-1.8-1.056.61a.5.5,0,0,1-.626-.763l1.932-2.2-1.306.753a.5.5,0,0,1-.587-.8l.532-.485a.5.5,0,0,1-.553-.809L56.1,41l-.817.472a.5.5,0,0,1-.605-.785l1.332-1.348-.727.419a.5.5,0,0,1-.61-.78l1.5-1.558-.887.512a.5.5,0,0,1-.6-.788l1.227-1.222-.625.36a.5.5,0,0,1-.627-.761l1.976-2.271-1.349.778a.5.5,0,0,1-.587-.8l.534-.487a.5.5,0,0,1-.539-.824l.782-.734-.19.109a.5.5,0,0,1-.61-.779l1.479-1.535-.869.5a.5.5,0,0,1-.627-.76l1.97-2.262-1.343.775a.5.5,0,0,1-.589-.8l.643-.594-.055.031a.5.5,0,0,1-.626-.763L56.6,22.9l-1.316.759a.5.5,0,0,1-.637-.748l1.631-2-.994.574a.5.5,0,0,1-.677-.692l.362-.6a.5.5,0,0,1-.131-.919L56,18.6a.5.5,0,0,1,.678.692l-.213.353,1.669-.963a.5.5,0,0,1,.638.748l-1.631,2,1.584-.914a.5.5,0,0,1,.626.762L57.4,23.489l1.316-.759a.5.5,0,0,1,.589.8l-.641.592.052-.029a.5.5,0,0,1,.627.761l-1.971,2.262,1.344-.775a.5.5,0,0,1,.61.779l-1.477,1.532.867-.5a.5.5,0,0,1,.592.8l-.782.735.19-.11a.5.5,0,0,1,.587.8l-.534.486a.5.5,0,0,1,.574.788L57.37,33.924l1.35-.779a.5.5,0,0,1,.6.787L58.1,35.154l.625-.36a.5.5,0,0,1,.61.779l-1.5,1.559.887-.512a.5.5,0,0,1,.605.784l-1.331,1.347.726-.418a.5.5,0,0,1,.608.781L57.9,40.58l.817-.472a.5.5,0,0,1,.587.8l-.532.485a.5.5,0,0,1,.571.791l-1.934,2.2,1.308-.754a.5.5,0,0,1,.616.773l-1.672,1.8,1.056-.609a.5.5,0,0,1,.606.783l-1.344,1.362.738-.425a.5.5,0,0,1,.586.8l-.5.456a.5.5,0,0,1,.5.846l-.4.356a.509.509,0,0,1,.455.177.5.5,0,0,1-.007.646l-1.991,2.3,1.363-.787a.5.5,0,0,1,.614.776l-1.605,1.7.991-.571a.5.5,0,0,1,.6.787l-1.15,1.142.548-.316a.5.5,0,0,1,.712.625l-.655,1.568a.511.511,0,0,1,.573.231.5.5,0,0,1-.183.682l-1.16.67A.5.5,0,0,1,57.757,59.47Z" fill="#ffffff" fill-opacity="1" data-original-color="#c97f5fff" stroke="none" stroke-opacity="1"/><path d="M45.569,43.5a.5.5,0,0,1-.353-.853l2.3-2.3L44.28,42.211a.5.5,0,0,1-.661-.718l1.332-1.918-.671.387a.5.5,0,0,1-.724-.591l.21-.628a.487.487,0,0,1-.168-.175.5.5,0,0,1,.182-.682l.5-.289a.5.5,0,0,1,.725.591l-.084.249,1.465-.845a.5.5,0,0,1,.661.718l-1.332,1.918L50.3,37.584a.5.5,0,0,1,.6.786l-2.3,2.3,5.356-3.092a.5.5,0,0,1,.6.793L52.339,40.5l5.073-2.929a.5.5,0,0,1,.612.778l-2.349,2.466,3.054-1.762a.5.5,0,0,1,.578.809l-.336.292a.533.533,0,0,1,.4.177.5.5,0,0,1,.006.641l-.33.4a.5.5,0,0,1,.2.931l-1.912,1.1a.5.5,0,0,1-.637-.75l.16-.194-1.644.949a.5.5,0,0,1-.578-.809l.1-.089-1.564.9a.5.5,0,0,1-.612-.777l2.349-2.467-5.634,3.252a.5.5,0,0,1-.6-.793L50.893,40.5,45.819,43.43A.489.489,0,0,1,45.569,43.5Z" fill="#ffffff" fill-opacity="1" data-original-color="#915849ff" stroke="none" stroke-opacity="1"/><path d="M42.536,59.47a.5.5,0,0,1-.388-.816l.718-.883-1.555.9a.5.5,0,0,1-.617-.773l1.654-1.783-1.068.616a.5.5,0,0,1-.608-.781L42.1,54.477l-.823.474a.5.5,0,0,1-.609-.78l1.461-1.511-.852.491a.5.5,0,0,1-.623-.765l1.858-2.077-1.235.712a.5.5,0,0,1-.6-.789l1.131-1.11-.531.306a.5.5,0,0,1-.713-.623l.411-1a.5.5,0,0,1-.2-.93l.908-.525a.5.5,0,0,1,.713.624l-.35.851,2.669-1.541a.5.5,0,0,1,.6.789l-1.129,1.109.529-.3a.5.5,0,0,1,.623.765l-1.859,2.079,1.236-.713a.5.5,0,0,1,.609.78L43.868,52.3l.852-.491a.5.5,0,0,1,.608.781L43.9,54.065l.823-.474a.5.5,0,0,1,.616.772l-1.652,1.782,1.036-.6a.5.5,0,0,1,.637.748l-.719.884.083-.047a.5.5,0,0,1,.5.865L42.786,59.4A.49.49,0,0,1,42.536,59.47Z" fill="#ffffff" fill-opacity="1" data-original-color="#c97f5fff" stroke="none" stroke-opacity="1"/><path d="M27.511,56.5a.5.5,0,0,1-.33-.876l1.687-1.482-1.588.916a.5.5,0,0,1-.573-.814l1.727-1.466-1.154.666a.5.5,0,0,1-.592-.8l2.761-2.581L27.28,51.316a.5.5,0,0,1-.587-.8l2.516-2.289L27.28,49.338a.5.5,0,0,1-.593-.8l2.793-2.624-2.2,1.271a.5.5,0,0,1-.6-.793l.938-.905-.342.2a.5.5,0,0,1-.737-.543l.308-1.36a.5.5,0,0,1-.071-.9l.5-.291a.5.5,0,0,1,.737.543l-.25,1.112,2.9-1.672a.5.5,0,0,1,.6.793l-.939.9,2.4-1.382a.5.5,0,0,1,.592.8l-2.791,2.623,2.2-1.273a.5.5,0,0,1,.586.8l-2.519,2.293,1.937-1.118a.5.5,0,0,1,.592.8l-2.759,2.579,2.172-1.254a.5.5,0,0,1,.574.813l-1.728,1.466,1.158-.668a.5.5,0,0,1,.58.809l-1.687,1.483,1.111-.642a.5.5,0,0,1,.7.651l-.812,1.682.117-.067a.5.5,0,1,1,.5.865l-1.523.879a.5.5,0,0,1-.7-.65l.813-1.682-4.076,2.353A.489.489,0,0,1,27.511,56.5Z" fill="#ffffff" fill-opacity="1" data-original-color="#c97f5fff" stroke="none" stroke-opacity="1"/><path d="M30.987,3.223a.5.5,0,0,1-.25-.933L33.458.72a.5.5,0,1,1,.5.865l-2.721,1.57A.5.5,0,0,1,30.987,3.223Z" fill="#ffffff" fill-opacity="1" data-original-color="#cd4c60ff" stroke="none" stroke-opacity="1"/><path d="M29.307,17.782a.5.5,0,0,1-.32-.885l4.628-3.832-5.545,3.2a.5.5,0,0,1-.534-.845l1.618-1.114-1.943,1.121a.5.5,0,0,1-.545-.837l5.424-3.957-6.153,3.552a.5.5,0,0,1-.533-.846l3.115-2.13-3.54,2.043a.5.5,0,0,1-.539-.84l5.394-3.831-6.059,3.5a.5.5,0,0,1-.53-.847L25.9,9.439l-3.034,1.752a.5.5,0,0,1-.534-.843l3.6-2.488-4.073,2.351a.5.5,0,0,1-.562-.823L24.163,7.1,20.916,8.972a.5.5,0,0,1-.568-.819l3.107-2.562L20.36,7.377a.5.5,0,0,1-.563-.822L21.7,5.02l-1.366.788a.5.5,0,0,1-.616-.773l1.717-1.85a.509.509,0,0,1-.539-.24.5.5,0,0,1,.183-.682L23.753.72a.5.5,0,0,1,.616.772L22.708,3.283,26.775.936a.5.5,0,0,1,.564.822l-1.9,1.536,2.724-1.572a.5.5,0,0,1,.569.818L25.622,5.1l3.793-2.19a.5.5,0,0,1,.563.823L27.106,6.026,36.128.818a.5.5,0,0,1,.534.844L33.067,4.146,37.6,1.528a.5.5,0,0,1,.53.847l-2.655,1.8L38.542,2.4a.5.5,0,0,1,.539.84l-5.4,3.834L39.363,3.8a.5.5,0,0,1,.533.846L36.78,6.771l2.909-1.678a.5.5,0,0,1,.545.837L34.811,9.887l4.669-2.7a.5.5,0,0,1,.535.845l-1.68,1.157a.5.5,0,0,1,.493.854l-5.8,4.8a.5.5,0,0,1,0,.864l-3.471,2A.491.491,0,0,1,29.307,17.782Z" fill="#ffffff" fill-opacity="1" data-original-color="#cd4c60ff" stroke="none" stroke-opacity="1"/><path d="M40.909,47.47a.5.5,0,0,1-.337-.869l1.662-1.519L39,46.95a.5.5,0,0,1-.564-.821l2.291-1.857-2.424,1.4a.5.5,0,1,1-.5-.865l7.918-4.573a.5.5,0,0,1,.564.822l-2.29,1.855,1.726-1a.5.5,0,0,1,.587.8l-1.663,1.519,1.076-.621a.493.493,0,0,1,.614.091.5.5,0,0,1,.052.619l-.8,1.2a.5.5,0,0,1,.343.923l-1.659.957a.5.5,0,0,1-.666-.71l.76-1.14L41.159,47.4A.49.49,0,0,1,40.909,47.47Z" fill="#ffffff" fill-opacity="1" data-original-color="#bfdbf0ff" stroke="none" stroke-opacity="1"/><path d="M32.343,47.47a.5.5,0,0,1-.286-.91l3.922-2.731L30.84,46.8a.5.5,0,0,1-.528-.848l3.015-2.022L30.3,45.672a.5.5,0,1,1-.5-.865L45.72,35.616a.5.5,0,0,1,.528.848l-3.022,2.027,2.494-1.439a.5.5,0,0,1,.536.843l-3.921,2.729L45.72,38.67a.5.5,0,0,1,.665.154.5.5,0,0,1-.11.675l-8,6.162a.5.5,0,0,1-.231.567L36.01,47.4a.5.5,0,0,1-.556-.829l4.261-3.282L32.593,47.4A.5.5,0,0,1,32.343,47.47Z" fill="#ffffff" fill-opacity="1" data-original-color="#bfdbf0ff" stroke="none" stroke-opacity="1"/><path d="M26.8,47.47a.5.5,0,0,1-.278-.916l6.489-4.336-8.952,5.168a.5.5,0,0,1-.522-.853l5.527-3.574L22.7,46.634a.5.5,0,0,1-.515-.857l.71-.446-.59.341a.5.5,0,1,1-.5-.865L45.72,31a.5.5,0,0,1,.515.857l-.714.448.2-.114a.5.5,0,0,1,.521.852l-5.524,3.572,5-2.887a.5.5,0,0,1,.527.848L30.457,45.126a.5.5,0,0,1-.25.453L27.049,47.4A.5.5,0,0,1,26.8,47.47Z" fill="#ffffff" fill-opacity="1" data-original-color="#bfdbf0ff" stroke="none" stroke-opacity="1"/><path d="M17.693,47.47a.5.5,0,0,1-.274-.918L31.1,37.558,14.937,46.892a.5.5,0,0,1-.522-.853l13.821-8.933L14.28,45.164a.5.5,0,0,1-.514-.856l5.914-3.692-5.4,3.117a.5.5,0,0,1-.514-.857l4.472-2.785L14.28,42.376a.5.5,0,0,1-.515-.856l5.256-3.291L14.28,40.966a.5.5,0,0,1-.513-.858l1.265-.785-.752.434a.5.5,0,0,1-.517-.856l5.632-3.56L14.28,38.293a.5.5,0,0,1-.523-.852l9.117-5.961L14.28,36.441a.5.5,0,0,1-.521-.852l5.017-3.245-4.5,2.594a.5.5,0,0,1-.528-.847l6.167-4.132L14.28,33.214a.5.5,0,0,1-.54-.84l6.514-4.633L14.28,31.189a.5.5,0,0,1-.536-.842l2.993-2.092L14.32,29.65a.5.5,0,0,1-.543-.838l2.078-1.5-1.187.684a.5.5,0,0,1-.6-.793L16.6,24.769a.5.5,0,0,1-.4-.909L19.6,21.892a.5.5,0,0,1,.6.793l-2.488,2.4L23.747,21.6a.5.5,0,0,1,.543.838l-2.076,1.5L26.27,21.6a.5.5,0,0,1,.536.842l-2.994,2.092L28.9,21.6a.5.5,0,0,1,.54.84l-6.512,4.631L32.4,21.6a.5.5,0,0,1,.529.847l-6.168,4.133,8.627-4.98a.5.5,0,0,1,.521.852L30.9,25.69l7.074-4.083a.5.5,0,0,1,.523.852l-9.118,5.963,11.027-6.367a.5.5,0,0,1,.518.855l-5.642,3.567,6.528-3.768a.5.5,0,0,1,.513.857l-1.265.786,1.7-.981a.5.5,0,0,1,.515.857l-5.257,3.291,5.664-3.27a.5.5,0,0,1,.514.857l-4.468,2.783,4.677-2.7a.5.5,0,0,1,.515.857l-5.908,3.687L45,26.271a.5.5,0,0,1,.521.853L31.7,36.057,45.572,28.05a.5.5,0,0,1,.525.85l-13.688,9L45.72,30.212a.5.5,0,0,1,.516.855l-24.1,15.165a.5.5,0,0,1-.2.208l-1.661.96a.5.5,0,0,1-.516-.855l3.706-2.332L17.943,47.4A.5.5,0,0,1,17.693,47.47Z" fill="#ffffff" fill-opacity="1" data-original-color="#bfdbf0ff" stroke="none" stroke-opacity="1"/><path d="M25.481,59.47a.5.5,0,0,1-.332-.874l.753-.668-2.224,1.284a.5.5,0,0,1-.591-.8l.81-.755-.617.356a.5.5,0,0,1-.7-.648l.556-1.168a.488.488,0,0,1-.485-.247.5.5,0,0,1,.183-.682l1.161-.671a.5.5,0,0,1,.7.647l-.522,1.1L27.2,54.6a.5.5,0,0,1,.591.8l-.809.754,2.69-1.552a.5.5,0,0,1,.582.806l-.755.67L32.057,54.6a.5.5,0,0,1,.644.739l-1.494,1.924,4.6-2.657a.5.5,0,0,1,.615.775l-1.383,1.478,1.678-.967a.5.5,0,0,1,.7.64l-.584,1.276a.5.5,0,0,1,.51.244.5.5,0,0,1-.183.682l-1.16.67a.5.5,0,0,1-.7-.64l.559-1.223L32.634,59.4a.5.5,0,0,1-.615-.774L33.4,57.149,29.5,59.4a.5.5,0,0,1-.644-.739l1.494-1.924L25.731,59.4A.493.493,0,0,1,25.481,59.47Z" fill="#ffffff" fill-opacity="1" data-original-color="#915849ff" stroke="none" stroke-opacity="1"/><path d="M24.408,13.387l5.182,5.051c.215.209.529.093.734-.127,3.045-3.387,7.182-6.054,9.637-9.906,2.727-6.866-5.76-10.838-9.92-5.3-2.157-1.956-4.027-3.715-7.524-1.925a5.733,5.733,0,0,0-2.684,6.968C20.613,10.261,22.847,11.865,24.408,13.387ZM27,1.952A9.463,9.463,0,0,1,29.589,4.1c.215.214.566.042.739-.13,2.85-3.8,9.389-2.672,9.131,2.641-.205,2.138-1.917,3.409-3.291,4.747l-6.06,5.9c-2.829-2.944-6.088-5.547-8.675-8.682C19.237,5.078,22.924.125,27,1.952Z" fill="#262626" fill-opacity="1" data-original-color="#262626ff" stroke="none" stroke-opacity="1"/><path d="M59.559,37.916V25.262c0-2.816,1.2-7.375-3.057-6.758-3.144.457-2.061,4.535-2.061,6.927V37.413H46.778c-.108-2.595-.321-5.183-.319-7.592-.909-11.275-15.837-8.648-23.721-8.41-9.233.279-9.563,8.61-9.34,16H5.573V25.2c0-2.855,1.148-7.366-3.158-6.683-3.07.487-1.988,4.646-1.988,6.974.108,4.273-.208,8.691.112,12.9v4.5C.3,46.441.534,50.1.453,53.691c0,2.739-.909,6.26,2.958,5.822,2.983-.337,2.136-3.556,2.136-5.831V43.59h8.011a4.522,4.522,0,0,0,.867,3.012c-.067,2.823,0,5.672-.024,8.5,0,2.255-.467,4.241,2.355,4.344,1.064.039,2.3.131,2.744-1.037.347-3.545-.035-7.217.1-10.8.938.049,1.556-.59,2.3-1.2a5.859,5.859,0,0,0,4.615,1.222v6.785c-2.557-.244-4.7.335-4.092,3.383.212,1.409.78,1.608,2.078,1.679,3.772.2,7.606,0,11.385,0,1.621-.3,2.048-1.916,1.687-3.466-.343-2.06-2.5-1.367-4.013-1.544V47.776a8.883,8.883,0,0,0,4.273-.82,11.165,11.165,0,0,0,2.7.611v7.777c0,2.146-.365,4.144,2.338,4.241,2.939.106,2.6-1.74,2.6-4.071-.027-2.926.052-5.864-.028-8.784a4.875,4.875,0,0,0,1.168-3.143h7.818v10.1c0,2.788-.894,6.227,3.009,5.8,3-.329,2.139-3.492,2.139-5.79-.1-3.666.2-7.471-.109-11.071V38.175A.453.453,0,0,0,59.559,37.916ZM58.6,42.475c.107-.059.265.021,0,0ZM56.811,19.5c2.869-.174,1.63,7,1.63,8.84v9.078H55.559V28.541C55.559,26.7,54.41,19.641,56.811,19.5ZM13.538,42.41H1.461V38.59H13.437C13.485,39.931,13.535,41.223,13.538,42.41ZM2.9,19.482c2.733,0,1.53,7.074,1.53,8.914V37.41H1.573V28.48C1.573,26.661.4,19.486,2.9,19.482Zm.236,39.005c-1.713-.025-1.586-.983-1.586-2.32V43.59H4.453V56.253C4.453,57.547,4.8,58.51,3.133,58.487Zm13.686.064c-1.208-.166-1.22-.578-1.22-1.681V47.305a10.166,10.166,0,0,0,2.8.3v5.579C18.4,54.77,19.287,58.891,16.819,58.551ZM35.146,55.48c.767.182.773-.465,1.279.8.179.45.125,2.026-.432,2.237-3.7-.116-7.473.2-11.139,0-.689-.129-.477.185-.994-.4a2.615,2.615,0,0,1-.112-2.372c.6-.615,2.085-.2,2.916-.267a.413.413,0,0,0,.439,0c1.857-.025,3.642.064,5.509-.066a.671.671,0,0,0,.648-.038A6.968,6.968,0,0,1,35.146,55.48Zm-2.708-1.006c-1.675.005-3.28.1-4.955,0v-7c.676-.254,2.7-.15,2.515-1.089.642.407,1.554,1.315,2.44,1.308Zm12.094,2.037c0,1.233.01,1.717-1.4,1.9-1.261.167-1.532-.106-1.662-1.168-.118-3.172.069-6.388,0-9.573a6.366,6.366,0,0,0,3.064-.335ZM41.1,46.541a.4.4,0,0,0-.428-.06,2.676,2.676,0,0,1-2.188-1.644V31.929c0-.78-.976-.487-.976.142V45c-.833,2.3-6.095,1.845-6.991-.1v-10c0-.748-1.042-.387-1.042.2v9.983a2.71,2.71,0,0,1-2.226,1.4.459.459,0,0,0-.368.041c-1.844.164-4-.518-4.423-1.76V31.974c0-.778-.924-.639-.924.052V44.948a2.338,2.338,0,0,1-2.252,1.68.811.811,0,0,0-.675,0c-2.191-.282-4.244-1.37-4.309-3.147a.718.718,0,0,0-.05-.934c.031-1.662.28-3.095.2-4.584C13.263,23,17.75,21.57,31.439,22.589c17.365-.88,13.47,6.548,14.271,19.894-.252.177-.21.666.018.93C45.912,45.739,43.516,46.694,41.1,46.541Zm5.708-7.954H58.535c0,1.294.006,2.588,0,3.882-3.89-.218-7.881.034-11.8-.056A37.842,37.842,0,0,0,46.812,38.587Zm10.3,19.933c-2.631-.036-1.535-5.69-1.535-7.534v-7.4h2.852V56.245C58.426,57.522,58.772,58.542,57.109,58.52Z" fill="#262626" fill-opacity="1" data-original-color="#262626ff" stroke="none" stroke-opacity="1"/></g></svg>