<svg id="Icons" viewBox="0 0 60 60" xmlns="http://www.w3.org/2000/svg" width="300" height="300" version="1.1" xmlns:xlink="http://www.w3.org/1999/xlink" xmlns:svgjs="http://svgjs.dev/svgjs"><g width="100%" height="100%" transform="matrix(1,0,0,1,0,0)"><path d="m30.426 42.466c-.167 0-.33-.084-.425-.236-.143-.229-.077-.53.147-.68l7.319-4.869-9.848 5.686c-.235.139-.535.06-.677-.173-.142-.231-.072-.534.157-.681l3.894-2.498-5.661 3.268c-.235.138-.536.061-.679-.175-.141-.233-.068-.536.162-.681l.253-.159-1.577.91c-.232.137-.529.062-.673-.167-.144-.228-.081-.527.141-.679l10.56-7.205-13.443 7.761c-.236.138-.538.061-.679-.175-.141-.233-.068-.536.163-.682l.008-.005-1.164.672c-.235.136-.535.061-.677-.172s-.072-.534.156-.682l4.646-2.988-6.169 3.561c-.23.136-.527.062-.673-.165-.144-.227-.082-.526.139-.679l10.066-6.964-12.595 7.271c-.235.135-.534.061-.675-.169-.143-.23-.076-.531.148-.681l6.74-4.468-8.378 4.836c-.236.137-.535.06-.676-.171-.142-.23-.074-.532.152-.681l4.333-2.824-5.561 3.21c-.235.136-.534.06-.676-.171s-.074-.532.152-.681l3.927-2.566-5.036 2.907c-.234.135-.532.061-.675-.169s-.077-.53.147-.68l4.999-3.333-6.146 3.548c-.229.134-.526.062-.671-.162-.145-.225-.086-.523.131-.678l7.285-5.18-8.736 5.043c-.236.135-.533.061-.674-.168-.143-.229-.079-.529.145-.68l3.242-2.18-3.88 2.239c-.233.137-.529.062-.673-.165-.144-.228-.082-.527.139-.68l3.543-2.441-4.001 2.31c-.233.137-.529.062-.673-.165s-.082-.526.139-.679l1.905-1.316-1.919 1.107c-.217.126-.494.071-.647-.129-.152-.199-.133-.481.045-.658l2.635-2.619-1.08.623c-.239.138-.546.057-.683-.183-.139-.239-.057-.545.183-.683l4.406-2.544c.216-.128.494-.072.647.129.152.199.133.481-.045.658l-2.635 2.619 9.282-5.358c.234-.136.53-.061.673.165.144.227.082.526-.139.679l-1.9 1.313 4.141-2.391c.233-.134.53-.061.673.165.144.228.082.527-.139.68l-3.547 2.444 5.697-3.289c.233-.137.532-.061.674.168.143.229.079.529-.145.68l-3.238 2.178 5.24-3.025c.229-.135.525-.062.671.162.145.225.086.523-.131.678l-7.287 5.182 10.431-6.021c.233-.137.531-.062.675.169.143.229.077.53-.147.68l-4.995 3.33 7.238-4.179c.236-.136.535-.06.676.171.142.23.074.532-.152.681l-3.938 2.574 5.935-3.426c.235-.136.534-.06.676.171s.074.532-.152.681l-4.326 2.819 6.359-3.671c.233-.137.533-.062.675.169.143.23.076.531-.148.681l-6.736 4.466 9.207-5.315c.234-.134.528-.061.673.165.144.227.082.526-.139.679l-10.068 6.965 13.526-7.809c.235-.136.535-.06.677.172s.072.534-.156.682l-4.64 2.985 6.649-3.839c.237-.137.539-.061.679.175.141.233.068.536-.163.682l-.029.018 1.516-.874c.234-.134.53-.062.673.167.144.228.081.527-.141.679l-10.558 7.204 13.015-7.514c.238-.136.537-.06.679.175.141.233.068.536-.162.681l-.245.154 1.173-.677c.236-.136.536-.059.677.173.142.231.072.534-.157.681l-3.884 2.492 5.029-2.903c.234-.138.531-.062.675.169.143.229.077.53-.147.68l-7.326 4.874 8.801-5.081c.236-.136.536-.059.678.173.141.232.07.535-.159.682l-1.305.833 2.07-1.195c.23-.135.527-.062.671.163.145.225.086.523-.132.678l-8.446 5.974 10.005-5.775c.229-.133.523-.063.669.16s.091.52-.124.677l-7.211 5.262 8.356-4.824c.234-.135.53-.061.673.165.144.227.082.526-.139.679l-2.872 1.983 3.097-1.787c.223-.131.512-.067.66.147.148.213.108.505-.092.67l-3.562 2.948 3.06-1.766c.238-.141.545-.058.683.183.139.239.057.545-.183.683l-8.213 4.741c-.224.132-.512.066-.66-.147s-.108-.505.092-.67l3.562-2.948-8.656 4.997c-.233.136-.529.062-.673-.165s-.082-.526.139-.679l2.87-1.982-5.741 3.314c-.227.136-.523.065-.669-.16-.146-.223-.091-.52.124-.677l7.212-5.263-11.31 6.529c-.23.136-.527.062-.671-.163-.145-.225-.086-.523.132-.678l8.445-5.974-12.14 7.009c-.235.139-.535.06-.678-.173-.141-.232-.07-.535.159-.682l1.312-.837-2.987 1.724c-.079.046-.165.067-.25.067z" fill="#ffffff" fill-opacity="1" data-original-color="#263a84ff" stroke="none" stroke-opacity="1"/><path d="m30.557 35.464c-.167 0-.331-.084-.425-.237-.143-.229-.076-.53.148-.68l.397-.263-1.905 1.1c-.232.136-.53.062-.674-.167-.143-.229-.079-.528.144-.68l2.614-1.773-4.364 2.52c-.232.137-.529.062-.673-.165-.144-.228-.082-.526.139-.679l3.399-2.345-5.153 2.975c-.229.135-.525.062-.67-.161s-.088-.521.128-.678l4.677-3.363-6.612 3.817c-.232.137-.53.062-.674-.167-.143-.228-.08-.528.143-.68l1.658-1.126-2.771 1.6c-.233.137-.529.062-.674-.167-.143-.228-.08-.527.143-.679l1.3-.886-2.235 1.29c-.227.133-.518.064-.666-.154-.146-.22-.098-.515.111-.675l4.39-3.372-5.83 3.365c-.229.132-.521.064-.667-.157s-.095-.517.117-.675l2.906-2.184-3.718 2.146c-.228.132-.521.063-.667-.156-.146-.221-.095-.517.116-.676l1.813-1.366-1.843 1.063c-.218.129-.502.069-.654-.138-.15-.207-.121-.494.068-.665l2.216-2.009-1.317.76c-.218.128-.499.07-.651-.135-.151-.203-.126-.488.059-.662l.547-.514c-.091-.018-.176-.061-.246-.128-.161-.152-.202-.392-.102-.589l.41-.807c-.034-.032-.065-.07-.09-.114-.139-.239-.057-.545.183-.683l.573-.331c.191-.11.434-.083.594.07.161.152.202.392.102.589l-.114.225 1.534-.885c.218-.127.499-.071.651.135.151.203.126.488-.059.662l-.15.142 1.629-.94c.219-.127.503-.068.654.138.15.207.121.494-.068.665l-2.215 2.008 4.874-2.813c.227-.134.521-.064.667.156.146.221.095.517-.116.676l-1.815 1.368 3.814-2.202c.226-.135.521-.065.667.157.146.221.095.517-.117.675l-2.908 2.185 5.229-3.019c.227-.134.519-.065.666.154.146.22.098.515-.111.675l-4.388 3.371 7.28-4.203c.234-.135.53-.062.674.167.143.228.08.527-.143.679l-1.294.882 2.996-1.729c.234-.135.531-.062.674.167.143.228.08.528-.143.68l-1.658 1.125 3.42-1.974c.229-.135.524-.063.67.161.145.224.088.521-.128.678l-4.684 3.368 7.292-4.209c.234-.135.53-.061.673.165.144.228.082.526-.139.679l-3.391 2.339 5.518-3.186c.234-.135.531-.062.674.167s.079.528-.144.68l-2.614 1.773 4.143-2.392c.233-.138.533-.062.675.17.143.229.076.53-.148.68l-.406.269.112-.064c.234-.135.531-.062.674.167.143.228.08.528-.143.68l-.74.502.449-.259c.229-.135.528-.062.672.165s.083.525-.137.679l-.219.151c.208-.068.453.005.579.2.146.222.093.519-.121.676l-.337.249.023-.014c.218-.128.5-.07.652.136.151.204.124.49-.062.663l-.653.607c.164-.022.369.077.467.249.139.239.057.545-.183.683l-3.441 1.986c-.218.128-.5.07-.652-.136-.151-.204-.124-.49.062-.663l.487-.452-3.935 2.271c-.227.135-.523.063-.668-.159-.146-.222-.093-.519.121-.676l.331-.244-2.483 1.434c-.229.136-.528.062-.672-.165s-.083-.525.137-.679l.13-.09-1.903 1.099c-.232.137-.53.062-.674-.167-.143-.228-.08-.528.143-.68l.747-.507-2.448 1.413c-.079.046-.165.067-.25.067z" fill="#ffffff" fill-opacity="1" data-original-color="#253b77ff" stroke="none" stroke-opacity="1"/><path d="m29.677 29.465c-.163 0-.322-.08-.418-.226-.146-.222-.093-.518.12-.676l6.521-4.843-9.534 5.504c-.23.135-.528.062-.671-.163-.145-.225-.086-.523.132-.678l7.812-5.533-10.294 5.943c-.235.136-.532.061-.675-.168s-.078-.529.146-.68l6.962-4.672-8.655 4.997c-.233.137-.529.062-.673-.166s-.081-.528.141-.68l10.115-6.905-11.988 6.922c-.235.136-.533.06-.676-.17-.142-.23-.075-.532.151-.681l8.502-5.58-9.711 5.606c-.236.137-.536.061-.677-.172-.142-.231-.072-.534.156-.681l7.309-4.71-8.061 4.653c-.235.135-.532.06-.675-.169s-.077-.53.147-.68l12.385-8.265-11.285 6.516c-.235.135-.532.06-.675-.168-.143-.229-.077-.53.146-.68l10.594-7.092-9.529 5.501c-.235.139-.536.06-.678-.174-.141-.232-.07-.535.159-.681l.778-.494c-.22.1-.49.028-.627-.182-.145-.223-.091-.52.123-.677l5.192-3.816-4.15 2.396c-.227.131-.516.064-.663-.15-.147-.217-.104-.51.102-.673l4.036-3.222-2.96 1.708c-.226.132-.516.065-.662-.15-.148-.215-.104-.508.099-.672l2.068-1.663-1.098.633c-.224.132-.511.066-.66-.146-.148-.212-.109-.503.09-.67l1.192-.997-.256.147c-.206.12-.469.077-.626-.104-.157-.179-.166-.444-.021-.634l1.341-1.746c-.21.054-.445-.033-.561-.233-.139-.239-.057-.545.183-.683l2.03-1.172c.204-.121.468-.078.626.104.157.179.166.444.021.634l-1.313 1.71 3.075-1.774c.223-.131.512-.066.66.146s.109.503-.09.67l-1.189.994 1.715-.989c.224-.133.516-.064.662.15.148.215.104.508-.099.672l-2.068 1.664 3.101-1.79c.224-.133.515-.065.663.15.147.217.104.51-.102.673l-4.036 3.222 6.243-3.604c.229-.133.523-.062.669.159.145.223.091.52-.123.677l-5.193 3.816 12.443-7.184c.237-.136.537-.059.678.174s.07.535-.159.681l-.73.464 2.198-1.269c.233-.137.532-.061.675.168s.077.53-.146.68l-10.593 7.092 11.585-6.688c.233-.137.531-.062.675.169.143.229.077.53-.147.68l-12.385 8.264 12.445-7.185c.236-.138.536-.06.677.172.142.231.072.534-.156.681l-7.311 4.711 7.112-4.105c.235-.138.533-.06.676.17.142.23.075.532-.151.681l-8.495 5.575 8.329-4.809c.234-.135.53-.061.673.166.144.229.081.528-.141.68l-10.118 6.906 10.021-5.785c.233-.137.531-.062.675.168.143.229.078.529-.146.68l-6.959 4.67 6.784-3.917c.229-.136.527-.062.671.163.145.225.086.523-.132.678l-7.814 5.534 7.702-4.446c.229-.134.522-.062.668.158.146.222.093.518-.12.676l-6.521 4.844 6.41-3.701c.234-.135.53-.062.673.166.144.228.081.527-.141.679l-.943.646.657-.379c.228-.134.52-.063.666.155.146.22.097.516-.113.676l-2.399 1.824 2.158-1.246c.221-.129.508-.067.657.143s.115.499-.08.668l-1.121.971.832-.48c.238-.139.545-.058.683.183.139.239.057.545-.183.683l-5.385 3.108c-.222.13-.508.066-.657-.143-.149-.21-.115-.499.08-.668l1.119-.969-4.443 2.565c-.229.132-.521.063-.666-.155-.146-.22-.097-.516.113-.676l2.399-1.824-5.081 2.934c-.232.137-.529.062-.673-.166s-.081-.527.141-.679l.945-.648-2.657 1.534c-.078.046-.165.067-.25.067z" fill="#ffffff" fill-opacity="1" data-original-color="#324587ff" stroke="none" stroke-opacity="1"/><path d="m19.456 53.47c-.156 0-.31-.073-.406-.209-.15-.209-.117-.498.077-.667l3.432-3.007-6.579 3.798c-.229.134-.524.062-.67-.161-.145-.224-.088-.521.128-.678l1.584-1.139-2.896 1.672c-.229.135-.527.062-.671-.163-.145-.226-.086-.523.133-.678l.683-.482-1.39.802c-.228.134-.523.064-.669-.159-.145-.222-.091-.519.122-.676l1.502-1.105-2.03 1.172c-.229.133-.521.063-.667-.156-.146-.221-.095-.517.116-.676l1.268-.955-1.536.887c-.22.131-.506.069-.656-.142-.149-.209-.117-.497.076-.667l2.239-1.967-2.452 1.415c-.226.132-.515.064-.663-.15-.147-.216-.104-.509.101-.672l.126-.102c-.197.078-.43.021-.569-.15-.155-.19-.148-.466.015-.648l1.166-1.304-.927.535c-.192.109-.434.083-.595-.07-.16-.152-.201-.393-.101-.59l.552-1.078c-.213.061-.458-.024-.576-.229-.139-.239-.057-.545.183-.683l1.349-.778c.191-.112.433-.083.595.07.16.152.201.393.101.59l-.54 1.057 2.166-1.251c.211-.125.482-.074.638.117.155.19.148.466-.015.648l-1.166 1.304 2.877-1.661c.225-.133.515-.065.663.15.147.216.104.509-.101.672l-.102.082 1.151-.664c.222-.13.507-.068.656.142.149.209.117.497-.076.667l-2.237 1.965 4.248-2.452c.226-.135.521-.064.667.156.146.221.095.517-.116.676l-1.266.953 2.741-1.582c.229-.134.523-.063.669.159.145.222.091.519-.123.676l-1.503 1.107 3.068-1.771c.233-.135.527-.062.671.163.145.226.086.523-.133.678l-.679.479 2.078-1.199c.228-.136.524-.062.67.161.145.224.088.521-.128.678l-1.583 1.139 2.32-1.34c.222-.129.507-.068.656.142.15.209.117.498-.077.667l-3.433 3.008 2.926-1.688c.216-.128.496-.071.649.132.152.201.13.485-.052.66l-1.614 1.559c.148.021.285.106.365.245.139.239.057.545-.183.683l-2.896 1.672c-.217.127-.497.071-.649-.132-.152-.201-.13-.485.052-.66l1.301-1.256-3.804 2.195c-.078.046-.164.067-.25.067z" fill="#ffffff" fill-opacity="1" data-original-color="#253b77ff" stroke="none" stroke-opacity="1"/><path d="m42.273 53.47c-.159 0-.314-.076-.411-.216-.148-.214-.107-.506.094-.671l3.917-3.211-6.974 4.025c-.229.134-.526.062-.67-.161-.145-.225-.088-.522.128-.678l3.716-2.668-5.308 3.064c-.229.134-.525.062-.671-.162-.144-.225-.087-.522.131-.678l2.999-2.141-3.798 2.192c-.223.131-.512.066-.66-.146s-.109-.504.09-.671l3.379-2.812-4.02 2.32c-.212.124-.483.072-.638-.117-.155-.19-.148-.465.015-.648l2.129-2.384-2.293 1.323c-.195.113-.439.082-.6-.075s-.196-.401-.089-.598l.593-1.08c-.219.068-.469-.015-.591-.225-.139-.239-.057-.545.183-.683l1.448-.837c.193-.111.439-.082.6.075.16.157.196.401.089.598l-.584 1.064 3.441-1.987c.211-.125.482-.073.638.117s.148.465-.015.648l-2.13 2.386 6.39-3.688c.224-.132.512-.066.66.146s.109.504-.09.671l-3.379 2.812 7.721-4.457c.229-.135.525-.063.671.162.144.225.087.522-.131.678l-2.994 2.137 5.048-2.914c.229-.136.525-.063.67.161s.088.522-.128.678l-3.716 2.668 3.533-2.04c.225-.132.513-.065.661.148s.107.506-.094.671l-3.916 3.211 2.805-1.619c.215-.127.495-.072.648.131.152.201.131.483-.05.66l-1.912 1.864c.167.006.327.095.416.25.139.239.057.545-.183.683l-2.971 1.715c-.216.127-.496.071-.648-.131-.152-.201-.131-.483.05-.66l1.691-1.649-4.642 2.68c-.078.046-.165.067-.25.067z" fill="#ffffff" fill-opacity="1" data-original-color="#253b77ff" stroke="none" stroke-opacity="1"/><g fill="#262626"><path d="m4.548 38.478c11.87 4.723 25.371 4.674 37.903 3.233 17.569-1.467 25.811-11.546 3.174-15.118-2.348-4.813-1.152-22.452-9.036-19.585-2.273 1.721-4.937 2.819-7.849 2.219-2.509.018-3.96-2.286-6.316-2.564-6.791-.148-5.718 14.953-7.985 19.978-6.058.43-21.627 6.213-9.89 11.837zm10.813-9.724.512-2.331c8.515 4.291 19.671 4.227 28.158-.098.908 3.345 1.763 5.977-2.555 6.892-4.999 1.761-27.174 3.584-26.115-4.463zm3.872-17.616c1.121-9.6 7.764 3.994 17.152-3.166 5.806-3.51 5.634 13.88 7.423 17.336-8.21 4.512-19.499 4.435-27.651-.175 1.025-4.665 2.051-9.33 3.076-13.995zm-5.024 16.52c-6.005 10.715 37.091 10.263 31.664.068 36.045 9.192-16.086 16.532-26.905 13.139-14.042-1.049-27.75-8.809-4.759-13.208z" fill="#262626" fill-opacity="1" data-original-color="#262626ff" stroke="none" stroke-opacity="1"/><path d="m23.556 45.385c-3.823.665-13.58-3.812-15.233-.296-1.407 10.361 18.533 11.924 19.402 2.255-.015-2.139-2.673-1.869-4.169-1.959zm-2.33 7.195c-5.352.716-11.553-.771-11.488-7.285-.426-1.929 11.948 1.565 14.322 1 4.941.077.494 6.976-2.834 6.285z" fill="#262626" fill-opacity="1" data-original-color="#262626ff" stroke="none" stroke-opacity="1"/><path d="m38.626 53.441c4.912.408 11.221.154 12.645-5.646 3.112-8.154-10.219-1.533-14.182-2.446-8.266-.961-4.349 8.426 1.537 8.092zm-3.056-7.129c4.768-.062 9.602-1.373 14.231-1.701.929.597.247 2.589-.011 3.435-1.172 4.891-6.258 4.722-10.32 4.513-3.076.873-8.789-5.952-3.901-6.247z" fill="#262626" fill-opacity="1" data-original-color="#262626ff" stroke="none" stroke-opacity="1"/></g></g></svg>