<svg xmlns="http://www.w3.org/2000/svg" id="Icons" viewBox="0 0 60 60" width="300" height="300" version="1.1" xmlns:xlink="http://www.w3.org/1999/xlink" xmlns:svgjs="http://svgjs.dev/svgjs"><g width="100%" height="100%" transform="matrix(1,0,0,1,0,0)"><defs><style>.cls-1{fill:#9b5d49;}.cls-2{fill:#6b4540;}.cls-3{fill:#262626;}</style></defs><path class="" d="M14.062,56.479a.5.5,0,0,1-.264-.924L29.65,45.641,11.171,56.31a.5.5,0,0,1-.51-.861l3.954-2.4L10.371,55.5a.5.5,0,0,1-.512-.858l12.472-7.661L9.811,54.21a.5.5,0,0,1-.516-.856l20.756-13L9.21,52.386a.5.5,0,0,1-.513-.859l16.508-10.2L8.76,50.818a.5.5,0,0,1-.509-.86l2.2-1.33L8.484,49.764a.5.5,0,0,1-.512-.858L25.245,38.222,8.1,48.122a.5.5,0,0,1-.512-.858L22.4,38.15,7.774,46.6a.5.5,0,0,1-.515-.857L29.606,31.728,7.426,44.533a.5.5,0,0,1-.514-.857l19.361-12.03L7.122,42.7a.5.5,0,0,1-.508-.86l.5-.3-.139.08a.5.5,0,0,1-.516-.856L28.944,26.654,6.728,39.481a.5.5,0,0,1-.513-.858L22.641,28.485,6.572,37.762a.5.5,0,0,1-.51-.861l7.31-4.442-6.9,3.981a.5.5,0,0,1-.511-.859l12.233-7.5L6.389,34.9a.5.5,0,0,1-.514-.857L24.552,22.429,6.317,32.956a.5.5,0,0,1-.51-.859l9.284-5.668L6.29,31.51a.5.5,0,0,1-.515-.857L24.262,19.112,6.288,29.489a.5.5,0,0,1-.517-.855L24.153,17.022,6.333,27.311a.5.5,0,0,1-.519-.855L22.62,15.733,6.436,25.077a.5.5,0,0,1-.511-.859l.526-.322a.5.5,0,0,1-.46-.883l13.383-8.656L6.7,21.675a.5.5,0,0,1-.518-.855l7.255-4.611L6.88,19.994a.5.5,0,0,1-.521-.852l6.924-4.463L7.108,18.243a.5.5,0,0,1-.523-.851L12.4,13.6l-5,2.885a.5.5,0,0,1-.527-.848l5-3.331L7.693,14.718a.5.5,0,0,1-.535-.844L12.05,10.48,8.091,12.766a.5.5,0,0,1-.536-.843l2.261-1.575-1.336.77a.5.5,0,0,1-.546-.835L9.815,8.894l-.876.5a.5.5,0,0,1-.567-.819L9.661,7.523l-.182.105A.5.5,0,0,1,8.823,6.9L10.088,5.15A.485.485,0,0,1,9.9,4.963a.5.5,0,0,1,.183-.684L11.263,3.6a.5.5,0,0,1,.655.726L11,5.6l3.462-2a.5.5,0,0,1,.567.819L13.738,5.474,16.992,3.6a.5.5,0,0,1,.547.835L15.661,5.818,19.511,3.6a.5.5,0,0,1,.536.842L17.78,6.018l4.2-2.423a.5.5,0,0,1,.535.843L17.628,7.827l7.333-4.233a.5.5,0,0,1,.527.848L20.476,7.779l7.251-4.185a.5.5,0,0,1,.523.851L22.439,8.237l8.046-4.644a.5.5,0,0,1,.521.852L24.1,8.9l9.193-5.307a.5.5,0,0,1,.519.854L26.53,9.071l9.492-5.479a.5.5,0,0,1,.522.852L23.169,13.1l16.461-9.5a.5.5,0,0,1,.511.859l-.384.235,1.9-1.095a.5.5,0,0,1,.519.854L25.368,15.166,45.42,3.59a.5.5,0,0,1,.517.855L27.552,16.059,48.882,3.744A.5.5,0,0,1,49.4,4.6L30.915,16.139,49.952,5.147a.5.5,0,0,1,.511.86l-9.292,5.672,9.217-5.321a.5.5,0,0,1,.513.858L32.225,18.834,50.919,8.041a.5.5,0,0,1,.511.859L39.188,16.4,51.3,9.407a.5.5,0,0,1,.51.861l-7.3,4.437,7.1-4.1a.5.5,0,0,1,.513.859L35.706,21.6,51.976,12.2a.5.5,0,0,1,.515.857L30,27.175,52.374,14.256a.5.5,0,0,1,.508.86l-.5.3.174-.1a.5.5,0,0,1,.513.858L33.711,28.2,52.854,17.151a.5.5,0,0,1,.515.857L31.02,32.021,53.135,19.254a.5.5,0,0,1,.511.858l-14.81,9.109,14.47-8.355a.5.5,0,0,1,.512.858L36.529,32.418,53.46,22.644a.5.5,0,0,1,.509.86l-2.185,1.32,1.756-1.013a.5.5,0,0,1,.513.858l-16.5,10.2,16.083-9.285a.5.5,0,0,1,.515.856l-20.759,13L53.7,27.716a.5.5,0,0,1,.512.858L41.732,36.239,53.718,29.32a.5.5,0,0,1,.51.861L50.3,32.563,53.711,30.6a.5.5,0,0,1,.515.856L38.373,41.365l15.3-8.832a.5.5,0,0,1,.518.855l-16.9,10.776,16.29-9.4a.5.5,0,0,1,.516.856l-9.783,6.131,9.155-5.285a.5.5,0,0,1,.524.851l-14.344,9.4,13.607-7.856a.5.5,0,0,1,.528.848L41.4,47.993l11.557-6.672a.5.5,0,0,1,.522.853l-5.545,3.591,4.751-2.743a.5.5,0,0,1,.529.848l-6.434,4.322,5.581-3.221a.5.5,0,0,1,.537.842l-5.479,3.814L51.96,47a.5.5,0,0,1,.535.843L49.97,49.6l1.6-.924a.5.5,0,0,1,.541.839l-1.243.889.3-.17a.5.5,0,0,1,.6.786l-2.613,2.613,1.168-.675a.5.5,0,0,1,.64.746l-.975,1.211a.513.513,0,0,1,.109.13.5.5,0,0,1-.184.683L48.75,56.4a.5.5,0,0,1-.64-.747l.4-.49L46.362,56.4a.5.5,0,0,1-.6-.786L48.373,53l-5.891,3.4a.5.5,0,0,1-.541-.839l1.245-.89-3,1.729a.5.5,0,0,1-.535-.842l2.522-1.755-4.5,2.6a.5.5,0,0,1-.536-.842l5.478-3.814L34.55,56.406a.5.5,0,0,1-.529-.847l6.435-4.324L31.5,56.406a.5.5,0,0,1-.521-.852l5.539-3.588-7.693,4.441a.5.5,0,0,1-.528-.847l12.383-8.289L24.852,56.408a.5.5,0,0,1-.525-.85l14.341-9.4L20.911,56.409a.5.5,0,0,1-.515-.856l9.785-6.133L18.073,56.41a.5.5,0,0,1-.518-.854l16.9-10.775L14.312,56.411A.5.5,0,0,1,14.062,56.479Z" fill="#ffffff" fill-opacity="1" data-original-color="#9b5d49ff" stroke="none" stroke-opacity="1"/><path class="" d="M13.585,5.471a.5.5,0,0,1-.39-.814l1.494-1.852L10.2,5.4a.5.5,0,0,1-.566-.819L9.7,4.526l-.366.211a.5.5,0,0,1-.614-.09.5.5,0,0,1-.053-.619L9.883,2.186a.513.513,0,0,1-.26-.219.5.5,0,0,1,.184-.684L11,.6a.5.5,0,0,1,.667.71l-1,1.5L14.5.6a.5.5,0,0,1,.566.819l-.056.047L16.513.6a.5.5,0,0,1,.639.746L15.658,3.2,20.16.6a.5.5,0,0,1,.613.776L19.4,2.82,23.255.6a.5.5,0,0,1,.619.77L22.457,2.914,26.472.6a.5.5,0,0,1,.614.775L25.707,2.838,29.589.6a.5.5,0,0,1,.648.734L28.747,3.3,33.434.6a.5.5,0,0,1,.623.765L32.612,2.982,36.744.6a.5.5,0,0,1,.577.811l-.565.487L39.007.6a.5.5,0,0,1,.575.812l-.488.418L41.226.6a.5.5,0,0,1,.632.755L40.376,3.112,44.733.6a.5.5,0,0,1,.655.727L43.906,3.356,48.687.6a.5.5,0,0,1,.649.733L47.847,3.312,50.066,2.03a.5.5,0,0,1,.739.542l-.314,1.4.18-.1a.5.5,0,1,1,.5.866L50,5.4a.5.5,0,0,1-.738-.542l.313-1.394L46.225,5.4a.5.5,0,0,1-.65-.733l1.489-1.981L42.362,5.4a.5.5,0,0,1-.654-.727l1.481-2.031L38.409,5.4a.5.5,0,0,1-.633-.755l1.483-1.76L34.9,5.4a.5.5,0,0,1-.575-.812l.488-.418L32.682,5.4a.5.5,0,0,1-.578-.811L32.67,4.1,30.419,5.4a.5.5,0,0,1-.623-.765L31.24,3.019,27.109,5.4a.5.5,0,0,1-.648-.734L27.951,2.7,23.265,5.4a.5.5,0,0,1-.615-.775l1.38-1.466L20.146,5.4a.5.5,0,0,1-.619-.77l1.417-1.546L16.93,5.4a.5.5,0,0,1-.614-.776l1.369-1.445L13.835,5.4A.49.49,0,0,1,13.585,5.471Z" fill="#ffffff" fill-opacity="1" data-original-color="#6b4540ff" stroke="none" stroke-opacity="1"/><path class="" d="M13.577,18.47a.5.5,0,0,1-.319-.885l.2-.169-1.71.986a.5.5,0,0,1-.605-.785l1.272-1.28L8.84,18.4a.5.5,0,0,1-.6-.792L9.4,16.487,6.573,18.12a.5.5,0,0,1-.591-.8l.707-.658-.288.166a.5.5,0,0,1-.664-.712l.645-.957a.5.5,0,0,1-.049-.89L7.5,13.6a.5.5,0,0,1,.664.712l-.385.571L10,13.6a.5.5,0,0,1,.591.8l-.707.659L12.408,13.6a.5.5,0,0,1,.65.131.5.5,0,0,1-.052.661l-1.16,1.124L15.165,13.6a.5.5,0,0,1,.605.785L14.5,15.663,18.077,13.6a.5.5,0,0,1,.569.817l-.2.168,1.707-.985a.5.5,0,0,1,.578.811l-.563.485,2.246-1.3a.5.5,0,0,1,.612.777l-1.363,1.434L25.493,13.6a.5.5,0,0,1,.651.732l-1.49,1.985L29.363,13.6a.5.5,0,0,1,.62.768L28.556,15.94,32.615,13.6a.5.5,0,0,1,.628.1.5.5,0,0,1,.015.638l-1.5,1.889L36.325,13.6a.5.5,0,0,1,.574.813l-.437.372L38.516,13.6a.5.5,0,0,1,.6.79l-1.2,1.17,3.4-1.96a.5.5,0,0,1,.627.761l-1.462,1.672L44.7,13.6a.5.5,0,0,1,.6.786l-1.252,1.251L47.58,13.6a.5.5,0,0,1,.622.766l-1.438,1.6L50.87,13.6a.5.5,0,0,1,.579.809l-.649.567L52.838,13.8a.5.5,0,0,1,.645.738l-1.338,1.736,1.337-.772a.5.5,0,0,1,.7.648l-.315.657a.514.514,0,0,1,.481.248.5.5,0,0,1-.184.683l-1.158.668a.5.5,0,0,1-.7-.649l.279-.583L50.452,18.4a.5.5,0,0,1-.645-.738l1.339-1.736L46.858,18.4a.5.5,0,0,1-.579-.809l.649-.566L44.545,18.4a.5.5,0,0,1-.622-.766l1.438-1.6-4.1,2.369a.5.5,0,0,1-.6-.786l1.253-1.252L38.374,18.4a.5.5,0,0,1-.627-.761l1.462-1.672L34.992,18.4a.5.5,0,0,1-.6-.79l1.2-1.17-3.4,1.96a.5.5,0,0,1-.574-.813l.439-.373L30,18.4a.5.5,0,0,1-.643-.743l1.5-1.889L26.291,18.4a.5.5,0,0,1-.62-.768L27.1,16.059,23.038,18.4a.5.5,0,0,1-.65-.732l1.489-1.985L19.168,18.4a.5.5,0,0,1-.612-.777l1.362-1.434L16.088,18.4a.5.5,0,0,1-.577-.811l.562-.485-2.246,1.3A.493.493,0,0,1,13.577,18.47Z" fill="#ffffff" fill-opacity="1" data-original-color="#6b4540ff" stroke="none" stroke-opacity="1"/><path class="" d="M44.551,59.47a.5.5,0,0,1-.327-.878l.592-.514-2.3,1.324a.5.5,0,0,1-.628-.758l1.472-1.715L39.08,59.4a.5.5,0,0,1-.592-.8l1.035-.968L36.462,59.4a.5.5,0,0,1-.653-.727l1.481-2.028L32.518,59.4a.5.5,0,0,1-.612-.778l1.349-1.406L29.469,59.4a.5.5,0,0,1-.633-.111.5.5,0,0,1,0-.643l1.484-1.772L25.942,59.4a.5.5,0,0,1-.581-.807l.722-.637L23.58,59.4a.5.5,0,0,1-.577-.81l.571-.494-2.261,1.3a.5.5,0,0,1-.569-.817l.212-.176-1.722.993a.5.5,0,0,1-.657-.142.5.5,0,0,1,.08-.669l.561-.484-2.243,1.3a.5.5,0,0,1-.631-.756l1.476-1.732L13.509,59.4a.5.5,0,0,1-.6-.794l1.124-1.077-3.127,1.8a.5.5,0,0,1-.632-.756L11.7,56.9,9.914,57.93a.5.5,0,0,1-.736-.548l.316-1.339-.165.095a.5.5,0,0,1-.5-.866L10,54.6a.5.5,0,0,1,.736.548l-.316,1.338L13.687,54.6a.5.5,0,0,1,.632.756L12.9,57.035,17.119,54.6a.5.5,0,0,1,.6.794L16.59,56.47,19.834,54.6a.5.5,0,0,1,.631.756l-1.477,1.732L23.3,54.6a.5.5,0,0,1,.577.811l-.562.485,2.246-1.3a.5.5,0,0,1,.569.817l-.211.175,1.72-.992a.5.5,0,0,1,.577.81l-.573.495,2.263-1.3a.5.5,0,0,1,.581.807l-.72.636,2.5-1.443a.5.5,0,0,1,.633.754l-1.484,1.772L35.794,54.6a.5.5,0,0,1,.611.778l-1.348,1.406L38.843,54.6a.5.5,0,0,1,.653.727l-1.481,2.028L42.787,54.6a.5.5,0,0,1,.592.8l-1.033.966L45.405,54.6a.5.5,0,0,1,.629.758L44.562,57.07,48.847,54.6a.5.5,0,0,1,.577.81l-.593.515L50.5,54.96a.5.5,0,0,1,.666.711L49.95,57.483a.5.5,0,0,1,.4.909L48.6,59.4a.5.5,0,0,1-.666-.711l1.2-1.793L44.8,59.4A.493.493,0,0,1,44.551,59.47Z" fill="#ffffff" fill-opacity="1" data-original-color="#6b4540ff" stroke="none" stroke-opacity="1"/><path class="" d="M29.893,46.47a.5.5,0,0,1-.32-.885l.215-.178-1.726,1a.5.5,0,0,1-.579-.808l.657-.574-2.4,1.382a.5.5,0,0,1-.622-.766l1.44-1.605L22.451,46.4a.5.5,0,0,1-.621-.767l1.432-1.584L19.187,46.4a.5.5,0,0,1-.653-.728l1.484-2.02L15.257,46.4a.5.5,0,0,1-.607-.783l1.291-1.31L12.313,46.4a.5.5,0,0,1-.589-.8l.987-.915L9.74,46.4a.5.5,0,0,1-.594-.8l1.1-1.047-2.97,1.713a.5.5,0,0,1-.641-.744l1.391-1.75-1.476.853A.5.5,0,0,1,5.841,44l.354-.813a.5.5,0,0,1-.361-.92L6.993,41.6a.5.5,0,0,1,.709.631l-.339.779L9.807,41.6a.5.5,0,0,1,.641.744l-1.391,1.75,4.32-2.494a.5.5,0,0,1,.595.8l-1.1,1.048,3.2-1.843a.5.5,0,0,1,.59.8l-.987.915,2.97-1.714a.5.5,0,0,1,.606.783l-1.291,1.31L21.581,41.6a.5.5,0,0,1,.653.728l-1.483,2.02L25.512,41.6a.5.5,0,0,1,.621.767L24.7,43.949,28.776,41.6a.5.5,0,0,1,.622.766L27.96,43.969,32.067,41.6a.5.5,0,0,1,.579.808l-.658.576,2.4-1.384a.5.5,0,0,1,.569.817l-.213.177,1.723-.994a.5.5,0,0,1,.619.769l-1.422,1.561L39.7,41.6a.5.5,0,0,1,.645.739l-1.494,1.922,4.61-2.661a.5.5,0,0,1,.646.736l-1.492,1.948L47.269,41.6a.5.5,0,0,1,.653.728l-1.484,2.021L51.2,41.6a.5.5,0,0,1,.589.8l-.965.891,2.543-1.468a.5.5,0,0,1,.624.765L52.739,44l.763-.439a.5.5,0,1,1,.5.865L50.574,46.4a.5.5,0,0,1-.624-.764L51.2,44.225,47.43,46.4a.5.5,0,0,1-.589-.8l.965-.891L44.877,46.4a.5.5,0,0,1-.653-.728l1.483-2.021L40.944,46.4a.5.5,0,0,1-.646-.736l1.492-1.948L37.139,46.4a.5.5,0,0,1-.645-.739l1.494-1.922L33.377,46.4a.5.5,0,0,1-.619-.769l1.422-1.561L30.143,46.4A.5.5,0,0,1,29.893,46.47Z" fill="#ffffff" fill-opacity="1" data-original-color="#6b4540ff" stroke="none" stroke-opacity="1"/><path class="" d="M53.955,18.044c1.36-.757.658-3.934-.722-4.39a50.3,50.3,0,0,0-2.42-8.623c1.7-.655.522-2.588-.159-3.6-2.607-1.777-6.679-.294-9.79-.757C31.012.707,21.149.621,11.3.673,9.488.511,6.951,4.51,9.207,5.227A50.23,50.23,0,0,0,6.78,13.836c-1.247.576-2.312,3.759-.719,4.422A89.77,89.77,0,0,0,6.051,42c-1.461.712-.558,3.816.692,4.228a51.384,51.384,0,0,0,2.369,8.547c-1.993,1.169.258,4.964,2.207,4.749q13.146,0,26.29,0c4.445-.916,12.2,2.581,13.978-3a1.4,1.4,0,0,0-.775-1.887,50.136,50.136,0,0,0,2.4-8.534c1.224-.611,2.155-3.627.718-4.317A89.448,89.448,0,0,0,53.955,18.044ZM35.334,41.657a178.141,178.141,0,0,0,.023-23.232q4.575.01,9.149,0a89.011,89.011,0,0,1,.02,23.227Zm-9.218,0a177.388,177.388,0,0,1-.024-23.24q3.9,0,7.8.006A176.6,176.6,0,0,1,33.9,41.657Zm-10.612,0a89.46,89.46,0,0,1-.054-23.24h9.213a177.388,177.388,0,0,0-.016,23.24ZM6.823,16.4a11.944,11.944,0,0,1,.4-1.941c12.524-.119,25.035.015,37.53-.04,2.476.067,5.02-.127,7.466.061.752.135,1.2,2.67.882,3.1q-22.4-.006-44.841,0C7.4,17.583,6.6,17.684,6.823,16.4ZM18.543,5.327q3.834,0,7.667,0a75.506,75.506,0,0,0-1.168,8.256h-8.8A50.753,50.753,0,0,1,18.543,5.327Zm11.528,0c.743,0,1.488,0,2.232.008a73.567,73.567,0,0,1,1.18,8.248H26.5a76.792,76.792,0,0,1,1.16-8.256Zm11.276.048a48.849,48.849,0,0,1,2.341,8.208H34.972a79.468,79.468,0,0,0-1.144-8.242Q37.587,5.361,41.347,5.375ZM46,18.428c2.168,0,4.336,0,6.5-.011a89.46,89.46,0,0,1,.038,23.24H45.96A89.9,89.9,0,0,0,46,18.428Zm5.686-4.847c-2.156.006-4.313,0-6.469,0a51.552,51.552,0,0,0-2.269-8.206c2.127,0,4.254-.009,6.379-.05A48.7,48.7,0,0,1,51.687,13.581ZM9.878,3.325c.194-.545.865-1.491.82-2,11.676-.022,23.467.016,35.183,0,2.639-.433,3.988.333,4.388,3.218-7.493.32-15.011.024-22.579.128C25.757,3.9,8.3,6.293,9.878,3.325Zm0,3.951c.216-.67.435-1.31.7-1.949q3.312,0,6.625,0a49.111,49.111,0,0,0-2.346,8.256c-2.187.018-4.4-.1-6.589-.015A57.791,57.791,0,0,1,9.876,7.276Zm-2.4,11.141h6.568a89.5,89.5,0,0,0-.038,23.24c-2.168.012-4.337-.018-6.505,0a89.182,89.182,0,0,1-.05-23.238ZM6.844,42.343c12.542-.037,25.2.011,37.784.044,2.577.055,5.308-.04,7.925-.044,1.345.3.265,2.5.15,3.287-2.433.22-5.014-.079-7.493.027-6.041-.083-12.6.058-18.815,0-3.14-.171-6.932.117-10.294,0-2.631-.228-5.7.271-8.4-.077C7.066,45.072,6.414,42.6,6.844,42.343ZM33.8,54.472a76.712,76.712,0,0,0,1.143-8.129h8.8a43.034,43.034,0,0,1-2.272,8.129Zm-15.206,0a49.562,49.562,0,0,1-2.3-8.129h8.724a81.338,81.338,0,0,0,1.115,8.129Zm9.067,0a75.387,75.387,0,0,1-1.15-8.129h7.017a80.413,80.413,0,0,1-1.122,8.129ZM8.3,46.343h6.47a52.664,52.664,0,0,0,2.224,8.129c-2.135,0-4.266.01-6.4-.01A49.635,49.635,0,0,1,8.3,46.343ZM48.852,58.472c-12.166.023-24.417-.016-36.613,0-1.412.6-3.005-2.21-2.14-2.944,13.164-.025,26.449.018,39.66,0C50.822,55.709,49.445,58.325,48.852,58.472Zm1.269-5.658c-.179.556-.373,1.111-.585,1.658h-6.6a52.554,52.554,0,0,0,2.253-8.129c2.194-.01,4.388.016,6.582,0A58.072,58.072,0,0,1,50.121,52.814Z" fill="#262626" fill-opacity="1" data-original-color="#262626ff" stroke="none" stroke-opacity="1"/></g></svg>