<svg id="Icons" height="300" viewBox="0 0 60 60" width="300" xmlns="http://www.w3.org/2000/svg" version="1.1" xmlns:xlink="http://www.w3.org/1999/xlink" xmlns:svgjs="http://svgjs.dev/svgjs"><g width="100%" height="100%" transform="matrix(1,0,0,1,0,0)"><path d="m18.406 40.488a.5.5 0 0 1 -.334-.872l2.279-2.048-1.893 1.092a.5.5 0 0 1 -.621-.767l.916-1.017-.122.07a.5.5 0 0 1 -.707-.634l.281-.637a.492.492 0 0 1 -.132-.15.5.5 0 0 1 .182-.682l.568-.328a.5.5 0 0 1 .708.634l-.074.166 1.534-.884a.5.5 0 0 1 .621.767l-.912 1.016 3.292-1.9a.5.5 0 0 1 .584.8l-2.276 2.051 5.176-2.988a.5.5 0 0 1 .557.827l-1.066.83 3.033-1.756a.5.5 0 0 1 .559.825l-1.22.961 3.272-1.888a.5.5 0 0 1 .589.8l-2.363 2.18 5.406-3.121a.5.5 0 0 1 .608.781l-2.548 2.626 6.197-3.574a.5.5 0 0 1 .562.823l-1.372 1.094 2.335-1.348a.5.5 0 0 1 .63.757l-1.972 2.319 2.092-1.207a.5.5 0 0 1 .719.607l-.447 1.207.372-.214a.5.5 0 1 1 .5.865l-1.572.908a.5.5 0 0 1 -.719-.607l.447-1.207-3.394 1.959a.5.5 0 0 1 -.631-.757l1.972-2.319-5.628 3.252a.5.5 0 0 1 -.562-.823l1.368-1.099-3.5 2.022a.5.5 0 0 1 -.608-.781l2.549-2.626-6.2 3.576a.5.5 0 0 1 -.588-.8l2.363-2.179-5.411 3.124a.5.5 0 0 1 -.559-.825l1.223-.963-3.278 1.891a.5.5 0 0 1 -.557-.827l1.062-.827-3.041 1.756a.494.494 0 0 1 -.249.069z" fill="#ffffff" fill-opacity="1" data-original-color="#b7394eff" stroke="none" stroke-opacity="1"/><path d="m18.769 28.357a.5.5 0 0 1 -.361-.846l1.466-1.522-2.8 1.615a.5.5 0 0 1 -.593-.8l.378-.355-.41.236a.5.5 0 0 1 -.723-.595l.46-1.331a.5.5 0 0 1 -.044-.888l.6-.346a.5.5 0 0 1 .723.6l-.356 1.029 3-1.729a.5.5 0 0 1 .592.8l-.376.353 2.119-1.223a.5.5 0 0 1 .61.779l-1.466 1.522 4.164-2.4a.5.5 0 0 1 .645.739l-1.578 2.03 5.016-2.9a.5.5 0 0 1 .632.756l-1.577 1.865 4.744-2.746a.5.5 0 0 1 .589.8l-1.132 1.046 3.348-1.933a.5.5 0 0 1 .6.792l-1.3 1.261 3.72-2.147a.5.5 0 0 1 .6.786l-1.385 1.385 3.926-2.266a.5.5 0 0 1 .623.765l-1.551 1.739 4.528-2.616a.5.5 0 0 1 .608.783l-1.433 1.464 2.83-1.633a.5.5 0 0 1 .663.714l-1.043 1.525.845-.487a.5.5 0 0 1 .5.865l-2.745 1.587a.5.5 0 0 1 -.663-.715l1.043-1.525-4.08 2.356a.5.5 0 0 1 -.608-.782l1.434-1.464-4.072 2.349a.5.5 0 0 1 -.623-.765l1.55-1.737-4.531 2.616a.5.5 0 0 1 -.6-.786l1.385-1.383-3.928 2.267a.5.5 0 0 1 -.6-.792l1.3-1.26-3.72 2.147a.5.5 0 0 1 -.589-.8l1.131-1.046-3.349 1.934a.5.5 0 0 1 -.632-.756l1.578-1.865-4.751 2.739a.5.5 0 0 1 -.645-.739l1.578-2.029-5.018 2.9a.488.488 0 0 1 -.246.063z" fill="#ffffff" fill-opacity="1" data-original-color="#e5ae75ff" stroke="none" stroke-opacity="1"/><path d="m20.042 44.4a.5.5 0 0 1 -.318-.886l1.623-1.332-2.251 1.3a.5.5 0 0 1 -.592-.8l1.355-1.275-1.53.883a.5.5 0 0 1 -.693-.664l.985-1.888a.518.518 0 0 1 -.121-.138.5.5 0 0 1 .183-.683l.657-.38a.5.5 0 0 1 .694.664l-.715 1.369 3.776-2.178a.5.5 0 0 1 .651.134.5.5 0 0 1 -.059.663l-1.357 1.271 3.791-2.189a.5.5 0 0 1 .567.82l-1.623 1.332 3.922-2.264a.5.5 0 0 1 .549.834l-.1.07 1.712-.988a.5.5 0 0 1 .549.833l-.178.133 1.822-1.051a.5.5 0 0 1 .573.815l-1.871 1.582 4.358-2.516a.5.5 0 0 1 .6.788l-2.454 2.428 5.853-3.372a.5.5 0 0 1 .663.151.5.5 0 0 1 -.1.673l-1.277 1.016 2.579-1.49a.5.5 0 0 1 .575.813l-1.441 1.234 1.546-.892a.5.5 0 0 1 .62.77l-.994 1.085 1.1-.632a.5.5 0 0 1 .625.1.5.5 0 0 1 .023.633l-.862 1.124a.314.314 0 0 1 .024.039.5.5 0 0 1 -.182.683l-.786.454a.5.5 0 0 1 -.648-.736l.141-.185-1.746 1.006a.5.5 0 0 1 -.619-.771l.993-1.086-3.42 1.975a.5.5 0 0 1 -.575-.813l1.44-1.234-3.737 2.158a.5.5 0 0 1 -.562-.824l1.277-1.015-3.363 1.942a.5.5 0 0 1 -.6-.789l2.455-2.428-5.84 3.371a.5.5 0 0 1 -.573-.815l1.871-1.583-4.358 2.516a.5.5 0 0 1 -.549-.833l.176-.132-1.819 1.05a.5.5 0 0 1 -.548-.834l.091-.068-1.709.986a.493.493 0 0 1 -.249.066z" fill="#ffffff" fill-opacity="1" data-original-color="#e5ae75ff" stroke="none" stroke-opacity="1"/><path d="m16.862 54.154a.5.5 0 0 1 -.395-.806l1.4-1.807-1.572.907a.5.5 0 0 1 -.6-.788l.962-.952-.5.285a.5.5 0 0 1 -.608-.781l1.251-1.283-.708.408a.5.5 0 0 1 -.593-.8l.6-.566-.08.046a.5.5 0 0 1 -.614-.776l1.339-1.418-.835.482a.5.5 0 0 1 -.622-.768l1.513-1.677-1.032.595a.5.5 0 0 1 -.624-.764l1.555-1.76-1.1.633a.5.5 0 0 1 -.599-.778l1.055-1.086-.607.351a.5.5 0 0 1 -.608-.782l1.008-1.032-.57.329a.5.5 0 0 1 -.611-.778l1.083-1.129-.661.381a.5.5 0 0 1 -.622-.767l1.346-1.5-.957.552a.494.494 0 0 1 -.651-.136.5.5 0 0 1 .061-.663l.316-.294a.493.493 0 0 1 -.53-.154.5.5 0 0 1 0-.642l1.592-1.93-1.268.731a.5.5 0 0 1 -.636-.751l1.548-1.874-1.246.719a.5.5 0 0 1 -.6-.794l.409-.392-.03.018a.5.5 0 0 1 -.641-.744l1.578-1.98-1.33.768a.5.5 0 0 1 -.61-.779l.851-.883-.532.307a.5.5 0 0 1 -.624-.764l1.2-1.356-.935.539a.5.5 0 0 1 -.627-.76l1.229-1.411-.989.57a.5.5 0 0 1 -.631-.108.5.5 0 0 1 -.008-.64l1.407-1.732-1.222.705a.5.5 0 0 1 -.614-.775l.856-.908-.605.349a.5.5 0 0 1 -.618-.771l.955-1.042-.732.422a.5.5 0 0 1 -.622-.766l1.024-1.144-.829.477a.5.5 0 0 1 -.644-.74l1.392-1.788-1.3.753a.5.5 0 0 1 -.629-.758l1.108-1.293-.974.563a.5.5 0 0 1 -.636-.751l1.189-1.442-1.1.634a.491.491 0 0 1 -.621-.1.5.5 0 0 1 -.033-.628l1.412-1.94-1.438.83a.5.5 0 0 1 -.636-.751l1.11-1.343-1.059.617a.5.5 0 0 1 -.6-.786l.35-.351-.173.1a.5.5 0 0 1 -.628-.76l.931-1.076-.877.506a.5.5 0 0 1 -.656-.733l1.246-1.689-1.35.779a.5.5 0 0 1 -.654-.728l1.156-1.583-1.267.732a.5.5 0 0 1 -.621-.1.5.5 0 0 1 -.034-.628l.58-.8a.5.5 0 0 1 -.23-.932l1.65-.951a.5.5 0 0 1 .655.725l-.471.647 1.286-.743a.5.5 0 0 1 .654.728l-1.154 1.584 1.376-.795a.5.5 0 0 1 .653.73l-1.246 1.687 1.367-.789a.5.5 0 0 1 .628.76l-.93 1.075.889-.513a.5.5 0 0 1 .6.786l-.352.354.186-.107a.5.5 0 0 1 .635.75l-1.11 1.342 1.074-.621a.5.5 0 0 1 .654.727l-1.41 1.944 1.455-.84a.5.5 0 0 1 .636.751l-1.191 1.442 1.111-.642a.5.5 0 0 1 .629.758l-1.108 1.293.987-.57a.5.5 0 0 1 .645.741l-1.394 1.788 1.319-.761a.5.5 0 0 1 .622.766l-1.025 1.145.841-.484a.5.5 0 0 1 .618.77l-.954 1.041.741-.427a.5.5 0 0 1 .614.775l-.857.91.611-.355a.5.5 0 0 1 .639.748l-1.408 1.732 1.238-.714a.5.5 0 0 1 .627.761l-1.224 1.411 1-.577a.5.5 0 0 1 .625.764l-1.2 1.355.947-.546a.5.5 0 0 1 .61.78l-.854.883.543-.313a.5.5 0 0 1 .641.744l-1.577 1.979 1.345-.777a.5.5 0 0 1 .595.794l-.41.393.044-.026a.5.5 0 0 1 .636.751l-1.548 1.875 1.262-.728a.5.5 0 0 1 .636.751l-1.591 1.929 1.285-.741a.5.5 0 0 1 .59.8l-.311.289a.5.5 0 0 1 .524.811l-1.344 1.5.973-.562a.5.5 0 0 1 .611.779l-1.084 1.13.678-.39a.5.5 0 0 1 .607.782l-1.005 1.026.584-.337a.5.5 0 0 1 .609.782l-1.064 1.09.626-.36a.5.5 0 0 1 .624.764l-1.554 1.76 1.121-.647a.5.5 0 0 1 .621.768l-1.513 1.675 1.053-.607a.5.5 0 0 1 .613.775l-1.337 1.417.851-.491a.5.5 0 0 1 .593.8l-.6.566.1-.055a.5.5 0 0 1 .609.781l-1.248 1.284.732-.423a.5.5 0 0 1 .6.788l-.964.954.427-.246a.5.5 0 0 1 .645.74l-1.4 1.806.836-.482a.5.5 0 1 1 .5.865l-3.045 1.758a.491.491 0 0 1 -.257.064z" fill="#ffffff" fill-opacity="1" data-original-color="#cd895eff" stroke="none" stroke-opacity="1"/><path d="m46.115 55.054a.5.5 0 0 1 -.4-.8l.844-1.107-1.337.771a.5.5 0 0 1 -.646-.738l1.455-1.88-1.337.771a.5.5 0 0 1 -.593-.8l.235-.222a.5.5 0 0 1 -.524-.816l.994-1.068-.7.405a.5.5 0 0 1 -.631-.756l1.4-1.654-1.123.648a.5.5 0 0 1 -.613-.776l1.047-1.11-.691.4a.5.5 0 0 1 -.622-.766l1.335-1.492-.972.561a.5.5 0 0 1 -.629-.76l1.539-1.782-1.156.667a.5.5 0 0 1 -.619-.77l1.383-1.516-.956.552a.5.5 0 0 1 -.622-.767l1.513-1.687-1.061.612a.5.5 0 0 1 -.587-.8l.354-.322a.5.5 0 0 1 -.493-.812l1.817-2.13-1.323.763a.5.5 0 0 1 -.626-.762l1.787-2.042-1.257.731a.5.5 0 0 1 -.612-.777l1.46-1.535-.906.523a.5.5 0 0 1 -.593-.8l.826-.782-.261.15a.5.5 0 0 1 -.6-.79l.417-.408a.519.519 0 0 1 -.391-.105.5.5 0 0 1 -.163-.541l.256-.808a.49.49 0 0 1 -.207-.2.5.5 0 0 1 .183-.682l.541-.313a.5.5 0 0 1 .727.584l-.156.49 2.042-1.179a.5.5 0 0 1 .6.79l-.322.315.511-.3a.5.5 0 0 1 .594.8l-.824.781.228-.132a.5.5 0 0 1 .613.777l-1.463 1.542.873-.5a.5.5 0 0 1 .626.762l-1.788 2.038 1.222-.7a.5.5 0 0 1 .631.757l-1.814 2.12 1.286-.742a.5.5 0 0 1 .587.8l-.367.334a.508.508 0 0 1 .492.174.5.5 0 0 1 -.017.65l-1.513 1.687 1.03-.595a.5.5 0 0 1 .619.77l-1.384 1.516.924-.532a.5.5 0 0 1 .629.76l-1.536 1.784 1.121-.646a.5.5 0 0 1 .622.766l-1.333 1.49.938-.541a.5.5 0 0 1 .613.775l-1.051 1.111.664-.383a.5.5 0 0 1 .631.756l-1.4 1.654 1.086-.627a.5.5 0 0 1 .617.773l-.995 1.07.675-.389a.5.5 0 0 1 .594.8l-.242.229a.5.5 0 0 1 .539.784l-1.456 1.875 1.3-.749a.5.5 0 0 1 .647.736l-.843 1.106.662-.382a.5.5 0 0 1 .5.865l-2.823 1.63a.49.49 0 0 1 -.251.068z" fill="#ffffff" fill-opacity="1" data-original-color="#cd895eff" stroke="none" stroke-opacity="1"/><path d="m33.3 59.461a.5.5 0 0 1 -.324-.882l.515-.434-2.061 1.191a.5.5 0 0 1 -.608-.782l1.253-1.283-3.275 1.889a.5.5 0 0 1 -.649-.733l1.355-1.8-3.772 2.178a.5.5 0 0 1 -.646-.738l1.26-1.636-3.323 1.918a.5.5 0 0 1 -.644-.124.5.5 0 0 1 .032-.655l.878-.917-2.216 1.28a.5.5 0 0 1 -.667-.71l1.17-1.758-3.1 1.789a.5.5 0 0 1 -.591-.8l.213-.2-1 .575a.5.5 0 0 1 -.59-.8l.129-.119-.832.479a.5.5 0 0 1 -.589-.8l.048-.045-.681.392a.5.5 0 0 1 -.67-.7l1.085-1.662-2.553 1.474a.5.5 0 0 1 -.655-.726l1.008-1.391-2.156 1.244a.5.5 0 0 1 -.682-.684l1.038-1.809-2.37 1.371a.5.5 0 0 1 -.678-.692l1.037-1.717-2.1 1.21a.5.5 0 0 1 -.6-.786l.143-.144-.078.045a.5.5 0 0 1 -.624-.1.5.5 0 0 1 -.027-.631l.558-.748a.5.5 0 0 1 -.2-.929l1.662-.961a.494.494 0 0 1 .623.1.5.5 0 0 1 .028.631l-.416.556 1.232-.711a.5.5 0 0 1 .605.785l-.144.144.52-.3a.5.5 0 0 1 .679.691l-1.038 1.72 2.313-1.335a.5.5 0 0 1 .683.683l-1.049 1.81 2.561-1.474a.5.5 0 0 1 .655.726l-1 1.391 2.319-1.339a.5.5 0 0 1 .67.7l-1.075 1.666 2.755-1.59a.5.5 0 0 1 .59.8l-.05.046.8-.463a.5.5 0 0 1 .591.8l-.127.118.963-.556a.5.5 0 0 1 .589.801l-.214.2 1.145-.66a.5.5 0 0 1 .666.71l-1.17 1.75 3.4-1.963a.5.5 0 0 1 .611.778l-.878.918 2.477-1.429a.5.5 0 0 1 .646.737l-1.258 1.639 3.718-2.147a.5.5 0 0 1 .649.734l-1.356 1.8 4.289-2.475a.5.5 0 0 1 .607.782l-1.254 1.282 3.749-2.163a.5.5 0 0 1 .573.815l-.513.433 2.483-1.432a.5.5 0 0 1 .627.761l-1.67 1.913 5.694-3.289a.5.5 0 0 1 .6.789l-1.857 1.833 7.128-4.116a.5.5 0 0 1 .543.838l-.174.126 2.351-1.364a.5.5 0 0 1 .543.838l-.165.119.419-.241a.5.5 0 0 1 .649.13.5.5 0 0 1 -.05.661l-1.253 1.22.911-.526a.5.5 0 1 1 .5.865l-4.38 2.534a.5.5 0 0 1 -.6-.791l1.253-1.22-5.313 3.067a.5.5 0 0 1 -.543-.838l.169-.122-2.371 1.368a.5.5 0 0 1 -.543-.838l.169-.122-2.12 1.224a.5.5 0 0 1 -.6-.788l1.858-1.833-4.924 2.843a.5.5 0 0 1 -.627-.762l1.671-1.912-4.711 2.719a.5.5 0 0 1 -.254.066z" fill="#ffffff" fill-opacity="1" data-original-color="#a16a5dff" stroke="none" stroke-opacity="1"/><path d="m4.433 2.21c5.493 15.419 10.728 31.79 10.716 48.669-2.577-.689-4.83-3.469-7.535-3.365-1.966.358-3.171 2.7-1.64 4.265 7.874 5.851 18.367 7.676 27.964 7.755 6.89-.172 14.25-.473 20.559-3.481 3.652-3.939-1.533-5.62-4.859-3.485-2.6-7.954-3.093-16.762-2.978-25.1 3.573.313 4.216-5.049.357-4.953l-29.828.929c-1.443-3.961-6.422-29.63-12.756-21.234zm47.148 50.777c.824-.31 1.685-.794 2.381.171 1.872 4.975-16.571 5.14-19.9 5.308-8.059-.326-22.934-1.654-27.3-8.885.341-1.612 1.634-.9 2.468-.351 12.521 7.422 28.65 7.958 42.351 3.757zm-10.146-15.387-21.691.83q-.169-1.5-.371-3l21.911-.838c.038 1.002.084 2.008.151 3.008zm-21.583 1.828 21.667-.828q.158 2.051.414 4.087l-21.7.83c-.108-1.363-.233-2.726-.381-4.089zm21.4-5.879-22.013.842q-.429-3.023-1-6.022l22.966-.71c-.025 1.946-.013 3.914.045 5.89zm-20.963 10.758 21.743-.831a62.657 62.657 0 0 0 2.22 10.272 59.175 59.175 0 0 1 -23.566-.964q-.086-4.215-.397-8.477zm27.911 8.671c-.809.2-1.629.38-2.452.527a62.7 62.7 0 0 1 -2.291-10.605.137.137 0 0 0 -.022-.178 106.418 106.418 0 0 1 -.783-15.106l2.561-.079c-.132 8.434.339 17.378 2.987 25.441zm-4.865-29.388a25.685 25.685 0 0 1 3.506-.109c1.7.187 1.969 2.766.166 3.042q-14.466.459-28.957.895-.3-1.515-.639-3.021zm-35-20.781c7.465 15.345 10.338 32.603 10.865 49.55q-1.285-.395-2.541-.872c-.487-15.542-3.163-31.718-9.785-45.909-1.807-1.954-1.001-6.185 1.457-2.769z" fill="#262626" fill-opacity="1" data-original-color="#262626ff" stroke="none" stroke-opacity="1"/></g></svg>