<svg xmlns="http://www.w3.org/2000/svg" id="Icons" viewBox="0 0 60 60" width="300" height="300" version="1.1" xmlns:xlink="http://www.w3.org/1999/xlink" xmlns:svgjs="http://svgjs.dev/svgjs"><g width="100%" height="100%" transform="matrix(1,0,0,1,0,0)"><path d="M32.7,17.2a.5.5,0,0,1-.25-.932l3.777-2.181a.5.5,0,0,1,.5.865L32.95,17.136A.494.494,0,0,1,32.7,17.2Z" fill="#ffffff" fill-opacity="1" data-original-color="#cd4c60ff" stroke="none" stroke-opacity="1"/><path d="M29.5,48.321a.5.5,0,0,1-.322-.882l2.384-2.01L28.6,47.14a.5.5,0,0,1-.544-.837l4.573-3.329-5.2,3a.5.5,0,0,1-.526-.851l2.438-1.605-2.771,1.6a.5.5,0,0,1-.531-.846l10.637-7.249L25.135,43.687a.5.5,0,0,1-.526-.85l9.618-6.353L23.9,42.449a.5.5,0,0,1-.524-.851l9.547-6.222L22.711,41.269a.5.5,0,0,1-.525-.85l12.367-8.156L21.333,39.9a.5.5,0,0,1-.519-.855l7.815-4.969-8.319,4.8a.5.5,0,0,1-.514-.857l.962-.6-1.207.7a.5.5,0,0,1-.524-.85l13.9-9.1L18.135,36.7a.5.5,0,0,1-.513-.858l.975-.6-1.22.7a.5.5,0,0,1-.515-.856l4.845-3.022L16.5,35.075a.5.5,0,0,1-.513-.858l.521-.321-.754.435a.5.5,0,0,1-.525-.851l13.955-9.143L14.6,32.759a.5.5,0,0,1-.518-.855l8.172-5.189-7.895,4.557a.5.5,0,0,1-.518-.854L20.479,26.2,14.13,29.862a.5.5,0,0,1-.543-.838L20.83,23.8l-7.025,4.056a.5.5,0,0,1-.532-.846l3.473-2.366-3.165,1.827a.5.5,0,0,1-.537-.842l4.352-3.05-4.065,2.347a.5.5,0,0,1-.527-.849l.285-.19a.5.5,0,0,1-.487-.862l5.367-4.153-5.138,2.966A.5.5,0,0,1,12.286,21l2.322-1.7-2,1.154A.5.5,0,0,1,12,20.371a.5.5,0,0,1-.068-.609l.774-1.266-.379.219a.5.5,0,0,1-.5-.865l2.083-1.2a.5.5,0,0,1,.677.694l-.775,1.266,8.318-4.8a.5.5,0,0,1,.545.836l-2.318,1.695,3.519-2.031a.5.5,0,0,1,.556.828l-5.366,4.151,6.825-3.939a.5.5,0,0,1,.527.848l-.217.145.574-.331a.5.5,0,0,1,.538.842L22.959,19.9l4.92-2.839a.5.5,0,0,1,.531.845l-3.477,2.369,3.917-2.26a.5.5,0,0,1,.543.838l-7.244,5.227,18.1-10.451a.5.5,0,0,1,.519.854L34.137,18.7l8.168-4.716a.5.5,0,0,1,.517.855l-8.17,5.188,9.374-5.412a.5.5,0,0,1,.525.851L30.6,24.607l15.3-8.831a.5.5,0,0,1,.512.859l-.533.328.83-.479a.5.5,0,0,1,.515.857l-4.845,3.021L47.509,17.4a.5.5,0,0,1,.512.859l-.988.609.812-.468a.5.5,0,0,1,.523.851l-13.9,9.1,13.718-7.92a.5.5,0,0,1,.514.857l-.951.59.622-.359a.5.5,0,0,1,.519.854L41.07,27.345l7.552-4.36a.5.5,0,0,1,.525.85L36.774,32l11.678-6.741a.5.5,0,0,1,.524.851l-9.542,6.219,8.692-5.018a.5.5,0,0,1,.525.849l-9.615,6.351,8.748-5.05a.5.5,0,0,1,.531.846L37.68,37.55l5.863-3.385a.5.5,0,0,1,.525.851L40.585,37.31a.5.5,0,0,1,.281.9L36.1,41.687a.5.5,0,0,1,.423.872l-4.175,3.52a.614.614,0,0,1,.05.072.5.5,0,0,1-.183.683l-2.46,1.42A.491.491,0,0,1,29.5,48.321Z" fill="#ffffff" fill-opacity="1" data-original-color="#cd4c60ff" stroke="none" stroke-opacity="1"/><path d="M16.97,13.827A.5.5,0,0,1,16.6,13L18.544,10.8l-1.264.729a.5.5,0,0,1-.6-.791l1.05-1.02-.452.26a.5.5,0,0,1-.619-.769l1.766-1.937-1.147.663a.5.5,0,0,1-.581-.808l.367-.323a.489.489,0,0,1-.422-.182.5.5,0,0,1,.01-.646l1.718-1.964-1.092.63a.5.5,0,0,1-.676-.7l.924-1.5a.5.5,0,0,1-.426-.9L18.734.606a.5.5,0,0,1,.609.084.5.5,0,0,1,.067.612l-.916,1.486,1.991-1.149a.5.5,0,0,1,.626.761L19.4,4.364,20.72,3.6a.5.5,0,0,1,.581.807l-.368.324a.521.521,0,0,1,.426.186.5.5,0,0,1-.02.65L19.574,7.5,20.72,6.84a.5.5,0,0,1,.6.791L20.266,8.653l.454-.261a.5.5,0,0,1,.624.764L19.4,11.349l1.324-.764a.5.5,0,0,1,.5.865l-4,2.31A.489.489,0,0,1,16.97,13.827Z" fill="#ffffff" fill-opacity="1" data-original-color="#bfdbf0ff" stroke="none" stroke-opacity="1"/><path d="M8.965,13.84a.5.5,0,0,1-.361-.847l1.542-1.6-.866.5a.5.5,0,0,1-.622-.767L10.5,9.077l-1.219.7a.5.5,0,0,1-.583-.8L9.121,8.6a.508.508,0,0,1-.478-.177.5.5,0,0,1,.015-.649L10.51,5.7l-1.23.71a.5.5,0,0,1-.626-.763l1.588-1.806L9.28,4.4a.5.5,0,0,1-.666-.709l.809-1.211a.512.512,0,0,1-.5-.246A.5.5,0,0,1,9.1,1.549L10.734.606a.5.5,0,0,1,.666.71l-.763,1.145,1.735-1A.5.5,0,0,1,13,2.222L11.411,4.028l1.309-.756a.5.5,0,0,1,.622.767L11.49,6.107l1.23-.71A.5.5,0,0,1,13.3,6.2l-.424.378a.511.511,0,0,1,.479.177.5.5,0,0,1-.016.649L11.5,9.458l1.219-.7a.5.5,0,0,1,.61.779l-1.541,1.6.931-.537a.5.5,0,0,1,.5.865L9.215,13.772A.49.49,0,0,1,8.965,13.84Z" fill="#ffffff" fill-opacity="1" data-original-color="#bfdbf0ff" stroke="none" stroke-opacity="1"/><path d="M10.956,59.468a.5.5,0,0,1-.356-.851l1.42-1.44L9.181,58.815a.5.5,0,0,1-.563-.823l.844-.674-1.213.7a.5.5,0,0,1-.554-.83l.811-.622-.866.5a.5.5,0,0,1-.578-.809l3.568-3.111L7.286,55.075a.5.5,0,0,1-.551-.832l1.218-.917-.63.363a.5.5,0,0,1-.574-.813l3.5-2.98L7.38,51.552a.5.5,0,0,1-.549-.834l.7-.522-.119.069a.5.5,0,0,1-.577-.811l3.5-3.024L7.471,48.084a.5.5,0,0,1-.575-.813l3.22-2.745L7.525,46.021a.5.5,0,0,1-.546-.834l.382-.283a.5.5,0,0,1-.352-.9l.431-.321a.494.494,0,0,1-.516-.211.5.5,0,0,1,.109-.674L8.35,41.781l-.724.417a.5.5,0,0,1-.567-.819l2.393-1.968L7.673,40.438a.5.5,0,0,1-.56-.825L8.7,38.36l-.986.57a.5.5,0,0,1-.573-.815L9.782,35.88l-2.02,1.166a.5.5,0,0,1-.584-.8l3.254-2.928L7.821,34.82a.5.5,0,0,1-.654-.138.5.5,0,0,1,.069-.666l3.143-2.828-2.5,1.443a.5.5,0,0,1-.569-.818l2.014-1.668-1.4.808a.5.5,0,0,1-.539-.841l2.942-2.086L7.964,29.39a.5.5,0,0,1-.544-.837l5.059-3.672L8.016,27.457a.5.5,0,0,1-.531-.847l1.364-.921L7.3,26.583a.5.5,0,0,1-.542-.839l5.839-4.2-7.04,4.063a.5.5,0,0,1-.531-.846l4.192-2.841L4.423,24.686a.5.5,0,0,1-.525-.851L6.11,22.383l-2.5,1.445a.5.5,0,0,1-.528-.849l4.968-3.32L2.784,22.7a.5.5,0,0,1-.555-.828l5-3.866-5.27,3.043a.5.5,0,0,1-.55-.833L5.99,16.78,1.479,19.385a.5.5,0,0,1-.6-.793l2.157-2.074L1.284,17.53a.5.5,0,0,1-.578-.809L1.07,16.4a.525.525,0,0,1-.429-.184.5.5,0,0,1,.02-.651l1.765-1.934L1.28,14.3a.5.5,0,0,1-.589-.8l.648-.6-.059.034a.5.5,0,0,1-.61-.78l1.5-1.56L1.28,11.1a.5.5,0,0,1-.6-.793l1-.959-.4.229a.5.5,0,0,1-.6-.789L1.817,7.673l-.537.309a.5.5,0,0,1-.613-.776L2.258,5.521l-.978.565a.5.5,0,0,1-.625-.763L2.1,3.679l-.822.473a.5.5,0,0,1-.654-.727l.689-.945A.5.5,0,0,1,1.1,1.549L2.734.606a.5.5,0,0,1,.655.728l-.564.771,1.412-.814a.5.5,0,0,1,.625.763L3.416,3.7l1.3-.753a.5.5,0,0,1,.613.777L3.742,5.407l.978-.564a.5.5,0,0,1,.6.789L4.183,6.75l.537-.31a.5.5,0,0,1,.6.793l-1,.959.4-.229a.5.5,0,0,1,.61.779L3.833,10.3l.887-.512a.5.5,0,0,1,.589.8l-.648.6.059-.034a.5.5,0,0,1,.619.77L3.573,13.859l1.307-.754a.5.5,0,0,1,.578.81l-.176.152L6.1,13.6a.5.5,0,0,1,.6.793L4.538,16.464,12.72,11.74a.5.5,0,0,1,.55.833L8.691,16.005l4.487-2.59a.5.5,0,0,1,.555.828L8.728,18.11,20.72,11.188a.5.5,0,0,1,.528.848l-4.967,3.32,4.439-2.562a.5.5,0,0,1,.524.851l-2.2,1.447,1.681-.97a.5.5,0,0,1,.53.847l-4.2,2.844L20.72,15.7a.5.5,0,0,1,.542.839l-5.838,4.2,5.181-2.991a.5.5,0,0,1,.531.847l-1.365.923.5-.292a.5.5,0,0,1,.544.837l-5.056,3.669,3.35-1.933a.5.5,0,0,1,.539.841l-5.188,3.678a.526.526,0,0,1,.153.145.5.5,0,0,1-.091.67L12.514,28.8,14,27.941a.5.5,0,0,1,.585.8l-3.143,2.828,2.616-1.51a.5.5,0,0,1,.584.8L11.388,33.8l2.73-1.576a.5.5,0,0,1,.573.814L12.052,35.27l2.115-1.221a.5.5,0,0,1,.56.825L13.14,36.128l1.067-.616a.5.5,0,0,1,.567.819L12.381,38.3l1.872-1.08a.5.5,0,0,1,.556.828l-1.319,1.02.8-.462a.5.5,0,0,1,.548.834l-.388.289a.5.5,0,0,1,.418.887l-.337.248a.512.512,0,0,1,.48.207.5.5,0,0,1-.084.669l-3.222,2.746,2.7-1.559a.5.5,0,0,1,.577.81l-3.5,3.024,2.98-1.72a.5.5,0,0,1,.549.834l-.7.521.186-.107a.5.5,0,0,1,.574.814l-3.5,2.981,2.983-1.722a.5.5,0,0,1,.55.832l-1.222.92.709-.408a.5.5,0,0,1,.578.81L11.6,53.624l3.045-1.759a.5.5,0,0,1,.554.829l-.813.624.295-.17a.5.5,0,0,1,.562.824l-.844.674.317-.182a.5.5,0,0,1,.606.783l-1.418,1.439.295-.17a.5.5,0,1,1,.5.865l-3.5,2.019A.49.49,0,0,1,10.956,59.468Z" fill="#ffffff" fill-opacity="1" data-original-color="#bfdbf0ff" stroke="none" stroke-opacity="1"/><path d="M51.792,59.458a.5.5,0,0,1-.374-.832L53.5,56.282l-3.8,2.191a.5.5,0,0,1-.579-.809l2.547-2.23-2.989,1.725a.5.5,0,0,1-.578-.81l3.31-2.86L48.28,55.3a.5.5,0,0,1-.575-.813l3.51-3.008L48.28,53.173a.5.5,0,0,1-.557-.826l1.922-1.5-1.365.787a.5.5,0,0,1-.582-.807l3.736-3.316-3.154,1.82a.5.5,0,0,1-.581-.807l3.585-3.17-3,1.733a.5.5,0,0,1-.568-.818l2.607-2.154L48.28,45.288a.5.5,0,0,1-.564-.821l2.157-1.742-1.593.919a.5.5,0,0,1-.554-.83l1.051-.808-.5.287a.5.5,0,0,1-.6-.792l2.633-2.549L48.28,40.127a.5.5,0,0,1-.612-.777l1.152-1.209-.54.311a.5.5,0,0,1-.647-.736l.448-.586a.491.491,0,0,1-.348-.1.5.5,0,0,1-.19-.514l.183-.8a.5.5,0,0,1,.054-.83l.344-.2a.509.509,0,0,1,.547.032.5.5,0,0,1,.19.513l-.088.386.906-.522a.5.5,0,0,1,.626.1.5.5,0,0,1,.021.634l-.38.5,1.385-.8a.5.5,0,0,1,.612.777l-1.152,1.208,2.535-1.462a.5.5,0,0,1,.65.131.5.5,0,0,1-.052.661L51.291,39.4l3.563-2.057a.5.5,0,0,1,.555.829l-1.051.807.562-.324a.5.5,0,0,1,.564.822l-2.161,1.746L55,40.255a.5.5,0,0,1,.568.818l-2.607,2.154L55.088,42a.5.5,0,0,1,.581.808l-3.585,3.171,3.112-1.8a.5.5,0,0,1,.582.806L52.042,48.3l3.267-1.885a.5.5,0,0,1,.557.826l-1.918,1.5,1.435-.828a.5.5,0,0,1,.575.812l-3.511,3.009,3.039-1.754a.5.5,0,0,1,.577.811l-3.309,2.859,2.834-1.635a.5.5,0,0,1,.579.808l-2.549,2.233,2.063-1.191a.5.5,0,0,1,.624.765l-2.084,2.344,1.058-.611a.5.5,0,1,1,.5.865l-3.737,2.158A.489.489,0,0,1,51.792,59.458Z" fill="#ffffff" fill-opacity="1" data-original-color="#9ebbceff" stroke="none" stroke-opacity="1"/><path d="M50.9,37.487a.5.5,0,0,1-.327-.879l4.04-3.479L48.28,36.783a.5.5,0,0,1-.543-.838l3.082-2.231L48.28,35.18a.5.5,0,0,1-.535-.844l1.067-.74-.532.306a.5.5,0,0,1-.544-.837l3.321-2.419-2.777,1.6a.5.5,0,0,1-.556-.827l5.2-4.049L48.28,30.057a.5.5,0,0,1-.558-.827l5.421-4.257L48.28,27.779a.5.5,0,0,1-.557-.827l5.3-4.136L48.28,25.552a.5.5,0,0,1-.536-.843L49.2,23.693l-.917.53a.5.5,0,0,1-.548-.834l3.917-2.9L48.28,22.43a.5.5,0,0,1-.54-.84L50.11,19.9l-1.83,1.057a.5.5,0,0,1-.543-.838l2.883-2.084-2.34,1.351a.5.5,0,0,1-.546-.836l3.23-2.374L48.28,17.726a.5.5,0,0,1-.563-.823l4.9-3.939-4.334,2.5a.5.5,0,0,1-.538-.842l.487-.342a.5.5,0,0,1-.519-.843l4.2-3.508-3.635,2.1a.5.5,0,0,1-.571-.816l3.274-2.742-2.7,1.56a.5.5,0,0,1-.551-.831l.555-.421,0,0a.5.5,0,0,1-.579-.808l1.992-1.746-1.413.815a.5.5,0,0,1-.578-.81l.863-.752-.285.165a.5.5,0,0,1-.614-.775l1-1.061-.381.219a.5.5,0,0,1-.7-.641L48.124,2.2a.5.5,0,0,1-.47-.249.5.5,0,0,1,.183-.682L48.95.621a.5.5,0,0,1,.7.642l-.512,1.113,1.949-1.125a.5.5,0,0,1,.614.774l-1,1.064,1.831-1.057a.5.5,0,0,1,.578.81l-.862.751L53.6,2.818a.5.5,0,0,1,.579.809l-1.99,1.744L54.741,3.9a.5.5,0,0,1,.552.832l-.558.421.724-.417a.5.5,0,0,1,.571.817L52.757,8.29l3.69-2.131a.5.5,0,0,1,.571.817l-4.208,3.51,4.529-2.614a.5.5,0,0,1,.538.842l-.449.316.3-.176a.5.5,0,0,1,.564.822l-4.9,3.941,4.9-2.83a.5.5,0,0,1,.546.835L55.615,14l2.959-1.708a.5.5,0,0,1,.543.838l-2.878,2.081L58.7,13.79a.5.5,0,0,1,.54.84l-2.369,1.687,1.853-1.069a.5.5,0,0,1,.548.834l-3.921,2.907,3.373-1.947a.5.5,0,0,1,.536.843L57.811,18.9l.909-.525a.5.5,0,0,1,.557.827l-5.3,4.138L58.72,20.6a.5.5,0,0,1,.558.826L53.86,25.681l4.86-2.806a.5.5,0,0,1,.556.827l-5.207,4.051,4.651-2.685a.5.5,0,0,1,.544.837l-3.321,2.419,2.777-1.6a.5.5,0,0,1,.535.843L58.2,28.3l.525-.3a.5.5,0,0,1,.543.838l-3.082,2.231L58.72,29.6a.5.5,0,0,1,.576.811l-4.042,3.481,3.466-2a.5.5,0,0,1,.579.809l-1.461,1.276.756-.436a.5.5,0,0,1,.5.865l-5.2,3a.5.5,0,0,1-.579-.809l1.462-1.277-3.634,2.1A.5.5,0,0,1,50.9,37.487Z" fill="#ffffff" fill-opacity="1" data-original-color="#bfdbf0ff" stroke="none" stroke-opacity="1"/><path d="M57.278,6.442C56,4.357,51.441-.835,48.513.692c-1.417.739-1.1,2.014-1.1,3.478v12.5a11.171,11.171,0,0,0-14.884-.458c-.829.7-1.539,1.917-2.523,2.354-2.315-2.5-4.872-4.477-8.34-4.917.055-3.568-.076-7.159-.076-10.717-.211-3.355-5.1-2.978-5.172.256v8.939c0,1.077-.216,1.567-1.465,1.413-1.2-.148-1.363-.56-1.363-1.648V2.927A2.48,2.48,0,0,0,10.832.548,2.732,2.732,0,0,0,8.414,3.183v8.939c0,1.077-.216,1.567-1.465,1.413-1.2-.148-1.363-.56-1.363-1.648V2.927A2.48,2.48,0,0,0,2.832.548,2.732,2.732,0,0,0,.414,3.183c0,4.5-.2,9.042,0,13.536A10.811,10.811,0,0,0,6.2,26.364c1.062,1.067.557-.127.954,1.232.043,9.029-.681,18.279-.741,27.367.168,5.978,9.008,5.7,9.172-.146l-.555-20.523,8.477,8.46c1.578,1.575,4.651,6.425,7.269,5.418,2.69-1.035,5.726-5.613,7.727-7.609,2.967-2.96,6.095-5.834,8.905-8.957.118,1.851-.233,3.883.134,5.646V55.069A4.526,4.526,0,0,0,52,59.591a4.655,4.655,0,0,0,4.446-4.77q-.437-8.727-.872-17.453c3.2-.662,3.947-2.881,4.016-5.905.1-4.309,0-8.631,0-12.941C59.591,14.32,59.563,10.174,57.278,6.442ZM10.718,58.51a3.675,3.675,0,0,1-3.132-3.693q.385-14.214.77-28.43C-.47,22.37,1.4,11.193,1.587,3.037,1.647.9,4.3,1.047,4.414,3.073c.064,3.326-.1,6.7,0,10,.316,1.452,1.379,1.395,2.637,1.392,2.58,0,2.535-1.474,2.535-3.6V3.037a1.506,1.506,0,0,1,1.222-1.565,1.59,1.59,0,0,1,1.606,1.6c.064,3.326-.1,6.7,0,10,.316,1.452,1.379,1.395,2.637,1.392,2.58,0,2.535-1.474,2.535-3.6V3.037a1.506,1.506,0,0,1,1.222-1.565,1.59,1.59,0,0,1,1.606,1.6c0,3.153.378,6.994.214,10.677-.2.2-.263.5-.034.656-.313,4.952-1.721,9.522-6.509,11.618-.2.086-.448.249-.441.5q.384,14.221.77,28.441A3.432,3.432,0,0,1,10.718,58.51ZM39.859,37.916l-5.725,5.711c-.75.748-2.528,3.311-3.574,3.565-1.977.481-6.236-5.292-7.576-6.63l-8.041-8.025c-.163-1.691-.543-3.9-.1-5.281s3-2.194,4.267-3.744c2.109-2.52,2.538-5.69,2.527-8.863,3.353.67,5.52,2.65,7.866,5a.679.679,0,0,0,.92-.057c.8-.8,1.559-1.7,2.43-2.42a10.093,10.093,0,0,1,14.559,1.14V30.236C45.059,32.941,42.394,35.387,39.859,37.916Zm8.6,17.015V37.456h6.2q.438,8.752.875,17.5C55.424,59.509,48.7,59.352,48.457,54.931ZM55.378,36.4a.442.442,0,0,0-.63.141c-2.087-.045-4.114.05-6.2.071-.607-1.519.045-4.912.045-6.446V7.66c0-.845-.6-4.952,0-5.622,1.436-1.6,5.385,1.877,6.1,2.658a14.492,14.492,0,0,1,3.111,5.74c1.123,4.736.462,9.685.611,14.511C58.409,28.051,59.692,35.085,55.378,36.4Z" fill="#262626" fill-opacity="1" data-original-color="#262626ff" stroke="none" stroke-opacity="1"/></g></svg>