<svg height="300" viewBox="0 -3 510.57256 510" width="300" xmlns="http://www.w3.org/2000/svg" version="1.1" xmlns:xlink="http://www.w3.org/1999/xlink" xmlns:svgjs="http://svgjs.dev/svgjs"><g width="100%" height="100%" transform="matrix(1,0,0,1,0,0)"><path d="m449.921875 358.257812c-1.933594 0-3.621094-1.296874-4.121094-3.160156-.5-1.867187.316407-3.835937 1.988281-4.800781l26.785157-15.460937c2.027343-1.058594 4.527343-.335938 5.671875 1.644531 1.144531 1.980469.523437 4.511719-1.40625 5.738281l-26.785156 15.46875c-.648438.378906-1.382813.574219-2.132813.570312zm0 0" fill="#ffffff" fill-opacity="1" data-original-color="#a38671ff" stroke="none" stroke-opacity="1"/><path d="m463.949219 299.0625c-1.925781-.003906-3.605469-1.300781-4.105469-3.160156s.308594-3.820313 1.972656-4.792969l31.503906-18.191406c1.324219-.839844 3-.890625 4.371094-.125 1.367188.761719 2.207032 2.214843 2.1875 3.785156-.023437 1.566406-.902344 2.996094-2.289062 3.722656l-31.507813 18.191407c-.644531.375-1.382812.574218-2.132812.570312zm0 0" fill="#ffffff" fill-opacity="1" data-original-color="#a38671ff" stroke="none" stroke-opacity="1"/><path d="m155.46875 478.289062c-1.890625-.011718-3.546875-1.261718-4.074219-3.078124-.527343-1.816407.207031-3.761719 1.796875-4.78125l172.074219-109.046876-174.8125 100.914063c-2.011719 1.046875-4.484375.339844-5.640625-1.609375s-.585938-4.460938 1.296875-5.71875l33.015625-20.054688-31.453125 18.152344c-2.007813 1.085938-4.511719.402344-5.691406-1.554687-1.175781-1.953125-.605469-4.488281 1.296875-5.75l140.644531-88.152344-140.570313 81.144531c-2.015624 1.164063-4.589843.496094-5.789062-1.496094-1.195312-1.996093-.578125-4.582031 1.394531-5.816406l115.882813-72.535156-115.457032 66.65625c-2.015624 1.113281-4.550781.425781-5.730468-1.554688-1.175782-1.976562-.570313-4.535156 1.371094-5.777343l39.347656-24.191407-37.84375 21.890626c-2.019532 1.214843-4.644532.5625-5.859375-1.457032-1.214844-2.019531-.566407-4.640625 1.453125-5.859375l80.453125-50.34375-79.597657 45.925781c-1.300781.796876-2.925781.835938-4.265624.109376-1.339844-.730469-2.1875-2.117188-2.226563-3.640626-.039063-1.523437.738281-2.953124 2.039063-3.75l111.570312-72.078124-111.605469 64.460937c-1.996093 1.113281-4.511719.460937-5.714843-1.484375-1.199219-1.941406-.65625-4.488281 1.234374-5.769531l108.375-71.5625-108.714843 62.789062c-2.015625 1.164063-4.589844.496094-5.789063-1.5-1.199218-1.992187-.578125-4.578125 1.394532-5.8125l5.398437-3.414062-3.601563 2.074219c-2 1.085937-4.5.40625-5.679687-1.539063s-.625-4.476563 1.261719-5.75l23.109375-14.574219-21.546875 12.441406c-2.003906 1.164063-4.570313.519532-5.78125-1.457031-1.214844-1.972656-.628906-4.554687 1.316406-5.8125l47.464844-30.992187-46.441406 26.8125c-2 1.238281-4.632813.625-5.875-1.378906-1.242188-2.003907-.625-4.632813 1.378906-5.875l43.519531-28.859376-42.488281 24.523438c-1.960938 1.089844-4.429688.476562-5.652344-1.40625s-.777344-4.390625 1.019531-5.734375l62.039063-44.972656-62.292969 35.949219c-1.972656 1.125-4.476563.511718-5.703125-1.398438-1.226562-1.90625-.746094-4.441406 1.09375-5.769531l59.5625-42.441407-33.28125 19.191407c-1.984375 1.113281-4.492188.476562-5.703125-1.453125-1.210937-1.925782-.695313-4.464844 1.171875-5.769532l22.09375-15.035156c-1.75-.136718-3.234375-1.335937-3.746094-3.015625-.507812-1.679687.0625-3.5 1.441406-4.585937l39.542969-31.292969-15.203125 8.773437c-1.933594 1.097657-4.378906.527344-5.632812-1.304687-1.25-1.832031-.886719-4.320313.835937-5.71875l18.125-14.507813-4.199219 2.425782c-1.882812 1.09375-4.285156.59375-5.578124-1.15625-1.289063-1.753906-1.054688-4.195313.542968-5.671875l16.648438-15.46875c-.976563-.328125-1.800782-1-2.3125-1.894531-1.175782-2.042969-.476563-4.652344 1.5625-5.828126l24.421875-14.105468c1.882812-1.09375 4.285156-.597656 5.578125 1.15625 1.289062 1.75 1.058594 4.195312-.542969 5.667968l-11.863281 11.015626 20.660156-11.945313c1.929688-1.097656 4.378906-.527344 5.632812 1.304687 1.25 1.832032.886719 4.320313-.835937 5.71875l-18.132813 14.507813 16.5625-9.566406c1.9375-1.132813 4.417969-.570313 5.679688 1.285156s.871094 4.367187-.894531 5.753906l-39.566407 31.316407 38.398438-22.144532c1.980469-1.074218 4.453125-.425781 5.648438 1.480469 1.199218 1.90625.710937 4.414063-1.117188 5.730469l-13.746094 9.328125 10.71875-6.179688c1.964844-1.085937 4.433594-.460937 5.652344 1.425781 1.214844 1.890626.757812 4.394532-1.046875 5.734376l-59.527344 42.429687 56.363281-32.53125c1.964844-1.128906 4.472657-.519531 5.703126 1.382813 1.234374 1.902343.761718 4.4375-1.070313 5.769531l-62.019531 44.960937 89.660156-51.746094c1.988281-1.097656 4.492188-.441406 5.6875 1.488282 1.199219 1.933594.667969 4.464844-1.199219 5.757812l-43.519531 28.867188 62.589844-36.113282c1.996094-1.097656 4.503906-.4375 5.695312 1.503907 1.191406 1.941406.648438 4.476562-1.230468 5.757812l-47.445313 30.976563 66.292969-38.238282c2.003906-1.082031 4.503906-.40625 5.683594 1.539063 1.179687 1.945313.625 4.476563-1.261719 5.75l-23.039063 14.617187 37.894532-21.90625c2.003906-1.054687 4.484374-.363281 5.648437 1.578126 1.167969 1.941406.613281 4.457031-1.261719 5.726562l-5.28125 3.3125 18.390625-10.617188c1.984375-1.070312 4.464844-.40625 5.648438 1.511719 1.1875 1.921875.675781 4.433594-1.171875 5.734375l-108.429688 71.558594 136.53125-78.828125c1.996094-1.085937 4.492188-.414063 5.675782 1.523437 1.183593 1.9375.644531 4.460938-1.230469 5.746094l-111.5625 72.054688 137.386719-79.359375c2.003906-1.085938 4.511718-.402344 5.6875 1.550781 1.175781 1.957031.605468 4.492188-1.292969 5.753906l-80.488281 50.398438 99.976562-57.644532c2.007812-1.058593 4.492188-.359374 5.65625 1.59375 1.160156 1.949219.59375 4.46875-1.296875 5.730469l-39.34375 24.164063 54.613281-31.511719c2.003906-1.089844 4.511719-.402344 5.6875 1.550781 1.175782 1.953125.605469 4.488282-1.292968 5.753906l-115.953126 72.566407 137.941407-79.632813c2.011719-1.125 4.550781-.453125 5.742187 1.519532 1.1875 1.972656.597656 4.53125-1.339844 5.785156l-140.507812 88.054687 149.433594-86.273437c2.015625-1.074219 4.515625-.375 5.679687 1.585937 1.167969 1.960938.582031 4.492188-1.324219 5.746094l-33.367187 20.300781 31.511719-18.195312c2-1.054688 4.476562-.367188 5.644531 1.566406 1.171875 1.929688.628906 4.441406-1.230469 5.722656l-172.03125 108.988282 128.851563-74.367188c2.015625-1.136719 4.570312-.457031 5.757812 1.527344s.574219 4.554687-1.378906 5.792968l-45.140625 27.863282 51.796875-29.867188c2-1.164062 4.566406-.519531 5.78125 1.453125 1.210937 1.976563.625 4.558594-1.320313 5.816407l-132.007812 85.988281 135.140625-78.027344c2.023437-1.210937 4.644531-.554687 5.855469 1.46875 1.210937 2.019531.550781 4.640625-1.46875 5.851563l-18.320313 11.324218 13.242188-7.679687c2.019531-1.214844 4.640625-.5625 5.859375 1.457031 1.214844 2.019531.5625 4.640625-1.457032 5.855469l-33.519531 21.019531c1.996094-.453125 4.03125.578125 4.851563 2.453125.820312 1.875.191406 4.070313-1.496094 5.226563l-77.066406 52.503906 85.71875-49.492188c1.996094-1.097656 4.5-.4375 5.695312 1.503906 1.191406 1.941407.648438 4.476563-1.230468 5.757813l-27.121094 17.621094 26.019531-15.019531c1.972656-1.117188 4.480469-.496094 5.703125 1.417968 1.21875 1.914063.726562 4.449219-1.121094 5.769532l-56.679687 39.816406 48.785156-28.160156c1.996094-1.1875 4.578125-.558594 5.804687 1.414062 1.222657 1.972656.648438 4.5625-1.296874 5.832031l-20.875 13.898438c1.476562.484375 2.570312 1.726562 2.863281 3.25.292969 1.523437-.265625 3.085937-1.453125 4.082031l-24.125 20.300781 25.25-14.578125c1.777344-1.027344 4.035156-.640625 5.371094.917969 1.339843 1.558594 1.375 3.847656.089843 5.449219l-13.652343 16.914062c2.074218-.925781 4.507812-.0625 5.539062 1.960938 1.027344 2.023437.292969 4.5-1.675781 5.632812l-19.308594 11.152344c-1.78125 1.039062-4.046875.65625-5.386719-.910156-1.34375-1.5625-1.371094-3.863282-.074218-5.464844l13.566406-16.851562-47.617188 27.496093c-1.914062 1.117188-4.367187.578125-5.640625-1.238281-1.273437-1.816406-.941406-4.304688.761719-5.726562l24.175781-20.300782-50.84375 29.355469c-1.996093 1.183594-4.574219.554687-5.800781-1.417969-1.226562-1.96875-.652344-4.5625 1.296875-5.828125l2.558594-1.707031-17.210938 9.941406c-1.976562 1.15625-4.515625.542969-5.746093-1.386718-1.234376-1.929688-.722657-4.488282 1.15625-5.796876l56.644531-39.792968-83.550781 48.238281c-1.992188 1.070313-4.472657.402344-5.65625-1.527344-1.179688-1.925781-.65625-4.441406 1.203124-5.734375l27.195313-17.679687-44.128906 25.480469c-1.984375 1.117187-4.492188.476562-5.703125-1.449219-1.210938-1.929688-.695313-4.46875 1.171875-5.769531l77.050781-52.496094-104.109375 60.125c-2.015625 1.160156-4.589844.496094-5.789063-1.5-1.195312-1.992188-.578124-4.578125 1.394532-5.8125l28.988281-18.203125-44.371094 25.601562c-2.007812 1.070313-4.503906.378907-5.671875-1.574219-1.167968-1.949218-.601562-4.476562 1.292969-5.738281l18.242187-11.300781-32.1875 18.613281c-1.992187 1.097657-4.5.4375-5.691406-1.503906s-.652344-4.476563 1.230469-5.757813l132.078125-86.042968-161.65625 93.304687c-2.015625 1.132813-4.566406.457031-5.753906-1.527343-1.1875-1.988282-.578125-4.558594 1.378906-5.796876l44.953125-27.773437-61.007813 35.234375c-.644531.375-1.382812.574219-2.132812.570312zm0 0" fill="#ffffff" fill-opacity="1" data-original-color="#a38671ff" stroke="none" stroke-opacity="1"/><path d="m246.476562 239.5c-1.894531 0-3.566406-1.253906-4.09375-3.074219-.53125-1.820312.207032-3.773437 1.808594-4.792969l35.191406-22.460937-39.601562 22.828125c-2.003906 1.070312-4.492188.386719-5.664062-1.558594-1.175782-1.941406-.621094-4.464844 1.257812-5.738281l14.585938-9.171875-10.914063 6.296875c-2.011719 1.148437-4.570313.484375-5.765625-1.492187-1.199219-1.980469-.605469-4.554688 1.34375-5.804688l42.878906-27.304688-40.105468 23.175782c-1.304688.789062-2.929688.820312-4.265626.085937-1.335937-.738281-2.175781-2.128906-2.207031-3.652343-.027343-1.527344.757813-2.949219 2.0625-3.738282l23.890625-15.042968-21.535156 12.441406c-1.296875.800781-2.921875.855468-4.265625.132812-1.34375-.71875-2.203125-2.101562-2.25-3.625-.046875-1.523437.722656-2.957031 2.015625-3.761718l104.851562-69.367188-104.671874 60.433594c-2.007813 1.125-4.550782.453125-5.738282-1.519532-1.191406-1.972656-.597656-4.535156 1.335938-5.785156l26.308594-16.480468-24.535157 14.167968c-2.003906 1.085938-4.511719.402344-5.6875-1.554687-1.175781-1.953125-.605469-4.488281 1.292969-5.75l38.203125-23.996094-35.992187 20.777344c-2.003907 1.121093-4.535157.453125-5.726563-1.507813-1.191406-1.960937-.621094-4.515625 1.296875-5.777344l78.585938-50.347656-75.949219 43.878906c-1.992188 1.132813-4.523438.488282-5.734375-1.460937-1.207032-1.945313-.660156-4.5 1.238281-5.785156l103.730469-69.273438-100.085938 57.804688c-1.996094 1.117187-4.511718.460937-5.714844-1.480469-1.199218-1.945312-.65625-4.488281 1.234376-5.773438l65.921874-43.441406-61.167968 35.300782c-1.992188 1.070312-4.472656.398437-5.65625-1.527344-1.179688-1.925782-.65625-4.441406 1.199218-5.734375l30.449219-19.796875-25.148437 14.507812c-1.976563 1.101563-4.46875.472656-5.683594-1.4375-1.210938-1.914062-.722656-4.4375 1.117188-5.757812l53.640624-37.324219-46.285156 26.71875c-1.964844 1.128906-4.46875.519531-5.703125-1.382813-1.230469-1.902343-.761719-4.433593 1.070313-5.769531l39.382812-28.476562-30.125 17.410156c-1.921875 1.113281-4.375.566406-5.644531-1.261719-1.265625-1.824218-.917969-4.316406.800781-5.726562l31.648438-25.960938-21.820313 12.589844c-1.882812 1.089844-4.285156.59375-5.574219-1.160156-1.292968-1.75-1.058593-4.191406.539063-5.667969l13.886719-12.894531-6.589844 3.796875c-1.472656.847656-3.3125.742187-4.675781-.277344-1.363281-1.015625-1.992188-2.742187-1.605469-4.398437l3.609375-15.207032c-1.53125-.59375-2.585937-2.015625-2.710937-3.65625s.707031-3.203125 2.132812-4.023437l4.367188-2.464844c1.476562-.855469 3.316406-.75 4.683593.269531 1.367188 1.015625 2 2.75 1.605469 4.40625l-3.105469 13.0625 30.804688-17.808594c1.882812-1.089843 4.285156-.59375 5.578125 1.160157 1.292968 1.75 1.058594 4.191406-.542969 5.667969l-13.898437 12.867187 34.207031-19.71875c1.925781-1.113281 4.378906-.566406 5.644531 1.261719 1.265625 1.824218.921875 4.316406-.796875 5.726562l-31.640625 25.941406 57.113281-32.972656c1.964844-1.128906 4.472657-.523437 5.703125 1.378906 1.234375 1.902344.765625 4.4375-1.070312 5.773438l-39.390625 28.472656 61.765625-35.660156c1.976562-1.105469 4.472656-.472656 5.683594 1.4375 1.214843 1.914062.722656 4.4375-1.117188 5.757812l-53.640625 37.347657 77.175781-44.578125c2-1.1640628 4.566406-.515625 5.78125 1.457031 1.210938 1.976563.625 4.554687-1.320312 5.816406l-30.4375 19.769531 46.933594-27.066406c2.003906-1.238281 4.636718-.621094 5.875 1.386719 1.238281 2.003906.617187 4.636719-1.386719 5.875l-65.960938 43.453125 87.859375-50.75c1.992188-1.1328125 4.523438-.488281 5.734375 1.457031 1.207031 1.949219.660157 4.503907-1.238281 5.789063l-103.75 69.296875 124.066406-71.617188c2.007813-1.179687 4.589844-.527343 5.800782 1.460938 1.210937 1.988281.605468 4.582031-1.363282 5.824219l-78.617187 50.347656 73.589843-42.480469c2.007813-1.085937 4.511719-.402344 5.691407 1.554687 1.175781 1.953126.605469 4.488282-1.296875 5.75l-38.140625 23.960938 32.167969-18.574219c1.308593-.789062 2.933593-.816406 4.269531-.078125 1.332031.738282 2.171875 2.128906 2.199219 3.65625.027343 1.523438-.757813 2.949219-2.066407 3.734375l-26.332031 16.441407 19.507812-11.253907c1.996094-1.15625 4.554688-.515625 5.769532 1.445313 1.214844 1.964844.644531 4.539062-1.28125 5.808594l-104.859375 69.375 94.507812-54.5625c2.003907-1.070313 4.492188-.382813 5.664063 1.558593 1.171875 1.945313.617187 4.464844-1.261719 5.738281l-23.816406 14.976563 16.4375-9.480469c2-1.085937 4.5-.40625 5.679687 1.539063 1.179688 1.945312.625 4.472656-1.261718 5.746093l-42.835938 27.308594 36.402344-21.019531c2.003906-1.066406 4.492187-.382813 5.664062 1.558594 1.171875 1.945312.621094 4.464843-1.261718 5.738281l-14.726563 9.25 9.386719-5.425781c2.003906-1.121094 4.535156-.453125 5.726562 1.507812 1.191406 1.960938.617188 4.515625-1.296875 5.78125l-35.125 22.414063 30.242188-17.457032c1.988281-1.179687 4.546875-.5625 5.78125 1.390626 1.234375 1.953124.691406 4.53125-1.222657 5.820312l-74.941406 51.453125 70.828125-40.890625c1.96875-1.125 4.476563-.507812 5.703125 1.398438 1.226563 1.910156.746094 4.445312-1.097656 5.769531l-60.746094 43.238281 57.847656-33.390625c1.972657-1.136719 4.492188-.523437 5.722657 1.394531 1.230469 1.917969.734375 4.464844-1.125 5.78125l-35.3125 24.96875 33.28125-19.214844c1.953125-1.128906 4.449219-.539062 5.695312 1.34375 1.242188 1.882813.804688 4.410157-1 5.761719l-30.355469 22.75 29.074219-16.773437c1.957031-1.125 4.453125-.527344 5.6875 1.363281 1.238281 1.886719.789063 4.414063-1.019531 5.761719l-9.601562 7.074218 7.570312-4.371093c1.949219-1.109375 4.421875-.519531 5.664062 1.347656 1.242188 1.867187.824219 4.378906-.953124 5.742187l-1.921876 1.453126c1.816407-.738282 3.898438-.140626 5.054688 1.441406 1.285156 1.761718 1.03125 4.210937-.582031 5.675781l-7.527344 6.824219 4.351563-2.507813c1.511718-.863281 3.394531-.726562 4.761718.347657 1.367188 1.074218 1.945313 2.871093 1.460938 4.542968l-3.609375 12.382813c2.085937-.707031 4.363281.292969 5.261719 2.300781.894531 2.007812.117187 4.371094-1.796876 5.453125l-8.363281 4.789063c-1.511719.867187-3.398437.730468-4.765625-.347657-1.371094-1.078125-1.945312-2.878906-1.457031-4.550781l3.578125-12.167969-29.78125 17.132813c-1.878906 1.035156-4.234375.515625-5.5-1.214844s-1.054688-4.132812.496094-5.609375l7.5625-6.828125-23.75 13.671875c-1.945313 1.109375-4.421875.519531-5.664063-1.347656-1.238281-1.867188-.824219-4.378907.957031-5.746094l1.601563-1.210937-14.4375 8.328124c-1.957031 1.125-4.453125.523438-5.691406-1.363281-1.234375-1.886719-.789063-4.414062 1.023437-5.761719l9.644532-7.109374-24.6875 14.253906c-1.957032 1.125-4.449219.539062-5.695313-1.347656-1.242187-1.882813-.804687-4.40625 1-5.761719l30.363281-22.757813-51.789062 29.867188c-1.972656 1.136718-4.496094.523437-5.722656-1.394532-1.230469-1.917968-.734376-4.464843 1.121093-5.785156l35.261719-24.941406-55.6875 32.152344c-1.972656 1.125-4.476562.511718-5.703125-1.398438-1.226563-1.90625-.746094-4.441406 1.09375-5.769531l60.78125-43.226563-87.378906 50.457032c-1.984375 1.132812-4.507813.503906-5.726563-1.429688s-.699218-4.480468 1.175782-5.78125l74.949218-51.464844-101.671875 58.707032c-.648437.386718-1.382812.59375-2.136719.597656zm0 0" fill="#ffffff" fill-opacity="1" data-original-color="#89c053ff" stroke="none" stroke-opacity="1"/><path d="m297.667969 239.449219c-1.835938 0-3.464844-1.175781-4.046875-2.917969-.578125-1.742188.019531-3.660156 1.488281-4.761719l56.125-42.25-77.046875 44.476563c-1.980469 1.101562-4.480469.464844-5.6875-1.453125s-.703125-4.445313 1.144531-5.757813l43.523438-29.71875-39.945313 23.039063c-1.992187 1.082031-4.484375.421875-5.671875-1.507813-1.191406-1.929687-.664062-4.453125 1.199219-5.746094l11.09375-7.246093-7.792969 4.5c-1.972656 1.136719-4.492187.523437-5.722656-1.394531-1.230469-1.917969-.734375-4.464844 1.125-5.785157l63.632813-45.019531-62.292969 35.949219c-1.996094 1.097656-4.5.4375-5.695313-1.503907-1.191406-1.9375-.648437-4.472656 1.230469-5.757812l8.457031-5.511719-6.289062 3.636719c-1.980469 1.132812-4.507813.503906-5.726563-1.429688-1.21875-1.933593-.699219-4.480468 1.179688-5.78125l57.085937-39.152343-56.316406 32.527343c-2.015625 1.230469-4.640625.59375-5.867188-1.417968-1.230468-2.011719-.59375-4.640625 1.417969-5.867188l1.8125-1.152344c-2.011719.789063-4.292969-.046874-5.320312-1.945312-1.023438-1.902344-.464844-4.269531 1.300781-5.511719l67.222656-47.703125-65.140625 37.617188c-2.003906 1.238281-4.636719.625-5.875-1.378906-1.242187-2.003907-.625-4.632813 1.375-5.875l22.257813-14.738282-18.203125 10.496094c-1.960938 1.105469-4.441407.5-5.671875-1.386719-1.226563-1.882812-.78125-4.398437 1.019531-5.746093l60.121094-43.957032-55.195313 31.855469c-1.980468 1.101563-4.476562.460937-5.683594-1.457031-1.207031-1.917969-.707031-4.445313 1.144532-5.753906l11.945312-8.15625-6.203125 3.582031c-1.980469 1.136719-4.5.515625-5.722656-1.410157-1.226563-1.925781-.71875-4.472656 1.148437-5.78125l5.121094-3.535156c-1.230468.160156-2.46875-.203125-3.414062-1.007812-1.386719-1.191406-1.859375-3.140625-1.167969-4.835938l6.527344-15.90625c-1.050781-.902344-1.601563-2.257812-1.472657-3.636718.128907-1.378907.921876-2.609376 2.121094-3.300782l4.128906-2.382812c1.582032-.90625 3.566407-.710938 4.9375.488281 1.375 1.203125 1.832032 3.140625 1.140626 4.828125l-4.753907 11.589844 72.867188-42.0625c1.976562-1.132813 4.5-.511719 5.722656 1.414062 1.222656 1.921875.71875 4.472656-1.152344 5.78125l-1.925781 1.339844 14.855469-8.535156c1.988281-1.152344 4.53125-.523438 5.753906 1.421875 1.222656 1.945312.6875 4.507812-1.214844 5.796875l-11.945312 8.167968 26.726562-15.429687c1.960938-1.105469 4.441407-.496094 5.671875 1.386719 1.226563 1.886718.78125 4.402344-1.023437 5.75l-60.097657 43.945312 69.828126-40.320312c1.992187-1.152344 4.542968-.515625 5.757812 1.441406 1.222656 1.960938.660156 4.535156-1.261719 5.8125l-22.261719 14.710938 23.960938-13.789063c1.972656-1.136719 4.492188-.523437 5.722656 1.394531 1.230469 1.917969.734375 4.464844-1.125 5.78125l-67.226562 47.691406 77.203125-44.628906c2.003906-1.140625 4.550781-.480468 5.75 1.484375 1.203125 1.96875.625 4.535157-1.304688 5.796875l-5.519531 3.539063c1.957031-.324219 3.882812.742187 4.640625 2.578125.761719 1.832031.15625 3.949218-1.460937 5.101562l-57.101563 39.160156 50.132813-28.945312c1.996093-1.117188 4.523437-.457031 5.71875 1.496094 1.195312 1.953125.636718 4.5-1.265626 5.777344l-8.398437 5.460937 3.046875-1.757813c1.976562-1.140624 4.496094-.527343 5.726562 1.390626 1.226563 1.921874.734376 4.464843-1.125 5.785156l-63.632812 45.082031 58.613281-33.835937c1.996094-1.113282 4.511719-.460938 5.714844 1.480468 1.199219 1.945313.65625 4.488282-1.234375 5.773438l-11.152344 7.3125 7.074219-4.085938c1.992187-1.21875 4.589844-.609375 5.832031 1.367188 1.246094 1.972656.671875 4.578125-1.285156 5.851562l-43.441406 29.652344 39.714844-22.929688c1.949218-1.117187 4.433593-.527343 5.675781 1.347657 1.242187 1.875.816406 4.390625-.976563 5.753906l-56.140625 42.257813 53.992188-31.199219c1.9375-1.101563 4.398437-.523438 5.644531 1.328125 1.246094 1.847656.855469 4.34375-.890625 5.726562l-36.082031 28.128906 34.757812-20.070312c1.933594-1.140625 4.417969-.589844 5.6875 1.261719 1.269532 1.851562.886719 4.367187-.875 5.761719l-20.523437 16.542968 19.148437-11.050781c1.847656-.992187 4.136719-.496094 5.410156 1.167969 1.273438 1.660156 1.152344 4.003906-.289062 5.523437l-15.742188 15.933594 13.839844-7.980469c1.699219-.949218 3.824219-.632812 5.167969.777344 1.34375 1.40625 1.566406 3.542969.539063 5.195312l-5.75 8.925782 1.542968-.851563c1.324219-.839843 3-.890625 4.371094-.125 1.367188.761719 2.207031 2.214844 2.1875 3.78125-.023438 1.570313-.902344 2.996094-2.289062 3.722657l-16.921876 9.773437c-1.699218.957031-3.832031.640625-5.179687-.765625-1.347656-1.410156-1.570313-3.554688-.539063-5.207031l5.769532-8.886719-25.882813 14.945312c-1.847656 1.066407-4.199219.601563-5.507812-1.089843-1.304688-1.6875-1.160157-4.082031.335937-5.601563l15.753906-15.949218-39.253906 22.679687c-1.925781 1.09375-4.367187.527344-5.621094-1.300781-1.25-1.828125-.894531-4.308594.816407-5.710938l20.480469-16.539062-40.855469 23.59375c-1.941407 1.101562-4.402344.523437-5.648438-1.324219-1.246093-1.851563-.855469-4.347656.894531-5.730469l36.105469-28.1875-60.996093 35.210938c-.648438.378906-1.386719.578125-2.136719.578125zm0 0" fill="#ffffff" fill-opacity="1" data-original-color="#b4df80ff" stroke="none" stroke-opacity="1"/><path d="m297.457031 46.273438c-1.933593 0-3.621093-1.296876-4.121093-3.164063-.5-1.863281.316406-3.832031 1.988281-4.796875l4.835937-2.792969c2.042969-1.175781 4.65625-.476562 5.832032 1.566407 1.179687 2.042968.480468 4.65625-1.5625 5.832031l-4.839844 2.792969c-.648438.371093-1.386719.5625-2.132813.5625zm0 0" fill="#ffffff" fill-opacity="1" data-original-color="#b4df80ff" stroke="none" stroke-opacity="1"/><path d="m324.054688 152.332031c-1.65625 0-3.160157-.957031-3.863282-2.457031-.699218-1.496094-.472656-3.265625.585938-4.539062l14.457031-17.332032-22.433594 12.945313c-1.871093 1.125-4.289062.660156-5.605469-1.082031-1.316406-1.738282-1.109374-4.191407.484376-5.683594l9.804687-9.429688-8.464844 4.878906c-1.789062 1.023438-4.050781.625-5.378906-.945312-1.328125-1.574219-1.347656-3.871094-.039063-5.460938l8.121094-9.824218c-1.84375-.179688-3.359375-1.535156-3.75-3.347656s.4375-3.671876 2.042969-4.59375l16.53125-9.542969c1.785156-1.03125 4.058594-.636719 5.390625.9375 1.335938 1.574219 1.347656 3.878906.035156 5.472656l-6.679687 8.082031 18.261719-10.539062c1.867187-1.125 4.285156-.660156 5.601562 1.082031 1.316406 1.738281 1.109375 4.191406-.484375 5.683594l-9.804687 9.4375 12.902343-7.449219c1.792969-1.03125 4.0625-.632812 5.394531.949219 1.332032 1.582031 1.339844 3.886719.015626 5.476562l-14.445313 17.324219 11.410156-6.582031c2.023438-1.058594 4.527344-.332031 5.671875 1.648437 1.144532 1.976563.523438 4.507813-1.40625 5.734375l-32.1875 18.585938c-.65625.382812-1.40625.582031-2.167968.570312zm0 0" fill="#ffffff" fill-opacity="1" data-original-color="#89c053ff" stroke="none" stroke-opacity="1"/><path d="m315.058594 239.5c-1.773438 0-3.359375-1.101562-3.984375-2.761719-.625-1.65625-.160157-3.53125 1.171875-4.703125l13.761718-12.117187-15.675781 9.054687c-1.859375 1.070313-4.230469.59375-5.527343-1.117187-1.300782-1.710938-1.125-4.121094.410156-5.625l11.59375-11.351563c-1.597656-.523437-2.742188-1.9375-2.917969-3.609375-.171875-1.675781.652344-3.292969 2.109375-4.136719l21.714844-12.527343c1.863281-1.074219 4.230468-.59375 5.53125 1.113281 1.300781 1.710938 1.125 4.121094-.410156 5.628906l-7.492188 7.328125 23.59375-13.652343c1.898438-1.082032 4.308594-.558594 5.582031 1.21875 1.273438 1.773437 1.003907 4.226562-.632812 5.675781l-13.769531 12.125 21.929687-12.609375c1.898437-1.105469 4.328125-.585938 5.609375 1.203125 1.28125 1.785156.996094 4.253906-.660156 5.699219l-6.347656 5.570312 8.804687-5.074219c1.8125-1.039062 4.109375-.609375 5.429687 1.011719 1.316407 1.625 1.265626 3.960938-.121093 5.523438l-5.972657 6.621093 6.355469-3.660156c1.339844-.792969 3.003907-.792969 4.34375 0 1.328125.800781 2.117188 2.261719 2.054688 3.8125l-.398438 9.898437c1.929688.003907 3.621094 1.300782 4.121094 3.164063.5 1.867187-.316406 3.832031-1.988281 4.800781l-4.574219 2.636719c-1.34375.777344-3.007813.761719-4.339844-.039063-1.332031-.804687-2.121093-2.265624-2.058593-3.820312l.367187-9.242188-22.871094 13.210938c-1.816406 1.058594-4.136719.636719-5.460937-.996094-1.328125-1.632812-1.265625-3.988281.144531-5.546875l5.972656-6.625-22.945312 13.246094c-1.902344 1.101563-4.332031.582031-5.609375-1.203125-1.28125-1.789062-.996094-4.253906.660156-5.703125l6.367188-5.585937-21.761719 12.558593c-.636719.382813-1.363281.59375-2.109375.605469zm0 0" fill="#ffffff" fill-opacity="1" data-original-color="#89c053ff" stroke="none" stroke-opacity="1"/><path d="m18.007812 502.003906c-1.828124-.019531-3.445312-1.199218-4.011718-2.9375-.570313-1.738281.03125-3.644531 1.492187-4.742187l52.054688-38.015625-56.867188 32.792968c-1.960937 1.105469-4.441406.5-5.671875-1.386718-1.226562-1.882813-.78125-4.402344 1.023438-5.746094l56.839844-41.523438-52.804688 30.472657c-1.984375 1.097656-4.484375.453125-5.6875-1.472657-1.203125-1.925781-.6875-4.453124 1.171875-5.757812l17.484375-11.78125-12.960938 7.472656c-1.96875 1.113282-4.460937.496094-5.683593-1.402344-1.226563-1.898437-.757813-4.421874 1.066406-5.757812l43.351563-31.015625-38.742188 22.355469c-1.949219 1.085937-4.402344.492187-5.636719-1.367188-1.230469-1.859375-.824219-4.351562.933594-5.722656l54.613281-41.320312-49.917968 28.828124c-1.976563 1.117188-4.484376.496094-5.703126-1.417968-1.222656-1.914063-.730468-4.449219 1.121094-5.769532l27.304688-19.132812-22.722656 13.082031c-1.980469 1.074219-4.453126.429688-5.652344-1.476562-1.195313-1.90625-.707032-4.417969 1.121094-5.734375l7.566406-5.117188-3.035156 1.707032c-1.957032 1.109374-4.441407.511718-5.675782-1.367188s-.796875-4.398438 1-5.75l39.132813-29.015625-34.457031 19.882813c-1.90625.929687-4.203126.320312-5.398438-1.433594-1.191406-1.75-.917969-4.113282.644531-5.546875l45.941407-35.839844-41.1875 23.742187c-1.925782 1.101563-4.378907.546876-5.636719-1.285156-1.261719-1.828125-.90625-4.316406.8125-5.722656l33.351562-27.128906-28.527343 16.460937c-1.941407 1.101563-4.402344.523438-5.648438-1.324219-1.242188-1.851562-.855469-4.347656.894531-5.730468l10.488281-8.175782-5.734374 3.3125c-1.878907 1.046876-4.246094.53125-5.519532-1.203124-1.273437-1.734376-1.054687-4.144532.507813-5.625l11.742187-10.699219-6.730468 3.882812c-1.683594.964844-3.804688.675781-5.167969-.707031-1.359375-1.378906-1.617188-3.507812-.628907-5.175781l7.953126-13.308594c-2.066407.902344-4.480469.039063-5.507813-1.96875-1.027344-2.011719-.308594-4.472656 1.636719-5.617187l13.839844-7.972657c1.679687-.964843 3.804687-.675781 5.164062.703125 1.363281 1.382813 1.621094 3.507813.628906 5.175782l-7.925781 13.269531 26.820313-15.476563c1.878906-1.050781 4.242187-.535156 5.515624 1.199219 1.273438 1.738281 1.054688 4.148437-.507812 5.625l-11.777344 10.703125 24.75-14.285156c1.9375-1.125 4.417969-.554688 5.671875 1.304687 1.257813 1.859375.855469 4.371094-.910156 5.75l-10.507813 8.183594 21.496094-12.40625c1.921875-1.078125 4.351563-.515625 5.601563 1.300781 1.253906 1.8125.914062 4.285156-.78125 5.695313l-33.371094 27.144531 48.023437-27.722656c1.941407-1.125 4.421876-.554688 5.675782 1.304687s.855468 4.371094-.914063 5.75l-45.960937 35.859375 46.125-26.625c1.957031-1.113281 4.4375-.515625 5.671875 1.367188 1.238281 1.878906.800781 4.394531-.996094 5.75l-39.117187 29.011718 38.664062-22.320312c1.984375-1.117188 4.496094-.480469 5.707031 1.449219 1.210938 1.929687.691407 4.464843-1.175781 5.769531l-7.550781 5.117188 5.742187-3.308594c1.976563-1.121094 4.480469-.5 5.703125 1.414062 1.222657 1.917969.726563 4.453125-1.121093 5.769532l-27.230469 19.117187 26.042969-15.027344c1.949218-1.109375 4.425781-.523437 5.667968 1.34375 1.238282 1.871094.824219 4.378907-.957031 5.746094l-54.613281 41.300781 54.878906-31.691406c1.96875-1.113281 4.460938-.5 5.683594 1.402344 1.226562 1.898437.757812 4.421875-1.066406 5.753906l-43.417969 31.0625 42.871093-24.746094c1.984376-1.097656 4.484376-.453125 5.6875 1.472656 1.199219 1.925782.6875 4.453126-1.171874 5.753907l-17.417969 11.726562 15.878906-9.171875c1.960937-1.109375 4.445313-.5 5.671875 1.382813 1.230469 1.886719.785156 4.402343-1.019531 5.75l-56.824219 41.546875 56.933594-32.859375c1.960937-1.109375 4.445312-.5 5.671875 1.382812 1.230469 1.886719.785156 4.402344-1.019531 5.75l-52.054688 38.023438 51.976562-30.011719c1.9375-1.109375 4.398438-.539062 5.652344 1.304688 1.253906 1.847656.871094 4.347656-.871094 5.734374l-36.917968 29.195313 36.695312-21.171875c1.832032-1.0625 4.167969-.617188 5.484375 1.046875 1.3125 1.660156 1.210938 4.035156-.246093 5.574219l-18.277344 19.285156 17.765625-10.238281c1.574219-.910157 3.546875-.722657 4.921875.464843 1.375 1.183594 1.847656 3.109376 1.179687 4.800782l-2.457031 6.195312c2.023438-1.058594 4.523438-.332031 5.664062 1.644532 1.179688 2.042968.480469 4.652343-1.558593 5.828124l-10.464844 6.042969c-1.570313.90625-3.546875.722657-4.921875-.464843-1.371094-1.1875-1.847656-3.113282-1.175781-4.800782l2.457031-6.195312-32.554688 18.773437c-1.835937 1.0625-4.167968.617188-5.484374-1.046875-1.3125-1.660156-1.210938-4.035156.242187-5.574218l18.246094-19.3125-62.054688 35.839843c-1.9375 1.109375-4.398437.539063-5.652343-1.304687-1.25-1.847656-.871094-4.34375.875-5.734375l36.929687-29.183594-69.972656 40.40625c-.660157.402344-1.417969.613281-2.191407.613281zm0 0" fill="#ffffff" fill-opacity="1" data-original-color="#457393ff" stroke="none" stroke-opacity="1"/><g fill="#937661"><path d="m300.195312 477.113281c-1.578124.007813-3.03125-.851562-3.78125-2.238281-.539062-.984375-.664062-2.148438-.34375-3.226562.320313-1.078126 1.058594-1.984376 2.050782-2.515626l.128906-.066406c.574219-.300781 1.210938-.472656 1.859375-.496094l19.414063-.683593c.332031-.109375.675781-.179688 1.023437-.210938l23.332031-.941406c.484375-.222656.996094-.371094 1.527344-.441406l26.453125-1.425781c.566406-.324219 1.203125-.515626 1.859375-.554688l34.285156-2.160156 37.949219-21.914063c2.039063-1.15625 4.632813-.453125 5.804687 1.578125 1.171876 2.03125.484376 4.625-1.539062 5.8125l-38.808594 22.410156c-.570312.328126-1.210937.519532-1.867187.5625l-34.65625 2.363282c-.585938.339844-1.242188.535156-1.917969.5625l-26.292969 1.246094c-.496093.230468-1.027343.382812-1.570312.453124l-23.472657.945313c-.34375.117187-.699218.191406-1.058593.222656l-19.925781.699219zm0 0" fill="#ffffff" fill-opacity="1" data-original-color="#937661ff" stroke="none" stroke-opacity="1"/><path d="m433.136719 448.773438c-1.632813-.003907-3.121094-.9375-3.832031-2.40625-.710938-1.46875-.523438-3.214844.488281-4.496094l4.921875-6.265625c-.558594-.1875-1.070313-.492188-1.5-.894531-1.375-1.265626-1.765625-3.28125-.964844-4.96875l1.542969-3.234376-1.765625 1.015626c-1.710938.988281-3.875.667968-5.230469-.765626-1.359375-1.433593-1.550781-3.613281-.46875-5.265624l3.265625-4.992188-17.304688 9.992188c-1.601562.921874-3.613281.707031-4.984374-.53125-1.375-1.238282-1.792969-3.21875-1.039063-4.90625l2.023437-4.546876-17.289062 9.984376c-1.175781.691406-2.609375.769531-3.851562.214843-1.242188-.546875-2.152344-1.652343-2.449219-2.980469l-2.414063-10.886718-4.554687 2.628906c-2.027344 1.058594-4.527344.332031-5.671875-1.648438-1.144532-1.976562-.527344-4.507812 1.402344-5.734374l9.59375-5.539063c1.175781-.683594 2.609374-.761719 3.855468-.214844 1.246094.550781 2.15625 1.660157 2.449219 2.988281l2.414063 10.878907 23.65625-13.652344c1.601562-.921875 3.613281-.707031 4.984374.53125 1.375 1.238281 1.792969 3.21875 1.039063 4.90625l-2.03125 4.546875 21.480469-12.390625c1.710937-.984375 3.875-.667969 5.230468.765625 1.355469 1.4375 1.550782 3.617188.46875 5.269531l-3.660156 5.578125c1.554688-.214844 3.097656.441406 4.027344 1.707032.925781 1.265624 1.082031 2.9375.410156 4.351562l-1.535156 3.226562 1.347656-.769531c1.769532-1.007812 4.007813-.625 5.34375.914063 1.332032 1.542968 1.390625 3.8125.132813 5.417968l-2.996094 3.816407c2.019531-.273438 3.949219.917969 4.613281 2.84375.660156 1.925781-.136718 4.054687-1.898437 5.074219l-17.066407 9.875c-.664062.382812-1.417968.578124-2.183593.5625zm0 0" fill="#ffffff" fill-opacity="1" data-original-color="#937661ff" stroke="none" stroke-opacity="1"/><path d="m452.617188 391.933594c-1.472657 0-2.839844-.757813-3.621094-2.003906-.78125-1.25-.863282-2.808594-.21875-4.132813l4.796875-9.8125c-1.621094.5625-3.417969.101563-4.566407-1.171875-1.351562-1.492188-1.476562-3.722656-.296874-5.355469l8.089843-11.257812-14.832031 8.535156c-1.472656.851563-3.308594.75-4.675781-.261719-1.367188-1.007812-2.003907-2.734375-1.621094-4.390625l1.613281-7.003906-20.191406 11.65625c-1.699219.972656-3.84375.667969-5.203125-.746094-1.355469-1.414062-1.574219-3.570312-.53125-5.226562l1.1875-1.894531-13.65625 7.867187c-1.640625.945313-3.710937.699219-5.078125-.609375-1.371094-1.3125-1.714844-3.367188-.84375-5.050781l1.859375-3.589844-15.957031 9.28125c-1.316406.761719-2.9375.765625-4.257813.007813-1.320312-.757813-2.132812-2.164063-2.140625-3.683594v-9.207032l-3.21875 1.851563c-2.023437 1.058594-4.527344.332031-5.667968-1.644531-1.144532-1.980469-.527344-4.511719 1.402343-5.738282l9.59375-5.539062c1.320313-.761719 2.945313-.761719 4.265625 0 1.320313.761719 2.136719 2.164062 2.140625 3.6875v9.207031l22.316407-12.882812c1.640624-.953125 3.714843-.707031 5.089843.605469 1.371094 1.3125 1.710938 3.375.832031 5.058593l-1.859374 3.585938 16.023437-9.25c1.699219-.976563 3.84375-.667969 5.203125.746093 1.355469 1.410157 1.574219 3.566407.53125 5.226563l-1.195312 1.886719 13.65625-7.871094c1.46875-.847656 3.300781-.742188 4.664062.265625 1.367188 1.011719 2.003906 2.734375 1.625 4.386719l-1.605469 7.007812 23.492188-13.5625c1.738281-.996094 3.9375-.648437 5.285156.835938 1.347656 1.488281 1.476563 3.710937.3125 5.34375l-10.386719 14.351562c.519532.195313.992188.484375 1.402344.855469 1.371094 1.28125 1.742188 3.304687.921875 4.992187l-4.71875 9.675782 3.488281-2.015625c2.027344-1.058594 4.527344-.332031 5.671875 1.648437 1.144531 1.976563.523438 4.507813-1.40625 5.734375l-15.582031 9.0625c-.652344.363281-1.386719.546875-2.132812.539063zm0 0" fill="#ffffff" fill-opacity="1" data-original-color="#937661ff" stroke="none" stroke-opacity="1"/><path d="m463.949219 299.0625c-1.925781-.003906-3.605469-1.300781-4.105469-3.160156s.308594-3.820313 1.972656-4.792969l31.496094-18.191406c1.324219-.839844 3-.890625 4.367188-.125 1.371093.761719 2.210937 2.214843 2.1875 3.785156-.019532 1.566406-.898438 2.996094-2.289063 3.722656l-31.496094 18.191407c-.644531.375-1.382812.574218-2.132812.570312zm0 0" fill="#ffffff" fill-opacity="1" data-original-color="#937661ff" stroke="none" stroke-opacity="1"/><path d="m484.40625 274.394531c-1.542969 0-2.964844-.832031-3.722656-2.175781-.753906-1.347656-.726563-2.992188.078125-4.308594l7.191406-11.820312c-1.171875.078125-2.328125-.304688-3.222656-1.066406-1.371094-1.226563-1.800781-3.195313-1.070313-4.882813l1.035156-2.378906c-1.296874.097656-2.570312-.386719-3.472656-1.324219l-5.640625-5.972656h-.085937c-1.925782-.007813-3.609375-1.300782-4.105469-3.160156-.5-1.859376.308594-3.824219 1.972656-4.792969l1.246094-.714844c1.707031-.988281 3.871094-.675781 5.230469.757813l5.265625 5.574218 6.277343-3.621094c1.597657-.914062 3.597657-.707031 4.96875.519532 1.371094 1.222656 1.804688 3.1875 1.074219 4.875l-.765625 1.765625 1.066406-.605469c1.683594-.960938 3.804688-.660156 5.160157.726562 1.355469 1.386719 1.605469 3.515626.605469 5.179688l-6.757813 11.09375 2.894531-1.707031c2.039063-1.160157 4.628906-.457031 5.804688 1.574219 1.171875 2.03125.484375 4.628906-1.539063 5.816406l-17.355469 10.015625c-.640624.398437-1.378906.617187-2.132812.632812zm0 0" fill="#ffffff" fill-opacity="1" data-original-color="#937661ff" stroke="none" stroke-opacity="1"/><path d="m460.792969 344.410156c-1.695313 0-3.230469-1-3.910157-2.554687-.683593-1.550781-.378906-3.359375.769532-4.605469l7.238281-7.851562c-1.035156-.578126-1.777344-1.5625-2.054687-2.714844-.277344-1.148438-.066407-2.363282.585937-3.351563l3.414063-5.195312c-.71875-.128907-1.386719-.441407-1.945313-.90625-1.371094-1.125-1.898437-2.980469-1.332031-4.660157l1.203125-3.566406c-.855469.183594-1.746094.109375-2.5625-.210937-1.21875-.496094-2.140625-1.527344-2.5-2.792969l-1.117188-3.941406-8.582031 4.949218c-1.523438.882813-3.425781.738282-4.800781-.355468-1.375-1.097656-1.933594-2.921875-1.414063-4.601563l1.910156-6.136719-19.191406 11.09375c-1.457031.84375-3.28125.75-4.644531-.246093-1.363281-.992188-2.015625-2.695313-1.660156-4.34375l1.535156-7.160157-20.316406 11.726563c-1.132813.648437-2.5.746094-3.714844.261719-1.214844-.488282-2.136719-1.5-2.507813-2.753906l-3.335937-11.359376-20.324219 11.734376c-1.628906.953124-3.695312.722656-5.074218-.566407-1.378907-1.289062-1.746094-3.335937-.898438-5.023437l1.355469-2.738282c-1.925781-.015624-3.601563-1.320312-4.09375-3.179687-.488281-1.859375.328125-3.820313 1.992187-4.78125l9.628906-5.558594c1.628907-.953125 3.691407-.722656 5.070313.566407 1.378906 1.292968 1.746094 3.335937.902344 5.023437l-.855469 1.792969 12.800781-7.363282c1.128907-.671874 2.507813-.773437 3.722657-.273437 1.214843.488281 2.140624 1.507813 2.507812 2.765625l3.328125 11.355469 23.953125-13.867188c1.460938-.84375 3.28125-.746093 4.644531.246094s2.015625 2.695313 1.660157 4.347656l-1.542969 7.148438 20.308593-11.722657c1.523438-.882812 3.429688-.742187 4.804688.355469 1.375 1.101563 1.933594 2.929688 1.40625 4.609375l-1.910156 6.136719 3.875-2.226563c1.136718-.664062 2.515625-.765624 3.738281-.273437 1.214844.5 2.132813 1.527344 2.5 2.789063l1.125 3.933593 3.773437-2.175781c1.535157-.890625 3.464844-.734375 4.839844.394531 1.371094 1.125 1.90625 2.984375 1.335938 4.667969l-1.117188 3.292969 1.707032-1c1.710937-.984375 3.875-.664063 5.230468.773437 1.355469 1.4375 1.546875 3.617188.460938 5.269532l-2.226563 3.363281c1.859375-.847657 4.058594-.253907 5.242188 1.410156 1.183593 1.664063 1.023437 3.933594-.386719 5.414063l-3.859375 4.183593c1.921875.023438 3.585937 1.332031 4.070313 3.191407.484374 1.855468-.332032 3.808593-1.996094 4.769531l-20.632813 11.945312c-.652343.367188-1.386719.554688-2.132812.546875zm0 0" fill="#ffffff" fill-opacity="1" data-original-color="#937661ff" stroke="none" stroke-opacity="1"/></g><path d="m507.070312 244.238281c-5.890624-12.085937-24.152343-13.714843-41.328124-13.140625-.617188-10.613281-1.828126-21.179687-3.636719-31.652344-9.15625-36.394531-16.613281-70.238281-10.664063-108.277343 4.648438-29.765625 13.941406-56.167969 14.761719-86.804688.085937-3.207031-3.0625-4.078125-5.71875-4.078125h-221.867187c-2.488282 0-6.730469 2.101563-6.824219 5.019532-.964844 36.121093-14.414063 68.855468-16.675781 104.566406-.734376 20.539062 1.246093 41.085937 5.890624 61.109375-18.304687 5.042969-32.429687 8.410156-45.058593 26.339843-5.65625 9.445313-10.632813 19.277344-14.890625 29.433594-14.679688 27.515625-34.613282 51.890625-58.664063 71.746094-22.980469-4.589844-81.570312-27.425781-97.785156-1.980469-7.175781 11.25-3.21875 32.582031-3.21875 44.65625v90.078125c0 27.996094-10.820313 71.550782 27.871094 72.710938 39.03125 1.171875 86.230469-17.476563 124.6875-25.265625 1.4375-.230469 2.75-.953125 3.714843-2.039063 71.839844 0 143.613282.1875 215.328126-4.882812 30.421874-2.148438 80 .460937 84.25-40.957032.707031-6.914062-4.589844-13.390624-2.3125-19.953124 1.433593-4.121094 11.792968-9.328126 14.710937-14.507813 6.394531-9.78125 6.613281-22.359375.5625-32.355469-4.113281-4.535156-9.191406-8.089844-14.863281-10.402344 8.105468-2.652343 15.917968-6.125 23.320312-10.359374 15.96875-16.921876 12.167969-39.585938-6.65625-48.144532 23.066406-6.230468 47.890625-24.507812 35.066406-50.859375zm-278.316406-147.78125c2.757813-22.296875 17.425782-48.496093 14.644532-70.953125-2.398438-19.296875-8.039063-16.121094 13.003906-16.121094h160.015625c7.253906 0 29.757812-3.730468 36.472656 0 .566406.320313 1.160156.585938 1.773437.792969-.796874 3.285157-1.261718 6.640625-1.390624 10.019531-.652344 10.882813-2.234376 21.691407-4.726563 32.304688-12.851563 49.3125-12.4375 101.148438 1.203125 150.25 5.179688 28.890625 18.132812 23.832031-5.972656 27.929688-4.328125.691406-8.699219 1.0625-13.082032 1.105468-2.671874-21.246094-6.582031-42.320312-11.714843-63.109375-6.390625-34.726562-5.285157-70.414062 3.234375-104.679687.128906-1.730469-1.011719-3.304688-2.699219-3.71875l-21.664063-22.964844c-.46875-2.457031-3.671874-2.894531-5.632812-2.894531h-93.867188c-3.128906-.007813-5.898437 2.023437-6.824218 5.011719l-24.203125 19.625c-3.636719-.609376-7.183594 1.492187-8.394531 4.976562-8.75 27.929688-11.679688 57.351562-8.613282 86.457031 3.773438 27.804688 12.9375 53.265625 15.105469 81.433594-6.761719 1.058594-13.671875.667969-20.273437-1.140625-.109376-3.152344-.707032-6.265625-1.769532-9.234375-1.894531-6.253906-1.839844-15.472656-3.15625-22.074219-6.960937-35.261718-15.972656-66.457031-11.46875-103.015625zm71.859375 134.230469h-14.445312c-3.144531-.792969-6.414063-.929688-9.609375-.410156.777344-.625 2.242187-2.859375.980468-9.480469-3.054687-16.085937-4.777343-31.796875-8.96875-47.789063-7.074218-27.050781-17.066406-83.691406 4.777344-104.164062-2.429687 2.285156 10.589844-2.238281 12.9375-3.414062 14.4375-7.289063 3.585938-4.105469 14.695313-14.617188.980469-.9375 1.707031-6.253906.066406-7.679688 2.964844 0 7.015625.65625 8.066406.417969 12.917969-2.988281 29.558594 0 42.871094 0 6.910156 0 28.160156-3.414062 35.207031-.246093-2.175781.269531 13.65625 21.074218 14.441406 22.449218 8.148438 13.902344 1.945313 28.210938 1.117188 45.796875-1.980469 41.816407 12.117188 78.714844 15.25 119.296875-3.695312.058594-7.367188.101563-11.09375.230469-3.183594-.152344-6.300781-.265625-9.386719-.304687-6.761719-55.785157-89.125-54.007813-96.90625-.085938zm84.128907 0h-71.765626c2.707032-19.132812 17.214844-35.925781 38.480469-33.597656 17.382813 2.449218 31 16.191406 33.285157 33.597656zm-333.855469 259.34375c-16.710938 3.414062-30.722657 9.472656-36.933594-12.066406-3.8125-13.210938 0-33.953125 0-47.496094 0-34.988281-8.644531-82.558594 0-116.421875 8.019531-31.394531 55.269531-12.3125 82.117187-6.507813l48.988282 163.402344zm412.816406-197.46875c-.332031.023438-.660156.074219-.980469.152344l-84.054687-.085938c-2.433594 0-13.890625 4.667969-8.125 4.675782l83.996093.085937h.058594c33.578125 7.433594 23.527344 53.335937-6.742187 54.921875-.769531-.230469-1.570313-.332031-2.371094-.300781h-68.265625c-3.679688 0-13.414062 5.480469-5.222656 5.480469h68.417968c31.574219 7.148437 25.960938 41.640624 2.066407 53.539062h-.152344c-1.027344.167969-2.050781.175781-3.074219.253906-1.195312-1.105468-2.800781-1.664062-4.429687-1.535156h-51.199219c-7.210938 0-9.386719 9.488281-.972656 9.488281h51.199218c1.308594-.003906 2.589844-.386719 3.6875-1.101562 40.105469 42.53125-45.226562 47.789062-63.785156 49.042969-48.171875 3.285156-96.429687 4.417968-144.667968 4.472656-19.496094 0-61.695313 7.890625-72.363282-6.503906-10.664062-14.394532-13.445312-44.816407-18.625-62.082032l-22.375-74.578125c-9.039062-30.117187-5-25.601562 18.292969-49.800781 22.605469-23.492188 33.460937-49.410156 49.683594-76.75 5.578125-9.386719 25.070312-29.132812 37.792969-28.550781 4.503906 19.398437 7.78125 39.066406 9.820312 58.878906-2.796875-.019531-5.484375 1.09375-7.449219 3.089844-1.476562 2.328125 1.273438 2.789062 3.125 2.789062h5.75c1.257813 1.132813 2.929688 1.703125 4.617188 1.578125h221.867187c2.28125-.171875 4.417969-1.199218 5.972656-2.875 4.34375-.703125 8.789063-.410156 13.003907.851563 23.382812 11.992187 18.082031 54.863281-14.496094 54.863281zm0 0" fill="#262626" fill-opacity="1" data-original-color="#262626ff" stroke="none" stroke-opacity="1"/><path d="m363.71875 122.644531c-2.074219-38.519531-63.480469-34.003906-63.566406 2.867188-.085938 38.957031 61.609375 34.476562 63.574218-1.976563 0-.171875-.101562-.273437-.128906-.4375-.023437-.160156.128906-.289062.121094-.453125zm-33.484375 23.28125c-10.417969-2.65625-17.667969-12.089843-17.554687-22.835937-.59375-6 1.773437-11.910156 6.34375-15.84375 4.566406-3.933594 10.765624-5.390625 16.609374-3.910156 9.339844 3.375 15.589844 12.203124 15.675782 22.132812-.765625 11.121094-8.207032 23.144531-21.074219 20.457031zm0 0" fill="#262626" fill-opacity="1" data-original-color="#262626ff" stroke="none" stroke-opacity="1"/><path d="m161.273438 361.578125-2.5625-8.53125c-.800782-2.65625-13.121094.785156-12.363282 3.308594l2.558594 8.535156c.804688 2.652344 13.125-.804687 12.367188-3.3125zm0 0" fill="#262626" fill-opacity="1" data-original-color="#262626ff" stroke="none" stroke-opacity="1"/><path d="m221.5 435c-9.386719.289062-24.386719 3.011719-33.117188-.582031-6.1875-2.558594-7.40625-8.070313-9.105468-13.574219l-7.765625-25.132812c-1.824219-5.921876-14.179688-2.558594-12.363281 3.3125 3.132812 10.136718 5.734374 20.617187 9.4375 30.566406 7.679687 20.609375 34.5 15.4375 51.917968 14.882812 7.191406-.222656 9.394532-9.746094.996094-9.472656zm0 0" fill="#262626" fill-opacity="1" data-original-color="#262626ff" stroke="none" stroke-opacity="1"/><path d="m264.527344 435.058594c-2.851563.257812-5.691406.554687-8.535156.804687-2.105469.1875-6.699219 1.578125-7.039063 4.164063-.367187 2.773437 3.566406 2.738281 5.316406 2.558594 2.847657-.257813 5.691407-.554688 8.53125-.800782 2.109375-.1875 6.699219-1.578125 7.042969-4.164062.375-2.707032-3.558594-2.707032-5.316406-2.5625zm0 0" fill="#262626" fill-opacity="1" data-original-color="#262626ff" stroke="none" stroke-opacity="1"/></g></svg>