<svg id="Icons" height="300" viewBox="0 0 60 60" width="300" xmlns="http://www.w3.org/2000/svg" version="1.1" xmlns:xlink="http://www.w3.org/1999/xlink" xmlns:svgjs="http://svgjs.dev/svgjs"><g width="100%" height="100%" transform="matrix(1,0,0,1,0,0)"><path d="m12.162 36.47a.5.5 0 0 1 -.264-.925l11.3-7.019-13.439 7.761a.5.5 0 0 1 -.518-.855l19.3-12.213-21.341 12.32a.5.5 0 0 1 -.512-.858l10.512-6.453-11.371 6.565a.5.5 0 0 1 -.517-.855l20.488-12.901-21.582 12.463a.5.5 0 0 1 -.516-.856l19.126-11.975-19.779 11.42a.5.5 0 0 1 -.513-.859l14.255-8.807-14.501 8.377a.5.5 0 0 1 -.509-.861l.919-.559-.808.467a.5.5 0 0 1 -.511-.859l8.219-5.038-8.074 4.663a.5.5 0 0 1 -.518-.855l18.205-11.607-17.93 10.349a.5.5 0 0 1 -.52-.853l15.153-9.744-14.387 8.309a.5.5 0 0 1 -.514-.857l6.325-3.942-5.213 3.01a.5.5 0 0 1 -.583-.806l2.714-2.424a.5.5 0 0 1 -.288-.931l3.813-2.2a.5.5 0 0 1 .583.806l-2.534 2.261 26.691-15.411a.5.5 0 0 1 .515.858l-6.338 3.95 6.815-3.934a.5.5 0 0 1 .52.853l-15.149 9.741 19.524-11.273a.5.5 0 0 1 .519.855l-18.205 11.606 21.81-12.592a.5.5 0 0 1 .511.859l-8.234 5.044 9.365-5.408a.5.5 0 0 1 .509.861l-.91.55 1.5-.863a.5.5 0 0 1 .512.859l-14.256 8.806 15.083-8.708a.5.5 0 0 1 .516.857l-19.13 11.975 19.879-11.479a.5.5 0 0 1 .517.857l-20.487 12.9 20.973-12.11a.5.5 0 0 1 .512.86l-10.5 6.444 10.461-6.04a.5.5 0 0 1 .518.855l-19.3 12.217 19.127-11.044a.5.5 0 0 1 .514.858l-11.314 7.024 10.731-6.2a.5.5 0 0 1 .519.855l-15.51 9.92 15.334-8.853a.5.5 0 0 1 .517.856l-10.5 6.644 12.109-6.989a.5.5 0 0 1 .516.856l-9.376 5.923 10.46-6.04a.5.5 0 0 1 .524.851l-13.255 8.658 14.4-8.313a.5.5 0 0 1 .525.851l-11.907 7.812 12.648-7.3a.5.5 0 0 1 .521.852l-8.456 5.479 8.773-5.064a.5.5 0 0 1 .522.852l-6.675 4.332 6.75-3.9a.5.5 0 0 1 .535.844l-9.595 6.664 9.59-5.536a.5.5 0 0 1 .524.85l-3.2 2.106 2.788-1.61a.5.5 0 0 1 .532.846l-4.172 2.858 3.537-2.042a.5.5 0 0 1 .556.829l-5.163 4 3.85-2.223a.5.5 0 0 1 .582.807l-2.687 2.38a.525.525 0 0 1 .448.25.5.5 0 0 1 -.182.683l-3.828 2.21a.5.5 0 0 1 -.582-.807l2.465-2.184-5.955 3.437a.5.5 0 0 1 -.555-.828l5.162-4-8.36 4.828a.5.5 0 0 1 -.532-.844l4.172-2.856-6.417 3.7a.5.5 0 0 1 -.524-.85l3.2-2.1-5.12 2.95a.5.5 0 0 1 -.535-.843l9.596-6.657-13 7.507a.5.5 0 0 1 -.522-.851l6.681-4.336-8.993 5.18a.5.5 0 0 1 -.521-.852l8.455-5.476-10.968 6.328a.5.5 0 0 1 -.524-.85l11.9-7.811-15 8.661a.5.5 0 0 1 -.523-.851l13.26-8.66-16.475 9.511a.5.5 0 0 1 -.517-.855l9.373-5.921-11.737 6.776a.5.5 0 0 1 -.518-.855l10.5-6.645-12.987 7.5a.5.5 0 0 1 -.52-.853l15.512-9.922-18.664 10.775a.5.5 0 0 1 -.25.07z" fill="#ffffff" fill-opacity="1" data-original-color="#d4e9ffff" stroke="none" stroke-opacity="1"/><path d="m10.055 16.144a.5.5 0 0 1 -.282-.914l8.368-5.683-7.785 4.495a.5.5 0 0 1 -.524-.852l3.708-2.438-2.936 1.7a.5.5 0 0 1 -.537-.843l6.193-4.346-4.924 2.842a.5.5 0 0 1 -.536-.845l1.943-1.332-.427.246a.5.5 0 0 1 -.564-.821l3.028-2.447a.5.5 0 0 1 -.144-.922l4.537-2.62a.5.5 0 0 1 .564.822l-2.378 1.923 6.065-3.5a.5.5 0 0 1 .533.846l-1.948 1.334 3.585-2.07a.5.5 0 0 1 .537.843l-6.19 4.338 8.04-4.642a.5.5 0 0 1 .525.851l-3.706 2.44 4.691-2.708a.5.5 0 0 1 .532.847l-8.373 5.684 9.627-5.558a.5.5 0 1 1 .5.866l-21.472 12.4a.494.494 0 0 1 -.25.064z" fill="#ffffff" fill-opacity="1" data-original-color="#d4e9ffff" stroke="none" stroke-opacity="1"/><path d="m12.629 48.464a.5.5 0 0 1 -.348-.86l.906-.874-2.143 1.237a.5.5 0 0 1 -.59-.8l2.851-2.637-3.615 2.086a.5.5 0 0 1 -.562-.823l2.216-1.774-2.057 1.187a.5.5 0 0 1 -.619-.769l1.767-1.937-.263.151a.5.5 0 1 1 -.5-.865l3.062-1.768a.5.5 0 0 1 .62.77l-1.765 1.932 4.957-2.863a.5.5 0 0 1 .562.824l-2.218 1.779 1.782-1.028a.5.5 0 0 1 .59.8l-2.852 2.638 1.807-1.043a.5.5 0 0 1 .6.792l-1.285 1.24a.5.5 0 0 1 .147.922l-2.8 1.615a.49.49 0 0 1 -.25.068z" fill="#ffffff" fill-opacity="1" data-original-color="#4a5ed8ff" stroke="none" stroke-opacity="1"/><path d="m3.787 59.4a.5.5 0 0 1 -.349-.858l2.109-2.053-3.282 1.893a.5.5 0 0 1 -.57-.818l2.377-1.964-2.61 1.5a.5.5 0 0 1 -.547-.835l.336-.248a.5.5 0 0 1 -.576-.8l1.512-1.576-.015.008a.5.5 0 1 1 -.5-.865l3.062-1.768a.5.5 0 0 1 .611.78l-1.512 1.58 4.575-2.642a.5.5 0 0 1 .547.835l-.331.245.088-.05a.5.5 0 0 1 .569.817l-2.374 1.966 1.608-.928a.5.5 0 0 1 .6.791l-2.115 2.055.71-.409a.5.5 0 1 1 .5.865l-4.176 2.41a.489.489 0 0 1 -.247.069z" fill="#ffffff" fill-opacity="1" data-original-color="#4a5ed8ff" stroke="none" stroke-opacity="1"/><path d="m25.613 48.464a.5.5 0 0 1 -.372-.834l1.987-2.218-3.748 2.163a.5.5 0 0 1 -.562-.823l1.563-1.252-1.824 1.053a.5.5 0 0 1 -.562-.823l2.225-1.786-2.034 1.175a.5.5 0 0 1 -.615-.773l1.665-1.786-.164.094a.5.5 0 1 1 -.5-.865l3.062-1.768a.5.5 0 0 1 .616.774l-1.664 1.784 4.814-2.779a.5.5 0 0 1 .563.822l-2.23 1.788 1.849-1.066a.5.5 0 0 1 .562.823l-1.563 1.252.761-.44a.5.5 0 0 1 .623.767l-1.986 2.217.111-.065a.5.5 0 0 1 .5.866l-2.827 1.636a.49.49 0 0 1 -.25.064z" fill="#ffffff" fill-opacity="1" data-original-color="#4a5ed8ff" stroke="none" stroke-opacity="1"/><path d="m17.86 59.442a.5.5 0 0 1 -.373-.833l1.67-1.867-3.466 2a.5.5 0 0 1 -.552-.83l.163-.124-.365.21a.5.5 0 0 1 -.582-.808l3.38-2.989-3.449 1.991a.5.5 0 0 1 -.618-.77l1.752-1.911-.248.142a.5.5 0 1 1 -.5-.865l3.062-1.768a.5.5 0 0 1 .619.771l-1.753 1.909 4.937-2.849a.5.5 0 0 1 .581.807l-3.38 2.988 2.872-1.657a.5.5 0 0 1 .553.83l-.559.426a.641.641 0 0 1 .395.185.5.5 0 0 1 -.015.648l-1.759 1.967a.506.506 0 0 1 .488.247.5.5 0 0 1 -.183.683l-2.422 1.4a.489.489 0 0 1 -.248.067z" fill="#ffffff" fill-opacity="1" data-original-color="#4a5ed8ff" stroke="none" stroke-opacity="1"/><path d="m37.705 48.379a.5.5 0 0 1 -.341-.866l1.8-1.675-2.813 1.624a.5.5 0 0 1 -.573-.816l2.511-2.11-2.808 1.62a.5.5 0 0 1 -.552-.83l1.129-.86-.775.446a.5.5 0 0 1 -.606-.783l1.408-1.435a.5.5 0 0 1 -.414-.905l3.062-1.768a.5.5 0 0 1 .607.784l-1.384 1.41 4.38-2.528a.5.5 0 0 1 .553.83l-1.128.86.947-.547a.5.5 0 0 1 .572.816l-2.51 2.112 1.716-.991a.5.5 0 0 1 .591.8l-1.8 1.676.485-.279a.5.5 0 0 1 .5.865l-4.3 2.485a.5.5 0 0 1 -.257.065z" fill="#ffffff" fill-opacity="1" data-original-color="#4a5ed8ff" stroke="none" stroke-opacity="1"/><path d="m29.653 59.367a.5.5 0 0 1 -.324-.881l.786-.668-1.506.87a.5.5 0 0 1 -.563-.823l1.528-1.231-1.841 1.066a.5.5 0 0 1 -.568-.818l2.665-2.2-2.544 1.469a.5.5 0 0 1 -.616-.773l1.7-1.831-.194.112a.5.5 0 1 1 -.5-.865l3.062-1.768a.5.5 0 0 1 .617.773l-1.7 1.83 4.858-2.8a.5.5 0 0 1 .568.819l-2.666 2.2 2.248-1.3a.5.5 0 0 1 .564.822l-1.527 1.223.692-.4a.5.5 0 0 1 .574.814l-.977.829a.507.507 0 0 1 .482.248.5.5 0 0 1 -.183.683l-4.388 2.533a.491.491 0 0 1 -.247.067z" fill="#ffffff" fill-opacity="1" data-original-color="#4a5ed8ff" stroke="none" stroke-opacity="1"/><path d="m51.964 48.43a.5.5 0 0 1 -.36-.848l.992-1.024-2.496 1.442a.5.5 0 0 1 -.584-.8l2.484-2.232-3.194 1.842a.5.5 0 0 1 -.586-.8l3.48-3.165-3.414 1.97a.5.5 0 0 1 -.6-.787l1.319-1.313a.5.5 0 0 1 -.333-.926l3.062-1.768a.5.5 0 0 1 .6.788l-1.232 1.226 4.136-2.388a.5.5 0 0 1 .586.8l-3.48 3.16 3.3-1.9a.5.5 0 0 1 .583.8l-2.476 2.223 1.436-.829a.5.5 0 0 1 .61.781l-1.438 1.486a.5.5 0 0 1 .082.9l-2.229 1.287a.49.49 0 0 1 -.248.075z" fill="#ffffff" fill-opacity="1" data-original-color="#4a5ed8ff" stroke="none" stroke-opacity="1"/><path d="m42.479 59.325a.5.5 0 0 1 -.354-.853l2.7-2.7-3.878 2.239a.5.5 0 0 1 -.567-.819l2.571-2.115-2.62 1.513a.5.5 0 0 1 -.552-.832l.443-.334a.5.5 0 0 1 -.457-.857l.98-.879a.5.5 0 0 1 -.071-.9l3.062-1.768a.5.5 0 0 1 .584.8l-.309.278 2.6-1.5a.5.5 0 0 1 .552.832l-.321.242.861-.5a.5.5 0 0 1 .568.818l-2.571 2.123 1.913-1.1a.5.5 0 0 1 .6.786l-2.7 2.7 1.371-.791a.5.5 0 0 1 .5.865l-4.657 2.689a.494.494 0 0 1 -.248.063z" fill="#ffffff" fill-opacity="1" data-original-color="#4a5ed8ff" stroke="none" stroke-opacity="1"/><g fill="#262626"><path d="m10.965 36.455c13.529-.432 28.038.892 41.336-.563 10.767-3.569 9.285-18.969-2.012-20.266 2.7-8.945-7.847-15.548-15.079-10.088-8.9-10.232-26.5-3.441-25.9 10.207-12.82 2.314-11.476 20.617 1.655 20.71zm-1-19.955c.334-.038.836-.237.81-.644a13.185 13.185 0 0 1 23.536-9.229c.3.362.984.1 1.259-.142 6.518-5.73 16.141 1.791 13.172 9.615-.085.252.289.366.458.377 10.393.589 12.464 15.679 2.4 18.74-13.3.737-28.177.324-41.631.243-10.724-1.552-10.937-17.593-.005-18.96z" fill="#262626" fill-opacity="1" data-original-color="#262626ff" stroke="none" stroke-opacity="1"/><path d="m15.637 39.6c-2.839.177-6.506 1.2-7.281 4.323a3.728 3.728 0 0 0 2.679 4.335c4.424 1.2 6.975-3.9 6.675-7.641.048-1.105-1.299-1.067-2.073-1.017zm-.049 5.276c-1.062 3.562-5.239 3.554-5.849-.164-.22-3.245 3.678-4.413 6.284-4.268.663 1.208-.07 3.145-.435 4.435z" fill="#262626" fill-opacity="1" data-original-color="#262626ff" stroke="none" stroke-opacity="1"/><path d="m3.017 59.351c4.485 1.323 6.924-3.892 6.719-7.643-.318-2.181-3.36-1.042-4.815-.833-4.391.725-6.846 6.556-1.904 8.476zm-.729-5.637c1.234-1.651 3.487-2.058 5.426-2.148.237-.009.529-.1.55.237.1 9.738-8.632 7.206-5.976 1.911z" fill="#262626" fill-opacity="1" data-original-color="#262626ff" stroke="none" stroke-opacity="1"/><path d="m28.638 39.606c-2.838.178-6.506 1.2-7.282 4.321a3.725 3.725 0 0 0 2.678 4.331c4.424 1.2 6.976-3.893 6.676-7.638.048-1.107-1.3-1.067-2.072-1.014zm-.05 5.274c-1.062 3.566-5.238 3.554-5.849-.165-.222-3.245 3.676-4.42 6.284-4.27.664 1.207-.07 3.144-.435 4.435z" fill="#262626" fill-opacity="1" data-original-color="#262626ff" stroke="none" stroke-opacity="1"/><path d="m20.612 50.509c-13.12.815-5.788 14.442.707 6.688a10 10 0 0 0 1.405-5.635c-.068-1.095-1.297-1.096-2.112-1.053zm.653 1.379c.034 9.881-8.748 7.005-5.927 1.708 1.327-1.684 3.736-2.073 5.755-2.072a.449.449 0 0 1 .172.364z" fill="#262626" fill-opacity="1" data-original-color="#262626ff" stroke="none" stroke-opacity="1"/><path d="m41.715 39.655c-2.837.2-6.559 1.153-7.355 4.288a3.651 3.651 0 0 0 2.689 4.283c4.458 1.107 6.921-3.878 6.675-7.665-.064-1.027-1.262-.952-2.009-.906zm-.142 5.288c-1.146 3.7-5.29 3.445-5.842-.325-.14-3.2 3.648-4.408 6.268-4.211.727 1.271-.042 3.184-.426 4.536z" fill="#262626" fill-opacity="1" data-original-color="#262626ff" stroke="none" stroke-opacity="1"/><path d="m30.926 50.9c-4.379.726-6.861 6.526-1.913 8.442 4.477 1.311 6.931-3.883 6.721-7.634-.326-2.165-3.362-1.016-4.808-.808zm3.34.914c.1 9.759-8.624 7.223-5.982 1.891 1.228-1.658 3.486-2.063 5.425-2.154.248-.013.534-.095.557.258z" fill="#262626" fill-opacity="1" data-original-color="#262626ff" stroke="none" stroke-opacity="1"/><path d="m55.324 46.066a10.031 10.031 0 0 0 1.4-5.5c-.064-1.026-1.263-.941-2.006-.9-2.833.2-6.559 1.149-7.357 4.28a3.635 3.635 0 0 0 2.667 4.268 4.93 4.93 0 0 0 5.296-2.148zm-6.593-1.448c-.158-2.674 2.625-4.029 4.93-4.194.556 0 1.578-.348 1.615.526a10.934 10.934 0 0 1 -.7 4c-1.148 3.718-5.287 3.441-5.845-.332z" fill="#262626" fill-opacity="1" data-original-color="#262626ff" stroke="none" stroke-opacity="1"/><path d="m46.611 50.5c-13.123.816-5.78 14.456.708 6.7a10.018 10.018 0 0 0 1.4-5.637c-.063-1.097-1.292-1.101-2.108-1.063zm.654 1.382c.034 9.876-8.75 7-5.926 1.714 1.329-1.684 3.735-2.071 5.755-2.073a.442.442 0 0 1 .171.363z" fill="#262626" fill-opacity="1" data-original-color="#262626ff" stroke="none" stroke-opacity="1"/></g></g></svg>