<svg id="Icon" viewBox="0 0 60 60" xmlns="http://www.w3.org/2000/svg" width="300" height="300" version="1.1" xmlns:xlink="http://www.w3.org/1999/xlink" xmlns:svgjs="http://svgjs.dev/svgjs"><g width="100%" height="100%" transform="matrix(1,0,0,1,0,0)"><path d="m53.139 57.252c-.116 0-.232-.041-.325-.12-.161-.138-.218-.362-.142-.56l.3-.776-1.515.874c-.193.113-.435.081-.596-.071-.16-.154-.2-.395-.098-.592l.877-1.686-2.587 1.493c-.21.124-.48.073-.636-.114-.155-.189-.151-.462.009-.646l1.356-1.559-2.574 1.486c-.216.127-.495.071-.647-.129s-.133-.481.046-.659l1.839-1.823-2.924 1.688c-.218.129-.502.069-.653-.138-.151-.206-.122-.492.066-.664l2.413-2.202-3.419 1.974c-.227.135-.522.063-.668-.158-.146-.223-.093-.519.121-.677l.09-.066-.434.25c-.226.131-.517.065-.663-.151-.147-.217-.103-.511.103-.673l2.578-2.044-3.243 1.872c-.232.135-.524.062-.67-.161-.145-.223-.089-.521.127-.677l4.641-3.357-9.847 5.684c-.233.136-.53.061-.674-.167-.143-.229-.079-.529.144-.68l8.729-5.902-12.548 7.244c-.235.139-.535.06-.678-.173-.141-.232-.07-.535.159-.682l6.74-4.3-8.948 5.166c-.238.138-.539.059-.679-.176-.141-.233-.067-.537.164-.682l3.98-2.48-5.536 3.196c-.238.137-.54.058-.68-.176-.14-.235-.065-.538.167-.683l3.219-1.988-4.529 2.614c-.238.137-.539.058-.679-.176-.141-.234-.066-.538.165-.682l6.94-4.306-8.337 4.813c-.236.139-.537.06-.678-.174s-.069-.536.16-.682l15.242-9.647-17.122 9.885c-.237.138-.539.059-.68-.177-.14-.234-.065-.538.168-.682l7.697-4.733-8.786 5.072c-.238.137-.538.058-.679-.176s-.066-.538.165-.682l12.986-8.054-14.237 8.22c-.238.137-.54.059-.68-.177s-.064-.539.168-.682l9.399-5.765-10.328 5.963c-.238.137-.54.058-.68-.176-.14-.235-.065-.538.167-.683l14.322-8.851-15.385 8.882c-.235.138-.537.061-.679-.175-.141-.233-.068-.536.163-.682l20.836-13.078-22.169 12.8c-.238.138-.54.058-.681-.179-.14-.235-.062-.54.172-.682l2.618-1.583-3.073 1.774c-.236.138-.538.06-.679-.175-.141-.233-.067-.537.163-.682l21.842-13.676-22.957 13.254c-.238.138-.54.059-.68-.177s-.065-.539.168-.682l14.834-9.106-15.479 8.937c-.238.138-.538.058-.679-.175-.141-.234-.067-.537.164-.682l22.463-14.043-23.334 13.472c-.238.137-.54.058-.68-.176-.14-.235-.065-.539.167-.683l18.416-11.375-18.988 10.963c-.238.138-.54.059-.68-.177s-.065-.539.168-.682l15.771-9.686-16.165 9.333c-.237.137-.539.059-.68-.177-.14-.234-.065-.538.167-.682l17.512-10.796-17.866 10.314c-.239.138-.541.057-.68-.178-.14-.235-.064-.54.17-.682l9.775-5.948-9.891 5.71c-.236.138-.537.06-.679-.175-.141-.233-.067-.537.163-.682l22.235-13.919-22.559 13.039c-.239.138-.541.058-.681-.179-.14-.235-.062-.54.172-.682l3.424-2.069-3.32 1.916c-.237.137-.54.058-.679-.176-.141-.234-.066-.538.165-.682l17.226-10.666-17.239 9.953c-.238.137-.541.058-.68-.178-.14-.235-.064-.539.17-.682l7.602-4.629-7.408 4.276c-.239.138-.541.057-.681-.178-.14-.236-.062-.54.172-.683l3.536-2.144-3.258 1.88c-.236.138-.537.061-.678-.174-.141-.233-.069-.536.161-.682l20.067-12.669-19.807 11.438c-.237.138-.539.059-.68-.177-.14-.235-.064-.539.168-.683l7.807-4.784-7.36 4.249c-.236.138-.534.06-.678-.173-.141-.232-.07-.535.158-.682l18.876-12.053-18.262 10.545c-.235.138-.536.06-.678-.174-.141-.233-.069-.536.161-.682l13.473-8.49-12.662 7.311c-.236.139-.536.06-.678-.173-.141-.232-.07-.535.159-.682l13.097-8.345-12.02 6.939c-.235.137-.534.061-.676-.171-.143-.231-.074-.533.153-.681l12.847-8.359-11.315 6.532c-.237.138-.539.058-.679-.175-.141-.234-.067-.537.164-.682l1.28-.8c-.221.077-.47-.004-.595-.208-.143-.229-.076-.53.148-.68l7.2-4.764-4.836 2.791c-.228.133-.521.062-.666-.155-.146-.22-.097-.515.112-.675l5.545-4.229c-.222.078-.479-.008-.601-.221-.139-.239-.057-.545.183-.683l6.618-3.82c.227-.135.521-.063.666.155.146.22.097.515-.112.675l-5.49 4.188 12.277-7.088c.233-.137.533-.062.675.17.143.229.076.53-.148.68l-7.193 4.76 10.384-5.995c.236-.139.538-.059.679.175s.067.537-.164.682l-1.111.694 2.731-1.576c.236-.137.534-.06.676.171.143.231.074.533-.153.681l-12.843 8.357 15.585-8.998c.237-.137.537-.059.678.173s.07.535-.159.682l-13.105 8.35 15.233-8.794c.237-.137.537-.059.678.174s.069.536-.161.682l-13.464 8.484 15.25-8.805c.236-.136.536-.059.678.173.141.232.07.535-.158.682l-18.88 12.055 20.937-12.087c.237-.139.539-.06.68.177.14.235.064.539-.168.683l-7.809 4.785 8.765-5.06c.238-.137.537-.06.678.174s.069.536-.161.682l-20.061 12.665 21.679-12.517c.237-.139.54-.058.681.178.14.236.062.54-.172.683l-3.574 2.167 4.183-2.414c.237-.138.54-.059.68.178.14.235.064.539-.17.682l-7.582 4.617 8.25-4.763c.237-.139.539-.06.679.176.141.234.066.538-.165.682l-17.229 10.668 18.197-10.506c.237-.139.54-.058.681.179.14.235.062.54-.172.682l-3.43 2.073 3.853-2.224c.238-.136.538-.059.679.175s.067.537-.163.682l-22.241 13.922 23.281-13.44c.238-.14.54-.058.68.178s.064.54-.17.682l-9.763 5.94 10.193-5.885c.237-.138.539-.06.68.177.14.234.065.538-.167.682l-17.513 10.797 18.107-10.454c.237-.138.539-.06.68.177.14.235.065.539-.168.682l-15.759 9.678 16.201-9.354c.236-.139.538-.06.68.176.14.235.065.539-.167.683l-18.428 11.382 18.871-10.895c.237-.138.537-.059.679.175.141.234.067.537-.164.682l-22.46 14.041 22.948-13.249c.236-.139.538-.06.68.177.14.235.065.539-.168.682l-14.837 9.108 14.991-8.655c.237-.137.538-.058.679.175s.067.537-.163.682l-21.852 13.682 22.089-12.752c.237-.14.54-.059.681.179.14.235.062.54-.172.682l-2.54 1.535 2.379-1.373c.237-.136.538-.06.679.175.141.233.068.536-.163.682l-20.846 13.084 20.841-12.032c.236-.139.538-.06.68.176.14.235.065.538-.167.683l-14.309 8.843 14.079-8.129c.236-.138.538-.06.68.177.14.235.064.539-.168.682l-9.437 5.787 9.081-5.242c.236-.138.539-.059.679.176.141.234.066.538-.165.682l-12.972 8.044 12.531-7.234c.236-.138.538-.06.68.177.14.234.065.538-.168.682l-7.691 4.729 7.129-4.115c.236-.137.537-.06.678.174s.069.536-.16.682l-15.246 9.65 14.479-8.359c.236-.139.538-.06.679.176.141.234.066.538-.165.682l-6.931 4.299 6.073-3.506c.237-.139.539-.06.68.176.14.235.065.538-.167.683l-3.204 1.979 2.247-1.297c.236-.139.538-.06.679.176.141.233.067.537-.164.682l-4.013 2.501 2.877-1.661c.237-.137.536-.059.678.173.141.232.07.535-.159.682l-6.732 4.294 5.169-2.983c.233-.136.531-.06.674.167.143.229.079.529-.144.68l-8.734 5.905 6.061-3.498c.228-.135.524-.062.67.161.145.223.089.521-.127.677l-4.643 3.359.727-.419c.224-.133.517-.065.663.151.147.217.103.511-.103.673l-2.575 2.041 2.212-1.276c.229-.133.522-.062.668.158.146.223.093.519-.121.677l-.224.166c.19-.053.402.021.525.189.151.206.122.492-.066.664l-2.414 2.203 2.275-1.313c.215-.127.494-.071.647.129.152.2.133.481-.046.659l-1.838 1.822 1.822-1.052c.211-.124.48-.074.636.114.155.189.151.462-.009.646l-1.356 1.559 1.479-.854c.192-.11.435-.082.596.071.16.153.2.395.098.592l-.877 1.687 1.256-.725c.184-.105.414-.084.575.053.161.138.218.362.142.56l-.3.776.469-.271c.238-.14.545-.057.683.183.139.239.057.545-.183.683l-1.695.979c-.078.045-.164.067-.25.067z" fill="#ffffff" fill-opacity="1" data-original-color="#41ac4eff" stroke="none" stroke-opacity="1"/><path d="m36.433 33.93c-.172 0-.341-.09-.433-.25-.139-.239-.057-.545.183-.683l1.794-1.036c.239-.14.546-.058.683.183.139.239.057.545-.183.683l-1.794 1.036c-.079.046-.165.067-.25.067z" fill="#ffffff" fill-opacity="1" data-original-color="#64e570ff" stroke="none" stroke-opacity="1"/><path d="m37.121 43.462c-.162 0-.321-.079-.417-.225-.146-.221-.095-.517.117-.676l1.13-.846-2.55 1.472c-.229.133-.525.062-.67-.161-.145-.224-.088-.521.128-.678l1.323-.951-2.401 1.386c-.226.132-.515.064-.663-.15-.147-.216-.104-.51.101-.673l4.21-3.367-5.815 3.356c-.225.132-.514.065-.662-.149-.147-.215-.105-.507.097-.672l4.688-3.803-6.158 3.555c-.228.134-.523.064-.669-.159-.145-.223-.091-.52.123-.677l2.933-2.155-3.719 2.146c-.219.129-.505.068-.655-.14s-.118-.496.073-.667l.877-.779-1.395.805c-.218.129-.502.069-.653-.138-.151-.206-.122-.493.067-.665l.913-.83-1.395.805c-.22.13-.507.069-.656-.142-.15-.209-.117-.497.076-.667l.562-.493-.909.524c-.217.126-.495.07-.647-.129-.152-.2-.133-.482.046-.659l1.31-1.296-1.844 1.063c-.222.132-.51.067-.659-.145-.148-.212-.111-.502.086-.67l.142-.12-.335.193c-.212.123-.482.073-.639-.117-.154-.191-.147-.467.017-.649l1.704-1.899-2.355 1.359c-.216.126-.495.071-.647-.129-.152-.199-.133-.481.045-.658l1.312-1.304-1.702.982c-.218.129-.503.07-.655-.14-.15-.207-.119-.495.072-.666l.643-.574-.818.472c-.221.131-.507.067-.656-.142-.149-.208-.117-.497.076-.666l.505-.444-.622.358c-.212.123-.483.073-.638-.117s-.148-.465.015-.648l1.853-2.076-2.302 1.328c-.217.127-.497.07-.649-.131-.151-.202-.13-.485.052-.661l1.385-1.343-1.548.894c-.217.126-.498.069-.65-.133-.151-.203-.128-.487.056-.662l2.091-1.991-2.28 1.316c-.229.133-.521.063-.666-.156-.146-.22-.097-.516.114-.675l2.534-1.922-2.549 1.471c-.229.133-.521.063-.666-.155-.146-.22-.097-.515.113-.675l2.939-2.241-2.876 1.66c-.227.135-.523.063-.669-.159-.145-.223-.091-.521.124-.677l1.57-1.149-1.338.772c-.228.135-.521.064-.668-.158-.146-.222-.093-.518.12-.676l1.739-1.291-1.389.802c-.227.133-.518.064-.665-.153-.146-.218-.1-.513.108-.674l2.474-1.924-1.959 1.131c-.222.129-.508.067-.657-.143-.149-.211-.115-.5.08-.668l3.346-2.89-2.339 1.35c-.217.126-.497.069-.649-.132-.152-.202-.129-.486.053-.661l2.158-2.072c-.166-.007-.324-.096-.413-.25-.139-.239-.057-.545.183-.683l3.062-1.768c.216-.129.496-.07.649.132.152.202.129.486-.053.661l-1.925 1.849 3.347-1.932c.224-.131.509-.065.657.143.149.211.115.5-.08.668l-3.345 2.889 3.685-2.127c.226-.134.518-.064.665.153.146.218.1.513-.108.674l-2.473 1.923 2.629-1.518c.229-.134.523-.062.668.158.146.222.093.518-.12.676l-1.745 1.295 1.821-1.051c.229-.134.524-.063.669.159s.091.521-.124.677l-1.565 1.146 1.624-.938c.227-.134.52-.063.666.155.146.22.097.515-.113.675l-2.94 2.242 2.68-1.547c.227-.134.52-.064.667.156.146.22.096.516-.115.675l-3.204 2.431c.128.018.248.085.331.195.151.203.128.487-.056.662l-2.093 1.993 1.416-.817c.216-.129.496-.071.649.131.151.202.13.485-.052.661l-1.385 1.343 1.497-.864c.211-.125.482-.073.638.117s.148.465-.015.648l-1.854 2.077 2.294-1.323c.222-.13.507-.068.656.142.149.208.117.497-.076.666l-.505.444.639-.368c.221-.128.504-.069.655.14.15.207.119.495-.072.666l-.639.571.843-.486c.216-.128.494-.072.647.129.152.199.133.481-.045.658l-1.312 1.304 1.744-1.007c.211-.125.481-.073.639.117.154.191.147.467-.017.649l-1.705 1.901 2.423-1.398c.224-.131.511-.067.659.145s.111.502-.086.67l-.142.12.393-.227c.215-.127.494-.072.647.129.152.2.133.482-.046.659l-1.308 1.295 1.943-1.122c.221-.128.507-.068.656.142.15.209.117.497-.076.667l-.562.493 1.034-.597c.219-.128.503-.068.653.138.151.206.122.493-.067.665l-.913.83 1.614-.932c.221-.128.506-.068.655.14.15.208.119.496-.073.667l-.878.78 7.316-4.224c.229-.134.524-.062.669.159s.091.52-.123.677l-2.935 2.157 3.784-2.185c.224-.132.514-.066.662.149.147.215.105.507-.097.672l-4.688 3.803 6.063-3.5c.225-.133.515-.065.663.15.147.216.104.51-.101.673l-4.211 3.368 5.34-3.082c.229-.136.524-.063.67.161.145.224.088.521-.128.678l-1.32.949 1.154-.666c.227-.135.521-.064.667.157s.095.517-.117.676l-1.132.848.157-.091c.224-.131.512-.067.66.146s.109.504-.09.67l-1.52 1.267c.062.042.117.099.157.168.139.239.057.545-.183.683l-3.271 1.888c-.224.132-.512.066-.66-.146s-.109-.504.09-.67l.275-.229-2.378 1.372c-.078.046-.165.067-.25.067z" fill="#ffffff" fill-opacity="1" data-original-color="#64e570ff" stroke="none" stroke-opacity="1"/><g fill="#262626"><path d="m8.943 46.064c8.647 7.366 21.572 9.271 32.195 5.402 2.424 2.003 12.534 8.555 14.586 4.647-2.052-3.228-4.187-6.61-4.274-10.667 20.175-18.133.175-45.509-23.597-42.757-22.551.574-37.96 27.059-18.91 43.375zm15.064-42.163c15.312-3.123 34.031 7.128 34.266 23.968-.11 16.045-11.746 13.912-6.876 23.811-.022 1.074 4.079 5.122 2.049 4.694-4.785-.556-8.356-4.385-12.207-5.706-9.206 3.595-20.461 2.197-28.587-3.358-19.47-12.914-10.539-40.197 11.355-43.409z" fill="#262626" fill-opacity="1" data-original-color="#262626ff" stroke="none" stroke-opacity="1"/><path d="m25.626 38.748c11.401 10.629 25.446.367 17.92-4.297-9.164-6.99-6.737 3.118-11.955-.187-2.865-2.319-9.107-6.638-8.213-10.627 3.056-2.642 3.973-4.103 1.216-7.548-4.769-11.28-20.689 6.375 1.031 22.659zm-9.361-21.182c3.433-6.062 5.441-4.562 8.014.914 1.66 2.171-1.295 3.414-2.349 4.982-2.016 3.608 9.824 15.65 13.322 11.941.649-.61 1.935-2.562 2.936-2.478 1.077.356 2.02 1.186 3.055 1.691.963.558 3.004 1.285 3.015 2.598-6.449 15.98-32.564-8.4-27.992-19.649z" fill="#262626" fill-opacity="1" data-original-color="#262626ff" stroke="none" stroke-opacity="1"/></g></g></svg>