<svg id="Icons" viewBox="0 0 60 60" xmlns="http://www.w3.org/2000/svg" width="300" height="300" version="1.1" xmlns:xlink="http://www.w3.org/1999/xlink" xmlns:svgjs="http://svgjs.dev/svgjs"><g width="100%" height="100%" transform="matrix(1,0,0,1,0,0)"><path d="m41.128 59.189c-.166 0-.329-.083-.424-.234-.143-.228-.08-.527.143-.679l6.741-4.593-9.105 5.257c-.235.135-.531.06-.674-.168-.143-.229-.079-.529.145-.68l8.706-5.86-10.439 6.026c-.236.138-.536.06-.678-.174-.141-.233-.069-.536.161-.682l1.774-1.121-2.682 1.548c-.235.139-.536.06-.678-.174-.141-.232-.069-.535.16-.681l4.063-2.577-5.122 2.957c-.235.137-.534.061-.677-.172-.142-.23-.072-.533.154-.681l9.777-6.34-11.36 6.559c-.235.138-.537.059-.679-.175-.141-.234-.067-.537.163-.682l4.117-2.575-5.141 2.968c-.238.138-.539.059-.679-.176-.141-.233-.067-.537.164-.682l4.202-2.616-5.219 3.013c-.238.137-.538.058-.679-.176s-.067-.537.165-.682l5.333-3.317-6.404 3.697c-.236.138-.535.06-.678-.173-.141-.232-.07-.535.158-.681l14.069-8.992-15.853 9.152c-.236.138-.537.06-.678-.174s-.069-.537.161-.682l13.147-8.283-14.733 8.506c-.237.138-.54.059-.679-.176-.141-.234-.066-.538.166-.682l9.231-5.712-10.572 6.104c-.236.138-.538.061-.679-.175-.141-.233-.068-.536.163-.682l16.008-10.045-22.786 13.155c-.238.138-.541.058-.681-.178s-.062-.54.171-.683l7.007-4.25-11.724 6.768c-.238.138-.54.059-.679-.176-.141-.234-.066-.538.165-.682l23.936-14.83-29.167 16.848c-.239.137-.542.058-.681-.18-.14-.236-.062-.541.174-.682l.639-.383-.712.411c-.238.138-.54.059-.68-.177-.14-.234-.065-.538.168-.682l19.638-12.074-19.195 11.082c-.238.138-.54.059-.68-.177s-.065-.539.168-.682l12.827-7.878-12.315 7.11c-.235.138-.536.061-.678-.174-.141-.232-.07-.535.159-.681l18.177-11.552-17.658 10.196c-.235.138-.536.061-.678-.175-.141-.232-.069-.536.161-.681l13.781-8.677-13.265 7.658c-.238.137-.54.059-.68-.177-.14-.234-.065-.538.167-.682l5.155-3.18-4.643 2.68c-.238.137-.54.059-.68-.177-.14-.234-.065-.538.167-.682l3.118-1.921-2.605 1.504c-.235.138-.536.06-.678-.174-.141-.233-.069-.536.161-.682l9.219-5.811-8.702 5.023c-.235.136-.535.06-.677-.173-.142-.231-.072-.533.156-.681l11.128-7.148-10.607 6.124c-.235.138-.537.061-.679-.175-.141-.233-.068-.536.163-.682l4.253-2.668-3.737 2.157c-.235.136-.534.062-.675-.17-.143-.229-.076-.53.148-.68l11.32-7.497-10.794 6.231c-.235.137-.534.06-.676-.171s-.074-.532.152-.68l7.961-5.213-7.438 4.294c-.235.138-.536.06-.678-.174-.141-.232-.07-.535.159-.681l1.676-1.065-1.157.668c-.235.137-.534.061-.677-.172-.142-.231-.072-.533.155-.681l3.461-2.241-2.939 1.696c-.23.136-.527.062-.671-.163-.145-.226-.086-.524.133-.679l5.753-4.053-5.215 3.011c-.222.13-.509.067-.658-.144s-.113-.501.083-.669l3.039-2.599-2.464 1.423c-.208.121-.475.076-.631-.108s-.159-.453-.007-.64l.508-.625c-.149-.019-.29-.104-.371-.246-.139-.239-.057-.545.183-.683l1.862-1.075c.207-.122.475-.076.631.108s.159.453.007.64l-.329.404 4.812-2.778c.221-.13.508-.068.658.144.149.211.113.501-.083.669l-3.041 2.6 10.117-5.841c.229-.136.527-.062.671.163.145.226.086.524-.133.679l-5.754 4.054 10.262-5.925c.236-.136.534-.061.677.172.142.231.072.533-.155.681l-3.457 2.239 4.528-2.614c.237-.137.537-.06.678.174.141.232.07.535-.159.681l-1.669 1.061 2.577-1.487c.235-.137.534-.061.676.171.142.23.074.532-.152.68l-7.969 5.218 9.463-5.463c.234-.137.533-.062.675.17.143.229.076.53-.148.68l-11.326 7.501 13.212-7.627c.236-.137.538-.06.679.175.141.233.068.536-.163.682l-4.234 2.656 5.276-3.046c.235-.137.535-.06.677.173.142.231.072.533-.156.681l-11.134 7.151 12.754-7.362c.237-.137.537-.06.678.174s.069.536-.161.682l-9.223 5.813 10.579-6.107c.236-.138.538-.06.68.177.14.234.065.538-.167.682l-3.098 1.908 4.038-2.331c.236-.139.538-.06.68.177.14.234.065.538-.167.682l-5.175 3.192 6.208-3.584c.237-.136.538-.06.678.175.141.232.069.536-.161.681l-13.776 8.674 15.389-8.885c.238-.137.537-.06.678.174.141.232.07.535-.159.681l-18.174 11.55 23.881-13.787c.237-.138.539-.06.68.177.14.235.065.539-.168.682l-12.838 7.885 18.577-10.726c.236-.139.538-.06.68.177.14.234.065.538-.168.682l-19.635 12.072 25.407-14.668c.236-.14.541-.06.681.18.14.236.062.541-.174.682l-.617.369 1.013-.584c.236-.138.539-.059.679.176.141.234.066.538-.165.682l-23.936 14.83 23.688-13.676c.238-.139.54-.058.681.178.14.236.062.54-.171.683l-7.007 4.251 6.497-3.751c.238-.136.538-.06.679.175.141.233.068.536-.163.682l-16.005 10.043 15.489-8.942c.236-.138.539-.059.679.176.141.234.066.538-.166.682l-9.234 5.714 8.722-5.035c.238-.137.537-.06.678.174s.069.537-.161.682l-13.146 8.283 12.63-7.292c.238-.136.536-.059.678.173.141.232.07.535-.158.681l-14.075 8.996 13.556-7.826c.236-.139.538-.06.679.176.141.233.067.537-.165.682l-5.332 3.316 4.818-2.781c.236-.139.538-.06.679.176.141.233.067.537-.164.682l-4.196 2.612 3.682-2.125c.238-.137.538-.058.679.175.141.234.067.537-.163.682l-4.119 2.576 3.604-2.08c.235-.136.534-.061.677.172.142.23.073.533-.154.681l-9.779 6.341 9.257-5.344c.238-.136.537-.059.678.174s.069.535-.16.681l-4.066 2.579 3.549-2.049c.238-.136.537-.06.678.174s.069.536-.161.682l-1.778 1.124 1.262-.729c.233-.137.53-.061.674.168.143.229.079.529-.145.68l-8.702 5.858 8.173-4.719c.234-.134.531-.062.674.167.143.228.08.527-.143.679l-6.742 4.593 6.211-3.585c.234-.134.531-.062.674.167s.079.528-.144.68l-1.391.942.86-.496c.229-.134.523-.062.669.159.145.223.091.52-.123.677l-.643.471.097-.056c.204-.119.466-.078.624.101.157.177.169.44.027.631l-.651.874c.191-.035.396.064.5.245.139.239.057.545-.183.683l-1.859 1.073c-.203.121-.466.079-.624-.101-.157-.177-.169-.44-.027-.631l.595-.798-5.956 3.438c-.227.135-.523.063-.669-.159-.145-.223-.091-.52.123-.677l.643-.471-4.909 2.834c-.232.136-.53.062-.674-.167-.143-.229-.079-.528.144-.68l1.391-.942-5.835 3.368c-.079.046-.165.067-.25.067z" fill="#ffffff" fill-opacity="1" data-original-color="#ffcf36ff" stroke="none" stroke-opacity="1"/><path d="m38.654 59.135c-.124 0-.247-.046-.342-.136-.161-.15-.204-.389-.106-.587l.609-1.227-2.113 1.219c-.218.127-.498.07-.649-.132-.151-.201-.13-.484.052-.66l.644-.624-1.628.939c-.214.127-.492.073-.646-.127-.153-.197-.137-.478.039-.656l2.547-2.59-4.506 2.601c-.222.13-.508.067-.657-.143s-.115-.499.08-.668l3.725-3.227-5.675 3.276c-.227.132-.516.064-.663-.151s-.104-.509.102-.672l4.98-3.969-6.97 4.023c-.227.136-.521.063-.668-.158-.146-.223-.093-.52.121-.677l5.609-4.142-7.4 4.272c-.235.135-.532.061-.675-.169s-.077-.53.147-.68l1.95-1.297-2.931 1.691c-.233.136-.53.062-.674-.167-.143-.228-.08-.528.143-.679l5.326-3.62-6.728 3.884c-.235.137-.534.061-.677-.172-.142-.23-.072-.533.154-.681l2.279-1.478-3.175 1.833c-.233.137-.527.062-.673-.165-.144-.227-.082-.526.139-.679l9.834-6.799-9.3 5.369c-.235.135-.532.06-.675-.168-.143-.229-.077-.53.146-.68l7.509-5.031-6.98 4.029c-.236.136-.533.06-.676-.17-.142-.23-.075-.532.151-.681l5.436-3.57-4.911 2.835c-.235.136-.532.061-.675-.169-.143-.229-.077-.529.147-.68l7.266-4.855-6.738 3.89c-.235.136-.532.061-.675-.169s-.077-.53.147-.68l6.819-4.537-6.292 3.633c-.235.135-.533.061-.676-.17-.142-.229-.075-.531.15-.68l6.043-3.99-5.518 3.185c-.233.136-.53.062-.674-.167-.143-.228-.08-.527.143-.679l7.269-4.951-6.737 3.89c-.23.134-.525.062-.67-.161s-.088-.521.128-.678l7.694-5.531-7.152 4.13c-.227.134-.521.063-.668-.158-.146-.221-.093-.517.119-.675l6.448-4.808-5.899 3.405c-.227.134-.523.064-.668-.159-.146-.222-.092-.519.121-.676l4.03-2.97-3.483 2.011c-.224.131-.511.066-.659-.146s-.111-.503.087-.669l4.319-3.642-3.747 2.163c-.227.134-.523.064-.669-.159-.145-.222-.091-.519.122-.676l.357-.264c-.169.025-.364-.054-.473-.213-.147-.216-.104-.509.099-.673l.775-.625-.212.122c-.213.126-.488.073-.644-.124-.153-.195-.14-.474.032-.654l1.365-1.429-.754.435c-.203.119-.463.078-.622-.098-.157-.176-.171-.438-.032-.629l.599-.823c-.162.067-.35.047-.493-.06-.16-.12-.233-.323-.188-.518l.206-.865c-.061-.041-.113-.096-.152-.163-.139-.239-.057-.545.182-.684l.386-.224c.174-.1.39-.088.55.031s.233.323.188.518l-.116.489.972-.561c.203-.119.464-.079.622.098.157.176.171.438.032.629l-.593.815 1.736-1.002c.213-.125.488-.073.644.124.153.195.14.474-.032.654l-1.365 1.429 2.775-1.602c.224-.131.516-.064.662.149.147.216.104.509-.099.673l-.774.624 1.721-.993c.229-.133.524-.063.668.159.146.222.092.519-.121.676l-.072.053.851-.49c.224-.132.511-.065.659.146.148.212.111.503-.087.669l-4.318 3.641 6.359-3.671c.229-.133.524-.063.668.159.146.222.092.519-.121.676l-4.029 2.97 5.527-3.191c.229-.134.522-.062.668.158s.093.517-.119.675l-6.446 4.807 8.445-4.876c.228-.135.524-.063.67.161.145.224.088.521-.128.678l-7.693 5.53 9.696-5.599c.234-.135.531-.062.674.167.143.228.08.527-.143.679l-7.273 4.955 8.3-4.792c.233-.137.532-.062.676.17.142.229.075.531-.15.68l-6.044 3.991 5.521-3.187c.234-.137.531-.062.675.169.143.229.077.53-.147.68l-6.82 4.537 6.295-3.634c.233-.137.531-.062.675.169.143.229.077.529-.147.68l-7.259 4.852 6.733-3.888c.235-.138.533-.06.676.17.142.23.075.532-.151.681l-5.446 3.577 4.924-2.842c.234-.137.531-.061.675.168.143.229.077.53-.146.68l-7.503 5.027 6.977-4.027c.234-.135.528-.061.673.165.144.227.082.526-.139.679l-9.835 6.799 9.303-5.37c.235-.137.534-.061.677.172.142.23.072.533-.154.681l-2.29 1.484 1.77-1.021c.235-.135.531-.062.674.167.143.228.08.528-.143.679l-5.324 3.618 4.795-2.768c.233-.138.531-.061.675.169.143.229.077.53-.147.68l-1.942 1.292 1.416-.817c.229-.134.523-.062.668.158.146.223.093.52-.121.677l-5.611 4.143 5.067-2.925c.225-.133.515-.065.663.151.147.216.104.509-.102.672l-4.98 3.969 4.421-2.552c.221-.129.508-.067.657.143s.115.499-.08.668l-3.726 3.228 3.151-1.819c.216-.125.492-.072.646.127.153.197.137.478-.039.656l-2.546 2.589 1.941-1.12c.217-.128.496-.07.649.131.151.202.13.485-.052.661l-.646.626.051-.028c.19-.11.431-.084.592.068.161.15.204.389.106.587l-.615 1.239c.223-.078.48.008.602.221.139.239.057.545-.183.683l-1.347.777c-.078.045-.164.067-.25.067z" fill="#ffffff" fill-opacity="1" data-original-color="#f4bb2aff" stroke="none" stroke-opacity="1"/><path d="m29.766 38.366c-.129 0-.258-.05-.354-.146-.16-.16-.192-.407-.079-.604l.489-.848-.292.168c-.214.125-.487.072-.643-.122-.153-.195-.142-.474.029-.653l.894-.947-.818.472c-.223.132-.51.068-.659-.145-.148-.212-.111-.502.086-.669l1.621-1.375-1.701.981c-.228.133-.521.064-.667-.157s-.095-.518.117-.676l2.267-1.696-2.425 1.399c-.232.136-.528.062-.672-.165s-.083-.525.137-.679l1.802-1.25-1.951 1.126c-.229.135-.527.062-.671-.163-.145-.225-.086-.523.132-.678l5.348-3.781-5.793 3.345c-.23.135-.527.062-.671-.163-.145-.226-.086-.524.133-.679l7.389-5.206-8.016 4.628c-.235.136-.533.061-.675-.169-.143-.23-.076-.531.148-.681l4.618-3.062-4.97 2.869c-.232.137-.53.062-.674-.167-.143-.229-.079-.529.144-.68l7.662-5.187-8.212 4.741c-.234.136-.532.061-.675-.169s-.077-.53.148-.68l7.146-4.75-7.592 4.383c-.236.137-.534.061-.677-.172-.142-.23-.073-.532.154-.681l4.921-3.191-5.188 2.995c-.235.136-.534.061-.675-.169-.143-.23-.076-.531.148-.681l7.947-5.266-8.321 4.804c-.235.136-.532.061-.675-.168s-.077-.53.146-.68l9.286-6.222-9.641 5.565c-.234.135-.531.06-.674-.168-.143-.229-.079-.528.145-.679l9.872-6.658-10.132 5.849c-.235.136-.534.061-.677-.172-.142-.23-.073-.532.154-.68l5.699-3.7-5.648 3.261c-.233.137-.529.061-.674-.167-.143-.229-.079-.529.144-.68l9.372-6.34-9.303 5.37c-.236.137-.532.06-.676-.17-.142-.23-.075-.532.151-.681l5.84-3.836-5.532 3.193c-.235.135-.533.061-.675-.169-.143-.229-.077-.53.148-.68l6.046-4.021-5.593 3.229c-.235.135-.532.061-.675-.169-.143-.229-.077-.529.147-.68l5.094-3.402-4.45 2.568c-.235.137-.534.06-.676-.171s-.074-.532.152-.681l1.133-.739-.336.193c-.235.135-.534.061-.675-.169-.143-.23-.076-.531.148-.681l1.022-.677-.015.008c-.232.137-.528.062-.673-.165-.144-.228-.082-.526.139-.679l1.792-1.236-.361.208c-.226.132-.515.065-.661-.148-.148-.215-.106-.507.095-.672l2.854-2.329c-.135-.028-.258-.111-.332-.24-.139-.239-.057-.545.183-.683l4.406-2.544c.225-.131.515-.065.661.148.148.215.106.507-.095.672l-2.244 1.832 5.774-3.334c.234-.136.53-.061.673.165.144.228.082.526-.139.679l-1.792 1.236 3.314-1.913c.233-.137.533-.062.675.169.143.23.076.531-.148.681l-1.024.678 2.026-1.169c.235-.137.534-.061.676.171.142.23.074.532-.152.681l-1.132.739 1.925-1.111c.233-.137.531-.062.675.169.143.229.077.529-.147.68l-5.093 3.402 6.051-3.493c.234-.137.531-.062.675.169.143.229.077.53-.148.68l-6.042 4.019 6.852-3.956c.235-.137.533-.06.676.17.142.23.075.532-.151.681l-5.85 3.843 6.447-3.722c.234-.135.53-.06.674.167.143.229.079.529-.144.68l-9.372 6.34 10.072-5.814c.235-.136.533-.061.677.172.142.23.073.532-.154.68l-5.696 3.698 5.951-3.436c.234-.138.531-.061.674.168s.079.528-.145.679l-9.869 6.656 10.211-5.895c.233-.137.531-.061.675.168.143.229.077.53-.146.68l-9.289 6.225 9.397-5.426c.233-.137.533-.061.675.169.143.23.076.531-.148.681l-7.941 5.262 7.851-4.532c.234-.136.534-.061.677.172.142.23.073.532-.154.681l-4.934 3.199 4.622-2.668c.234-.138.531-.061.675.169.143.229.077.53-.148.68l-7.146 4.749 6.594-3.806c.234-.135.53-.062.674.167.143.229.079.529-.144.68l-7.658 5.184 6.849-3.954c.233-.137.533-.062.675.169.143.23.076.531-.148.681l-4.617 3.061 3.604-2.08c.23-.136.527-.062.671.163.145.226.086.524-.133.679l-7.389 5.206 5.624-3.247c.229-.135.527-.062.671.163.145.225.086.523-.132.678l-5.346 3.779 2.934-1.693c.229-.135.528-.062.672.165s.083.525-.137.679l-2.302 1.597c.176-.011.352.066.454.224.146.221.095.518-.117.676l-2.767 2.07c.152.005.3.079.394.212.148.212.111.502-.086.669l-2.266 1.922c.099.027.189.086.258.171.153.195.142.474-.029.653l-1.456 1.544c.043.022.083.052.118.088.16.16.192.407.079.604l-.879 1.521c.025.027.048.058.067.091.138.239.056.545-.184.684l-.611.353c-.078.045-.164.066-.25.066z" fill="#ffffff" fill-opacity="1" data-original-color="#e83843ff" stroke="none" stroke-opacity="1"/><path d="m28.724 23.374c-.164 0-.325-.082-.421-.229-.145-.225-.087-.523.131-.678l1.49-1.06-2.604 1.502c-.232.136-.527.062-.672-.163-.144-.226-.085-.524.134-.679l2.754-1.937-3.673 2.12c-.228.135-.522.063-.668-.158s-.093-.518.12-.676l6.195-4.604-7.319 4.226c-.232.137-.529.062-.673-.166-.144-.227-.082-.526.14-.679l3.984-2.741-4.416 2.549c-.229.134-.525.062-.669-.16-.146-.223-.09-.521.125-.677l6.792-4.938-7.258 4.19c-.235.135-.533.061-.675-.169-.143-.23-.076-.531.148-.681l1.392-.923-1.296.748c-.233.136-.53.062-.674-.167-.143-.229-.079-.528.144-.68l2.836-1.922-2.644 1.526c-.228.132-.521.064-.667-.157s-.095-.517.117-.675l6.276-4.713-5.877 3.393c-.232.136-.53.061-.674-.167-.143-.229-.079-.529.144-.68l.525-.354c-.197.035-.405-.044-.519-.223-.144-.227-.084-.525.136-.679l.825-.575c-.191.048-.402-.02-.526-.188-.151-.204-.124-.489.062-.663l2.686-2.5c-.201.046-.428-.045-.539-.238-.139-.239-.057-.545.183-.683l3.593-2.074c.218-.127.5-.07.652.136.151.204.124.489-.062.663l-2.607 2.428 6.035-3.484c.233-.136.528-.062.672.164.144.227.084.525-.136.679l-.649.452 1.59-.917c.234-.136.531-.06.674.167.143.229.079.529-.144.68l-.211.143.852-.491c.227-.135.521-.064.667.157s.095.517-.117.675l-6.273 4.711 7.503-4.332c.233-.136.531-.062.674.167s.079.528-.144.68l-2.841 1.925 3.218-1.857c.233-.137.533-.061.675.169.143.23.076.531-.148.681l-1.391.922 1.533-.885c.228-.136.525-.062.669.16.146.223.09.521-.125.677l-6.793 4.938 7.122-4.111c.233-.136.529-.061.673.166s.082.526-.14.679l-3.983 2.74 3.863-2.229c.229-.134.523-.062.668.158.146.222.093.518-.12.676l-6.196 4.604 5.864-3.385c.229-.135.526-.062.672.163.144.226.085.524-.134.679l-2.758 1.939 2.056-1.187c.228-.135.525-.064.671.162.145.225.087.523-.131.678l-1.493 1.062.478-.275c.221-.128.507-.068.656.142.15.209.117.497-.076.667l-2.369 2.08c.207-.049.44.037.554.235.139.239.057.545-.183.683l-4.179 2.412c-.22.13-.506.069-.656-.142-.15-.209-.117-.497.076-.667l2.296-2.016-5.222 3.014c-.079.046-.165.067-.25.067z" fill="#ffffff" fill-opacity="1" data-original-color="#ffffffff" stroke="none" stroke-opacity="1"/><path d="m29.288 19.413c-.153 0-.303-.07-.4-.201-.152-.203-.128-.487.057-.661l2.59-2.458-4.146 2.393c-.219.129-.504.069-.654-.139s-.12-.495.07-.666l3.629-3.256-4.439 2.562c-.224.133-.514.065-.661-.148-.148-.215-.106-.507.095-.672l2.805-2.288-2.831 1.634c-.222.132-.509.067-.658-.145-.149-.211-.113-.501.084-.669l2.505-2.132-1.995 1.151c-.214.125-.487.071-.642-.122-.154-.194-.143-.473.027-.653l1.657-1.76c-.197.023-.401-.062-.506-.245-.139-.239-.057-.545.183-.683l2.685-1.55c.213-.125.487-.072.642.122s.143.473-.027.653l-1.573 1.671 3.805-2.196c.22-.13.508-.069.658.145.149.211.113.501-.084.669l-2.506 2.133 3.448-1.99c.226-.132.515-.065.661.148.148.215.106.507-.095.672l-2.805 2.288 3.224-1.86c.22-.129.504-.068.654.139.15.208.12.495-.07.666l-3.629 3.256 3.649-2.106c.218-.128.498-.07.65.134.152.203.128.487-.057.661l-2.59 2.458 1.662-.959c.238-.14.545-.058.683.183.139.239.057.545-.183.683l-5.321 3.072c-.078.046-.164.067-.25.067z" fill="#ffffff" fill-opacity="1" data-original-color="#e83843ff" stroke="none" stroke-opacity="1"/><g fill="#262626"><path d="m31.737 23.353c9.371-1.408 10.813-15.355 1.683-18.328-15.658-4.527-18.114 20.365-1.683 18.328zm-8.894-13.676c3.972-7.443 15.65-3.823 15.423 4.379-.902 14.346-21.607 8.154-15.423-4.379z" fill="#000000" fill-opacity="1" data-original-color="#262626ff" stroke="none" stroke-opacity="1"/><path d="m29.718 19.41c9.728-.324 6.213-14.384-2.499-10.047-4.981 2.439-3.039 10.217 2.499 10.047zm-2.53-8.961c6.067-4.679 10.579 7.368 3.094 8.14-4.052.042-6.11-5.468-3.094-8.14z" fill="#000000" fill-opacity="1" data-original-color="#262626ff" stroke="none" stroke-opacity="1"/><path d="m.276 57.044c-.336 4.843 16.111-3.447 19.135-3.554 6.596 1.489 13.201 4.153 19.865 5.698 4.671-.513 9.594-2.958 14.281-4.158 1.955-.957 5.14-.736 6.123-2.938-.284-8.997.835-18.549-.431-27.33-3.373-1.541-8.542 2.161-12.219 2.701-3.413.939-6.752 3.064-10.169 1.084 12.029-10.508 6.919-31.161-10.68-27.499-9.77 2.685-12.663 15.089-6.805 22.735-.027.035-.047.073-.063.113-26.689 8.568-17.506 1.31-19.037 33.148zm12.886-2.08c-16.432 5.767-10.288 3.558-11.438-12.061 4.607-4.09 12.009-8.05 17.541-3.457v13.58c-2.057.532-4.083 1.297-6.104 1.938zm26.036 3.401c-6.157-1.787-12.277-3.831-18.464-5.484v-12.225c5.696 6.731 12.157 7.338 18.541 1.087v16.649c-.025-.008-.054-.019-.078-.027zm19.078-6.404c-.14 2.403-14.501 5.103-17.551 6.68v-17.878c5.151-3.357 11.812-3.919 17.551-1.821-.018 4.339.026 8.685 0 13.019zm-7.904-25.046c11.506-4.4 7.092-1.38 7.904 10.987-5.773-1.783-12.367-.996-17.551 2.039v-9.98c3.222-.988 6.431-2.037 9.647-3.047zm-11.435 3.181c.116.024.226.02.339.03v10.686c-8.683 7.467-11.002 5.309-18.541-1.899v-13.232c13.056 13.901 4.751 18.568 15.497 3.612.894.298 1.796.614 2.705.803zm-16.009-26.357c6.583-4.965 16.375-.976 18.623 6.692 3.589 10.857-7.713 17.291-11.51 26.049-5.101-10.698-20.594-20.464-7.113-32.741zm-21.138 26.894c.284-1.054 1.484-1.148 2.385-1.434 5.033-1.588 10.056-3.209 15.091-4.786v13.531c-5.925-3.241-12.759.032-17.541 3.878.069-3.723-.131-7.49.066-11.189z" fill="#000000" fill-opacity="1" data-original-color="#262626ff" stroke="none" stroke-opacity="1"/></g></g></svg>