<svg id="Icons" viewBox="0 0 60 60" xmlns="http://www.w3.org/2000/svg" width="300" height="300" version="1.1" xmlns:xlink="http://www.w3.org/1999/xlink" xmlns:svgjs="http://svgjs.dev/svgjs"><g width="100%" height="100%" transform="matrix(1,0,0,1,0,0)"><path d="m8.523 51.47c-.169 0-.335-.086-.429-.242-.141-.233-.068-.536.163-.682l19.851-12.475-23.091 13.331c-.237.137-.541.058-.68-.178-.14-.235-.064-.539.17-.682l10.232-6.237-11.775 6.799c-.238.138-.541.059-.68-.177-.14-.235-.064-.54.169-.683l14.433-8.825-15.073 8.703c-.238.138-.542.058-.681-.179-.14-.236-.062-.541.173-.683l1.023-.615-.949.548c-.238.137-.541.058-.681-.178s-.062-.54.172-.683l9.643-5.844-9.233 5.33c-.238.137-.541.058-.68-.178-.14-.235-.064-.539.169-.682l15.413-9.414-14.902 8.605c-.238.137-.541.058-.68-.178-.14-.235-.064-.539.169-.682l15.251-9.312-14.74 8.51c-.238.137-.539.058-.679-.176-.141-.233-.067-.537.164-.682l24.755-15.427-24.24 13.996c-.239.138-.542.058-.681-.179-.14-.236-.062-.541.173-.683l3.811-2.295-3.303 1.906c-.238.137-.54.059-.68-.177s-.065-.539.168-.682l18.062-11.082-17.55 10.134c-.238.138-.54.059-.68-.177s-.064-.539.168-.683l17.447-10.692-16.935 9.777c-.238.137-.54.059-.68-.177-.14-.234-.065-.538.167-.682l20.243-12.475-19.73 11.393c-.238.137-.54.059-.68-.177s-.064-.539.168-.683l17.572-10.771-17.06 9.85c-.238.137-.54.059-.68-.177s-.065-.539.168-.682l18.109-11.119-17.597 10.16c-.238.137-.54.059-.68-.177-.14-.234-.065-.538.167-.682l19.195-11.838-18.682 10.787c-.238.137-.539.058-.679-.176-.141-.234-.067-.538.165-.682l19.286-11.974-18.772 10.839c-.238.138-.541.058-.68-.178-.14-.235-.064-.539.169-.682l8.082-4.931-7.571 4.371c-.235.138-.537.059-.679-.175-.141-.234-.067-.537.163-.682l16.072-10.054-15.556 8.983c-.235.139-.535.06-.678-.173-.141-.232-.07-.535.158-.682l17.319-11.058-16.799 9.7c-.235.138-.537.061-.679-.175-.141-.233-.068-.536.163-.682l10.398-6.528-9.882 5.707c-.238.138-.539.058-.679-.175-.141-.234-.067-.537.164-.682l6.116-3.817-5.602 3.233c-.234.135-.533.061-.676-.17-.142-.229-.075-.531.15-.68l12.991-8.575-12.464 7.197c-.234.135-.533.06-.676-.17-.142-.229-.075-.531.15-.68l9.546-6.296-9.02 5.207c-.232.137-.529.062-.673-.166-.144-.227-.082-.526.14-.679l9.272-6.367-8.739 5.046c-.229.133-.526.062-.671-.162-.145-.225-.087-.523.131-.678l7.497-5.333-6.957 4.016c-.234.136-.532.061-.675-.168s-.078-.529.146-.68l1.531-1.028-1.003.579c-.232.136-.529.062-.673-.166-.144-.227-.082-.526.14-.679l1.141-.784-.607.351c-.222.132-.51.067-.659-.146-.148-.212-.111-.502.087-.669l3.666-3.098-3.094 1.785c-.218.127-.5.069-.651-.135s-.126-.489.06-.663l1.724-1.613-1.122.647c-.213.126-.487.072-.642-.122s-.143-.472.026-.652l.759-.81c-.103-.039-.193-.113-.252-.216-.139-.239-.057-.545.183-.683l2.049-1.182c.213-.125.488-.073.642.122.154.194.143.472-.026.652l-.319.34 1.971-1.137c.218-.127.5-.069.651.135s.126.489-.06.663l-1.724 1.613 4.177-2.41c.224-.13.511-.066.659.146s.111.502-.087.669l-3.666 3.099 6.778-3.914c.234-.136.53-.061.673.166.144.227.082.526-.14.679l-1.135.78 2.814-1.625c.233-.137.531-.061.675.168.143.229.078.529-.146.68l-1.535 1.03 3.254-1.878c.23-.136.524-.062.671.162.145.225.087.523-.131.678l-7.494 5.332 10.689-6.172c.235-.136.53-.061.673.166.144.227.082.526-.14.679l-9.273 6.367 12.492-7.212c.234-.137.532-.061.676.17.142.229.075.531-.15.68l-9.545 6.296 12.377-7.146c.233-.137.532-.062.676.17.142.229.075.531-.15.68l-12.992 8.576 16.326-9.426c.237-.139.537-.059.679.175.141.234.067.537-.164.682l-6.108 3.812 8.087-4.669c.237-.136.538-.06.679.175.141.233.068.536-.163.682l-10.403 6.531 12.796-7.388c.237-.136.535-.059.678.173.141.232.07.535-.158.682l-17.32 11.058 20.633-11.913c.236-.136.538-.059.679.175s.067.537-.163.682l-16.074 10.055 18.898-10.912c.236-.139.54-.059.68.178.14.235.064.539-.169.682l-8.087 4.934 10.034-5.794c.236-.139.537-.06.679.176.141.234.067.538-.165.682l-19.28 11.97 21.457-12.389c.237-.139.539-.06.68.177.14.234.065.538-.167.682l-19.187 11.833 19.803-11.434c.236-.139.538-.06.68.177.14.235.065.539-.168.682l-18.11 11.119 17.889-10.329c.236-.139.538-.06.68.177.14.235.064.539-.168.683l-17.572 10.771 17.061-9.85c.236-.139.538-.06.68.177.14.234.065.538-.167.682l-20.258 12.483 19.745-11.399c.236-.139.538-.06.68.177.14.235.064.539-.168.683l-17.43 10.682 16.918-9.768c.236-.138.538-.06.68.177.14.235.065.539-.168.682l-18.062 11.082 17.55-10.132c.237-.14.541-.059.681.179.14.236.062.541-.173.683l-3.811 2.295 3.303-1.906c.236-.138.537-.059.679.176.141.233.067.537-.164.682l-24.755 15.427 24.24-13.995c.236-.139.54-.059.68.178.14.235.064.539-.169.682l-15.251 9.312 14.74-8.51c.236-.139.54-.059.68.178.14.235.064.539-.169.682l-15.434 9.427 14.923-8.615c.237-.139.539-.058.681.178.14.236.062.54-.172.683l-9.646 5.846 9.137-5.274c.237-.14.541-.059.681.179.14.236.062.541-.173.683l-.97.583.462-.267c.236-.139.54-.058.68.177s.064.54-.169.683l-14.438 8.829 13.928-8.041c.236-.138.54-.059.68.178.14.235.064.539-.17.682l-10.242 6.243 9.732-5.619c.237-.136.538-.06.679.175.141.233.068.536-.163.682l-19.846 12.472 19.33-11.16c.236-.139.537-.06.679.176.141.233.067.537-.164.681l-14.312 8.924 13.797-7.965c.236-.138.538-.059.68.176.14.235.065.538-.167.683l-8.274 5.112 7.762-4.48c.236-.139.538-.06.68.176.14.235.065.539-.167.683l-5.729 3.538 5.216-3.011c.237-.137.536-.059.677.173.142.232.071.534-.157.681l-12.648 8.101 12.129-7.002c.234-.137.533-.062.675.169.143.23.076.531-.148.681l-13.421 8.892 12.895-7.444c.237-.137.537-.06.678.174.141.232.069.535-.16.682l-4.019 2.545 3.501-2.021c.237-.137.536-.059.678.173.141.232.07.535-.158.681l-3.408 2.177 2.889-1.667c.235-.137.535-.061.676.171.142.231.074.533-.153.681l-4.116 2.682 3.594-2.074c.234-.138.531-.062.675.169.143.229.077.53-.147.68l-4.06 2.704 3.532-2.039c.23-.135.528-.062.672.164s.084.525-.136.679l-4.457 3.103 3.921-2.263c.235-.135.53-.062.673.166.144.228.081.528-.141.68l-1.047.715.515-.297c.225-.133.518-.066.664.152.147.218.102.511-.105.674l-3.28 2.579 2.722-1.571c.225-.133.515-.065.663.151.147.216.104.509-.102.672l-1.138.907.576-.332c.225-.131.51-.066.659.146.148.212.111.502-.087.669l-.356.301c.17.003.333.093.424.25.139.239.057.545-.183.683l-4.312 2.489c-.224.131-.511.066-.659-.146s-.111-.502.087-.669l.044-.038-1.477.853c-.227.131-.516.064-.663-.151s-.104-.509.102-.672l1.137-.907-2.997 1.73c-.227.131-.518.065-.664-.152-.147-.218-.102-.511.105-.674l3.28-2.579-5.898 3.405c-.233.137-.529.062-.673-.166s-.081-.528.141-.68l1.05-.717-2.707 1.562c-.232.135-.528.062-.672-.164s-.084-.525.136-.679l4.452-3.1-6.829 3.942c-.235.136-.532.061-.675-.169s-.077-.53.147-.68l4.062-2.705-6.156 3.554c-.235.137-.534.061-.676-.171s-.074-.533.153-.681l4.118-2.683-6.123 3.534c-.235.139-.535.06-.678-.173-.141-.232-.07-.535.158-.681l3.408-2.177-5.25 3.03c-.235.139-.537.06-.678-.174-.141-.232-.069-.535.16-.682l4.016-2.543-5.888 3.398c-.235.136-.534.061-.675-.169-.143-.23-.076-.531.148-.681l13.421-8.892-16.873 9.741c-.235.139-.535.06-.677-.173s-.071-.534.157-.681l12.651-8.103-15.514 8.956c-.237.137-.539.058-.68-.176-.14-.235-.065-.539.167-.683l5.72-3.532-7.606 4.391c-.237.137-.539.058-.68-.176-.14-.235-.065-.538.167-.683l8.273-5.111-10.342 5.97c-.237.137-.539.058-.679-.176-.141-.233-.067-.537.164-.681l14.305-8.92-16.934 9.776c-.079.046-.165.067-.25.067z" fill="#ffffff" fill-opacity="1" data-original-color="#f5b977ff" stroke="none" stroke-opacity="1"/><path d="m23.318 17.47c-.161 0-.318-.078-.414-.221-.147-.218-.101-.512.106-.673l4.029-3.151-6.873 3.969c-.23.134-.525.062-.67-.161s-.089-.521.128-.678l4.973-3.579-5.317 3.069c-.23.135-.528.063-.672-.165-.144-.226-.083-.525.137-.679l4.099-2.846-3.563 2.057c-.23.135-.526.062-.671-.162-.144-.225-.087-.522.131-.678l5.479-3.91-4.939 2.852c-.23.136-.528.062-.672-.164-.144-.227-.084-.525.136-.679l4.357-3.04-3.821 2.206c-.228.133-.521.063-.667-.156-.146-.221-.095-.517.116-.676l5.94-4.475-5.39 3.111c-.225.132-.514.066-.662-.149-.147-.216-.105-.508.098-.672l3.928-3.172-3.363 1.941c-.219.13-.507.068-.657-.143-.149-.21-.115-.499.079-.668l1.988-1.726-1.41.813c-.209.122-.476.076-.632-.11-.156-.185-.157-.455-.003-.642l1.048-1.264-.413.238c-.179.104-.399.087-.562-.042-.161-.128-.227-.342-.166-.538l.232-.755c-.076-.043-.142-.106-.188-.187-.138-.24-.056-.546.184-.684l.502-.289c.179-.101.401-.085.562.043s.227.342.166.538l-.126.41 1.726-.996c.208-.123.476-.075.632.11s.157.455.003.642l-1.049 1.265 3.504-2.022c.222-.131.508-.066.657.143.149.21.115.499-.079.668l-1.987 1.725 4.404-2.542c.225-.132.514-.065.662.149.147.216.105.508-.098.672l-3.927 3.171 6.928-3.998c.227-.134.521-.064.667.156.146.221.095.517-.116.676l-5.939 4.474 6.848-3.953c.23-.136.528-.062.672.164.144.227.084.525-.136.679l-4.357 3.04 3.821-2.206c.229-.135.525-.063.671.162.144.225.087.522-.131.678l-5.484 3.914 4.944-2.854c.232-.136.528-.062.672.165s.083.525-.137.679l-4.093 2.842 3.558-2.054c.229-.135.523-.063.67.161.145.224.089.521-.128.678l-4.971 3.578 4.429-2.557c.227-.133.519-.064.664.153.147.217.101.512-.106.673l-4.032 3.153 3.475-2.006c.221-.128.507-.068.656.142.15.209.116.498-.077.667l-2.53 2.217 1.951-1.126c.213-.126.487-.074.642.122.154.193.143.471-.026.652l-1.139 1.218.523-.302c.197-.116.448-.081.608.084.159.163.188.414.068.609l-.349.569c.123.033.233.113.302.232.139.239.057.545-.183.683l-1.16.67c-.197.116-.448.081-.608-.084-.159-.163-.188-.414-.068-.609l.188-.306-1.731.999c-.214.125-.487.073-.642-.122-.154-.193-.143-.471.026-.652l1.139-1.218-3.451 1.992c-.22.13-.507.068-.656-.142-.15-.209-.116-.498.077-.667l2.531-2.218-5.242 3.026c-.078.046-.165.067-.25.067z" fill="#ffffff" fill-opacity="1" data-original-color="#894936ff" stroke="none" stroke-opacity="1"/><path d="m9.607 46.47c-.157 0-.312-.075-.409-.212-.148-.212-.111-.502.086-.67l2.041-1.729-4.337 2.504c-.217.127-.5.069-.652-.135-.15-.205-.125-.49.062-.663l3.119-2.91-3.236 1.868c-.21.123-.482.073-.638-.116-.155-.19-.149-.465.014-.648l1.555-1.75-.931.537c-.197.114-.444.08-.604-.08s-.191-.408-.077-.604l.391-.67c-.138-.026-.264-.11-.339-.241-.139-.239-.057-.545.183-.683l1.161-.67c.195-.115.443-.081.604.08.16.16.191.408.077.604l-.267.457 1.979-1.142c.211-.124.482-.073.638.116.155.19.149.465-.014.648l-1.556 1.751 4.358-2.516c.217-.128.5-.069.652.135.15.205.125.49-.062.663l-3.117 2.908 5.358-3.094c.221-.131.509-.067.659.145.148.212.111.502-.086.67l-2.043 1.73 1.543-.891c.217-.128.495-.071.648.131.152.201.131.484-.05.66l-.901.878.303-.175c.204-.119.465-.077.623.1.157.176.17.439.029.63l-.341.462c.148.021.286.106.367.246.138.239.056.545-.184.684l-1.602.924c-.204.118-.465.076-.623-.101-.157-.177-.17-.439-.029-.63l.186-.252-1.7.981c-.217.126-.496.07-.648-.131s-.131-.484.05-.66l.902-.879-2.893 1.67c-.078.046-.165.067-.25.067z" fill="#ffffff" fill-opacity="1" data-original-color="#ffffffff" stroke="none" stroke-opacity="1"/><path d="m45.365 59.401c-.165 0-.326-.082-.421-.23-.145-.225-.086-.523.132-.678l3.423-2.423-5.647 3.26c-.232.137-.53.062-.674-.167-.143-.228-.08-.527.143-.679l4.646-3.164-6.307 3.641c-.234.136-.531.061-.674-.168s-.079-.529.145-.68l6.374-4.291-7.81 4.509c-.233.136-.529.062-.673-.166s-.081-.527.141-.679l9.818-6.727-11.356 6.556c-.235.136-.532.061-.675-.169-.143-.229-.077-.529.147-.68l9.73-6.501-10.815 6.244c-.236.138-.536.06-.678-.173-.141-.233-.07-.535.159-.682l4.288-2.729-4.746 2.739c-.235.137-.534.06-.676-.171s-.074-.531.152-.68l9.424-6.172-10.063 5.811c-.235.139-.536.06-.678-.174-.141-.232-.069-.535.16-.681l4.539-2.877-4.782 2.761c-.234.137-.534.061-.677-.172-.142-.231-.072-.533.155-.681l8.731-5.657-9.048 5.224c-.236.138-.535.06-.677-.173s-.071-.534.157-.681l6.835-4.376-6.941 4.007c-.236.138-.537.061-.678-.174-.141-.232-.069-.535.16-.681l4.565-2.894-4.519 2.608c-.235.138-.535.06-.678-.173-.141-.232-.07-.535.158-.681l5.875-3.754-5.757 3.323c-.234.137-.535.061-.676-.171-.142-.231-.074-.533.153-.681l8.167-5.317-7.968 4.6c-.235.136-.532.061-.674-.168-.143-.229-.079-.529.145-.68l10.334-6.948-9.971 5.756c-.235.139-.536.06-.678-.174-.141-.232-.07-.534.159-.681l1.893-1.204-1.342.774c-.235.139-.534.06-.678-.173-.141-.232-.07-.535.159-.682l1.043-.665-.367.212c-.232.136-.528.062-.672-.165s-.083-.525.137-.679l7.842-5.442-6.716 3.877c-.228.136-.521.063-.668-.158-.146-.222-.093-.519.12-.676l6.666-4.936-4.664 2.692c-.224.132-.514.066-.662-.149-.147-.216-.105-.508.098-.672l3.289-2.657c-.146-.021-.282-.107-.361-.245-.139-.239-.057-.545.183-.683l4.677-2.699c.225-.132.514-.066.662.149.147.216.105.508-.098.672l-2.747 2.22 6.732-3.887c.229-.134.522-.062.668.158.146.222.093.519-.12.676l-6.669 4.938 9.52-5.495c.232-.135.528-.063.672.165.144.227.083.525-.137.679l-7.837 5.439 9.685-5.592c.237-.137.536-.059.678.173.141.232.07.535-.159.682l-1.046.667 1.735-1.002c.237-.137.537-.059.678.174s.07.534-.159.681l-1.897 1.207 2.513-1.45c.233-.138.532-.061.674.168.143.229.079.529-.145.68l-10.338 6.951 11.486-6.631c.235-.137.534-.061.676.171s.074.533-.153.681l-8.16 5.313 8.836-5.102c.237-.137.535-.059.678.173.141.232.07.535-.158.681l-5.876 3.755 6.264-3.616c.238-.137.537-.06.678.174.141.232.069.535-.16.681l-4.565 2.894 4.803-2.772c.237-.136.536-.059.677.173.142.232.071.534-.157.681l-6.837 4.378 7.065-4.079c.236-.137.534-.061.677.172.142.231.072.533-.155.681l-8.73 5.656 8.906-5.142c.236-.137.537-.06.678.174.141.232.069.535-.16.681l-4.523 2.867 4.469-2.58c.236-.137.534-.061.676.171.142.23.074.532-.152.68l-9.43 6.176 9.372-5.411c.237-.136.537-.059.678.173.141.233.07.535-.159.682l-4.283 2.726 4.005-2.312c.234-.138.531-.062.675.169.143.229.077.529-.147.68l-9.735 6.504 9.354-5.399c.235-.134.529-.061.673.166.144.228.081.527-.141.679l-9.816 6.726 9.135-5.273c.233-.136.53-.061.674.168.143.229.079.529-.145.68l-6.374 4.291 5.411-3.124c.234-.135.531-.062.674.167.143.228.08.527-.143.679l-4.646 3.163 3.337-1.926c.23-.135.527-.062.671.163.145.225.086.523-.132.678l-3.421 2.422 1.501-.866c.227-.135.521-.064.666.156.146.22.097.515-.113.675l-2.578 1.956c.067.042.125.101.167.174.139.239.057.545-.183.683l-4.677 2.699c-.229.133-.521.063-.666-.156-.146-.22-.097-.515.113-.675l.882-.668-3.97 2.291c-.078.046-.165.067-.25.067z" fill="#ffffff" fill-opacity="1" data-original-color="#dd4752ff" stroke="none" stroke-opacity="1"/><g fill="#262626"><path d="m32.051 16.701c.034-.002.067-.003.103-.005.013-.035.027-.082.042-.14-.091 0-.137.073-.145.146z" fill="#262626" fill-opacity="1" data-original-color="#262626ff" stroke="none" stroke-opacity="1"/><path d="m15.51 39.619c-3.048.042-6.324-.397-9.308.195-1.249.615-.929 2.121-.929 3.271.12 1.07-.427 2.602.764 3.201 2.097.441 4.376.006 6.523.148 1.46-.015 3.996.419 4.166-1.629-.297-1.618.915-4.646-1.216-5.185zm-.382 5.955c-.021.009-.034.007 0 0zm.146-2.39c-.055.782.138 1.648-.132 2.382-2.607-.093-5.235.082-7.833 0-1.134-.27-.51-4.122-.465-5.134h7.88c1.02.347.376 1.917.55 2.751z" fill="#262626" fill-opacity="1" data-original-color="#262626ff" stroke="none" stroke-opacity="1"/><path d="m59.724 43.806c-.064-5.59-3.188-10.676-7.996-13.276 0-8.2 0-16.4 0-24.601.457-4.682-2.101-5.937-6.449-5.394-13.67.033-27.344-.053-41.013 0-5.623.175-3.684 6.855-3.995 10.602v36.286c-.182 5.327 6.045 3.927 9.595 4.042h20.295c7.407 13.724 29.675 7.893 29.564-7.66zm-27.449-27.64c-.005.054.002.037.007.018-.004.004-.043.203-.087.371.064 0 .147.032.268.15-.097-.008-.199-.022-.309-.01-.064.17-.113.103-.103.005-17.442-.013-11.234 2.393-12.327-15.236h12.551c-.004 4.9.006 9.804 0 14.701zm-16.011 34.368c-3.32-.657-14.613 1.986-14.536-2.61-.17-10.551.101-21.132 0-31.693-.604-19.481-.88-13.993 16.548-14.766v14.127c-.209 1.103.61 1.874 1.694 1.702 18.992.272 12.736 1.317 13.755-15.829 23.287-.14 15.116-3.096 16.547 28.368-12.394-5.479-26.78 8.244-20.577 20.701h-13.429zm32.632 7.391c-23.783 6.17-26.121-32.28-1.611-28.136 13.399 3.296 14.821 23.373 1.611 28.136z" fill="#262626" fill-opacity="1" data-original-color="#262626ff" stroke="none" stroke-opacity="1"/><path d="m44.836 43.878c8.356-7.629 6.866-8.872-.715-.715-1.216-.731-6.158-7.641-6.794-4.878 1.945 1.946 3.89 3.891 5.836 5.836-8.356 7.629-6.866 8.872.715.715 1.216.731 6.158 7.641 6.794 4.878-1.945-1.946-3.89-3.891-5.836-5.836z" fill="#262626" fill-opacity="1" data-original-color="#262626ff" stroke="none" stroke-opacity="1"/></g></g></svg>