<svg xmlns="http://www.w3.org/2000/svg" id="Icons" viewBox="0 0 60 60" width="300" height="300" version="1.1" xmlns:xlink="http://www.w3.org/1999/xlink" xmlns:svgjs="http://svgjs.dev/svgjs"><g width="100%" height="100%" transform="matrix(1,0,0,1,0,0)"><defs><style>.cls-1{fill:#34b1c6;}.cls-2{fill:#c6d9db;}.cls-3{fill:#dfedef;}.cls-4{fill:#262626;}</style></defs><path class="" d="M4.168,59.47a.5.5,0,0,1-.26-.927L21.937,47.567,2.091,59.025a.5.5,0,0,1-.51-.859L22.538,45.4,1.3,57.659A.5.5,0,0,1,.786,56.8l28.24-17.4L1.28,55.417a.5.5,0,0,1-.51-.859L24.715,39.919,1.28,53.449a.5.5,0,0,1-.508-.861L9.57,47.3,1.28,52.088a.5.5,0,0,1-.51-.859l25.2-15.436L1.28,50.045a.5.5,0,0,1-.509-.86L20.01,37.5,1.28,48.316a.5.5,0,0,1-.509-.86L18.416,36.764,1.28,46.656A.5.5,0,0,1,.772,45.8L8.741,41.01,1.28,45.317a.5.5,0,0,1-.512-.858l27.105-16.7L1.28,43.109a.5.5,0,0,1-.512-.858L26.733,26.242,1.28,40.938a.5.5,0,0,1-.508-.862l8.452-5.091L1.28,39.571a.5.5,0,0,1-.508-.861l6.535-3.932L1.28,38.257A.5.5,0,0,1,.768,37.4L24.794,22.549,1.28,36.124a.5.5,0,0,1-.511-.858L20,23.47,1.28,34.275a.5.5,0,0,1-.51-.859L17.89,22.933,1.28,32.521a.5.5,0,0,1-.509-.86L11.082,25.4l-9.8,5.659A.5.5,0,0,1,.771,30.2l7.185-4.35L1.28,29.7a.5.5,0,0,1-.509-.86L3.413,27.25,1.28,28.48a.5.5,0,0,1-.509-.86l5.3-3.215L1.28,27.17a.5.5,0,0,1-.514-.857l16.1-10.036-15.587,9a.5.5,0,0,1-.509-.859l1.913-1.164-1.4.81a.5.5,0,0,1-.517-.855l15.218-9.646L1.28,22.049A.5.5,0,0,1,.761,21.2l13.446-8.59L1.28,20.068a.5.5,0,0,1-.52-.853l11.447-7.364L1.28,18.158A.5.5,0,0,1,.766,17.3L2,16.534l-.718.414A.5.5,0,0,1,.751,16.1L11.764,8.683,1.28,14.734a.5.5,0,0,1-.528-.847L8.285,8.826l-7,4.044a.5.5,0,0,1-.529-.848L5.587,8.771,1.28,11.257a.5.5,0,0,1-.55-.833L7.079,5.676,1.28,9.023A.5.5,0,0,1,.72,8.2L4.945,4.843,1.28,6.958a.5.5,0,0,1-.6-.791L3.459,3.458,1.28,4.716A.5.5,0,0,1,.6,4.026l.956-1.6a.5.5,0,0,1-.492-.87L2.722.6a.5.5,0,0,1,.679.689l-.956,1.6L6.415.6a.5.5,0,0,1,.6.791L4.237,4.1,10.3.6a.5.5,0,0,1,.56.824L6.634,4.778,13.875.6a.5.5,0,0,1,.55.833L8.076,6.179,17.743.6a.5.5,0,0,1,.529.847L13.434,4.7l7.1-4.1a.5.5,0,0,1,.528.847L13.527,6.51,23.769.6a.5.5,0,0,1,.529.847L13.29,8.86,27.6.6a.5.5,0,0,1,.514.857l-1.243.774L29.7.6a.5.5,0,0,1,.521.853L18.776,8.813,33.006.6a.5.5,0,0,1,.519.853L20.077,10.042,36.437.6a.5.5,0,0,1,.517.854L21.733,11.1,39.925.6a.5.5,0,0,1,.51.859l-1.9,1.154L42.026.6a.5.5,0,0,1,.515.857l-16.1,10.033L45.306.6a.5.5,0,0,1,.509.86L40.506,4.68,47.576.6a.5.5,0,0,1,.509.86L45.453,3.046,49.062.963a.5.5,0,0,1,.509.86L42.4,6.168l7.552-4.36a.5.5,0,0,1,.51.86L40.123,8.941,50.875,2.734a.5.5,0,0,1,.511.86l-17.1,10.471,17.7-10.219A.5.5,0,0,1,52.5,4.7L33.273,16.5,53.158,5.018a.5.5,0,0,1,.513.858L29.636,20.731,54.511,6.37a.5.5,0,0,1,.508.861L48.5,11.152,55.344,7.2a.5.5,0,0,1,.508.861L47.4,13.157,56.21,8.069a.5.5,0,0,1,.513.859L30.755,24.938,57.587,9.446a.5.5,0,0,1,.513.859L30.986,27.013l27.695-15.99a.5.5,0,0,1,.507.862l-7.972,4.787,7.5-4.332a.5.5,0,0,1,.509.86L41.584,23.893,58.72,14a.5.5,0,0,1,.509.86L40.013,26.528l18.707-10.8a.5.5,0,0,1,.51.859L34.018,32.032l24.7-14.261a.5.5,0,0,1,.508.862L50.465,23.9l8.255-4.765a.5.5,0,0,1,.51.859L35.285,34.63,58.72,21.1a.5.5,0,0,1,.512.858l-28.24,17.4L58.72,23.353a.5.5,0,0,1,.509.859L38.277,36.979l20.443-11.8a.5.5,0,0,1,.509.859L41.178,37.025,58.72,26.9a.5.5,0,0,1,.509.861L45.866,35.871,58.72,28.45a.5.5,0,0,1,.511.859L42.407,39.625,58.72,30.207a.5.5,0,0,1,.509.86l-7.513,4.559,7-4.043a.5.5,0,0,1,.511.858L45.493,40.9,58.72,33.266a.5.5,0,0,1,.514.857L43.859,43.7,58.72,35.125a.5.5,0,0,1,.511.858L52.8,39.932l5.921-3.418a.5.5,0,0,1,.52.853L42.477,48.153,58.72,38.775a.5.5,0,0,1,.511.859l-.971.6.46-.264a.5.5,0,0,1,.519.853l-10.9,6.99,10.38-5.993a.5.5,0,0,1,.517.856l-5.412,3.421,4.895-2.825a.5.5,0,0,1,.516.855l-1.912,1.2,1.4-.8a.5.5,0,0,1,.524.85l-6.778,4.45,6.254-3.61a.5.5,0,0,1,.532.845L51.99,52.028l6.73-3.884a.5.5,0,0,1,.532.845l-4.381,3,3.849-2.221a.5.5,0,0,1,.547.835L54.5,54.123l4.218-2.435a.5.5,0,0,1,.578.81l-3.956,3.433,3.378-1.95a.5.5,0,0,1,.565.821l-.754.614.189-.108a.5.5,0,0,1,.6.786l-.552.552a.5.5,0,0,1,.44.895L55.987,59.4a.5.5,0,0,1-.6-.786l.541-.541-2.3,1.327a.5.5,0,0,1-.565-.82l.754-.615L51.328,59.4a.5.5,0,0,1-.578-.81L54.7,55.16,47.356,59.4a.5.5,0,0,1-.546-.835l4.764-3.524L44.024,59.4a.5.5,0,0,1-.532-.845l4.383-3L41.218,59.4a.5.5,0,0,1-.532-.844l7.262-4.974L37.87,59.4a.5.5,0,0,1-.524-.85L44.123,54.1l-9.181,5.3a.5.5,0,0,1-.516-.855l1.919-1.207L32.771,59.4a.5.5,0,0,1-.517-.855l5.405-3.417-7.4,4.272a.5.5,0,0,1-.52-.853l10.9-6.992L27.053,59.4a.5.5,0,0,1-.512-.858l.98-.6L24.99,59.4a.5.5,0,0,1-.52-.853L41.231,47.765,21.073,59.4a.5.5,0,0,1-.511-.858l6.42-3.94-8.313,4.8a.5.5,0,0,1-.515-.857l15.377-9.582L15.448,59.4a.5.5,0,0,1-.511-.858l13.745-8.465L12.533,59.4a.5.5,0,0,1-.51-.86l7.506-4.554L10.15,59.4a.5.5,0,0,1-.511-.858l16.814-10.31L7.108,59.4a.5.5,0,0,1-.509-.86L19.977,50.42,4.418,59.4A.5.5,0,0,1,4.168,59.47Z" fill="#ffffff" fill-opacity="1" data-original-color="#34b1c6ff" stroke="none" stroke-opacity="1"/><path class="" d="M14.774,13.47a.5.5,0,0,1-.337-.868l.855-.787L13.407,12.9a.5.5,0,0,1-.583-.8l2.2-1.964L13.28,11.14a.5.5,0,0,1-.593-.8L15.5,7.7,13.28,8.979a.5.5,0,0,1-.583-.806l2.34-2.093L13.28,7.094a.5.5,0,0,1-.586-.8l2.477-2.246L13.28,5.136a.5.5,0,0,1-.632-.756l1.268-1.5-.636.366a.5.5,0,0,1-.731-.568l.258-.914a.491.491,0,0,1-.209-.2A.5.5,0,0,1,12.78.886l.5-.291a.494.494,0,0,1,.557.038.5.5,0,0,1,.175.53l-.171.605L15.9.581a.5.5,0,0,1,.632.756l-1.267,1.5L18.72.841a.5.5,0,0,1,.586.8L16.829,3.891,18.722,2.8a.5.5,0,0,1,.583.806L16.965,5.7l1.759-1.014a.5.5,0,0,1,.592.8L16.507,8.122l2.218-1.28a.5.5,0,0,1,.583.805l-2.2,1.964,1.619-.933a.5.5,0,0,1,.587.8l-.856.787.27-.156a.5.5,0,0,1,.676.693l-.616,1.011a.509.509,0,0,1,.309.235.5.5,0,0,1-.184.683L17.75,13.4a.5.5,0,0,1-.677-.693l.46-.756L15.024,13.4A.49.49,0,0,1,14.774,13.47Z" fill="#ffffff" fill-opacity="1" data-original-color="#c6d9dbff" stroke="none" stroke-opacity="1"/><path class="" d="M19.6,13.5a.5.5,0,0,1-.28-.914L25.238,8.59,18.28,12.607a.5.5,0,0,1-.533-.844L23.615,7.72,18.28,10.8a.5.5,0,0,1-.527-.849l1.094-.728-.567.326a.5.5,0,0,1-.547-.835l3.83-2.83L18.28,7.779a.5.5,0,0,1-.544-.837l.988-.717-.444.255a.5.5,0,0,1-.653-.136.5.5,0,0,1,.065-.665L19.8,3.752l-1.521.877a.5.5,0,0,1-.587-.8l.322-.293a.5.5,0,0,1-.47-.621l.284-1.137a.489.489,0,0,1-.231-.208A.5.5,0,0,1,17.78.886l.5-.289a.5.5,0,0,1,.736.553l-.216.862L21.258.594a.5.5,0,0,1,.587.8l-.062.056,1.49-.86a.5.5,0,0,1,.588.8L21.753,3.321,26.487.588a.5.5,0,0,1,.544.837l-.987.718L28.74.586a.5.5,0,0,1,.547.835L25.454,4.253,31.812.583a.5.5,0,0,1,.527.849l-1.088.724L33.982.58a.5.5,0,0,1,.534.845L28.65,5.465,37.117.577a.5.5,0,0,1,.529.847l-5.927,4,8.4-4.85a.5.5,0,0,1,.539.84L32.464,7.233,44.005.57a.5.5,0,0,1,.526.849L39.758,4.591,46.72.571a.5.5,0,0,1,.528.848L41.831,5.048,46.72,2.226a.5.5,0,0,1,.522.851l-.41.268a.5.5,0,0,1,.557.207.5.5,0,0,1-.124.677L42.219,7.92l4.5-2.6a.5.5,0,0,1,.572.816L43.037,9.722,46.72,7.6a.5.5,0,0,1,.6.792l-2.2,2.134,1.6-.925a.5.5,0,0,1,.7.639l-.694,1.523a.5.5,0,0,1,.465.884l-1.316.76a.5.5,0,0,1-.705-.639l.692-1.521-3.749,2.164a.5.5,0,0,1-.6-.792l2.2-2.134-5.076,2.93a.5.5,0,0,1-.572-.815L42.33,9.01l-7.631,4.4a.5.5,0,0,1-.545-.836L39.2,8.889l-7.846,4.53a.5.5,0,0,1-.523-.852l.177-.115-1.679.969a.5.5,0,0,1-.528-.848l5.416-3.628-7.758,4.479a.5.5,0,0,1-.526-.849L30.71,9.4l-6.975,4.027a.5.5,0,0,1-.539-.84l8.2-5.82L19.85,13.431A.494.494,0,0,1,19.6,13.5Z" fill="#ffffff" fill-opacity="1" data-original-color="#dfedefff" stroke="none" stroke-opacity="1"/><path class="" d="M14.629,59.5a.5.5,0,0,1-.265-.925l7.161-4.462-8.245,4.76a.5.5,0,0,1-.514-.857l8.516-5.3-8,4.62a.5.5,0,0,1-.52-.853L29.079,45.987l-15.8,9.121a.5.5,0,0,1-.51-.859l.668-.409-.158.091a.5.5,0,0,1-.515-.857L22.939,46.7,13.28,52.277a.5.5,0,0,1-.516-.855l9.114-5.732-8.6,4.963a.5.5,0,0,1-.525-.85L26.128,41,13.28,48.418a.5.5,0,0,1-.518-.855l5.387-3.425-4.869,2.81a.5.5,0,0,1-.532-.845l10.39-7.111L13.28,44.684a.5.5,0,0,1-.52-.854l1.182-.759-.662.382a.5.5,0,0,1-.541-.84l7-5L13.28,41.339a.5.5,0,0,1-.534-.844l2.645-1.825L13.28,39.888a.5.5,0,0,1-.552-.831L16.2,36.421,13.28,38.1a.5.5,0,0,1-.593-.794l2.878-2.733L13.28,35.9a.5.5,0,0,1-.6-.788L13.4,34.4l-.118.067a.5.5,0,0,1-.676-.692l.355-.585a.507.507,0,0,1-.31-.235.5.5,0,0,1,.184-.683L14,31.6a.5.5,0,0,1,.677.693l-.2.33L16.244,31.6a.5.5,0,0,1,.648.129.5.5,0,0,1-.046.659l-.719.713,2.6-1.5a.5.5,0,0,1,.593.8l-2.88,2.733L22.552,31.6a.5.5,0,0,1,.552.831l-3.469,2.635L25.641,31.6a.5.5,0,0,1,.534.843L23.53,34.267,28.154,31.6a.5.5,0,0,1,.541.84l-7,5L31.815,31.6a.5.5,0,0,1,.521.853l-1.188.762,2.8-1.615a.5.5,0,0,1,.532.845l-10.39,7.111L37.87,31.6a.5.5,0,0,1,.519.854L33,35.879,40.416,31.6a.5.5,0,0,1,.525.85l-13.374,8.8L44.288,31.6a.5.5,0,0,1,.517.855L35.7,38.182l10.8-6.234a.5.5,0,0,1,.516.857L36.841,39.174l9.88-5.7a.5.5,0,0,1,.51.859l-.672.412.164-.095a.5.5,0,0,1,.52.854L30.923,45.991l15.8-9.123a.5.5,0,0,1,.514.858l-8.5,5.3,7.991-4.614a.5.5,0,0,1,.514.858L40.08,43.727l6.649-3.838a.5.5,0,0,1,.517.854l-9.188,5.829,8.672-5.007a.5.5,0,0,1,.519.855l-7.694,4.911,7.177-4.143a.5.5,0,0,1,.523.851L39.61,49l7.124-4.112a.5.5,0,0,1,.529.848l-7.777,5.2,7.25-4.186a.5.5,0,0,1,.541.839l-8.2,5.88,7.664-4.425a.5.5,0,0,1,.553.831l-6.207,4.717,5.656-3.266a.5.5,0,0,1,.544.837l-2.171,1.575,1.629-.94a.5.5,0,0,1,.566.82l-2.2,1.791,1.639-.945a.5.5,0,0,1,.6.791l-1.311,1.273.714-.412a.5.5,0,0,1,.67.7l-.485.755a.485.485,0,0,1,.5.245.5.5,0,0,1-.183.683l-1.562.9a.5.5,0,0,1-.669-.7l.441-.685-2.41,1.39a.5.5,0,0,1-.6-.791l1.311-1.273L40.18,59.409a.5.5,0,0,1-.566-.82l2.2-1.791-4.526,2.613a.5.5,0,0,1-.544-.837L38.915,57l-4.182,2.414a.5.5,0,0,1-.552-.831l6.208-4.718-9.617,5.552a.5.5,0,0,1-.541-.839l8.2-5.879L26.79,59.421a.5.5,0,0,1-.528-.849l7.777-5.2-10.478,6.05a.5.5,0,0,1-.523-.852l7.649-4.967L20.6,59.426a.5.5,0,0,1-.518-.855l7.686-4.906-9.983,5.764a.5.5,0,0,1-.518-.855l9.181-5.824L14.879,59.432A.494.494,0,0,1,14.629,59.5Z" fill="#ffffff" fill-opacity="1" data-original-color="#dfedefff" stroke="none" stroke-opacity="1"/><path class="" d="M2.24,59.4c18.14.055,36.332.157,54.482.051,5.844-.39,1.935-14.53,3.007-18.956q0-14.373,0-28.744c-.069-1.738-2.2-3.185-3.334-4.32C53.033,4.529,50.542-.5,45.414.552q-20.048,0-40.091,0C3.217.552.333.428.273,3.333c-.153,7.291,0,14.6,0,21.9C1.23,30.655-2.021,59.067,2.24,59.4Zm12.97-.846H13.724c-.018-8.516.03-17.033,0-25.548-.012-.755-.05-.684.678-.684H39.924c2.118.485,6.987-1.553,6.352,2.046V58.552ZM46.276,1.4c.028,3.584-.043,7.188,0,10.761.1.681.33.456-.262.527-9.086.01-18.192-.006-27.285,0V1.448Q32.507,1.475,46.276,1.4Zm-29,.045V12.694a12.548,12.548,0,0,1-2.774,0c-1.925-2.331-.231-8.016-.774-11.243Zm-14.442,0c3.126-.081,6.3.052,9.446,0,.126,3.714-.243,7.53.122,11.2,1.079,1.339,3.452.412,4.972.663,9.5-.084,19.439.206,29.01-.117,3.037-2.349.6-8.14,1.344-11.708,3,1.188,4.846,4.5,7.33,6.534,1.035,1.036,3.053,2.425,3.219,3.992V56.277c0,.885.075,2.054-1.066,2.275-3.139.061-6.326-.04-9.483,0-.014-8.574.022-17.171,0-25.733-.251-1.747-3.862-1.139-5.089-1.139C7.045,33.8,12.444,21.19,12.276,58.552,9.342,57.791,1.7,60.65,1.727,56.208V6.647C1.727,5.469,1.168,1.739,2.83,1.448Z" fill="#262626" fill-opacity="1" data-original-color="#262626ff" stroke="none" stroke-opacity="1"/></g></svg>