<svg id="icons" height="300" viewBox="0 0 60 60" width="300" xmlns="http://www.w3.org/2000/svg" version="1.1" xmlns:xlink="http://www.w3.org/1999/xlink" xmlns:svgjs="http://svgjs.dev/svgjs"><g width="100%" height="100%" transform="matrix(1,0,0,1,0,0)"><path d="m29.616 59.424a.5.5 0 0 1 -.308-.894l.231-.181-.981.566a.5.5 0 0 1 -.558-.826l5.089-3.981-5.943 3.43a.5.5 0 0 1 -.527-.849l1.036-.689-1.215.7a.5.5 0 0 1 -.537-.842l9.275-6.5-10.039 5.8a.5.5 0 0 1 -.521-.852l4.608-2.97-4.917 2.839a.5.5 0 0 1 -.523-.852l7.119-4.636-7.55 4.359a.5.5 0 0 1 -.517-.855l2.962-1.88-3.2 1.846a.5.5 0 0 1 -.517-.855l1-.629-1.167.673a.5.5 0 0 1 -.518-.855l1.615-1.024-1.8 1.041a.5.5 0 0 1 -.521-.854l2.448-1.57-2.672 1.542a.5.5 0 0 1 -.523-.852l2.8-1.816-3.045 1.756a.5.5 0 0 1 -.522-.852l1.538-1-1.734 1a.5.5 0 0 1 -.544-.837l6.652-4.844-7.332 4.232a.5.5 0 0 1 -.533-.845l2.591-1.783-2.876 1.66a.5.5 0 0 1 -.53-.846l.343-.233-.486.28a.5.5 0 0 1 -.56-.825l3.651-2.874-4.178 2.412a.5.5 0 0 1 -.559-.826l1.979-1.553-2.305 1.331a.5.5 0 0 1 -.61-.78l2.214-2.3-2.524 1.458a.5.5 0 0 1 -.656-.725l.964-1.342a.5.5 0 0 1 -.344-.924l1.813-1.047a.5.5 0 0 1 .657.725l-.924 1.287 3.572-2.063a.5.5 0 0 1 .61.779l-2.214 2.3 5.337-3.079a.5.5 0 0 1 .559.826l-1.978 1.553 4.121-2.379a.5.5 0 0 1 .559.825l-3.651 2.875 6.411-3.7a.5.5 0 0 1 .53.846l-.339.23 1.864-1.076a.5.5 0 0 1 .533.844l-2.59 1.782 4.55-2.626a.5.5 0 0 1 .544.837l-6.652 4.844 9.843-5.681a.5.5 0 0 1 .523.851l-1.524.991 3.193-1.842a.5.5 0 0 1 .522.851l-2.808 1.822 4.637-2.673a.5.5 0 0 1 .521.853l-2.441 1.567 4.192-2.42a.5.5 0 0 1 .517.854l-1.637 1.039 2.874-1.659a.5.5 0 0 1 .517.856l-.98.61 1.4-.807a.5.5 0 0 1 .518.855l-2.978 1.891 3.025-1.746a.5.5 0 0 1 .523.852l-7.113 4.632 6.5-3.753a.5.5 0 0 1 .52.852l-4.6 2.963 2.182-1.26a.5.5 0 0 1 .537.842l-9.277 6.5 4.964-2.865a.5.5 0 0 1 .527.849l-2.277 1.515a.5.5 0 0 1 .257.891l-5.084 3.979.922-.532a.5.5 0 0 1 .558.826l-1.971 1.546a.49.49 0 0 1 .125.145.5.5 0 0 1 -.182.682l-3.81 2.2a.493.493 0 0 1 -.25.067z" fill="#ffffff" fill-opacity="1" data-original-color="#3778c6ff" stroke="none" stroke-opacity="1"/><path d="m17.3 23.472a.5.5 0 0 1 -.27-.921l2.836-1.816-4.427 2.556a.5.5 0 0 1 -.528-.848l9.857-6.613-11.02 6.364a.5.5 0 0 1 -.521-.852l6.521-4.223-6.4 3.7a.5.5 0 0 1 -.517-.855l1.155-.73-.258.15a.5.5 0 0 1 -.52-.854l3.292-2.114-.783.452a.5.5 0 0 1 -.536-.843l8.662-6.037-4.523 2.612a.5.5 0 0 1 -.535-.844l3.929-2.728-.738.426a.5.5 0 0 1 -.539-.841l2.435-1.725a.5.5 0 0 1 -.272-.858l3.477-3.3a.48.48 0 0 1 -.132-.15.5.5 0 0 1 .183-.682l2.158-1.253a.5.5 0 0 1 .595.794l-2.539 2.414 4.385-2.532a.5.5 0 0 1 .539.841l-1.489 1.055 1.823-1.053a.5.5 0 0 1 .535.844l-3.927 2.727 4.309-2.487a.5.5 0 0 1 .536.843l-8.667 6.04 9.374-5.411a.5.5 0 0 1 .519.853l-3.287 2.107 3.54-2.044a.5.5 0 0 1 .517.855l-1.149.727 1.327-.765a.5.5 0 0 1 .521.853l-6.52 4.222 6.914-3.992a.5.5 0 0 1 .528.848l-9.861 6.616 10.505-6.068a.5.5 0 0 1 .52.853l-2.825 1.809 3.061-1.768a.5.5 0 0 1 .537.842l-8.9 6.259 9.655-5.574a.5.5 0 0 1 .533.845l-5.579 3.819 6.041-3.488a.5.5 0 0 1 .525.85l-1.242.821 1.425-.823a.5.5 0 0 1 .544.837l-4.922 3.576 5.451-3.145a.5.5 0 0 1 .561.823l-4.671 3.72 5.343-3.088a.5.5 0 0 1 .569.818l-3.2 2.651 3.739-2.157a.5.5 0 0 1 .559.825l-1.038.818 1.205-.7a.5.5 0 0 1 .571.817l-.581.485.44-.253a.5.5 0 0 1 .651.731l-.918 1.238a.494.494 0 0 1 .473.248.5.5 0 0 1 -.183.683l-1.802 1.046a.5.5 0 0 1 -.651-.731l.845-1.14-3.332 1.921a.5.5 0 0 1 -.572-.816l.582-.485-2.256 1.3a.5.5 0 0 1 -.56-.825l1.035-.815-2.847 1.641a.5.5 0 0 1 -.569-.817l3.2-2.651-6.003 3.468a.5.5 0 0 1 -.562-.823l4.673-3.723-7.875 4.546a.5.5 0 0 1 -.544-.837l4.923-3.58-7.653 4.417a.5.5 0 0 1 -.525-.849l1.221-.806-2.87 1.655a.5.5 0 0 1 -.533-.844l5.577-3.818-8.076 4.662a.5.5 0 0 1 -.537-.841l8.905-6.259-12.3 7.1a.5.5 0 0 1 -.252.072z" fill="#ffffff" fill-opacity="1" data-original-color="#3778c6ff" stroke="none" stroke-opacity="1"/><path d="m29.216 39.379a.5.5 0 0 1 -.317-.888l4.841-3.951-7.07 4.081a.5.5 0 0 1 -.544-.837l4.721-3.429-5.789 3.345a.5.5 0 0 1 -.538-.841l4.767-3.362-5.442 3.142a.5.5 0 0 1 -.527-.849l1.4-.933-1.627.94a.5.5 0 0 1 -.535-.843l4.935-3.435-5.209 3.006a.5.5 0 0 1 -.54-.839l5.905-4.211-5.977 3.451a.5.5 0 0 1 -.539-.841l4.906-3.47-4.656 2.685a.5.5 0 0 1 -.543-.838l4.6-3.33-4.051 2.339a.5.5 0 0 1 -.562-.824l4.67-3.722-3.464 2a.5.5 0 0 1 -.584-.8l2.415-2.172a.5.5 0 0 1 -.18-.928l3.435-1.983a.5.5 0 0 1 .584.8l-2.035 1.83 5.12-2.956a.5.5 0 0 1 .562.823l-4.671 3.723 6.7-3.868a.5.5 0 0 1 .543.838l-4.606 3.33 5.638-3.253a.5.5 0 0 1 .539.84l-4.902 3.471 5.594-3.229a.5.5 0 0 1 .54.839l-5.908 4.212 6.427-3.71a.5.5 0 0 1 .535.843l-4.932 3.434 5.117-2.954a.5.5 0 0 1 .526.848l-1.406.936 1.259-.727a.5.5 0 0 1 .538.841l-4.766 3.361 4.508-2.6a.5.5 0 0 1 .544.837l-4.722 3.43 4.161-2.4a.5.5 0 0 1 .566.82l-4.841 3.949 3.556-2.05a.5.5 0 0 1 .579.809l-2.252 1.963a.5.5 0 0 1 .1.91l-3.429 1.978a.5.5 0 0 1 -.579-.81l1.62-1.412-4.458 2.574a.5.5 0 0 1 -.25.067z" fill="#ffffff" fill-opacity="1" data-original-color="#bfdbf0ff" stroke="none" stroke-opacity="1"/><g fill="#262626"><path d="m44.332 36.5c-2.461-.037-4.924-.013-7.385-.005a9.224 9.224 0 0 0 .184-13.019h6.277a4.341 4.341 0 0 0 3.508-1.2 3.123 3.123 0 0 0 .071-4.077c-3.461-4.5-7.354-8.713-11.013-13.047-1.162-1.374-2.548-3.692-4.315-4.364-2.759-1.048-4.539.912-6.11 2.778l-11.849 14.034a4.577 4.577 0 0 0 -1.427 2.591 3.141 3.141 0 0 0 3.2 3.287c2.5.11 5.033.031 7.546.009-.158.159-.312.322-.458.493a9.438 9.438 0 0 0 -.961 10.933 8.9 8.9 0 0 0 1.247 1.587h-6.447a4.018 4.018 0 0 0 -3.486 1.413 3.145 3.145 0 0 0 .121 3.916c3.522 4.523 7.424 8.795 11.122 13.176 1.2 1.425 2.6 3.753 4.487 4.325 2.736.829 4.378-1.185 5.911-3l11.818-14a4.161 4.161 0 0 0 1.355-2.788 3.192 3.192 0 0 0 -3.396-3.042zm-27-13.979c-1.154 0-2.388.161-3.15-.932a2.542 2.542 0 0 1 .339-3.2c3.372-4.157 6.912-8.189 10.365-12.279 1.047-1.24 2.045-2.557 3.157-3.74 2.222-2.363 4.156.5 5.509 2.105l11.072 13.115c.353.418.741.825 1.068 1.265a2.415 2.415 0 0 1 -.153 3.27 2.184 2.184 0 0 1 -1.6.4h-7.859a9.4 9.4 0 0 0 -2.648-1.455 10.156 10.156 0 0 0 -9.3 1.455zm5.5 3.125a8.067 8.067 0 0 1 8.7-3.986 8.313 8.313 0 0 1 3.423 1.645.231.231 0 0 0 .16.133 8.606 8.606 0 0 1 .154 13.188.725.725 0 0 0 -.208.181 7.861 7.861 0 0 1 -2.16 1.229 8.33 8.33 0 0 1 -9.3-2.766 8.757 8.757 0 0 1 -.765-9.622zm22.587 16.01-10.446 12.38c-1 1.187-1.954 2.454-3.023 3.582-2.265 2.39-4.246-.609-5.614-2.229l-11.051-13.089a13.431 13.431 0 0 1 -1.162-1.4 2.3 2.3 0 0 1 .726-3.256 3.41 3.41 0 0 1 1.406-.142h7.714a9.86 9.86 0 0 0 11.827 0h7.063c1.2 0 2.412-.116 3.1 1.143a2.565 2.565 0 0 1 -.536 3.013z" fill="#262626" fill-opacity="1" data-original-color="#262626ff" stroke="none" stroke-opacity="1"/><path d="m29.023 7.239q.579-.686 1.159-1.372c.156-.185-.537-.113-.571-.107a1.482 1.482 0 0 0 -.855.377l-8.127 9.627-1.158 1.372c-.156.185.536.113.571.107a1.482 1.482 0 0 0 .854-.377z" fill="#262626" fill-opacity="1" data-original-color="#262626ff" stroke="none" stroke-opacity="1"/><path d="m22.017 44.1q-.579-.685-1.159-1.372c-.3-.351-1.684.154-1.35.549l8.127 9.623 1.159 1.372c.3.352 1.684-.153 1.35-.549z" fill="#262626" fill-opacity="1" data-original-color="#262626ff" stroke="none" stroke-opacity="1"/><path d="m25.725 29.806a4.807 4.807 0 0 1 1.315-3.263 3.712 3.712 0 0 1 2.66-1.189 1.33 1.33 0 0 0 .963-.372c.208-.265-.182-.337-.369-.335a6.473 6.473 0 0 0 -4.4 1.746 5.28 5.28 0 0 0 -1.619 3.8c-.002.344 1.446.107 1.45-.387z" fill="#262626" fill-opacity="1" data-original-color="#262626ff" stroke="none" stroke-opacity="1"/></g></g></svg>