<svg id="Icons" height="300" viewBox="0 0 60 60" width="300" xmlns="http://www.w3.org/2000/svg" version="1.1" xmlns:xlink="http://www.w3.org/1999/xlink" xmlns:svgjs="http://svgjs.dev/svgjs"><g width="100%" height="100%" transform="matrix(1,0,0,1,0,0)"><path d="m22.479 43.426a.5.5 0 0 1 -.262-.926l.546-.336-1.73 1a.5.5 0 0 1 -.518-.854l15.562-9.916-16.234 9.371a.5.5 0 0 1 -.515-.857l12.753-7.959-13.237 7.642a.5.5 0 0 1 -.511-.86l6.1-3.736-6.372 3.679a.5.5 0 0 1 -.515-.857l18.036-11.331-17.747 10.246a.5.5 0 0 1 -.514-.857l15.015-9.329-3.98 2.3a.5.5 0 0 1 -.517-.856l10.079-6.379-3.981 2.3a.5.5 0 0 1 -.519-.854l6.442-4.114-2.823 1.629a.5.5 0 0 1 -.524-.85l7.154-4.687-4.149 2.4a.5.5 0 0 1 -.527-.85l5.748-3.808-3.407 1.966a.5.5 0 0 1 -.537-.841l7.767-5.455-5.462 3.143a.5.5 0 0 1 -.665-.713l1.5-2.2a.492.492 0 0 1 -.22-.2.5.5 0 0 1 .182-.683l1.149-.663a.5.5 0 0 1 .616.092.5.5 0 0 1 .048.621l-1.22 1.8 13.337-7.7a.5.5 0 0 1 .537.841l-7.764 5.444 7.693-4.442a.5.5 0 0 1 .526.85l-5.749 3.809 5.475-3.16a.5.5 0 0 1 .524.851l-7.156 4.687 6.78-3.914a.5.5 0 0 1 .52.854l-6.44 4.113 5.936-3.427a.5.5 0 0 1 .518.856l-10.086 6.382 9.441-5.45a.5.5 0 0 1 .514.858l-15.013 9.328 14.165-8.178a.5.5 0 0 1 .516.857l-18.031 11.328 16.792-9.695a.5.5 0 0 1 .511.86l-6.136 3.754 4.883-2.819a.5.5 0 0 1 .515.857l-12.725 7.943 10.827-6.248a.5.5 0 0 1 .519.855l-15.583 9.926 12.208-7.048a.5.5 0 0 1 .513.859l-3.2 1.97a.492.492 0 0 1 .384.238.5.5 0 0 1 -.157.68l-6.512 4.178a.453.453 0 0 1 .12.14.5.5 0 0 1 -.182.682l-12.194 7.037a.5.5 0 0 1 -.519-.854l.76-.487-8.828 5.095a.5.5 0 0 1 -.25.072z" fill="#ffffff" fill-opacity="1" data-original-color="#d1d1d3ff" stroke="none" stroke-opacity="1"/><path d="m52.585 5.892a.5.5 0 0 1 -.356-.852l3.1-3.126a.5.5 0 0 1 .2-.651l1.1-.634a.5.5 0 0 1 .606.784l-1.672 1.687 1.948-1.124a.5.5 0 0 1 .5.865l-5.176 2.983a.49.49 0 0 1 -.25.068z" fill="#ffffff" fill-opacity="1" data-original-color="#d1d1d3ff" stroke="none" stroke-opacity="1"/><path d="m6.969 54.8a.5.5 0 0 1 -.312-.891l.178-.142-.568.328a.5.5 0 0 1 -.553-.831l4.426-3.364-5.447 3.139a.5.5 0 0 1 -.542-.838l3.822-2.755-2.718 1.569a.5.5 0 0 1 -.561-.825l4.73-3.749-.624.359a.5.5 0 0 1 -.577-.812l3.641-3.143a.5.5 0 0 1 .234-.562l1.3-.749a.5.5 0 0 1 .577.812l-1.1.946 1.945-1.122a.5.5 0 0 1 .561.824l-4.729 3.749 5.391-3.112a.5.5 0 0 1 .542.838l-3.821 2.755 3.716-2.145a.5.5 0 0 1 .552.831l-4.711 3.581a.509.509 0 0 1 .461.217.5.5 0 0 1 -.1.672l-2.66 2.12.015.024a.5.5 0 0 1 -.183.683l-2.635 1.522a.5.5 0 0 1 -.25.071z" fill="#ffffff" fill-opacity="1" data-original-color="#663729ff" stroke="none" stroke-opacity="1"/><path d="m4.87 59.434a.5.5 0 0 1 -.386-.819l1.167-1.415-2.842 1.64a.5.5 0 0 1 -.573-.816l.63-.529-.911.526a.5.5 0 0 1 -.6-.786l2.062-2.073-2.1 1.215a.5.5 0 0 1 -.645-.739l1.316-1.694a.5.5 0 0 1 -.478-.877l2.182-1.267a.5.5 0 0 1 .645.739l-1.315 1.69 3.146-1.815a.5.5 0 0 1 .6.785l-2.057 2.076 2.56-1.475a.5.5 0 0 1 .573.815l-.631.531.331-.191a.5.5 0 0 1 .636.751l-1.211 1.47a.5.5 0 0 1 .353.922l-2.2 1.271a.49.49 0 0 1 -.252.065z" fill="#ffffff" fill-opacity="1" data-original-color="#ffb24cff" stroke="none" stroke-opacity="1"/><path d="m20.231 50.416a.5.5 0 0 1 -.375-.83l1.075-1.22-1.425.822a.5.5 0 0 1 -.6-.792l.5-.481-.653.377a.5.5 0 0 1 -.638-.748l1.46-1.8-2 1.151a.5.5 0 0 1 -.592-.8l.516-.483-.675.39a.5.5 0 0 1 -.64-.746l1.683-2.094-2.31 1.338a.5.5 0 0 1 -.623-.766l1.491-1.672-1.969 1.138a.5.5 0 0 1 -.618-.771l1.312-1.429-1.715.99a.5.5 0 0 1 -.639-.747l1.481-1.828-2.032 1.173a.5.5 0 0 1 -.653-.729l1.477-2.016-2.117 1.222a.5.5 0 0 1 -.632-.755l1.141-1.351-1.541.89a.5.5 0 0 1 -.608-.783l2.065-2.112a.5.5 0 0 1 .217-.612l.937-.542a.5.5 0 0 1 .608.782l-.57.583.871-.5a.5.5 0 0 1 .632.755l-1.14 1.351 1.7-.979a.5.5 0 0 1 .653.728l-1.485 2.018 2.315-1.338a.5.5 0 0 1 .639.747l-1.481 1.826 2.21-1.275a.5.5 0 0 1 .619.771l-1.315 1.431 1.83-1.055a.5.5 0 0 1 .623.765l-1.491 1.672 1.935-1.116a.5.5 0 0 1 .639.746l-1.682 2.094 2.139-1.235a.5.5 0 0 1 .592.8l-.515.481.565-.326a.5.5 0 0 1 .638.748l-1.46 1.8 1.827-1.054a.5.5 0 0 1 .6.792l-.5.482.547-.315a.5.5 0 0 1 .625.762l-1.073 1.219 1.284-.741a.5.5 0 1 1 .5.865l-3.927 2.268a.489.489 0 0 1 -.252.064z" fill="#ffffff" fill-opacity="1" data-original-color="#ffb24cff" stroke="none" stroke-opacity="1"/><path d="m9.689 37.538a.5.5 0 0 1 -.367-.84l.644-.698-2 1.156a.5.5 0 0 1 -.609-.781l1.969-2.025-2.736 1.583a.5.5 0 0 1 -.613-.776l2.159-2.288-2.061 1.189a.5.5 0 0 1 -.623-.766l1.048-1.177a.5.5 0 0 1 -.208-.93l2.208-1.276a.5.5 0 0 1 .623.766l-.859.964 2.328-1.339a.5.5 0 0 1 .613.775l-2.158 2.284 2.9-1.672a.5.5 0 0 1 .609.781l-1.969 2.023 1.746-1.008a.5.5 0 0 1 .617.773l-.96 1.035a.5.5 0 0 1 .133.919l-2.184 1.261a.489.489 0 0 1 -.25.067z" fill="#ffffff" fill-opacity="1" data-original-color="#f29744ff" stroke="none" stroke-opacity="1"/><path d="m23.952 55.329a.5.5 0 0 1 -.381-.824l1.629-1.905-3.078 1.777a.5.5 0 0 1 -.571-.815l.772-.649-.911.526a.5.5 0 0 1 -.609-.781l1.963-2.025-1.726 1a.5.5 0 0 1 -.614-.775l.933-.992a.493.493 0 0 1 -.292-.229.5.5 0 0 1 .183-.683l2.19-1.263a.5.5 0 0 1 .615.775l-.564.6 1.876-1.083a.5.5 0 0 1 .61.78l-1.963 2.025 2.753-1.589a.5.5 0 0 1 .571.816l-.772.648.65-.375a.5.5 0 0 1 .631.757l-1.629 1.91.735-.424a.5.5 0 1 1 .5.865l-3.253 1.866a.489.489 0 0 1 -.248.067z" fill="#ffffff" fill-opacity="1" data-original-color="#f29744ff" stroke="none" stroke-opacity="1"/><path d="m44.242 32.154c9.924-6.3 18.945-17.554 14.307-29.854-.418-1.2-1.181-2.367-2.638-1.6-6.787 9.523-9.664 5.064-12.652 8.87-5.018 12.084-15.98 20.33-26.453 27.541-1.162-1.1-2.345-2.18-3.488-3.3.291-2.77-2.843-4.746-5.351-3.775-4.21 1.141-3.531 7.548.913 7.538q1.807 2.15 3.619 4.294a47.9 47.9 0 0 0 -9.14 10.01c-3.676.789-4.185 6.221-.479 7.377 2.757 1.023 6.205-1.444 5.612-4.436a77.468 77.468 0 0 1 8.163-8.02q1.728 2.049 3.452 4.1c-.817 3.861 4.35 5.6 6.875 3.157a3.569 3.569 0 0 0 -1.882-6.287l-2.807-4.2a101.911 101.911 0 0 0 21.949-11.415zm-19.67.757a67.818 67.818 0 0 0 20.886-23.877 15.252 15.252 0 0 0 10.898-7.134c9.581 20.044-18.631 34.57-34.649 40.8a24.021 24.021 0 0 0 -4.1-4.822c2.412-1.523 4.713-3.222 6.965-4.967zm-7.58 6.171c2.637 2.553 4.364 5.785 6.451 8.769a4.6 4.6 0 0 0 -2.7 1.638q-5.118-6.081-10.243-12.162a3.989 3.989 0 0 0 2.432-2.084c1.344 1.291 2.711 2.557 4.06 3.839zm-9.054-8.056c.044-.028.024-.014 0 0zm-.5 4.759c-1.761-1.564-.769-5.025 1.557-5.041 4.984.256 2.663 8.602-1.56 5.041zm-.688 21.341c-2.606 4.285-7.4-2.208-3.614-4.208a2.49 2.49 0 0 1 1.064-.281 3.08 3.08 0 0 1 2.55 4.489zm1.363-3.426a3.872 3.872 0 0 0 -3.213-1.986 46.42 46.42 0 0 1 8.258-9.058q1.44 1.706 2.878 3.414a83.914 83.914 0 0 0 -7.923 7.63zm16.94.769c.033-.01.081-.021 0 0zm1.483-4.282c.784 1.579.041 3.982-1.8 4.346-6.153-.233-2.247-10.252 1.8-4.342z" fill="#262626" fill-opacity="1" data-original-color="#262626ff" stroke="none" stroke-opacity="1"/></g></svg>