<svg id="Icons" viewBox="0 0 60 60" xmlns="http://www.w3.org/2000/svg" width="300" height="300" version="1.1" xmlns:xlink="http://www.w3.org/1999/xlink" xmlns:svgjs="http://svgjs.dev/svgjs"><g width="100%" height="100%" transform="matrix(1,0,0,1,0,0)"><path d="m39.711 59.446c-.154 0-.306-.071-.403-.204-.15-.206-.122-.493.066-.665l.812-.743-1.767 1.02c-.219.13-.504.068-.656-.141-.149-.209-.117-.497.076-.667l2.688-2.368-3.302 1.906c-.228.135-.523.063-.669-.159-.145-.222-.091-.519.122-.676l.868-.639-.823.475c-.227.132-.517.065-.663-.151-.147-.217-.103-.51.103-.673l4.074-3.236-4.286 2.474c-.232.134-.526.062-.671-.162-.144-.225-.087-.522.131-.678l2.16-1.54-2.169 1.252c-.229.132-.521.063-.667-.156-.146-.221-.095-.517.116-.676l5.455-4.111-5.707 3.295c-.229.134-.525.062-.669-.16-.146-.224-.09-.521.125-.677l5.805-4.218-6.027 3.479c-.235.136-.532.061-.675-.169s-.077-.53.148-.68l1.508-1.002-1.47.848c-.232.136-.528.062-.673-.166-.144-.228-.081-.527.14-.679l5.259-3.607-5.381 3.106c-.233.137-.527.061-.673-.165-.144-.227-.082-.526.139-.679l7.149-4.944-7.363 4.251c-.236.137-.534.061-.677-.171-.142-.231-.073-.533.154-.681l2.552-1.658-2.538 1.465c-.236.135-.534.06-.676-.17s-.075-.531.15-.681l5.427-3.575-5.508 3.18c-.235.137-.535.061-.677-.172s-.072-.534.156-.682l3.258-2.097-3.258 1.881c-.236.138-.535.06-.677-.173-.142-.231-.071-.534.157-.681l3.539-2.269-3.544 2.046c-.236.137-.533.06-.676-.17-.142-.23-.075-.531.15-.681l8.721-5.744-8.903 5.141c-.235.136-.533.062-.675-.17-.143-.229-.076-.531.149-.68l10.517-6.949-10.763 6.214c-.236.138-.536.06-.678-.173-.141-.233-.07-.535.159-.682l6.146-3.911-6.203 3.581c-.235.138-.534.061-.677-.172-.142-.231-.072-.533.155-.681l10.342-6.69-10.532 6.081c-.236.137-.536.06-.677-.173-.142-.231-.072-.534.156-.681l10.557-6.78-10.792 6.23c-.237.137-.539.058-.679-.175-.141-.234-.067-.538.164-.682l4.78-2.983-5.148 2.973c-.238.137-.54.059-.68-.177-.14-.234-.065-.538.167-.682l1.636-1.009-2.218 1.28c-.237.138-.539.059-.68-.177-.14-.234-.065-.538.168-.682l2.136-1.314-2.785 1.607c-.235.137-.535.059-.677-.172-.142-.232-.072-.534.156-.682l16.972-10.919-18.59 10.732c-.238.138-.538.059-.679-.176s-.067-.538.165-.682l10.292-6.384-11.278 6.511c-.239.138-.541.058-.68-.178-.14-.235-.064-.54.17-.682l2.131-1.298-2.769 1.599c-.237.138-.539.059-.68-.177-.14-.235-.065-.539.168-.682l9.608-5.903-10.517 6.071c-.238.137-.54.059-.68-.177-.14-.234-.065-.538.167-.682l12.45-7.671-13.477 7.78c-.235.138-.537.061-.679-.175-.141-.233-.068-.536.163-.681l20.313-12.771-21.862 12.622c-.238.137-.541.058-.68-.178-.14-.235-.064-.539.17-.682l7.812-4.762-8.624 4.979c-.235.138-.537.059-.679-.175-.141-.233-.067-.537.163-.682l17.7-11.098-19.095 11.024c-.238.138-.539.058-.679-.175-.141-.234-.067-.537.164-.682l12.446-7.783-13.577 7.839c-.235.138-.536.06-.678-.174-.141-.232-.07-.535.16-.681l11.373-7.214-12.548 7.244c-.236.138-.538.061-.679-.175-.141-.233-.068-.536.163-.682l5.418-3.402-6.246 3.605c-.236.139-.535.06-.678-.173-.141-.232-.07-.534.158-.681l5.496-3.515-6.382 3.685c-.235.136-.532.06-.675-.168-.143-.229-.077-.53.146-.68l6.673-4.473-7.67 4.428c-.23.135-.526.062-.671-.162-.145-.226-.086-.523.131-.678l5.252-3.73-5.641 3.256c-.225.132-.514.066-.662-.149-.147-.215-.105-.508.098-.672l3.12-2.526-2.788 1.609c-.214.126-.491.072-.645-.125s-.138-.478.036-.656l.983-1.012c-.13-.031-.247-.112-.318-.237-.139-.239-.057-.545.183-.683l2.407-1.39c.215-.125.491-.072.645.125s.138.478-.036.656l-.638.656 5.175-2.987c.225-.132.514-.066.662.149.147.215.105.508-.098.672l-3.12 2.526 9.338-5.391c.23-.136.526-.062.671.162.145.226.086.523-.131.678l-5.252 3.73 11.414-6.589c.233-.137.531-.061.675.168.143.229.077.53-.146.68l-6.664 4.467 12.556-7.249c.236-.137.536-.059.677.173.142.232.071.534-.157.681l-5.509 3.522 10.405-6.007c.237-.137.538-.06.679.175.141.233.068.536-.163.682l-5.408 3.396 10.066-5.812c.236-.137.537-.06.678.174.141.232.07.535-.16.681l-11.369 7.211 17.383-10.018c.236-.138.538-.059.679.175s.067.537-.164.682l-12.453 7.787 18.28-10.554c.236-.136.538-.059.679.175s.067.537-.163.682l-17.688 11.09 21.289-12.293c.236-.138.54-.059.68.178.14.235.064.539-.17.682l-7.854 4.788 8.454-4.881c.237-.137.538-.06.679.175.141.233.068.536-.163.681l-20.301 12.763 20.715-11.961c.236-.139.538-.06.68.177.14.234.065.538-.167.682l-12.458 7.676 11.956-6.902c.236-.139.538-.06.68.177.14.235.065.539-.168.682l-9.609 5.903 8.567-4.945c.238-.139.54-.058.68.178s.064.54-.17.682l-2.142 1.304 1.187-.685c.236-.139.538-.06.679.176.141.234.067.538-.165.682l-10.276 6.375 9.181-5.301c.235-.137.536-.059.677.172.142.232.072.534-.156.682l-16.978 10.923 15.627-9.021c.236-.138.538-.06.68.177.14.234.065.538-.168.682l-2.131 1.312 1.168-.674c.236-.139.538-.06.68.177.14.234.065.538-.167.682l-1.639 1.01.682-.393c.236-.139.537-.059.679.175.141.234.067.538-.164.682l-4.769 2.976 3.752-2.166c.235-.136.536-.059.677.173.142.231.072.534-.156.681l-10.562 6.783 9.37-5.409c.235-.137.534-.061.677.172.142.231.072.533-.155.681l-10.342 6.689 9.137-5.274c.237-.137.537-.059.678.173.141.233.07.535-.159.682l-6.146 3.911 5.073-2.929c.233-.137.533-.062.675.17.143.229.076.531-.149.68l-10.519 6.95 9.253-5.342c.235-.136.533-.06.676.17.142.23.075.531-.15.681l-8.726 5.747 7.521-4.342c.236-.137.537-.06.677.173.142.231.071.534-.157.681l-3.534 2.266 2.512-1.45c.235-.136.535-.061.677.172s.072.534-.156.682l-3.254 2.094 2.233-1.289c.233-.137.532-.061.676.17.142.23.075.531-.15.681l-5.431 3.577 4.323-2.495c.235-.137.534-.06.677.171.142.231.073.533-.154.681l-2.546 1.654 1.535-.886c.231-.135.528-.061.673.165.144.227.082.526-.139.679l-7.151 4.945 5.899-3.405c.234-.134.53-.061.673.166.144.228.081.527-.14.679l-5.264 3.61 4.102-2.367c.233-.137.531-.062.675.169.143.229.077.53-.148.68l-1.488.989.493-.284c.228-.136.524-.062.669.16.146.224.09.521-.125.677l-5.807 4.22 4.526-2.613c.227-.135.521-.064.667.156.146.221.095.517-.116.676l-5.453 4.109 4.133-2.386c.229-.136.525-.063.671.162.144.225.087.522-.131.678l-2.171 1.548 1.104-.637c.226-.133.517-.065.663.151.147.217.103.51-.103.673l-4.073 3.235 2.771-1.599c.229-.133.523-.063.669.159.145.222.091.519-.123.676l-.927.683c.204-.066.436 0 .567.182.149.209.117.497-.076.667l-2.69 2.37 1.396-.805c.219-.128.502-.069.653.137.15.206.122.493-.066.665l-.948.867c.194-.028.392.066.494.246.139.239.057.545-.183.683l-3.65 2.107c-.078.046-.164.067-.25.067z" fill="#ffffff" fill-opacity="1" data-original-color="#0783e0ff" stroke="none" stroke-opacity="1"/><path d="m3.429 24.047c6.976 3.424 14.007 6.765 20.96 10.221 4.68 6.478 7.225 14.606 11.126 21.664.821 2.882 4.015 4.598 6.735 2.998 3.459-2.851 3.193-8.234 4.925-12.167 4.132-13.716 8.271-27.453 12.4-41.158.86-7.678-7.686-4.415-11.877-2.978-7.404 2.23-14.808 4.46-22.212 6.69-7.834 2.728-16.346 4.179-23.834 7.62-2.51 2.208-1.326 6.201 1.776 7.11zm-1.242-5.897c12.197-5.73 26.5-8.071 39.403-12.618 4.337-.402 17.252-8.55 16.518.184-5.085 16.876-10.169 33.752-15.254 50.627-3.364 6-6.866-2.223-8.133-5.409-2.918-5.494-5.106-11.453-8.337-16.739 27.369-26.762 25.908-27.65-.606-.556-5.048-2.905-10.247-4.891-15.36-7.572-2.975-1.947-10.488-2.964-8.231-7.917z" fill="#262626" fill-opacity="1" data-original-color="#262626ff" stroke="none" stroke-opacity="1"/></g></svg>