<svg id="Icons" height="300" viewBox="0 0 60 60" width="300" xmlns="http://www.w3.org/2000/svg" version="1.1" xmlns:xlink="http://www.w3.org/1999/xlink" xmlns:svgjs="http://svgjs.dev/svgjs"><g width="100%" height="100%" transform="matrix(1,0,0,1,0,0)"><g fill="#3f54ea"><path d="m29.233 15.415a.5.5 0 0 1 -.33-.876l2.939-2.581-4.574 2.642a.5.5 0 0 1 -.543-.838l1.069-.774-1.528.882a.5.5 0 0 1 -.544-.837l2.119-1.533-2.441 1.4a.5.5 0 0 1 -.554-.829l4.238-3.251-4.465 2.58a.5.5 0 0 1 -.562-.822l4.9-3.932-4.676 2.7a.5.5 0 0 1 -.551-.832l2.636-1.984-2.086 1.2a.5.5 0 0 1 -.572-.815l2.938-2.471-2.1 1.211a.5.5 0 0 1 -.592-.8l1.588-1.483a.5.5 0 0 1 -.121-.916l2.935-1.7a.5.5 0 0 1 .592.8l-1.116 1.053 3.228-1.863a.5.5 0 0 1 .572.816l-2.932 2.469 4.29-2.476a.5.5 0 0 1 .551.832l-2.641 1.982 3.22-1.858a.5.5 0 0 1 .563.822l-4.9 3.931 5.417-3.126a.5.5 0 0 1 .555.829l-4.244 3.255 4.158-2.4a.5.5 0 0 1 .544.837l-2.113 1.532 1.62-.934a.5.5 0 0 1 .543.838l-1.063.772.525-.3a.5.5 0 0 1 .58.809l-2.942 2.584 1.906-1.1a.5.5 0 0 1 .5.866l-6.281 3.625a.491.491 0 0 1 -.255.064z" fill="#ffffff" fill-opacity="1" data-original-color="#3f54eaff" stroke="none" stroke-opacity="1"/><path d="m31.937 59.27a.5.5 0 0 1 -.341-.865l.874-.82-1.429.824a.5.5 0 0 1 -.6-.787l2.462-2.45-2.6 1.5a.5.5 0 1 1 -.5-.865l5.923-3.42a.5.5 0 0 1 .6.787l-2.462 2.45 1.86-1.073a.5.5 0 0 1 .592.8l-.875.82.244-.14a.5.5 0 0 1 .5.865l-3.998 2.304a.49.49 0 0 1 -.25.07z" fill="#ffffff" fill-opacity="1" data-original-color="#3f54eaff" stroke="none" stroke-opacity="1"/><path d="m36.476 20.5a.5.5 0 0 1 -.25-.933l11.474-6.629a.5.5 0 0 1 .566.82l-3.264 2.655 2.224-1.283a.5.5 0 0 1 .575.812l-1.527 1.3a.5.5 0 0 1 .092.907l-3.6 2.078a.5.5 0 0 1 -.576-.812l.826-.706-2.938 1.7a.5.5 0 0 1 -.565-.82l3.262-2.654-6.054 3.5a.5.5 0 0 1 -.245.065z" fill="#ffffff" fill-opacity="1" data-original-color="#3f54eaff" stroke="none" stroke-opacity="1"/><path d="m42.912 14.175a.5.5 0 0 1 -.329-.877l.506-.442a.493.493 0 0 1 -.558-.175.5.5 0 0 1 .057-.662l.6-.573-.688.4a.5.5 0 0 1 -.6-.788l.763-.755-1.91 1.1a.5.5 0 0 1 -.585-.8l.743-.672-2.509 1.448a.5.5 0 0 1 -.595-.794l1.837-1.762-2.835 1.637a.5.5 0 0 1 -.576-.812l.531-.454-.429.248a.5.5 0 0 1 -.65-.734l.821-1.089a.515.515 0 0 1 -.483-.248.5.5 0 0 1 .183-.682l1.857-1.073a.5.5 0 0 1 .65.734l-.752 1 3.009-1.737a.5.5 0 0 1 .575.813l-.532.455 1.712-.988a.5.5 0 0 1 .595.794l-1.835 1.756 3.015-1.743a.5.5 0 0 1 .585.8l-.743.671 1.178-.68a.5.5 0 0 1 .6.788l-.762.754 1.007-.581a.5.5 0 0 1 .594.8l-.606.573.626-.361a.5.5 0 0 1 .579.809l-.465.407.31-.179a.5.5 0 1 1 .5.865l-4.746 2.74a.49.49 0 0 1 -.245.069z" fill="#ffffff" fill-opacity="1" data-original-color="#3f54eaff" stroke="none" stroke-opacity="1"/><path d="m18.953 11.474a.5.5 0 0 1 -.25-.933l4.984-2.878a.5.5 0 0 1 .627.761l-.659.756a.568.568 0 0 1 .444.25.5.5 0 0 1 -.183.682l-2.234 1.288a.5.5 0 0 1 -.627-.76l.533-.613-2.388 1.379a.5.5 0 0 1 -.247.068z" fill="#ffffff" fill-opacity="1" data-original-color="#3f54eaff" stroke="none" stroke-opacity="1"/><path d="m27.336 59.447a.5.5 0 0 1 -.31-.892l3.219-2.541-4.8 2.773a.5.5 0 0 1 -.559-.825l5.328-4.2-5.841 3.372a.5.5 0 0 1 -.531-.846l.779-.531-.336.193a.5.5 0 0 1 -.543-.838l4.082-2.955-3.544 2.043a.5.5 0 0 1 -.541-.839l3.591-2.569-3.05 1.761a.5.5 0 0 1 -.55-.833l5.295-3.974-4.745 2.74a.5.5 0 0 1 -.554-.829l5.914-4.543-5.36 3.094a.5.5 0 0 1 -.548-.834l4.929-3.654-4.381 2.528a.5.5 0 0 1 -.532-.845l1.194-.818-.662.382a.5.5 0 0 1 -.549-.833l5.169-3.861-4.62 2.665a.5.5 0 0 1 -.533-.844l1.451-1-.918.53a.5.5 0 0 1 -.548-.834l4.988-3.7-4.44 2.562a.5.5 0 0 1 -.545-.836l4.465-3.267-3.92 2.262a.5.5 0 0 1 -.531-.846l.873-.6-.342.2a.5.5 0 0 1 -.534-.844l1.638-1.128-1.106.637a.5.5 0 0 1 -.54-.839l3.371-2.4-2.834 1.636a.5.5 0 0 1 -.545-.836l4.477-3.275-3.935 2.271a.5.5 0 0 1 -.55-.832l5.339-4.012-4.793 2.767a.5.5 0 0 1 -.546-.836l4.6-3.377-4.058 2.343a.5.5 0 0 1 -.528-.849l10.825-7.211-10.3 5.947a.5.5 0 0 1 -.542-.839l6.181-4.447-5.643 3.259a.5.5 0 0 1 -.53-.846l.471-.319a.5.5 0 0 1 -.516-.843l4.047-3.415-3.688 2.123a.5.5 0 0 1 -.572-.814l1.561-1.316-3.7 2.132a.5.5 0 0 1 -.587-.8l2.006-1.83-4.439 2.562a.5.5 0 0 1 -.582-.807l1.8-1.594-3.182 1.837a.5.5 0 0 1 -.61-.781l1.686-1.744-2.652 1.53a.5.5 0 0 1 -.627-.1.5.5 0 0 1 -.017-.636l1.474-1.89-2.1 1.213a.5.5 0 0 1 -.6-.794l.748-.714-.751.433a.5.5 0 0 1 -.555-.829l4.983-3.82-4.955 2.862a.5.5 0 0 1 -.538-.841l1.8-1.272-1.343.774a.5.5 0 0 1 -.579-.808l3.815-3.344-2.6 1.5a.5.5 0 0 1 -.571-.817l1.4-1.174a.5.5 0 0 1 .033-.845l3.185-1.839a.5.5 0 0 1 .571.816l-.142.118 2.032-1.168a.5.5 0 0 1 .579.808l-3.812 3.341 6.44-3.719a.5.5 0 0 1 .538.841l-1.8 1.273 2.075-1.2a.5.5 0 0 1 .555.829l-6.722 5.154a.492.492 0 0 1 .116.112.5.5 0 0 1 -.054.661l-.749.716.716-.416a.5.5 0 0 1 .645.74l-1.469 1.886 3.52-2.031a.5.5 0 0 1 .609.78l-1.684 1.743 4.371-2.518a.5.5 0 0 1 .582.806l-1.799 1.594 4.161-2.4a.5.5 0 0 1 .587.8l-2.006 1.83 4.559-2.63a.5.5 0 0 1 .572.814l-1.563 1.316 3.7-2.13a.5.5 0 0 1 .572.814l-4.045 3.414 7.322-4.228a.5.5 0 0 1 .53.846l-.428.29 1.969-1.136a.5.5 0 0 1 .542.839l-6.18 4.448 15.185-8.767a.5.5 0 0 1 .528.849l-12.072 8.04a.5.5 0 0 1 .243.9l-4.6 3.378 4.057-2.342a.5.5 0 0 1 .551.832l-5.336 4.01 4.785-2.763a.5.5 0 0 1 .545.836l-4.478 3.277 3.933-2.271a.5.5 0 0 1 .54.84l-3.372 2.4 2.832-1.634a.5.5 0 0 1 .534.844l-1.637 1.127 1.1-.635a.5.5 0 0 1 .531.845l-.873.6.342-.2a.5.5 0 0 1 .545.836l-4.465 3.263 3.919-2.261a.5.5 0 0 1 .548.834l-4.988 3.7 4.44-2.563a.5.5 0 0 1 .533.845l-1.451 1 .918-.53a.5.5 0 0 1 .549.833l-5.168 3.863 4.617-2.665a.5.5 0 0 1 .532.845l-1.194.818.662-.382a.5.5 0 0 1 .548.834l-4.929 3.655 4.381-2.529a.5.5 0 0 1 .554.829l-5.911 4.543 5.36-3.093a.5.5 0 0 1 .55.832l-5.3 3.974 4.75-2.734a.5.5 0 0 1 .541.839l-3.591 2.561 3.05-1.761a.5.5 0 0 1 .543.838l-4.082 2.955 3.539-2.043a.5.5 0 0 1 .531.846l-.78.532.249-.143a.5.5 0 0 1 .559.825l-5.328 4.2 4.769-2.749a.5.5 0 0 1 .559.825l-6.423 5.075a.5.5 0 0 1 -.22.6l-2.05 1.184a.491.491 0 0 1 -.25.063z" fill="#ffffff" fill-opacity="1" data-original-color="#3f54eaff" stroke="none" stroke-opacity="1"/></g><path d="m48.72 12.631c-.129-6.052-7.075-8.247-12.043-6.272-.56-7.673-12.3-7.533-13.322-.179-15.374-3.68-16.75 16.828-.062 14.093-.058 11.069 0 22.176-.017 33.257 0 .934-.068 1.895.008 2.828.254 3.342 4.652 3.635 6.572 1.578 1.737 2.462 6.813 1.222 6.868-2.347.048-3.054 0-6.112 0-9.166v-26.129c5.262.714 12.12-1.314 11.996-7.663zm-7.367 2.1h-8.429a6.729 6.729 0 0 0 3.509-3.96c1.388.882 3.317.155 4.8.7 1.218.504 1.486 2.801.12 3.255zm-14.6 0c-2.36-.442-10.308 1.613-8.82-2.781.542-1.025 1.872-.653 2.858-.671a4.875 4.875 0 0 0 2.672-.731 6.41 6.41 0 0 0 3.293 4.178zm-.592-11.621c2.992-3.41 8.7-.985 9.066 3.317.467 3.3-.495 7.555-4.375 8.072-5.946.701-7.891-7.479-4.691-11.389zm10.315 16.616c-.235 0-1.2.125-1.2.468v32.8c-.122 1.869.656 4.79-1.555 5.667-1.653.456-2.889-1.389-2.989-2.8v-15.925c0-.721-1.464-.478-1.464.128.026 5.361-.049 10.743.027 16.094-.22 3.7-4.5 2.936-4.571-.388q-.011-13.421 0-26.846v-9.118c-1.647-.228-3.48.025-5.189-.08-8.181 0-9.347-12.7-.982-13.452a22.883 22.883 0 0 1 2.457 0 2.443 2.443 0 0 1 1.757 3.889c-.776.894-2.176.53-3.224.563-2.334-.211-4.646 2.506-2.278 4.208 7.662 1 15.638.086 23.414.332 3.183.083 4.454-4.124.8-4.54-.828-.049-1.674.076-2.5 0a2.693 2.693 0 0 1 -2.241-2.936c.224-2.055 3.182-1.684 4.7-1.449 6.152.726 7.976 9.651 2.549 12.7-2.052 1.203-5.217.685-7.511.685z" fill="#262626" fill-opacity="1" data-original-color="#262626ff" stroke="none" stroke-opacity="1"/></g></svg>