<svg xmlns="http://www.w3.org/2000/svg" id="Icons" viewBox="0 0 60 60" width="300" height="300" version="1.1" xmlns:xlink="http://www.w3.org/1999/xlink" xmlns:svgjs="http://svgjs.dev/svgjs"><g width="100%" height="100%" transform="matrix(1,0,0,1,0,0)"><defs><style>.cls-1{fill:#3b7ac8;}.cls-2{fill:#262626;}</style></defs><path class="" d="M42.953,59.455a.5.5,0,0,1-.309-.892l4.268-3.37-6.323,3.651A.5.5,0,0,1,40.05,58L44.8,54.642l-5.838,3.37a.5.5,0,0,1-.536-.843l6.833-4.761L37.58,56.844A.5.5,0,0,1,37.051,56l6.62-4.448-7.056,4.073a.5.5,0,0,1-.527-.849L43.7,49.7l-7.814,4.512a.5.5,0,0,1-.529-.848l9.671-6.485-9.635,5.562a.5.5,0,0,1-.524-.85L42.98,46.28,35.3,50.716a.5.5,0,0,1-.516-.857l.786-.494-.1.059a.5.5,0,0,1-.528-.849l11-7.357-9.485,5.475a.5.5,0,0,1-.528-.847l10.342-6.933-8.749,5.051a.5.5,0,0,1-.522-.853l4.647-3-3.484,2.011a.5.5,0,0,1-.673-.166.5.5,0,0,1,.141-.68L47.66,34.423l-8.7,5.022a.5.5,0,0,1-.525-.849l6.14-4.059L39.439,37.5a.5.5,0,0,1-.533-.845l8.758-6.029-7.771,4.486a.5.5,0,0,1-.523-.851l2.818-1.836-2.1,1.211a.5.5,0,0,1-.533-.845l7.094-4.866-6.4,3.694a.5.5,0,0,1-.524-.85l2.878-1.895-2.332,1.346a.5.5,0,0,1-.521-.853l.433-.28a.5.5,0,0,1-.5-.862l5.814-4-5.537,3.2a.5.5,0,0,1-.538-.841l6.591-4.645L39.4,25.751a.5.5,0,0,1-.527-.849l2.439-1.622-2.5,1.443a.5.5,0,0,1-.53-.847l3.722-2.514-4.064,2.346a.5.5,0,0,1-.54-.84l6.8-4.845-7.886,4.553a.5.5,0,0,1-.542-.838l7.625-5.494-9.524,5.5a.5.5,0,0,1-.524-.85l2.439-1.6L32,21.477a.5.5,0,0,1-.531-.846l6.874-4.684-9.539,5.508a.5.5,0,0,1-.52-.853l1.9-1.218L25.7,21.975a.5.5,0,0,1-.5-.866L48.617,7.591a.5.5,0,0,1,.52.853l-1.891,1.21,2.237-1.291a.5.5,0,0,1,.532.846l-6.876,4.684,7.537-4.351a.5.5,0,0,1,.524.851l-2.441,1.6,2.724-1.572a.5.5,0,0,1,.542.838L44.4,16.752l8.336-4.813a.5.5,0,0,1,.54.84l-6.8,4.846L53.8,13.4a.5.5,0,0,1,.53.847L50.61,16.757l3.9-2.248a.5.5,0,0,1,.527.848L52.6,16.979l2.5-1.445a.5.5,0,0,1,.538.841l-6.591,4.646,6.848-3.954a.5.5,0,0,1,.533.845l-5.819,4.007L56.527,18.5a.5.5,0,0,1,.522.853l-.414.267.272-.156a.5.5,0,0,1,.525.85l-2.884,1.9,2.759-1.592a.5.5,0,0,1,.533.845l-7.087,4.861,7.037-4.063a.5.5,0,0,1,.522.851l-2.839,1.851,2.6-1.5a.5.5,0,0,1,.533.845l-8.75,6.024,8.562-4.943a.5.5,0,0,1,.525.849L52.8,30.3l5.8-3.348a.5.5,0,0,1,.532.846L49.09,34.657,58.708,29.1a.5.5,0,0,1,.521.853l-4.644,2.995L58.7,30.58a.5.5,0,0,1,.529.848l-10.339,6.93,9.643-5.567a.5.5,0,0,1,.675.168.5.5,0,0,1-.146.681L48.055,41l10.132-5.85a.5.5,0,0,1,.516.857l-.794.5.014-.008a.5.5,0,0,1,.523.851l-8.1,5.306,7.082-4.089a.5.5,0,0,1,.528.848L48.285,45.9l8.406-4.853a.5.5,0,0,1,.528.849l-7.61,5.07,6.28-3.625a.5.5,0,0,1,.673.168.5.5,0,0,1-.144.68L49.8,48.636l5.159-2.979a.5.5,0,0,1,.536.843l-6.835,4.763,5.066-2.925a.5.5,0,0,1,.539.841L49.5,52.543l2.89-1.668a.5.5,0,0,1,.559.825l-4.267,3.368,1.8-1.04a.5.5,0,0,1,.567.821L49.347,56.24a.5.5,0,0,1-.037.842l-3.45,1.992a.5.5,0,0,1-.566-.82L45.6,58l-2.4,1.385A.491.491,0,0,1,42.953,59.455Z" fill="#ffffff" fill-opacity="1" data-original-color="#3b7ac8ff" stroke="none" stroke-opacity="1"/><path class="" d="M16.1,59.447a.5.5,0,0,1-.291-.906l.338-.243-1.4.807a.5.5,0,0,1-.539-.84l1.695-1.2-2.6,1.5a.5.5,0,0,1-.534-.843l1.76-1.218-2.381,1.375a.5.5,0,0,1-.537-.843l3.29-2.3-3.837,2.216a.5.5,0,0,1-.529-.847l1.16-.779-1.347.778a.5.5,0,0,1-.532-.846l2.473-1.682L9.65,55.1a.5.5,0,0,1-.535-.844l3.966-2.749L8.894,53.922a.5.5,0,0,1-.532-.846l3.148-2.145L8.229,52.824a.5.5,0,0,1-.525-.85l.1-.064-.075.043A.5.5,0,0,1,7.2,51.1l.283-.187-.254.147a.5.5,0,0,1-.543-.837L13.5,45.287,6.373,49.4a.5.5,0,0,1-.543-.837l6.989-5.046L5.566,47.7a.5.5,0,0,1-.526-.849l1.966-1.3L5.1,46.651a.5.5,0,0,1-.53-.847l3.487-2.342L4.6,45.457a.5.5,0,0,1-.54-.84l7.419-5.3L3.918,43.686a.5.5,0,0,1-.523-.852l1.049-.685-.888.513a.5.5,0,0,1-.54-.84l8.076-5.745-8.137,4.7a.5.5,0,0,1-.53-.846L8.1,36.094,2.542,39.3a.5.5,0,0,1-.537-.842l9.088-6.388L2.06,37.284a.5.5,0,0,1-.515-.857L23,23.058,1.7,35.356a.5.5,0,0,1-.512-.858l15.257-9.385L1.482,33.752a.5.5,0,0,1-.51-.859l9.442-5.759L1.355,32.363a.5.5,0,0,1-.51-.859l8.6-5.25L1.293,30.963a.5.5,0,0,1-.509-.86l2.9-1.761L1.3,29.723a.5.5,0,0,1-.51-.861l2.8-1.7L1.354,28.451a.5.5,0,0,1-.513-.857L14.351,19.2,1.533,26.6a.5.5,0,0,1-.518-.855L19.258,14.115,1.979,24.091a.5.5,0,0,1-.512-.859L6.238,20.3l-3.863,2.23a.5.5,0,0,1-.514-.857l7.314-4.55L2.958,20.709a.5.5,0,0,1-.515-.856l6.09-3.805L3.7,18.839a.5.5,0,0,1-.526-.85L16.031,9.45,5.356,15.612a.5.5,0,0,1-.526-.849L12.244,9.85,7.381,12.657a.5.5,0,0,1-.553-.83L12.509,7.5a.5.5,0,0,1-.392-.912L18.708,2.78a.5.5,0,0,1,.553.83l-5.6,4.265,12.127-7a.5.5,0,0,1,.526.85L18.9,6.639,29.347.607a.5.5,0,0,1,.526.849L17.017,9.995,32.975.782a.5.5,0,0,1,.514.857l-6.1,3.813,7.595-4.384a.5.5,0,0,1,.513.858L28.173,6.479l8.664-5a.5.5,0,0,1,.512.858L32.584,5.267l5.81-3.354a.5.5,0,0,1,.518.855L20.672,14.4,40.8,2.781a.5.5,0,0,1,.514.858l-13.5,8.385L42.492,3.546a.5.5,0,0,1,.51.86L40.191,6.112,43.625,4.13a.5.5,0,0,1,.509.86l-2.9,1.757,3.463-2a.5.5,0,0,1,.511.859l-8.6,5.247L45.883,5.5a.5.5,0,0,1,.511.859l-9.469,5.776,10.1-5.829a.5.5,0,0,1,.512.858l-15.248,9.38,16-9.239a.5.5,0,0,1,.515.857L20.819,25.6a.485.485,0,0,1,.163.159.5.5,0,0,1-.134.678L11.76,32.822l8.023-4.632a.5.5,0,0,1,.53.847l-5.672,3.837,5.088-2.937a.5.5,0,0,1,.54.839L12.2,36.519l7.641-4.412a.5.5,0,0,1,.523.852l-1.054.687.659-.379a.5.5,0,0,1,.54.839L13.088,39.4l7.19-4.151a.5.5,0,0,1,.53.848l-3.493,2.345,3.233-1.865a.5.5,0,0,1,.526.85L19.1,38.733l1.718-.992a.5.5,0,0,1,.543.838l-6.989,5.046L21.33,39.61a.5.5,0,0,1,.544.837l-6.81,4.939L21.9,41.438a.5.5,0,0,1,.525.85l-.284.187.1-.056a.5.5,0,0,1,.525.851l-.131.085a.5.5,0,0,1,.486.87l-3.147,2.146,3.08-1.778a.5.5,0,0,1,.535.844l-3.962,2.746L23.581,45.9a.5.5,0,0,1,.531.846l-2.476,1.685,2.42-1.4a.5.5,0,0,1,.528.848l-1.164.781,1-.575a.5.5,0,0,1,.536.843l-3.289,2.3,3.013-1.74a.5.5,0,0,1,.534.844l-1.76,1.217,1.242-.717a.5.5,0,0,1,.539.841l-1.694,1.2.912-.526a.5.5,0,0,1,.541.839l-.867.622h.007a.5.5,0,0,1,.321.882l-1.777,1.494a.5.5,0,0,1,.208.2.5.5,0,0,1-.183.682L19.229,59.07a.5.5,0,0,1-.572-.815l.79-.664-3.1,1.789A.491.491,0,0,1,16.1,59.447Z" fill="#ffffff" fill-opacity="1" data-original-color="#3b7ac8ff" stroke="none" stroke-opacity="1"/><path class="" d="M50.118,8.166C29.131-10.788-4.381,7.753.783,35.664,2.427,43,6.732,57.622,14.953,59.4A9.293,9.293,0,0,0,25.214,53.56c1.541-4.341-1.156-8.328-2.463-12.362-2.517-7.353-4.714-20.231,6.816-19.658,7.131-.465,10.715,4.182,9.581,11.047a39.489,39.489,0,0,1-1.742,8.324C36.1,45.063,33.129,49.4,34.821,53.845a9.011,9.011,0,0,0,9.841,5.573c8.248-1.661,12.181-15.011,14.2-22.2A29.854,29.854,0,0,0,50.118,8.166Zm8.148,21.887c.21,9.161-9.263,38.964-21.352,24.706-2.814-4.237.288-8.736,1.625-12.889C40.467,35.522,43.6,25.1,35.961,21.437c-20.192-5.509-18.74,11.756-12.829,25.074,4.056,6.942-3.623,15.234-10.6,10.6C3.676,47.4-1.108,31.554,3.907,18.95,16.109-9.528,57.94-.683,58.266,30.053Z" fill="#262626" fill-opacity="1" data-original-color="#262626ff" stroke="none" stroke-opacity="1"/></g></svg>