<svg id="Icons" viewBox="0 0 60 60" xmlns="http://www.w3.org/2000/svg" width="300" height="300" version="1.1" xmlns:xlink="http://www.w3.org/1999/xlink" xmlns:svgjs="http://svgjs.dev/svgjs"><g width="100%" height="100%" transform="matrix(1,0,0,1,0,0)"><path d="m30.112 59.466c-.169 0-.334-.086-.428-.242-.142-.232-.069-.536.161-.681l3.679-2.316-5.375 3.104c-.235.139-.535.06-.678-.173-.141-.232-.07-.535.159-.682l10.128-6.464-12.171 7.026c-.235.138-.537.061-.679-.175-.141-.233-.068-.536.163-.682l9.473-5.947-11.059 6.385c-.236.138-.537.059-.679-.175-.141-.233-.067-.536.163-.682l11.759-7.373-13.285 7.67c-.237.138-.54.059-.679-.176-.141-.234-.066-.538.165-.682l9.901-6.133-11.079 6.396c-.238.137-.538.058-.679-.176s-.067-.537.164-.682l13.686-8.517-14.945 8.628c-.235.139-.536.06-.678-.174-.141-.233-.069-.536.161-.682l19.941-12.595-21.47 12.396c-.237.137-.539.059-.68-.177-.14-.234-.065-.538.168-.682l13.15-8.097-14.047 8.109c-.238.138-.539.059-.679-.176-.141-.234-.066-.538.165-.682l17.547-10.882-18.531 10.699c-.237.138-.539.059-.68-.177-.14-.234-.065-.539.168-.682l14.994-9.219-15.746 9.091c-.238.137-.54.059-.68-.177-.14-.234-.065-.538.167-.682l17.697-10.92-18.465 10.66c-.238.137-.54.059-.68-.177-.14-.234-.065-.538.167-.682l18.243-11.249-18.932 10.93c-.238.137-.54.059-.68-.177-.14-.234-.065-.538.168-.682l18.014-11.091-18.598 10.737c-.238.138-.54.059-.68-.177s-.064-.539.169-.683l15.218-9.323-15.643 9.031c-.238.138-.54.059-.68-.177-.14-.234-.065-.538.168-.682l10.528-6.484-10.82 6.247c-.235.138-.536.061-.678-.174-.141-.233-.069-.536.161-.682l16.197-10.208-16.635 9.604c-.235.138-.536.06-.677-.173-.142-.232-.071-.534.157-.681l18.127-11.601-18.582 10.729c-.235.138-.536.06-.677-.173-.142-.231-.072-.534.157-.681l17.729-11.369-18.053 10.437c-.237.137-.539.059-.68-.177-.14-.235-.064-.539.169-.683l2.396-1.467-2.295 1.325c-.238.138-.54.059-.68-.177-.14-.234-.065-.538.167-.682l5.924-3.65-5.828 3.364c-.236.138-.536.061-.678-.174-.141-.233-.069-.536.161-.682l13.383-8.435-13.357 7.712c-.235.138-.537.059-.679-.175-.141-.233-.067-.537.163-.682l11.33-7.088-11.189 6.46c-.238.138-.54.059-.68-.177s-.064-.539.168-.682l3.437-2.108-3.153 1.82c-.235.139-.535.06-.678-.173-.141-.232-.07-.535.159-.682l16.646-10.616-16.411 9.478c-.238.137-.54.059-.68-.177s-.065-.539.168-.682l5.274-3.241-4.875 2.814c-.236.138-.537.06-.678-.174-.141-.232-.069-.535.16-.681l18.158-11.507-17.704 10.223c-.237.137-.539.059-.68-.177-.14-.235-.064-.54.169-.683l6.057-3.705-5.501 3.176c-.238.137-.54.059-.68-.177s-.065-.539.168-.682l8.314-5.108-7.676 4.431c-.238.138-.538.059-.679-.176s-.066-.538.165-.682l11.612-7.202-10.851 6.267c-.235.138-.537.06-.678-.174-.141-.232-.07-.535.159-.681l16.576-10.539-15.533 8.968c-.235.137-.534.061-.677-.172-.142-.231-.072-.533.155-.681l16.323-10.561-14.92 8.615c-.235.139-.537.061-.679-.175-.141-.233-.068-.536.163-.682l7.209-4.529-5.856 3.381c-.235.137-.534.06-.676-.171s-.074-.532.152-.68l10.833-7.094-8.772 5.064c-.235.137-.534.061-.676-.171-.143-.231-.074-.533.153-.681l5.301-3.448-3.022 1.745c-.226.133-.52.063-.666-.155s-.098-.514.112-.674l5.89-4.514c-.234.115-.523.031-.655-.198-.139-.239-.057-.545.183-.683l6.604-3.812c.226-.133.52-.063.666.155s.098.514-.112.674l-5.881 4.508 12.713-7.34c.235-.136.534-.06.676.171.143.231.074.533-.153.681l-5.309 3.453 7.879-4.549c.236-.136.534-.06.676.171s.074.532-.152.68l-10.836 7.096 13.596-7.85c.237-.137.539-.06.679.175.141.233.068.536-.163.682l-7.208 4.529 8.859-5.116c.236-.137.534-.061.677.172.142.231.072.533-.155.681l-16.329 10.563 18.685-10.787c.236-.136.537-.06.678.174.141.232.07.535-.159.681l-16.568 10.534 18.053-10.423c.237-.139.537-.06.679.176.141.234.066.538-.165.682l-11.618 7.206 11.86-6.848c.237-.139.539-.06.68.177.14.235.065.539-.168.682l-8.317 5.11 7.958-4.594c.237-.138.539-.06.68.177.14.235.064.54-.169.683l-6.056 3.704 4.622-2.668c.236-.137.537-.06.678.174.141.232.069.535-.16.681l-18.159 11.508 15.522-8.962c.236-.139.538-.06.68.177.14.235.065.539-.168.682l-5.26 3.232 4.354-2.514c.237-.137.535-.059.678.173.141.232.07.535-.159.682l-16.653 10.621 16.07-9.277c.237-.139.539-.06.68.177.14.235.064.539-.168.682l-3.434 2.106 3.104-1.792c.237-.137.538-.059.679.175s.067.537-.163.682l-11.316 7.079 11.252-6.496c.237-.136.537-.06.678.174s.069.536-.161.682l-13.395 8.441 13.628-7.867c.236-.138.538-.06.68.177.14.234.065.538-.167.682l-5.905 3.639 6.107-3.525c.236-.139.538-.06.68.177.14.235.064.539-.169.683l-2.395 1.465 2.658-1.534c.237-.136.536-.059.677.173.142.231.072.534-.157.681l-17.729 11.37 18.979-10.957c.238-.136.536-.059.677.173.142.232.071.534-.157.681l-18.131 11.603 20.018-11.557c.238-.137.537-.059.678.174s.069.536-.161.682l-16.201 10.211 18.985-10.961c.236-.139.538-.06.68.177.14.234.065.538-.168.682l-10.521 6.479 18.358-10.599c.237-.139.539-.06.68.177.14.235.064.539-.169.683l-15.215 9.321 16.017-9.247c.237-.139.539-.06.68.177.14.234.065.538-.168.682l-18.017 11.092 18.18-10.495c.236-.138.538-.06.68.177.14.234.065.538-.167.682l-18.234 11.243 18.139-10.472c.236-.139.538-.06.68.177.14.234.065.538-.167.682l-17.704 10.925 17.519-10.114c.236-.138.538-.06.68.177.14.234.065.539-.168.682l-14.991 9.217 14.688-8.479c.236-.139.538-.06.679.176.141.234.066.538-.165.682l-17.54 10.877 17.155-9.904c.236-.139.538-.06.68.177.14.234.065.538-.168.682l-13.163 8.104 12.674-7.316c.237-.137.537-.06.678.174s.069.536-.161.682l-19.949 12.6 19.297-11.141c.236-.139.537-.06.679.176.141.233.067.537-.164.682l-13.668 8.506 12.904-7.45c.236-.139.539-.06.679.176.141.234.066.538-.165.682l-9.906 6.136 9.043-5.221c.237-.137.538-.058.679.175s.067.536-.163.682l-11.747 7.366 10.688-6.171c.237-.137.538-.06.679.175.141.233.068.536-.163.682l-9.483 5.954 8.265-4.771c.237-.136.536-.059.678.173.141.232.07.535-.159.682l-10.123 6.461 8.562-4.943c.237-.137.537-.061.678.175.142.232.069.536-.161.681l-3.685 2.319 2.104-1.214c.234-.135.531-.062.674.167s.079.528-.144.68l-9.107 6.17 6.198-3.578c.228-.136.524-.062.669.16.146.224.09.521-.125.677l-4.706 3.416c.226-.097.503-.015.631.209.139.239.057.545-.183.683l-8.22 4.745c-.229.133-.525.062-.669-.16-.146-.224-.09-.521.125-.677l4.677-3.395-9.946 5.742c-.232.136-.53.062-.674-.167-.143-.229-.079-.528.144-.68l9.107-6.17-12.714 7.34c-.079.046-.165.067-.25.067z" fill="#ffffff" fill-opacity="1" data-original-color="#d5e1e8ff" stroke="none" stroke-opacity="1"/><path d="m21.073 15.816c-.156 0-.311-.074-.407-.21-.149-.21-.115-.499.08-.668l1.091-.945-1.84 1.062c-.218.128-.5.069-.652-.136-.151-.205-.124-.49.062-.663l2.495-2.316-3.011 1.737c-.219.13-.506.069-.656-.142-.149-.208-.117-.497.076-.667l1.947-1.71-1.766 1.019c-.208.121-.472.076-.629-.106-.156-.182-.162-.45-.013-.638l1.66-2.084-.107.062c-.24.138-.546.057-.683-.183-.139-.239-.057-.545.183-.683l2.392-1.381c.206-.122.471-.076.629.106.156.182.162.45.013.638l-1.66 2.084 3.857-2.227c.221-.129.507-.068.656.142.149.208.117.497-.076.667l-1.948 1.711 2.475-1.428c.22-.128.5-.069.652.136.151.205.124.49-.062.663l-2.494 2.315 2.545-1.469c.222-.128.508-.066.657.143.149.21.115.499-.08.668l-1.094.947.445-.257c.239-.141.546-.057.683.183.139.239.057.545-.183.683l-4.987 2.879c-.078.046-.165.067-.25.067z" fill="#000000" fill-opacity="1" data-original-color="#4ec161ff" stroke="none" stroke-opacity="1"/><path d="m10.572 26.708c-.154 0-.305-.071-.402-.203-.151-.205-.124-.491.062-.664l1.458-1.35-2.47 1.426c-.218.129-.499.07-.652-.136-.151-.205-.124-.491.062-.664l2.456-2.273-2.99 1.727c-.217.129-.501.07-.653-.137-.15-.206-.122-.492.065-.665l2.271-2.08-2.124 1.226c-.209.121-.474.076-.63-.108-.157-.183-.16-.452-.009-.64l1.598-1.969-.043.024c-.24.138-.544.057-.683-.183s-.057-.545.183-.683l2.387-1.379c.207-.123.474-.077.63.108.157.183.16.452.009.64l-1.6 1.971 3.737-2.157c.219-.128.502-.069.653.137.15.206.122.492-.065.665l-2.271 2.08 2.9-1.674c.22-.128.501-.069.652.136s.124.491-.062.664l-2.457 2.273 2.469-1.425c.219-.127.501-.069.652.136s.124.491-.062.664l-1.458 1.35.695-.401c.238-.139.545-.057.683.183.139.239.057.545-.183.683l-4.559 2.632c-.078.046-.164.067-.25.067z" fill="#000000" fill-opacity="1" data-original-color="#ea3446ff" stroke="none" stroke-opacity="1"/><path d="m10.979 42.08c-.151 0-.3-.069-.397-.197-.152-.2-.133-.482.047-.659l1.545-1.522-2.824 1.63c-.219.13-.504.07-.655-.14-.15-.207-.119-.494.071-.665l2.159-1.935-2.694 1.556c-.217.129-.502.07-.653-.138-.151-.206-.122-.493.066-.665l2.337-2.127-2.312 1.335c-.224.131-.511.067-.66-.146-.148-.213-.109-.503.09-.67l.68-.568-.041.023c-.218.127-.499.07-.65-.134-.152-.203-.128-.487.057-.662l.911-.864c-.074-.042-.139-.104-.184-.184-.139-.239-.057-.545.183-.683l2.391-1.38c.217-.128.5-.071.65.134.152.203.128.487-.057.662l-.136.129 1.382-.798c.225-.131.512-.066.66.146s.109.503-.09.67l-.681.569 1.321-.763c.22-.128.503-.068.653.138.151.206.122.493-.066.665l-2.335 2.125 2.851-1.646c.221-.128.504-.069.655.14.15.207.119.494-.071.665l-2.16 1.935 2.036-1.175c.215-.128.494-.071.647.13.152.2.133.482-.047.659l-1.545 1.523.596-.344c.238-.139.546-.058.683.183.139.239.057.545-.183.683l-3.979 2.297c-.078.046-.164.067-.25.067z" fill="#000000" fill-opacity="1" data-original-color="#eabb3bff" stroke="none" stroke-opacity="1"/><path d="m49.135 42.192c-.149 0-.296-.066-.394-.191-.153-.196-.14-.476.033-.655l.83-.863-2.412 1.392c-.225.132-.515.065-.662-.15-.148-.215-.104-.508.099-.672l.409-.33-.883.51c-.218.127-.499.07-.651-.134-.151-.204-.126-.488.059-.662l2.623-2.475-3.117 1.799c-.217.127-.497.069-.649-.132-.152-.202-.129-.486.053-.661l2.376-2.284-2.077 1.199c-.213.124-.485.073-.64-.12-.155-.192-.146-.469.021-.65l1.256-1.368c-.166-.006-.326-.095-.415-.25-.139-.239-.057-.545.183-.683l2.385-1.378c.212-.125.484-.073.64.12.155.192.146.469-.021.65l-1.087 1.184 2.816-1.625c.217-.129.496-.07.649.132.152.202.129.486-.053.661l-2.377 2.285 3.264-1.884c.218-.128.498-.07.651.134.151.204.126.488-.059.662l-2.621 2.473 2.763-1.595c.224-.133.516-.066.662.149.148.216.105.509-.099.673l-.452.364c.2-.07.429-.01.562.162.153.196.14.476-.033.655l-1.146 1.193c.136.027.258.11.332.239.139.239.057.545-.183.683l-2.385 1.376c-.078.046-.164.067-.25.067z" fill="#000000" fill-opacity="1" data-original-color="#7642a8ff" stroke="none" stroke-opacity="1"/><path d="m38.194 53.045c-.146 0-.29-.064-.388-.185-.155-.19-.148-.465.015-.648l1.366-1.534-3.195 1.845c-.218.128-.5.069-.651-.135s-.126-.489.06-.663l2.321-2.169-3.062 1.768c-.225.131-.514.066-.662-.149-.147-.215-.105-.507.097-.672l1.244-1.009-1.224.706c-.225.132-.516.065-.662-.15-.148-.216-.104-.508.099-.672l.666-.535-.271.156c-.21.123-.478.075-.635-.113-.155-.188-.153-.459.005-.645l1.437-1.68c-.214.062-.458-.024-.575-.229-.139-.239-.057-.545.183-.683l2.392-1.381c.21-.122.479-.075.635.113.155.188.153.459-.005.645l-1.41 1.648 3.382-1.952c.226-.133.516-.065.662.15.148.216.104.508-.099.672l-.667.536 1.058-.61c.225-.131.515-.066.662.149s.105.507-.097.672l-1.246 1.011 1.377-.795c.218-.128.5-.069.651.135s.126.489-.06.663l-2.32 2.169 2.101-1.213c.211-.125.481-.073.638.117.155.19.148.465-.015.648l-1.38 1.55c.221-.083.484.002.608.218.139.239.057.545-.183.683l-2.6 1.501c-.078.046-.164.067-.25.067z" fill="#000000" fill-opacity="1" data-original-color="#2a457fff" stroke="none" stroke-opacity="1"/><path d="m21.333 52.966c-.159 0-.314-.076-.411-.216-.148-.214-.107-.506.094-.671l.259-.212-.863.498c-.227.134-.518.063-.664-.152-.147-.218-.101-.512.105-.674l.337-.264-.609.352c-.222.129-.508.066-.657-.143-.149-.211-.114-.5.081-.669l1.987-1.715-2.143 1.237c-.222.129-.508.067-.658-.144-.149-.211-.113-.5.082-.668l1.516-1.302-1.151.664c-.211.124-.482.075-.637-.116-.155-.189-.15-.464.012-.647l1.356-1.534c-.193.025-.392-.067-.494-.246-.139-.239-.057-.545.183-.683l2.385-1.377c.21-.123.481-.074.637.116.155.189.15.464-.012.647l-1.274 1.441 3.134-1.809c.224-.13.51-.066.658.144.149.211.113.5-.082.668l-1.514 1.3 2.094-1.208c.22-.131.507-.067.657.143.149.211.114.5-.081.669l-1.987 1.714 2.164-1.249c.226-.133.518-.064.664.152.147.218.101.512-.105.674l-.336.263.008-.004c.225-.132.513-.066.661.148s.107.506-.094.671l-.489.401c.181-.024.375.075.474.248.139.239.057.545-.183.683l-4.852 2.801c-.078.046-.165.067-.25.067z" fill="#000000" fill-opacity="1" data-original-color="#4095c9ff" stroke="none" stroke-opacity="1"/><g fill="#262626"><path d="m40.669 7.276c2.975-6.676-8.709-8.655-19.442-5.505-8.83 2.592-16.543 8.732-19.006 17.919-10.692 26.865 21.978 51.119 44.967 34.113 7.055-5.019 11.719-13.107 12.434-21.751.317-3.816.449-15.523-6.296-12.855-8.549 8.897-21.06-3.066-12.658-11.923zm6.139 15.89c4.136.347 8.991-7.599 10.595-.249 6.574 22.791-19.621 44.307-40.506 32.364-28.232-14.703-13.13-59.562 18.358-53.382 7.862 1.117 3.814 5.025 1.581 9.399-1.953 6.381 3.491 12.468 9.971 11.868z" fill="#262626" fill-opacity="1" data-original-color="#262626ff" stroke="none" stroke-opacity="1"/><path d="m23.642 15.463c4.128-.972 4.385-7.184.094-8.111-7.909-1.656-8.265 10.51-.094 8.111zm-4.294-5.884c3.173-5.513 9.37 3.14 4.049 5.511-2.989.88-5.508-2.921-4.049-5.511z" fill="#262626" fill-opacity="1" data-original-color="#262626ff" stroke="none" stroke-opacity="1"/><path d="m9.191 18.424c-3.83 1.762-3.065 7.741 1.17 8.305 8.417.997 6.665-11.828-1.17-8.305zm2.126 7.416c-5.408-.475-3.08-9.606 1.816-6.382 2.645 1.726 1.532 6.617-1.816 6.382z" fill="#262626" fill-opacity="1" data-original-color="#262626ff" stroke="none" stroke-opacity="1"/><path d="m11.413 33.297c-8.111.602-4.561 11.884 2.452 7.897 3.97-2.142 2.022-8.359-2.452-7.897zm2.14 7.155c-4.17 3.557-8.087-5.005-3.057-6.429 3.392-.606 5.495 4.134 3.057 6.429z" fill="#262626" fill-opacity="1" data-original-color="#262626ff" stroke="none" stroke-opacity="1"/><path d="m45.302 41.18c5.886 4.337 11.96-5.992 4.161-7.728-4.272-.843-7.872 4.752-4.161 7.728zm3.258-7.002c5.418.632 2.981 9.975-1.906 6.458-2.555-1.79-1.484-6.792 1.906-6.458z" fill="#262626" fill-opacity="1" data-original-color="#262626ff" stroke="none" stroke-opacity="1"/><path d="m35.805 44.493c-7.237 3.574.81 12.747 5.691 6.699 2.875-3.751-1.585-8.617-5.691-6.699zm4.232 1.84c3.596 4.531-4.192 8.623-5.58 2.847-.746-3.205 3.461-5.505 5.58-2.847z" fill="#262626" fill-opacity="1" data-original-color="#262626ff" stroke="none" stroke-opacity="1"/><path d="m24.455 44.581c-7.176-2.734-9.804 8.945-1.7 8.428 4.446-.269 6.041-6.648 1.7-8.428zm-.992 7.494c-5.435 1.49-5.816-8.584-.159-6.786 2.893 1.072 3.152 5.684.159 6.786z" fill="#262626" fill-opacity="1" data-original-color="#262626ff" stroke="none" stroke-opacity="1"/></g></g></svg>