<svg id="Icons" height="300" viewBox="0 0 60 60" width="300" xmlns="http://www.w3.org/2000/svg" version="1.1" xmlns:xlink="http://www.w3.org/1999/xlink" xmlns:svgjs="http://svgjs.dev/svgjs"><g width="100%" height="100%" transform="matrix(1,0,0,1,0,0)"><path d="m12.035 59.464a.5.5 0 0 1 -.353-.854l1.875-1.873-3.544 2.046a.5.5 0 0 1 -.569-.818l2.761-2.275-3.678 2.123a.5.5 0 0 1 -.56-.824l4.054-3.22-4.99 2.879a.5.5 0 0 1 -.561-.823l5.294-4.217-6.271 3.62a.5.5 0 0 1 -.538-.842l2.032-1.429-2.362 1.363a.5.5 0 0 1 -.538-.841l2.213-1.561-2.5 1.444a.5.5 0 0 1 -.546-.836l3.461-2.534-3.815 2.201a.5.5 0 0 1 -.544-.837l3.079-2.239-3.317 1.912a.5.5 0 0 1 -.551-.832l3.89-2.935-4.012 2.315a.5.5 0 0 1 -.545-.835l2.025-1.491-1.64.949a.5.5 0 0 1 -.615-.774l1.582-1.689-.031.018a.5.5 0 1 1 -.5-.865l2.952-1.7a.5.5 0 0 1 .615.774l-1.583 1.69 6.524-3.767a.5.5 0 0 1 .546.835l-2.03 1.5 3.245-1.873a.5.5 0 0 1 .551.832l-3.887 2.919 4.505-2.6a.5.5 0 0 1 .544.837l-3.079 2.239 3.56-2.055a.5.5 0 0 1 .545.836l-3.461 2.536 3.987-2.3a.5.5 0 0 1 .538.841l-2.207 1.559 2.582-1.49a.5.5 0 0 1 .538.842l-2.036 1.43 2.392-1.38a.5.5 0 0 1 .562.823l-5.293 4.217 5.039-2.91a.5.5 0 0 1 .562.825l-4.056 3.221 3.049-1.759a.5.5 0 0 1 .568.818l-2.761 2.27 1.622-.935a.5.5 0 0 1 .6.786l-1.874 1.872.293-.169a.5.5 0 1 1 .5.865l-3.588 2.081a.49.49 0 0 1 -.25.064z" fill="#ffffff" fill-opacity="1" data-original-color="#a8253bff" stroke="none" stroke-opacity="1"/><path d="m48.562 18.324a.5.5 0 0 1 -.287-.909l.832-.583-1.223.706a.5.5 0 0 1 -.562-.823l5-3.988-5.867 3.386a.5.5 0 0 1 -.553-.83l4.424-3.372-5.121 2.956a.5.5 0 0 1 -.543-.838l3.138-2.274-3.622 2.091a.5.5 0 0 1 -.533-.846l1.917-1.347-2.262 1.312a.5.5 0 0 1 -.544-.837l3.374-2.459-3.687 2.131a.5.5 0 0 1 -.552-.83l4.26-3.244-3.381 1.949a.5.5 0 0 1 -.558-.826l3.2-2.5-2.2 1.27a.5.5 0 0 1 -.562-.823l1.871-1.496-.786.453a.5.5 0 0 1 -.625-.764l1.764-2a.5.5 0 0 1 -.331-.925l2.411-1.395a.5.5 0 0 1 .625.764l-1.7 1.925 3.9-2.249a.5.5 0 0 1 .562.824l-1.867 1.489 2.612-1.508a.5.5 0 0 1 .558.826l-3.2 2.507 4.018-2.319a.5.5 0 0 1 .553.83l-4.268 3.242 5.053-2.913a.5.5 0 0 1 .544.837l-3.368 2.453 3.883-2.242a.5.5 0 0 1 .537.842l-1.927 1.353 2.231-1.288a.5.5 0 0 1 .543.838l-3.143 2.273 3.5-2.019a.5.5 0 0 1 .552.83l-4.422 3.372 4.87-2.81a.5.5 0 0 1 .561.824l-5 3.988 5.346-3.086a.5.5 0 0 1 .537.842l-.838.587.507-.292a.5.5 0 0 1 .628.759l-2.041 2.352.515-.3a.5.5 0 1 1 .5.865l-3.092 1.786a.5.5 0 0 1 -.628-.76l2.037-2.35-7.822 4.515a.494.494 0 0 1 -.248.068z" fill="#ffffff" fill-opacity="1" data-original-color="#a8253bff" stroke="none" stroke-opacity="1"/><path d="m29.271 52.451a.5.5 0 0 1 -.272-.92l4.1-2.648-5.756 3.323a.5.5 0 0 1 -.524-.852l8.587-5.6-10.406 6.012a.5.5 0 0 1 -.523-.852l11.766-7.69-13.574 7.835a.5.5 0 0 1 -.523-.853l13.241-8.583-14.8 8.545a.5.5 0 0 1 -.517-.855l10.24-6.465-11.242 6.49a.5.5 0 0 1 -.513-.858l6.788-4.217-7.473 4.313a.5.5 0 0 1 -.52-.852l16.799-10.824-17.986 10.382a.5.5 0 0 1 -.518-.854l16.011-10.2-16.916 9.764a.5.5 0 0 1 -.511-.859l3.158-1.933-3.422 1.976a.5.5 0 0 1 -.52-.854l17.867-11.422-18.612 10.744a.5.5 0 0 1 -.511-.86l2.715-1.658-2.835 1.637a.5.5 0 0 1 -.514-.857l13.063-8.167-13.371 7.72a.5.5 0 0 1 -.514-.857l10.367-6.424-10.5 6.064a.5.5 0 0 1 -.519-.854l17.837-11.388-18.118 10.459a.5.5 0 0 1 -.519-.855l17.046-10.859-17.154 9.9a.5.5 0 0 1 -.52-.854l16.737-10.684-16.68 9.63a.5.5 0 0 1 -.519-.854l15.428-9.839-15.206 8.778a.5.5 0 0 1 -.511-.859l.563-.344-.149.085a.5.5 0 0 1 -.511-.858l2.395-1.473-1.919 1.106a.5.5 0 0 1 -.514-.856l7.069-4.413-6.5 3.753a.5.5 0 0 1 -.518-.856l9.228-5.84-8.525 4.921a.5.5 0 0 1 -.516-.857l4.844-3.031-4.035 2.325a.5.5 0 0 1 -.515-.856l2.884-1.806-1.972 1.137a.5.5 0 0 1 -.53-.847l11.257-7.6-9.624 5.556a.5.5 0 0 1 -.52-.853l2.185-1.405-.694.4a.5.5 0 0 1 -.533-.845l4.848-3.325-2.37 1.365a.5.5 0 0 1 -.544-.837l3.351-2.444a.507.507 0 0 1 -.18-.182.5.5 0 0 1 .183-.683l5.684-3.281a.5.5 0 0 1 .545.837l-1.43 1.044 5.4-3.115a.5.5 0 0 1 .534.845l-4.851 3.327 7.714-4.457a.5.5 0 0 1 .52.853l-2.177 1.4 3.747-2.163a.5.5 0 0 1 .53.847l-11.256 7.601 13.781-7.955a.5.5 0 0 1 .516.856l-2.887 1.808 3.9-2.252a.5.5 0 0 1 .515.856l-4.85 3.039 5.825-3.363a.5.5 0 0 1 .517.855l-9.237 5.847 10.364-5.981a.5.5 0 0 1 .515.856l-7.068 4.413 7.882-4.551a.5.5 0 0 1 .512.859l-2.395 1.475 2.923-1.687a.5.5 0 0 1 .511.859l-.547.334.959-.552a.5.5 0 0 1 .519.854l-15.43 9.841 16.423-9.482a.5.5 0 0 1 .52.855l-16.73 10.678 17.622-10.171a.5.5 0 0 1 .519.854l-17.045 10.86 17.793-10.273a.5.5 0 0 1 .518.855l-17.859 11.4 18.484-10.675a.5.5 0 0 1 .514.858l-10.342 6.413 10.558-6.095a.5.5 0 0 1 .514.856l-13.059 8.164 13.268-7.66a.5.5 0 0 1 .511.86l-2.72 1.661 2.66-1.535a.5.5 0 0 1 .519.853l-17.862 11.419 18.029-10.409a.5.5 0 0 1 .511.859l-3.162 1.936 2.969-1.714a.5.5 0 0 1 .518.855l-16.019 10.207 15.923-9.191a.5.5 0 0 1 .52.853l-16.796 10.82 16.527-9.542a.5.5 0 0 1 .514.857l-6.79 4.219 6.338-3.659a.5.5 0 0 1 .516.855l-10.248 6.471 9.682-5.59a.5.5 0 0 1 .523.853l-13.242 8.584 12.456-7.188a.5.5 0 0 1 .523.852l-11.768 7.687 10.7-6.173a.5.5 0 0 1 .523.851l-8.581 5.6 7.274-4.2a.5.5 0 0 1 .522.852l-4.121 2.66 2.663-1.537a.5.5 0 0 1 .534.844l-6.5 4.5 4.012-2.316a.5.5 0 0 1 .551.832l-3.87 2.915a.5.5 0 0 1 .107.912l-5.684 3.281a.5.5 0 0 1 -.55-.832l2.843-2.141-7.454 4.3a.5.5 0 0 1 -.534-.844l6.508-4.507-9.568 5.524a.5.5 0 0 1 -.259.071z" fill="#ffffff" fill-opacity="1" data-original-color="#d83a47ff" stroke="none" stroke-opacity="1"/><g fill="#f8b63b"><path d="m31.961 27.259a.5.5 0 0 1 -.357-.851l.882-.9-1.907 1.1a.5.5 0 0 1 -.564-.821l1.352-1.1-1.367.799a.5.5 0 0 1 -.566-.819l3.266-2.681-2.961 1.714a.5.5 0 0 1 -.562-.823l3.854-3.087-3.652 2.109a.5.5 0 0 1 -.536-.843l.173-.12a.509.509 0 0 1 -.553-.2.5.5 0 0 1 .1-.671l4.976-4-5.006 2.89a.5.5 0 0 1 -.533-.846l.256-.176-.086.049a.5.5 0 0 1 -.559-.826l4.608-3.609-4.791 2.766a.5.5 0 0 1 -.57-.818l4.026-3.347-4.364 2.519a.5.5 0 0 1 -.589-.8l3.212-2.952-3.731 2.153a.5.5 0 0 1 -.576-.811l1.3-1.116-1.572.907a.5.5 0 0 1 -.588-.8l.457-.419-.682.393a.5.5 0 0 1 -.751-.37l-.123-.959-.43.247a.5.5 0 0 1 -.5-.866l1.079-.623a.5.5 0 0 1 .746.369l.123.959 3.978-2.295a.5.5 0 0 1 .588.8l-.457.419 2.243-1.293a.5.5 0 0 1 .576.812l-1.294 1.113 3.037-1.753a.5.5 0 0 1 .589.8l-3.213 2.953 5.523-3.187a.5.5 0 0 1 .569.817l-4.024 3.347 5.841-3.372a.5.5 0 0 1 .558.826l-4.609 3.613 4.851-2.8a.5.5 0 0 1 .534.845l-.389.268a.5.5 0 0 1 .455.869l-4.977 4 4.208-2.43a.5.5 0 0 1 .537.843l-.561.391a.513.513 0 0 1 .437.217.5.5 0 0 1 -.1.673l-3.857 3.09 2.573-1.485a.5.5 0 0 1 .566.819l-3.27 2.68 1.579-.911a.5.5 0 0 1 .564.821l-1.58 1.278a.525.525 0 0 1 .441.192.5.5 0 0 1 -.039.657l-1.781 1.804a.494.494 0 0 1 .1.124.5.5 0 0 1 -.183.683l-1.7.98a.49.49 0 0 1 -.247.072z" fill="#ffffff" fill-opacity="1" data-original-color="#f8b63bff" stroke="none" stroke-opacity="1"/><path d="m17.636 32.547a.5.5 0 0 1 -.25-.933l8.889-5.132a.5.5 0 0 1 .663.714l-1.122 1.649.317-.182a.5.5 0 0 1 .5.865l-2.209 1.272a.5.5 0 0 1 -.663-.714l1.121-1.648-7 4.038a.5.5 0 0 1 -.246.071z" fill="#ffffff" fill-opacity="1" data-original-color="#f8b63bff" stroke="none" stroke-opacity="1"/><path d="m9.437 38.223a.5.5 0 0 1 -.286-.911l6.523-4.53-6.527 3.768a.5.5 0 0 1 -.673-.167.5.5 0 0 1 .143-.68l4.22-2.86-4.045 2.335a.5.5 0 0 1 -.529-.848l2.956-1.992-2.668 1.54a.5.5 0 0 1 -.529-.849l1.433-.957-1.055.611a.5.5 0 0 1 -.528-.848l.657-.44-.215.124a.5.5 0 0 1 -.54-.84l3.188-2.279-2.669 1.543a.5.5 0 0 1 -.559-.826l4.083-3.205-3.384 1.954a.5.5 0 0 1 -.57-.817l2.719-2.249-1.824 1.051a.5.5 0 0 1 -.566-.821l.688-.558a.471.471 0 0 1 -.362-.148.5.5 0 0 1 -.078-.605l.96-1.646a.481.481 0 0 1 -.16-.169.5.5 0 0 1 .183-.682l.836-.483a.5.5 0 0 1 .681.686l-.685 1.168 3.264-1.884a.5.5 0 0 1 .566.82l-.376.306 1.511-.872a.5.5 0 0 1 .569.817l-2.718 2.25 4.336-2.5a.5.5 0 0 1 .559.827l-4.086 3.207 5.62-3.247a.5.5 0 0 1 .54.84l-3.189 2.274 4.16-2.4a.5.5 0 0 1 .528.848l-.67.449 1.231-.708a.5.5 0 0 1 .528.849l-1.421.949 1.979-1.142a.5.5 0 0 1 .529.848l-2.959 1.994 3.59-2.072a.5.5 0 0 1 .53.847l-4.224 2.863 4.9-2.83a.5.5 0 0 1 .672.165.5.5 0 0 1 -.137.679l-15.625 10.849a.491.491 0 0 1 -.191.2l-.584.338a.5.5 0 0 1 -.25.066z" fill="#ffffff" fill-opacity="1" data-original-color="#f8b63bff" stroke="none" stroke-opacity="1"/><path d="m28.7 52.429a.5.5 0 0 1 -.348-.859l2.657-2.583-5.153 2.975a.5.5 0 0 1 -.575-.813l3.576-3.067-5.543 3.2a.5.5 0 0 1 -.537-.842l.357-.25-1.09.629a.5.5 0 0 1 -.545-.836l2.921-2.135-3.034 1.752a.5.5 0 0 1 -.563-.824l5.214-4.17-4.695 2.71a.5.5 0 0 1 -.547-.835l2.843-2.1-2.105 1.219a.5.5 0 0 1 -.559-.826l4-3.164-2.923 1.69a.5.5 0 0 1 -.564-.822l3.564-2.878-2.114 1.22a.5.5 0 0 1 -.545-.836l.944-.69a.5.5 0 0 1 -.223-.883l1.45-1.157a.5.5 0 0 1 -.36-.819l2.237-2.694a.5.5 0 0 1 .2-.654l.74-.428a.5.5 0 0 1 .635.752l-1.259 1.519 2.667-1.539a.5.5 0 0 1 .561.823l-1.029.821 1.041-.6a.5.5 0 0 1 .545.836l-.252.184a.5.5 0 0 1 .412.88l-3.563 2.871 3.3-1.907a.5.5 0 0 1 .56.825l-4 3.163 3.861-2.228a.5.5 0 0 1 .547.835l-2.844 2.1 2.7-1.556a.5.5 0 0 1 .562.823l-5.215 4.172 5.354-3.091a.5.5 0 0 1 .545.836l-2.922 2.136 2.953-1.7a.5.5 0 0 1 .537.842l-.354.248.294-.169a.5.5 0 0 1 .575.813l-3.574 3.066 3.974-2.295a.5.5 0 0 1 .6.791l-2.658 2.585 3.225-1.862a.5.5 0 0 1 .655.727l-1.339 1.839 2.04-1.177a.5.5 0 0 1 .687.673l-.1.177.258-.148a.5.5 0 1 1 .5.865l-1.813 1.047a.5.5 0 0 1 -.688-.674l.1-.177-2.525 1.458a.5.5 0 0 1 -.655-.726l1.339-1.84-4.663 2.691a.49.49 0 0 1 -.254.061z" fill="#ffffff" fill-opacity="1" data-original-color="#f8b63bff" stroke="none" stroke-opacity="1"/><path d="m50.088 22.973a.5.5 0 0 1 -.25-.933l.451-.261a.5.5 0 0 1 .5.866l-.451.26a.493.493 0 0 1 -.25.068z" fill="#ffffff" fill-opacity="1" data-original-color="#f8b63bff" stroke="none" stroke-opacity="1"/><path d="m47.293 39.424a.506.506 0 0 1 -.393-.19.5.5 0 0 1 .03-.653l1.886-2-4.199 2.419a.5.5 0 0 1 -.555-.829l1.43-1.1-2.592 1.497a.5.5 0 0 1 -.545-.837l1.689-1.23-2.672 1.542a.5.5 0 0 1 -.532-.845l.086-.059-.723.417a.5.5 0 0 1 -.551-.832l5.357-4.024-6.738 3.89a.5.5 0 0 1 -.529-.848l1.49-1-2.078 1.2a.5.5 0 0 1 -.534-.844l4.469-3.098-5.284 3.051a.5.5 0 0 1 -.526-.85l1.862-1.23-2.349 1.359a.5.5 0 0 1 -.606-.783l2.332-2.377-3.26 1.882a.5.5 0 0 1 -.685-.681l1.005-1.759a.508.508 0 0 1 -.131-.149.5.5 0 0 1 .183-.683l.749-.432a.492.492 0 0 1 .6.078.5.5 0 0 1 .082.6l-.705 1.234 4.832-2.789a.5.5 0 0 1 .607.783l-2.332 2.377 13.5-7.793a.5.5 0 0 1 .525.849l-1.863 1.233 1.615-.933a.5.5 0 0 1 .534.844l-4.474 3.093 4.2-2.424a.5.5 0 0 1 .528.848l-1.488 1 1.1-.632a.5.5 0 0 1 .667.157.5.5 0 0 1 -.116.675l-5.353 4.026 4.881-2.817a.5.5 0 0 1 .532.845l-.409.28a.5.5 0 0 1 .38.9l-1.694 1.235 1-.579a.5.5 0 0 1 .555.829l-1.43 1.1.618-.355a.5.5 0 0 1 .613.775l-1.886 2 .629-.363a.5.5 0 0 1 .66.719l-.6.857a.475.475 0 0 1 .077.1.5.5 0 0 1 -.184.683l-.83.479a.5.5 0 0 1 -.66-.72l.09-.129-1.638.945a.49.49 0 0 1 -.249.066z" fill="#ffffff" fill-opacity="1" data-original-color="#f8b63bff" stroke="none" stroke-opacity="1"/></g><path d="m29.117 34.37a.5.5 0 0 1 -.356-.85l2.157-2.2-3.418 1.98a.5.5 0 0 1 -.574-.813l1.859-1.587-2.121 1.225a.5.5 0 0 1 -.605-.784l2.62-2.648-2.379 1.37a.5.5 0 0 1 -.617-.772l1.227-1.326a.5.5 0 0 1 -.214-.932l2.377-1.372a.5.5 0 0 1 .617.773l-1.03 1.113 2.744-1.584a.5.5 0 0 1 .606.784l-2.62 2.647 3.614-2.086a.5.5 0 0 1 .574.812l-1.853 1.58 1.875-1.079a.5.5 0 0 1 .606.783l-2.156 2.196 1.487-.859a.5.5 0 1 1 .5.865l-4.67 2.7a.489.489 0 0 1 -.25.064z" fill="#ffffff" fill-opacity="1" data-original-color="#fd8736ff" stroke="none" stroke-opacity="1"/><path d="m6.626 42.722c-18.259 2.694 10.558 30.951 11.822 6.614a21.5 21.5 0 0 0 2.088 1.058 23.037 23.037 0 0 0 16.994.489c.424.295 1.275-.1 1.306-.512a22.286 22.286 0 0 0 11.775-11.2.475.475 0 0 0 .254-.566 22.324 22.324 0 0 0 -1.456-20.386c13.957-1.067 12.07-9.862 2.445-16.345-6.37-4.771-10.1 3.3-10.321 8.81a22.473 22.473 0 0 0 -2.054-1.014c-10.631-5.061-25.193.237-30.042 11.142a.473.473 0 0 0 -.275.636 21.509 21.509 0 0 0 -.322 16.715.155.155 0 0 0 .079.21 22.644 22.644 0 0 0 1.811 3.543 36.422 36.422 0 0 0 -4.104.806zm8.648 13.571c-3.049 6.1-9.566-1.721-11.986-4.8-5.007-5.877 2.879-8.794 7.871-8.945a22.288 22.288 0 0 0 5.982 5.968 28.071 28.071 0 0 1 -1.867 7.777zm12.5-29.149c2.919-2.928 7.133 2.165 4.906 5.095-.282.127-.49.357-.455.6a2.649 2.649 0 0 1 -1.364.851c-.145-.339-.725-.3-1.1-.046a3.958 3.958 0 0 1 -2.461-5.87c.3-.128.526-.374.474-.63zm-2.456 3.489a4.089 4.089 0 0 0 1.194 2.436c-3.6 4.415-6.741 10.229-6.156 16.1a22.059 22.059 0 0 1 -10-11.261c3.344-4.724 9.428-6.655 14.962-7.275zm-.136 20.428a21.239 21.239 0 0 1 -3.21-1.1c-1.089-5.854 1.879-11.724 5.415-16.239a4.122 4.122 0 0 0 2.079.558c.582 5.9 2.619 12.538 7.58 16.246a20.516 20.516 0 0 1 -11.864.535zm13.342-1.119c-5-3.494-6.98-10.034-7.584-15.827a5.746 5.746 0 0 0 1.759-.747c4.581 3.7 10.5 6.735 16.518 6.063a21.169 21.169 0 0 1 -10.693 10.511zm11.2-11.671c-5.71.92-11.622-2.286-15.976-5.813a4.128 4.128 0 0 0 .942-2.251c5.59-.648 11.667-2.573 15.432-6.932a22.23 22.23 0 0 1 -.398 14.996zm-4.952-34.571c3.22-5.808 9.527 1.76 11.951 4.842 5.007 5.858-3.059 8.558-7.915 8.758a21.825 21.825 0 0 0 -5.936-5.8 26.727 26.727 0 0 1 1.9-7.8zm-3.341 8.217a21.311 21.311 0 0 1 8.233 10.083c-3.323 4.728-9.484 6.657-14.993 7.275a3.845 3.845 0 0 0 -1.207-2.375c3.59-4.4 6.747-10.183 6.182-16.041q.917.489 1.785 1.059zm-3.4-1.833c1.068 5.84-1.864 11.7-5.391 16.215a4.586 4.586 0 0 0 -2.107-.561c-.584-5.946-2.631-12.676-7.748-16.3a20.665 20.665 0 0 1 15.249.647zm-16.559-.115c4.98 3.562 6.985 10.11 7.591 15.938a5.729 5.729 0 0 0 -1.736.745c-4.57-3.695-10.473-6.741-16.488-6.093a21.426 21.426 0 0 1 10.633-10.59zm-11.149 11.755c5.706-.9 11.61 2.313 15.954 5.838a4.066 4.066 0 0 0 -.967 2.32c-5.541.646-11.642 2.556-15.4 6.869a21.431 21.431 0 0 1 .413-15.027z" fill="#262626" fill-opacity="1" data-original-color="#262626ff" stroke="none" stroke-opacity="1"/></g></svg>