<svg id="Icons" height="300" viewBox="0 0 60 60" width="300" xmlns="http://www.w3.org/2000/svg" version="1.1" xmlns:xlink="http://www.w3.org/1999/xlink" xmlns:svgjs="http://svgjs.dev/svgjs"><g width="100%" height="100%" transform="matrix(1,0,0,1,0,0)"><path d="m28.466 59.436a.5.5 0 0 1 -.354-.854l1.808-1.808-4.133 2.385a.5.5 0 0 1 -.568-.818l2.7-2.231-4.709 2.718a.5.5 0 0 1 -.546-.836l2.469-1.814-3.98 2.3a.5.5 0 0 1 -.539-.84l3.046-2.164-4.492 2.592a.5.5 0 0 1 -.536-.842l3.928-2.737-5.369 3.1a.5.5 0 0 1 -.538-.842l6.286-4.422-8.011 4.625a.5.5 0 0 1 -.528-.848l6.2-4.218-7.647 4.418a.5.5 0 0 1 -.528-.848l6.992-4.687-8.361 4.827a.5.5 0 0 1 -.531-.847l9.747-6.613-11.342 6.547a.5.5 0 0 1 -.53-.849l10.165-6.774-11.551 6.671a.5.5 0 0 1 -.517-.856l2.937-1.85-3.47 2a.5.5 0 0 1 -.521-.853l8.372-5.386-8.815 5.094a.5.5 0 0 1 -.519-.854l8.178-5.231-8.22 4.746a.5.5 0 0 1 -.519-.854l7.4-4.707-7.02 4.055a.5.5 0 0 1 -.526-.849l13.5-8.934-12.463 7.192a.5.5 0 0 1 -.521-.852l9.294-5.988-8.314 4.8a.5.5 0 0 1 -.519-.854l6.323-4.023-5.41 3.124a.5.5 0 0 1 -.522-.853l9.184-5.955-8.195 4.729a.5.5 0 0 1 -.528-.847l12.315-8.25-11.195 6.464a.5.5 0 0 1 -.52-.854l6.132-3.935-5.212 3.009a.5.5 0 0 1 -.523-.855l4.213-2.683-3.328 1.924a.5.5 0 0 1 -.523-.852l7.639-4.98-6.669 3.851a.5.5 0 0 1 -.532-.847l11.151-7.57-10.03 5.79a.5.5 0 0 1 -.521-.854l4.336-2.789-3.442 1.987a.5.5 0 0 1 -.533-.845l10.481-7.171-9.361 5.4a.5.5 0 0 1 -.528-.849l7.92-5.295-6.907 3.992a.5.5 0 0 1 -.532-.846l9.135-6.251-8.052 4.649a.5.5 0 0 1 -.529-.849l6.595-4.412-5.613 3.24a.5.5 0 0 1 -.536-.843l8.947-6.231-7.838 4.534a.5.5 0 0 1 -.522-.852l1.392-.9-.547.316a.5.5 0 0 1 -.529-.848l5.387-3.621-4.424 2.55a.5.5 0 0 1 -.543-.838l7.412-5.351-6.299 3.634a.5.5 0 0 1 -.547-.835l4.9-3.617-3.851 2.222a.5.5 0 0 1 -.567-.818l3.695-3.042-2.6 1.5a.5.5 0 0 1 -.622-.767l1.843-2.057a.5.5 0 0 1 -.45-.891l2.657-1.534a.5.5 0 0 1 .622.767l-1.837 2.05 5.111-2.95a.5.5 0 0 1 .567.819l-3.691 3.039 6.321-3.649a.5.5 0 0 1 .547.835l-4.9 3.618 7.107-4.1a.5.5 0 0 1 .543.838l-7.418 5.349 8.59-4.958a.5.5 0 0 1 .529.848l-5.378 3.617 4.969-2.868a.5.5 0 0 1 .521.852l-1.386.9.954-.551a.5.5 0 0 1 .536.843l-8.948 6.23 8.569-4.946a.5.5 0 0 1 .528.849l-6.6 4.412 6.2-3.577a.5.5 0 0 1 .532.845l-9.137 6.252 8.756-5.054a.5.5 0 0 1 .529.848l-7.916 5.291 7.517-4.34a.5.5 0 0 1 .532.846l-10.484 7.171 10.113-5.839a.5.5 0 0 1 .521.854l-4.336 2.789 3.917-2.261a.5.5 0 0 1 .531.847l-11.144 7.565 10.775-6.221a.5.5 0 0 1 .523.852l-7.653 4.989 7.253-4.186a.5.5 0 0 1 .518.854l-4.213 2.68 3.794-2.191a.5.5 0 0 1 .52.854l-6.124 3.937 5.714-3.3a.5.5 0 0 1 .528.847l-12.317 8.253 11.952-6.9a.5.5 0 0 1 .522.852l-9.181 5.948 8.787-5.073a.5.5 0 0 1 .518.855l-6.331 4.026 5.917-3.416a.5.5 0 0 1 .521.853l-9.288 5.988 8.9-5.137a.5.5 0 0 1 .527.85l-13.5 8.932 13.132-7.578a.5.5 0 0 1 .519.855l-7.422 4.715 7.017-4.051a.5.5 0 0 1 .519.853l-8.171 5.228 7.769-4.485a.5.5 0 0 1 .52.853l-8.368 5.382 7.969-4.6a.5.5 0 0 1 .517.856l-2.94 1.851 2.516-1.457a.5.5 0 0 1 .527.849l-10.171 6.781 9.79-5.651a.5.5 0 0 1 .53.847l-9.74 6.608 9.362-5.4a.5.5 0 0 1 .528.847l-7 4.692 6.6-3.809a.5.5 0 0 1 .532.847l-6.212 4.211 5.8-3.351a.5.5 0 0 1 .539.842l-6.287 4.422 5.886-3.4a.5.5 0 0 1 .536.843l-3.93 2.739 3.509-2.026a.5.5 0 0 1 .539.84l-3.037 2.169 2.615-1.509a.5.5 0 0 1 .546.836l-2.468 1.814 2.031-1.172a.5.5 0 0 1 .568.818l-2.7 2.234 2.263-1.3a.5.5 0 0 1 .6.786l-1.804 1.793 1.337-.772a.5.5 0 0 1 .735.553l-.378 1.536a.5.5 0 0 1 .3.93l-.81.467a.5.5 0 0 1 -.735-.552l.367-1.477-3.608 2.083a.49.49 0 0 1 -.248.068z" fill="#ffffff" fill-opacity="1" data-original-color="#aac7c8ff" stroke="none" stroke-opacity="1"/><path d="m42.027 8.939a.5.5 0 0 1 -.314-.888l2.877-2.329-2.545 1.468a.5.5 0 0 1 -.56-.825l.9-.706-1 .577a.5.5 0 0 1 -.628-.76l1.9-2.192-3.65 2.105a.5.5 0 1 1 -.5-.866l6.226-3.594a.5.5 0 0 1 .628.76l-1.9 2.192 4.389-2.533a.5.5 0 0 1 .559.825l-.9.709 2.086-1.2a.5.5 0 0 1 .564.821l-2.874 2.323 4.523-2.61a.5.5 0 0 1 .5.865l-10.031 5.791a.491.491 0 0 1 -.25.067z" fill="#ffffff" fill-opacity="1" data-original-color="#d4e6e7ff" stroke="none" stroke-opacity="1"/><path d="m38.84 59.438a.5.5 0 0 1 -.289-.908l8.2-5.8-11.291 6.523a.5.5 0 0 1 -.531-.846l9.545-6.494-12.206 7.046a.5.5 0 0 1 -.527-.85l10.451-6.928-12.73 7.349a.5.5 0 0 1 -.516-.856l3.491-2.188-4.667 2.694a.5.5 0 0 1 -.519-.855l8.638-5.49-10.1 5.83a.5.5 0 0 1 -.521-.852l13.487-8.707-14.782 8.534a.5.5 0 0 1 -.515-.858l6.853-4.267-7.183 4.146a.5.5 0 0 1 -.513-.858l4.692-2.9-4.7 2.715a.5.5 0 0 1 -.518-.854l13.449-8.536-13.228 7.635a.5.5 0 0 1 -.512-.858l1.602-.985-1.094.631a.5.5 0 0 1 -.517-.855l12.191-7.686-11.67 6.739a.5.5 0 0 1 -.517-.856l12.281-7.747-11.764 6.792a.5.5 0 0 1 -.512-.858l3.833-2.361-3.321 1.917a.5.5 0 0 1 -.521-.852l16.519-10.635-16 9.235a.5.5 0 0 1 -.515-.856l9.207-5.745-8.69 5.017a.5.5 0 0 1 -.512-.858l3.235-1.99-2.723 1.571a.5.5 0 0 1 -.515-.856l9.842-6.156-9.327 5.389a.5.5 0 0 1 -.515-.857l8.339-5.192-7.824 4.514a.5.5 0 0 1 -.515-.857l8.975-5.6-8.46 4.892a.5.5 0 0 1 -.514-.858l7.874-4.895-7.36 4.249a.5.5 0 0 1 -.512-.859l3.445-2.12-2.933 1.683a.5.5 0 0 1 -.52-.853l15.893-10.2-15.373 8.885a.5.5 0 0 1 -.514-.858l8.008-4.98-7.494 4.326a.5.5 0 0 1 -.516-.857l10.337-6.474-9.821 5.67a.5.5 0 0 1 -.521-.854l16.187-10.405-15.666 9.044a.5.5 0 0 1 -.515-.857l7.76-4.83-7.245 4.183a.5.5 0 0 1 -.516-.856l8.935-5.594-8.419 4.86a.5.5 0 0 1 -.515-.857l6.191-3.856-5.676 3.278a.5.5 0 0 1 -.534-.845l5.164-3.546-4.63 2.676a.5.5 0 0 1 -.535-.844l4.36-3.013-3.825 2.205a.5.5 0 0 1 -.545-.835l6.358-4.645-5.813 3.356a.5.5 0 0 1 -.534-.844l4.071-2.8-3.537 2.044a.5.5 0 0 1 -.526-.85l6.2-4.087-5.674 3.274a.5.5 0 0 1 -.527-.849l4.489-2.985-3.962 2.288a.5.5 0 0 1 -.532-.846l3.784-2.569-3.252 1.872a.5.5 0 0 1 -.54-.84l3.266-2.321-2.726 1.574a.5.5 0 0 1 -.54-.84l.773-.553-.192.112a.5.5 0 0 1 -.617-.773l1.722-1.854a.505.505 0 0 1 -.568-.232.5.5 0 0 1 .182-.682l2.73-1.577a.5.5 0 0 1 .616.772l-1.687 1.818 6.306-3.64a.5.5 0 0 1 .54.84l-.773.551 2.93-1.691a.5.5 0 0 1 .54.84l-3.267 2.324 5.779-3.339a.5.5 0 0 1 .531.846l-3.781 2.573 5.966-3.444a.5.5 0 0 1 .526.848l-4.492 2.988 6.5-3.754a.5.5 0 0 1 .526.849l-6.2 4.087a.5.5 0 0 1 .53.848l-4.067 2.798 2.877-1.657a.5.5 0 0 1 .545.836l-6.359 4.644 6.424-3.711a.5.5 0 0 1 .534.844l-4.359 3.012 5.029-2.9a.5.5 0 0 1 .533.845l-5.164 3.546 20.536-11.859a.5.5 0 0 1 .515.858l-6.183 3.849 6.672-3.851a.5.5 0 0 1 .515.856l-8.929 5.588 9.191-5.3a.5.5 0 0 1 .515.858l-7.779 4.842 7.664-4.432a.5.5 0 0 1 .521.853l-16.181 10.4 15.745-9.09a.5.5 0 0 1 .516.856l-10.333 6.477 9.821-5.67a.5.5 0 0 1 .514.858l-8.003 4.98 7.494-4.326a.5.5 0 0 1 .52.853l-15.9 10.2 15.376-8.879a.5.5 0 0 1 .512.858l-3.445 2.12 2.933-1.693a.5.5 0 0 1 .514.857l-7.874 4.9 7.36-4.249a.5.5 0 0 1 .515.856l-8.959 5.588 8.444-4.875a.5.5 0 0 1 .515.858l-8.355 5.2 7.84-4.527a.5.5 0 0 1 .515.857l-9.842 6.155 9.327-5.385a.5.5 0 0 1 .512.859l-3.235 1.99 2.723-1.572a.5.5 0 0 1 .515.856l-9.205 5.742 8.69-5.016a.5.5 0 0 1 .521.852l-16.519 10.635 16-9.235a.5.5 0 0 1 .512.858l-3.833 2.36 3.321-1.917a.5.5 0 0 1 .517.856l-12.27 7.739 11.751-6.785a.5.5 0 0 1 .517.855l-12.2 7.693 11.683-6.744a.5.5 0 0 1 .512.858l-1.606.985 1.094-.631a.5.5 0 0 1 .518.854l-13.447 8.534 12.929-7.464a.5.5 0 0 1 .513.859l-4.7 2.9 4.186-2.417a.5.5 0 0 1 .515.857l-6.846 4.263 6.331-3.654a.5.5 0 0 1 .522.852l-13.487 8.711 12.966-7.485a.5.5 0 0 1 .519.855l-8.64 5.491 8.121-4.688a.5.5 0 0 1 .516.857l-3.48 2.182 2.964-1.712a.5.5 0 0 1 .527.85l-10.453 6.93 9.926-5.731a.5.5 0 0 1 .532.846l-9.543 6.493 9.011-5.2a.5.5 0 0 1 .539.841l-8.2 5.8 7.661-4.423a.5.5 0 0 1 .542.839l-5.5 3.96 4.961-2.864a.5.5 0 0 1 .538.842l-1.577 1.106 1.039-.6a.5.5 0 0 1 .595.794l-2.7 2.574 1.513-.873a.5.5 0 0 1 .5.865l-5.131 2.957a.5.5 0 0 1 -.595-.794l2.7-2.575-7.267 4.2a.5.5 0 0 1 -.537-.841l1.578-1.107-3.749 2.157a.5.5 0 0 1 -.542-.839l5.5-3.959-8.47 4.89a.491.491 0 0 1 -.248.067z" fill="#ffffff" fill-opacity="1" data-original-color="#d4e6e7ff" stroke="none" stroke-opacity="1"/><path d="m39.767 55.462a.5.5 0 0 1 -.3-.9l5.718-4.317-8.8 5.084a.5.5 0 0 1 -.543-.838l7.87-5.68-10.795 6.229a.5.5 0 0 1 -.534-.844l9.29-6.433-11.79 6.806a.5.5 0 0 1 -.526-.849l8.572-5.668-10.375 5.99a.5.5 0 0 1 -.529-.848l12.216-8.184-12.961 7.482a.5.5 0 0 1 -.517-.854l5.769-3.662-5.252 3.032a.5.5 0 0 1 -.521-.853l9.06-5.85-8.539 4.929a.5.5 0 0 1 -.526-.849l12.582-8.351-12.056 6.96a.5.5 0 0 1 -.522-.851l9.992-6.493-9.47 5.467a.5.5 0 0 1 -.516-.855l3.494-2.2-2.978 1.721a.5.5 0 0 1 -.517-.854l5.716-3.629-5.2 3a.5.5 0 0 1 -.525-.851l11.746-7.732-11.22 6.477a.5.5 0 0 1 -.522-.851l10.165-6.613-9.643 5.57a.5.5 0 0 1 -.516-.856l3.9-2.455-3.384 1.949a.5.5 0 0 1 -.514-.857l.5-.31a.5.5 0 0 1 -.506-.862l8.6-5.539-8.08 4.665a.5.5 0 0 1 -.514-.856l1.251-.782-.737.425a.5.5 0 0 1 -.528-.848l11.548-7.726-11.02 6.361a.5.5 0 0 1 -.522-.852l5.968-3.871-5.446 3.143a.5.5 0 0 1 -.531-.845l8.2-5.583-7.669 4.429a.5.5 0 0 1 -.526-.849l3.754-2.49-3.228 1.864a.5.5 0 0 1 -.549-.833l6.726-5.022-6.177 3.561a.5.5 0 0 1 -.544-.838l2.895-2.1-2.351 1.359a.5.5 0 0 1 -.571-.817l2.638-2.208-2.067 1.194a.5.5 0 0 1 -.7-.657l.8-1.609-.054.031a.5.5 0 1 1 -.5-.865l1.5-.863a.5.5 0 0 1 .7.656l-.8 1.608 5.609-3.238a.5.5 0 0 1 .571.816l-2.638 2.208 5.709-3.295a.5.5 0 0 1 .544.837l-2.9 2.1 5.155-2.98a.5.5 0 0 1 .549.833l-6.725 5.031 9.885-5.707a.5.5 0 0 1 .527.849l-3.76 2.494 5.417-3.127a.5.5 0 0 1 .531.845l-8.2 5.582 10.408-6.008a.5.5 0 0 1 .523.852l-5.956 3.863 7.425-4.288a.5.5 0 0 1 .529.849l-11.554 7.732 12.837-7.411a.5.5 0 0 1 .515.857l-1.244.776.737-.425a.5.5 0 0 1 .52.853l-8.6 5.539 8.08-4.669a.5.5 0 0 1 .514.857l-.5.311a.5.5 0 0 1 .5.864l-3.9 2.455 3.381-1.952a.5.5 0 0 1 .522.852l-10.168 6.618 9.651-5.571a.5.5 0 0 1 .525.85l-11.745 7.735 11.22-6.477a.5.5 0 0 1 .517.854l-5.7 3.619 5.186-2.994a.5.5 0 0 1 .516.856l-3.494 2.2 2.978-1.719a.5.5 0 0 1 .522.852l-9.995 6.489 9.47-5.467a.5.5 0 0 1 .526.85l-12.582 8.351 12.056-6.96a.5.5 0 0 1 .521.852l-9.06 5.855 8.539-4.93a.5.5 0 0 1 .517.855l-5.769 3.662 5.252-3.037a.5.5 0 0 1 .528.848l-12.216 8.186 11.688-6.748a.5.5 0 0 1 .525.849l-8.571 5.668 8.046-4.645a.5.5 0 0 1 .534.843l-9.291 6.435 8.757-5.056a.5.5 0 0 1 .543.838l-7.863 5.679 7.324-4.229a.5.5 0 0 1 .551.832l-5.722 4.32 5.171-2.986a.5.5 0 0 1 .557.828l-3.158 2.459 2.6-1.5a.5.5 0 0 1 .575.812l-1.47 1.262.895-.517a.493.493 0 0 1 .614.09.5.5 0 0 1 .053.619l-.5.755a.48.48 0 0 1 .472.248.5.5 0 0 1 -.182.683l-1.58.907a.5.5 0 0 1 -.667-.709l.441-.665-3.703 2.144a.5.5 0 0 1 -.575-.812l1.471-1.263-4.211 2.431a.5.5 0 0 1 -.557-.827l3.159-2.46-5.941 3.431a.5.5 0 0 1 -.25.062z" fill="#ffffff" fill-opacity="1" data-original-color="#aac7c8ff" stroke="none" stroke-opacity="1"/><g fill="#262626"><path d="m56.724 7.431c-2.269-11.542-26.652-4.349-35.476-6.763-11.076-1.409-9.02 13.059-11.748 20.144-1.71 9.888-5.485 19.736-6.022 29.679 9.391 11.317 34.857 9.666 48.329 7.275a6.056 6.056 0 0 0 4.917-7.024c-.024-14.436.043-28.875 0-43.311zm-30.048 51.058c-7.131-1-15.379-2.169-21.017-6.9-2.1-3.275.272-7.069.676-10.526q4.087-18.141 8.158-36.285c1.453-5.5 8.6-3.028 12.708-2.813-9.239 1.315-5.039 12.691-5.926 19.124q0 15.814 0 31.63c.177 4.831 5.32 5.462 9.092 6.032-1.26-.017-2.544-.16-3.691-.262zm28.6-44.555v32.61c-.308 3.222.983 7.077-1.523 9.66-8.2 3.785-18.6 2.823-27.263.9-7.294-1.934-2.443-22.889-3.767-29.665 1.286-6.414-3.71-23.739 4.513-24.909 8.564-1.418 19.392-2.794 26.958 2.049 1.906 2.733.797 6.247 1.082 9.355z" fill="#262626" fill-opacity="1" data-original-color="#262626ff" stroke="none" stroke-opacity="1"/><path d="m52.729 18.471c.213-5.668-18.062-3.757-22.179-3.262-1.511.259-5.092.4-5.279 2.413-.119 11.634.072 23.323 0 34.97 4.247 4.53 18.214 2.78 24.3 1.787 5.5-.452 2.458-7.584 3.164-11.274q-.006-12.318-.006-24.634zm-1.458 33.991c-3.9 2.932-20.68 2.886-24.542-.11.01-11.632-.015-23.334 0-34.942 7.044-3.107 16.981-2.362 24.394-.237.477 11.665-.015 23.581.148 35.289z" fill="#262626" fill-opacity="1" data-original-color="#262626ff" stroke="none" stroke-opacity="1"/><path d="m39.61 11.151c3.384-.4 4.347-5.281.837-6.3-5.77-1.582-7.298 7.428-.837 6.3zm-2.51-4.751a2.631 2.631 0 0 1 .915-.962 2.062 2.062 0 0 1 2.325.593 3.28 3.28 0 0 1 .8 3.071c-.163.581-.714 1.49-1.377 1.589-2.201.323-3.799-2.454-2.663-4.291z" fill="#262626" fill-opacity="1" data-original-color="#262626ff" stroke="none" stroke-opacity="1"/><path d="m32.271 40.074c.414 1.38-1.215 10.574 1.458 7.853-.414-1.381 1.215-10.575-1.458-7.853z" fill="#262626" fill-opacity="1" data-original-color="#262626ff" stroke="none" stroke-opacity="1"/><path d="m36.274 25.086c.688 2.394-1.664 26.493 1.451 22.829-.687-2.394 1.665-26.494-1.451-22.829z" fill="#262626" fill-opacity="1" data-original-color="#262626ff" stroke="none" stroke-opacity="1"/><path d="m40.276 30.194c.662 2.281-1.623 20.636 1.447 17.612-.661-2.281 1.624-20.636-1.447-17.612z" fill="#262626" fill-opacity="1" data-original-color="#262626ff" stroke="none" stroke-opacity="1"/><path d="m44.276 40.194c.453 1.511-1.279 10.061 1.448 7.612-.453-1.512 1.276-10.061-1.448-7.612z" fill="#262626" fill-opacity="1" data-original-color="#262626ff" stroke="none" stroke-opacity="1"/></g></g></svg>