<svg height="300" viewBox="0 0 505 505.37313" width="300" xmlns="http://www.w3.org/2000/svg" version="1.1" xmlns:xlink="http://www.w3.org/1999/xlink" xmlns:svgjs="http://svgjs.dev/svgjs"><g width="100%" height="100%" transform="matrix(1,0,0,1,0,0)"><g fill-rule="evenodd"><path d="m126.796875 504.457031c-1.796875-.003906-3.402344-1.136719-4.007813-2.828125-.605468-1.695312-.085937-3.589844 1.304688-4.734375l21.257812-17.464843-42.113281 24.308593c-1.96875 1.113281-4.460937.5-5.683593-1.402343-1.226563-1.898438-.757813-4.421876 1.066406-5.753907l5.863281-4.191406-16.800781 9.675781c-1.96875 1.128906-4.472656.523438-5.707032-1.378906-1.230468-1.902344-.761718-4.4375 1.070313-5.769531l13.980469-10.089844-24.867188 14.3125c-1.929687 1.097656-4.378906.527344-5.628906-1.304687-1.253906-1.832032-.890625-4.320313.832031-5.71875l31.308594-25.085938-44.730469 25.820312c-1.925781 1.085938-4.359375.519532-5.613281-1.300781-1.25-1.820312-.902344-4.296875.800781-5.707031l38-30.71875-48.214844 27.84375c-1.9375 1.117188-4.410156.546875-5.664062-1.304688-1.253906-1.851562-.863281-4.359374.894531-5.742187l10.582031-8.328125-11.265624 6.511719c-1.871094 1.125-4.285157.65625-5.601563-1.082031-1.316406-1.742188-1.109375-4.195313.480469-5.6875l7.03125-6.765626c-1.667969.152344-3.273438-.667968-4.128906-2.109374-1.179688-2.039063-.480469-4.648438 1.5625-5.828126l27.476562-15.855468c1.871094-1.125 4.285156-.65625 5.601562 1.082031 1.316407 1.742187 1.109376 4.191406-.480468 5.6875l-5.890625 5.671875 32.691406-18.890625c1.9375-1.09375 4.390625-.515625 5.636719 1.324219 1.246094 1.84375.863281 4.335937-.875 5.722656l-10.597656 8.328125 43.734374-25.238281c1.925782-1.105469 4.378907-.546875 5.636719 1.28125 1.257813 1.828125.902344 4.316406-.816406 5.722656l-38 30.71875 45.996094-26.5625c1.9375-1.148438 4.429687-.597656 5.699219 1.261719 1.269531 1.859375.878906 4.382812-.894532 5.769531l-31.328125 25.097656 47.789063-27.597656c1.960937-1.089844 4.433594-.476562 5.652344 1.40625 1.222656 1.882812.777343 4.390625-1.019532 5.734375l-13.933594 10.128906 21.800782-12.59375c1.972656-1.15625 4.507812-.554687 5.746094 1.371094 1.238281 1.921875.742187 4.480469-1.128907 5.796875l-5.835937 4.164062 10.539062-6.074218c1.921875-1.09375 4.359375-.539063 5.617188 1.277344 1.257812 1.820312.921875 4.296874-.78125 5.710937l-21.246094 17.457031 26.238281-15.152344c1.882813-1.0625 4.257813-.554687 5.539063 1.1875 1.277344 1.738282 1.054687 4.160157-.519532 5.636719l-11.949218 10.933594 7.339844-4.269531c2.039062-1.15625 4.632812-.453125 5.804687 1.578125s.484375 4.628906-1.539063 5.8125l-40.957031 23.664062c-1.882812 1.0625-4.257812.550781-5.539062-1.1875-1.277344-1.742187-1.054688-4.160156.519531-5.640625l11.914062-10.894531-37.546874 21.65625c-.636719.382813-1.359376.585937-2.101563.597656zm0 0" fill="#ffffff" fill-opacity="1" data-original-color="#e4e8ebff" stroke="none" stroke-opacity="1"/><path d="m98.433594 427.554688c-1.757813 0-3.339844-1.082032-3.972656-2.722657-.636719-1.644531-.203126-3.503906 1.097656-4.691406l4.640625-4.269531c-1.917969.871094-4.1875.210937-5.335938-1.554688-1.152343-1.765625-.84375-4.105468.730469-5.511718l3.609375-3.214844c-1.609375.257812-3.230469-.398438-4.199219-1.707032-1.292968-1.75-1.058594-4.191406.535156-5.667968l5.589844-5.117188-.5625.316406c-1.867187 1.0625-4.238281.570313-5.527344-1.148437-1.289062-1.722656-1.097656-4.132813.449219-5.628906l7.910157-7.570313-2.839844 1.640625c-1.8125 1.035157-4.113282.605469-5.429688-1.015625s-1.265625-3.960937.121094-5.523437l17.289062-19.292969-11.945312 6.914062c-1.882812 1.125-4.316406.640626-5.621094-1.125-1.304687-1.765624-1.058594-4.230468.566406-5.703124l19.132813-18.015626-15.359375 8.886719c-1.9375 1.113281-4.410156.542969-5.664062-1.308593-1.253907-1.851563-.863282-4.355469.894531-5.742188l2.089843-1.628906c-1.488281.296875-3.019531-.203125-4.042968-1.324219-1.351563-1.503906-1.460938-3.746094-.265625-5.375l9.15625-12.46875-9.890625 5.710937c-1.632813.960938-3.699219.730469-5.082032-.566406-1.378906-1.292968-1.742187-3.339844-.890624-5.03125l1.59375-3.210937-1.601563.933593c-1.066406.628907-2.359375.757813-3.527344.339844-1.160156-.402344-2.09375-1.285156-2.558593-2.421875l-1.535157-3.789062c-2.007812.246093-3.914062-.953125-4.5625-2.871094-.644531-1.917969.144531-4.027344 1.890625-5.050781l2.722656-1.515625c1.066407-.617188 2.347657-.742188 3.515626-.34375 1.167968.398437 2.101562 1.28125 2.570312 2.425781l1.40625 3.472656 9.625-5.554687c1.628906-.957031 3.695312-.726563 5.074219.5625 1.378906 1.292969 1.746093 3.335937.898437 5.023437l-1.59375 3.210938 15.222656-8.796875c1.75-1.019531 3.972657-.671875 5.324219.835937 1.351563 1.507813 1.460938 3.753906.257813 5.382813l-9.175782 12.46875 32.375-18.6875c1.941407-1.117188 4.410157-.546875 5.664063 1.304687 1.253906 1.851563.863281 4.359375-.890625 5.742188l-4.054688 3.191406c1.753907-.003906 3.332032 1.0625 3.976563 2.695312.648437 1.628907.230469 3.488282-1.050781 4.6875l-19.140625 17.953126 3.347656-1.929688c1.816406-1.046875 4.125-.621094 5.445313 1.007812 1.320312 1.628907 1.261718 3.976563-.136719 5.539063l-17.289063 19.292969 10.503906-6.058594c1.871094-1.144531 4.308594-.683594 5.628907 1.066406 1.324219 1.75 1.105469 4.21875-.507813 5.707032l-7.921875 7.570312 2.886719-1.707031c1.878906-1.0625 4.257812-.550781 5.535156 1.1875 1.277344 1.742187 1.054688 4.164062-.519531 5.640625l-5.570313 5.121094.570313-.324219c1.894531-1.09375 4.308594-.578125 5.589844 1.191406 1.28125 1.773437 1.015625 4.226563-.613281 5.683594l-3.585938 3.210937c1.871094-.34375 3.738281.59375 4.585938 2.296875.84375 1.699219.464843 3.753907-.933594 5.039063l-4.609375 4.207031c2.066406-.910156 4.484375-.050781 5.515625 1.957031 1.035156 2.007813.320312 4.472656-1.621094 5.621094l-33.777344 19.566406c-.644531.382813-1.382812.582032-2.132812.582032zm0 0" fill="#ffffff" fill-opacity="1" data-original-color="#e4e8ebff" stroke="none" stroke-opacity="1"/><path d="m129.042969 318.199219c-1.808594-.003907-3.414063-1.144531-4.015625-2.847657-.597656-1.707031-.0625-3.601562 1.34375-4.738281l38.367187-30.898437-64.359375 37.144531c-1.988281 1.097656-4.492187.445313-5.6875-1.488281-1.199218-1.933594-.671875-4.464844 1.199219-5.757813l6.742187-4.476562-13.773437 7.941406c-1.992187 1.117187-4.511719.464844-5.710937-1.480469-1.203126-1.945312-.660157-4.488281 1.230468-5.769531l15.964844-10.53125-21.792969 12.578125c-1.992187 1.070312-4.472656.398438-5.65625-1.527344-1.179687-1.929687-.652343-4.445312 1.203125-5.734375l10.800782-7.023437-14.316407 8.269531c-1.984375 1.097656-4.484375.453125-5.6875-1.472656s-.6875-4.453125 1.171875-5.757813l50.476563-33.808594-56.320313 32.511719c-1.988281 1.085938-4.476562.429688-5.667968-1.492187-1.195313-1.921875-.683594-4.441406 1.167968-5.742188l54.144532-35.984375-59.648438 34.414063c-2.011719 1.222656-4.636719.582031-5.859375-1.433594s-.582031-4.640625 1.433594-5.863281l13.457031-8.585938-16.042969 9.269531c-1.992187 1.214844-4.589843.605469-5.835937-1.367187-1.242188-1.972656-.667969-4.582031 1.285156-5.851563l86.050781-58.769531-92.570312 53.445313c-2.015625 1.21875-4.640625.574218-5.859375-1.445313-1.222656-2.015625-.578125-4.640625 1.441406-5.859375l9.746094-6.152344-10.675782 6.152344c-2 1.117188-4.523437.457032-5.71875-1.496094-1.199218-1.953124-.640624-4.5 1.261719-5.777343l34.886719-22.535157-36.078125 20.855469c-1.984375 1.152344-4.523437.535157-5.75-1.402343-1.230469-1.9375-.707031-4.5 1.183594-5.800782l69.484375-48.167968-71.574219 41.316406c-1.964844 1.148437-4.484375.550781-5.726563-1.355469-1.242187-1.90625-.769531-4.453125 1.074219-5.785156l62.898438-45.902344-63.300781 36.574219c-1.960938 1.132812-4.464844.535156-5.707032-1.359375-1.238281-1.898438-.777344-4.433594 1.050782-5.773438l40.957031-29.996093-38.75 22.332031c-1.941407 1.09375-4.398438.507812-5.636719-1.347657-1.242188-1.855468-.84375-4.347656.910156-5.726562l28.953125-22.28125-23.890625 13.789062c-1.9375 1.03125-4.339844.425782-5.558594-1.398437-1.214843-1.824219-.851562-4.273437.847657-5.664063l9.667969-7.484374-3.738282 2.148437c-1.882812 1.09375-4.285156.59375-5.578125-1.15625-1.289062-1.75-1.058593-4.195313.542969-5.667969l8.441406-7.835937-.777344.445312c-1.546874.890625-3.488281.726563-4.859374-.417969-1.375-1.140624-1.890626-3.019531-1.292969-4.703124l5.273437-14.703126c-1.117187-2.027343-.40625-4.578124 1.59375-5.742187l1.9375-1.125c1.546875-.898437 3.492188-.734375 4.867188.40625 1.378906 1.144531 1.894531 3.027344 1.292968 4.710937l-3.003906 8.347657 23.417969-13.507813c1.878906-1.078125 4.269531-.574218 5.554687 1.171875 1.285157 1.746094 1.058594 4.175781-.527343 5.652344l-8.40625 7.816406 25.402343-14.667969c1.941407-1.109374 4.410157-.527343 5.65625 1.328126 1.246094 1.855468.851563 4.359374-.910156 5.738281l-9.703125 7.550781 25.285157-14.597656c1.945312-1.117188 4.421874-.539063 5.667968 1.324218 1.246094 1.863282.839844 4.375-.933594 5.75l-28.960937 22.246094 50.917969-29.390625c1.960937-1.132812 4.46875-.535156 5.707031 1.363281 1.238281 1.894532.777344 4.429688-1.046875 5.769532l-40.960938 29.980468 64.347657-37.15625c1.96875-1.144531 4.484375-.546874 5.726562 1.359376 1.242188 1.90625.769531 4.449218-1.074219 5.785156l-62.898437 45.90625 92.003906-53.101563c1.988281-1.207031 4.574219-.605469 5.820313 1.359375 1.246094 1.960938.695312 4.558594-1.246094 5.84375l-69.476562 48.160156 95.949218-55.40625c2.007813-1.230468 4.636719-.597656 5.867188 1.414063 1.230468 2.007813.597656 4.636719-1.414063 5.867187l-34.917969 22.535157 43.519532-25.148438c2.019531-1.21875 4.640625-.574219 5.863281 1.441407 1.21875 2.019531.574219 4.644531-1.441406 5.863281l-9.796875 6.246093 8.15625-4.703124c1.980468-1.101563 4.476562-.460938 5.6875 1.457031 1.207031 1.917969.703125 4.445312-1.148438 5.753906l-85.996094 58.710937 84.617188-48.863281c2.007812-1.148437 4.566406-.484375 5.765625 1.496094 1.199219 1.976563.601563 4.550781-1.347656 5.800781l-13.652344 8.695313 10.929687-6.304688c1.992188-1.097656 4.492188-.445312 5.691407 1.488281 1.195312 1.929688.667969 4.460938-1.203125 5.753907l-54.089844 35.953125 49.902344-28.808594c1.980468-1.074219 4.457031-.417969 5.648437 1.496094 1.191407 1.914062.691407 4.421875-1.144531 5.730468l-50.472656 33.828126 45.132812-26.046876c1.992188-1.066406 4.472656-.398437 5.652344 1.53125 1.183594 1.925782.65625 4.441407-1.199219 5.734376l-10.886719 7.0625 4.410157-2.558594c1.996093-1.160156 4.554687-.515625 5.769531 1.445312 1.214844 1.964844.644531 4.535156-1.28125 5.808594l-15.90625 10.488281 6.570312-3.789062c1.992188-1.101563 4.492188-.445313 5.691407 1.488281 1.195312 1.929688.667969 4.460938-1.203125 5.753906l-10.511719 6.988282c1.625-.238282 3.246094.457031 4.1875 1.800781 1.265625 1.84375.890625 4.347656-.851563 5.746093l-38.757812 31.273438c2.066406-.632812 4.28125.382812 5.152344 2.359375.871094 1.980469.125 4.300781-1.738282 5.398437l-46.371093 26.777344c-.644531.375-1.378907.574219-2.125.570313zm0 0" fill="#ffffff" fill-opacity="1" data-original-color="#fdce58ff" stroke="none" stroke-opacity="1"/><path d="m19.046875 136.671875c-1.875 0-3.53125-1.222656-4.082031-3.015625-.550782-1.792969.132812-3.734375 1.683594-4.785156l61.484374-41.609375-54.382812 31.378906c-1.984375 1.132813-4.507812.503906-5.726562-1.429687-1.21875-1.933594-.699219-4.480469 1.179687-5.78125l56.089844-38.613282-45.527344 26.308594c-1.988281 1.070312-4.464844.40625-5.652344-1.515625-1.1875-1.917969-.671875-4.429687 1.171875-5.730469l8.339844-5.503906c-2 1.261719-4.640625.664062-5.902344-1.335938-1.261718-2-.664062-4.640624 1.335938-5.902343l33.945312-24.300781-23.851562 13.761718c-1.945313 1.117188-4.421875.539063-5.667969-1.324218-1.25-1.863282-.839844-4.375.933594-5.746094l25-19.269532-14.769531 8.53125c-1.796876 1.03125-4.074219.621094-5.398438-.972656-1.324219-1.589844-1.316406-3.90625.023438-5.484375l13.558593-15.863281-1.253906.679688c-1.324219.84375-3 .890624-4.367187.125-1.371094-.761719-2.210938-2.214844-2.1875-3.78125.019531-1.566407.898437-2.996094 2.289062-3.722657l22.773438-13.097656c1.800781-1.042969 4.085937-.632813 5.414062.964844 1.328125 1.597656 1.3125 3.921875-.039062 5.5l-13.550782 15.839843 48.8125-28.160156c1.941406-1.09375 4.398438-.507812 5.640625 1.347656 1.238281 1.855469.839844 4.347657-.914062 5.726563l-25.035157 19.257813 43.519532-25.136719c1.964844-1.113281 4.460937-.496094 5.683594 1.402343 1.226562 1.898438.757812 4.421876-1.066407 5.757813l-33.878906 24.277344 48.121094-27.761719c1.988281-1.097656 4.488281-.441406 5.6875 1.488281 1.195312 1.933594.667969 4.464844-1.199219 5.757813l-8.332031 5.503906 15.320312-8.839844c1.976563-1.089844 4.460938-.449218 5.664063 1.457032 1.207031 1.910156.714844 4.425781-1.117188 5.746093l-56.039062 38.585938 64.574218-37.28125c1.984376-1.117188 4.492188-.476563 5.703126 1.449219 1.210937 1.929687.695312 4.46875-1.171876 5.769531l-61.519531 41.660156 62.292969-35.984375c1.296875-.816406 2.925781-.878906 4.28125-.167969 1.351562.714844 2.222656 2.09375 2.28125 3.625.058594 1.527344-.703125 2.972657-1.996094 3.785157l-52.105468 35.984374 51.714843-29.863281c1.960938-1.136719 4.464844-.539062 5.707031 1.359375 1.238282 1.898438.777344 4.433594-1.050781 5.773438l-49.082031 35.976562 49.03125-28.304687c1.929688-1.097657 4.378906-.53125 5.632812 1.304687 1.25 1.832032.886719 4.316406-.835937 5.71875l-40.105469 32.050782 40.25-23.230469c1.960938-1.089844 4.433594-.476563 5.65625 1.40625 1.21875 1.882812.773438 4.390625-1.023437 5.738281l-4.164063 3.011719 2.28125-1.304688c1.847656-1.066406 4.199219-.601562 5.503906 1.085938 1.308594 1.6875 1.164063 4.082031-.335937 5.601562l-19.828125 20.054688 19.523438-11.222657c1.628906-.941406 3.6875-.703124 5.058593.589844 1.363281 1.304688 1.710938 3.347656.855469 5.027344l-7.203125 14.242188 6.304687-3.644532c1.382813-.785156 3.082032-.75 4.429688.09375 1.339844.855469 2.09375 2.386719 1.953125 3.96875l-.355469 4.214844c1.640625.476562 2.839844 1.886719 3.042969 3.582031.207031 1.699219-.617187 3.351563-2.097656 4.210938l-3.625 2.089843c-1.378907.792969-3.078125.753907-4.421875-.09375-1.339844-.851562-2.09375-2.378906-1.960938-3.960937l.21875-2.621094-11.585937 6.734375c-1.636719.96875-3.714844.738282-5.097657-.5625-1.386718-1.300781-1.742187-3.359375-.875-5.050781l7.191407-14.253906-34.5 19.867187c-1.847657 1.054688-4.191407.582032-5.488281-1.101562-1.300782-1.683594-1.160157-4.066406.324218-5.589844l19.808594-20.050781-46.421875 26.800781c-1.964844 1.128906-4.472656.523438-5.703125-1.378906-1.234375-1.902344-.765625-4.4375 1.070312-5.769532l4.1875-3.03125-17.6875 10.242188c-1.933593 1.117188-4.398437.554688-5.660156-1.285156-1.257812-1.84375-.886718-4.34375.855469-5.738282l40.105469-32.035156-67.78125 39.109375c-1.960938 1.132813-4.464844.535157-5.703125-1.363281-1.242188-1.894531-.78125-4.429688 1.046875-5.773438l49.097656-35.992187-74.792969 43.179687c-1.980469 1.117188-4.488281.488282-5.703125-1.433593s-.710937-4.457031 1.144532-5.769531l52.113281-36.035157-74.957031 43.273438c-.644532.382812-1.378907.589843-2.132813.597656zm0 0" fill="#ffffff" fill-opacity="1" data-original-color="#e4e8ebff" stroke="none" stroke-opacity="1"/><path d="m128.574219 60.65625c-1.730469 0-3.292969-1.039062-3.953125-2.640625-.660156-1.597656-.289063-3.4375.941406-4.65625l16.988281-16.957031-40.789062 23.5625c-1.875 1.167968-4.332031.710937-5.660157-1.050782-1.332031-1.765624-1.097656-4.25.539063-5.734374l22.949219-21.785157-42.054688 24.300781c-1.882812 1.128907-4.3125.644532-5.621094-1.121093-1.304687-1.765625-1.058593-4.230469.570313-5.703125l21.171875-19.796875-33.945312 19.625c-1.917969 1.097656-4.351563.554687-5.617188-1.253907-1.265625-1.808593-.945312-4.285156.742188-5.707031l7.679687-6.425781-10.929687 6.304688c-1.808594 1.023437-4.09375.597656-5.410157-1.015626-1.3125-1.613281-1.273437-3.9375.09375-5.503906l5.171875-5.820312c-2.050781 1.058594-4.570312.296875-5.6875-1.71875-1.121094-2.019532-.433594-4.558594 1.546875-5.738282l22.785157-13.148437c1.8125-1.039063 4.109374-.609375 5.425781 1.007813 1.320312 1.617187 1.273437 3.953124-.109375 5.519531l-5.121094 5.800781 30.609375-17.714844c1.917969-1.097656 4.351563-.554687 5.617187 1.253906 1.265626 1.8125.945313 4.285157-.742187 5.710938l-7.683594 6.433594 23.519531-13.585938c1.882813-1.128906 4.316407-.640625 5.621094 1.125 1.304688 1.761719 1.058594 4.230469-.570312 5.703125l-21.171875 19.796875 41.0625-23.722656c1.886719-1.414062 4.5625-1.03125 5.976562.851562 1.414063 1.886719 1.03125 4.558594-.855469 5.972657l-22.953124 21.796875 37.902343-21.878906c1.855469-1.046876 4.199219-.5625 5.488281 1.132812 1.289063 1.691406 1.132813 4.078125-.367187 5.589844l-17.03125 16.902344 24.363281-14.042969c1.820313-1.0625 4.144532-.628907 5.464844 1.011719 1.324219 1.640624 1.25 4.003906-.175781 5.558593l-4.546875 4.972657c2.070312-.617188 4.273437.410156 5.136718 2.390624.859376 1.984376.097657 4.296876-1.765624 5.386719l-22.769532 13.105469c-1.816406 1.035156-4.121094.597656-5.433594-1.03125-1.3125-1.632812-1.246093-3.976562.152344-5.53125l4.265625-4.710938-28.6875 16.597657c-.648437.378906-1.382812.578125-2.132812.582031zm0 0" fill="#ffffff" fill-opacity="1" data-original-color="#cad0d7ff" stroke="none" stroke-opacity="1"/><path d="m116.097656 180.496094c-1.847656.023437-3.496094-1.144532-4.089844-2.890625-.59375-1.75 0-3.679688 1.480469-4.789063l28.40625-21.957031-48.394531 27.941406c-1.972656 1.117188-4.480469.496094-5.703125-1.417969-1.21875-1.914062-.726563-4.449218 1.121094-5.769531l12.988281-9.121093-24.449219 14.164062c-1.9375 1.085938-4.386719.5-5.628906-1.347656-1.238281-1.847656-.847656-4.335938.894531-5.71875l37.402344-28.902344-54.085938 31.242188c-1.976562 1.15625-4.511718.542968-5.746093-1.386719-1.234375-1.929688-.722657-4.488281 1.15625-5.796875l14.300781-10.0625-22.058594 12.75c-1.925781 1.082031-4.359375.519531-5.609375-1.300782-1.253906-1.824218-.90625-4.296874.796875-5.707031l35.578125-28.738281-46.933593 27.09375c-1.898438 1.097656-4.316407.578125-5.597657-1.199219-1.28125-1.777343-1.011719-4.234375.628907-5.6875l27.800781-24.746093-32.058594 18.542968c-1.863281 1.085938-4.246094.613282-5.550781-1.105468-1.304688-1.722657-1.121094-4.144532.429687-5.644532l8.78125-8.535156c-1.867187.484375-3.832031-.324219-4.8125-1.988281-1.179687-2.039063-.484375-4.648438 1.554688-5.828125l28.097656-16.214844c1.867187-1.089844 4.25-.613281 5.554687 1.105469 1.304688 1.722656 1.117188 4.144531-.433593 5.644531l-8.351563 8.183594 38.859375-22.433594c1.894531-1.097656 4.316407-.578125 5.597657 1.199219 1.28125 1.777343 1.007812 4.234375-.632813 5.6875l-27.824219 24.660156 57.914063-33.433594c1.929687-1.109375 4.386719-.550781 5.648437 1.285157 1.257813 1.835937.894532 4.332031-.835937 5.730468l-35.574219 28.742188 58.390625-33.714844c1.972656-1.082031 4.441406-.453125 5.652344 1.441406 1.207031 1.894532.742187 4.402344-1.066407 5.734375l-14.335937 10.066407 25.597656-14.785157c1.941407-1.109375 4.410157-.53125 5.65625 1.324219 1.246094 1.859375.851563 4.363281-.910156 5.738281l-37.410156 28.894531 52.699219-30.4375c1.976562-1.121093 4.484374-.496093 5.703124 1.417969 1.222657 1.914063.730469 4.449219-1.117187 5.765625l-13.039063 9.15625 20.050782-11.570312c1.941406-1.109375 4.410156-.527344 5.65625 1.328125 1.25 1.855469.851562 4.359375-.910156 5.738281l-28.332032 21.949219 36.308594-20.960938c1.898438-1.078125 4.300781-.554687 5.578125 1.214844 1.273437 1.769531 1.007813 4.21875-.617187 5.671875l-24.84375 21.898438 27.605468-15.933594c1.898438-1.097656 4.316406-.578125 5.597656 1.199218 1.28125 1.777344 1.011719 4.234376-.628906 5.6875l-7.109375 6.316407c1.144531.265625 2.121094.996093 2.707031 2.011719 1.175782 2.039062.484376 4.648437-1.554687 5.828124l-28.851563 16.660157c-1.894531 1.09375-4.316406.578125-5.597656-1.199219s-1.007812-4.234375.632813-5.6875l2.789062-2.476562-28.023437 16.214843c-1.894532 1.078125-4.300782.554688-5.574219-1.214843-1.277344-1.769532-1.007813-4.21875.617187-5.671876l24.796876-21.949218-54.570313 31.507812c-.65625.382813-1.40625.585938-2.167969.585938zm0 0" fill="#ffffff" fill-opacity="1" data-original-color="#f5ba47ff" stroke="none" stroke-opacity="1"/><path d="m64.445312 248.96875c-1.464843 0-2.828124-.753906-3.609374-1.992188-.78125-1.242187-.871094-2.796874-.238282-4.117187l6.824219-14.191406-16.296875 9.386719c-1.699219.964843-3.835938.65625-5.191406-.757813-1.351563-1.410156-1.570313-3.558594-.535156-5.214844l5.53125-8.679687c-2.070313.582031-4.25-.464844-5.085938-2.445313-.839844-1.980469-.070312-4.277343 1.792969-5.355469l13.96875-8.0625c1.699219-.976562 3.84375-.667968 5.199219.746094 1.355468 1.414063 1.578124 3.570313.535156 5.226563l-5.378906 8.433593 13.117187-7.570312c1.621094-.929688 3.652344-.695312 5.023437.570312 1.367188 1.269532 1.753907 3.28125.949219 4.96875l-6.824219 14.199219 1.945313-1.117187c2.023437-1.0625 4.527344-.335938 5.671875 1.644531 1.140625 1.980469.523438 4.507813-1.40625 5.734375l-13.832031 8.023438c-.65625.378906-1.402344.574218-2.160157.570312zm0 0" fill="#ffffff" fill-opacity="1" data-original-color="#f5ba47ff" stroke="none" stroke-opacity="1"/><path d="m166.84375 248.96875c-1.613281 0-3.089844-.914062-3.8125-2.359375-.726562-1.445313-.570312-3.175781.402344-4.46875l2.558594-3.359375-8.480469 4.886719c-1.816407 1.050781-4.125.625-5.445313-1-1.320312-1.628907-1.269531-3.972657.128906-5.535157l3.992188-4.460937-3.636719 2.089844c-1.773437 1.03125-4.027343.652343-5.367187-.898438-1.34375-1.550781-1.394532-3.835937-.117188-5.441406l3.941406-4.976563c-1.085937-.292968-2.011718-1.011718-2.558593-1.996093-1.175781-2.039063-.480469-4.640625 1.550781-5.820313l13.96875-8.0625c1.769531-1.046875 4.03125-.664062 5.359375.902344 1.347656 1.546875 1.398437 3.835938.128906 5.445312l-1.835937 2.3125 7.355468-4.265624c1.816407-1.050782 4.121094-.625 5.445313 1 1.320313 1.628906 1.269531 3.972656-.128906 5.535156l-3.992188 4.472656 3.867188-2.238281c1.757812-1.019531 3.992187-.652344 5.335937.875 1.347656 1.527343 1.425782 3.789062.191406 5.40625l-4.191406 5.503906c1.753906.332031 3.113282 1.71875 3.410156 3.476563.300782 1.757812-.527343 3.515624-2.070312 4.410156l-13.863281 8.003906c-.652344.371094-1.386719.566406-2.136719.5625zm0 0" fill="#ffffff" fill-opacity="1" data-original-color="#f5ba47ff" stroke="none" stroke-opacity="1"/><path d="m401.726562 504.335938c-1.792968 0-3.390624-1.121094-4.003906-2.800782-.613281-1.683594-.113281-3.570312 1.253906-4.722656l22.894532-19.328125-45.464844 26.238281c-1.902344 1.101563-4.328125.574219-5.605469-1.210937-1.277343-1.796875-.980469-4.269531.691407-5.710938l34.132812-29.457031-56.703125 32.734375c-1.9375 1.117187-4.410156.546875-5.664063-1.304687-1.253906-1.851563-.863281-4.359376.894532-5.742188l29.730468-23.375-43.265624 24.976562c-1.925782 1.105469-4.378907.546876-5.636719-1.28125-1.257813-1.828124-.90625-4.316406.816406-5.722656l34.984375-28.382812-45.875 26.453125c-1.972656 1.160156-4.507812.554687-5.746094-1.367188-1.238281-1.925781-.738281-4.480469 1.128906-5.800781l20.761719-14.820312-23.4375 13.53125c-1.820312 1.050781-4.132812.617187-5.453125-1.019532-1.316406-1.632812-1.25-3.984375.160156-5.539062l11.75-12.894532-3.882812 2.226563c-1.320312.839844-3 .886719-4.367188.125-1.367187-.765625-2.207031-2.21875-2.1875-3.785156.023438-1.566407.898438-2.996094 2.289063-3.722657l27.46875-15.855468c1.816406-1.046875 4.128906-.617188 5.449219 1.015625 1.316406 1.632812 1.253906 3.980469-.148438 5.539062l-11.71875 12.917969 76.203125-43.953125c1.972657-1.15625 4.507813-.554687 5.746094 1.371094 1.238281 1.921875.742187 4.480469-1.128906 5.796875l-20.777344 14.839844 16.210937-9.386719c1.929688-1.125 4.398438-.574219 5.664063 1.261719 1.269531 1.839843.90625 4.34375-.832031 5.742187l-34.988282 28.375 48.300782-27.886719c1.9375-1.117187 4.40625-.546875 5.660156 1.304688 1.253906 1.851562.863281 4.359375-.890625 5.742187l-29.75 23.382813 44.144531-25.480469c1.90625-1.097656 4.335938-.566406 5.609375 1.226563 1.273438 1.796874.972657 4.265624-.695312 5.703124l-34.132813 29.457032 47.820313-27.632813c1.914062-1.09375 4.34375-.550781 5.609375 1.253907 1.265625 1.804687.949218 4.273437-.726563 5.703124l-22.878906 19.316407 28.03125-16.210938c1.8125-1.050781 4.117187-.628906 5.441406.992188 1.324219 1.617187 1.28125 3.960937-.105469 5.527343l-11.71875 13.285157 3.585938-2.074219c1.320312-.839844 3-.886719 4.367188-.125 1.367187.765625 2.207031 2.21875 2.1875 3.785156-.023438 1.566406-.898438 2.996094-2.289063 3.722656l-26.164063 15.113282c-1.808593 1.046875-4.113281.628906-5.4375-.992188-1.328124-1.621094-1.28125-3.960937.105469-5.527344l11.714844-13.277343-47 27.125c-.644531.390625-1.382813.597656-2.132813.605469zm0 0" fill="#ffffff" fill-opacity="1" data-original-color="#e4e8ebff" stroke="none" stroke-opacity="1"/><path d="m371.515625 435.261719c-1.726563-.003907-3.285156-1.054688-3.9375-2.652344-.65625-1.601563-.277344-3.441406.953125-4.652344l9.8125-9.652343-4.691406 2.703124c-1.820313 1.035157-4.121094.597657-5.4375-1.03125-1.3125-1.632812-1.246094-3.972656.152344-5.53125l15.183593-16.65625-9.910156 5.71875c-1.824219 1.046876-4.144531.605469-5.457031-1.042968-1.3125-1.648438-1.226563-4.007813.203125-5.554688l14.207031-15.25-8.953125 5.164063c-1.847656 1.015625-4.164063.527343-5.445313-1.148438-1.28125-1.679687-1.140624-4.042969.328126-5.558593l10.929687-10.941407-5.785156 3.339844c-1.867188 1.105469-4.265625.636719-5.578125-1.09375-1.308594-1.730469-1.113282-4.167969.457031-5.667969l12.085937-11.714844-6.957031 4.011719c-1.882812 1.109375-4.300781.617188-5.597656-1.140625-1.296875-1.757812-1.058594-4.214844.554687-5.6875l26.378907-24.53125-23.554688 13.582032c-1.800781 1.007812-4.0625.578124-5.375-1.015626-1.308593-1.589843-1.292969-3.894531.042969-5.46875l11.390625-13.011718-11.203125 6.46875c-1.710938.984375-3.875.664062-5.230469-.773438s-1.546875-3.617187-.460937-5.269531l2.824218-4.265625-2.492187 1.433594c-1.003906.574218-2.199219.71875-3.308594.398437-1.113281-.324219-2.046875-1.082031-2.585937-2.105469l-3.570313-6.714843c-2.058593.492187-4.171875-.601563-4.957031-2.566407-.785156-1.96875-.007812-4.214843 1.828125-5.277343l2.773437-1.605469c1-.570312 2.191407-.714844 3.300782-.410156 1.101562.328125 2.023437 1.085937 2.558594 2.101562l3.484374 6.5625 14.300782-8.253906c1.710937-.980469 3.875-.664062 5.230468.773438 1.355469 1.441406 1.546876 3.617187.460938 5.269531l-2.824219 4.265625 17.921875-10.324219c1.804688-1.039063 4.097656-.617187 5.417969.992187 1.324219 1.609376 1.289063 3.9375-.078125 5.511719l-11.390625 13.011719 33.78125-19.488281c1.882813-1.09375 4.285156-.597657 5.578125 1.15625 1.292969 1.75 1.058594 4.195312-.542969 5.667969l-26.367187 24.527343 4.070312-2.355469c1.863282-1.089843 4.246094-.617187 5.550782 1.101563 1.304687 1.722656 1.121093 4.144531-.429688 5.648437l-12.050781 11.714844 4.085937-2.363281c1.851563-1.015625 4.167969-.527344 5.449219 1.148437 1.28125 1.679688 1.140625 4.042969-.328125 5.558594l-10.9375 10.949219 5.640625-3.253906c1.824219-1.046875 4.144531-.605469 5.457031 1.042969 1.3125 1.648437 1.226563 4.007812-.203125 5.554687l-14.214843 15.242187 9.003906-5.191406c1.816406-1.046875 4.128906-.613281 5.449218 1.019532 1.316407 1.636718 1.25 3.988281-.160156 5.542968l-15.179687 16.65625 9.929687-5.734375c1.859375-1.054687 4.214844-.574219 5.507813 1.125 1.296875 1.703125 1.128906 4.101563-.386719 5.609375l-9.796875 9.710938 4.746094-2.746094c1.324219-.84375 3-.890625 4.367187-.125 1.371094.761719 2.207032 2.214844 2.1875 3.78125-.019531 1.566406-.898437 2.996094-2.289062 3.722656l-33.78125 19.507813c-.652344.363281-1.390625.546875-2.136719.53125zm0 0" fill="#ffffff" fill-opacity="1" data-original-color="#e4e8ebff" stroke="none" stroke-opacity="1"/><path d="m389.777344 319.496094c-1.859375.003906-3.507813-1.203125-4.070313-2.976563-.5625-1.773437.089844-3.710937 1.613281-4.78125l15.558594-10.972656-28.332031 16.359375c-1.972656 1.136719-4.492187.523438-5.722656-1.394531s-.734375-4.464844 1.125-5.78125l44.890625-31.753907-56.925782 32.863282c-1.96875 1.066406-4.429687.425781-5.632812-1.464844s-.734375-4.390625 1.070312-5.722656l58.632813-40.796875-67.867187 39.140625c-1.996094 1.085937-4.492188.414062-5.675782-1.523438s-.644531-4.460937 1.230469-5.746094l15.128906-9.796874-18.601562 10.746093c-2.003907 1.164063-4.570313.515625-5.78125-1.457031-1.214844-1.976562-.628907-4.554688 1.316406-5.816406l28.355469-18.429688-32.042969 18.5c-1.980469 1.132813-4.503906.503906-5.722656-1.429687-1.21875-1.929688-.699219-4.480469 1.175781-5.78125l82.074219-56.535157-90.09375 52.054688c-2.003907 1.121094-4.535157.453125-5.730469-1.507812-1.191406-1.960938-.617188-4.515626 1.300781-5.777344l16.367188-10.429688-18.261719 10.503906c-1.984375 1.117188-4.496094.476563-5.707031-1.449218-1.207031-1.929688-.691407-4.46875 1.175781-5.769532l85.71875-58.144531-91.105469 52.632813c-1.988281 1.082031-4.480469.421875-5.667969-1.507813-1.191406-1.929687-.664062-4.453125 1.199219-5.746093l48.476563-31.742188-50.347656 29.011719c-1.988282 1.082031-4.480469.421875-5.667969-1.507813-1.191407-1.929687-.664063-4.453125 1.199219-5.746094l33.652343-22.050781-33.703125 19.457031c-1.996094 1.132813-4.527344.488282-5.734375-1.457031-1.210937-1.949219-.664062-4.503906 1.234375-5.789062l31.976563-21.332031-31.480469 18.246093c-1.984375 1.132813-4.507812.503907-5.726562-1.429687s-.699219-4.480469 1.179687-5.78125l32.972656-22.613282-30.898437 17.832032c-1.9375 1.09375-4.390625.519531-5.636719-1.324219s-.863281-4.335937.875-5.722656l45.148437-35.34375-42.070312 24.285156c-1.898438 1.101563-4.320312.582031-5.601562-1.203125-1.28125-1.78125-1.003907-4.242188.644531-5.691406l29.867187-26.378906-23.792968 13.738281c-1.898438 1.089843-4.3125.5625-5.585938-1.21875s-.996094-4.234375.644531-5.683594l7.1875-6.28125c-1.550781.792969-3.421875.5625-4.738281-.578125-1.3125-1.140625-1.800781-2.964844-1.234375-4.609375l5.792969-16.988281c-1.179688-2.039063-.484375-4.648438 1.554687-5.828125l1.933594-1.128907c1.539063-.894531 3.472656-.742187 4.851563.386719 1.375 1.125 1.910156 2.988281 1.335937 4.675781l-3.753906 10.886719 27.726562-16c1.894531-1.066406 4.292969-.535156 5.558594 1.234375 1.269531 1.769532 1 4.207032-.621094 5.660156l-7.140625 6.253907 22.828125-13.171875c1.894531-1.082032 4.300781-.558594 5.574219 1.210937 1.273438 1.773438 1.007812 4.21875-.617188 5.671875l-29.867187 26.386719 57.726563-33.324219c1.941406-1.113281 4.410156-.542968 5.664062 1.308594s.863281 4.355469-.890625 5.742188l-45.152344 35.34375 73.558594-42.445313c1.984375-1.132813 4.507813-.503906 5.726563 1.429687 1.21875 1.933594.699218 4.480469-1.179688 5.78125l-32.964844 22.605469 51.714844-29.867187c1.996094-1.183594 4.574219-.554688 5.800781 1.414062 1.226563 1.972656.648438 4.566406-1.296875 5.832032l-31.964844 21.332031 49.492188-28.578125c2.003906-1.199219 4.597656-.566406 5.824219 1.421875 1.226562 1.984375.625 4.589843-1.34375 5.839843l-33.679688 22.066407 50.839844-29.351563c1.996094-1.101562 4.5-.4375 5.695313 1.503906 1.191406 1.9375.648437 4.472657-1.230469 5.757813l-48.480469 31.707031 61.441406-35.488281c1.984375-1.117187 4.496094-.476563 5.703125 1.449219 1.210938 1.929687.695313 4.46875-1.171875 5.769531l-85.691406 58.15625 85.511719-49.359375c2.003906-1.117188 4.535156-.453125 5.726562 1.511719 1.195313 1.960937.621094 4.515625-1.296875 5.777343l-16.375 10.425782 13.652344-7.898438c1.984375-1.179687 4.546875-.5625 5.78125 1.390625 1.234375 1.949219.691406 4.53125-1.226562 5.816407l-82.070313 56.527343 79.605469-45.960937c2.003906-1.164063 4.570312-.519532 5.78125 1.457031 1.210937 1.972656.628906 4.554687-1.316406 5.8125l-28.308594 18.449219 24.109375-13.917969c1.996093-1.082031 4.488281-.414063 5.675781 1.523437 1.183594 1.9375.644531 4.464844-1.230469 5.746094l-15.230469 9.859375 9.699219-5.601562c1.976563-1.101563 4.472657-.472657 5.683594 1.441406 1.214844 1.910156.722656 4.4375-1.117187 5.753906l-58.605469 40.78125 49.492187-28.585937c1.972656-1.140625 4.492188-.527344 5.722656 1.394531 1.230469 1.917969.734376 4.460937-1.125 5.78125l-44.839843 31.691406 29.636719-17.066406c1.96875-1.09375 4.449218-.472656 5.664062 1.425781 1.21875 1.894532.75 4.410156-1.066406 5.742188l-19.832032 13.988281c1.605469-.109375 3.128907.71875 3.910157 2.125 1.179687 2.035156.484375 4.644531-1.554688 5.828125l-75.441406 43.519531c-.652344.378907-1.390625.574219-2.144531.570313zm0 0" fill="#ffffff" fill-opacity="1" data-original-color="#fdce58ff" stroke="none" stroke-opacity="1"/><path d="m302.3125 136.671875c-1.875-.003906-3.527344-1.226563-4.078125-3.019531-.546875-1.792969.136719-3.730469 1.6875-4.78125l55.648437-37.761719-61.125 35.242187c-2 1.160157-4.554687.519532-5.769531-1.445312-1.214843-1.960938-.648437-4.535156 1.28125-5.804688l41.941407-27.847656-32.429688 18.699219c-2.003906 1.234375-4.632812.605469-5.867188-1.402344-1.238281-2.003906-.609374-4.632812 1.398438-5.867187l10.359375-6.761719-1.914063 1.101563c-1.960937 1.101562-4.445312.488281-5.667968-1.402344s-.765625-4.40625 1.042968-5.746094l48.171876-34.707031-37.289063 21.519531c-1.960937 1.082031-4.421875.46875-5.640625-1.40625-1.222656-1.875-.785156-4.375.996094-5.726562l25.429687-18.5-15.675781 9.046874c-1.957031 1.136719-4.464844.546876-5.707031-1.34375-1.246094-1.890624-.796875-4.425781 1.023437-5.773437l8.21875-6.109375c-1.855468.691406-3.941406.019531-5.042968-1.625-1.097657-1.644531-.921876-3.832031.425781-5.28125l9.574219-10.289062c-2.042969.398437-4.078126-.738282-4.808594-2.6875-.734375-1.949219.046875-4.144532 1.847656-5.191407l22.824219-13.128906c1.828125-1.050781 4.148437-.605469 5.460937 1.039063 1.3125 1.648437 1.226563 4.007812-.203125 5.554687l-9.027343 9.695313 37.820312-21.835938c1.957031-1.140625 4.464844-.550781 5.707031 1.339844 1.246094 1.890625.796875 4.425781-1.023437 5.773437l-7.832032 5.828125 22.3125-12.882812c1.964844-1.117188 4.457032-.511719 5.6875 1.382812 1.230469 1.894532.773438 4.417969-1.042968 5.757813l-25.421875 18.492187 40.5-23.371094c1.964843-1.101562 4.445312-.488281 5.667969 1.402344 1.222656 1.890625.765624 4.40625-1.042969 5.746094l-48.144531 34.679688 63.144531-36.460938c1.996093-1.097656 4.5-.4375 5.695312 1.503906 1.191407 1.9375.648438 4.472656-1.230469 5.757813l-10.402343 6.824219 15.734375-9.078126c1.988281-1.097656 4.492187-.445312 5.6875 1.488282 1.199218 1.933594.671875 4.464844-1.199219 5.757812l-41.976563 27.859375 45.046876-26c1.988281-1.132812 4.515624-.496093 5.730468 1.445313 1.214844 1.9375.683594 4.488281-1.207031 5.78125l-55.644531 37.734375 55.285156-31.921875c2-1.15625 4.554688-.515625 5.769531 1.445312 1.214844 1.964844.648438 4.539063-1.277343 5.808594l-21.191407 14.054688 19.808594-11.425782c1.984375-1.101562 4.484375-.453125 5.683594 1.472656 1.203125 1.921876.6875 4.453126-1.171875 5.753907l-14.597656 9.796875 13.046874-7.5625c1.980469-1.175782 4.539063-.566406 5.777344 1.378906 1.238282 1.941406.707032 4.519531-1.195312 5.816406l-21.417969 14.992188 20.121094-11.605469c1.949219-1.109375 4.421875-.519531 5.664062 1.347656 1.242188 1.867188.824219 4.378907-.953125 5.746094l-25.210937 19.019531 24.277343-14.019531c1.886719-1.1875 4.371094-.726563 5.699219 1.0625 1.332031 1.789063 1.058594 4.296875-.621093 5.761719l-24.976563 23.785156 24.933594-14.390625c1.820312-1.035156 4.121093-.597656 5.433593 1.027344 1.3125 1.628906 1.253907 3.96875-.140624 5.527343l-10.921876 12.03125 9.683594-5.578124c1.300782-.753907 2.902344-.765626 4.210938-.035157 1.3125.730469 2.144531 2.097657 2.1875 3.601563l.367187 12.421875c2.019531-.246094 3.929688.960937 4.574219 2.886719.640625 1.929687-.164062 4.039062-1.925781 5.050781l-4.585938 2.636719c-1.300781.753906-2.902343.765624-4.214843.03125-1.3125-.734376-2.140626-2.101563-2.183594-3.605469l-.347656-12.03125-27.136719 15.648437c-1.820313 1.035156-4.121094.601563-5.433594-1.027344-1.3125-1.628906-1.253906-3.96875.140625-5.527343l10.914062-12.039063-32.273437 18.59375c-1.867187 1.066406-4.242187.574219-5.53125-1.152344-1.289063-1.726562-1.089844-4.140624.464844-5.632812l24.96875-23.78125-53.042969 30.625c-1.949219 1.109375-4.425781.523438-5.664062-1.347656-1.242188-1.867188-.824219-4.375.953124-5.742188l25.207032-19.054687-45.363282 26.1875c-1.980468 1.175781-4.539062.566406-5.777343-1.375-1.238281-1.945313-.710938-4.519531 1.195312-5.816407l21.433594-14.996093-38.484375 22.1875c-1.988281 1.117187-4.503906.46875-5.707031-1.464844-1.207031-1.9375-.675781-4.476563 1.203125-5.769531l14.558594-9.6875-29.511719 17.066406c-1.996094 1.160156-4.550781.519531-5.765625-1.445312-1.214844-1.960938-.648438-4.535157 1.277344-5.804688l21.199218-14.082031-36.949218 21.332031c-.640626.386719-1.371094.59375-2.117188.609375zm0 0" fill="#ffffff" fill-opacity="1" data-original-color="#e4e8ebff" stroke="none" stroke-opacity="1"/><path d="m387.355469 61.269531c-1.765625.003907-3.347657-1.082031-3.984375-2.726562-.636719-1.644531-.195313-3.511719 1.109375-4.699219l18.617187-16.960938-37.828125 21.835938c-1.921875 1.097656-4.367187.542969-5.625-1.28125-1.257812-1.824219-.914062-4.308594.796875-5.71875l14.644532-11.902344-26.453126 15.292969c-1.957031 1.128906-4.453124.539063-5.695312-1.34375-1.242188-1.886719-.804688-4.410156 1-5.765625l1.773438-1.324219-7.773438 4.480469c-1.875.996094-4.195312.460938-5.445312-1.253906-1.25-1.71875-1.050782-4.089844.472656-5.570313l14.71875-13.144531-21.332032 12.296875c-1.761718 1.007813-3.992187.636719-5.328124-.890625-1.335938-1.523438-1.414063-3.78125-.183594-5.398438l7.960937-10.359374-4.148437 2.390624c-1.324219.839844-3 .890626-4.367188.125-1.371094-.761718-2.210937-2.214843-2.1875-3.785156.019532-1.566406.898438-2.996094 2.289063-3.722656l22.78125-13.171875c1.761719-1.007813 3.992187-.636719 5.328125.890625 1.339844 1.523438 1.417968 3.78125.1875 5.398438l-7.960938 10.359374 38.59375-22.300781c1.890625-1.074219 4.289063-.554687 5.5625 1.207031 1.277344 1.761719 1.023438 4.203126-.585937 5.664063l-14.753907 13.132813 33.808594-19.472657c1.953125-1.128906 4.449219-.539062 5.691406 1.34375 1.246094 1.882813.804688 4.410157-1 5.761719l-1.773437 1.332031 10.992187-6.363281c1.925782-1.105469 4.375-.546875 5.636719 1.28125 1.257813 1.828125.902344 4.316406-.816406 5.722656l-14.644531 11.894532 25.601562-14.769532c1.878906-1.046875 4.242188-.53125 5.515625 1.203125 1.273438 1.734375 1.054688 4.144531-.507812 5.625l-18.628907 16.988281 27.980469-16.152343c1.8125-1.050781 4.113281-.632813 5.441407.984375 1.324218 1.617187 1.285156 3.957031-.097657 5.523437l-11.699219 13.324219 12.425782-7.160156c2.023437-1.0625 4.527344-.335938 5.671875 1.644531 1.140625 1.980469.523437 4.507813-1.40625 5.734375l-34.824219 20.097656c-1.808594 1.035156-4.101562.617188-5.421875-.992187-1.324219-1.609375-1.289063-3.941407.078125-5.511719l11.707031-13.328125-39.78125 22.988281c-.648437.371094-1.386719.558594-2.132812.546875zm0 0" fill="#ffffff" fill-opacity="1" data-original-color="#cad0d7ff" stroke="none" stroke-opacity="1"/><path d="m385.496094 180.410156c-1.796875 0-3.398438-1.125-4.011719-2.8125-.609375-1.6875-.097656-3.578125 1.28125-4.730468l37.757813-31.476563-62.777344 36.238281c-1.980469 1.136719-4.5.515625-5.726563-1.410156-1.222656-1.925781-.714843-4.472656 1.152344-5.78125l13.089844-9.15625-23.953125 13.824219c-1.96875 1.128906-4.472656.519531-5.703125-1.382813-1.234375-1.902344-.765625-4.4375 1.070312-5.769531l24.96875-18.039063-36.507812 21.070313c-1.972657 1.117187-4.480469.496094-5.703125-1.417969-1.21875-1.914062-.726563-4.449218 1.121094-5.769531l12.800781-8.976563-20.183594 11.640626c-1.941406 1.09375-4.398437.503906-5.636719-1.347657-1.242187-1.855469-.84375-4.351562.910156-5.726562l29.621094-22.714844-38.402344 22.183594c-1.964843 1.113281-4.460937.496093-5.683593-1.402344-1.226563-1.898437-.757813-4.421875 1.066406-5.757813l4.175781-2.992187-5.972656 3.453125c-1.949219 1.109375-4.425781.523438-5.667969-1.34375-1.238281-1.871094-.824219-4.378906.957031-5.746094l4.90625-3.789062-3.773437 2.175781c-1.894531 1.097656-4.316406.582031-5.597656-1.195313-1.28125-1.777343-1.007813-4.238281.632812-5.691406l6.996094-6.210937c-1.046875-.3125-1.9375-1.015625-2.484375-1.960938-1.179688-2.039062-.484375-4.648437 1.554688-5.832031l28.101562-16.210938c1.894531-1.097656 4.316406-.582031 5.597656 1.195313s1.007813 4.238281-.632812 5.691406l-2.074219 1.84375 26.589844-15.363281c1.949219-1.109375 4.425781-.519531 5.664062 1.347656 1.242188 1.871094.824219 4.378906-.953125 5.746094l-4.941406 3.738281 22.71875-13.132812c1.964844-1.113281 4.457031-.5 5.683594 1.402343 1.222656 1.898438.753906 4.421876-1.070313 5.753907l-4.222656 3.023437 18.421875-10.632812c1.945312-1.117188 4.421875-.539063 5.671875 1.328125 1.246094 1.863281.839844 4.371093-.933594 5.746093l-29.578125 22.75 48.992188-28.28125c1.976562-1.152343 4.511718-.542968 5.746094 1.386719 1.234374 1.929688.722656 4.492188-1.15625 5.800781l-12.800782 8.957032 24.039063-13.824219c1.964843-1.125 4.472656-.519531 5.703125 1.382813 1.234375 1.902343.761718 4.4375-1.070313 5.769531l-24.984375 18.046875 36.734375-21.203125c1.980469-1.136719 4.5-.515625 5.726563 1.410156 1.222656 1.925781.714844 4.472656-1.152344 5.78125l-13.046875 9.132813 20.761719-11.949219c1.917968-1.121094 4.378906-.582031 5.652344 1.238281 1.273437 1.824219.933593 4.320312-.78125 5.734375l-37.757813 31.472656 50.140625-28.945312c1.953125-1.089844 4.417969-.484375 5.644531 1.386719 1.226563 1.871093.800781 4.371093-.976562 5.730468l-10.847657 8.003906 12.988282-7.492187c1.882812-1.109375 4.300781-.617187 5.597656 1.140625 1.300781 1.757812 1.0625 4.210938-.554688 5.683594l-15.570312 14.636718 11.636719-6.714843c2.027343-1.0625 4.527343-.335938 5.671875 1.644531 1.144531 1.980469.527344 4.507812-1.402344 5.734375l-43.589844 25.082031c-1.882812 1.125-4.316406.640625-5.621094-1.125-1.304687-1.765625-1.058593-4.230468.570313-5.703125l15.613281-14.617187-46.929687 27.058594c-1.960938 1.121093-4.453125.523437-5.691407-1.363282-1.238281-1.890625-.789062-4.414062 1.023438-5.761718l10.808594-7.96875-27.304688 15.777343c-.648437.378907-1.382812.582031-2.132812.578125zm0 0" fill="#ffffff" fill-opacity="1" data-original-color="#f5ba47ff" stroke="none" stroke-opacity="1"/><path d="m334.960938 248.457031c-1.527344 0-2.9375-.8125-3.703126-2.136719-.761718-1.320312-.757812-2.953124.007813-4.273437l7.175781-12.328125-14.292968 8.25c-1.699219.957031-3.828126.644531-5.179688-.765625-1.347656-1.410156-1.570312-3.550781-.535156-5.207031l5.476562-8.535156c-1.859375.488281-3.816406-.328126-4.777344-1.996094-1.175781-2.035156-.480468-4.636719 1.550782-5.820313l13.96875-8.0625c1.703125-.984375 3.855468-.675781 5.214844.742188 1.363281 1.421875 1.578124 3.597656.511718 5.257812l-5.308594 8.285157 12.988282-7.5c1.667968-.949219 3.761718-.671876 5.121094.679687 1.347656 1.367187 1.617187 3.460937.664062 5.121094l-7.175781 12.332031 3.414062-1.972656c1.324219-.839844 3-.886719 4.367188-.125 1.371093.765625 2.210937 2.21875 2.1875 3.785156-.019531 1.566406-.898438 2.996094-2.289063 3.722656l-17.238281 9.984375c-.652344.378907-1.394531.570313-2.148437.5625zm0 0" fill="#ffffff" fill-opacity="1" data-original-color="#f5ba47ff" stroke="none" stroke-opacity="1"/><path d="m430.703125 246.410156c-1.632813.011719-3.132813-.90625-3.859375-2.371094-.726562-1.464843-.554688-3.214843.449219-4.507812l6.765625-8.730469-8.210938 4.746094c-1.753906 1.011719-3.980468.652344-5.324218-.867187-1.34375-1.515626-1.4375-3.769532-.222657-5.390626l4.328125-5.757812c-1.8125-.238281-3.273437-1.605469-3.632812-3.398438-.355469-1.792968.46875-3.617187 2.054687-4.53125l13.96875-8.0625c1.753907-1.011718 3.980469-.652343 5.324219.863282 1.347656 1.515625 1.4375 3.769531.222656 5.390625l-2.960937 3.960937 9.019531-5.214844c1.769531-1.035156 4.019531-.664062 5.367188.878907 1.347656 1.542969 1.410156 3.824219.144531 5.4375l-6.773438 8.730469 6.679688-3.859376c1.324219-.839843 3-.886718 4.367187-.125 1.371094.765626 2.210938 2.214844 2.1875 3.785157-.019531 1.566406-.898437 2.996093-2.289062 3.722656l-25.503906 14.726563c-.636719.375-1.363282.570312-2.101563.574218zm0 0" fill="#ffffff" fill-opacity="1" data-original-color="#f5ba47ff" stroke="none" stroke-opacity="1"/></g><path d="m84.046875 431.847656c-16.460937 10.1875-49.785156 5.117188-58.566406 28.859375-7.199219 19.507813 15.523437 30.234375 30.449219 35.496094 33.550781 11.835937 139.441406 20.746094 150.835937-30.0625 0-.179687-.070313-.28125-.0625-.441406.011719-.164063.085937-.292969.054687-.445313-3.414062-15.445312-16.871093-22.074218-30.789062-27.1875-7.894531-2.902344-18.125-2.976562-25.746094-6.3125-8.617187-3.78125-10.992187-3.414062-11.339844-3.242187.273438-.148438 2.003907-1.605469-.386718-10.308594-5.972656-21.804687-3.949219-77.835937 8.160156-97.972656 19.71875-32.792969 59.324219-45.945313 76.203125-83.019531 15.460937-33.964844 9.105469-69.976563-1.511719-104.246094-.148437-.382813-.394531-.722656-.714844-.980469.117188-.433594.117188-.890625 0-1.320313l-30.976562-100.609374c0-.230469-.136719-.433594-.1875-.664063-8.78125-40.476563-148.003906-38.785156-148.636719 2.847656l-.066406.121094-30.976563 100.605469c-.050781.285156-.050781.574218 0 .855468-.085937.324219-.152343.65625-.230468.988282-.15625.195312-.292969.402344-.410156.625-21.050782 67.96875-5.128907 116.300781 48.921874 161.84375 26.054688 21.953125 33.945313 42.539062 33.945313 75.765625v39.773437c.683594 5.78125.683594 11.621094 0 17.398438-3.003906 4.421875-1.59375-2.3125-7.96875 1.632812zm64-328.132812c26.289063 4.574218 48.964844 14.316406 59.246094 29.011718.75 1.6875 1.320312 3.445313 1.707031 5.25.089844 1.074219.089844 2.152344 0 3.222657-4.027344 14.3125-24.132812 24.613281-49.878906 30.132812-37.238282 6.828125-86.269532 4.019531-114.695313-8.609375-13.421875-6.894531-22.1875-16.570312-22.929687-29.3125 0-.152344.050781-.308594.050781-.460937 0-.152344.222656-.171875.273437-.265625 6.070313-9.011719 14.714844-15.980469 24.808594-20 32.835938-9.910156 67.359375-12.960938 101.425782-8.96875zm-90.367187-75.214844c5.699218-27.972656 112.355468-27.6875 119.464843 4.269531-2.433593 6.441407-7.433593 11.582031-13.804687 14.191407h-.085938c-.25.125-.53125.226562-.785156.355468-17.542969 5.335938-35.929688 7.316406-54.203125 5.835938-10.507813-.378906-20.933594-2.015625-31.054687-4.871094-3.472657-1.058594-6.664063-2.03125-9.472657-3.140625-3.132812-1.578125-6.039062-3.570313-8.632812-5.929687-1.960938-3.210938-2.476563-7.097657-1.425781-10.710938zm-9.5 18.835938c10.128906 7.570312 22.078124 12.335937 34.636718 13.8125 28.582032 5.882812 58.269532 3.121093 85.273438-7.933594 4.648437-2.023438 8.980468-4.707032 12.859375-7.960938 6.753906 21.90625 13.5 43.808594 20.242187 65.707032-2.542968-1.347657-5.160156-2.546876-7.839844-3.59375-43.886718-21.25-121.601562-19.125-162.210937 5-1.1875.5625-2.425781 1.101562-3.550781 1.707031zm40.78125 261.640624c-21.546876-25.175781-51.132813-38.488281-67.0625-69.976562-13.652344-26.921875-12.65625-55.355469-6.316407-83.300781.136719.152343.230469.324219.378907.46875 32.203124 36.070312 165.28125 35.695312 198.21875-1.3125 6.691406 27.449219 8.59375 55.464843-3.472657 82.335937-15.136719 33.691406-45.890625 47.027344-68.402343 73.15625-26.871094 31.183594-16.214844 85.8125-16.214844 123.84375 0 .179688.128906.265625.152344.429688.027343.160156-.144532.296875-.144532.460937v24.914063c0 3.808594 12.359375 1.496094 12.359375-3.308594v-18.664062c21.398438 2.742187 50.566407 8.457031 55.753907 30.0625-9.0625 37.675781-92.515626 31.4375-118.21875 24.925781-12.96875-2.214844-25.074219-7.964844-34.988282-16.613281 9.957032-25.914063 27.015625-38.945313 51.003906-39.433594v23.042968c0 3.277344 12.355469 1.132813 12.355469-3.3125v-24.003906c0-36.964844 10.734375-93.191406-15.402343-123.714844zm0 0" fill="#262626" fill-opacity="1" data-original-color="#262626ff" stroke="none" stroke-opacity="1"/><path d="m64.539062 206.199219c-12.539062-.003907-22.945312 9.679687-23.839843 22.1875-.480469 28.96875 45.226562 26.761719 46.683593-.855469-.144531-5.875-2.648437-11.445312-6.945312-15.460938-4.296875-4.011718-10.023438-6.125-15.898438-5.871093zm-.253906 34.082031c-6.292968-.976562-10.960937-6.355469-11.035156-12.722656-.507812-5.855469 3.671875-11.082032 9.496094-11.871094 6.753906.378906 12.046875 5.945312 12.085937 12.707031-.316406 5.871094-3.695312 12.433594-10.546875 11.886719zm0 0" fill="#262626" fill-opacity="1" data-original-color="#262626ff" stroke="none" stroke-opacity="1"/><path d="m189.707031 227.269531c0-.199219-.101562-.316406-.128906-.496093-.023437-.179688.121094-.289063.109375-.453126-1.484375-27.578124-46.523438-23.242187-46.503906 2.84375.023437 27.878907 45.132812 23.917969 46.523437-1.894531zm-22.1875-12.074219c5.875 2.148438 9.777344 7.738282 9.769531 13.992188-.46875 5.855469-3.695312 13.152344-10.734374 11.949219-6.496094-1.691407-10.988282-7.617188-10.855469-14.328125-.015625-6.511719 4.515625-13.816406 11.785156-11.632813zm0 0" fill="#262626" fill-opacity="1" data-original-color="#262626ff" stroke="none" stroke-opacity="1"/><path d="m494.125 240.332031c17.363281-34.644531 11.367188-71.773437.332031-107.367187-.050781-.167969-.246093-.246094-.359375-.375-.109375-.382813-.261718-.734375-.382812-1.101563.085937-.273437.109375-.566406.058594-.851562l-30.976563-100.609375c-5.246094-29.097656-64.859375-27.578125-85.578125-26.007813-14.652344 1.109375-62.140625 6.015625-63.234375 28.289063 0 .066406-.109375.136718-.136719.195312l-30.972656 100.609375c-.074219.277344-.074219.570313 0 .851563-.148438.496094-.335938.972656-.445312 1.476562-.050782.085938-.171876.171875-.195313.265625-21.710937 70.046875-2.960937 116.1875 51.113281 163.191407 41.191406 35.839843 32.058594 83.34375 31.703125 133.398437-35.433593 7.128906-105.199219 34.296875-41.953125 61.195313 33.035156 14.054687 145.070313 24.003906 156.613282-27.582032 0-.058594-.050782-.09375-.050782-.144531s.164063-.316406.121094-.46875c-3.347656-15.222656-16.855469-21.734375-30.652344-26.683594-7.988281-2.859375-17.921875-2.917969-25.695312-6.101562-3.59375-1.671875-7.359375-2.957031-11.230469-3.832031.589844-.535157.855469-1.96875-.628906-5.46875-8.839844-20.625-1.921875-84.820313 9.113281-103.355469 18.550781-31.191407 56.234375-45.285157 73.4375-79.523438zm-14.746094-109.226562c1.199219 1.96875 2.097656 4.101562 2.671875 6.332031.757813 21.992188-59.878906 35.03125-76.222656 35.984375-18.339844 1.03125-36.738281-.113281-54.808594-3.414063-16.964843-3.0625-56.320312-10.238281-56.574219-33.390624-.035156-1.238282.019532-2.480469.160157-3.710938.0625-.175781.132812-.351562.214843-.519531 1.523438-2.476563 3.328126-4.769531 5.382813-6.828125 17.613281-13.292969 71.679687-22.953125 84.0625-22.960938 17.953125-.226562 35.867187 1.777344 53.324219 5.972656 8.769531 2.046876 17.296875 5.011719 25.4375 8.847657 6.277344 3.472656 11.816406 8.132812 16.308594 13.722656zm-5.058594-20.222657c-3.460937-1.785156-7.046874-3.316406-10.726562-4.582031-45.570312-20.15625-123.921875-17.066406-162.628906 8.4375-.195313.101563-.417969.195313-.617188.308594 7-22.714844 13.992188-45.433594 20.984375-68.15625 5.367188 4.148437 11.476563 7.234375 17.996094 9.097656 34.03125 13.054688 91.742187 9.121094 114.570313-11.425781 6.773437 22.152344 13.566406 44.269531 20.378906 66.355469zm-24.058593-77.996093c-9.042969 30.398437-109.351563 30.148437-123.050781-.167969-.195313-.773438-.328126-1.5625-.398438-2.355469-1.785156-27.46875 115.863281-33.828125 123.449219 2.523438zm-51.0625 402.226562v24.917969c0 3.277344 12.355469 1.128906 12.355469-3.308594v-19.355468c21.574218 2.894531 50.78125 9.078124 55.828124 30.933593-3.601562 12.535157-49.496093 27.402344-61.109374 29.542969-20.808594 2.570312-41.925782.648438-61.925782-5.632812-46.832031-14.582032-49.492187-46.226563 20.71875-55.578126v23.398438c0 1.484375 12.355469-.101562 12.355469-3.308594v-24.917968c0-39.476563 10.746094-95.574219-19.277344-126.292969-23.277343-23.828125-50.710937-38.964844-65.3125-71.230469-10.183593-25.058594-11.6875-52.808594-4.265625-78.820312 31.050782 36.09375 165.230469 35.054687 198.5625-1.167969 6.925782 27.835937 9.207032 56.464843-3.066406 83.820312-14.328125 31.964844-42.445312 46.199219-65.390625 69.929688-30.523437 31.550781-19.472656 86.84375-19.472656 127.070312zm0 0" fill="#262626" fill-opacity="1" data-original-color="#262626ff" stroke="none" stroke-opacity="1"/><path d="m360.355469 226.320312c-1.484375-27.570312-46.523438-23.226562-46.507813 2.84375 0 27.867188 45.132813 23.890626 46.523438-1.894531 0-.207031-.101563-.316406-.125-.496093-.027344-.179688.117187-.289063.109375-.453126zm-23.167969 14.804688c-6.5-1.6875-10.992188-7.621094-10.855469-14.335938 0-6.457031 4.542969-13.8125 11.820313-11.605468 5.875 2.15625 9.777344 7.753906 9.769531 14.011718-.46875 5.855469-3.695313 13.160157-10.734375 11.929688zm0 0" fill="#262626" fill-opacity="1" data-original-color="#262626ff" stroke="none" stroke-opacity="1"/><path d="m416.265625 229.230469c-.128906 27.546875 45.117187 23.089843 46.472656-2.097657 0-.144531-.09375-.222656-.109375-.359374-.019531-.136719.136719-.289063.128906-.453126-1.46875-27.261718-46.363281-22.542968-46.492187 2.910157zm23.417969 12.246093c-6.570313-1.875-11.066406-7.921874-10.96875-14.753906 0-6.460937 4.363281-14.335937 11.753906-11.84375 5.964844 2.335938 9.890625 8.097656 9.878906 14.503906-.46875 5.847657-3.589844 13.476563-10.664062 12.09375zm0 0" fill="#262626" fill-opacity="1" data-original-color="#262626ff" stroke="none" stroke-opacity="1"/><path d="m145.476562 139.921875c2.476563.414063 4.941407.878906 7.398438 1.390625 3.113281.394531 6.253906-.449219 8.75-2.347656 1.96875-1.644532 1.492188-3.011719-.949219-3.523438-2.441406-.511718-4.921875-.972656-7.398437-1.390625-3.109375-.375-6.242188.464844-8.746094 2.347657-1.910156 1.59375-1.5625 3.097656.945312 3.523437zm0 0" fill="#262626" fill-rule="evenodd" fill-opacity="1" data-original-color="#262626ff" stroke="none" stroke-opacity="1"/><path d="m72.578125 140.65625c12.734375-2.527344 25.6875-3.792969 38.671875-3.78125 3.09375.234375 6.175781-.59375 8.738281-2.347656 1.160157-1.339844 2.355469-2.710938-.714843-2.695313-14.894532-.035156-29.757813 1.394531-44.375 4.265625-4.878907.992188-11 6.332032-2.320313 4.558594zm0 0" fill="#262626" fill-rule="evenodd" fill-opacity="1" data-original-color="#262626ff" stroke="none" stroke-opacity="1"/><path d="m109.417969 221.550781c2.242187 2.246094 13.550781-2.3125 11.644531-4.214843l-8.53125-8.535157c-2.246094-2.242187-13.542969 2.3125-11.648438 4.21875 2.851563 2.835938 5.695313 5.679688 8.535157 8.53125zm0 0" fill="#262626" fill-rule="evenodd" fill-opacity="1" data-original-color="#262626ff" stroke="none" stroke-opacity="1"/><path d="m120.917969 270.480469c2.09375-2.089844-1.800781-2.847657-3.140625-2.847657-3.039063-.011718-5.972656 1.121094-8.214844 3.171876l-8.535156 8.535156c-2.082032 2.089844 1.800781 2.847656 3.140625 2.847656 3.039062.011719 5.972656-1.121094 8.21875-3.171875 2.847656-2.839844 5.695312-5.683594 8.53125-8.535156zm0 0" fill="#262626" fill-rule="evenodd" fill-opacity="1" data-original-color="#262626ff" stroke="none" stroke-opacity="1"/><path d="m431.949219 133.761719c-2.457031-.503907-4.921875-.964844-7.398438-1.394531-6.246093-1.054688-12.472656 7.835937-4.214843 9.234374 2.476562.414063 4.941406.878907 7.398437 1.390626 6.238281 1.289062 12.410156-7.535157 4.214844-9.230469zm0 0" fill="#262626" fill-rule="evenodd" fill-opacity="1" data-original-color="#262626ff" stroke="none" stroke-opacity="1"/><path d="m392.289062 131.71875c-14.894531-.046875-29.757812 1.367188-44.375 4.226562-1.398437.28125-7.21875 1.433594-7.21875 3.480469s3.53125 1.707031 5 1.382813c12.730469-2.535156 25.675782-3.816406 38.65625-3.824219 2.433594 0 7.046876-.304687 8.746094-2.34375 1.109375-1.382813 2.304688-2.945313-.808594-2.921875zm0 0" fill="#262626" fill-rule="evenodd" fill-opacity="1" data-original-color="#262626ff" stroke="none" stroke-opacity="1"/><path d="m385.519531 208.488281c-3.054687-3.046875-14.761719 1.558594-11.484375 4.835938 2.84375 2.84375 5.6875 5.691406 8.53125 8.535156 3.058594 3.054687 14.765625-1.554687 11.488282-4.839844-2.851563-2.84375-5.695313-5.6875-8.535157-8.53125zm0 0" fill="#262626" fill-rule="evenodd" fill-opacity="1" data-original-color="#262626ff" stroke="none" stroke-opacity="1"/><path d="m391.929688 266.65625c-3.125-.867188-6.472657.027344-8.746094 2.339844l-8.535156 8.535156c-.890626.832031-1.25 2.089844-.9375 3.269531.316406 1.175781 1.257812 2.085938 2.449218 2.359375 3.125.871094 6.472656-.023437 8.746094-2.335937l8.535156-8.535157c.890625-.832031 1.25-2.089843.933594-3.269531-.316406-1.179687-1.257812-2.085937-2.445312-2.363281zm0 0" fill="#262626" fill-rule="evenodd" fill-opacity="1" data-original-color="#262626ff" stroke="none" stroke-opacity="1"/></g></svg>