<svg id="Icons" viewBox="0 0 60 60" xmlns="http://www.w3.org/2000/svg" width="300" height="300" version="1.1" xmlns:xlink="http://www.w3.org/1999/xlink" xmlns:svgjs="http://svgjs.dev/svgjs"><g width="100%" height="100%" transform="matrix(1,0,0,1,0,0)"><path d="m17.669 42.7c-.169 0-.334-.086-.428-.241-.141-.233-.069-.536.16-.682l11.454-7.247-13.493 7.79c-.236.138-.535.06-.677-.173-.142-.231-.071-.534.157-.681l16.676-10.692-17.286 9.979c-.235.138-.536.06-.678-.174-.141-.232-.07-.535.159-.681l15.797-10.04-16.211 9.359c-.235.138-.537.059-.679-.175-.141-.233-.068-.536.163-.682l13.068-8.196-13.267 7.659c-.235.138-.535.059-.678-.173-.141-.232-.07-.535.159-.682l17.324-11.05-17.558 10.136c-.238.137-.538.058-.679-.175-.141-.234-.067-.537.164-.682l12.479-7.802-12.459 7.192c-.235.138-.536.06-.678-.173-.141-.233-.07-.535.159-.682l16.832-10.717-16.802 9.7c-.236.139-.536.06-.678-.173-.141-.232-.07-.535.159-.682l16.518-10.523-16.344 9.436c-.236.139-.536.06-.678-.174-.141-.233-.069-.536.161-.682l13.418-8.457-13.072 7.547c-.235.139-.537.061-.679-.175-.141-.233-.068-.536.163-.682l11.769-7.395-11.308 6.528c-.235.137-.535.061-.677-.172s-.072-.534.156-.682l15.617-10.048-15.097 8.716c-.238.138-.54.059-.68-.177s-.065-.539.168-.682l.532-.327-.021.012c-.235.138-.537.061-.678-.174-.141-.233-.069-.536.161-.682l9.606-6.063-9.086 5.245c-.238.138-.538.059-.679-.176s-.067-.537.165-.682l3.622-2.25-3.065 1.77c-.235.138-.535.06-.677-.173-.142-.231-.071-.534.157-.681l10.165-6.515-9.471 5.468c-.235.139-.535.06-.678-.173-.141-.232-.07-.535.158-.681l7.839-5.01-7.005 4.044c-.235.136-.534.061-.677-.172-.142-.23-.073-.532.154-.68l8.091-5.253-7.037 4.062c-.235.139-.536.06-.678-.174-.141-.233-.069-.536.16-.682l.866-.547c-.189.032-.4-.048-.513-.226-.144-.228-.081-.527.141-.68l6.086-4.158-4.387 2.532c-.235.136-.531.061-.674-.168s-.079-.528.145-.679l2.443-1.648-.512.295c-.227.133-.519.065-.665-.154s-.099-.514.109-.674l3.915-3.023c-.13-.03-.247-.112-.318-.236-.139-.239-.057-.545.183-.683l5.285-3.051c.227-.133.519-.065.665.154s.099.514-.109.674l-3.106 2.399 6.461-3.73c.234-.137.53-.061.674.168.143.229.079.528-.145.679l-2.441 1.647 3.392-1.958c.234-.135.53-.062.673.166.144.228.081.527-.141.68l-6.095 4.164 9.405-5.414c.236-.137.537-.06.678.174s.069.536-.16.682l-.238.15 2.028-1.171c.235-.137.534-.061.677.172.142.23.073.532-.154.68l-8.088 5.251 9.644-5.567c.237-.137.535-.059.678.173.141.232.07.535-.158.681l-7.841 5.011 8.947-5.165c.237-.137.536-.059.677.173.142.231.071.534-.157.681l-10.168 6.516 11.238-6.487c.236-.139.537-.06.679.176.141.234.067.537-.165.682l-3.622 2.25 4.17-2.407c.237-.137.537-.06.678.174s.069.536-.161.682l-9.613 6.067 10.337-5.967c.236-.139.538-.06.68.177.14.235.065.539-.168.682l-.491.302.787-.454c.235-.137.535-.059.677.172.142.232.072.534-.156.682l-15.622 10.051 16.479-9.514c.237-.137.538-.06.679.175.141.233.068.536-.163.682l-11.77 7.395 12.244-7.068c.236-.136.537-.06.678.174s.069.536-.161.682l-13.424 8.461 13.849-7.995c.238-.137.537-.059.678.173s.07.535-.159.682l-16.512 10.52 16.936-9.777c.236-.137.537-.059.678.173.141.233.07.535-.159.682l-16.834 10.718 17.122-9.885c.236-.138.537-.059.679.175.141.234.067.537-.164.682l-12.478 7.802 12.514-7.225c.238-.137.535-.059.678.173.141.232.07.535-.159.682l-17.326 11.052 17.355-10.02c.237-.137.538-.059.679.175s.068.536-.163.682l-13.066 8.195 12.884-7.438c.237-.136.537-.059.678.174s.07.535-.159.681l-15.8 10.042 15.536-8.97c.237-.137.536-.059.677.173.142.231.071.534-.157.681l-16.671 10.689 16.252-9.383c.237-.137.538-.06.678.174.141.233.069.536-.16.682l-11.459 7.25 10.946-6.319c.237-.137.536-.059.677.173.142.231.071.534-.157.681l-11.021 7.067 10.501-6.062c.233-.137.531-.062.675.169.143.229.077.53-.147.68l-12.333 8.229 11.789-6.806c.234-.138.532-.061.676.17.142.23.075.531-.15.681l-7.887 5.196 7.247-4.184c.23-.135.526-.062.672.164.144.226.084.524-.135.678l-8.7 6.095 7.788-4.496c.229-.135.524-.063.67.161.145.224.089.521-.128.678l-6.103 4.394 4.943-2.854c.225-.132.514-.065.662.149.147.215.105.508-.098.672l-4.725 3.824 3.044-1.757c.219-.128.503-.069.652.137.151.205.124.49-.063.663l-2.05 1.893c.233-.127.532-.044.667.191.139.239.057.545-.183.683l-3.872 2.235c-.218.13-.501.07-.652-.137-.151-.205-.124-.49.063-.663l2.048-1.891-4.664 2.692c-.224.132-.514.066-.662-.149-.147-.215-.105-.508.098-.672l4.725-3.824-8.049 4.646c-.229.133-.524.062-.67-.161-.145-.224-.089-.521.128-.677l6.104-4.396-9.068 5.235c-.232.135-.526.062-.672-.164-.144-.226-.084-.524.135-.678l8.697-6.093-12.013 6.936c-.235.135-.533.06-.676-.17-.142-.23-.075-.531.15-.681l7.894-5.201-10.484 6.053c-.235.136-.532.061-.675-.169-.143-.229-.077-.53.147-.68l12.33-8.228-15.725 9.078c-.235.138-.535.059-.677-.173s-.071-.534.157-.681l11.026-7.071-13.729 7.926c-.079.046-.165.067-.25.067z" fill="#ffffff" fill-opacity="1" data-original-color="#e84743ff" stroke="none" stroke-opacity="1"/><path d="m18.777 35.195c-.167 0-.33-.084-.425-.236-.143-.229-.077-.53.148-.68l13.075-8.693-16.06 9.272c-.235.138-.536.061-.678-.175-.142-.232-.069-.536.161-.681l7.098-4.468-7.048 4.069c-.235.138-.536.061-.678-.174-.141-.233-.069-.536.161-.682l7.723-4.876-7.558 4.363c-.238.137-.539.058-.679-.176-.141-.233-.067-.537.164-.682l3.375-2.103-3.063 1.769c-.235.138-.536.061-.678-.174-.141-.233-.069-.536.161-.682l6.544-4.134-6.175 3.564c-.235.137-.534.061-.677-.171-.142-.231-.073-.533.154-.681l8.877-5.766-8.42 4.861c-.232.137-.529.062-.673-.166s-.081-.527.141-.679l10.309-7.061-9.778 5.646c-.232.136-.527.061-.673-.165-.143-.227-.082-.526.138-.679l7.53-5.215-6.989 4.035c-.23.135-.528.062-.672-.165-.144-.226-.084-.525.137-.678l4.822-3.356-4.209 2.43c-.23.134-.526.062-.671-.162-.144-.225-.087-.522.13-.678l3.287-2.348-2.524 1.457c-.224.132-.512.066-.66-.146s-.109-.503.089-.669l3.501-2.933-2.32 1.339c-.209.122-.479.075-.634-.112-.156-.187-.155-.458.002-.644l2.209-2.606c-.068-.043-.128-.102-.171-.177-.139-.239-.057-.545.183-.683l1.478-.853c.209-.122.478-.075.634.112s.155.458-.002.644l-1.707 2.015 4.802-2.772c.224-.132.511-.066.66.146.148.213.109.504-.089.67l-3.502 2.935 6.497-3.751c.228-.135.525-.063.671.162.144.225.087.522-.13.678l-3.284 2.346 5.52-3.187c.229-.136.528-.062.672.165.144.226.084.525-.137.678l-4.822 3.356 7.275-4.2c.235-.136.529-.061.673.165.143.227.082.526-.138.679l-7.529 5.214 10.494-6.059c.234-.135.53-.062.673.166.144.228.081.527-.141.679l-10.31 7.061 13.695-7.906c.234-.137.534-.06.677.171.142.231.073.533-.154.681l-8.878 5.766 11.395-6.578c.237-.137.538-.06.678.174.141.233.069.536-.161.682l-6.542 4.133 7.067-4.08c.236-.139.537-.06.679.176.141.233.067.537-.164.682l-3.398 2.117 3.722-2.148c.237-.136.537-.06.678.174s.069.536-.161.682l-7.707 4.865 7.843-4.527c.237-.136.537-.06.678.175.142.232.069.536-.161.681l-7.098 4.468 7.073-4.084c.233-.138.531-.061.675.169.143.229.077.53-.148.68l-13.077 8.694 13.087-7.556c.237-.136.538-.059.678.173.141.232.07.535-.159.682l-5.032 3.207 4.725-2.728c.236-.137.534-.061.677.172.142.231.072.533-.155.681l-5.388 3.488 4.994-2.883c.229-.135.528-.062.672.164s.084.524-.135.678l-8.716 6.101 8.223-4.747c.229-.133.524-.063.669.159s.091.519-.122.676l-7 5.155 6.453-3.726c.234-.135.531-.062.674.167s.08.528-.143.68l-.729.494.192-.11c.22-.13.508-.069.659.145.148.212.111.502-.086.669l-4.011 3.406 3.301-1.905c.225-.134.515-.065.663.15.147.217.104.51-.101.673l-.697.557c.182-.069.388-.028.528.108.161.156.197.4.091.598l-1.056 1.941c.123.033.233.113.302.232.139.239.057.545-.183.683l-1.021.59c-.193.113-.438.081-.599-.074-.161-.156-.197-.4-.091-.598l.921-1.693-4.101 2.367c-.227.132-.516.064-.663-.15-.147-.217-.104-.51.101-.673l.663-.529-2.347 1.354c-.222.129-.509.067-.659-.145-.148-.212-.111-.502.086-.669l4.012-3.407-7.314 4.223c-.232.137-.53.062-.674-.167-.143-.228-.08-.528.143-.68l.739-.501-2.337 1.349c-.228.134-.522.064-.669-.159-.145-.222-.091-.519.122-.676l6.999-5.153-10.379 5.991c-.233.136-.528.062-.672-.164s-.084-.524.135-.678l8.716-6.101-12.028 6.944c-.234.137-.534.061-.677-.172-.142-.231-.072-.533.155-.681l5.391-3.49-7.526 4.345c-.235.138-.536.06-.678-.173-.141-.232-.07-.535.159-.682l5.026-3.203-7.03 4.059c-.079.046-.165.067-.25.067z" fill="#ffffff" fill-opacity="1" data-original-color="#8e3a3aff" stroke="none" stroke-opacity="1"/><path d="m19.155 15.47c-.162 0-.32-.079-.417-.224-.146-.22-.096-.516.115-.675l1.261-.956-3.055 1.764c-.219.129-.504.069-.654-.139-.15-.207-.12-.494.069-.665l1.781-1.606-.092.053c-.24.138-.546.057-.683-.183-.139-.239-.057-.545.183-.683l4.198-2.424c.22-.128.504-.068.654.139s.12.494-.069.665l-1.782 1.606 5.878-3.393c.227-.135.52-.064.667.156.146.22.096.516-.115.675l-1.263.957 3.347-1.932c.227-.134.521-.064.667.157s.095.517-.116.675l-1.296.974 3.063-1.768c.224-.13.51-.066.658.145.149.211.113.501-.084.669l-2.756 2.351 5.005-2.889c.222-.129.506-.066.655.14.15.208.119.496-.072.666l-2.661 2.37 4.558-2.631c.225-.134.517-.065.663.151.147.217.103.51-.102.673l-1.039.825 1.971-1.138c.214-.125.487-.072.643.122.153.195.142.473-.028.653l-1.962 2.082 3.271-1.889c.214-.126.491-.072.645.126.153.197.138.477-.036.655l-.657.674 1.163-.671c.188-.108.424-.084.585.062s.21.379.121.576l-.628 1.395 1.267-.73c.164-.095.367-.089.524.015.158.104.244.287.223.475l-.06.52.076-.044c.239-.14.543-.058.683.183.139.239.057.545-.183.683l-.937.541c-.162.096-.366.09-.524-.015-.158-.104-.244-.287-.223-.475l.06-.52-1.749 1.009c-.189.107-.426.084-.585-.062-.161-.146-.21-.379-.121-.576l.628-1.395-2.956 1.707c-.214.126-.491.073-.645-.126-.153-.197-.138-.477.036-.655l.658-.676-3.087 1.782c-.213.125-.486.072-.643-.122-.153-.195-.142-.473.028-.653l1.961-2.081-4.869 2.812c-.226.131-.517.065-.663-.151-.147-.217-.103-.51.102-.673l1.042-.827-2.939 1.696c-.218.13-.505.068-.655-.14s-.119-.496.072-.666l2.661-2.37-5.502 3.176c-.223.131-.509.067-.658-.145-.149-.211-.113-.501.084-.669l2.755-2.351-5.48 3.164c-.228.133-.521.064-.667-.157s-.095-.517.116-.675l1.297-.975-3.131 1.807c-.078.046-.165.067-.25.067z" fill="#ffffff" fill-opacity="1" data-original-color="#ffffffff" stroke="none" stroke-opacity="1"/><path d="m31.103 59.379c-.162 0-.321-.079-.417-.225-.146-.22-.095-.516.116-.675l3.631-2.734-5.957 3.439c-.233.136-.527.062-.672-.165-.144-.227-.083-.525.137-.679l4.45-3.084-5.75 3.319c-.232.136-.528.062-.673-.165-.143-.227-.082-.526.139-.679l7.271-5.036-8.541 4.931c-.235.136-.532.06-.674-.168-.143-.229-.079-.529.145-.68l7.59-5.104-8.524 4.922c-.233.137-.53.062-.674-.167-.143-.229-.079-.528.144-.68l10.123-6.861-11.08 6.397c-.235.138-.534.061-.677-.172-.142-.23-.073-.532.154-.68l7.215-4.684-7.708 4.449c-.235.136-.534.06-.676-.171s-.074-.532.152-.681l9.285-6.072-9.79 5.652c-.235.139-.536.06-.678-.174-.141-.232-.07-.535.16-.681l5.19-3.295-5.392 3.112c-.236.138-.537.061-.678-.174-.141-.232-.07-.535.159-.681l6.001-3.814-6.162 3.558c-.234.137-.534.061-.677-.171-.142-.231-.073-.533.154-.681l10.074-6.546-10.316 5.956c-.238.137-.538.058-.679-.176s-.067-.537.165-.682l.139-.086-.04.022c-.236.139-.535.06-.677-.173-.142-.231-.072-.534.156-.681l8.08-5.186-8.095 4.673c-.235.138-.536.06-.678-.174-.141-.233-.069-.536.161-.682l4.026-2.54-3.886 2.243c-.235.139-.536.06-.678-.174-.141-.232-.07-.535.159-.681l5.123-3.259-4.944 2.854c-.235.135-.531.06-.674-.168-.143-.229-.079-.528.145-.679l10.582-7.138-10.446 6.031c-.229.135-.529.062-.672-.164-.144-.226-.084-.525.136-.679l8.608-6.016-8.32 4.804c-.232.136-.529.062-.673-.165-.144-.228-.082-.526.139-.679l3.508-2.42-3.05 1.761c-.232.136-.527.062-.672-.165-.144-.227-.083-.525.137-.679l2.565-1.777-2.028 1.171c-.227.133-.519.064-.665-.153-.146-.219-.1-.513.108-.674l4.462-3.463-3.638 2.1c-.226.132-.515.064-.663-.15-.147-.216-.104-.509.1-.672l2.411-1.937-1.188.686c-.223.13-.51.067-.658-.144-.149-.211-.113-.501.083-.669l1.344-1.15c-.062-.042-.116-.098-.156-.167-.139-.239-.057-.545.183-.683l3.007-1.736c.22-.131.509-.068.658.144.149.211.113.501-.083.669l-.196.168 2.152-1.242c.225-.133.515-.065.663.15.147.216.104.509-.1.672l-2.411 1.937 4.334-2.502c.227-.133.519-.064.665.153.146.219.1.513-.108.674l-4.465 3.466 6.205-3.582c.235-.135.528-.061.673.165.143.227.082.525-.138.679l-2.564 1.776 3.331-1.923c.234-.136.53-.061.673.165.144.228.082.526-.139.679l-3.506 2.418 7.55-4.358c.23-.135.528-.062.672.164s.084.525-.136.679l-8.608 6.015 12.831-7.407c.234-.138.531-.061.674.168s.079.528-.145.679l-10.584 7.139 12.705-7.335c.236-.136.537-.059.678.174s.07.535-.159.681l-5.139 3.269 5.847-3.375c.237-.137.538-.06.678.174.141.233.069.536-.161.682l-4.012 2.53 4.377-2.526c.235-.137.535-.06.677.173.142.231.072.534-.156.681l-8.075 5.183 8.361-4.827c.236-.138.538-.059.679.176s.067.537-.165.682l-.158.099.064-.037c.235-.137.534-.061.677.171.142.231.073.533-.154.681l-10.067 6.541 10.016-5.782c.236-.137.537-.059.678.174s.07.535-.159.681l-6.005 3.816 5.696-3.288c.237-.136.537-.059.678.174s.07.535-.16.681l-5.188 3.293 4.742-2.737c.235-.137.534-.06.676.171s.074.532-.152.681l-9.289 6.074 8.707-5.026c.236-.136.534-.061.677.172.142.23.073.532-.154.68l-7.204 4.677 6.51-3.758c.234-.134.531-.062.674.167s.079.528-.144.68l-10.126 6.863 9.159-5.288c.234-.137.531-.061.674.168s.079.529-.145.68l-7.594 5.106 6.434-3.714c.234-.135.528-.061.673.165.143.227.082.526-.139.679l-7.274 5.038 5.708-3.295c.235-.135.529-.061.672.165.144.227.083.525-.137.679l-4.445 3.08 2.559-1.477c.227-.135.521-.064.667.156s.095.517-.116.676l-3.636 2.737.532-.307c.237-.141.545-.058.683.183.139.239.057.545-.183.683l-7.63 4.404c-.078.046-.165.067-.25.067z" fill="#000000" fill-opacity="1" data-original-color="#d63737ff" stroke="none" stroke-opacity="1"/><path d="m50.56 18.83c-.689-8.98-10.73-22.135-20.463-16.886-8.896-5.044-18.89 6.832-20.334 15.094-1.263 8.627-.99 18.401 4.855 25.404 1.109 6.947 5.395 14.175 12.335 16.531 9.705 2.43 17.147-8.212 18.395-16.731 5.56-6.47 5.867-15.315 5.212-23.412zm-35.795 3.126c.127-2.327.651-4.579 1.688-6.503 2.066.257 4.546.379 6.466-.234 2.063.682 4.975.582 7.013.006 2.068.668 4.961.578 6.999 0 1.928.668 4.431.434 6.457.207 2.717 5.085 2.165 11.664 1.289 17.213-2.38-5.454-10.319-4.95-14.537-1.85-4.247-3.201-12.133-3.462-14.73 1.857-.988-3.388-.833-7.256-.645-10.696zm21.5-11.75c-.207 2.399 1.083 5.071-2.585 4.226-4.029.999-2.78-2.359-2.944-4.97 1.865.046 3.729.263 5.529.744zm6.493 4.294c-4.122-.206-5.504 1.229-5.021-3.811 2.107.819 3.79 2.125 5.021 3.811zm-13.492-1.069c.419 1.465-1.741 1.043-2.586 1.001-3.866.835-2.856-1.679-2.954-4.349 1.808-.445 3.693-.617 5.54-.63zm-6.989.249c.275 1.21-1.928.762-2.597.752-.57 0-1.918.244-2.583-.027 1.163-1.725 3.011-3.171 5.18-3.89zm7.223 44.842c-7.57-1.331-12.151-9.19-13.472-16.279.076-.114.054-.249-.048-.357-2.291-9.403 4.747-16.601 13.286-10.143-.623 9.65 2.141 8.693 1.471-.221 21.053-11.597 14.837 28.028-1.237 27.001zm19.714-29.682c-.271 3.909-1.508 7.695-3.574 11 .149-1.731.121-3.486-.28-5.186 2.065-6.181 2.351-14.251-.791-20.048.069-.192-.055-.335-.256-.42-1.459-2.209-3.928-3.965-6.708-4.695-7.024-1.992-17.048-1.59-21.758 4.685-.305.132-.504.366-.389.608-3.212 5.838-2.843 13.872-.834 20.09-.341 1.522-.394 3.124-.313 4.658-6.495-11.507-5.413-30.464 7.621-36.946 2.245-1.091 5.936-2.034 7.344.608 2.115 1.096 1.67-3.749 7.823-.888 10.395 4.301 13.264 16.291 12.115 26.534z" fill="#262626" fill-opacity="1" data-original-color="#262626ff" stroke="none" stroke-opacity="1"/></g></svg>