<svg xmlns="http://www.w3.org/2000/svg" id="icons" viewBox="0 0 60 60" width="300" height="300" version="1.1" xmlns:xlink="http://www.w3.org/1999/xlink" xmlns:svgjs="http://svgjs.dev/svgjs"><g width="100%" height="100%" transform="matrix(1,0,0,1,0,0)"><path d="M46.49,43.445a.5.5,0,0,1-.322-.882l2.157-1.821-3.632,2.1a.5.5,0,0,1-.5-.865l8.5-4.909a.5.5,0,0,1,.573.815L51.111,39.7l1.037-.6a.5.5,0,1,1,.5.865L46.74,43.378A.491.491,0,0,1,46.49,43.445Z" fill="#ffffff" fill-opacity="1" data-original-color="#88cc64ff" stroke="none" stroke-opacity="1"/><path d="M36.929,46.382a.5.5,0,0,1-.282-.913l4.568-3.109-5.885,3.4a.5.5,0,0,1-.533-.845l8.423-5.794L33.639,44.65a.5.5,0,0,1-.529-.847l11.545-7.752L30.373,44.3a.5.5,0,0,1-.518-.855l8.507-5.4L24.6,45.988a.5.5,0,0,1-.516-.855l12.08-7.594L21,46.29a.5.5,0,0,1-.517-.855l15.668-9.861L18.9,45.538a.5.5,0,0,1-.514-.856L33.232,35.4,17.473,44.5a.5.5,0,0,1-.516-.857l15.817-9.9-16.39,9.463a.5.5,0,0,1-.515-.856l14.592-9.117L12.88,43.384a.5.5,0,0,1-.515-.858L29.018,32.164,10.62,42.785a.5.5,0,0,1-.509-.86l.616-.372-1.084.626a.5.5,0,0,1-.516-.857l20.7-12.957L8.313,40.787a.5.5,0,0,1-.507-.86l.419-.254-.4.232a.5.5,0,0,1-.512-.858l14.919-9.2L7.369,38.421a.5.5,0,0,1-.514-.858l16.03-9.97L7.351,36.561a.5.5,0,0,1-.514-.858l14.287-8.851L8,34.43a.5.5,0,0,1-.511-.86l5.229-3.189L7.041,33.656a.5.5,0,0,1-.514-.857l13.867-8.6L6.1,32.446a.5.5,0,0,1-.514-.857l13.38-8.3L5.513,31.06A.5.5,0,0,1,5,30.2l5.505-3.364L5.063,29.979a.5.5,0,0,1-.519-.854L22.791,17.468,3.176,28.792a.5.5,0,0,1-.519-.854l18.7-11.917L1.972,27.209a.5.5,0,0,1-.515-.857l12.55-7.822L1.438,25.786a.5.5,0,0,1-.518-.854l15.064-9.593L1.315,23.808A.5.5,0,0,1,.8,22.953l13.51-8.592L2.115,21.4a.5.5,0,0,1-.517-.854l10.657-6.767L5.3,17.8a.5.5,0,0,1-.518-.855l5.564-3.532L5.425,16.248a.5.5,0,0,1-.6-.793l1.335-1.287a.5.5,0,0,1-.108-.912l2.683-1.55a.5.5,0,0,1,.6.793l-.872.841L30.476.631a.5.5,0,0,1,.517.854L25.42,5.023l6.919-3.994a.5.5,0,0,1,.517.855L22.211,8.643l11.8-6.81a.5.5,0,0,1,.518.855L21.011,11.282l14.41-8.319a.5.5,0,0,1,.518.854l-15.07,9.6L39.156,2.856a.5.5,0,0,1,.515.858l-12.533,7.81L40.565,3.772a.5.5,0,0,1,.519.855l-18.7,11.92L41.574,5.469a.5.5,0,0,1,.52.853L23.844,17.981,44.711,5.935a.5.5,0,0,1,.511.859l-5.511,3.367,6.26-3.613a.5.5,0,0,1,.513.857L33.119,15.693l14.06-8.117a.5.5,0,0,1,.513.858l-13.867,8.6L48.049,8.826a.5.5,0,0,1,.511.86l-5.239,3.2L48.479,9.9a.5.5,0,0,1,.514.858L34.705,19.613l14.013-8.09a.5.5,0,0,1,.513.858L33.2,22.351,51.361,11.868a.5.5,0,0,1,.513.859l-14.928,9.21L52.9,12.727a.5.5,0,0,1,.508.86l-.41.248.637-.367a.5.5,0,0,1,.515.856L33.442,27.284,54.5,15.127a.5.5,0,0,1,.509.86l-.589.356.278-.16a.5.5,0,0,1,.515.857L38.56,27.4l16.3-9.409a.5.5,0,0,1,.515.857l-14.6,9.119,15.691-9.059a.5.5,0,0,1,.515.857l-15.813,9.9,16.471-9.509a.5.5,0,0,1,.514.857L43.3,30.3,58.378,21.59a.5.5,0,0,1,.517.855L43.24,32.3l15.469-8.931a.5.5,0,0,1,.516.856l-12.084,7.6,11.323-6.537a.5.5,0,0,1,.517.855l-8.508,5.4,6.478-3.74a.5.5,0,0,1,.528.848L45.935,36.4l7.748-4.472a.5.5,0,0,1,.533.845l-8.423,5.794,6.64-3.834a.5.5,0,0,1,.531.846l-4.573,3.113L52.7,36.2a.5.5,0,0,1,.529.848l-9.417,6.331a.5.5,0,0,1-.237.546l-4.1,2.369a.5.5,0,0,1-.53-.848l1.581-1.062-3.346,1.931A.5.5,0,0,1,36.929,46.382Z" fill="#ffffff" fill-opacity="1" data-original-color="#88cc64ff" stroke="none" stroke-opacity="1"/><path d="M18.938,4.975a.5.5,0,0,1-.25-.933l2.395-1.383a.5.5,0,1,1,.5.865L19.188,4.907A.5.5,0,0,1,18.938,4.975Z" fill="#ffffff" fill-opacity="1" data-original-color="#88cc64ff" stroke="none" stroke-opacity="1"/><path d="M11.132,11.425a.5.5,0,0,1-.363-.844l2.117-2.232a.5.5,0,0,1-.46-.887l2.936-1.695a.5.5,0,0,1,.614.776L13.863,8.771,27.409.95a.5.5,0,1,1,.5.865L11.382,11.357A.49.49,0,0,1,11.132,11.425Z" fill="#ffffff" fill-opacity="1" data-original-color="#88cc64ff" stroke="none" stroke-opacity="1"/><path d="M27.03,32.711a.5.5,0,0,1-.306-.895l.381-.3a.5.5,0,0,1-.439-.837l2.271-2.411-1.657.957a.5.5,0,0,1-.659-.72l.716-1.02a.5.5,0,0,1-.271-.932l1.655-.956a.5.5,0,0,1,.659.719l-.64.911L31.386,25.7a.5.5,0,0,1,.614.776L29.729,28.89l2.951-1.7a.5.5,0,0,1,.556.827l-.344.268a.514.514,0,0,1,.523.242.5.5,0,0,1-.183.683L27.28,32.644A.5.5,0,0,1,27.03,32.711Z" fill="#ffffff" fill-opacity="1" data-original-color="#925c4cff" stroke="none" stroke-opacity="1"/><path d="M25.924,59.47a.5.5,0,0,1-.311-.892l2.3-1.82L23.328,59.4a.5.5,0,0,1-.563-.822l4.884-3.936-5.271,3.044a.5.5,0,0,1-.545-.837L26.2,53.667a.5.5,0,0,1-.189-.874l1.557-1.251-.337.2a.5.5,0,0,1-.592-.8l2.8-2.619L27.28,49.565a.5.5,0,0,1-.593-.794l2.874-2.729L27.28,47.358a.5.5,0,0,1-.593-.795l2.845-2.691-2.252,1.3a.5.5,0,0,1-.58-.808l2.168-1.909-1.588.916a.5.5,0,0,1-.593-.8l2.858-2.706L27.28,41.176a.5.5,0,0,1-.532-.845l6.218-4.262L27.28,39.352a.5.5,0,0,1-.532-.846l5.68-3.887-6.2,3.581a.5.5,0,0,1-.542-.839l5.735-4.121-6.883,3.974a.5.5,0,0,1-.565-.82l3.822-3.1-5.019,2.9a.5.5,0,0,1-.652-.73l1.453-1.968-2.726,1.574a.5.5,0,0,1-.605-.786l.693-.7-1.323.763a.493.493,0,0,1-.613-.09.5.5,0,0,1-.055-.618L20.1,31.878l-2.37,1.368a.5.5,0,0,1-.677-.69l.985-1.637-1.646.95a.5.5,0,0,1-.654-.726l.5-.687a.5.5,0,0,1-.2-.931l1.6-.922a.5.5,0,0,1,.654.726l-.363.5,1.293-.746a.5.5,0,0,1,.677.69l-.985,1.636,2.519-1.454a.5.5,0,0,1,.668.708l-1.158,1.757,2.735-1.578a.5.5,0,0,1,.6.785l-.692.7,1.561-.9a.5.5,0,0,1,.653.729l-1.453,1.968,8.4-4.848a.5.5,0,0,1,.565.821l-3.822,3.1,10.127-5.846a.5.5,0,0,1,.542.838l-5.733,4.12,8.818-5.091a.5.5,0,0,1,.532.845l-5.684,3.89,5.586-3.225a.5.5,0,0,1,.532.845L33.365,37.008l0,.007a.5.5,0,0,1-.057.662l-2.859,2.708,2.266-1.308a.5.5,0,0,1,.58.808l-2.166,1.907,1.586-.915a.5.5,0,0,1,.593.8l-2.845,2.69,2.252-1.3a.5.5,0,0,1,.593.795l-2.874,2.729,2.281-1.316a.5.5,0,0,1,.592.8l-2.8,2.62,2.212-1.276a.5.5,0,0,1,.563.822l-1.554,1.247.991-.571a.5.5,0,0,1,.545.837l-3.286,2.4,2.76-1.593a.5.5,0,0,1,.564.822l-4.888,3.939,4.891-2.824a.5.5,0,0,1,.56.825l-2.3,1.821,2.586-1.492a.5.5,0,0,1,.6.788l-2.189,2.16,3.153-1.819a.5.5,0,0,1,.57.816l-.064.054.481-.278a.5.5,0,0,1,.672.7l-.923,1.457,1.166-.673a.5.5,0,1,1,.5.865L35.193,59.4a.5.5,0,0,1-.672-.7l.923-1.456L31.71,59.4a.5.5,0,0,1-.57-.816l.067-.057-1.513.873a.5.5,0,0,1-.6-.788l2.187-2.159L26.174,59.4A.493.493,0,0,1,25.924,59.47Z" fill="#ffffff" fill-opacity="1" data-original-color="#925c4cff" stroke="none" stroke-opacity="1"/><path d="M2.6,28.952c1.905.756,1.946,2.522,3.008,4.007.567.7,1.366.954,1.121,1.9-2.206,5.218,3.6,10.1,8.547,7.909,2.382,3.789,7.4,4.415,11,2.137-.288,3.015.891,6.636-1.241,9.146a14.658,14.658,0,0,1-2.456,1.607c-1.633,1.121-1.938,4.2.789,3.632,3.086-.917,18.192,2.7,14.662-3.384-4.59-1.977-4.605-6.327-4.306-10.706a8.345,8.345,0,0,0,10.688-2.3c5.138,1.841,11.124-3.157,8.793-8.54-.211-.647.059-.6.515-1.02a6.162,6.162,0,0,0,1.937-3.722c4.927-1.713,5.469-9.041.65-11.249-.839-.409-.586-.742-.583-1.564a5.22,5.22,0,0,0-6.007-5.023c-.071-3.907-3.477-6.3-7.131-5.99-.856-2.841-3.743-3.539-6.235-2.652A9.194,9.194,0,0,0,24.1,3.051a5.234,5.234,0,0,0-6.54,2.693c-3.537-.036-6.933,2.326-7.248,6-3.489.075-6.627,2.86-5.886,6.6C.059,19.906-1.259,26.068,2.6,28.952ZM32.275,40.575c.569,4.6-1.756,10.71,2.018,14.229,1.007.7,2.38,1.055,2.8,2.364.226,1.058.906,1.87-.729,1.54-2.5-.762-17.339,2.3-12.745-2.94,6.416-2.552,3.507-10.377,4.108-15.746.158-3.958-7.261-5.1-9.918-7.631-.907-.561-1.671-2.187-.447-2.875,3.1-.329,7.585,4.337,10.364,2.79.234-1.872-.72-4.426.68-5.9,1.5-.337,3.759-.232,3.872,1.784.193.928-.648,3.192.973,2.466,3.06-.757,6.239-3.494,9.3-3.045a1.824,1.824,0,0,1-.224,3c-3.14,1.862-6.324,3.669-9.472,5.527C31.532,36.97,32.588,39.2,32.275,40.575ZM5.415,18.433c.1-.034.517-.169.479-.337-.632-2.833,1.2-6.306,4.508-5.727.254.045,1.322-.091,1.322-.463,0-3.135,2.462-6.067,5.778-5.537.264.043,1.218-.065,1.311-.4,1.589-4.445,3.545-1.44,5.94-2.431C27.76.384,32.309.8,35.216,3.841c3.017-.737,4.6-.981,5.96,2.453a6.114,6.114,0,0,1,7.1,6,5.139,5.139,0,0,1,5.87,6.237c5.026,1.452,5.582,9.137.569,11-.153.058-.452.143-.479.337a6.515,6.515,0,0,1-2.731,4.38c2.314,4.429-1.515,10.334-6.641,7.815a1.507,1.507,0,0,0-1.4.375,5.958,5.958,0,0,1-9.743,1.251c-.007-2.451.011-4.905,0-7.349,3.354-2.57,8.477-3.743,10.927-7.161-.493-5.633-7.931.229-10.93.776.263-2.163-.221-4.522-2.889-4.243-4.32-.654-4.947,2.463-4.559,5.984-2.739-.813-5.432-2.85-8.322-2.963-2.279.24-3.758,2.773-1.445,4.193,3.19,1.978,6.608,3.736,9.769,5.7.01,1.681-.011,3.668,0,5.4-3.116,2.963-7.723,1.614-9.732-1.912-3.02.63-5.81,1.125-7.858-2.049a6.452,6.452,0,0,1-.232-6.248,6.366,6.366,0,0,1-2.73-4.38C.726,27.868.358,20.166,5.415,18.433Z" fill="#262626" fill-opacity="1" data-original-color="#262626ff" stroke="none" stroke-opacity="1"/></g></svg>