<svg id="Icons" viewBox="0 0 60 60" xmlns="http://www.w3.org/2000/svg"><path d="m31.162 59.466c-.168 0-.333-.086-.427-.24-.141-.231-.071-.534.157-.681l5.364-3.44-7.436 4.293c-.234.138-.535.06-.677-.173-.141-.231-.071-.534.157-.681l7.565-4.85-9.817 5.667c-.237.137-.539.058-.679-.175-.14-.234-.067-.537.164-.682l4.07-2.546-5.793 3.345c-.237.137-.539.058-.679-.176-.141-.233-.067-.537.164-.682l4.738-2.952-6.447 3.722c-.235.137-.536.06-.676-.172-.142-.231-.073-.533.154-.681l14.578-9.438-17.469 10.086c-.237.137-.54.059-.68-.177-.14-.234-.065-.538.167-.682l3.314-2.04-4.738 2.735c-.237.137-.54.058-.68-.177s-.065-.538.167-.682l4.163-2.562-5.57 3.216c-.237.136-.538.059-.678-.174-.141-.233-.069-.536.161-.682l13.767-8.696-15.905 9.183c-.236.137-.538.058-.678-.175-.141-.233-.068-.537.163-.682l12.752-7.99-14.555 8.403c-.237.138-.541.059-.68-.177-.14-.235-.065-.539.168-.682l5.241-3.215-6.344 3.662c-.235.136-.538.059-.678-.174-.141-.233-.069-.536.161-.682l15.904-10.044-17.333 10.007c-.236.137-.538.06-.678-.175-.141-.232-.069-.536.162-.681l15.38-9.689-15.942 9.204c-.236.138-.54.059-.68-.177-.14-.235-.065-.539.168-.682l5.979-3.675-5.837 3.37c-.236.136-.538.059-.678-.175-.141-.232-.069-.536.162-.681l13.528-8.52-12.942 7.472c-.234.138-.536.06-.677-.173-.141-.232-.071-.535.158-.682l14.25-9.089-13.439 7.759c-.236.136-.538.059-.678-.174-.141-.232-.07-.535.16-.682l9.585-6.071-8.779 5.068c-.235.137-.538.059-.678-.174-.141-.233-.069-.536.162-.682l5.514-3.475-4.713 2.721c-.232.138-.532.061-.674-.168-.143-.229-.078-.53.146-.68l10.896-7.3-9.859 5.691c-.234.138-.535.059-.677-.173-.141-.232-.071-.534.158-.681l2.228-1.426-1.343.774c-.235.136-.535.06-.676-.171-.142-.231-.074-.532.153-.681l2.419-1.577-1.289.744c-.231.135-.526.062-.67-.162-.145-.225-.087-.522.13-.678l3.109-2.216c-.225.081-.477-.011-.599-.222-.138-.239-.056-.545.183-.683l8.892-5.133c.231-.135.526-.062.67.162.145.225.087.522-.13.678l-3.03 2.159 8.265-4.771c.233-.138.534-.061.676.171.142.231.074.532-.153.681l-2.418 1.576 4.205-2.428c.235-.137.536-.059.677.173s.071.534-.158.681l-2.227 1.426 3.949-2.279c.235-.136.533-.061.674.168.143.229.078.53-.146.68l-10.895 7.3 14.113-8.148c.237-.137.538-.06.678.174.141.233.069.536-.161.682l-5.52 3.479 7.507-4.334c.238-.137.537-.06.678.174.141.232.069.535-.16.682l-9.583 6.069 11.917-6.88c.237-.137.536-.059.678.173.141.232.07.535-.159.682l-14.25 9.09 15.903-9.182c.237-.136.537-.06.678.175.141.232.069.536-.161.681l-13.538 8.525 14.903-8.604c.237-.139.539-.06.68.177.14.235.065.539-.168.682l-5.976 3.672 6.794-3.922c.237-.137.537-.06.678.175.141.232.069.536-.161.681l-15.372 9.684 16.675-9.627c.237-.137.537-.06.678.174s.069.536-.161.682l-15.905 10.045 17.172-9.914c.237-.138.539-.06.68.177.14.235.064.539-.168.682l-5.249 3.22 5.885-3.397c.237-.136.539-.059.679.175.141.233.067.537-.163.682l-12.754 7.991 13.71-7.915c.236-.136.537-.059.678.174s.069.536-.161.682l-13.757 8.69 14.754-8.519c.236-.139.538-.06.68.177.14.234.065.538-.168.682l-4.168 2.565 4.636-2.677c.237-.139.539-.06.68.177.14.234.065.538-.168.682l-3.323 2.046 3.616-2.088c.235-.136.534-.061.677.172.142.231.072.533-.155.681l-14.581 9.439 15.11-8.723c.236-.139.538-.06.679.176.141.233.067.537-.164.682l-4.739 2.953 4.691-2.708c.236-.137.538-.059.679.175s.067.537-.164.682l-4.066 2.544 3.875-2.237c.237-.137.536-.06.677.173.142.231.071.534-.157.681l-7.561 4.848 7.379-4.26c.238-.137.536-.059.677.173.142.231.072.534-.157.681l-5.368 3.443 5.129-2.961c.235-.138.536-.06.677.172.142.231.072.534-.156.681l-3.966 2.557 3.688-2.129c.236-.137.533-.06.676.17.142.23.075.532-.151.681l-4.354 2.863 4.064-2.346c.236-.138.534-.06.677.171.142.231.073.533-.154.681l-.737.479.388-.224c.234-.137.532-.06.676.17.142.23.075.532-.151.681l-.262.172c.202-.06.432.015.556.199.147.218.102.512-.105.674l-4.886 3.841 4.584-2.646c.216-.127.494-.072.647.129.152.2.133.482-.046.659l-2.643 2.613 1.795-1.036c.239-.14.546-.057.683.183.139.239.057.545-.183.683l-5.158 2.979c-.217.126-.495.071-.647-.129s-.133-.482.046-.659l2.644-2.614-7.284 4.205c-.227.132-.518.063-.664-.152-.147-.218-.102-.512.105-.674l4.885-3.84-8.729 5.04c-.235.137-.533.06-.676-.17-.142-.23-.075-.532.151-.681l.065-.043-1.76 1.016c-.234.137-.534.061-.677-.171-.142-.231-.073-.533.154-.681l.736-.479-2.457 1.418c-.236.137-.533.06-.676-.17-.142-.23-.075-.532.151-.681l4.355-2.865-6.55 3.781c-.235.137-.535.061-.677-.172-.142-.231-.072-.534.156-.681l3.965-2.556-5.951 3.436c-.079.046-.165.067-.25.067z" fill="#0c61c6"/><path d="m28.342 33.344c-.165 0-.325-.081-.42-.229-.145-.223-.089-.521.126-.677l6.701-4.849-8.66 4.999c-.235.137-.533.06-.676-.17-.142-.23-.075-.532.151-.681l3.248-2.136-4.076 2.353c-.231.136-.529.062-.673-.166-.143-.227-.082-.526.139-.679l9.03-6.221-10.249 5.917c-.232.137-.529.062-.673-.166s-.082-.527.14-.679l10.597-7.268-11.635 6.717c-.233.137-.533.062-.675-.169-.143-.229-.077-.531.148-.681l9.305-6.174-9.923 5.729c-.233.136-.532.061-.674-.168-.143-.229-.079-.528.145-.68l11.484-7.736-12.086 6.978c-.234.139-.536.06-.677-.172-.142-.232-.072-.534.156-.682l6.556-4.214-6.713 3.875c-.233.137-.531.061-.675-.169-.142-.229-.077-.529.147-.68l11.39-7.607-11.659 6.73c-.235.137-.535.06-.677-.172-.141-.231-.072-.533.155-.681l7.432-4.802-7.402 4.273c-.234.136-.532.061-.674-.168-.143-.229-.078-.529.146-.68l11.436-7.688-11.409 6.586c-.236.136-.537.059-.678-.174-.141-.232-.07-.536.16-.682l2.582-1.634-2.266 1.308c-.235.136-.535.059-.676-.171-.142-.23-.074-.532.153-.681l7.039-4.594-6.672 3.853c-.233.137-.533.062-.675-.17-.142-.229-.076-.531.15-.68l7.251-4.788-6.733 3.887c-.234.138-.536.06-.677-.172-.142-.232-.072-.534.156-.682l2.475-1.592-1.851 1.068c-.234.138-.536.06-.677-.173-.141-.231-.071-.534.157-.681l.759-.486-.02.011c-.23.136-.527.062-.672-.164-.144-.226-.084-.524.135-.678l6.829-4.785-5.617 3.242c-.231.136-.526.062-.671-.163-.144-.225-.086-.522.132-.678l4.199-2.977-2.552 1.473c-.227.132-.513.066-.661-.147s-.108-.505.092-.67l3.196-2.647c-.158-.013-.307-.101-.392-.248-.138-.239-.056-.545.183-.683l4.44-2.564c.225-.132.512-.066.661.147.148.213.108.505-.092.67l-2.789 2.311 6.703-3.87c.232-.135.527-.062.671.163s.086.522-.132.678l-4.199 2.978 6.203-3.581c.229-.135.526-.062.672.164.144.226.084.524-.135.678l-6.829 4.785 8.623-4.978c.237-.136.536-.058.677.173.142.231.072.534-.157.681l-.76.487 1.431-.825c.235-.138.535-.059.677.172.142.232.072.534-.156.682l-2.475 1.591 3.115-1.798c.233-.138.532-.062.676.17.142.229.075.531-.15.68l-7.247 4.785 8.083-4.667c.235-.137.535-.06.676.171.142.23.074.532-.152.681l-7.039 4.594 7.646-4.414c.236-.137.537-.06.678.174.141.232.069.536-.16.682l-2.603 1.647 2.862-1.652c.233-.138.532-.061.674.168.143.229.079.529-.145.68l-11.428 7.684 12.038-6.95c.236-.137.536-.061.677.172.142.231.072.533-.155.681l-7.446 4.812 7.622-4.4c.234-.137.531-.062.675.169.143.229.077.529-.147.68l-11.383 7.603 11.589-6.69c.235-.137.536-.059.677.172.142.232.072.534-.156.682l-6.561 4.217 6.447-3.722c.234-.138.531-.061.674.168s.079.528-.145.68l-11.486 7.738 11.33-6.541c.233-.138.533-.062.675.169.143.229.077.531-.148.681l-9.309 6.177 8.901-5.139c.234-.135.53-.061.673.166.144.228.081.527-.14.679l-10.596 7.266 9.947-5.742c.234-.135.53-.061.673.166.144.227.082.526-.14.679l-9.028 6.22 8.061-4.653c.234-.137.533-.06.676.17.142.23.075.532-.151.681l-3.254 2.141 2.229-1.286c.229-.135.524-.063.67.161.145.223.089.521-.127.677l-6.697 4.847 4.892-2.824c.227-.133.518-.064.665.153.146.218.1.512-.107.674l-4.137 3.226 1.214-.7c.238-.14.545-.058.683.183.139.239.057.545-.183.683l-7.442 4.296c-.227.133-.518.064-.665-.153-.146-.218-.1-.512.107-.674l4.133-3.223-7.076 4.085c-.079.046-.165.067-.25.067z" fill="#0783e0"/><path d="m54.965 42.284c-2.135-7.035-10.557-9.633-16.728-12.212 9.257-7.251 8.774-25.008-3.569-28.737-17.463-5.036-26.083 18.598-13.035 28.911-5.55 2.213-11.849 4.638-15.552 9.521-3.143 10.552-6.949 18.257 7.611 18.935 12.661 1.087 25.707 1.487 38.215-1.049 7.729-1.233 3.877-10.247 3.058-15.37zm-35.521-16.609c-6.954-9.95.057-27.553 13.579-23.931 12.579 3.451 13.123 21.695 3.6 28.75-5.851 4.799-13.812 1.054-17.179-4.819zm32.811 30.953c-14.866 2.649-31.276 3.353-45.888-.685-3.536-3.32-.296-9.146.06-13.29 1.784-6.844 10.21-9.264 16.064-11.763 4.082 3.083 10.365 3.091 14.649-.005 6.931 2.75 16.517 5.925 17.012 14.644.41 3.612 3.138 9.751-1.897 11.099z" fill="#262626"/></svg>