<svg id="Icons" viewBox="0 0 60 60" xmlns="http://www.w3.org/2000/svg"><path d="m17.032 51.47c-.17 0-.336-.087-.43-.243-.14-.235-.065-.538.167-.683l5.458-3.372-7.328 4.23c-.235.139-.534.06-.678-.173-.141-.232-.07-.535.159-.682l17.198-10.967-20.477 11.821c-.235.139-.536.061-.678-.175-.141-.232-.069-.536.161-.681l18.11-11.406-21.238 12.262c-.237.137-.539.058-.679-.176-.141-.234-.067-.537.165-.682l17.838-11.094-20.683 11.941c-.238.137-.54.059-.68-.177s-.064-.539.168-.683l14.778-9.06-16.005 9.246c-.238.138-.54.058-.681-.179-.14-.235-.062-.54.172-.682l6.723-4.065-6.951 4.013c-.239.138-.542.059-.681-.179-.14-.236-.062-.541.173-.683l3.997-2.409-3.811 2.2c-.238.138-.54.058-.681-.179-.14-.236-.062-.54.173-.682l5.09-3.07-4.602 2.656c-.238.137-.54.058-.679-.176-.141-.234-.066-.538.166-.682l21.813-13.49-21.299 12.299c-.238.137-.54.059-.68-.177-.14-.234-.065-.538.167-.682l20.421-12.589-19.908 11.495c-.238.138-.54.059-.679-.176-.141-.234-.066-.538.165-.682l22.772-14.115-22.258 12.851c-.239.138-.542.059-.681-.179-.14-.236-.062-.541.173-.683l1.303-.783-.795.459c-.239.137-.541.058-.681-.178s-.062-.541.172-.683l8.534-5.166-8.025 4.634c-.238.137-.539.058-.679-.176-.141-.233-.067-.537.164-.682l24.362-15.165-23.847 13.77c-.238.137-.541.058-.68-.178-.14-.235-.064-.539.169-.682l14.395-8.778-13.884 8.016c-.238.137-.539.058-.679-.176-.141-.233-.067-.537.164-.681l24.866-15.506-24.351 14.06c-.238.137-.54.059-.68-.177s-.065-.539.168-.682l18.066-11.104-17.554 10.137c-.236.138-.537.059-.679-.175-.141-.233-.067-.537.163-.682l23.106-14.468-22.59 13.044c-.236.139-.537.061-.678-.175-.142-.232-.069-.536.161-.681l20.759-13.067-20.242 11.686c-.238.137-.539.058-.679-.175-.141-.234-.067-.537.164-.682l15.325-9.576-14.81 8.552c-.236.138-.537.061-.679-.175-.141-.233-.068-.536.162-.681l13.936-8.762-13.419 7.747c-.238.137-.54.059-.68-.177s-.065-.539.168-.682l2.763-1.696-2.251 1.299c-.236.138-.537.061-.678-.174-.141-.232-.07-.535.159-.681l11.222-7.13-10.703 6.18c-.236.139-.537.061-.679-.175-.141-.233-.068-.536.163-.682l5.967-3.749-5.451 3.146c-.235.136-.534.06-.676-.171s-.074-.533.152-.681l9.771-6.366-9.247 5.34c-.235.137-.534.061-.676-.171s-.074-.533.152-.681l6.896-4.494-6.373 3.68c-.232.137-.529.062-.673-.165-.144-.228-.082-.527.139-.68l8.501-5.859-7.966 4.599c-.234.135-.534.061-.676-.17-.142-.229-.075-.531.15-.68l2.535-1.675-2.01 1.16c-.235.137-.533.06-.676-.17-.142-.23-.075-.531.15-.681l.412-.271c-.206.062-.438-.021-.559-.213-.144-.226-.084-.525.137-.678l2.15-1.495-1.615.933c-.229.135-.522.063-.668-.158s-.093-.519.12-.676l2.28-1.689-1.732 1c-.215.127-.493.072-.646-.128-.152-.198-.135-.479.042-.657l2.705-2.724-2.101 1.213c-.209.123-.479.075-.635-.113-.155-.188-.153-.46.006-.646l.909-1.059c-.153-.017-.296-.104-.379-.247-.139-.239-.057-.545.183-.683l2.052-1.183c.209-.123.479-.075.635.113.155.188.153.46-.006.646l-.721.839 2.807-1.62c.215-.126.493-.071.646.128.152.198.135.479-.042.657l-2.706 2.724 6.079-3.509c.229-.133.522-.062.668.158.146.222.093.519-.12.676l-2.277 1.688 4.367-2.522c.23-.135.528-.062.672.165.144.226.084.525-.137.678l-2.148 1.493 4.047-2.336c.234-.137.532-.06.676.17.142.23.075.531-.15.681l-.206.136 1.708-.986c.233-.137.533-.062.676.17.142.229.075.531-.15.68l-2.531 1.672 4.368-2.521c.231-.136.53-.061.673.165.144.228.082.527-.139.68l-8.5 5.859 11.611-6.706c.235-.137.534-.061.676.171s.074.533-.152.681l-6.897 4.494 9.259-5.346c.235-.137.534-.061.676.171s.074.533-.152.681l-9.769 6.364 12.499-7.216c.237-.136.538-.06.679.175.141.233.068.536-.163.682l-5.978 3.757 7.99-4.614c.236-.136.537-.06.678.174.141.232.07.535-.159.681l-11.213 7.124 13.82-7.979c.236-.139.538-.06.68.177.14.235.065.539-.168.682l-2.784 1.71 4.449-2.568c.236-.136.538-.06.679.175.141.233.068.536-.162.681l-13.936 8.762 16.658-9.619c.236-.139.538-.059.679.175s.067.537-.164.682l-15.32 9.572 18.064-10.429c.236-.136.537-.06.678.175.142.232.069.536-.161.681l-20.756 13.065 24.112-13.921c.237-.136.538-.059.679.175s.067.537-.163.682l-23.1 14.463 24.928-14.394c.237-.139.539-.06.68.177.14.235.065.539-.168.682l-18.073 11.106 18.305-10.567c.236-.139.537-.06.679.176.141.233.067.537-.164.681l-24.867 15.506 24.429-14.104c.236-.139.54-.059.68.178.14.235.064.539-.169.682l-14.395 8.778 13.884-8.016c.236-.139.537-.06.679.176.141.233.067.537-.164.682l-24.362 15.165 23.848-13.769c.237-.139.54-.058.681.178.14.236.062.541-.172.683l-8.534 5.166 8.025-4.634c.237-.139.542-.059.681.179.14.236.062.541-.173.683l-1.303.783.795-.459c.236-.139.539-.06.679.176.141.234.066.538-.165.682l-22.772 14.115 22.259-12.851c.236-.138.538-.06.68.177.14.234.065.538-.167.682l-20.437 12.598 19.924-11.502c.236-.138.539-.059.679.176.141.234.066.538-.166.682l-21.813 13.49 21.301-12.298c.237-.14.54-.059.681.179.14.236.062.54-.173.682l-5.071 3.059 4.563-2.634c.237-.14.542-.059.681.179.14.236.062.541-.173.683l-3.963 2.388 3.455-1.994c.237-.139.54-.058.681.179.14.235.062.54-.172.682l-6.757 4.086 6.248-3.606c.236-.138.538-.06.68.177.14.235.064.539-.168.683l-14.771 9.055 14.259-8.232c.236-.138.537-.059.679.176.141.234.067.537-.165.682l-17.845 11.098 17.331-10.006c.237-.137.537-.06.678.175.141.232.069.536-.161.681l-18.104 11.401 17.587-10.153c.237-.137.536-.059.678.173.141.232.07.535-.159.682l-17.209 10.974 16.69-9.635c.236-.138.538-.059.68.176.14.235.065.539-.167.683l-5.443 3.363 4.931-2.847c.236-.139.538-.06.68.177.14.235.065.539-.168.682l-.457.281c.223-.098.493-.014.624.203.141.233.067.537-.164.682l-4.225 2.631 3.71-2.142c.235-.138.533-.06.676.17.142.23.075.532-.151.681l-11.455 7.521 10.931-6.311c.235-.136.534-.06.677.171.142.231.073.533-.154.681l-7.215 4.689 6.692-3.863c.235-.135.53-.062.673.166.144.228.081.527-.141.679l-8.77 6.009 8.237-4.756c.235-.137.534-.06.676.171s.074.531-.151.68l-2.297 1.505 1.772-1.023c.232-.135.529-.06.673.165.144.227.082.526-.139.679l-4.248 2.938 3.714-2.144c.226-.134.521-.064.667.157.146.22.095.516-.116.675l-4.418 3.323 3.867-2.232c.224-.13.511-.066.659.146s.111.502-.087.669l-3.229 2.727 2.657-1.533c.215-.127.495-.07.648.13.152.201.132.483-.048.659l-1.61 1.58.977-.563c.238-.14.545-.057.683.183.139.239.057.545-.183.683l-4.393 2.536c-.216.127-.496.07-.648-.13-.152-.201-.132-.483.048-.659l1.611-1.581-4.105 2.37c-.223.131-.51.066-.659-.146-.148-.212-.111-.502.087-.669l3.229-2.727-6.135 3.541c-.229.133-.521.064-.667-.157-.146-.22-.095-.516.116-.675l4.417-3.322-7.196 4.154c-.232.137-.527.062-.673-.165-.144-.227-.082-.526.139-.679l4.247-2.938-6.551 3.782c-.235.137-.533.061-.676-.171-.142-.23-.074-.531.151-.68l2.301-1.507-4.084 2.357c-.233.137-.529.062-.673-.166s-.081-.527.141-.679l8.771-6.01-11.872 6.854c-.235.137-.534.061-.677-.171-.142-.231-.073-.533.154-.681l7.216-4.69-9.6 5.542c-.236.137-.533.06-.676-.17-.142-.23-.075-.532.151-.681l11.453-7.521-14.499 8.371c-.238.137-.539.058-.679-.176-.141-.233-.067-.537.164-.682l4.22-2.628-6.037 3.485c-.238.137-.54.059-.68-.177s-.065-.539.168-.682l.345-.212-1.854 1.07c-.079.046-.165.067-.25.067z" fill="#f5b977"/><path d="m20.112 17.47c-.167 0-.33-.084-.425-.235-.143-.229-.077-.53.146-.681l.292-.194-.768.442c-.23.135-.527.062-.672-.164-.144-.226-.084-.524.135-.678l4.641-3.26-4.182 2.414c-.23.136-.527.062-.671-.163-.145-.226-.086-.524.133-.679l4.816-3.389-4.278 2.47c-.236.135-.532.06-.675-.168-.143-.229-.077-.53.146-.68l1.523-1.021-.995.574c-.228.135-.523.064-.669-.159-.145-.222-.091-.519.122-.676l6.694-4.93-6.147 3.55c-.229.137-.529.062-.673-.166s-.081-.528.141-.68l1.382-.943-.85.49c-.225.132-.513.066-.661-.148s-.107-.506.095-.671l3.919-3.209-3.353 1.936c-.227.133-.52.064-.666-.155s-.098-.514.112-.674l.481-.369c-.202.075-.437.015-.573-.162-.153-.197-.137-.479.039-.656l1.121-1.14-.515.297c-.174.101-.388.088-.548-.031s-.234-.322-.188-.516l.298-1.265c-.1-.04-.188-.113-.245-.213-.138-.24-.056-.546.184-.684l.502-.289c.175-.098.388-.086.549.032.159.119.233.322.188.516l-.236 1.005 2.701-1.559c.216-.126.492-.072.646.127.153.197.137.479-.039.656l-1.119 1.138 3.339-1.928c.227-.133.52-.064.666.155s.098.514-.112.674l-.446.343 2.037-1.176c.225-.132.513-.065.661.148s.107.506-.095.671l-3.92 3.209 6.993-4.035c.233-.135.529-.062.673.166s.081.528-.141.68l-1.373.938 2.468-1.425c.229-.133.523-.063.669.159.145.222.091.519-.122.676l-6.698 4.932 6.151-3.551c.234-.137.531-.061.675.168.143.229.077.53-.146.68l-1.523 1.021.995-.574c.232-.135.527-.062.671.163.145.226.086.524-.133.679l-4.812 3.385 4.273-2.467c.23-.136.527-.062.672.164.144.226.084.524-.135.678l-4.646 3.264 4.108-2.372c.234-.138.531-.061.675.168.143.229.077.53-.146.681l-.433.289c.204-.07.442.007.57.198.146.219.098.514-.111.674l-3.622 2.779 3.067-1.771c.226-.133.519-.065.665.154.146.218.099.513-.109.674l-1.37 1.061.814-.47c.224-.131.511-.065.659.146.148.212.111.502-.087.669l-.644.544.071-.041c.208-.123.473-.077.631.108.156.184.159.452.008.64l-.609.749c.23-.112.521-.031.653.199.139.239.057.545-.183.683l-2.312 1.335c-.208.121-.473.075-.631-.108-.156-.184-.159-.452-.008-.64l.607-.747-2.591 1.495c-.222.132-.51.067-.659-.146-.148-.212-.111-.502.087-.669l.642-.543-2.351 1.357c-.227.133-.519.065-.665-.154-.146-.218-.099-.513.109-.674l1.369-1.06-3.271 1.888c-.226.133-.519.065-.666-.155-.146-.219-.098-.514.111-.674l3.624-2.781-6.254 3.61c-.079.046-.165.067-.25.067z" fill="#894936"/><path d="m7.356 46.47c-.161 0-.318-.078-.415-.221-.146-.218-.1-.512.107-.674l1.947-1.519-2.695 1.556c-.224.132-.511.066-.66-.146-.148-.212-.109-.503.089-.67l1.735-1.451-1.185.684c-.215.126-.489.071-.644-.125s-.14-.476.034-.654l.973-1.009-.363.209c-.197.115-.446.08-.608-.083-.159-.164-.188-.415-.068-.61l.351-.572c-.124-.033-.235-.114-.304-.233-.139-.239-.057-.545.183-.683l1.161-.67c.196-.115.448-.08.608.084.159.163.188.414.068.609l-.189.311 1.738-1.004c.215-.125.489-.072.644.125.154.196.14.476-.034.654l-.974 1.011 3.101-1.79c.224-.132.512-.066.66.146s.109.503-.089.67l-1.733 1.45 3.927-2.268c.226-.133.517-.064.665.153.146.218.1.512-.107.674l-1.953 1.523 2.395-1.382c.216-.126.492-.072.646.126.152.198.137.479-.038.656l-2.314 2.362 1.707-.985c.214-.126.487-.073.642.122.154.193.143.472-.026.652l-.426.455c.183-.026.391.066.493.246.139.239.057.545-.183.683l-2.632 1.52c-.213.125-.487.074-.642-.122-.154-.193-.143-.472.026-.652l.332-.354-1.956 1.129c-.214.127-.491.072-.646-.126-.152-.197-.137-.478.038-.656l2.315-2.363-5.45 3.146c-.078.046-.165.067-.25.067z" fill="#fff"/><path d="m42.884 59.426c-.165 0-.326-.082-.422-.231-.144-.226-.084-.524.135-.678l6.261-4.394-8.326 4.808c-.235.137-.535.061-.677-.172s-.072-.534.156-.682l1.019-.655-1.878 1.084c-.235.138-.533.06-.676-.171-.142-.23-.074-.531.151-.68l5.285-3.465-6.323 3.65c-.235.137-.534.061-.676-.171-.142-.23-.074-.532.152-.681l6.226-4.061-7.112 4.105c-.235.137-.533.06-.676-.171-.142-.23-.074-.531.151-.68l8.073-5.291-8.919 5.148c-.236.137-.536.061-.677-.172-.142-.232-.072-.534.156-.681l6.61-4.258-7.176 4.143c-.236.135-.532.06-.675-.168-.143-.229-.077-.53.146-.68l11.957-8.015-12.756 7.364c-.236.139-.535.06-.677-.173s-.071-.534.157-.681l6.642-4.25-6.899 3.983c-.236.137-.535.06-.676-.171-.142-.23-.074-.532.152-.681l9.83-6.42-10.115 5.84c-.235.138-.537.06-.678-.174s-.069-.536.161-.682l3.941-2.49-3.904 2.254c-.235.138-.535.06-.678-.173-.141-.232-.07-.535.159-.682l5.688-3.629-5.602 3.234c-.236.136-.532.061-.675-.168s-.077-.53.146-.68l11.262-7.543-11.168 6.447c-.233.137-.53.062-.674-.167-.143-.228-.08-.528.143-.68l11.075-7.523-10.724 6.191c-.235.135-.534.062-.675-.17-.143-.229-.076-.53.148-.68l7.277-4.816-6.652 3.841c-.232.136-.53.062-.674-.167-.143-.229-.079-.529.144-.68l7.232-4.895-6.315 3.646c-.232.135-.528.063-.672-.165-.144-.226-.083-.525.137-.679l6.142-4.266-4.771 2.754c-.234.136-.531.061-.674-.168-.143-.228-.079-.528.144-.679l1.429-.965c-.206.062-.434-.013-.56-.196-.147-.217-.104-.51.101-.673l3.161-2.526c-.131-.029-.249-.112-.321-.237-.139-.239-.057-.545.183-.683l4.677-2.699c.225-.133.515-.065.663.15.147.217.104.51-.101.673l-2.461 1.967 6.287-3.63c.233-.137.53-.061.674.168.143.228.079.528-.144.679l-1.284.868 2.863-1.653c.23-.135.528-.062.672.165.144.226.084.525-.137.679l-6.146 4.269 8.079-4.664c.235-.135.531-.062.674.167s.079.529-.144.68l-7.228 4.892 8.706-5.026c.233-.137.533-.062.675.17.143.229.076.53-.148.68l-7.275 4.814 8.377-4.836c.234-.135.531-.062.674.167.143.228.08.528-.143.68l-11.076 7.523 12.337-7.122c.234-.137.532-.061.675.168s.077.53-.146.68l-11.258 7.541 12.191-7.039c.237-.136.536-.059.678.173.141.232.07.535-.159.682l-5.697 3.634 6.048-3.491c.237-.137.538-.06.678.174.141.233.069.536-.161.682l-3.928 2.481 4.119-2.378c.236-.138.534-.06.676.171s.074.532-.152.681l-9.84 6.427 10.154-5.862c.237-.136.536-.059.677.173.142.232.071.534-.157.681l-6.633 4.244 6.691-3.863c.234-.137.531-.061.675.168.143.229.077.53-.146.68l-11.957 8.015 12.062-6.964c.236-.137.536-.061.677.172.142.232.072.534-.156.681l-6.615 4.262 6.392-3.69c.235-.137.533-.061.676.171.142.23.074.531-.151.68l-8.078 5.295 7.726-4.46c.235-.137.535-.061.676.171.142.23.074.532-.152.681l-6.227 4.062 5.694-3.287c.235-.137.533-.06.676.171.142.23.074.531-.151.68l-5.28 3.461 4.55-2.626c.235-.137.535-.059.677.172.142.232.072.534-.156.682l-1.005.646.173-.1c.229-.135.527-.062.672.164.144.226.084.524-.135.678l-6.264 4.396 4.79-2.766c.225-.133.515-.065.663.15.147.216.104.509-.101.673l-4.952 3.967 1.818-1.05c.238-.14.545-.057.683.183.139.239.057.545-.183.683l-7.514 4.338c-.227.133-.516.064-.663-.15-.147-.216-.104-.509.101-.673l4.951-3.966-8.904 5.141c-.078.046-.165.067-.25.067z" fill="#6bb577"/><g fill="#262626"><path d="m3.843 51.472c8.772.041 17.551-.027 26.326 0 14.531 22.047 43.944-6.16 21.56-21.014 0-8.175 0-16.351 0-24.526.455-4.7-2.102-5.94-6.45-5.403-13.673.03-27.339-.052-41.013 0-5.624.172-3.685 6.862-3.995 10.607v36.286c0 2.227 1.152 3.959 3.572 4.05zm54.429-7.394c-1.894 24.642-36.988 14.374-26.651-7.42 7.064-12.847 26.806-6.898 26.651 7.42zm-38.541-32.983v-9.623h12.538v14.548c-.007.584-.015.486-.516.486-3.824-.012-7.671.018-11.482 0-1.247-.949-.223-3.875-.54-5.412zm-18.002-7.1c.096-2.352 1.685-2.523 3.433-2.523h13.106v13.992c-.21 1.166.577 2.15 1.791 2.03 19.076.373 12.587 1.032 13.672-16.022 23.292-.152 15.103-3.045 16.539 28.286-12.474-5.715-26.762 8.317-20.577 20.771-7.56 0-15.12 0-22.68 0-2.114 0-5.102.406-5.284-2.602-.063-14.629-.025-29.297 0-43.931z"/><path d="m5.931 46.179c2.855.355 5.864.12 8.765.148 1.949.053 2.219-1.725 2.029-3.272-.1-1.201.506-3.262-1.262-3.38-3.227.669-11.219-2.221-10.186 3.318.143 1.047-.446 2.545.655 3.185zm.793-2.829c.113-.98-.252-2.131.177-3.016 2.548-.019 5.095 0 7.643-.007 1.244.03.734 4.387.579 5.319-2.599.065-5.187.018-7.779.028-.857-.15-.62-1.681-.62-2.324z"/><path d="m40.987 49.007-2.323-2.323c-.453-.453-1.825.135-1.328.632l3 3c1.761 1.199 8.318-10.364 10.268-12.11.061-3.847-8.533 9.96-9.617 10.801z"/></g></svg>