<svg id="Icons" height="512" viewBox="0 0 60 60" width="512" xmlns="http://www.w3.org/2000/svg"><path d="m19.324 59.47a.5.5 0 0 1 -.272-.919l4.11-2.674-6.106 3.523a.5.5 0 0 1 -.535-.842l8.871-6.172-11.987 6.92a.5.5 0 0 1 -.532-.846l7.979-5.457-9.718 5.61a.5.5 0 0 1 -.522-.852l2.288-1.475-2.9 1.672a.5.5 0 0 1 -.541-.84l7.684-5.486-8.627 4.98a.5.5 0 0 1 -.529-.847l2.656-1.779-2.843 1.642a.5.5 0 0 1 -.546-.836l5.106-3.741-5.4 3.117a.5.5 0 0 1 -.544-.837l2.95-2.151-3.023 1.745a.5.5 0 0 1 -.541-.839l.688-.493-.575.332a.5.5 0 0 1 -.592-.8l2.661-2.492-2.684 1.553a.5.5 0 0 1 -.624-.765l1.254-1.413-1.057.609a.5.5 0 0 1 -.712-.624l.423-1.018a.513.513 0 0 1 -.3-.233.5.5 0 0 1 .184-.683l.8-.462a.5.5 0 0 1 .712.625l-.33.793 2.456-1.415a.5.5 0 0 1 .624.764l-1.255 1.41 3.774-2.174a.5.5 0 0 1 .592.8l-2.662 2.486 5.7-3.291a.5.5 0 0 1 .541.839l-.691.494 2.312-1.334a.5.5 0 0 1 .544.837l-2.952 2.15 5.176-2.988a.5.5 0 0 1 .545.836l-5.1 3.74 7.928-4.577a.5.5 0 0 1 .528.847l-2.662 1.784 4.552-2.632a.5.5 0 0 1 .542.84l-7.685 5.486 10.965-6.327a.5.5 0 0 1 .521.852l-2.272 1.471 4.029-2.324a.5.5 0 0 1 .532.846l-7.982 5.458 10.92-6.3a.5.5 0 0 1 .535.843l-8.872 6.164 12.153-7.017a.5.5 0 0 1 .523.851l-4.109 2.679 6.111-3.527a.5.5 0 0 1 .537.842l-9.189 6.447 12.628-7.29a.5.5 0 0 1 .534.845l-8.4 5.775 11.205-6.469a.5.5 0 0 1 .532.846l-7.836 5.353 7.66-4.422a.5.5 0 0 1 .535.843l-6.017 4.179 4.886-2.82a.5.5 0 0 1 .549.834l-4.957 3.688 3.388-1.956a.5.5 0 0 1 .584.8l-3.284 2.95.763-.439a.5.5 0 1 1 .5.865l-4.9 2.831a.5.5 0 0 1 -.584-.8l3.283-2.95-6.7 3.862a.5.5 0 0 1 -.549-.834l4.957-3.688-7.836 4.522a.5.5 0 0 1 -.535-.843l6.02-4.18-8.7 5.023a.5.5 0 0 1 -.532-.845l7.838-5.355-10.738 6.2a.5.5 0 0 1 -.533-.844l8.4-5.777-11.471 6.621a.5.5 0 0 1 -.537-.841l9.188-6.446-12.626 7.287a.5.5 0 0 1 -.25.07z" fill="#ce326b"/><path d="m26.6 22.48a.5.5 0 0 1 -.363-.844l1-1.047-2.95 1.7a.5.5 0 0 1 -.583-.806l2.31-2.057-1.727 1a.5.5 0 0 1 -.578-.811l2.017-1.751-1.439.83a.5.5 0 0 1 -.565-.82l1.049-.852-.484.279a.5.5 0 0 1 -.617-.772l1.326-1.436-.709.409a.5.5 0 0 1 -.735-.553l.289-1.17a.485.485 0 0 1 -.236-.21.5.5 0 0 1 .182-.682l.5-.291a.5.5 0 0 1 .736.552l-.223.9 2.545-1.469a.5.5 0 0 1 .617.772l-1.327 1.436 3.087-1.787a.5.5 0 0 1 .565.82l-1.049.852.489-.281a.5.5 0 0 1 .578.81l-2.017 1.751 1.443-.833a.5.5 0 0 1 .583.806l-2.314 2.063 1.735-1a.5.5 0 0 1 .613.778l-1 1.047.39-.225a.5.5 0 0 1 .553.034.5.5 0 0 1 .182.524l-.273 1.064a.5.5 0 0 1 .047.89l-.506.292a.5.5 0 0 1 -.734-.558l.2-.786-2.366 1.365a.489.489 0 0 1 -.241.067z" fill="#d3d6dd"/><path d="m30.3 11.5a.5.5 0 0 1 -.355-.853l1.316-1.317-.981.57a.5.5 0 0 1 -.739-.535l.324-1.571a.49.49 0 0 1 -.267-.222.5.5 0 0 1 .182-.682l.5-.291a.5.5 0 0 1 .739.534l-.277 1.344 3.28-1.894a.5.5 0 0 1 .6.785l-1.302 1.312 3.4-1.963a.5.5 0 0 1 .594.8l-.984.934.4-.231a.5.5 0 0 1 .7.639l-.455 1a.54.54 0 0 1 .446.25.5.5 0 0 1 -.183.683l-1.069.617a.5.5 0 0 1 -.705-.639l.412-.909-2.7 1.561a.5.5 0 0 1 -.595-.795l.982-.933-3.012 1.74a.489.489 0 0 1 -.251.066z" fill="#d3d6dd"/><path d="m48.521 17.394a.5.5 0 0 1 -.312-.891l1.932-1.543-3.974 2.294a.5.5 0 0 1 -.563-.822l5.011-4.032-7.271 4.2a.5.5 0 0 1 -.542-.839l4.539-3.266-5.851 3.371a.5.5 0 0 1 -.548-.834l6.828-5.074-8.345 4.817a.5.5 0 0 1 -.531-.846l3.779-2.567-4.5 2.6a.5.5 0 0 1 -.534-.844l5.083-3.51-5.812 3.354a.5.5 0 0 1 -.538-.841l6.083-4.3-6.175 3.567a.5.5 0 0 1 -.545-.837l5.865-4.28-5.32 3.071a.5.5 0 0 1 -.553-.83l3.989-3.045-3.436 1.983a.5.5 0 0 1 -.556-.827l1.12-.871a.5.5 0 0 1 -.2-.93l5.456-3.151a.5.5 0 0 1 .556.827l-.57.443 3.868-2.23a.5.5 0 0 1 .554.83l-3.988 3.044 6.674-3.854a.5.5 0 0 1 .545.837l-5.865 4.281 7.543-4.355a.5.5 0 0 1 .538.841l-6.084 4.3 7.088-4.092a.5.5 0 0 1 .534.844l-5.084 3.513 5.615-3.242a.5.5 0 0 1 .532.847l-3.776 2.559 3.976-2.294a.5.5 0 0 1 .544.83l-6.825 5.08 7-4.043a.5.5 0 0 1 .669.161.5.5 0 0 1 -.127.678l-4.534 3.264 4.232-2.44a.5.5 0 0 1 .563.822l-5.012 4.037 4.134-2.387a.5.5 0 0 1 .561.824l-1.932 1.543.3-.174a.5.5 0 1 1 .5.865l-6.055 3.5a.5.5 0 0 1 -.253.064z" fill="#ce326b"/><path d="m26.266 14.47a.5.5 0 0 1 -.347-.861l1.759-1.7-3.991 2.3a.5.5 0 0 1 -.566-.82l2.759-2.256-2.6 1.5a.5.5 0 0 1 -.574-.814l3.753-3.193-3.179 1.845a.5.5 0 0 1 -.564-.822l2.373-1.919-1.809 1.044a.5.5 0 0 1 -.6-.786l1.62-1.625-1.022.59a.5.5 0 0 1 -.7-.651l.537-1.1a.5.5 0 0 1 -.285-.931l1.161-.67a.5.5 0 0 1 .7.651l-.5 1.022 2.9-1.673a.5.5 0 0 1 .6.786l-1.619 1.621 4.044-2.334a.5.5 0 0 1 .565.821l-2.372 1.918 2.411-1.392a.5.5 0 0 1 .574.814l-3.753 3.193 3.179-1.835a.5.5 0 0 1 .566.82l-2.76 2.257 2.194-1.27a.5.5 0 0 1 .6.793l-1.758 1.7 1.162-.671a.5.5 0 0 1 .707.637l-.6 1.351a.5.5 0 0 1 .344.923l-1.16.67a.5.5 0 0 1 -.706-.636l.584-1.308-3.377 1.941a.493.493 0 0 1 -.25.07z" fill="#bac0cc"/><path d="m8.533 36.484a.5.5 0 0 1 -.28-.914l11.277-7.624-13.607 7.854a.5.5 0 0 1 -.53-.847l11.159-7.571-9.773 5.643a.5.5 0 0 1 -.539-.839l8.722-6.193-5.869 3.388a.5.5 0 0 1 -.551-.832l4.072-3.066a.5.5 0 0 1 -.128-.918l5.807-3.352a.5.5 0 0 1 .551.832l-3.144 2.369 7.988-4.614a.5.5 0 0 1 .54.84l-8.72 6.19 12.476-7.2a.5.5 0 0 1 .531.847l-11.159 7.57 13.885-8.017a.5.5 0 0 1 .53.847l-11.271 7.623 13.441-7.76a.5.5 0 0 1 .53.847l-10.357 7.013 12.086-6.973a.5.5 0 0 1 .523.852l-5.423 3.521 6.344-3.662a.5.5 0 0 1 .526.849l-6.699 4.453 7.654-4.419a.5.5 0 0 1 .524.85l-4.017 2.629 4.652-2.685a.5.5 0 0 1 .525.85l-2.8 1.837 3.291-1.9a.5.5 0 0 1 .522.851l-.879.573 1.2-.7a.5.5 0 0 1 .534.844l-4.273 2.948 4.8-2.768a.5.5 0 0 1 .549.833l-5.207 3.882 5.862-3.384a.5.5 0 0 1 .56.825l-4.251 3.348 4.777-2.758a.5.5 0 0 1 .571.815l-3.059 2.569 3.414-1.97a.5.5 0 0 1 .605.784l-2.155 2.183 2.424-1.4a.5.5 0 0 1 .625.763l-.85.965.81-.467a.5.5 0 0 1 .674.7l-.19.3a.5.5 0 0 1 .595.224.5.5 0 0 1 -.183.682l-1.645.951a.5.5 0 0 1 -.674-.7l.18-.286-1.706.984a.5.5 0 0 1 -.625-.762l.848-.965-3 1.729a.5.5 0 0 1 -.6-.784l2.155-2.183-5.141 2.968a.5.5 0 0 1 -.571-.815l3.06-2.57-5.866 3.386a.5.5 0 0 1 -.559-.825l4.25-3.347-7.229 4.173a.5.5 0 0 1 -.548-.833l5.2-3.881-8.164 4.726a.5.5 0 0 1 -.535-.844l4.28-2.953-6.579 3.8a.5.5 0 0 1 -.523-.851l.868-.566-2.457 1.418a.5.5 0 0 1 -.524-.85l2.8-1.834-4.652 2.685a.5.5 0 0 1 -.524-.85l4.033-2.644-6.053 3.494a.5.5 0 0 1 -.526-.849l6.692-4.45-9.182 5.3a.5.5 0 0 1 -.523-.852l5.416-3.517-7.569 4.37a.5.5 0 0 1 -.53-.847l10.348-7.016-13.617 7.863a.494.494 0 0 1 -.25.067z" fill="#ce326b"/><path d="m6.74 47.494a.5.5 0 0 1 -.281-.913l6.328-4.3-8.22 4.745a.5.5 0 0 1 -.525-.849l3.735-2.47-3.385 1.954a.5.5 0 0 1 -.538-.842l5.225-3.661-4.788 2.764a.5.5 0 0 1 -.544-.837l3.893-2.824-3.325 1.919a.5.5 0 0 1 -.536-.843l.461-.322a.491.491 0 0 1 -.471-.191.5.5 0 0 1 .044-.658l2.8-2.789-1.769 1.023a.5.5 0 0 1 -.7-.643l.91-1.955a.492.492 0 0 1 -.147-.16.5.5 0 0 1 .183-.683l.625-.361a.5.5 0 0 1 .7.643l-.7 1.5 3.72-2.141a.5.5 0 0 1 .6.787l-2.8 2.788 6.2-3.577a.5.5 0 0 1 .671.164.5.5 0 0 1 -.135.679l-.13.09 1.619-.934a.5.5 0 0 1 .54.833l-3.89 2.821 6.341-3.66a.5.5 0 0 1 .537.842l-5.226 3.667 7.807-4.508a.5.5 0 0 1 .526.849l-3.735 2.47 5.751-3.32a.5.5 0 0 1 .532.846l-6.33 4.3 8.918-5.148a.5.5 0 0 1 .54.84l-8.3 5.92 11.711-6.762a.5.5 0 0 1 .535.843l-7.451 5.181 10.434-6.027a.5.5 0 0 1 .533.845l-6.933 4.771 9.73-5.617a.5.5 0 0 1 .523.852l-2.659 1.73 4.474-2.583a.5.5 0 0 1 .524.852l-3.024 1.972 4.9-2.825a.5.5 0 0 1 .534.845l-7.057 4.862 9.889-5.709a.5.5 0 0 1 .526.85l-4.675 3.1 6.405-3.7a.5.5 0 0 1 .537.842l-7.356 5.15 7.371-4.254a.5.5 0 0 1 .543.838l-5.936 4.3 5.793-3.344a.5.5 0 0 1 .563.823l-5.087 4.08 4.812-2.779a.5.5 0 0 1 .567.819l-2.697 2.22 2.222-1.282a.5.5 0 0 1 .582.807l-1.161 1.03.546-.314a.5.5 0 0 1 .729.573l-.537 1.84a.5.5 0 0 1 .065.9l-.568.328a.5.5 0 0 1 -.729-.573l.459-1.576-3.727 2.151a.5.5 0 0 1 -.581-.808l1.161-1.032-3.185 1.839a.5.5 0 0 1 -.568-.818l2.691-2.216-5.26 3.036a.5.5 0 0 1 -.563-.822l5.087-4.08-8.5 4.9a.5.5 0 0 1 -.543-.838l5.936-4.3-8.9 5.14a.5.5 0 0 1 -.537-.842l7.352-5.148-10.384 5.996a.5.5 0 0 1 -.526-.85l4.676-3.1-6.849 3.954a.5.5 0 0 1 -.534-.845l7.056-4.862-9.889 5.709a.5.5 0 0 1 -.521-.855l3.023-1.972-4.894 2.825a.5.5 0 0 1 -.523-.852l2.655-1.727-4.471 2.581a.5.5 0 0 1 -.533-.845l6.943-4.776-9.733 5.619a.5.5 0 0 1 -.535-.843l7.444-5.176-10.434 6.025a.5.5 0 0 1 -.54-.84l8.305-5.922-11.717 6.764a.494.494 0 0 1 -.25.067z" fill="#b52862"/><path d="m23.276 19.886c-17.5 1.653-28.129 28.26-12.534 38.9 7.822 1.614 16.115.242 24.1.674 25.351 2.005 17.78-38.23-4.116-39.666v-5.575c1.161-.458 1.02-1.712 1-2.737h3.609c4.193 7.461 19.976 8.558 21.348-1.782.7-12.041-16.419-10.749-21.328-3.178h-3.623c.031-.909.211-2.257-.654-2.745-2.388 0-7.858-1.483-8.8 1.351.549 2.8-1.263 7.3 1 9.209zm-18.297 19.635a21.984 21.984 0 0 1 .986-3.969h41.964a22.22 22.22 0 0 1 1.05 11.126h-43.904a22.788 22.788 0 0 1 -.096-7.157zm38.321 18.107c-8.35 2.223-17.595.3-26.242.91-6.884 1.127-11.019-5.081-11.858-11.216h43.666c-.796 3.7-2.166 8.208-5.566 10.306zm4.2-23.18h-41.119c6.608-18.403 34.419-18.048 41.119 0zm-18.771-14.865a23.653 23.653 0 0 0 -4 .1v-5.25h4.552v5.208c-.189-.015-.368-.047-.552-.058zm8.631-14.183c11.815-11.437 26.849 4.585 11.815 11.086-6.148.935-15.67-3.995-11.815-11.086zm-2.242 2.082h.14c.046 1.022-.047 1.989-.028 3.036h-3.5v-3.036zm-11.3-2.959a.287.287 0 0 1 .04-.09c9.039-.428 6.134.108 6.27 9.128-4.362-.379-7.215 1.886-6.4-4.167 2.478.2 2.56-1.129 0-.788a29.36 29.36 0 0 1 .086-4.083z" fill="#262626"/></svg>