<svg id="Icons" height="512" viewBox="0 0 60 60" width="512" xmlns="http://www.w3.org/2000/svg"><g fill="#575d7a"><path d="m34.551 46.81a.5.5 0 0 1 -.25-.933l7.317-4.225a.5.5 0 0 1 .5.866l-7.318 4.224a.5.5 0 0 1 -.249.068z"/><path d="m45.348 54.7a.5.5 0 0 1 -.379-.826l.661-.766-1.054.608a.5.5 0 0 1 -.618-.771l.7-.765-.93.536a.5.5 0 0 1 -.5-.865l3.748-2.164a.5.5 0 0 1 .618.77l-.7.767.794-.458a.5.5 0 0 1 .629.759l-.661.766.05-.028a.5.5 0 1 1 .5.865l-2.607 1.5a.489.489 0 0 1 -.251.072z"/><path d="m50.891 48.256a.5.5 0 0 1 -.354-.854l.259-.258-.691.4a.5.5 0 0 1 -.5-.865l3.992-2.3a.5.5 0 0 1 .6.786l-.259.259a.5.5 0 0 1 .481.876l-3.281 1.894a.493.493 0 0 1 -.247.062z"/><path d="m36.913 58.081a.5.5 0 0 1 -.307-.9l4.283-3.322-4.44 2.564a.5.5 0 0 1 -.538-.841l7.814-5.513-10.663 6.161a.5.5 0 0 1 -.5-.865l20.202-11.665a.5.5 0 0 1 .538.841l-7.815 5.513 1.258-.726a.5.5 0 0 1 .557.828l-6.484 5.028a.481.481 0 0 1 .075.1.5.5 0 0 1 -.183.683l-3.547 2.048a.491.491 0 0 1 -.25.066z"/><path d="m56.076 41.1a.5.5 0 0 1 -.412-.784l.444-.647-1.6.925a.5.5 0 1 1 -.5-.865l3.514-2.03a.5.5 0 0 1 .662.716l-.767 1.117a.5.5 0 0 1 0 .868l-1.094.632a.49.49 0 0 1 -.247.068z"/><path d="m43.194 46.912a.5.5 0 0 1 -.284-.912l3.89-2.686-.633.366a.5.5 0 0 1 -.556-.828l3.521-2.721-4 2.311a.5.5 0 0 1 -.546-.836l3.291-2.41-4.031 2.327a.5.5 0 1 1 -.5-.865l12-6.929a.5.5 0 0 1 .546.835l-3.292 2.411 2.478-1.431a.5.5 0 0 1 .556.828l-3.524 2.721 4.877-2.816a.5.5 0 0 1 .534.844l-3.913 2.7a.5.5 0 0 1 .454.89l-10.618 6.134a.494.494 0 0 1 -.25.067z"/><path d="m30.761 59.43a.5.5 0 0 1 -.45-.717l.664-1.379-2.644 1.526a.5.5 0 0 1 -.524-.85l10.571-6.956-10.269 5.928a.5.5 0 0 1 -.562-.823l2.722-2.178-3.677 2.119a.5.5 0 0 1 -.558-.828l1.314-1.024-2.675 1.552a.5.5 0 1 1 -.5-.865l8.9-5.138a.5.5 0 0 1 .558.827l-1.316 1.026 3.166-1.827a.5.5 0 0 1 .562.824l-2.723 2.172 19.4-11.2a.5.5 0 0 1 .524.851l-20.617 13.565a.5.5 0 0 1 -.047.272l-.68 1.417a.506.506 0 0 1 .54.238.5.5 0 0 1 -.183.683l-1.243.717a.5.5 0 0 1 -.253.068z"/><path d="m56.415 32.65a.5.5 0 0 1 -.25-.932l2.516-1.452a.5.5 0 0 1 .5.865l-2.516 1.452a.494.494 0 0 1 -.25.067z"/><path d="m50.162 36.546a.5.5 0 0 1 -.321-.883l4.352-3.651-3.159 1.824a.5.5 0 0 1 -.555-.828l1.137-.878-.4.229a.5.5 0 0 1 -.609-.781l2.282-2.342-1.588.916a.5.5 0 0 1 -.588-.8l1.136-1.041-.621.357a.5.5 0 0 1 -.565-.821l1.957-1.587-1.566.9a.5.5 0 0 1 -.564-.822l1.757-1.416-1.465.845a.5.5 0 0 1 -.566-.819l1.845-1.511-1.649.952a.5.5 0 0 1 -.626-.763l1.7-1.938-2.858 1.651a.5.5 0 1 1 -.5-.865l5.482-3.165a.5.5 0 0 1 .626.762l-1.7 1.938 4.345-2.508a.5.5 0 0 1 .566.819l-1.843 1.509 1.732-1a.5.5 0 0 1 .563.822l-1.755 1.415 1.453-.839a.5.5 0 0 1 .565.822l-2.523 2.051a.5.5 0 0 1 .319.2.5.5 0 0 1 -.065.664l-1.137 1.036.764-.441a.5.5 0 0 1 .608.782l-2.281 2.342 3.741-2.16a.5.5 0 0 1 .556.828l-1.137.877 1.643-.948a.5.5 0 0 1 .572.816l-4.356 3.653.657-.379a.5.5 0 1 1 .5.865l-5.611 3.24a.5.5 0 0 1 -.25.071z"/><path d="m44.5 7.036a.5.5 0 0 1 -.25-.932l1.269-.733a.5.5 0 0 1 .5.865l-1.269.733a.494.494 0 0 1 -.25.067z"/><path d="m45.875 16.791a.5.5 0 0 1 -.372-.834l1.24-1.378-1.629.94a.5.5 0 0 1 -.636-.75l1.36-1.66-2.062 1.191a.5.5 0 0 1 -.613-.776l1.373-1.455-2.085 1.2a.5.5 0 0 1 -.568-.818l1.419-1.17-2.063 1.191a.5.5 0 0 1 -.551-.832l.046-.035-.5.289a.5.5 0 0 1 -.65-.732l1.509-2.011-3.012 1.739a.5.5 0 0 1 -.595-.795l.781-.743-1.719.992a.5.5 0 0 1 -.6-.787l1.093-1.084-2.389 1.378a.5.5 0 0 1 -.5-.866l5.721-3.3a.5.5 0 0 1 .6.787l-1.089 1.083 2.016-1.161a.5.5 0 0 1 .594.794l-.779.742 1.5-.864a.5.5 0 0 1 .65.733l-1.515 2.011 5.528-3.192a.5.5 0 0 1 .551.832l-.047.035.126-.072a.5.5 0 0 1 .568.818l-1.476 1.218a.5.5 0 0 1 .509.822l-1.372 1.455 1.48-.855a.5.5 0 0 1 .637.75l-1.362 1.66 1.982-1.143a.5.5 0 0 1 .622.766l-1.24 1.377 4.255-2.456a.5.5 0 1 1 .5.865l-6.985 4.034a.489.489 0 0 1 -.251.067z"/><path d="m37.217 37.492a.5.5 0 0 1 -.286-.91l1.669-1.164a.49.49 0 0 1 -.258-.188.5.5 0 0 1 .082-.667l4.006-3.442-2.336 1.349a.5.5 0 0 1 -.584-.8l3.063-2.75-2.273 1.307a.5.5 0 0 1 -.585-.8l2.57-2.327-2.2 1.267a.5.5 0 0 1 -.538-.841l4.408-3.11-4.295 2.484a.5.5 0 0 1 -.535-.843l3.324-2.307-3.343 1.93a.5.5 0 0 1 -.534-.844l5.09-3.511-5.362 3.092a.5.5 0 0 1 -.531-.846l4.424-3.01-4.819 2.782a.5.5 0 0 1 -.6-.786l2.185-2.186-3.05 1.759a.5.5 0 0 1 -.576-.812l1.3-1.119-2.033 1.173a.5.5 0 0 1 -.6-.791l2.24-2.177-3.828 2.21a.5.5 0 0 1 -.561-.824l.92-.732-2.293 1.324a.5.5 0 0 1 -.556-.828l.992-.767-3.434 1.983a.5.5 0 0 1 -.5-.866l9.878-5.7a.5.5 0 0 1 .556.828l-.992.767 1.678-.969a.5.5 0 0 1 .561.824l-.922.733 1.489-.859a.5.5 0 0 1 .6.791l-2.246 2.181 3.155-1.821a.5.5 0 0 1 .576.811l-1.3 1.12 1.728-1a.5.5 0 0 1 .6.787l-2.18 2.183 13.264-7.657a.5.5 0 0 1 .531.846l-4.43 3.014 4.418-2.551a.5.5 0 0 1 .535.844l-5.089 3.511 2.977-1.719a.5.5 0 0 1 .535.844l-3.323 2.306 3.409-1.968a.5.5 0 0 1 .538.841l-7.113 5.018a.527.527 0 0 1 .107.109.5.5 0 0 1 -.07.665l-2.569 2.323 2.345-1.354a.5.5 0 0 1 .584.8l-3.064 2.749 2.824-1.63a.5.5 0 0 1 .576.812l-4.006 3.447 3.544-2.046a.5.5 0 0 1 .536.843l-.425.3a.5.5 0 0 1 .329.927l-9.657 5.575a.494.494 0 0 1 -.25.063z"/><path d="m26.981 49.76a.5.5 0 0 1 -.268-.922l.561-.357a.5.5 0 0 1 -.366-.911l2.047-1.321-1.787 1.031a.5.5 0 0 1 -.523-.851l4.073-2.657-5.107 2.949a.5.5 0 0 1 -.52-.853l4.073-2.624-5.1 2.946a.5.5 0 0 1 -.556-.828l1.623-1.255-2.507 1.447a.5.5 0 0 1 -.584-.8l2.26-2.037-3.3 1.9a.5.5 0 0 1 -.587-.8l1.956-1.779-2.739 1.582a.5.5 0 0 1 -.564-.822l.529-.425-.847.488a.5.5 0 0 1 -.612-.777l2.364-2.484-3.328 1.921a.5.5 0 0 1 -.5-.866l6.322-3.655a.5.5 0 0 1 .612.777l-2.363 2.487 3.47-2a.5.5 0 0 1 .563.822l-.529.426 1.141-.658a.5.5 0 0 1 .587.8l-1.957 1.781 3.425-1.978a.5.5 0 0 1 .584.8l-2.262 2.043 4.781-2.76a.5.5 0 0 1 .556.828l-1.623 1.254 16.521-9.538a.5.5 0 0 1 .521.853l-4.081 2.625 3.239-1.87a.5.5 0 0 1 .523.852l-4.082 2.661 3.263-1.883a.5.5 0 0 1 .521.853l-2.027 1.308 2.36-1.362a.5.5 0 0 1 .518.855l-.012.007.694-.4a.5.5 0 1 1 .5.865l-21.206 12.244a.5.5 0 0 1 -.25.068z"/><path d="m22.191 58.365a.5.5 0 0 1 -.295-.9l3.334-2.429-4.643 2.681a.5.5 0 0 1 -.552-.831l6.016-4.547-6.271 3.62a.5.5 0 0 1 -.572-.815l1.58-1.33-.783.452a.5.5 0 0 1 -.575-.813l.153-.132-.724.418a.5.5 0 0 1 -.632-.754l1.44-1.719-2.65 1.529a.5.5 0 1 1 -.5-.865l5.1-2.944a.5.5 0 0 1 .633.754l-1.44 1.715 2.961-1.709a.5.5 0 0 1 .575.813l-.153.129 1-.576a.5.5 0 0 1 .573.816l-1.582 1.331 8.367-4.83a.5.5 0 0 1 .552.831l-6.014 4.546 5.8-3.35a.5.5 0 0 1 .545.837l-9.65 7.03a.5.5 0 0 1 -.241.339l-1.1.636a.494.494 0 0 1 -.252.067z"/><path d="m13.876 36.23a.5.5 0 0 1 -.334-.872l2.52-2.265-2.275 1.313a.5.5 0 0 1 -.583-.8l2.969-2.651-2.734 1.578a.5.5 0 0 1 -.575-.812l3.824-3.278-3.376 1.95a.5.5 0 0 1 -.543-.838l1.989-1.436-1.372.792a.5.5 0 0 1 -.52-.853l4.266-2.733-3.541 2.044a.5.5 0 0 1 -.52-.853l2.829-1.822-1.939 1.119a.5.5 0 0 1 -.535-.842l9.359-6.512-9.441 5.451a.5.5 0 0 1 -.528-.848l6.918-4.6-8.234 4.752a.5.5 0 1 1 -.5-.865l21.878-12.633a.5.5 0 0 1 .527.848l-6.921 4.605 6.074-3.506a.5.5 0 0 1 .535.843l-9.357 6.511 10.154-5.863a.5.5 0 0 1 .519.854l-2.846 1.826 3.856-2.226a.5.5 0 0 1 .519.854l-12.5 8 .014.019a.5.5 0 0 1 -.127.677l-2.285 1.656a.484.484 0 0 1 .476.207.5.5 0 0 1 -.083.668l-3.824 3.277 2.271-1.311a.5.5 0 0 1 .583.806l-2.971 2.651 2.208-1.274a.5.5 0 0 1 .584.8l-2.52 2.265 2.153-1.243a.5.5 0 1 1 .5.865l-6.292 3.633a.489.489 0 0 1 -.249.072z"/><path d="m13.466 54.253a.5.5 0 0 1 -.345-.862l2.83-2.69-3.836 2.214a.5.5 0 0 1 -.571-.815l1.772-1.488-.591.342a.5.5 0 0 1 -.616-.774l1.76-1.881-1.531.884a.5.5 0 0 1 -.617-.773l1.079-1.162-1.515.874a.5.5 0 0 1 -.592-.8l.4-.376-3.015 1.74a.5.5 0 0 1 -.565-.82l1.413-1.149-1.838 1.06a.5.5 0 0 1 -.531-.846l4.3-2.918-4.573 2.64a.5.5 0 0 1 -.522-.851l.291-.19a.5.5 0 0 1 -.471-.873l7.158-5.18-5.369 3.1a.5.5 0 0 1 -.54-.84l4.669-3.319-4.825 2.78a.5.5 0 0 1 -.608-.782l1.276-1.307-3.2 1.848a.5.5 0 0 1 -.583-.806l2.133-1.9-2.779 1.6a.5.5 0 0 1 -.581-.807l2.884-2.553-2.837 1.64a.5.5 0 0 1 -.58-.813l2.952-2.561-.053.03a.5.5 0 0 1 -.6-.791l1.623-1.578-1.271.733a.5.5 0 0 1 -.611-.778l2.43-2.533-4.307 2.489a.5.5 0 0 1 -.575-.811l3.682-3.162-3.758 2.169a.5.5 0 0 1 -.6-.076.5.5 0 0 1 -.087-.6l.447-.808a.5.5 0 0 1 -.206-.931l1.18-.68a.5.5 0 0 1 .687.674l-.361.654 6.85-3.955a.5.5 0 0 1 .578.815l-3.688 3.161 2.7-1.557a.5.5 0 0 1 .611.778l-2.43 2.533 1.7-.98a.5.5 0 0 1 .6.791l-1.622 1.574 1.1-.636a.5.5 0 0 1 .579.811l-2.95 2.562 2.617-1.509a.5.5 0 0 1 .581.806l-2.889 2.556 2.7-1.561a.5.5 0 0 1 .583.806l-2.135 1.9 2.123-1.224a.5.5 0 0 1 .608.782l-1.273 1.307 10.785-6.223a.5.5 0 0 1 .54.84l-4.662 3.318 4.674-2.7a.5.5 0 0 1 .543.838l-7.159 5.181 7.583-4.377a.5.5 0 0 1 .523.851l-.183.119.309-.178a.5.5 0 0 1 .531.847l-8.356 5.671a.5.5 0 0 1 -.027.752l-1.416 1.149 1.343-.774a.5.5 0 0 1 .591.8l-.4.378.616-.356a.5.5 0 0 1 .618.773l-1.075 1.161 1.589-.917a.5.5 0 0 1 .615.774l-1.759 1.881 2.636-1.522a.5.5 0 0 1 .572.815l-1.775 1.489 2.529-1.46a.5.5 0 0 1 .594.8l-2.83 2.69 4.236-2.454a.5.5 0 1 1 .5.865l-7.888 4.555a.5.5 0 0 1 -.246.067z"/><path d="m36.108 4.831a.5.5 0 0 1 -.377-.171.5.5 0 0 1 -.018-.635l.674-.871a.5.5 0 0 1 .07-.816l1.1-.636a.5.5 0 0 1 .645.738l-.144.187.872-.5a.5.5 0 0 1 .5.865l-3.072 1.772a.489.489 0 0 1 -.25.067z"/><path d="m27.158 12.371a.5.5 0 0 1 -.3-.9l5.332-3.945-5.1 2.945a.5.5 0 0 1 -.59-.8l2.976-2.759-6.562 3.788a.5.5 0 1 1 -.5-.865l10.414-6.012a.5.5 0 0 1 .59.8l-2.977 2.759 8.881-5.127a.5.5 0 0 1 .548.835l-5.331 3.942 5.761-3.325a.5.5 0 0 1 .5.865l-13.392 7.728a.491.491 0 0 1 -.25.071z"/><path d="m19.169 17.481a.5.5 0 0 1 -.25-.932l4.955-2.861a.5.5 0 1 1 .5.866l-4.955 2.86a.494.494 0 0 1 -.25.067z"/><path d="m4.193 28a.5.5 0 0 1 -.282-.913l1.545-1.054-.836.483a.5.5 0 0 1 -.555-.829l4.652-3.58-3.96 2.287a.5.5 0 0 1 -.541-.839l1.418-1.018-2.282 1.316a.5.5 0 0 1 -.637-.75l1.148-1.4-1.463.841a.5.5 0 0 1 -.669-.706l.883-1.353a.491.491 0 0 1 -.221-.2.5.5 0 0 1 .187-.685l1.094-.632a.5.5 0 0 1 .669.706l-.626.958 2.021-1.166a.5.5 0 0 1 .637.75l-1.147 1.4 8.68-5.011a.5.5 0 0 1 .541.839l-1.415 1.016 1.724-1a.5.5 0 0 1 .554.829l-4.653 3.58 5.83-3.365a.5.5 0 0 1 .532.846l-6.865 4.682.009.015a.5.5 0 0 1 -.183.682l-5.539 3.2a.494.494 0 0 1 -.25.071z"/><path d="m27.9 3.736a.5.5 0 0 1 -.433-.749l.443-.77a.5.5 0 0 1 -.148-.922l1.138-.655a.5.5 0 0 1 .684.681l-.317.551 1.973-1.139a.5.5 0 1 1 .5.866l-3.586 2.07a.489.489 0 0 1 -.254.067z"/><path d="m6.348 19.863a.5.5 0 0 1 -.27-.921l7.152-4.574-5.525 3.191a.5.5 0 0 1 -.533-.845l8.1-5.573-8.411 4.859a.5.5 0 0 1 -.635-.75l.9-1.094-1.092.63a.5.5 0 0 1 -.615-.773l1.167-1.252a.327.327 0 0 1 -.032-.05.5.5 0 0 1 .182-.683l1.223-.706a.5.5 0 0 1 .615.774l-.138.149.579-.334a.5.5 0 0 1 .635.75l-.9 1.1 16.971-9.8a.5.5 0 0 1 .533.845l-8.1 5.572 13.7-7.906a.5.5 0 0 1 .519.853l-13.322 8.51a.5.5 0 0 1 -.074.813l-12.377 7.152a.494.494 0 0 1 -.252.063z"/><path d="m19.776 5.849a.5.5 0 0 1 -.452-.714l.686-1.451-.343.2a.5.5 0 1 1 -.5-.865l1.728-1a.5.5 0 0 1 .7.646l-.686 1.452 2.317-1.337a.5.5 0 0 1 .5.866l-3.7 2.135a.5.5 0 0 1 -.25.068z"/><path d="m12.962 10.673a.5.5 0 0 1 -.37-.836l.767-.847-.877.506a.5.5 0 0 1 -.651-.73l.981-1.323-.518.3a.5.5 0 1 1 -.5-.865l2.606-1.507a.5.5 0 0 1 .652.731l-.982 1.322 1.554-.9a.5.5 0 0 1 .62.769l-.767.847 8.044-4.64a.5.5 0 0 1 .5.865l-10.809 6.24a.49.49 0 0 1 -.25.068z"/></g><path d="m35.013 35.466a.5.5 0 0 1 -.3-.9l1.62-1.236a.5.5 0 0 1 -.2-.866l1.093-.924h-.007a.5.5 0 0 1 -.57-.817l.407-.337a.5.5 0 0 1 -.352-.855l1.4-1.392-1.009.582a.5.5 0 0 1 -.6-.794l.828-.793-.653.377a.5.5 0 0 1 -.62-.769l1.292-1.422-1.474.851a.5.5 0 0 1 -.589-.8l.292-.27-.428.247a.5.5 0 0 1 -.624-.1.5.5 0 0 1 -.029-.63l1.495-2.018-2.606 1.505a.5.5 0 0 1 -.579-.805l.16-.143-.814.47a.5.5 0 0 1 -.637-.749l1.516-1.853-4.406 2.542a.5.5 0 0 1 -.5-.865l6.774-3.91a.5.5 0 0 1 .636.749l-1.518 1.859 2.676-1.544a.5.5 0 0 1 .584.8l-.16.142.452-.261a.5.5 0 0 1 .653.73l-1.493 2.02 2.249-1.3a.5.5 0 0 1 .589.8l-.291.269.349-.2a.5.5 0 0 1 .62.769l-1.292 1.422 1.468-.847a.5.5 0 0 1 .6.794l-.827.792.739-.427a.5.5 0 0 1 .6.787l-1.4 1.392 1.24-.716a.5.5 0 0 1 .57.818l-.217.179a.5.5 0 0 1 .423.872l-1.094.925.631-.364a.5.5 0 0 1 .553.83l-.728.556.14-.08a.5.5 0 0 1 .5.865l-6.882 3.977a.493.493 0 0 1 -.25.066z" fill="#7984ad"/><path d="m31.71 42.316a.5.5 0 0 1 -.315-.887l4.629-3.763-7.835 4.523a.5.5 0 0 1 -.543-.836l6.272-4.57-8.161 4.711a.5.5 0 0 1 -.642-.743l1.63-2.052-3.007 1.736a.5.5 0 0 1 -.621-.768l1.215-1.346-1.925 1.112a.5.5 0 0 1 -.647-.737l1.458-1.906-2.165 1.25a.5.5 0 0 1 -.636-.751l1.443-1.747-1.832 1.058a.5.5 0 0 1 -.631-.757l1.6-1.88-1.783 1.029a.5.5 0 0 1 -.592-.8l.868-.815-.7.4a.5.5 0 0 1 -.577-.81l.436-.378-.127.073a.5.5 0 0 1 -.568-.818l.315-.259a.5.5 0 0 1 -.474-.86l1.705-1.425-1.178.68a.5.5 0 0 1 -.539-.841l6.7-4.756-5.878 3.393a.5.5 0 0 1 -.553-.83l5.969-4.562-4.351 2.516a.5.5 0 0 1 -.573-.814l2.942-2.493a.5.5 0 0 1 -.229-.933l4.21-2.429a.5.5 0 0 1 .573.814l-2.609 2.21 6.249-3.607a.5.5 0 0 1 .554.83l-5.969 4.562 8.447-4.877a.5.5 0 0 1 .535.837l-9.332 6.619a.471.471 0 0 1 .112.115.5.5 0 0 1 -.088.67l-1.703 1.436.138-.079a.5.5 0 0 1 .568.818l-.547.45a.505.505 0 0 1 .42.21.5.5 0 0 1 -.08.668l-.469.406a.505.505 0 0 1 .569.173.5.5 0 0 1 -.06.662l-.866.814.538-.313a.5.5 0 0 1 .631.757l-1.6 1.882 1.729-1a.5.5 0 0 1 .635.751l-1.442 1.746 1.93-1.114a.5.5 0 0 1 .647.736l-1.458 1.906 2.5-1.446a.5.5 0 0 1 .621.768l-1.216 1.345 2.537-1.463a.494.494 0 0 1 .629.106.5.5 0 0 1 .013.637l-1.63 2.051 14.044-8.107a.5.5 0 0 1 .544.837l-6.261 4.569 5.114-2.952a.5.5 0 0 1 .565.821l-4.632 3.761 2.21-1.275a.5.5 0 1 1 .5.865l-7.65 4.419a.491.491 0 0 1 -.25.067z" fill="#7984ad"/><path d="m15.385 18.944c1.217.84 2.551-.066 3.354-1.044a16.238 16.238 0 0 1 3.652-2.683c1.573-1.387 6.083-.766 5.413-3.656-.109-.694-.08-1.744-.691-2.215-3.426-.937-8.944 2.6-11.567 4.8-2.302 1.887-3.124 2.992-.161 4.798zm.269-3.618c.982-1.481 9.438-6.991 10.452-4.924a7.468 7.468 0 0 1 .278 2.471c-2.118.978-4.449 1.336-6.578 3.012-1.047.536-2.128 2.05-3.072 2.508-1.074-.936-2.879-1.719-1.08-3.067z" fill="#262626"/><path d="m26.6 46.149a16.4 16.4 0 0 1 -7.761-4.238c-.525-.51-.92-1.121-1.7-1.206a3.318 3.318 0 0 0 -2.439 1.129c-1.624 1.033-1.7 2.185-.146 3.371 1.783 2.043 11.794 8.686 13.058 4.2.319-1.205.706-3.042-1.012-3.256zm-.226 2.077c-.026.172-.189 1.794-.391 1.876a20.417 20.417 0 0 1 -9.414-4.836c-.573-.521-2.257-1.706-1.469-2.55a19.2 19.2 0 0 1 1.528-1.24 16.273 16.273 0 0 0 7.8 5.129c.885.187 2.407.345 1.942 1.621z" fill="#262626"/><path d="m45.652 23.91a1.8 1.8 0 0 0 -.025 1.638 17.206 17.206 0 0 1 -.2 9.87c-.142 1.454 1.645 1.634 2.645 2.083a2.051 2.051 0 0 0 2.764-1.55c1.064-3.834 1.67-10.178-.836-13.428a2.866 2.866 0 0 0 -2.331.278c-.669.26-1.598.471-2.017 1.109zm1.389.034a11.425 11.425 0 0 1 1.858-.728c.958 1.281 1.007 3.385 1.282 4.971.227 2.41-.008 6.523-1.094 8.526-.931-.433-2.711-.591-2.045-2.024a17.226 17.226 0 0 0 .2-8.9c-.108-.444-.622-1.459-.201-1.845z" fill="#262626"/><path d="m33.044 13.666a17.124 17.124 0 0 1 8.826 5.115c1.521 1.168 3.378-.6 4.458-1.626.912-1.105-.9-2.369-1.611-3.014-2.089-2-12.114-8.372-12.465-2.545-.137.875-.313 1.772.792 2.07zm1.005-3.96c.012.018 0 .027-.012.032zm-.31 1.255a3.305 3.305 0 0 1 .277-1.172c3.8.9 9.41 3.528 11.126 7.121-.189.779-1.071 1.086-1.6 1.621-.013 0-.018-.006-.033-.009a18.135 18.135 0 0 0 -7.987-5.051c-1.736-.252-2.296-.713-1.783-2.51z" fill="#262626"/><path d="m45.375 41.626a2.364 2.364 0 0 0 -4 .219 16.06 16.06 0 0 1 -5.691 3.636c-3 .734-4.21.989-3.262 4.424 1.283 3.668 11.256-2.727 12.809-4.634 1.509-1.188 1.975-2.494.144-3.645zm-1.735 3.59c-.929 1.235-9.015 6.156-9.765 4.3-.022-.767-.478-1.645-.206-2.366.5-.253 1.161-.262 1.7-.491a18.6 18.6 0 0 0 7.855-5.012c1.962 1.376 2.691 1.814.416 3.569z" fill="#262626"/><path d="m14.324 36c.417-.537.178-1.085.014-1.673a16.9 16.9 0 0 1 -.612-4.786 18.337 18.337 0 0 1 .81-4.91c.191-.97-.582-1.264-1.315-1.549-6.144-3.309-5.127 8.881-4.339 12.124.138 1.2.718 2.716 2.216 2.218a8.918 8.918 0 0 0 3.226-1.424zm-3.567-12.855c-.031-.012-.038-.016 0 0zm1.969 13.2c-.479.2-.967.377-1.451.563-.145.005-.416-.383-.466-.479a20.466 20.466 0 0 1 .024-13.251c1.919.7 2.762.792 1.9 3.061a17.6 17.6 0 0 0 .383 9.294c.041.452-.091.685-.39.81z" fill="#262626"/><path d="m30.67.729c-2.512-.177-3.938.4-3.6 3.238-.774.1-1.544.222-2.309.379-.544-2.228-1.271-3.164-3.6-2.177-2.688.583-3.051 1.453-2.022 3.962-.727.325-1.436.682-2.134 1.061-1.308-2.45-3.054-2-4.863-.467-.5.365-1.213.759-1.2 1.468.05.815.888 1.4 1.172 2.1.078.392.009.309-.393.675-.465.423-.9.874-1.333 1.334a2.72 2.72 0 0 0 -4.447.632c-.875 1.189-1.3 1.9-.073 2.894.219.176 1.1.669 1.164.938-.241.671-1.155 1.8-1.382 2.567a2.708 2.708 0 0 0 -4 2.026c-.6 1.263-.3 2.2 1.131 2.5a3.794 3.794 0 0 1 .77.294c.44.3.337-.125.32.523a26.056 26.056 0 0 1 -.435 2.884c-2.01-.009-3.567.468-3.158 2.825-.128 2.515 1.7 1.789 3.311 2.084-.427 1.068.226 2.372.344 3.494-1.881.59-3.189 1.161-2.176 3.374.4 2.046 2.11 1.678 3.645 1.147a20.25 20.25 0 0 0 1.665 3.055c-1.3 1.239-2.9 1.7-1.252 3.7 1 1.821 2.734 1.523 4.182.375a21.865 21.865 0 0 0 1.692 1.725c.4.355.509.3.438.7-.263.642-.963 1.172-1.143 1.871-.193.843.545 1.246 1.13 1.677a2.777 2.777 0 0 0 4.542-.652c.575.445 1.995.834 2.523 1.2.045.8-.782 1.8-.54 2.648.24.746 1.258.89 1.9 1.094 1.879.779 3.7.084 4.058-2.08.594.219 1.959.108 2.48.333.172.2.056 1.113.07 1.389.075 1.511.717 1.743 2.184 1.752 2.5.177 3.941-.4 3.595-3.238.774-.1 1.544-.222 2.309-.379.544 2.228 1.271 3.164 3.6 2.177 2.688-.583 3.051-1.453 2.022-3.962.727-.325 1.436-.682 2.134-1.061 1.308 2.45 3.054 2.005 4.863.467.5-.365 1.213-.759 1.2-1.469-.05-.814-.888-1.4-1.172-2.1-.078-.392-.009-.309.393-.675.465-.423.9-.874 1.334-1.334a2.719 2.719 0 0 0 4.446-.632c.875-1.189 1.3-1.9.073-2.894-.219-.176-1.1-.669-1.164-.938.241-.671 1.155-1.8 1.382-2.567a2.708 2.708 0 0 0 4-2.026c.6-1.264.3-2.2-1.131-2.5a3.794 3.794 0 0 1 -.77-.294c-.44-.3-.337.125-.32-.523a26 26 0 0 1 .434-2.879c2.76.106 3.5-1.167 3.138-3.794-.315-1.465-2.147-.926-3.188-1.12a9.279 9.279 0 0 0 -.441-3.5c1.88-.589 3.183-1.162 2.171-3.372-.4-2.046-2.11-1.678-3.645-1.147a20.25 20.25 0 0 0 -1.665-3.055c1.3-1.239 2.9-1.7 1.252-3.7-.995-1.821-2.734-1.523-4.182-.375a21.865 21.865 0 0 0 -1.692-1.725c-.4-.355-.509-.3-.438-.7.263-.642.963-1.172 1.143-1.871.193-.843-.545-1.246-1.13-1.677a2.777 2.777 0 0 0 -4.542.652c-.575-.445-1.995-.834-2.523-1.2-.045-.8.782-1.8.54-2.648-.24-.746-1.258-.89-1.9-1.094-1.879-.78-3.7-.084-4.058 2.08-.6-.22-1.956-.107-2.48-.333-.258-1.798.358-3.235-2.249-3.136zm4.641 4.218c1.517.294 1.6-1.391 2.07-2.386.12-.186-.315-.2.243-.108 2.948.637 2.3 1.5 1.792 3.82a29.62 29.62 0 0 1 3.348 1.71c1.28.378 1.927-1.19 2.642-1.92.207-.073-.072.039.005.051.406.068 1.1.772 1.416 1.008 1.526.991.088 2.3-.535 3.355.78.9 1.86 1.733 2.643 2.713 1.047.407 2.07-.89 2.943-1.286.255 0-.15.065-.018.164 2.187 2.436 2.147 2.7-.329 4.678a29.6 29.6 0 0 1 1.709 3.347c.684.269 1.536-.317 2.251-.4.948-.487 1.171.937 1.365 1.541a4.177 4.177 0 0 1 .371 1.4c-.042.569-.254.527-.615.735-.569.415-1.6.364-2.02.913a29.435 29.435 0 0 1 .584 3.709c2.48.282 3.317-.314 3.094 2.782 0 .129.2 1.037.2 1.05a12.666 12.666 0 0 1 -2.09.1c-.26.013-1.168.109-1.2.467a29.1 29.1 0 0 1 -.571 3.652c2.835 1.291 3.033 1.022 1.87 4.28-1-.047-2.37-1.026-3.223-.091-.431 1.188-1.269 2.344-1.682 3.449 1.065.859 2.554 1.534 1.516 3.023-.166.238-.595 1.089-.878 1.157a7.367 7.367 0 0 1 -1.864-1.1c-.318-.208-1.175.121-1.4.374-.807.982-1.817 1.8-2.667 2.712.738 1.131 1.981 2.235.58 3.334-.718.554-1.1 1.183-1.657.152-.351-.42-.687-.852-1.03-1.278-.219-.271-1.039.058-1.273.2a28.175 28.175 0 0 1 -3.21 1.646c-.066.028-.347.14-.315.261.327 1.207 1.16 2.688-.473 3.228-2.3.966-1.415-2.654-2.848-2.306a28.083 28.083 0 0 1 -3.532.557c-.215.02-1.03.148-1.046.457-.2 1.113.46 3.092-1.388 2.63-1.854.176-1.461-1.781-1.566-3.019-1.232-.273-2.581-.316-3.835-.653-.274-.061-1.19.082-1.311.4-.267.656-.484 1.338-.758 1.986-.12.186.315.2-.243.108-1.109-.3-2.713-.661-2.192-2.137a10.733 10.733 0 0 0 .4-1.683 29.62 29.62 0 0 1 -3.348-1.71c-1.088-.35-1.775.864-2.357 1.566-.066.082-.184.317-.285.354-.207.073.072-.039 0-.051-.406-.068-1.1-.772-1.416-1.008-1.526-.991-.088-2.3.535-3.355-.78-.9-1.86-1.733-2.643-2.713-1.047-.406-2.071.89-2.943 1.286-.255 0 .15-.066.018-.164-2.185-2.434-2.149-2.7.329-4.678a29.6 29.6 0 0 1 -1.714-3.349c-.684-.269-1.537.317-2.251.4-.948.486-1.171-.937-1.365-1.541a4.177 4.177 0 0 1 -.371-1.4c.042-.569.254-.527.615-.735.569-.415 1.6-.364 2.02-.913a29.422 29.422 0 0 1 -.584-3.71c-1.34-.345-3.257.371-3.1-1.814a8.877 8.877 0 0 0 .02-1.545c-.136-.65-.3-.345.23-.5.816-.285 2.286.275 2.847-.549a29.1 29.1 0 0 1 .579-3.648c-2.835-1.291-3.033-1.022-1.87-4.28 1 .047 2.37 1.026 3.223.091.431-1.188 1.27-2.344 1.682-3.449-1.065-.859-2.554-1.534-1.516-3.023.166-.238.6-1.089.878-1.157a7.349 7.349 0 0 1 1.864 1.1c.318.208 1.175-.121 1.4-.374.807-.982 1.817-1.8 2.667-2.712-.738-1.131-1.981-2.235-.58-3.334.718-.555 1.1-1.183 1.657-.152.351.42.687.852 1.03 1.278.219.271 1.039-.058 1.273-.2a28.175 28.175 0 0 1 3.201-1.64c.066-.028.347-.141.315-.261-.327-1.207-1.16-2.688.473-3.228 2.295-.966 1.415 2.654 2.848 2.306a28.112 28.112 0 0 1 3.532-.557c.215-.02 1.03-.148 1.046-.457.2-1.113-.46-3.093 1.388-2.63 1.854-.176 1.461 1.781 1.566 3.019 1.231.275 2.582.318 3.834.655z" fill="#262626"/><path d="m42.726 29.916c-1.737-21.092-33.027-12.4-23.7 6.521 6.411 10.704 23.625 5.94 23.7-6.521zm-21.474 7.229c-6.559-7.907.624-20.845 10.926-18.445a11.834 11.834 0 0 1 9.1 11.386c.065 10.74-13.378 15.604-20.026 7.059z" fill="#262626"/><path d="m37.029 32.885c4.548-12.06-15.369-13.993-14.7-1.821.836 7.427 11.751 8.181 14.7 1.821zm-6.556 3.829c-10.568-.449-7.573-17.407 2.427-12.483 5.364 2.855 3.922 12.24-2.427 12.483z" fill="#262626"/></svg>