<svg id="Icons" height="512" viewBox="0 0 60 60" width="512" xmlns="http://www.w3.org/2000/svg"><path d="m27.328 17.485a.5.5 0 0 1 -.316-.886l2.617-2.14-4.483 2.588a.5.5 0 0 1 -.573-.815l4-3.383-5.247 3.031a.5.5 0 0 1 -.556-.827l4.124-3.2-4.545 2.624a.5.5 0 0 1 -.653-.73l.838-1.133a.5.5 0 0 1 -.326-.926l1.856-1.073a.5.5 0 0 1 .653.73l-.788 1.065 8.793-5.076a.5.5 0 0 1 .556.827l-4.124 3.2 3.776-2.179a.5.5 0 0 1 .57.818l-4 3.383 4.974-2.871a.5.5 0 0 1 .566.819l-2.617 2.141 4.171-2.408a.5.5 0 0 1 .6.79l-2.774 2.709 3.265-1.885a.5.5 0 0 1 .624.764l-2.641 2.968a.5.5 0 0 1 -.224.594l-.694.4a.5.5 0 0 1 -.624-.765l1.374-1.547-4.014 2.318a.5.5 0 0 1 -.6-.79l2.772-2.713-6.081 3.511a.491.491 0 0 1 -.249.067z" fill="#f9cc68"/><path d="m26.63 10.468a.5.5 0 0 1 -.326-.879l2.287-1.966-1.309.755a.5.5 0 0 1 -.591-.8l2.409-2.236-1.818 1.047a.5.5 0 0 1 -.6-.787l1.8-1.792-1.19.686a.5.5 0 0 1 -.624-.765l.907-1.031a.493.493 0 0 1 -.319-.237.5.5 0 0 1 .182-.683l2.021-1.162a.5.5 0 0 1 .624.765l-.627.707 1.832-1.058a.5.5 0 0 1 .6.787l-1.8 1.792 2.323-1.34a.5.5 0 0 1 .591.8l-2.402 2.238 2.121-1.225a.5.5 0 0 1 .579.816l-2.289 1.961 1.711-.987a.5.5 0 0 1 .5.865l-6.342 3.661a.49.49 0 0 1 -.25.068z" fill="#f9cc68"/><path d="m24.009 20.813a.5.5 0 0 1 -.25-.932l.493-.285a.5.5 0 1 1 .5.865l-.493.285a.491.491 0 0 1 -.25.067z" fill="#d7e6e7"/><path d="m26.854 59.47a.5.5 0 0 1 -.278-.915l3.661-2.455-5.717 3.3a.5.5 0 0 1 -.527-.849l5.232-3.469-7.434 4.292a.5.5 0 0 1 -.527-.849l8.573-5.718-10.165 5.87a.5.5 0 0 1 -.523-.852l7.712-5.014-8.388 4.842a.5.5 0 0 1 -.522-.852l8.282-5.363-8.55 4.937a.5.5 0 0 1 -.526-.85l11.832-7.825-11.708 6.76a.5.5 0 0 1 -.523-.852l10.627-6.936-10.105 5.828a.5.5 0 0 1 -.523-.852l10.6-6.917-10.077 5.821a.5.5 0 0 1 -.521-.853l9.565-6.2-9.044 5.225a.5.5 0 0 1 -.527-.849l12.807-8.519-12.28 7.089a.5.5 0 0 1 -.519-.853l7.383-4.722-6.864 3.962a.5.5 0 0 1 -.52-.853l8.247-5.3-7.727 4.461a.5.5 0 0 1 -.519-.854l7.139-4.565-6.62 3.821a.5.5 0 0 1 -.518-.854l5.557-3.535-5.039 2.91a.5.5 0 0 1 -.522-.852l8.844-5.76-8.322 4.8a.5.5 0 0 1 -.524-.851l8.826-5.8-8.302 4.8a.5.5 0 0 1 -.53-.846l9.9-6.71-9.37 5.406a.5.5 0 0 1 -.529-.848l7.059-4.758-6.53 3.769a.5.5 0 0 1 -.536-.843l7.544-5.257-7.008 4.045a.5.5 0 0 1 -.531-.846l3.266-2.212-2.735 1.573a.5.5 0 0 1 -.553-.83l4.859-3.712-4.086 2.357a.5.5 0 0 1 -.6-.788l2.324-2.333a.5.5 0 0 1 -.618-.215.5.5 0 0 1 .183-.682l3.183-1.837a.5.5 0 0 1 .6.785l-2.308 2.318 7.536-4.349a.5.5 0 0 1 .553.83l-4.853 3.712 7.883-4.551a.5.5 0 0 1 .531.847l-3.26 2.213 5.312-3.067a.5.5 0 0 1 .536.843l-7.551 5.263 8.8-5.08a.5.5 0 0 1 .529.847l-7.059 4.756 8.957-5.171a.5.5 0 0 1 .53.847l-9.9 6.711 11.253-6.5a.5.5 0 0 1 .524.85l-8.819 5.8 9.47-5.468a.5.5 0 0 1 .523.852l-8.843 5.76 9.141-5.278a.5.5 0 0 1 .518.855l-5.565 3.542 5.484-3.166a.5.5 0 0 1 .52.854l-7.138 4.564 6.831-3.943a.5.5 0 0 1 .521.853l-8.243 5.3 7.735-4.472a.5.5 0 0 1 .519.854l-7.383 4.721 6.864-3.965a.5.5 0 0 1 .527.848l-12.807 8.523 12.28-7.089a.5.5 0 0 1 .521.852l-9.565 6.2 9.044-5.224a.5.5 0 0 1 .523.852l-10.6 6.917 10.077-5.818a.5.5 0 0 1 .523.852l-10.631 6.938 10.108-5.835a.5.5 0 0 1 .525.85l-11.83 7.826 11.305-6.526a.5.5 0 0 1 .521.852l-8.281 5.361 7.76-4.479a.5.5 0 0 1 .522.852l-7.712 5.014 7.19-4.15a.5.5 0 0 1 .527.848l-8.574 5.72 8.047-4.645a.5.5 0 0 1 .526.849l-5.23 3.468 4.7-2.716a.5.5 0 0 1 .528.848l-3.667 2.457 3.139-1.812a.5.5 0 0 1 .539.841l-4.313 3.053 3.774-2.179a.5.5 0 0 1 .552.83l-3.7 2.818 3.151-1.819a.5.5 0 0 1 .563.823l-2.1 1.692 1.454-.839a.5.5 0 0 1 .585.8l-1.171 1.059a.487.487 0 0 1 .474.248.5.5 0 0 1 -.183.683l-3.697 2.137a.5.5 0 0 1 -.585-.8l1-.906-3 1.732a.5.5 0 0 1 -.564-.822l2.1-1.691-4.351 2.507a.5.5 0 0 1 -.553-.83l3.7-2.819-6.316 3.649a.5.5 0 0 1 -.539-.84l4.314-3.053-6.75 3.893a.5.5 0 0 1 -.246.07z" fill="#d7e6e7"/><path d="m29.493 21.47a.5.5 0 0 1 -.306-.9l.544-.422-2.165 1.252a.5.5 0 0 1 -.6-.793l2.176-2.094-5 2.887a.5.5 0 0 1 -.591-.8l2.081-1.936-4.561 2.636a.5.5 0 0 1 -.582-.807l1.762-1.562-2.5 1.445a.5.5 0 0 1 -.576-.812l.525-.453-.385.222a.5.5 0 0 1 -.642-.742l.769-.976a.5.5 0 0 1 -.23-.932l1.857-1.073a.5.5 0 0 1 .643.742l-.641.813 2.716-1.565a.5.5 0 0 1 .576.811l-.525.453 2.191-1.264a.5.5 0 0 1 .582.806l-1.763 1.564 4.106-2.37a.5.5 0 0 1 .591.8l-2.081 1.936 4.736-2.736a.5.5 0 0 1 .6.793l-2.177 2.093 5-2.886a.5.5 0 0 1 .556.828l-.546.423 2.167-1.251a.5.5 0 0 1 .555.828l-.535.414 1.618-.934a.5.5 0 0 1 .56.825l-.454.359.735-.424a.5.5 0 0 1 .63.757l-1.416 1.66 1.2-.693a.5.5 0 1 1 .5.865l-3.718 2.143a.5.5 0 0 1 -.63-.756l1.417-1.661-4.189 2.417a.5.5 0 0 1 -.559-.825l.453-.357-2.05 1.182a.5.5 0 0 1 -.556-.828l.536-.415-2.154 1.243a.493.493 0 0 1 -.25.07z" fill="#4ea2db"/><g fill="#262626"><path d="m16.276 53.719c-.235 4.032 3.583 6.117 7.212 5.56 6.084-1.012 17.714 3.141 20.135-4.464.293-5.429 0-10.922.1-16.372-.577-5.7 2.287-14.224-4.342-17.123 4.047-1.48 2.322-6.566-1.824-5.837a2.608 2.608 0 0 0 -.782-4.637c-1.2-.14-2.644-.326-2.969-1.758-.417-2.207.428-4.645-.478-6.762-1.841-3.143-7.208-1.373-7.054 2.2-.217 1.891.618 4.225-.62 5.829-.479.465-1.114.306-1.725.448-2.162.266-3.671 3.189-1.807 4.673-4.032-.446-5.527 5.432-1.137 5.957a7.73 7.73 0 0 0 -4.711 8.285c.002 8.004-.031 16.003.002 24.001zm7.112-42.034c1.3-.744 3.3-.361 4.055-2.056 1.207-2.47-1.143-6.614 1.743-8.239 4.469-.423 2.627 5.536 3.2 8.183a2.65 2.65 0 0 0 2.484 1.736c2.116.023 3.3 2.9 1.5 4.177-3.054-.725-16.72 2.465-12.982-3.801zm-3.105 5.315c5.51-1.311 11.833-.08 17.6-.489 2.511-.443 3.391 3.739.688 3.973h-16.452a2.108 2.108 0 0 1 -1.836-3.484zm-2.274 8.843c1.175-4.595 5.712-4.565 9.533-4.331 4.788.446 11.39-1.834 14.01 3.581 1.848 6.932.206 14.637.724 21.8-.263 3.916 1.684 10.992-3.8 11.83-5.274-.831-18.036 2.473-20.357-2.968-.812-2.649-.222-5.512-.393-8.248.215-7.207-.45-14.517.283-21.662z"/><path d="m21.944 29.562c1.7-.343 4.69.776 5.792-.608-.719-1.2-4.236-.211-5.68-.516-.846-.038-1.121 1.187-.112 1.124z"/><path d="m24.33 33.349c.481.194 2.118-.508.969-.7-.545-.069-5.441-.059-3.6.7z"/><path d="m27.261 36.51c-.771.136-7.681-.558-5.522.98.771-.136 7.681.558 5.522-.98z"/><path d="m21.734 41.471c1.255-.193 2.952.467 3.95-.42-.054-1.109-2.565-.279-3.418-.523-.62-.149-1.537.801-.532.943z"/><path d="m27.282 44.591c-.678.091-7.6-.428-5.565.818.683-.091 7.605.428 5.565-.818z"/><path d="m27.3 52.664c-.6.039-7.567-.29-5.6.672.6-.036 7.565.29 5.6-.672z"/><path d="m24.153 49.277c4.3-.5-1.754-.925-2.7-.279-.625.57 2.236.164 2.7.279z"/></g></svg>