<svg id="Icons" height="300" viewBox="0 0 60 60" width="300" xmlns="http://www.w3.org/2000/svg" version="1.1" xmlns:xlink="http://www.w3.org/1999/xlink" xmlns:svgjs="http://svgjs.dev/svgjs"><g width="100%" height="100%" transform="matrix(1,0,0,1,0,0)"><path d="m37.928 59.47a.5.5 0 0 1 -.348-.86l.281-.271-1.842 1.061a.5.5 0 0 1 -.613-.777l1.633-1.714-4.228 2.441a.5.5 0 0 1 -.6-.793l2.095-2.014-3.236 1.871a.5.5 0 0 1 -.645-.738l1.5-1.943-1.631.942a.5.5 0 1 1 -.5-.865l3.835-2.21a.5.5 0 0 1 .645.738l-1.5 1.941 4.6-2.653a.5.5 0 0 1 .6.793l-2.095 2.014 3.675-2.121a.5.5 0 0 1 .612.777l-1.641 1.711 2.365-1.364a.5.5 0 0 1 .6.792l-.281.271.283-.163a.5.5 0 0 1 .678.691l-.378.624a.5.5 0 0 1 .285.932l-1.417.818a.5.5 0 0 1 -.678-.691l.325-.535-2.129 1.225a.49.49 0 0 1 -.25.07z" fill="#f8b63b" fill-opacity="1" data-original-color="#f8b63bff" stroke="none" stroke-opacity="1"/><path d="m25.636 59.47a.5.5 0 0 1 -.325-.88l1.649-1.409-3.849 2.219a.5.5 0 0 1 -.656-.141.5.5 0 0 1 .077-.668l1.794-1.568-4.117 2.377a.5.5 0 0 1 -.59-.8l2.065-1.912-3.263 1.883a.5.5 0 0 1 -.624-.764l1.49-1.675-.057.032a.5.5 0 0 1 -.5-.865l2.739-1.581a.5.5 0 0 1 .624.764l-1.493 1.678 4.442-2.56a.5.5 0 0 1 .59.8l-2.066 1.91 4.7-2.712a.5.5 0 0 1 .579.809l-1.793 1.567 4.115-2.374a.5.5 0 0 1 .575.812l-1.856 1.588a.513.513 0 0 1 .469.249.5.5 0 0 1 -.182.683l-4.287 2.468a.493.493 0 0 1 -.25.07z" fill="#f8b63b" fill-opacity="1" data-original-color="#f8b63bff" stroke="none" stroke-opacity="1"/><path d="m29.137 55.434a.5.5 0 0 1 -.3-.9l6.537-4.838-8.835 5.1a.5.5 0 0 1 -.539-.843l7.489-5.285-9.324 5.383a.5.5 0 0 1 -.536-.843l9.198-6.408-10.943 6.321a.5.5 0 0 1 -.52-.853l2.65-1.7-3.367 1.944a.5.5 0 0 1 -.519-.855l3.555-2.269-4.236 2.445a.5.5 0 0 1 -.524-.851l9.251-6.082-10.26 5.923a.5.5 0 0 1 -.524-.85l10.623-6.973-10.495 6.06a.5.5 0 0 1 -.525-.851l10.8-7.076-10.293 5.941a.5.5 0 0 1 -.515-.856l.628-.392-.123.07a.5.5 0 0 1 -.518-.854l6.528-4.161-6.021 3.475a.5.5 0 0 1 -.522-.852l8.773-5.663-8.266 4.771a.5.5 0 0 1 -.524-.851l10.554-6.9-10.047 5.8a.5.5 0 0 1 -.517-.855l5.207-3.3-4.7 2.714a.5.5 0 0 1 -.522-.853l9.066-5.859-8.559 4.94a.5.5 0 0 1 -.522-.848l7.92-5.114-7.42 4.282a.5.5 0 0 1 -.531-.846l9.944-6.776-9.431 5.445a.5.5 0 0 1 -.531-.847l6.52-4.425-6 3.467a.5.5 0 0 1 -.523-.851l.443-.289a.5.5 0 0 1 -.468-.875l3.824-2.686-3.3 1.9a.5.5 0 0 1 -.534-.844l.732-.505-.209.12a.5.5 0 0 1 -.563-.823l2.791-2.246-2.243 1.294a.5.5 0 0 1 -.625-.762l1.975-2.243-1.369.79a.5.5 0 0 1 -.739-.536l.3-1.448a.49.49 0 0 1 -.261-.22.5.5 0 0 1 .182-.682l.5-.288a.5.5 0 0 1 .74.535l-.253 1.215 3.039-1.754a.5.5 0 0 1 .625.762l-1.976 2.25 5.211-3.009a.5.5 0 0 1 .563.822l-2.8 2.249 5.328-3.074a.5.5 0 0 1 .534.844l-.729.5 2.339-1.35a.5.5 0 0 1 .537.842l-3.823 2.684 6.114-3.529a.5.5 0 0 1 .524.852l-.352.228 1.877-1.083a.5.5 0 0 1 .531.847l-6.513 4.423 9.134-5.274a.5.5 0 0 1 .531.846l-9.947 6.782 13.213-7.628a.5.5 0 0 1 .522.853l-7.913 5.104 8.369-4.829a.5.5 0 0 1 .521.853l-9.07 5.863 8.532-4.926a.5.5 0 0 1 .518.856l-5.21 3.3 4.682-2.7a.5.5 0 0 1 .523.852l-10.546 6.886 10-5.774a.5.5 0 0 1 .522.853l-8.787 5.673 8.249-4.762a.5.5 0 0 1 .518.854l-6.5 4.148 5.971-3.447a.5.5 0 0 1 .515.856l-.635.395.108-.061a.5.5 0 0 1 .525.851l-10.8 7.079 10.255-5.923a.5.5 0 0 1 .524.85l-10.624 6.976 10.079-5.819a.5.5 0 0 1 .525.85l-9.248 6.081 8.705-5.025a.5.5 0 0 1 .519.854l-3.554 2.269 3.022-1.744a.5.5 0 0 1 .519.853l-2.643 1.692 2.111-1.219a.5.5 0 0 1 .536.843l-9.2 6.407 8.642-4.988a.5.5 0 0 1 .538.84l-7.489 5.286 6.93-4a.5.5 0 0 1 .548.835l-6.54 4.833 5.967-3.445a.5.5 0 0 1 .55.833l-3.35 2.512 2.787-1.608a.5.5 0 0 1 .562.823l-.407.324a.5.5 0 0 1 .334.926l-5.443 3.142a.5.5 0 0 1 -.562-.823l.242-.193-4.28 2.473a.5.5 0 0 1 -.549-.833l3.349-2.511-6.315 3.646a.493.493 0 0 1 -.248.068z" fill="#bf747c" fill-opacity="1" data-original-color="#663238ff" stroke="none" stroke-opacity="1"/><path d="m15.364 53.376a.5.5 0 0 1 -.407-.79l.479-.671-.778.448a.5.5 0 0 1 -.628-.759l1.237-1.426-1.571.906a.5.5 0 0 1 -.61-.779l2.494-2.595-2.953 1.7a.5.5 0 0 1 -.574-.813l2.883-2.459-3.1 1.79a.5.5 0 0 1 -.549-.833l2.334-1.745-2.344 1.353a.5.5 0 0 1 -.548-.834l5.994-4.462-6.116 3.53a.5.5 0 0 1 -.543-.837l7.163-5.175-7.168 4.137a.5.5 0 0 1 -.531-.846l4.417-2.989-4.2 2.423a.5.5 0 0 1 -.529-.847l4.257-2.86-3.958 2.29a.5.5 0 0 1 -.539-.84l7.612-5.387-7.26 4.194a.5.5 0 0 1 -.533-.844l5.736-3.946-5.247 3.03a.5.5 0 0 1 -.541-.84l6.757-4.829-6.13 3.539a.5.5 0 0 1 -.546-.836l5.776-4.242-4.966 2.868a.5.5 0 0 1 -.539-.841l2.679-1.9-1.805 1.041a.5.5 0 0 1 -.565-.821l4.088-3.3-2.765 1.6a.5.5 0 0 1 -.576-.813l2.455-2.1-.768.443a.5.5 0 0 1 -.627-.762l2.479-2.841c-.008-.014-.018-.028-.026-.042a.5.5 0 0 1 .183-.683l1.034-.6a.5.5 0 0 1 .627.762l-1.568 1.8 2.867-1.654a.5.5 0 0 1 .575.812l-2.455 2.1 3.624-2.092a.5.5 0 0 1 .564.821l-4.088 3.3 5.518-3.184a.5.5 0 0 1 .539.84l-2.677 1.9 3.576-2.065a.5.5 0 0 1 .546.836l-5.779 4.243 7.2-4.157a.5.5 0 0 1 .541.84l-6.755 4.817 7.273-4.2a.5.5 0 0 1 .533.845l-5.73 3.94 5.662-3.268a.5.5 0 0 1 .539.841l-7.613 5.394 7.313-4.222a.5.5 0 0 1 .529.848l-4.258 2.86 3.636-2.1a.5.5 0 0 1 .531.847l-4.414 2.985 3.466-2a.5.5 0 0 1 .543.838l-7.164 5.177 5.08-2.933a.5.5 0 0 1 .549.834l-5.993 4.461 2.233-1.289a.5.5 0 0 1 .549.833l-2.333 1.744.5-.291a.5.5 0 0 1 .574.813l-2.885 2.46 1.279-.737a.5.5 0 0 1 .61.779l-2.493 2.594 1.094-.631a.5.5 0 0 1 .628.76l-1.237 1.426.193-.111a.5.5 0 0 1 .657.723l-.6.847a.5.5 0 0 1 .208.93l-1.576.911a.5.5 0 0 1 -.255.068z" fill="#e68080" fill-opacity="1" data-original-color="#914d4dff" stroke="none" stroke-opacity="1"/><path d="m43.673 53.336a.5.5 0 0 1 -.4-.2.5.5 0 0 1 .044-.659l1.335-1.329-1.406.812a.5.5 0 0 1 -.592-.8l3.057-2.86-2.794 1.612a.5.5 0 0 1 -.563-.822l2.19-1.762-1.944 1.124a.5.5 0 0 1 -.572-.815l3.809-3.2-3.754 2.163a.5.5 0 0 1 -.56-.826l3.547-2.8-3.54 2.043a.5.5 0 0 1 -.546-.835l2.339-1.718-2.309 1.336a.5.5 0 0 1 -.554-.83l4.005-3.056-4.186 2.416a.5.5 0 0 1 -.54-.84l2.324-1.655-2.434 1.405a.5.5 0 0 1 -.548-.834l4.326-3.206-4.707 2.722a.5.5 0 0 1 -.546-.836l4.572-3.348-5.094 2.941a.5.5 0 0 1 -.541-.84l4.309-3.079-4.764 2.75a.5.5 0 0 1 -.54-.84l4.619-3.285-4.932 2.846a.5.5 0 0 1 -.542-.838l5.259-3.782-5.443 3.143a.5.5 0 0 1 -.542-.839l5.222-3.748-5.18 2.991a.5.5 0 0 1 -.528-.848l.5-.334-.17.1a.5.5 0 0 1 -.545-.836l5.165-3.783-4.675 2.7a.5.5 0 0 1 -.544-.837l3.907-2.839-3.066 1.769a.5.5 0 0 1 -.6-.787l1.153-1.149a.517.517 0 0 1 -.471-.249.5.5 0 0 1 .182-.683l2.965-1.712a.5.5 0 0 1 .6.787l-1.02 1.017 8.008-4.623a.5.5 0 0 1 .544.837l-3.911 2.842 4.4-2.54a.5.5 0 0 1 .545.836l-5.156 3.774 5.617-3.244a.5.5 0 0 1 .527.849l-.491.327.5-.289a.5.5 0 0 1 .542.839l-5.229 3.753 5.428-3.134a.5.5 0 0 1 .542.839l-5.264 3.779 5.34-3.083a.5.5 0 0 1 .541.84l-4.612 3.28 4.546-2.625a.5.5 0 0 1 .541.84l-4.318 3.086 4.139-2.39a.5.5 0 0 1 .546.836l-4.568 3.345 4.305-2.484a.5.5 0 0 1 .547.834l-4.322 3.2 3.95-2.28a.5.5 0 0 1 .54.839l-2.334 1.663 1.854-1.07a.5.5 0 0 1 .554.83l-4 3.054 3.428-1.979a.5.5 0 0 1 .546.835l-2.335 1.727 1.669-.964a.5.5 0 0 1 .56.826l-3.543 2.793 2.682-1.547a.5.5 0 0 1 .571.815l-3.81 3.2 2.64-1.523a.5.5 0 0 1 .564.822l-2.196 1.761.924-.533a.5.5 0 0 1 .592.8l-3.053 2.867.973-.562a.5.5 0 0 1 .6.787l-1.956 1.948a.49.49 0 0 1 .207.2.5.5 0 0 1 -.182.682l-2.22 1.283a.5.5 0 0 1 -.249.064z" fill="#e68080" fill-opacity="1" data-original-color="#914d4dff" stroke="none" stroke-opacity="1"/><path d="m29.562 28a.5.5 0 0 1 -.284-.912l6.764-4.639-8.008 4.623a.5.5 0 0 1 -.523-.851l3.748-2.445-4.605 2.658a.5.5 0 0 1 -.523-.851l4.874-3.176-5.919 3.417a.5.5 0 0 1 -.527-.849l8.6-5.729-10.159 5.872a.5.5 0 0 1 -.518-.855l2.587-1.637-3.507 2.024a.5.5 0 0 1 -.52-.853l5.574-3.562-6.673 3.853a.5.5 0 0 1 -.518-.855l5.875-3.742-6.887 3.976a.5.5 0 0 1 -.521-.854l8.4-5.4-9.412 5.432a.5.5 0 0 1 -.516-.857l2.836-1.778-3.3 1.91a.5.5 0 0 1 -.519-.855l6.8-4.322-7.246 4.183a.5.5 0 0 1 -.521-.854l8.67-5.574-8.947 5.165a.5.5 0 0 1 -.521-.853l7.769-4.985-7.761 4.475a.5.5 0 0 1 -.517-.856l3.093-1.944-2.806 1.62a.5.5 0 0 1 -.518-.855l2.68-1.7-2.262 1.306a.5.5 0 0 1 -.674-.167.5.5 0 0 1 .144-.68l9.506-6.447-8.9 5.139a.5.5 0 0 1 -.522-.853l2.566-1.663-1.829 1.056a.5.5 0 0 1 -.528-.848l3.789-2.544-2.8 1.616a.5.5 0 0 1 -.53-.846l1.7-1.152-.459.265a.5.5 0 0 1 -.568-.818l4.142-3.429a.5.5 0 0 1 0-.866l3.514-2.029a.5.5 0 0 1 .568.819l-2.99 2.476 7.24-4.182a.5.5 0 0 1 .53.846l-1.693 1.151 3.653-2.115a.5.5 0 0 1 .529.848l-3.782 2.546 5.8-3.35a.5.5 0 0 1 .523.852l-2.563 1.66 4.073-2.351a.5.5 0 0 1 .531.846l-9.511 6.449 11.8-6.81a.5.5 0 0 1 .517.855l-2.682 1.696 3.642-2.1a.5.5 0 0 1 .517.856l-3.092 1.945 3.882-2.242a.5.5 0 0 1 .52.853l-7.776 4.99 8.591-4.959a.5.5 0 0 1 .52.853l-8.663 5.57 9.305-5.372a.5.5 0 0 1 .519.855l-6.793 4.322 7.322-4.226a.5.5 0 0 1 .515.856l-2.835 1.774 3.192-1.841a.5.5 0 0 1 .52.853l-8.4 5.4 8.933-5.157a.5.5 0 0 1 .518.855l-5.888 3.748 5.97-3.447a.5.5 0 0 1 .52.854l-5.567 3.562 5.536-3.2a.5.5 0 0 1 .517.856l-2.578 1.631 2.393-1.381a.5.5 0 0 1 .527.848l-8.609 5.733 8.416-4.859a.5.5 0 0 1 .523.852l-4.874 3.177 4.486-2.59a.5.5 0 0 1 .524.851l-3.741 2.439 3.224-1.86a.5.5 0 0 1 .533.844l-6.763 4.639 5.964-3.443a.5.5 0 0 1 .564.822l-3.3 2.666 1.624-.938a.5.5 0 0 1 .5.866l-7.193 4.153a.5.5 0 0 1 -.564-.821l3.305-2.667-11.562 6.676a.51.51 0 0 1 -.25.063z" fill="#b08989" fill-opacity="1" data-original-color="#874949ff" stroke="none" stroke-opacity="1"/><path d="m29.77 22.427a.5.5 0 0 1 -.382-.823l.228-.271-.313.181a.5.5 0 0 1 -.631-.757l1.87-2.194-2.18 1.258a.5.5 0 0 1 -.636-.749l1.652-2.018-1.934 1.116a.5.5 0 0 1 -.635-.751l1.791-2.174a.491.491 0 0 1 -.147-.16.5.5 0 0 1 .183-.683l1.334-.77a.5.5 0 0 1 .635.751l-1.268 1.54 1.913-1.105a.5.5 0 0 1 .637.749l-1.654 2.02 2.323-1.34a.5.5 0 0 1 .631.757l-1.871 2.196.276-.158a.5.5 0 0 1 .632.755l-1.024 1.211a.455.455 0 0 1 .046.066.5.5 0 0 1 -.183.683l-1.042.6a.5.5 0 0 1 -.251.07z" fill="#f8b63b" fill-opacity="1" data-original-color="#f8b63bff" stroke="none" stroke-opacity="1"/><path d="m39.694 17.4a.5.5 0 0 1 -.366-.84l1-1.079-2.708 1.568a.5.5 0 0 1 -.6-.791l2.426-2.364-3.358 1.938a.5.5 0 0 1 -.575-.812l1.916-1.642-1.993 1.15a.5.5 0 0 1 -.567-.819l.578-.473-.162.093a.5.5 0 0 1 -.6-.792l.562-.537a.494.494 0 0 1 -.344-.242.5.5 0 0 1 .183-.683l2.82-1.629a.5.5 0 0 1 .6.792l-.21.2 2-1.154a.5.5 0 0 1 .566.82l-.581.475 1.319-.765a.5.5 0 0 1 .575.813l-1.916 1.642 2.145-1.239a.5.5 0 0 1 .6.791l-2.424 2.365 2.12-1.224a.5.5 0 0 1 .616.772l-1.211 1.306a.5.5 0 0 1 .205.931l-2.366 1.366a.489.489 0 0 1 -.25.063z" fill="#ffffff" fill-opacity="1" data-original-color="#ffffffff" stroke="none" stroke-opacity="1"/><path d="m21.658 17.415a.5.5 0 0 1 -.352-.855l.5-.5-1.916 1.11a.5.5 0 0 1 -.595-.8l2.116-2.017-3.078 1.777a.5.5 0 0 1 -.578-.811l1.79-1.553-1.983 1.144a.5.5 0 0 1 -.611-.779l2-2.08-1.646.95a.5.5 0 0 1 -.642-.743l.993-1.255a.5.5 0 0 1 -.032-.883l1.433-.82a.5.5 0 0 1 .641.743l-.625.789 2.443-1.409a.5.5 0 0 1 .61.779l-2 2.08 3.426-1.982a.5.5 0 0 1 .578.81l-1.789 1.553 2.193-1.263a.5.5 0 0 1 .6.8l-2.115 2.016 1.638-.945a.5.5 0 0 1 .6.788l-1.02 1.009a.5.5 0 0 1 .071.9l-2.4 1.385a.489.489 0 0 1 -.25.062z" fill="#ffffff" fill-opacity="1" data-original-color="#ffffffff" stroke="none" stroke-opacity="1"/><path d="m28.946 14.085a.5.5 0 0 1 -.276-.917l4.617-3.068-5.237 3.027a.5.5 0 0 1 -.529-.848l2.041-1.379-2.69 1.553a.5.5 0 0 1 -.534-.844l1.5-1.036-2.3 1.329a.5.5 0 0 1 -.613-.775l2.055-2.183-4.168 2.407a.5.5 0 0 1 -.607-.783l2.612-2.668-4.882 2.819a.5.5 0 0 1 -.56-.826l1.355-1.065-2.23 1.29a.5.5 0 0 1 -.586-.8l2.539-2.3-3.584 2.063a.5.5 0 0 1 -.563-.822l.66-.53-.972.56a.5.5 0 0 1 -.628-.761l1.7-1.951-2.2 1.271a.5.5 0 0 1 -.617-.773l.866-.935-.9.518a.5.5 0 0 1 -.647-.736l.721-.943-.584.336a.5.5 0 0 1 -.628-.1.5.5 0 0 1 -.015-.637l.2-.252a.5.5 0 0 1 -.515-.739l.228-.4a.5.5 0 0 1 -.139-.92l1.082-.638a.5.5 0 0 1 .686.678l-.1.174.424-.244a.5.5 0 0 1 .643.742l-.143.183.519-.3a.5.5 0 0 1 .653.738l-.722.943 1.587-.915a.5.5 0 0 1 .617.772l-.864.935 1.927-1.112a.5.5 0 0 1 .628.76l-1.698 1.951 4.025-2.325a.5.5 0 0 1 .563.823l-.663.531 2-1.157a.5.5 0 0 1 .586.8l-2.538 2.3 4.161-2.4a.5.5 0 0 1 .559.825l-1.349 1.069 2.067-1.193a.5.5 0 0 1 .608.782l-2.613 2.666 3.954-2.282a.5.5 0 0 1 .613.775l-2.062 2.187 9.951-5.744a.5.5 0 0 1 .534.844l-1.495 1.035 4.593-2.653a.5.5 0 0 1 .53.848l-2.047 1.379 6.612-3.817a.5.5 0 0 1 .526.849l-4.609 3.06 3.88-2.24a.5.5 0 0 1 .532.845l-1.039.711a.5.5 0 0 1 .567.814l-2.639 2.382a.5.5 0 0 1 .512.245.5.5 0 0 1 -.183.682l-3.807 2.2a.5.5 0 0 1 -.585-.8l2.524-2.285-7.194 4.153a.5.5 0 0 1 -.532-.843l1.024-.7-6.441 3.718a.5.5 0 0 1 -.254.067z" fill="#773e3e" fill-opacity="1" data-original-color="#773e3eff" stroke="none" stroke-opacity="1"/><path d="m51.276 31.152a18.236 18.236 0 0 0 -5.476-10.464c3.163-3.615 2.185-9.87-.155-13.657 4.045-6.585 1.839-7.924-4.331-3.972-6.314-3.734-15.844-3.568-22.245-.092-6.278-3.915-8.969-2.267-4.695 4.369-2.294 3.732-3.409 9.975-.271 13.542-12.639 9.358-1.103 40.459 3.665 30.353a25.544 25.544 0 0 0 4.729 2.43c-2.32-.256-7.669 4.049-3.914 5.652 3.59-.046 8.378 1.214 11.3-1.331 2.864 2.608 8.1 1.358 11.684 1.107 3.393-2.431-1.9-5.872-4.467-5.466a27.407 27.407 0 0 0 4.954-2.533c1.076 6.582 6.39-.975 7.342-3.829a27.025 27.025 0 0 0 1.88-16.109zm-21.12-29.668c3.079.026 6.818.227 9.512 2.006-3.091.241-6.434.47-8.838 2.7a1.683 1.683 0 0 1 -1.83-.42c-2.4-2.121-5.72-1.957-8.656-2.455 2.785-1.759 6.698-1.857 9.812-1.831zm-16.075.139c3.539 3.113 8.4 2.046 12.414 3.9 1.034.577 1.791 1.577 3.045 1.642a4.542 4.542 0 0 0 3.008-1.276c2.322-1.8 5.23-1.22 7.908-1.893a1.112 1.112 0 0 0 1.037-.314c1.258.081 4.683-3.394 4.766-1.4-.771 5.52-5.321 8.254-10.384 8.6a1.147 1.147 0 0 0 -1.1.275c-6.556 3.113-3.136 2.49-9.518-.142-3.581-.615-7.681-1.185-9.835-4.605-.344-.504-2.438-4.61-1.341-4.787zm27 14.17c-2.7 2.287-6.493-1.345-5.055-4.3a28.527 28.527 0 0 0 4.983-1.129 3.672 3.672 0 0 1 .072 5.429zm-11.025 5.59c-1.7-2.878-3.463-4.358-.151-6.839 3.464 2.789 1.995 3.583.151 6.839zm-6.174-6.6c-2.434 4.623-8.55-.9-5.228-4.314a31.438 31.438 0 0 0 5.274 1.15 3.726 3.726 0 0 1 -.046 3.162zm-8.712-6.545a9.835 9.835 0 0 0 2.462 1.78c-5.883 7.23 8.592 10.961 8.038 2.212a21.937 21.937 0 0 1 3.054 1.881c-.777 1.164-2.806 2.1-2.354 3.7 1.2 1.5 1.746 5.485 4.293 4.522 1.277-.9 1.665-2.665 2.539-3.924 1.5-1.81-.86-3.156-1.918-4.455a13.244 13.244 0 0 1 3.165-1.993c-1.553 9.408 14.1 5.078 7.911-2.2a9.7 9.7 0 0 0 2.261-1.6c6.194 13.1-3.823 15-13.54 18.8-10.108-2.724-21.951-5.194-15.911-18.723zm1.122 43.577c-.114.725-.326.763-.819.374-7.037-8.217-8.165-22.308-.79-30.676 2.479 2.321 6.232 2.969 9.3 4.1 5.159 9.892-8.228 16.219-7.691 26.202zm10.32 6.779c-2.1-.471-9.563 1.626-7.314-2.469 2.578-3.286 6.657-.875 9.971-.78-.031 1.786-.608 3.249-2.657 3.249zm13.688-2.687c1.949 2.2.654 3.09-1.823 2.687-2.82-.129-8.048 1.085-7.751-3.288 3.174-.34 6.895-2.144 9.574.601zm-2.678-3.207c-3.771 1.79-7.962 2.615-12 1.1a25.7 25.7 0 0 1 -7.631-3.91c.125-8.938 11.72-14.3 7.991-23.494 2.862 2.249 5.587 1.18 8.444-.416-4.936 9.378 7.248 15.193 7.527 24.227a22.373 22.373 0 0 1 -4.331 2.493zm11.66-8.944c-.328 1.464-4.128 10.722-5.538 8.23.556-10.161-12.956-16.551-7.721-26.61 2.948-1 6.352-1.741 8.792-3.748 5.741 5.404 6.52 14.945 4.467 22.129z" fill="#262626" fill-opacity="1" data-original-color="#262626ff" stroke="none" stroke-opacity="1"/></g></svg>