<svg id="Icons" height="300" viewBox="0 0 60 60" width="300" xmlns="http://www.w3.org/2000/svg" version="1.1" xmlns:xlink="http://www.w3.org/1999/xlink" xmlns:svgjs="http://svgjs.dev/svgjs"><g width="100%" height="100%" transform="matrix(1,0,0,1,0,0)"><path d="m47.084 41.418c-.172 0-.341-.09-.433-.25-.139-.239-.057-.545.183-.683l10.85-6.264c.227-.133.518-.064.665.153.146.218.1.513-.107.674l-2.146 1.67c.228-.094.498-.009.625.212.139.239.057.545-.183.683l-6.185 3.571c-.227.133-.518.064-.665-.153-.146-.218-.1-.513.107-.674l2.125-1.654-4.587 2.647c-.079.046-.165.067-.25.067z" fill="#23b0e2" fill-opacity="1" data-original-color="#23b0e2ff" stroke="none" stroke-opacity="1"/><path d="m44.535 45.057c-.133 0-.265-.053-.361-.154-.159-.167-.184-.421-.06-.615l.734-1.146-2.103 1.214c-.229.133-.526.063-.67-.162-.145-.224-.088-.522.129-.677l7.872-5.631-7.645 4.413c-.214.125-.49.071-.645-.125-.153-.196-.138-.477.035-.655l2.299-2.374-.843.486c-.208.122-.478.075-.634-.112-.155-.187-.155-.458.002-.644l.75-.888c-.091-.041-.17-.11-.224-.204-.139-.239-.057-.545.183-.683l1.622-.937c.209-.123.478-.075.634.112.155.187.155.458-.002.644l-.35.413 1.457-.841c.214-.126.49-.071.645.125.153.196.138.477-.035.655l-2.298 2.373 13.442-7.761c.229-.135.526-.064.67.162.145.224.088.522-.129.677l-12.192 8.722c.083.156.079.35-.021.505l-.953 1.487c.104.04.193.113.253.217.139.239.057.545-.183.683l-1.132.653c-.078.046-.164.067-.25.067z" fill="#23b0e2" fill-opacity="1" data-original-color="#23b0e2ff" stroke="none" stroke-opacity="1"/><path d="m54.127 33.942c-.149 0-.296-.067-.394-.191-.153-.196-.14-.476.033-.655l2.279-2.368-.802.463c-.214.126-.49.073-.644-.124-.153-.196-.14-.475.032-.654l1.123-1.173-.522.302c-.218.127-.499.07-.649-.133-.152-.202-.129-.485.054-.661l.265-.253c-.195.06-.415-.007-.545-.176-.152-.2-.132-.483.048-.659l.198-.195c-.194.104-.44.064-.597-.103-.158-.17-.179-.428-.048-.62l1.185-1.756-1.534.886c-.202.117-.457.079-.616-.092s-.179-.429-.048-.622l1.021-1.501-1.713.988c-.198.117-.45.08-.611-.087-.159-.166-.185-.419-.061-.613l1.012-1.594-2.328 1.344c-.197.115-.446.081-.606-.082s-.189-.413-.072-.608l1.066-1.773-4.171 2.407c-.239.138-.545.057-.683-.183-.139-.239-.057-.545.183-.683l5.846-3.375c.196-.116.446-.082.606.082.16.163.189.413.072.608l-1.066 1.774 2.417-1.396c.199-.116.45-.081.611.087.159.166.185.419.061.613l-1.012 1.594 1.839-1.062c.2-.118.456-.08.616.092.159.171.179.429.048.622l-1.021 1.501 1.521-.878c.2-.119.456-.08.616.092.158.17.179.428.048.62l-1.185 1.756 1.508-.87c.215-.128.495-.071.648.13.152.2.132.483-.048.659l-.196.193.032-.019c.215-.128.497-.071.649.133.152.202.129.485-.054.661l-.229.219c.212-.109.476-.057.625.135.153.196.14.475-.032.654l-1.123 1.172.828-.478c.215-.126.489-.071.644.124.153.196.14.476-.033.655l-2.279 2.367 1.757-1.014c.237-.14.545-.058.683.183.139.239.057.545-.183.683l-4.82 2.783c-.078.046-.164.067-.25.067z" fill="#23b0e2" fill-opacity="1" data-original-color="#23b0e2ff" stroke="none" stroke-opacity="1"/><path d="m39.374 28.916c-.164 0-.324-.081-.42-.229-.145-.223-.089-.521.127-.677l4.293-3.107-2.977 1.718c-.225.132-.516.065-.662-.149-.147-.216-.104-.509.099-.673l3.799-3.062-2.36 1.362c-.21.124-.482.074-.638-.117-.155-.189-.149-.465.015-.647l1.591-1.789-.102.059c-.24.138-.544.056-.683-.183s-.057-.545.183-.683l2.786-1.609c.211-.124.482-.074.638.117.155.189.149.465-.015.647l-1.593 1.79 5.264-3.038c.226-.133.515-.064.662.149.147.216.104.509-.099.673l-3.801 3.062 5.79-3.342c.229-.135.524-.063.67.161.145.223.089.521-.127.677l-9.725 7.04c.027.195-.063.396-.245.5l-2.221 1.281c-.079.046-.165.067-.25.067z" fill="#23b0e2" fill-opacity="1" data-original-color="#23b0e2ff" stroke="none" stroke-opacity="1"/><g fill="#f6ca4a"><path d="m33.034 33.824c-.172 0-.341-.09-.433-.25-.139-.239-.057-.545.183-.683l4.618-2.666c.239-.139.546-.058.683.183.139.239.057.545-.183.683l-4.618 2.666c-.079.046-.165.067-.25.067z" fill="#ffc107" fill-opacity="1" data-original-color="#f6ca4aff" stroke="none" stroke-opacity="1"/><path d="m29.361 40.47c-.136 0-.27-.056-.367-.16-.158-.172-.178-.43-.045-.622l1.363-1.99-3.031 1.749c-.218.128-.499.071-.651-.134-.151-.204-.126-.488.059-.662l1.823-1.721-1.231.711c-.228.135-.524.063-.668-.159-.146-.222-.092-.519.121-.676l6.006-4.428-5.459 3.151c-.233.136-.53.061-.674-.167-.143-.229-.079-.529.144-.68l2.45-1.657-1.92 1.108c-.235.136-.531.061-.674-.168s-.079-.529.145-.68l2.621-1.765-2.092 1.207c-.197.115-.445.081-.605-.081-.16-.161-.19-.411-.075-.606l.961-1.621c-.237.129-.54.049-.676-.188-.139-.239-.057-.545.183-.683l1.645-.949c.196-.116.444-.082.605.081.16.161.19.411.075.606l-.96 1.621 12.969-7.488c.233-.137.53-.061.674.168.143.229.079.529-.145.68l-2.628 1.77 1.591-.918c.234-.135.531-.06.674.167.143.229.079.529-.144.68l-2.455 1.66 1.016-.586c.229-.133.524-.063.668.159.146.222.092.519-.121.676l-8.255 6.086c.035.026.066.059.095.096.151.204.126.488-.059.662l-1.824 1.722 1.231-.711c.202-.119.458-.078.617.093.158.172.178.43.045.622l-1.363 1.99.701-.404c.238-.139.545-.058.683.183.139.239.057.545-.183.683l-2.608 1.506c-.078.046-.164.067-.25.067z" fill="#ffc107" fill-opacity="1" data-original-color="#f6ca4aff" stroke="none" stroke-opacity="1"/><path d="m35.606 26.049c-.153 0-.304-.07-.401-.202-.151-.203-.126-.488.059-.662l3.151-2.966-1.287.743c-.217.125-.496.07-.648-.13s-.132-.483.048-.659l1.901-1.867-1.166.673c-.223.131-.509.068-.658-.145-.149-.211-.112-.501.084-.669l.254-.216c-.179.024-.364-.048-.476-.204-.15-.209-.116-.498.077-.667l.221-.193c-.197.071-.425.008-.559-.162-.154-.195-.142-.474.03-.653l1.268-1.337-1.279.738c-.208.121-.474.076-.63-.108-.157-.183-.16-.452-.009-.639l1.526-1.883-1.98 1.144c-.218.129-.502.069-.653-.138-.151-.206-.122-.492.066-.664l.22-.201-.43.248c-.218.128-.499.071-.651-.134-.151-.204-.126-.488.059-.662l.472-.446-.908.524c-.219.13-.505.068-.655-.141-.15-.208-.118-.496.073-.666l.082-.072-.595.343c-.217.13-.501.07-.652-.137-.151-.205-.124-.49.063-.663l.531-.49-1.468.847c-.212.123-.483.074-.64-.119-.154-.191-.146-.468.02-.649l1.48-1.63-4.437 2.562c-.24.139-.546.057-.683-.183-.139-.239-.057-.545.183-.683l7.213-4.164c.21-.125.482-.075.64.119.154.191.146.468-.02.649l-1.48 1.629 2.584-1.491c.22-.127.502-.069.652.137.151.205.124.49-.063.663l-.533.492.987-.569c.222-.129.506-.067.655.141.15.208.118.496-.073.666l-.08.071.328-.189c.218-.129.499-.07.651.134.151.204.126.488-.059.662l-.472.445.722-.416c.219-.128.503-.069.653.138.151.206.122.492-.066.664l-.218.199.323-.187c.207-.122.473-.077.63.108.157.183.16.452.009.639l-1.527 1.884 1.925-1.111c.213-.125.488-.073.643.123.154.195.142.474-.03.653l-1.268 1.337 1.33-.768c.221-.129.507-.068.656.142.15.209.116.498-.077.667l-.188.165c.222-.12.503-.061.65.149.149.211.112.501-.084.669l-.167.142c.193-.052.405.014.531.18.152.2.132.483-.048.659l-1.901 1.866 1.604-.925c.218-.128.498-.07.651.134.151.204.126.489-.059.663l-3.152 2.967 2.602-1.502c.237-.139.545-.058.683.183.139.239.057.545-.183.683l-6.326 3.652c-.078.046-.164.067-.25.067z" fill="#ffc107" fill-opacity="1" data-original-color="#f6ca4aff" stroke="none" stroke-opacity="1"/><path d="m17.997 23.496c-.145 0-.286-.062-.384-.18-.156-.188-.154-.459.003-.645l1.365-1.602-2.679 1.546c-.222.131-.508.066-.657-.143-.149-.21-.115-.499.08-.668l2.184-1.894-1.555.897c-.235.136-.531.06-.674-.168-.143-.229-.079-.528.145-.68l5.295-3.57-4.561 2.633c-.229.133-.524.062-.67-.161-.145-.224-.089-.521.127-.677l6.503-4.697-5.226 3.017c-.232.136-.529.062-.673-.166s-.081-.528.141-.68l1.204-.822c-.186.03-.38-.046-.493-.209-.148-.214-.107-.506.095-.671l2.77-2.27c-.127-.031-.241-.113-.312-.235-.139-.239-.057-.545.183-.683l4.27-2.465c.225-.131.513-.066.661.148s.107.506-.095.671l-2.102 1.722 5.619-3.243c.235-.134.529-.061.673.166.144.228.081.528-.141.68l-.853.582 2.264-1.307c.229-.135.523-.063.67.161.145.224.089.521-.127.677l-6.503 4.697 8.497-4.905c.233-.138.53-.061.674.168.143.229.079.528-.145.68l-10.964 7.393c.134.208.096.484-.094.648l-2.185 1.895.665-.384c.21-.123.478-.074.634.112.156.188.154.459-.003.645l-1.365 1.602.469-.271c.239-.14.546-.058.683.183.139.239.057.545-.183.683l-2.981 1.722c-.078.046-.164.067-.25.067z" fill="#ffc107" fill-opacity="1" data-original-color="#f6ca4aff" stroke="none" stroke-opacity="1"/><path d="m29.684 49.455c-.144 0-.286-.062-.384-.18-.155-.187-.155-.458.002-.644l.414-.489-1.393.804c-.219.13-.504.069-.654-.139-.15-.207-.121-.494.069-.665l.061-.055-.17.098c-.217.126-.494.071-.647-.129-.152-.199-.133-.481.045-.658l.662-.658-.405.233c-.212.125-.485.073-.64-.119s-.146-.469.021-.651l.581-.634c-.089-.042-.166-.11-.219-.202-.139-.239-.057-.545.183-.683l1.858-1.072c.212-.124.484-.073.64.119.154.192.146.469-.021.651l-.097.105.926-.534c.215-.127.494-.072.647.129.152.199.133.481-.045.658l-.659.655.938-.541c.22-.128.503-.069.654.139.15.207.121.494-.069.665l-.142.128c.178-.042.372.019.496.167.155.187.155.458-.002.644l-.677.799c.129.031.245.112.316.236.139.239.057.545-.183.683l-1.857 1.072c-.078.046-.164.067-.25.067z" fill="#ffc107" fill-opacity="1" data-original-color="#f6ca4aff" stroke="none" stroke-opacity="1"/></g><path d="m14.536 44.823c-.151 0-.3-.068-.397-.196-.152-.2-.133-.482.046-.659l.296-.293-.141.081c-.217.127-.494.072-.647-.13-.152-.199-.133-.481.046-.658l.393-.388-.133.076c-.222.129-.51.067-.658-.144-.149-.211-.113-.501.083-.669l3.458-2.96-3.438 1.984c-.228.135-.521.063-.668-.158-.146-.222-.093-.519.12-.677l2.052-1.518-1.896 1.094c-.227.132-.517.065-.664-.151-.146-.217-.102-.511.104-.674l5.057-3.999c-.178.016-.32-.073-.418-.213-.149-.212-.111-.503.087-.67l1.414-1.188c-.139-.007-.273-.07-.366-.185-.155-.189-.149-.464.014-.647l2.005-2.255-1.014.585c-.207.121-.474.076-.63-.107s-.16-.451-.01-.639l1.467-1.819-1.147.662c-.214.126-.49.072-.645-.126-.153-.197-.138-.478.037-.656l.439-.45-.271.156c-.202.118-.458.079-.618-.095-.158-.172-.176-.432-.042-.623l1.147-1.65-1.502.867c-.214.126-.489.072-.645-.125-.153-.196-.139-.476.035-.655l.25-.258-.455.262c-.214.126-.491.072-.645-.126-.153-.197-.138-.478.037-.656l.19-.194-.553.318c-.213.125-.488.073-.643-.123-.153-.194-.142-.473.029-.653l.374-.395-1.046.604c-.217.126-.495.071-.647-.129s-.133-.481.045-.659l.232-.229-1.212.699c-.218.129-.501.071-.653-.137-.15-.206-.122-.493.065-.665l.058-.053-1.847 1.066c-.239.138-.546.057-.683-.183-.139-.239-.057-.545.183-.683l5.821-3.361c.219-.128.502-.07.653.137.15.206.122.493-.066.665l-.057.052.581-.335c.215-.127.494-.072.647.129.152.2.133.481-.045.659l-.234.231.681-.393c.213-.125.488-.072.643.123.153.194.142.473-.029.653l-.374.395.731-.422c.215-.126.49-.072.645.126.153.197.138.478-.037.656l-.19.194.387-.223c.215-.125.489-.071.645.125.153.196.139.476-.035.655l-.249.258.354-.204c.201-.118.458-.079.618.095.158.172.176.432.042.623l-1.147 1.65 1.474-.851c.214-.126.491-.072.645.126.153.197.138.478-.037.656l-.44.451.329-.189c.206-.122.473-.077.63.107.156.183.16.451.01.639l-1.467 1.819 1.371-.791c.21-.123.482-.074.638.117.155.189.149.464-.014.647l-2.003 2.253 1.628-.94c.222-.13.51-.066.659.146s.111.503-.087.67l-1.076.904.438-.252c.224-.133.516-.065.664.151.146.217.102.511-.104.674l-4.719 3.731 3.577-2.064c.229-.133.522-.062.668.158.146.222.093.519-.12.677l-2.053 1.519.505-.291c.224-.13.51-.067.658.144.149.211.113.501-.083.669l-4.214 3.607c.086.032.163.088.222.165.152.199.133.481-.046.658l-.394.389.133-.076c.215-.128.494-.071.647.129.152.2.133.482-.046.659l-.297.293.025-.014c.237-.14.545-.058.683.183.139.239.057.545-.183.683l-3.384 1.953c-.078.046-.164.067-.25.067z" fill="#23b0e2" fill-opacity="1" data-original-color="#23b0e2ff" stroke="none" stroke-opacity="1"/><path d="m3.18 35.098c-.134 0-.266-.054-.362-.156-.159-.167-.183-.422-.057-.616l.843-1.299-1.687.974c-.211.123-.482.074-.638-.117-.155-.19-.149-.465.015-.647l1.251-1.405-1.067.615c-.217.126-.498.07-.648-.131-.152-.201-.131-.484.05-.66l1.109-1.077-.688.396c-.218.13-.501.07-.652-.137-.151-.205-.124-.491.063-.663l3.178-2.931-2.46 1.42c-.226.133-.52.064-.665-.154-.146-.219-.099-.514.109-.674l5.938-4.585-4.541 2.621c-.219.13-.505.069-.655-.14-.15-.208-.119-.496.073-.666l3.055-2.721c-.204.045-.423-.049-.532-.24-.139-.239-.057-.545.183-.683l3.983-2.299c.222-.13.506-.067.655.14.15.208.119.496-.073.666l-2.957 2.634 6.769-3.907c.227-.133.519-.064.665.154s.099.514-.109.674l-5.972 4.61c.208-.078.449-.016.585.17.151.205.124.491-.063.663l-3.176 2.929.276-.159c.216-.129.497-.07.648.131.152.201.131.484-.05.66l-1.111 1.079.265-.152c.211-.124.482-.074.638.117.155.19.149.465-.015.647l-1.25 1.404.805-.464c.2-.117.454-.079.612.089.159.167.183.422.057.616l-.844 1.3.187-.107c.238-.14.545-.058.683.183.139.239.057.545-.183.683l-1.989 1.148c-.078.046-.164.067-.25.067z" fill="#23b0e2" fill-opacity="1" data-original-color="#23b0e2ff" stroke="none" stroke-opacity="1"/><path d="m18.262 52.466c-.134 0-.266-.054-.363-.156-.159-.168-.182-.423-.056-.616l.641-.984-1.572.907c-.191.108-.43.082-.592-.067-.16-.15-.204-.388-.107-.585l.821-1.677-.236.137c-.24.138-.544.056-.683-.183s-.057-.545.183-.683l1.658-.958c.189-.11.43-.083.591.067s.205.388.108.585l-.822 1.678 1.959-1.131c.2-.117.453-.079.613.089.159.168.182.423.056.616l-.663 1.019c.209-.05.441.037.555.235.139.239.057.545-.183.683l-1.657.957c-.078.046-.164.067-.25.067z" fill="#23b0e2" fill-opacity="1" data-original-color="#23b0e2ff" stroke="none" stroke-opacity="1"/><path d="m41.708 52.465c-.133 0-.264-.053-.361-.154-.159-.166-.185-.42-.061-.614l.667-1.049-1.621.936c-.191.109-.433.081-.593-.068-.161-.152-.203-.391-.104-.588l.814-1.625-.208.119c-.24.138-.546.056-.683-.183-.139-.239-.057-.545.183-.683l1.651-.953c.19-.112.433-.082.593.068.161.152.203.391.104.588l-.814 1.625 1.943-1.121c.199-.116.45-.081.611.087.159.166.185.42.061.614l-.681 1.07c.216-.067.465.019.586.227.138.239.056.545-.184.684l-1.654.954c-.078.045-.164.066-.25.066z" fill="#23b0e2" fill-opacity="1" data-original-color="#23b0e2ff" stroke="none" stroke-opacity="1"/><path d="m21.596 22.175c-.004.014-.003.027-.008.041.013-.037.013-.047.008-.041z" fill="#262626" fill-opacity="1" data-original-color="#262626ff" stroke="none" stroke-opacity="1"/><path d="m30.711 43.712c-4.986-1.566-6.11 6.691-.628 5.626 2.953-.419 3.668-4.741.628-5.626zm-.196 4.574c-.02.017-.509.257-.509.257-2.017.308-3.094-2.68-1.489-3.857.075-.1.615-.271.478-.231 1.973-.31 3.082 2.634 1.52 3.831z" fill="#262626" fill-opacity="1" data-original-color="#262626ff" stroke="none" stroke-opacity="1"/><path d="m18.564 47.566c-2.225-.236-4.198 2.59-2.287 4.257 3.382 2.783 7.166-3.74 2.287-4.257zm-.504 3.927c-.031-.008-.02-.006 0 0zm1.361-.828c-.129.397-.397.755-.773.877-1.564.266-2.38-2.397-.867-3.073 1.135-.228 2.009 1.18 1.64 2.196z" fill="#262626" fill-opacity="1" data-original-color="#262626ff" stroke="none" stroke-opacity="1"/><path d="m46.231 44.272c.512-.783.736-1.868.99-2.83 19.841-.109 13.58-29.583-4.527-21.581-.983-15.537-25.163-16.133-27.179-.793-8.497-2.906-18.798 6.734-14.22 15.256 1.049 1.098 3.02.921 4.063-.097 1.454-1.42.191-3.556.439-5.303 1.435-9.057 14.139-5.715 12.288 2.732-.13 4.214-6.629 3.84-6.011 7.81.912 1.875.684 6.201 3.714 5.441 3.5-.47 3.467-2.412 2.133-5.19 5.921-3.222 7.743-11.721 3.29-16.876 0-.005.004-.009.004-.014 1.684-18.777 23.997-5.244 11.12 5.021-8.795 1.375-5.577 4.035-6.059 11.258.174 1.675 2.216 1.294 3.431 1.294 4.131.547 2.843-3.973 3.018-6.595 2.548-.764 4.762-2.214 6.457-4.097 1.92.163 2.818-1.569 3.427-3.103 4.907-8.244 16.343 1.768 9.708 8.198-1.683 1.757-4.146 1.9-6.365 1.315-2.954-1.37-6.334 7.774-3.728 8.347 1.217.453 3.098 1.2 4.006-.192zm-29.4-4.906c-1.367.881 1.511 3.301.126 4.338-2.793 1.919-2.641-3.161-3.483-4.786-.419-2.196 2.467-2.152 3.6-3.447 7.876-6.687-3.31-17.75-10.405-10.765-4.338 3.621-.726 7.825-2.783 9.378-2.113.797-2.213-3.799-2.131-4.957 4.008-21.575 32.606-2.057 15.077 10.24zm15.076-6.064c-1.688 1.156.135 4.67-.844 6.299-.776.093-1.754.01-2.555 0-1.484-.193-.859-8.372-.498-9.708 4.005-1.01 8.789-2.5 9.557-7.407 1.93-12.535-17.684-13.058-17.309-.689-.97-.944-2.15-1.745-3.413-2.261.592-7.117 7.682-12.736 14.745-10.782 12.336 2.723 12.803 21.738.318 24.548zm9.001-5.965c-.142.295-.299.572-.484.805.175-.26.327-.534.484-.805zm2.679 16.375c-2.294-.932.441-4.331.63-6.054.581-1.018 2.514-.204 3.522-.191 3.579.044 6.92-2.345 7.793-5.858 2.063-8.027-9.426-12.446-13.849-5.813.643-1.522.997-3.157 1.025-4.831 16.239-7.989 22.443 20.087 4.211 19.449-2.196-.076-.613 4.93-3.333 3.299z" fill="#262626" fill-opacity="1" data-original-color="#262626ff" stroke="none" stroke-opacity="1"/><path d="m40.132 48.117c-3.932 2.973 2.753 6.496 4.177 2.397.716-2.409-2.416-3.717-4.177-2.397zm2.432 3.121c-.137.148-.689.351-.738.35-1.318-.169-1.884-1.971-.974-2.902.06-.07.423-.359.673-.275 1.027.03 1.969 1.812 1.039 2.827z" fill="#262626" fill-opacity="1" data-original-color="#262626ff" stroke="none" stroke-opacity="1"/></g></svg>