<svg id="Icons" viewBox="0 0 60 60" xmlns="http://www.w3.org/2000/svg" width="300" height="300" version="1.1" xmlns:xlink="http://www.w3.org/1999/xlink" xmlns:svgjs="http://svgjs.dev/svgjs"><g width="100%" height="100%" transform="matrix(1,0,0,1,0,0)"><path d="m30.256 59.467c-.168 0-.331-.085-.426-.237-.142-.23-.075-.532.151-.681l6.616-4.34-8.913 5.146c-.236.136-.532.061-.675-.169-.143-.229-.077-.53.147-.68l9.332-6.227-11.953 6.901c-.234.137-.534.061-.677-.172-.142-.231-.072-.533.155-.681l7.08-4.583-9.01 5.201c-.236.138-.536.061-.678-.174-.141-.232-.07-.535.159-.681l3.929-2.498-5.37 3.101c-.235.136-.532.061-.675-.169s-.077-.53.148-.68l9.089-6.043-11.164 6.445c-.236.139-.536.06-.678-.174-.141-.232-.07-.535.16-.681l2.443-1.551-3.566 2.059c-.232.137-.53.062-.674-.167-.143-.229-.079-.528.144-.68l9.224-6.254-11.175 6.451c-.233.136-.529.062-.673-.166s-.081-.527.141-.68l8.688-5.938-10.435 6.024c-.235.136-.533.061-.675-.169-.143-.229-.077-.53.147-.68l6.012-4.009-7.184 4.147c-.236.135-.531.06-.674-.168s-.079-.528.144-.679l5.846-3.947-6.887 3.976c-.23.136-.525.062-.671-.163-.145-.225-.086-.522.132-.678l6.91-4.903-7.997 4.616c-.236.135-.534.061-.675-.169-.143-.23-.076-.531.148-.681l1.562-1.036-1.869 1.079c-.229.135-.527.062-.671-.163-.145-.225-.086-.523.132-.678l4.094-2.897-4.361 2.518c-.233.135-.528.063-.672-.165-.144-.226-.084-.525.137-.678l1.671-1.163-1.429.824c-.232.135-.527.062-.671-.163-.145-.226-.086-.524.133-.679l.627-.441c-.2.06-.431-.018-.554-.203-.146-.219-.098-.514.111-.674l1.503-1.152c-.085-.042-.159-.108-.21-.197-.139-.239-.057-.545.183-.683l4.791-2.767c.227-.133.519-.064.666.155.146.219.098.514-.111.674l-.142.108 2.753-1.589c.233-.136.528-.062.671.163.145.226.086.524-.133.679l-.494.348 2.061-1.189c.232-.136.528-.062.672.165.144.226.084.525-.137.678l-1.671 1.163 3.476-2.006c.232-.136.527-.062.671.163.145.225.086.523-.132.678l-4.089 2.894 6.471-3.735c.233-.137.533-.062.675.169.143.23.076.531-.148.681l-1.569 1.041 3.274-1.891c.23-.135.525-.062.671.163.145.225.086.522-.132.678l-6.909 4.903 9.949-5.744c.233-.137.53-.062.674.168.143.228.079.528-.144.679l-5.844 3.946 8.302-4.793c.234-.137.531-.062.675.169.143.229.077.53-.147.68l-6.012 4.008 8.413-4.856c.233-.135.53-.062.673.166.144.228.081.527-.141.68l-8.689 5.938 11.75-6.783c.234-.135.531-.062.674.167s.079.528-.144.68l-9.23 6.259 12.309-7.105c.237-.136.537-.059.678.174s.07.535-.16.681l-2.414 1.532 4.136-2.388c.234-.137.532-.062.675.169.143.229.077.53-.148.68l-9.095 6.047 11.944-6.896c.237-.137.537-.06.678.174.141.232.07.535-.159.681l-3.928 2.497 5.728-3.307c.234-.137.534-.061.677.172.142.231.072.533-.155.681l-7.076 4.581 8.313-4.8c.233-.137.531-.062.675.169.143.229.077.53-.147.68l-9.334 6.228 10.748-6.205c.235-.138.533-.06.676.17.142.23.075.532-.151.681l-6.617 4.341 7.539-4.353c.237-.136.536-.059.677.173.142.231.071.534-.157.681l-2.32 1.488 2.791-1.611c.233-.137.531-.062.675.169.143.229.077.531-.148.681l-5.054 3.356 5.541-3.199c.233-.135.528-.062.672.164.144.227.084.525-.136.679l-5.774 4.021 6.028-3.48c.234-.136.531-.062.674.167s.079.528-.144.68l-1.579 1.07 1.215-.701c.227-.134.519-.064.667.156.146.22.096.516-.115.675l-2.163 1.639.872-.503c.238-.141.545-.058.683.183.139.239.057.545-.183.683l-7.809 4.509c-.229.134-.52.063-.667-.156-.146-.22-.096-.516.115-.675l2.167-1.642-6.306 3.64c-.233.137-.53.062-.674-.167-.143-.229-.079-.528.144-.68l1.566-1.062-4.212 2.432c-.229.136-.528.062-.672-.164-.144-.227-.084-.525.136-.679l5.778-4.024-9.147 5.281c-.236.136-.532.061-.675-.169s-.077-.531.148-.681l5.059-3.359-7.58 4.376c-.235.138-.535.06-.677-.173-.142-.231-.071-.534.157-.681l2.313-1.483-4.128 2.383c-.079.046-.165.067-.25.067z" fill="#ea1212" fill-opacity="1" data-original-color="#1289eaff" stroke="none" stroke-opacity="1"/><path d="m22.2 31.009c-.115 0-.229-.04-.322-.117-.161-.136-.22-.357-.147-.556l.151-.409-.602.347c-.194.111-.438.082-.598-.073-.161-.156-.198-.399-.093-.596l.833-1.55-2.004 1.155c-.214.126-.492.072-.646-.127-.153-.197-.137-.478.039-.656l.856-.872-1.566.904c-.219.13-.504.069-.655-.141-.15-.208-.118-.496.073-.666l.97-.86-1.645.949c-.224.132-.512.067-.66-.147-.148-.213-.108-.505.092-.67l1.245-1.031-1.946 1.123c-.222.131-.51.067-.659-.145-.148-.212-.111-.502.086-.67l2.732-2.315-3.799 2.193c-.226.131-.518.064-.663-.151-.147-.216-.103-.51.102-.673l3.226-2.564-4.276 2.469c-.226.134-.518.063-.664-.153-.147-.217-.101-.512.106-.673l4.364-3.413-5.584 3.224c-.227.134-.519.065-.665-.154-.146-.218-.099-.513.109-.674l5.755-4.45-7.065 4.078c-.228.132-.521.064-.667-.157s-.095-.517.117-.676l6.633-4.967-6.328 3.653c-.228.134-.521.063-.668-.158-.146-.222-.093-.519.12-.676l5.727-4.24-5.304 3.062c-.227.136-.523.064-.669-.159-.145-.223-.091-.52.123-.677l3.804-2.786-3.279 1.893c-.227.131-.516.064-.663-.15-.147-.217-.104-.51.101-.673l3.967-3.168-3.331 1.923c-.227.133-.518.064-.666-.154-.146-.22-.098-.515.111-.675l1.486-1.141-.809.466c-.224.132-.513.065-.661-.147-.147-.214-.107-.505.093-.671l1.138-.94-.379.219c-.22.13-.507.069-.657-.143-.149-.209-.115-.498.079-.667l.51-.443c-.11-.008-.217-.053-.303-.131-.161-.148-.207-.385-.113-.582l.751-1.587c-.09-.042-.169-.11-.223-.203-.138-.239-.056-.545.184-.684l.766-.441c.189-.109.428-.083.589.066.161.147.207.384.113.581l-.59 1.247 2.49-1.438c.221-.128.507-.068.657.143.149.209.115.498-.079.667l-.173.15 1.053-.607c.223-.131.513-.067.66.147.148.214.108.505-.092.671l-1.143.943 2.225-1.283c.226-.133.519-.065.666.154.146.22.098.515-.111.675l-1.483 1.139 2.491-1.438c.225-.133.515-.065.663.15.147.217.104.51-.101.673l-3.968 3.169 5.491-3.17c.229-.133.524-.063.669.159s.091.52-.123.677l-3.799 2.782 4.943-2.854c.229-.134.522-.062.668.158.146.222.093.519-.12.676l-5.728 4.241 5.983-3.454c.227-.134.521-.065.667.157.146.221.095.517-.117.676l-6.636 4.969 6.229-3.596c.227-.133.519-.065.665.154.146.218.099.513-.109.674l-5.754 4.449 5.34-3.082c.227-.133.518-.064.664.153.147.217.101.512-.106.673l-4.364 3.413 3.935-2.271c.225-.134.517-.065.663.151.147.216.103.51-.102.673l-3.226 2.564 2.779-1.604c.22-.13.509-.067.659.145.148.212.111.502-.086.67l-2.733 2.315 2.278-1.314c.223-.132.512-.067.66.147.148.213.108.505-.092.67l-1.246 1.032.769-.443c.221-.128.506-.068.655.141.15.208.118.496-.073.666l-.967.857.475-.273c.215-.126.492-.071.646.126.153.198.137.479-.039.657l-.859.875.348-.2c.194-.113.438-.084.598.074.161.155.198.398.093.595l-.832 1.549.274-.158c.184-.105.41-.085.572.05.161.136.22.357.147.556l-.237.645c.116.036.219.114.284.228.139.238.057.545-.183.683l-.711.411c-.077.045-.164.067-.25.067z" fill="#9ad359" fill-opacity="1" data-original-color="#9ad359ff" stroke="none" stroke-opacity="1"/><path d="m37.048 31.227c-.167 0-.33-.084-.425-.236-.143-.229-.077-.53.147-.68l1.815-1.211-1.199.692c-.23.135-.527.062-.672-.164-.144-.226-.084-.524.135-.678l5.416-3.794-4.757 2.746c-.232.137-.529.062-.673-.166s-.081-.527.141-.68l3.828-2.615-3.191 1.842c-.235.136-.531.061-.674-.168-.143-.228-.079-.528.144-.679l2.852-1.927-2.225 1.284c-.23.136-.526.062-.672-.164-.144-.226-.084-.524.135-.678l5.122-3.593-4.465 2.577c-.235.135-.534.062-.675-.17-.143-.229-.076-.53.148-.68l.584-.386c-.226.113-.504.043-.645-.172-.146-.222-.093-.519.12-.676l6.812-5.05-6.112 3.528c-.233.135-.527.062-.671-.163-.145-.226-.086-.524.133-.678l4.386-3.094-3.731 2.154c-.232.137-.529.061-.673-.165-.144-.228-.082-.527.139-.68l2.685-1.85-2.053 1.185c-.232.137-.529.062-.673-.166s-.081-.527.141-.68l1.017-.694-.399.229c-.229.133-.521.064-.667-.157s-.095-.518.117-.676l1.328-.993-.686.396c-.214.125-.488.073-.643-.123-.154-.195-.141-.474.03-.654l.44-.464c-.17-.002-.336-.092-.427-.25-.139-.239-.057-.545.183-.683l2.568-1.483c.214-.125.488-.072.643.123s.141.474-.03.654l-.273.287 4.988-2.879c.227-.134.521-.063.667.157s.095.518-.117.676l-1.326.991 4.437-2.561c.234-.134.53-.061.673.166.144.228.081.527-.141.68l-1.013.692 1.545-.892c.232-.135.53-.061.673.165.144.228.082.527-.139.68l-2.688 1.853 2.455-1.417c.232-.135.527-.062.671.163.145.226.086.524-.133.678l-4.385 3.093 4.133-2.386c.229-.133.522-.062.668.158.146.222.093.519-.12.676l-6.811 5.049 6.537-3.774c.234-.138.533-.062.675.17.143.229.076.53-.148.68l-.581.385.152-.088c.229-.136.526-.062.672.164.144.226.084.524-.135.678l-5.12 3.592 4.667-2.694c.234-.135.53-.06.674.168.143.228.079.528-.144.679l-2.863 1.935 2.342-1.352c.234-.135.53-.061.673.166.144.228.081.527-.141.68l-3.821 2.61 3.242-1.871c.232-.135.526-.062.672.164.144.226.084.524-.135.678l-5.409 3.789 4.721-2.726c.233-.137.532-.062.675.169.143.229.077.53-.147.68l-1.824 1.216 1.137-.655c.239-.14.545-.057.683.183.139.239.057.545-.183.683l-14.555 8.403c-.079.046-.165.067-.25.067z" fill="#9ad359" fill-opacity="1" data-original-color="#9ad359ff" stroke="none" stroke-opacity="1"/><path d="m28.874 48.244c-.161 0-.319-.078-.415-.222-.147-.218-.099-.513.109-.674l1.459-1.13-2.144 1.237c-.227.134-.518.063-.664-.152-.147-.218-.101-.512.105-.674l4.489-3.521-5.274 3.045c-.233.137-.529.061-.673-.165-.144-.228-.082-.526.139-.679l1.954-1.349-2.168 1.252c-.23.133-.525.062-.669-.16-.146-.224-.09-.521.125-.677l6.379-4.636-6.855 3.958c-.229.136-.527.062-.671-.163-.145-.225-.086-.523.132-.678l7.193-5.085-7.563 4.367c-.235.136-.532.061-.675-.169-.143-.229-.077-.53.147-.68l4.788-3.193-4.896 2.827c-.234.136-.531.06-.674-.168s-.079-.528.144-.679l7.291-4.925-7.469 4.312c-.235.137-.533.06-.676-.17-.142-.23-.075-.532.151-.681l5.796-3.806-5.852 3.378c-.235.135-.532.06-.674-.168-.143-.229-.079-.528.145-.679l8.96-6.047-9.119 5.265c-.235.137-.534.061-.677-.171-.142-.231-.073-.533.154-.681l5.323-3.46-5.303 3.062c-.235.135-.531.06-.674-.168s-.079-.528.144-.679l9.568-6.462-9.69 5.594c-.236.136-.531.061-.674-.168s-.079-.528.145-.68l9.599-6.472-9.69 5.594c-.232.137-.528.062-.673-.166-.144-.228-.081-.527.141-.68l10.601-7.242-10.715 6.186c-.235.135-.533.061-.675-.17-.143-.229-.076-.53.149-.68l7.804-5.16-7.771 4.486c-.233.137-.529.062-.674-.167-.143-.228-.08-.527.143-.679l10.082-6.857-10.118 5.842c-.236.138-.535.06-.678-.173-.141-.232-.07-.535.159-.682l2.345-1.495-2.001 1.154c-.232.137-.528.062-.673-.167-.144-.228-.081-.527.141-.679l9.689-6.61-8.789 5.074c-.235.136-.531.06-.674-.168-.143-.229-.079-.528.145-.679l7.647-5.161-6.64 3.833c-.235.136-.534.061-.675-.169-.143-.229-.076-.531.148-.681l4.839-3.209-3.8 2.193c-.235.137-.533.061-.676-.171-.142-.229-.074-.531.151-.68l2.367-1.552-1.297.748c-.236.136-.532.061-.675-.169s-.077-.53.147-.68l2.741-1.824-1.538.888c-.229.136-.527.062-.671-.163-.145-.225-.086-.522.132-.678l5.402-3.83-3.723 2.148c-.228.133-.521.063-.666-.156-.146-.22-.097-.516.114-.675l5.426-4.116-3.137 1.811c-.222.132-.51.067-.659-.146-.148-.212-.111-.502.087-.669l4.315-3.645-1.036.598c-.218.128-.499.071-.651-.135-.151-.203-.126-.488.059-.662l3.228-3.031c-.129-.237-.046-.536.189-.672l1.416-.817c.217-.127.499-.071.651.135.151.203.126.488-.059.662l-1.592 1.495 2.155-1.244c.224-.13.511-.065.659.146.148.212.111.502-.087.669l-4.314 3.645 5.174-2.987c.226-.134.52-.064.666.156s.097.516-.114.675l-5.425 4.115 6.108-3.526c.229-.136.527-.062.671.163.145.225.086.522-.132.678l-5.406 3.834 5.878-3.394c.234-.138.531-.061.675.169.143.229.077.53-.147.68l-2.736 1.82 2.928-1.689c.235-.136.533-.06.676.171.142.229.074.531-.151.68l-2.361 1.548 2.496-1.44c.233-.137.533-.062.675.169.143.229.076.531-.148.681l-4.849 3.216 5.055-2.918c.233-.137.53-.061.674.168.143.229.079.528-.145.679l-7.646 5.16 7.949-4.589c.234-.135.53-.062.673.167.144.228.081.527-.141.679l-9.692 6.612 10.038-5.795c.237-.137.536-.059.678.173.141.232.07.535-.159.682l-2.326 1.483 2.295-1.324c.235-.135.53-.062.674.167.143.228.08.527-.143.679l-10.082 6.857 10.308-5.951c.233-.137.533-.062.675.17.143.229.076.53-.149.68l-7.813 5.166 7.854-4.533c.233-.135.529-.062.673.166s.081.527-.141.68l-10.599 7.241 10.688-6.171c.233-.137.53-.061.674.168.143.229.079.528-.145.68l-9.6 6.473 9.562-5.52c.234-.138.531-.061.674.168.143.228.079.528-.144.679l-9.561 6.457 9.443-5.452c.235-.136.534-.06.677.171.142.231.073.533-.154.681l-5.324 3.461 5.047-2.914c.233-.137.53-.062.674.168.143.229.079.528-.145.679l-8.967 6.052 8.571-4.948c.236-.137.533-.06.676.17.142.23.075.532-.151.681l-5.79 3.802 4.683-2.703c.233-.137.53-.061.674.168.143.228.079.528-.144.679l-7.293 4.925 6.021-3.476c.233-.138.531-.061.675.169.143.229.077.53-.147.68l-4.782 3.189 3.575-2.064c.229-.135.527-.062.671.163.145.225.086.523-.132.678l-7.192 5.084 5.673-3.275c.228-.136.524-.062.669.16.146.224.09.521-.125.677l-6.381 4.637 4.712-2.72c.234-.135.529-.061.673.165.144.228.082.526-.139.679l-1.961 1.353.595-.343c.227-.133.518-.064.664.152.147.218.101.512-.105.674l-4.489 3.52 2.424-1.398c.227-.133.519-.064.665.154s.099.513-.109.674l-1.739 1.347c.186-.011.376.074.476.248.139.239.057.545-.183.683l-5.906 3.409c-.078.046-.165.067-.25.067z" fill="#a9ea65" fill-opacity="1" data-original-color="#a9ea65ff" stroke="none" stroke-opacity="1"/><path d="m30.051 45.425c-.17 0-.335-.087-.429-.243-.141-.234-.067-.537.165-.682l2.035-1.264-1.451.837c-.235.137-.535.061-.677-.172-.142-.231-.072-.534.156-.681l11.51-7.421-10.746 6.204c-.235.136-.535.061-.677-.172-.142-.232-.072-.534.156-.682l11.202-7.212-10.25 5.918c-.238.137-.539.058-.679-.175-.141-.234-.067-.537.164-.682l3.153-1.968-2.188 1.263c-.234.136-.533.061-.674-.168-.143-.229-.079-.529.145-.68l11.052-7.434-9.324 5.382c-.235.136-.532.061-.674-.168-.143-.228-.079-.528.145-.679l5.991-4.045-3.8 2.193c-.228.132-.521.064-.667-.157s-.095-.517.117-.676l3.969-2.977c-.144-.023-.275-.108-.354-.244-.139-.239-.057-.545.183-.683l6.131-3.54c.227-.134.521-.064.667.157s.095.517-.117.676l-3.221 2.416 8.928-5.154c.233-.137.53-.061.674.168.143.228.079.528-.145.679l-6 4.051 9.614-5.55c.234-.137.531-.061.674.168s.079.529-.145.68l-11.05 7.433 14.801-8.544c.236-.138.537-.059.679.175.141.234.067.537-.164.682l-3.139 1.959 2.896-1.672c.235-.137.535-.061.677.172s.072.534-.156.682l-11.203 7.212 10.517-6.071c.235-.137.536-.061.677.172.142.231.072.534-.156.681l-11.514 7.423 10.647-6.146c.237-.139.537-.06.679.176.141.234.067.537-.165.682l-2.033 1.263 1.177-.679c.239-.14.546-.057.683.183.139.239.057.545-.183.683l-28.033 16.185c-.079.046-.165.067-.25.067z" fill="#8dbc51" fill-opacity="1" data-original-color="#8dbc51ff" stroke="none" stroke-opacity="1"/><path d="m30.646 48.47c-.168 0-.331-.085-.426-.238-.142-.229-.074-.531.151-.68l12.239-8.025-15.374 8.876c-.207.121-.473.075-.629-.106-.157-.183-.162-.45-.012-.638l1.281-1.605-3.739 2.158c-.217.126-.496.07-.649-.132-.151-.201-.13-.484.052-.66l2.92-2.826-5.333 3.078c-.227.135-.523.063-.669-.159-.145-.223-.091-.52.123-.677l1.229-.899-2.263 1.306c-.228.136-.521.063-.668-.158-.146-.222-.093-.518.12-.676l2.93-2.175-4.136 2.388c-.227.134-.519.065-.665-.154-.146-.218-.099-.513.109-.674l5.256-4.065-6.835 3.945c-.232.137-.529.062-.673-.166s-.081-.527.141-.68l2.037-1.394-2.737 1.58c-.23.137-.529.062-.673-.165-.144-.228-.082-.526.139-.679l3.267-2.254-4.016 2.318c-.235.135-.532.061-.675-.169s-.077-.53.147-.68l1.378-.919-1.864 1.076c-.235.136-.532.061-.675-.169-.143-.229-.077-.529.146-.68l2.106-1.408-2.589 1.494c-.235.136-.533.061-.676-.17-.142-.229-.075-.531.15-.68l1.196-.79-1.561.9c-.227.135-.523.063-.669-.16s-.091-.52.124-.677l7.164-5.221-8.095 4.673c-.229.134-.525.062-.67-.161s-.089-.521.127-.677l6.921-4.996-7.667 4.427c-.23.137-.529.062-.673-.166s-.081-.527.14-.679l4.417-3.029-4.783 2.762c-.235.137-.535.061-.676-.171-.142-.23-.074-.531.152-.68l.192-.126-.266.152c-.235.136-.532.06-.674-.168-.144-.229-.079-.529.146-.68l2.35-1.578-2.482 1.433c-.229.134-.525.062-.67-.161s-.089-.521.128-.677l5.567-4.015-5.888 3.398c-.228.134-.522.064-.669-.16-.146-.223-.091-.52.124-.676l5.12-3.741-5.327 3.075c-.227.134-.519.065-.666-.155-.146-.219-.098-.514.111-.674l5.165-3.964-5.337 3.08c-.228.134-.521.064-.667-.157-.146-.22-.095-.517.116-.675l3.416-2.568-3.37 1.945c-.23.134-.525.062-.67-.161s-.089-.521.127-.677l1.062-.768-.844.486c-.225.131-.516.066-.662-.149-.147-.216-.105-.509.099-.673l2.212-1.784-1.984 1.146c-.217.125-.495.07-.647-.13-.153-.2-.133-.482.047-.659l2.074-2.042-1.771 1.022c-.209.123-.477.075-.633-.111s-.156-.458 0-.644l.882-1.047-.406.234c-.179.104-.398.087-.561-.04-.16-.127-.228-.34-.169-.536l.244-.813c-.106-.039-.199-.113-.26-.219-.139-.239-.057-.545.183-.684l.591-.341c.18-.1.399-.086.561.041.16.127.228.34.169.536l-.168.562 1.784-1.03c.208-.122.476-.074.634.111.155.187.155.458 0 .644l-.881 1.046 2.696-1.557c.215-.128.494-.071.647.13.153.2.133.482-.047.659l-2.074 2.042 4.16-2.402c.224-.131.514-.066.662.149.147.216.105.509-.099.673l-2.216 1.787 3.729-2.152c.231-.135.524-.063.67.161.145.223.089.521-.127.677l-1.061.767 2.058-1.188c.227-.134.521-.064.667.157s.095.517-.116.675l-3.414 2.566 4.79-2.765c.227-.132.518-.066.666.155.146.219.098.514-.111.674l-5.163 3.963 6.785-3.917c.229-.134.523-.063.669.16s.091.52-.124.676l-5.121 3.742 6.388-3.688c.229-.135.523-.063.67.161.145.224.089.521-.128.677l-5.562 4.012 6.689-3.862c.233-.137.532-.061.674.168.144.229.079.529-.146.68l-2.355 1.582 2.919-1.685c.236-.136.534-.06.676.171s.074.531-.152.68l-.19.125.539-.311c.233-.135.529-.062.673.166s.081.527-.14.679l-4.417 3.029 5.01-2.893c.229-.135.524-.063.67.161.145.224.089.521-.127.677l-6.923 4.997 7.726-4.46c.229-.133.523-.062.669.16.146.223.091.52-.124.677l-7.162 5.22 7.845-4.529c.233-.137.532-.062.676.17.142.229.075.531-.15.68l-1.196.79 1.283-.74c.233-.138.531-.061.675.168.143.229.077.53-.146.681l-2.114 1.414 2.186-1.262c.233-.137.531-.062.675.169.143.229.077.53-.147.68l-1.377.918 1.362-.786c.234-.135.53-.061.673.165.144.228.082.526-.139.679l-3.265 2.252 3.271-1.888c.234-.135.53-.061.673.166.144.228.081.527-.141.68l-2.044 1.398 1.936-1.117c.227-.133.519-.065.665.154.146.218.099.513-.109.674l-5.252 4.062 5.247-3.029c.229-.133.523-.062.668.158.146.222.093.518-.12.676l-2.936 2.179 2.701-1.559c.229-.133.523-.063.669.159.145.223.091.52-.123.677l-1.225.897.874-.505c.216-.128.496-.072.649.132.151.201.13.484-.052.66l-2.919 2.826 2.521-1.455c.206-.123.472-.076.629.106s.162.45.012.638l-1.281 1.605 28.334-16.358c.235-.137.533-.061.676.171.142.229.074.531-.151.68l-12.243 8.028 10.614-6.128c.233-.138.533-.062.675.17.143.229.076.53-.148.68l-8.852 5.857 6.805-3.929c.229-.136.524-.063.67.161.145.224.089.521-.128.677l-7.812 5.634 4.03-2.326c.238-.14.545-.058.683.183.139.239.057.545-.183.683l-12.586 7.267c-.23.134-.525.062-.67-.161s-.089-.521.128-.677l7.811-5.633-12.447 7.187c-.235.135-.533.062-.675-.17-.143-.229-.076-.53.148-.68l8.856-5.86-11.665 6.734c-.079.046-.165.067-.25.067z" fill="#8dbc51" fill-opacity="1" data-original-color="#8dbc51ff" stroke="none" stroke-opacity="1"/><g fill="#262626"><path d="m59.634 21.855c-2.122-.847-5.146.223-7.295.333.542-15.156 2.086-18.319-13.547-11.499-7.844-12.753-9.303-12.826-17.321-.153-15.402-6.932-14.456-2.956-13.858 11.606-1.851-.017-5.902-1.387-7.329.158.059 8.562 4.443 16.403 11.122 21.166-7.92 2.328-12.068 8.488-2.492 12.359 9.695 3.871 20.623 4.096 30.868 2.764 10.206-.493 26.839-9.439 8.891-15.334 6.727-4.788 11.31-13.132 10.961-21.401zm-10.086-14.055c2.329 2.059 1.714 11.126 1.358 14.636-2.576.489-5.109 1.218-7.515 2.263-.626-4.739-2.094-9.331-4.335-13.522 3.299-1.63 6.841-2.861 10.492-3.377zm-22.253-3.648c.822-.937 1.629-1.745 2.526-2.641 6.782 6.1 11.039 14.809 12.165 23.839-5.77 2.743-10.63 7.922-11.946 14.352-1.261-6.496-6.08-11.884-12.045-14.565.93-7.72 4.152-15.14 9.3-20.984zm-18.341 8.458c.17-1.624.481-3.192.861-4.783 3.884.579 7.643 1.875 11.148 3.631-2.189 4.071-3.622 8.498-4.283 13.084-2.413-1.004-4.966-1.692-7.544-2.148-.461-3.239-.542-6.53-.182-9.784zm-5.136 19.435c-1.319-3.073-1.994-6.367-2.081-9.703 14.437-.341 29.168 9.626 27.533 25.345-10.717.712-21.314-5.691-25.452-15.642zm50.69 20.276c-8.927 7.746-22.928 6.715-34.033 5.693-9.178-.271-24.916-8.659-8.604-14.212 10.245 6.461 25.5 6.501 35.838.096 3.351 1.187 9.854 4.203 6.799 8.423zm-17.438-4.995c-2.105.322-4.223.294-6.345.288-1.78-15.813 12.997-25.87 27.549-25.221-.174 12.126-9.058 23.075-21.204 24.933z" fill="#262626" fill-opacity="1" data-original-color="#262626ff" stroke="none" stroke-opacity="1"/><path d="m30.727 26.92c-.608-1.946 1.538-21.416-1.454-17.841.607 1.947-1.539 21.416 1.454 17.841z" fill="#262626" fill-opacity="1" data-original-color="#262626ff" stroke="none" stroke-opacity="1"/><path d="m50.44 28.96c-4.997 3.768-12.292 9.41-14.749 14.022 5.49-4.013 9.763-10.34 15.869-13.942.542-.591-.917-.329-1.12-.08z" fill="#262626" fill-opacity="1" data-original-color="#262626ff" stroke="none" stroke-opacity="1"/><path d="m22.32 41.217c5.187 1.178-12.096-13.535-13.58-12.419-.083.032-.661.311-.42.459 5.21 3.2 9.745 7.606 14 11.96z" fill="#262626" fill-opacity="1" data-original-color="#262626ff" stroke="none" stroke-opacity="1"/><path d="m13.856 13.298c-.133-.903-1.616-.545-1.762-.104.849 1.333 1.697 2.667 2.546 4 3.033.459-.292-2.679-.784-3.896z" fill="#262626" fill-opacity="1" data-original-color="#262626ff" stroke="none" stroke-opacity="1"/><path d="m44.348 17.387c1.827-.414 2.303-3.067 3.505-4.385.208-.67-1.148-.371-1.342-.003-.306 1.036-3.306 3.929-2.163 4.388z" fill="#262626" fill-opacity="1" data-original-color="#262626ff" stroke="none" stroke-opacity="1"/></g></g></svg>