<svg id="Icons" viewBox="0 0 60 60" xmlns="http://www.w3.org/2000/svg" width="300" height="300" version="1.1" xmlns:xlink="http://www.w3.org/1999/xlink" xmlns:svgjs="http://svgjs.dev/svgjs"><g width="100%" height="100%" transform="matrix(1,0,0,1,0,0)"><path d="m30.418 59.219c-.156 0-.311-.073-.407-.21-.149-.209-.115-.498.079-.667l3.689-3.209-4.812 2.778c-.229.135-.527.062-.671-.163-.145-.226-.086-.523.133-.678l2.844-2.01-3.455 1.995c-.229.136-.529.062-.672-.164-.144-.227-.084-.525.137-.679l6.308-4.391-7.21 4.162c-.236.135-.531.06-.674-.168s-.079-.528.145-.679l8.936-6.032-9.938 5.738c-.235.139-.535.06-.678-.173-.141-.232-.07-.535.158-.682l5.915-3.776-6.542 3.776c-.235.136-.534.061-.677-.172-.142-.23-.073-.532.154-.68l13.265-8.611-14.336 8.276c-.238.137-.54.059-.68-.177s-.065-.539.168-.682l1.479-.908-1.509.87c-.236.138-.538.059-.679-.175s-.068-.536.163-.682l11.513-7.221-10.998 6.349c-.235.137-.535.061-.677-.172s-.072-.534.156-.682l16.27-10.473-15.749 9.092c-.235.139-.537.06-.678-.173s-.07-.535.159-.682l13.158-8.379-12.641 7.297c-.235.137-.535.061-.677-.172s-.072-.534.156-.682l13.922-8.958-13.401 7.737c-.235.137-.534.061-.677-.172-.142-.23-.073-.532.154-.68l14.04-9.111-13.519 7.805c-.236.137-.536.059-.677-.172-.142-.232-.072-.534.156-.682l11.5-7.394-10.98 6.339c-.235.138-.535.06-.677-.172s-.072-.534.156-.682l10.59-6.813-10.069 5.812c-.234.135-.534.062-.675-.17-.143-.229-.076-.53.149-.68l12.999-8.594-12.475 7.201c-.235.136-.532.061-.675-.169-.143-.229-.077-.529.147-.68l12.71-8.487-12.183 7.033c-.235.137-.534.06-.676-.171s-.074-.533.153-.681l8.887-5.79-8.365 4.829c-.235.136-.532.061-.675-.169-.143-.229-.077-.529.147-.68l10.445-6.971-9.918 5.726c-.235.136-.532.061-.675-.169-.143-.229-.077-.529.147-.68l9.34-6.234-8.813 5.088c-.234.136-.533.06-.674-.168-.144-.229-.079-.529.146-.68l8.779-5.896-8.252 4.764c-.235.137-.534.061-.677-.172-.142-.231-.072-.533.155-.681l3.593-2.324-3.071 1.773c-.235.135-.532.061-.675-.169-.143-.229-.077-.53.147-.68l6.401-4.271-5.874 3.392c-.235.135-.533.061-.676-.17-.142-.229-.075-.531.15-.68l4.493-2.968-3.969 2.291c-.232.136-.529.062-.673-.166s-.081-.528.141-.68l6.429-4.391-5.896 3.404c-.235.136-.532.061-.675-.169-.143-.229-.077-.529.146-.68l3.833-2.562-3.306 1.908c-.236.136-.532.061-.675-.169s-.077-.53.147-.68l2.706-1.803-2.179 1.258c-.229.134-.525.062-.67-.161s-.089-.521.128-.677l6.495-4.682-5.954 3.438c-.232.136-.528.062-.672-.164-.144-.227-.084-.525.136-.679l3.98-2.774-3.444 1.988c-.232.136-.528.062-.672-.165-.144-.226-.084-.525.137-.678l2.99-2.08-2.456 1.418c-.228.133-.521.063-.666-.155-.146-.22-.097-.516.113-.675l5.315-4.048-4.763 2.749c-.227.135-.523.063-.669-.159-.145-.222-.091-.519.122-.676l7.098-5.226c-.079-.223.01-.477.222-.599l2.763-1.595c.229-.133.523-.063.669.159.145.222.091.519-.122.676l-2.795 2.058 3.773-2.178c.227-.134.52-.064.666.155s.097.516-.113.675l-5.313 4.046 5.964-3.442c.233-.136.528-.062.672.165.144.226.084.525-.137.678l-2.992 2.081 3.308-1.909c.233-.135.528-.062.672.164s.084.525-.136.679l-3.983 2.776 4.368-2.521c.229-.135.524-.063.67.161.145.224.089.521-.128.677l-6.492 4.679 7.127-4.114c.234-.137.531-.062.675.169.143.229.077.53-.147.68l-2.705 1.802 2.966-1.712c.234-.137.531-.062.675.169.143.229.077.529-.146.68l-3.826 2.557 4.146-2.394c.234-.135.53-.062.673.166.144.228.081.528-.141.68l-6.433 4.393 6.937-4.004c.233-.137.532-.062.676.17.142.229.075.531-.15.68l-4.491 2.967 4.829-2.788c.234-.138.531-.061.675.169.143.229.077.53-.147.68l-6.408 4.275 6.858-3.959c.235-.137.534-.061.677.172.142.231.072.533-.155.681l-3.591 2.322 3.862-2.229c.233-.137.532-.062.674.168.144.229.079.529-.146.68l-8.783 5.899 9.375-5.412c.234-.137.531-.062.675.169.143.229.077.529-.147.68l-9.335 6.231 9.936-5.736c.234-.137.532-.062.675.169.143.229.077.529-.147.68l-10.446 6.972 11.102-6.409c.235-.136.534-.06.676.171s.074.533-.153.681l-8.884 5.788 9.387-5.419c.234-.137.531-.062.675.169.143.229.077.529-.147.68l-12.714 8.49 13.488-7.787c.234-.137.533-.062.675.17.143.229.076.53-.149.68l-12.998 8.594 13.74-7.933c.235-.137.535-.06.677.172s.072.534-.156.682l-10.6 6.82 11.128-6.424c.234-.137.535-.06.677.172s.072.534-.156.682l-11.489 7.387 12.047-6.955c.235-.137.534-.061.677.172.142.23.073.532-.154.68l-14.04 9.111 14.738-8.509c.235-.136.536-.06.677.172.142.232.072.534-.156.682l-13.925 8.96 14.577-8.416c.237-.136.537-.059.678.173s.07.535-.159.682l-13.154 8.377 13.73-7.927c.235-.138.536-.06.677.172.142.232.072.534-.156.682l-16.273 10.476 16.738-9.663c.236-.137.538-.058.679.175s.068.536-.163.682l-11.505 7.217 9.79-5.652c.237-.139.539-.06.68.177.14.235.065.539-.168.682l-2.327 1.429c.203-.035.411.047.523.23.142.23.073.532-.154.68l-13.259 8.607 9.309-5.374c.236-.137.535-.06.678.173.141.232.07.535-.158.682l-5.917 3.778 2.93-1.691c.233-.137.53-.062.674.168.143.228.079.528-.145.679l-8.936 6.031 5.109-2.949c.23-.136.528-.062.672.165.144.226.084.524-.137.678l-6.302 4.387 2.673-1.543c.23-.135.527-.062.671.163.145.226.086.523-.133.678l-2.927 2.068c.203-.075.44-.004.572.182.149.209.115.498-.079.667l-3.949 3.435h.004c.172 0 .341.09.433.25.139.239.057.545-.183.683l-3.986 2.301c-.078.046-.165.067-.25.067z" fill="#ff2f00" fill-opacity="1" data-original-color="#d1565fff" stroke="none" stroke-opacity="1"/><path d="m13.571 59.24c-.157 0-.311-.074-.407-.21-.149-.211-.115-.5.08-.668l3.28-2.834-4.302 2.483c-.229.136-.529.062-.673-.165-.144-.228-.082-.526.139-.679l.604-.417-.992.572c-.235.136-.531.061-.674-.168s-.079-.528.145-.679l2.144-1.446-2.644 1.525c-.232.136-.529.062-.672-.164-.144-.226-.084-.524.136-.679l9.312-6.512-10.504 6.063c-.235.138-.536.06-.678-.174-.141-.233-.069-.536.161-.682l1.196-.756-1.601.924c-.237.137-.539.058-.679-.175-.141-.234-.067-.537.164-.682l.826-.517-1.213.7c-.235.139-.536.06-.678-.174-.141-.233-.069-.536.16-.682l7.862-4.972-8.543 4.932c-.238.138-.54.059-.68-.177s-.065-.539.168-.682l.313-.192-.615.354c-.236.138-.535.06-.678-.173-.141-.232-.07-.535.158-.681l15.888-10.152-15.642 9.03c-.235.138-.535.06-.677-.173s-.071-.534.157-.681l15.464-9.893-11.69 6.749c-.235.138-.535.06-.677-.173s-.071-.534.157-.681l11.276-7.219-7.685 4.437c-.236.137-.535.061-.676-.171-.142-.231-.074-.533.153-.681l9.873-6.429-6.248 3.607c-.232.136-.53.062-.674-.167-.143-.228-.08-.527.143-.679l10.114-6.894-5.943 3.431c-.234.136-.532.061-.675-.168s-.077-.53.146-.68l4.169-2.792-1.104.637c-.229.135-.525.062-.671-.162-.144-.225-.087-.523.131-.678l4.59-3.269-3.572 2.062c-.227.136-.521.063-.668-.158-.146-.222-.093-.519.12-.676l4.558-3.379-5.09 2.938c-.228.136-.522.063-.668-.157-.146-.222-.094-.518.119-.676l4.754-3.549-5.316 3.068c-.228.132-.521.063-.667-.156-.146-.221-.095-.517.116-.676l5.019-3.786-5.627 3.248c-.23.134-.526.062-.671-.162-.144-.225-.087-.522.13-.678l3.338-2.383-3.712 2.143c-.23.136-.527.062-.672-.165-.144-.227-.083-.525.137-.679l1.935-1.34-2.182 1.259c-.232.135-.528.062-.672-.164s-.084-.525.136-.679l2.348-1.64-2.629 1.518c-.233.136-.53.062-.674-.167-.143-.228-.08-.528.143-.679l.757-.515-.925.533c-.229.132-.521.063-.667-.156-.146-.22-.096-.516.115-.675l5.143-3.897-5.773 3.333c-.229.133-.521.063-.667-.156-.146-.221-.095-.516.115-.675l5.089-3.847-5.707 3.295c-.229.133-.521.063-.666-.155-.146-.22-.097-.515.112-.675l5.323-4.064-5.987 3.456c-.228.133-.521.063-.666-.156-.146-.22-.097-.515.113-.675l5.22-3.965-5.862 3.384c-.229.134-.525.062-.67-.161s-.089-.521.127-.677l3.817-2.758-4.244 2.45c-.228.134-.521.063-.666-.155-.146-.22-.097-.515.113-.675l5.301-4.04-5.959 3.439c-.229.133-.521.063-.666-.155-.146-.219-.098-.515.112-.675l5.396-4.131-6.074 3.507c-.227.133-.518.064-.665-.153-.146-.218-.1-.513.108-.674l5.712-4.443-6.417 3.704c-.233.135-.526.062-.672-.164-.144-.226-.084-.524.135-.678l2.553-1.789-2.195 1.267c-.228.133-.52.064-.667-.156-.146-.22-.096-.516.115-.675l7.461-5.655c-.11-.233-.025-.517.202-.647l2.762-1.594c.229-.134.52-.064.667.156.146.22.096.516-.115.675l-4.006 3.036 5.137-2.965c.233-.135.526-.062.672.164.144.226.084.524-.135.678l-2.553 1.789 2.845-1.642c.227-.133.518-.064.665.153.146.218.1.513-.108.674l-5.711 4.442 6.452-3.725c.227-.134.52-.064.666.155s.098.515-.112.675l-5.397 4.132 6.067-3.503c.228-.135.52-.063.666.155.146.22.097.515-.113.675l-5.301 4.04 5.952-3.436c.228-.135.524-.063.67.161.145.224.089.521-.127.677l-3.819 2.759 4.24-2.447c.226-.135.52-.064.666.156s.097.515-.113.675l-5.22 3.965 5.855-3.38c.226-.135.52-.063.666.155.146.22.097.515-.112.675l-5.321 4.063 5.978-3.451c.226-.135.521-.063.667.156.146.221.096.516-.115.675l-5.089 3.847 5.7-3.291c.228-.134.52-.065.667.156.146.22.096.516-.115.675l-5.146 3.899 5.77-3.33c.234-.135.531-.062.674.167.143.228.08.528-.143.679l-.755.514.919-.53c.233-.135.528-.062.672.164s.084.525-.136.679l-2.349 1.64 2.625-1.515c.235-.135.529-.061.672.165.144.227.083.525-.137.679l-1.929 1.336 2.171-1.253c.228-.135.525-.063.671.162.144.225.087.522-.13.678l-3.341 2.385 3.709-2.141c.227-.135.521-.064.667.156s.095.517-.116.676l-5.021 3.788 5.623-3.246c.229-.133.522-.062.668.157.146.222.093.518-.119.676l-4.751 3.547 5.307-3.063c.229-.134.523-.063.668.158.146.222.093.519-.12.676l-4.562 3.382 5.087-2.937c.228-.135.525-.063.671.162.144.225.087.523-.131.678l-4.586 3.266 5.047-2.913c.233-.137.532-.061.675.168s.077.53-.146.68l-4.172 2.794 4.514-2.605c.234-.135.531-.062.674.167.143.228.08.527-.143.679l-10.114 6.894 10.83-6.252c.235-.137.534-.06.676.171s.074.533-.153.681l-9.864 6.423 10.405-6.008c.238-.136.536-.059.677.173.142.232.071.534-.157.681l-11.284 7.224 11.817-6.822c.237-.136.536-.059.677.173.142.232.071.534-.157.681l-15.469 9.896 15.862-9.157c.237-.136.535-.059.678.173.141.232.07.535-.158.681l-15.884 10.149 13.479-7.781c.237-.138.539-.06.68.177.14.235.065.539-.168.682l-2.176 1.336c.154-.007.347.08.443.241.141.233.069.536-.16.682l-7.854 4.967 4.754-2.744c.236-.139.538-.059.679.175s.067.537-.164.682l-2.229 1.392c.151 0 .351.078.449.241.141.233.069.536-.161.682l-2.283 1.442c.168-.018.354.07.455.23.144.226.084.524-.136.679l-9.313 6.514 5.052-2.916c.234-.137.53-.061.674.168.143.229.079.528-.145.679l-2.567 1.732c.185-.021.386.057.494.228.144.228.082.526-.139.679l-2.138 1.475c.107.029.205.095.273.191.149.211.115.5-.08.668l-3.668 3.169c.154.016.298.103.381.247.139.239.057.545-.183.683l-3.883 2.241c-.078.046-.165.067-.25.067z" fill="#ffa900" fill-opacity="1" data-original-color="#e56363ff" stroke="none" stroke-opacity="1"/><path d="m18.653 31.81c-2.067 3.84-18.103 17.876-14.655 20.621 8.617 5.962 9.786 11.334 17.365.356 4.101 2.393 9.75 10.408 13.639 3.701 2.658-4.873 24.952-25.592 20.847-28.459-7.263-8.655-14.524-17.309-21.786-25.962-4.02-4.178-8.747 3.575-12.442 5.269-7.472-10.887-8.191-6.095-16.947-.054-5.725 2.377 13.342 18.743 15.391 22.851-.532.398-.993 1.181-1.413 1.678zm11.391-29.867c2.342-2.932 16.955 19.05 20.325 21.679 3.386 4.086 7.41 6.32 1.822 10.907-6.665 7.926-13.324 15.905-19.981 23.813-3.078.312-7.117-5.019-10.066-6.494 22.526-28.228 22.585-15.786-.061-43.962 2.654-1.981 5.307-3.962 7.961-5.943zm-18.298 16.199c-8.935-10.275-9.307-8.393 1.854-16.422.764-.463 1.386-.098 1.923.518 6.646 7.916 13.287 15.837 19.932 23.754 1.062 1.266 3.769 3.487 2.522 5.276-6.783 8.084-13.566 16.168-20.349 24.251-.741.883-2.181 3.544-3.66 2.801-8.258-6.924-13.171-5.317-3.689-14.996 11.526-14.919 15.293-9.87 1.467-25.184z" fill="#262626" fill-opacity="1" data-original-color="#262626ff" stroke="none" stroke-opacity="1"/></g></svg>