<svg id="Icons" height="512" viewBox="0 0 60 60" width="512" xmlns="http://www.w3.org/2000/svg"><path d="m28.846 58.148a.5.5 0 0 1 -.342-.135.5.5 0 0 1 -.107-.586l.22-.443a.5.5 0 0 1 -.554-.775l.5-.668-.263.151a.5.5 0 0 1 -.615-.773l1.908-2.046-1.873 1.081a.5.5 0 0 1 -.566-.82l.927-.754-.8.459a.5.5 0 0 1 -.549-.833l.316-.236-.323.186a.5.5 0 0 1 -.558-.827l3.333-2.591-3.982 2.3a.5.5 0 0 1 -.536-.843l1.558-1.086-2.283 1.319a.5.5 0 0 1 -.538-.842l4.645-3.267-6.849 3.954a.5.5 0 1 1 -.5-.865l16.53-9.548a.5.5 0 0 1 .538.842l-4.652 3.272 2.821-1.628a.5.5 0 0 1 .536.842l-1.554 1.082.023-.012a.5.5 0 0 1 .557.827l-3.325 2.59 1.414-.817a.5.5 0 0 1 .549.833l-1.109.828a.5.5 0 0 1 .23.881l-1.31 1.066a.5.5 0 0 1 .343.84l-2.142 2.3a.5.5 0 0 1 .343.8l-.807 1.081a.51.51 0 0 1 .136.092.5.5 0 0 1 .106.586l-.591 1.191.013.022a.5.5 0 0 1 -.182.682l-.382.221a.5.5 0 0 1 -.254.067z" fill="#efb31d"/><path d="m15.17 53.71a.5.5 0 0 1 -.274-.918l9.448-6.2-8.482 4.9a.5.5 0 0 1 -.518-.854l5.04-3.207-4.184 2.408a.5.5 0 0 1 -.523-.852l9.656-6.3-9.018 5.206a.5.5 0 0 1 -.521-.853l8.441-5.466-8.349 4.826a.5.5 0 0 1 -.525-.851l10.74-7.05-11.189 6.46a.5.5 0 0 1 -.521-.852l9.445-6.107-10.268 5.931a.5.5 0 0 1 -.514-.858l2.23-1.388-3.045 1.757a.5.5 0 0 1 -.523-.85l14.061-9.207-18.348 10.594a.5.5 0 0 1 -.521-.853l16.576-10.682-16.184 9.346a.5.5 0 0 1 -.513-.858l5.3-3.273-2.871 1.654a.5.5 0 0 1 -.522-.852l15.715-10.187-14.695 8.485a.5.5 0 0 1 -.514-.859l1.735-1.068-1.412.814a.5.5 0 0 1 -.518-.854l12.355-7.87-12.522 7.229a.5.5 0 0 1 -.519-.854l13-8.28-13.658 7.883a.5.5 0 0 1 -.515-.856l8.708-5.432-9.59 5.538a.5.5 0 0 1 -.515-.857l9.6-5.98-10.824 6.25a.5.5 0 0 1 -.51-.86l2.926-1.792-3.795 2.189a.5.5 0 0 1 -.687-.189l-.384-.685-.568.327a.5.5 0 1 1 -.5-.866l1.007-.581a.5.5 0 0 1 .686.194l.384.685 36.959-21.339a.5.5 0 0 1 .511.859l-2.935 1.8 3.1-1.79a.5.5 0 0 1 .514.857l-9.6 5.979 9.088-5.251a.5.5 0 0 1 .514.856l-8.719 5.444 8.2-4.736a.5.5 0 0 1 .518.855l-13 8.282 12.487-7.208a.5.5 0 0 1 .518.854l-12.339 7.853 11.821-6.82a.5.5 0 0 1 .512.859l-1.747 1.076 1.236-.713a.5.5 0 0 1 .521.853l-15.718 10.188 15.2-8.773a.5.5 0 0 1 .512.858l-5.3 3.274 4.787-2.764a.5.5 0 0 1 .52.852l-16.574 10.68 16.052-9.27a.5.5 0 0 1 .523.85l-14.065 9.212 13.543-7.818a.5.5 0 0 1 .514.857l-2.237 1.392 1.721-.993a.5.5 0 0 1 .521.852l-9.432 6.091 8.913-5.143a.5.5 0 0 1 .524.851l-10.742 7.049 10.218-5.9a.5.5 0 0 1 .521.853l-8.452 5.473 7.932-4.58a.5.5 0 0 1 .523.852l-9.647 6.302 8.4-4.857a.5.5 0 0 1 .519.855l-5.043 3.208 3.445-1.988a.5.5 0 0 1 .524.85l-20.745 13.624a.5.5 0 0 1 -.249.4l-3.031 1.751a.5.5 0 0 1 -.25.067z" fill="#efb31d"/><path d="m27.244 7.608a.5.5 0 0 1 -.372-.834l.8-.888a.491.491 0 0 1 -.223-.147.5.5 0 0 1 -.019-.635l.581-.751-.038-.032a.5.5 0 0 1 -.114-.581l.521-1.106a.5.5 0 0 1 .2-.657l.291-.168a.5.5 0 0 1 .7.645l-.158.336a.509.509 0 0 1 .432.168.5.5 0 0 1 .018.635l-.143.185a.5.5 0 0 1 .449.828l-.443.493.2-.117a.5.5 0 0 1 .5.866l-2.932 1.693a.489.489 0 0 1 -.25.067z" fill="#efb31d"/><path d="m8.34 27.118a.5.5 0 0 1 -.269-.922l6.254-3.981-4.734 2.733a.5.5 0 0 1 -.526-.849l9.04-5.966-8.442 4.874a.5.5 0 0 1 -.532-.846l10.647-7.261-10.789 6.228a.5.5 0 0 1 -.674-.7l1.185-1.884-1.769 1.02a.5.5 0 0 1 -.741-.524l.27-1.452-.848.489a.5.5 0 0 1 -.678-.173l-.726-1.2a.5.5 0 0 1 -.36-.921l.3-.171a.5.5 0 0 1 .677.174l.715 1.179 1.36-.785a.5.5 0 0 1 .741.524l-.271 1.452 2.571-1.484a.5.5 0 0 1 .674.7l-1.183 1.886 20.59-11.89a.5.5 0 0 1 .532.846l-10.654 7.265 11.411-6.586a.5.5 0 0 1 .526.849l-9.037 5.964 10.228-5.906a.5.5 0 0 1 .519.854l-6.247 3.98 8.058-4.653a.5.5 0 0 1 .5.866l-28.068 16.204a.494.494 0 0 1 -.25.067z" fill="#efb31d"/><path d="m15.126 15.419a.5.5 0 0 1 -.314-.89l1.115-.895a.494.494 0 0 1 -.372-.2.5.5 0 0 1 .046-.659l.8-.8-.064.038a.5.5 0 0 1 -.677-.694l.924-1.511-.571.33a.5.5 0 0 1 -.729-.578l.427-1.416-.1.055a.5.5 0 0 1 -.749-.4l-.082-1.295a.515.515 0 0 1 -.2-.194.5.5 0 0 1 .182-.683l.238-.127a.5.5 0 0 1 .75.4l.065 1.04.491-.284a.5.5 0 0 1 .728.577l-.424 1.413 1.18-.68a.5.5 0 0 1 .677.693l-.924 1.511 1.71-.986a.5.5 0 0 1 .6.788l-.8.8 1.615-.932a.5.5 0 0 1 .564.822l-.707.567 2.1-1.212a.5.5 0 1 1 .5.865l-7.747 4.473a.5.5 0 0 1 -.252.064z" fill="#efb31d"/><path d="m30.408 45.4a.5.5 0 0 1 -.347-.859l2.011-1.948-4.672 2.692a.5.5 0 0 1 -.55-.833l5.613-4.2-7.716 4.448a.5.5 0 0 1 -.532-.846l5.478-3.737-6.735 3.893a.5.5 0 0 1 -.521-.853l1.863-1.206-2.519 1.449a.5.5 0 0 1 -.521-.852l2.555-1.648-3.126 1.8a.5.5 0 0 1 -.521-.852l3.974-2.572-4.515 2.607a.5.5 0 0 1 -.519-.855l2.072-1.318-2.414 1.393a.5.5 0 0 1 -.519-.854l2.653-1.683-2.938 1.7a.5.5 0 0 1 -.516-.857l.081-.051-.205.119a.5.5 0 0 1 -.524-.851l9.154-6-9.54 5.508a.5.5 0 0 1 -.522-.852l9.11-5.932-9.324 5.382a.5.5 0 0 1 -.523-.851l9.185-5.981-9.263 5.348a.5.5 0 0 1 -.526-.849l10.776-7.159-10.742 6.2a.5.5 0 0 1 -.522-.852l7.183-4.659-6.884 3.976a.5.5 0 0 1 -.516-.855l1.275-.8-.829.478a.5.5 0 0 1 -.522-.852l5.332-3.469-4.759 2.747a.5.5 0 0 1 -.533-.844l8.626-5.935-7.707 4.449a.5.5 0 0 1 -.53-.847l4.648-3.13-3.484 2.01a.5.5 0 0 1 -.535-.843l3.612-2.5-1.964 1.134a.5.5 0 0 1 -.566-.821l3.363-2.734a.5.5 0 0 1 -.2-.93l4.678-2.7a.5.5 0 0 1 .565.82l-2.9 2.361 6.978-4.029a.5.5 0 0 1 .535.844l-3.609 2.5 5.551-3.2a.5.5 0 0 1 .53.848l-4.647 3.13 6.138-3.544a.5.5 0 0 1 .533.844l-8.628 5.937 10.305-5.959a.5.5 0 0 1 .522.851l-5.341 3.47 6.2-3.578a.5.5 0 0 1 .517.855l-1.274.8 1.743-1.006a.5.5 0 0 1 .522.853l-7.174 4.652 7.859-4.537a.5.5 0 0 1 .526.849l-10.783 7.164 11.526-6.655a.5.5 0 0 1 .523.852l-9.19 5.986 9.445-5.452a.5.5 0 0 1 .522.852l-9.103 5.929 8.582-4.955a.5.5 0 0 1 .524.851l-9.158 6 8.635-4.984a.5.5 0 0 1 .515.856l-.4.253a.5.5 0 0 1 .567.222.5.5 0 0 1 -.159.68l-2.65 1.685 2.132-1.231a.5.5 0 0 1 .518.855l-2.076 1.321 1.559-.9a.5.5 0 0 1 .521.852l-3.967 2.567 3.447-1.99a.5.5 0 0 1 .521.853l-2.557 1.65 2.037-1.174a.5.5 0 0 1 .521.852l-1.872 1.213 1.352-.78a.5.5 0 0 1 .532.845l-5.484 3.741 3.431-1.982a.5.5 0 0 1 .55.833l-5.608 4.2.927-.535a.5.5 0 0 1 .6.792l-3.649 3.533a.5.5 0 0 1 -.208.634l-1.163.672a.489.489 0 0 1 -.252.071z" fill="#f2c91c"/><path d="m45.349 59.458a.5.5 0 0 1 -.295-.9l5.4-3.949-7.861 4.539a.5.5 0 0 1 -.523-.853l.113-.072-1 .574a.5.5 0 0 1 -.533-.846l7.076-4.832-8.51 4.913a.5.5 0 0 1 -.521-.852l2.87-1.852-3.553 2.052a.5.5 0 0 1 -.526-.85l7.082-4.673-7.927 4.577a.5.5 0 0 1 -.523-.853l5.89-3.817-6.45 3.723a.5.5 0 0 1 -.529-.847l10.4-6.98-11.137 6.43a.5.5 0 0 1 -.518-.855l4.21-2.683-4.409 2.545a.5.5 0 0 1 -.529-.848l11.1-7.468-11.512 6.641a.5.5 0 0 1 -.524-.851l8.112-5.306-8.181 4.723a.5.5 0 0 1 -.521-.852l5.723-3.692-5.579 3.221a.5.5 0 0 1 -.525-.851l7.761-5.114-7.524 4.344a.5.5 0 0 1 -.53-.847l8.768-5.921-8.326 4.807a.5.5 0 0 1 -.534-.844l9.912-6.862-9.106 5.257a.5.5 0 0 1 -.52-.853l2.324-1.5-1.394.8a.5.5 0 0 1 -.532-.846l8.209-5.6-6.444 3.72a.5.5 0 0 1 -.531-.845l6.779-4.61-3.206 1.851a.5.5 0 0 1 -.525-.85l3.169-2.092a.492.492 0 0 1 -.28-.207.5.5 0 0 1 .121-.675l4.778-3.526-4.228 2.453a.5.5 0 0 1 -.551-.831l5.513-4.169-4.962 2.865a.5.5 0 0 1 -.537-.842l2.75-1.933-2.213 1.278a.5.5 0 0 1 -.543-.838l3.963-2.861-3.42 1.977a.5.5 0 0 1 -.549-.833l5.163-3.856-4.614 2.661a.5.5 0 0 1 -.542-.839l3.786-2.721-3.244 1.873a.5.5 0 0 1 -.544-.837l4.2-3.05-3.656 2.111a.5.5 0 0 1 -.551-.832l5.371-4.044-4.82 2.784a.5.5 0 0 1 -.53-.847l.435-.294a.5.5 0 0 1 -.454-.876l5.075-3.784-4.526 2.613a.5.5 0 0 1 -.539-.841l2.874-2.038-2.335 1.35a.5.5 0 0 1 -.551-.832l4.388-3.314-3.837 2.212a.5.5 0 0 1 -.555-.828l3.826-2.959-3.271 1.887a.5.5 0 0 1 -.565-.82l3.155-2.565-2.5 1.443a.5.5 0 0 1 -.615-.775l2.184-2.331-.015.009a.5.5 0 1 1 -.5-.865l2.936-1.7a.5.5 0 0 1 .616.774l-2.184 2.33 5.022-2.9a.5.5 0 0 1 .566.82l-3.153 2.57 4.245-2.451a.5.5 0 0 1 .555.828l-3.827 2.959 4.43-2.556a.5.5 0 0 1 .552.832l-4.389 3.314 4.6-2.655a.5.5 0 0 1 .539.841l-2.881 2.043 2.639-1.524a.5.5 0 0 1 .549.833l-5.074 3.78 4.556-2.629a.5.5 0 0 1 .53.846l-.433.292a.507.507 0 0 1 .571.2.5.5 0 0 1 -.117.675l-5.372 4.051 4.827-2.786a.5.5 0 0 1 .544.837l-4.195 3.046 3.652-2.109a.5.5 0 0 1 .542.839l-3.792 2.725 3.252-1.877a.5.5 0 0 1 .548.833l-5.164 3.857 4.613-2.663a.5.5 0 0 1 .543.838l-3.97 2.861 3.425-1.977a.5.5 0 0 1 .537.842l-2.747 1.93 2.211-1.276a.5.5 0 0 1 .551.831l-5.511 4.168 4.96-2.864a.5.5 0 0 1 .547.835l-4.782 3.529 4.237-2.446a.5.5 0 0 1 .526.849l-1.025.676.5-.287a.5.5 0 0 1 .532.846l-6.775 4.608 6.247-3.606a.5.5 0 0 1 .532.845l-8.207 5.6 7.676-4.439a.5.5 0 0 1 .521.852l-2.331 1.5 1.811-1.045a.5.5 0 0 1 .535.844l-9.913 6.862 10.07-5.813a.5.5 0 0 1 .53.846l-8.773 5.925 9.9-5.713a.5.5 0 0 1 .525.851l-7.752 5.107 8.484-4.9a.5.5 0 0 1 .521.852l-5.723 3.692 6.159-3.556a.5.5 0 0 1 .523.851l-8.121 5.314 8.54-4.93a.5.5 0 0 1 .53.847l-11.1 7.467 11.548-6.667a.5.5 0 0 1 .518.855l-4.207 2.681 4.197-2.422a.5.5 0 0 1 .528.848l-10.4 6.981 10.446-6.029a.5.5 0 0 1 .522.853l-5.892 3.819 5.648-3.261a.5.5 0 0 1 .525.85l-7.083 4.674 6.686-3.86a.5.5 0 0 1 .52.853l-2.851 1.839 2.3-1.326a.5.5 0 0 1 .532.845l-7.077 4.833 6.224-3.592a.5.5 0 0 1 .522.852l-.731.474a.508.508 0 0 1 .485.222.5.5 0 0 1 -.124.677l-5.394 3.948 3.556-2.052a.5.5 0 0 1 .562.823l-2.925 2.342a.5.5 0 0 1 .156.924l-4.729 2.729a.5.5 0 0 1 -.562-.823l2.293-1.836-5.863 3.384a.491.491 0 0 1 -.251.067z" fill="#e2e2e0"/><path d="m45.245 54.459a.5.5 0 0 1 -.312-.891l3.328-2.668-5.461 3.156a.5.5 0 0 1 -.536-.843l1.947-1.362-2.865 1.649a.5.5 0 0 1 -.549-.833l5.909-4.405-7.124 4.112a.5.5 0 0 1 -.539-.841l5.385-3.821-6.043 3.489a.5.5 0 0 1 -.527-.85l1.31-.867-1.434.827a.5.5 0 0 1 -.542-.837l6.467-4.659-6.752 3.9a.5.5 0 0 1 -.536-.843l4.835-3.381-4.739 2.739a.5.5 0 0 1 -.528-.848l.693-.46-.321.184a.5.5 0 0 1 -.544-.836l4.64-3.373-4.039 2.332a.5.5 0 0 1 -.555-.83l4.84-3.715-3.584 2.068a.5.5 0 0 1 -.551-.831l3.748-2.835-.653.376a.5.5 0 0 1 -.574-.814l3.915-3.335a.5.5 0 0 1 -.3-.822l2.013-2.325-1.386.8a.5.5 0 0 1 -.6-.786l1.27-1.272-.668.386a.5.5 0 0 1 -.609-.78l1.478-1.529-.87.5a.5.5 0 0 1 -.615-.773l1.667-1.786-1.052.606a.5.5 0 0 1 -.611-.778l1.529-1.606-.926.535a.5.5 0 0 1 -.587-.8l.536-.487a.5.5 0 0 1 -.541-.824l.764-.715-.173.1a.5.5 0 0 1 -.582-.806l.414-.369a.49.49 0 0 1 -.481-.191.5.5 0 0 1 .05-.66l1.077-1.048-.479.275a.5.5 0 0 1 -.625-.763l1.92-2.174-1.3.748a.5.5 0 0 1 -.588-.8l.315-.29a.5.5 0 0 1 -.4-.769l.583-.915a.5.5 0 0 1 -.1-.911l1.188-.685a.5.5 0 0 1 .671.7l-.4.624 1.6-.924a.5.5 0 0 1 .588.8l-.054.05.045-.026a.5.5 0 0 1 .625.764l-1.92 2.173 1.3-.748a.5.5 0 0 1 .6.791l-1.076 1.048.479-.277a.5.5 0 0 1 .582.806l-.414.369a.5.5 0 0 1 .425.858l-.766.716.176-.1a.5.5 0 0 1 .586.8l-.533.486a.5.5 0 0 1 .559.8l-1.538 1.612.927-.535a.5.5 0 0 1 .616.773l-1.667 1.786 1.053-.607a.5.5 0 0 1 .61.78l-1.477 1.528.869-.5a.5.5 0 0 1 .6.786l-1.27 1.27.668-.386a.5.5 0 0 1 .628.76l-2.006 2.324 1.386-.8a.5.5 0 0 1 .575.813l-3.457 2.945 2.884-1.665a.5.5 0 0 1 .552.831l-3.748 2.836 3.2-1.845a.5.5 0 0 1 .555.829l-4.838 3.714 5.7-3.291a.5.5 0 0 1 .544.837l-4.64 3.372 5.74-3.314a.5.5 0 0 1 .527.849l-.691.46 1.064-.615a.5.5 0 0 1 .536.843l-4.835 3.38 5.364-3.1a.5.5 0 0 1 .542.838l-6.469 4.663 6.9-3.981a.5.5 0 0 1 .527.85l-1.308.866 1.227-.708a.5.5 0 0 1 .539.841l-5.389 3.823 5.267-3.04a.5.5 0 0 1 .548.833l-5.907 4.4 5.451-3.146a.5.5 0 0 1 .536.842l-1.956 1.369 1.178-.68a.5.5 0 0 1 .563.823l-3.326 2.664 1.71-.987a.5.5 0 1 1 .5.865l-7.4 4.275a.491.491 0 0 1 -.257.07z" fill="#f45151"/><path d="m44.347 14.49a.5.5 0 0 1 -.387-.816l.9-1.1-1.583.913a.5.5 0 0 1 -.607-.782l1.415-1.45-.808.466a.5.5 0 0 1 -.591-.8l.711-.66-.12.068a.5.5 0 0 1 -.639-.746l1.73-2.153-1.091.629a.5.5 0 0 1 -.649-.733l.629-.838a.5.5 0 0 1 -.193-.929l1.66-.958a.5.5 0 0 1 .649.732l-.478.637 1.284-.74a.5.5 0 0 1 .639.746l-1.726 2.151 1.631-.941a.5.5 0 0 1 .59.8l-.709.66.125-.072a.5.5 0 0 1 .607.782l-1.416 1.45.816-.471a.5.5 0 0 1 .637.749l-.9 1.1.272-.158a.5.5 0 0 1 .725.59l-.21.635a.48.48 0 0 1 .174.178.5.5 0 0 1 -.183.682l-.506.292a.5.5 0 0 1 -.724-.59l.087-.264-1.509.871a.489.489 0 0 1 -.252.07z" fill="#ccc"/><g fill="#262626"><path d="m59.724 44.806c-.086-5.2-3.069-10.612-8-12.588-.214-8.95.417-18.08-.213-27.009-2.678-8.34-15.011-4.142-13.236 4.066-8.122 4.342-6.735-9.575-9.835-7.315-3.393 10.056-5.106 10.374-12.979 3.478-3.907-.625 5.413 13.712-7.4 10.752-12.977-2.739 13.139 8.225-7.721 13.851 2.238 1.871 7.388 1.435 8.2 5.44 1.185 3.867-3.078 5.978-4.47 8.776 8.118-1.738 13.178-1.021 10.41 8.786-.131.5-.65 1.8.386 1.5 3.123-.942 4.659-5.742 8.533-4.429 4.1.427 3.418 9.613 6.158 7.929 1.308-1.648 1.2-4.41 2.431-6.144 6.681 13.06 28.155 7.532 27.736-7.093zm-29.368-.458c-27.143-.206-14.262-41.223 7.919-25.213v13.148a14.945 14.945 0 0 0 -7.919 12.065zm-.837 10.275-.47 1.405c-1.109-7.83-8.561-8.635-13.233-3 3.209-8.406-2.29-12.347-10.2-9.4 7.074-6.328 5.648-11.628-3.539-13.772 8.27-1.528 10.931-7.465 4.027-13.2 6.875 2.525 12.839-1.908 9.926-9.223 4.188 5.56 12.056 3.47 12.913-3.441.68 4.6 4.621 8.516 9.332 6.049v7.351c-24.691-14.537-36.842 28.093-7.944 28.084a13.75 13.75 0 0 0 1.192 5.436 8.336 8.336 0 0 0 -2.004 3.711zm14.543 3.9c-13.255-.913-16.888-20.333-4.772-25.862 1.207-4.031.045-9.4.436-13.857.788-5.379-2.191-12.84 2.608-16.7 3.807-2.295 7.9 1.342 7.941 5.239.045 8.365-.024 16.732 0 25.1 12.957 5.957 8.747 27.341-6.213 26.081z"/><path d="m47.729 35.868c-.91-5.526 2.105-29.731-1.707-31.209a2.921 2.921 0 0 0 -3.751 3.269v28.054c-13.815 4.652-4.515 24.271 7.921 16.947 6.978-3.999 5.357-15.204-2.463-17.061zm-4-28.939c-.165-1.448 1.457-1.5 2.261-.744.694 2.351.089 5.028.281 7.488h-2.542c.046-2.245-.085-4.504 0-6.744zm5.133 45.692c-10.819 5.412-17.462-13.028-5.747-15.975 1.726-6.529.046-15.123.614-22.319h2.542c.288 7.336-.557 15.286.3 22.331 7.455 1.532 9.117 12.452 2.291 15.963z"/><path d="m58.3 5.66c-.594-.017-5.2-.172-3.6.68.593.017 5.2.172 3.6-.68z"/><path d="m56.474 10.424c3.4-.527-1.327-1.516-2.151-.447-.095.867 1.577.287 2.151.447z"/><path d="m58.063 13.464c-1.152.241-3.15-.6-3.8.589-.008 1.147 6.65.402 3.8-.589z"/><path d="m54.708 18.372c.963-.11 2.174.31 2.96-.379.404-.884-4.888-.233-2.96.379z"/><path d="m58.469 21.7c-1.31.2-3.214-.5-4.194.493.498.217 5.179.312 4.194-.493z"/><path d="m54.724 26.433c.827-.164 2.959.5 2.947-.723-.504-.41-4.693-.16-2.947.723z"/><path d="m54.717 30.407c.671-.024 5.22.287 3.566-.814-.671.024-5.22-.287-3.566.814z"/></g></svg>