<svg id="Icons" height="512" viewBox="0 0 60 60" width="512" xmlns="http://www.w3.org/2000/svg"><g fill="none" stroke-linecap="round" stroke-linejoin="round"><path d="m12.37 7.018 6.592-3.805-11.85 9.038 18.965-10.949-21.042 14.005 24.717-14.271-26.203 17.151 29.442-16.999-30.228 18.933 32.298-18.647-33.083 21.169 35.667-20.592-36.096 22.488 37.948-21.909-38.188 23.346 39.551-22.835-39.716 24.287 41.056-23.704-41.155 25.591 42.849-24.739-42.828 26.852 44.634-25.769-44.472 27.683 46.057-26.591-45.813 28.27 47.14-27.216-46.791 28.913 48.08-27.759-47.59 29.581 48.919-28.243-48.323 29.967 49.525-28.593-48.86 30.193 49.913-28.817-49.174 30.341 50.125-28.94-49.602 29.895 50.171-28.967-49.405 30.233 50.12-28.936-49.026 30.531 49.861-28.787-48.772 30.17 49.432-28.54-48.295 29.814 48.828-28.191-47.993 29.044 48.316-27.896-47.209 28.921 47.543-27.448-46.119 28.624 46.417-26.799-45.281 27.636 45.435-26.233-43.722 27.347 43.824-25.301-42.264 26.166 42.244-24.39-41.138 24.935 41.055-23.702-38.874 24.615 38.566-22.267-37.271 22.708 37.011-21.368-35.618 21.766 35.275-20.366-32.796 20.898 32.021-18.488-30.07 18.75 29.312-16.923-26.187 17.065 24.751-14.289-22.393 14.174 21.109-12.187-15.929 11.247 12.51-7.222" stroke="#4684aa"/><path d="m16.701 17.371 7.847-4.53-3.323 3.524 2.111-1.219" stroke="#62dd93"/><path d="m12.379 7.011 6.584-3.801-10.611 7.549 13.802-7.968-16.164 10.999 17.635-10.182-18.979 12.636 20.46-11.813-19.916 12.899 21.009-12.129-20.126 13.888 20.917-12.077-20.196 13.515 19.56-11.293-18.826 12.756 17.497-10.103-16.615 11.861 5.56-3.21-4.846 4.635 4.846-2.798-4.269 3.761 4.269-2.465-3.115 3.157 3.048-1.759" stroke="#62dd93"/><path d="m15.304 31.688 2.683-1.549-3.825 3.72 6.631-3.829-6.637 6.076 10.524-6.076-9.719 7.854 13.482-7.784-12.005 9.154 14.047-8.11-11.29 8.826 12.44-7.182-9.556 7.359 10.466-6.043-9.625 6.722 10.395-6.001-10.028 6.971 11.126-6.424-10.905 7.971 12.276-7.088-12.069 8.54 12.415-7.168-12.14 9.092 11.048-6.379-10.88 7.551 10.122-5.844-9.837 7.842 8.544-4.933-8.258 6.883 6.993-4.037-6.004 5.621 4.716-2.723-2.868 3.203 1.88-1.085" stroke="#62dd93"/><path d="m32.605 5.502 2.088-1.206-2.58 2.8 6.895-3.981-6.686 5.153 8.735-5.043-7.887 6.201 9.499-5.484-7.904 6.024 9.238-5.334-5.428 5.338 7.288-4.208-3.857 4.405 5.559-3.209-3.651 3.955 4.974-2.872-3.49 3.607 4.567-2.637-2.785 2.972 3.272-1.889" stroke="#62dd93"/><path d="m30.818 16.38 2.264-1.307-3.052 4.001 7.005-4.044-7.005 6.239 9.737-5.622-9.667 7.06 10.614-6.128-9.858 7.845 10.948-6.321-9.613 7.429 11.379-6.57-9.422 7.008 12.02-6.94-9.47 6.94 12.053-6.959-9.312 6.959 16.241-9.377-13.728 9.849 14.463-8.35-12.829 9.167 13.426-7.751-12.206 8.362 12.598-7.274-11.437 7.969 11.803-6.815-10.948 7.756 11.289-6.517-10.668 8.439 11.099-6.408-10.942 8.162 11.181-6.455-11.035 8.081 11.173-6.451-11.032 8.018 11.082-6.399-10.898 8.459 10.808-6.24-10.631 8.208 10.388-5.998-10.264 7.382 9.964-5.752-9.766 7.4 9.249-5.34-8.945 6.325 8.493-4.904-7.817 6.18 6.963-4.02-5.893 5.261 4.573-2.64-2.855 3.701.659-.38" stroke="#62dd93"/></g><path d="m34.864 34.976c-2.325-.895-2.561-3.768-4.714-4.861-3.455-1.083-7.27-.233-10.858-.49-8.966.807-7.392 12.132 1.585 10.749 2.809-.062 2.18 9.952 3.279 12.271 1.161 2.622 5.16 1.928 6.268-.329 1.887-4.105 3.642-8.275 5.508-12.392 1.161-1.948 1.526-4.151-1.068-4.948zm.28 3.68c-1.731 3.945-3.51 7.869-5.25 11.811-.589 1.325-1.243 3.831-3.2 2.891-1.646-.788-1.537-3.548-1.758-5.09-.307-2.148-.578-4.3-.921-6.448-.785-4.676-8.173.9-9.278-6.71-.121-5.674 5.607-4.741 9.55-4.735 2.464-.082 5.244-.289 6.484 2.314a9.861 9.861 0 0 0 1.408 1.973c1.539 1.162 4.166 1.405 2.965 3.994z" fill="#262626"/><path d="m55.711 15.247a29.775 29.775 0 0 0 -4.2-5.606c0-.1-.088-.172-.2-.22-13.051-14.082-38.46-10.407-47.318 6.534-.133.1-.206.2-.168.309-16.358 32.33 26.947 59.272 49.521 31.706 7.4-8.861 8.415-22.563 2.515-32.457a.247.247 0 0 0 -.15-.266zm-5.785-5.3c-2.1 3.175-4.663.78-7.272-.1-2.757-1.173-8.2 1.267-9.642-1.791-1.371-4.075 4.317-3.757 6.8-4.8a28.709 28.709 0 0 1 10.114 6.693zm-28.811-7.106c2.374 1.359 6.545 2.77 4.685 6.226-1.614 2.314-1.953 6.554-5.142 7.095-8.993 1.67-6.6 2.121-7.695 9.631-2.741 3.754-6.186-8.054-7.649-9.825a28.06 28.06 0 0 1 15.801-13.127zm18.5 54.159c-23.515 8.585-45.996-17.15-35.136-39.408 1.809 2.549 3.266 9.456 6.527 9.723 5.351.059 2.947-5.27 4.066-8.4 2.343-2.744 7.5-.8 9.345-4.4 2.829-5.956 6.318-8.762-1.74-12.142a27.476 27.476 0 0 1 15.884.444c-2.049.721-4.438.793-6.206 2.126-2.536 2.573.05 6.166 3.353 5.472 2.143 0 4.667-.351 6.7.46 2.543 1.586 6.057 2.446 8.232-.2a29.441 29.441 0 0 1 3.617 4.881c-3.134 2.855-6.567 3.471-10.581 2.864-1.181-.33-1.621-1.224-2.259-2.147-1.577-2.278-4.706-1.746-7.1-1.743-2.86 0-5.031 1.671-5.045 4.648-.013 2.6-.3 5.558 2.53 6.865 3.119 1.169 6.637-.323 9.743.9 1.006.478 2.007.982 2.994 1.5 5.448 3.571-.5 16.616 7.169 19.924a27.926 27.926 0 0 1 -12.093 8.633zm18.661-26.806a29.082 29.082 0 0 1 -5.826 17.2c-5.77-3.611-2.65-11.994-4.635-17.52-.9-2.051-3.507-2.951-5.408-3.841-3.046-1.462-6.872.353-9.9-1-1.484-.893-1.774-2.4-1.774-3.985-.325-2.9.163-5.846 3.738-5.579 5.091-.312 4.115.348 7.306 3.381a6.638 6.638 0 0 0 3.663.619 11.677 11.677 0 0 0 9.3-3.056 28.446 28.446 0 0 1 3.536 13.781z" fill="#262626"/></svg>