<svg id="Icons" height="512" viewBox="0 0 60 60" width="512" xmlns="http://www.w3.org/2000/svg"><path d="m20.114 25.485a.5.5 0 0 1 -.273-.919l3.595-2.343-5.245 3.027a.5.5 0 0 1 -.52-.853l3.342-2.154-3.358 1.938a.5.5 0 0 1 -.518-.855l1.4-.893-1.258.725a.5.5 0 0 1 -.533-.845l9.732-6.694-9.2 5.311a.5.5 0 0 1 -.534-.844l9.816-6.786-8.934 5.16a.5.5 0 0 1 -.531-.846l8.483-5.778-6.341 3.664a.5.5 0 0 1 -.533-.845l5.511-3.78-2.656 1.525a.5.5 0 0 1 -.548-.834l3.76-2.794-1.871 1.083a.5.5 0 0 1 -.558-.826l1.323-1.037-.433.25a.5.5 0 0 1 -.605-.784l1.137-1.151-.486.279a.5.5 0 0 1 -.736-.548l.3-1.257a.494.494 0 0 1 -.244-.213.5.5 0 0 1 .183-.683l.5-.289a.5.5 0 0 1 .737.549l-.236 1 2.69-1.555a.5.5 0 0 1 .605.784l-1.135 1.15 3.363-1.941a.5.5 0 0 1 .558.826l-1.326 1.039 3.239-1.87a.5.5 0 0 1 .548.834l-3.761 2.794 6.3-3.635a.5.5 0 0 1 .534.845l-5.516 3.784 6.839-3.951a.5.5 0 0 1 .531.846l-8.481 5.777 7.95-4.59a.5.5 0 0 1 .534.844l-9.813 6.783 9.5-5.487a.5.5 0 0 1 .534.845l-9.728 6.693 9.876-5.7a.5.5 0 0 1 .519.854l-1.4.895 1.444-.833a.5.5 0 0 1 .52.852l-3.341 2.155 3.535-2.04a.5.5 0 0 1 .523.851l-3.6 2.35 3.826-2.208a.5.5 0 0 1 .52.853l-.272.175.366-.211a.5.5 0 0 1 .546.836l-7.101 5.211 7.71-4.451a.5.5 0 0 1 .548.834l-5.155 3.828 5.4-3.115a.5.5 0 0 1 .539.841l-1.689 1.2 1.489-.859a.5.5 0 0 1 .558.826l-2.432 1.896 2.041-1.178a.5.5 0 0 1 .613.776l-2.112 2.24 1.1-.637a.5.5 0 0 1 .7.641l-.639 1.4a.5.5 0 0 1 -.054.83l-.583.337a.5.5 0 0 1 -.7-.64l.419-.916-2.7 1.558a.5.5 0 0 1 -.614-.775l2.114-2.241-5.231 3.018a.5.5 0 0 1 -.558-.826l2.425-1.9-4.724 2.726a.5.5 0 0 1 -.539-.841l1.687-1.193-3.521 2.032a.5.5 0 0 1 -.548-.834l5.148-3.825-8.075 4.662a.5.5 0 0 1 -.546-.836l7.1-5.21-10.479 6.048a.5.5 0 0 1 -.52-.853l.27-.174-1.783 1.029a.494.494 0 0 1 -.253.067z" fill="#c8d9e8"/><path d="m23.931 59.47a.5.5 0 0 1 -.278-.916l6.277-4.192-8.73 5.038a.5.5 0 0 1 -.526-.848l8.792-5.844-10.8 6.233a.5.5 0 0 1 -.516-.856l.674-.422-.952.55a.5.5 0 0 1 -.524-.851l10.977-7.219-11.039 6.377a.5.5 0 0 1 -.517-.855l5.866-3.725-5.355 3.091a.5.5 0 0 1 -.525-.849l12.16-8.04-11.635 6.717a.5.5 0 0 1 -.52-.852l8.679-5.592-8.159 4.71a.5.5 0 0 1 -.519-.854l7.315-4.671-6.8 3.923a.5.5 0 0 1 -.515-.857l2.079-1.3-1.564.9a.5.5 0 0 1 -.518-.855l6.524-4.154-6.002 3.464a.5.5 0 0 1 -.519-.854l7.779-4.985-7.26 4.19a.5.5 0 0 1 -.524-.85l11.1-7.271-10.574 6.1a.5.5 0 0 1 -.525-.85l12.13-8.017-11.6 6.7a.5.5 0 0 1 -.524-.851l11.572-7.61-11.055 6.383a.5.5 0 0 1 -.524-.851l11.244-7.372-10.72 6.187a.5.5 0 0 1 -.523-.852l7.067-4.606-6.544 3.778a.5.5 0 0 1 -.531-.846l5.819-3.954-5.288 3.053a.5.5 0 0 1 -.537-.842l5.4-3.795-4.863 2.806a.5.5 0 0 1 -.543-.838l4.711-3.4-4.168 2.408a.5.5 0 0 1 -.544-.837l3.292-2.4-2.748 1.59a.5.5 0 0 1 -.56-.825l2.926-2.31-2.366 1.361a.5.5 0 0 1 -.568-.819l.43-.354a.5.5 0 0 1 -.586-.644l.226-.691a.5.5 0 0 1 0-.867l.521-.3a.5.5 0 0 1 .725.589l-.111.34 3.829-2.215a.5.5 0 0 1 .568.818l-.328.271 3.091-1.785a.5.5 0 0 1 .561.826l-2.927 2.315 5.02-2.9a.5.5 0 0 1 .544.837l-3.292 2.398 4.5-2.6a.5.5 0 0 1 .543.838l-4.705 3.394 6.021-3.476a.5.5 0 0 1 .537.842l-5.4 3.8 7.414-4.28a.5.5 0 0 1 .532.845l-5.819 3.957 10.749-6.21a.5.5 0 0 1 .524.852l-7.067 4.606 9.908-5.72a.5.5 0 0 1 .524.85l-11.244 7.373 10.72-6.187a.5.5 0 0 1 .524.85l-11.572 7.611 11.048-6.378a.5.5 0 0 1 .525.849l-12.13 8.017 11.605-6.7a.5.5 0 0 1 .524.85l-11.106 7.277 10.582-6.109a.5.5 0 0 1 .519.854l-7.767 4.978 7.248-4.184a.5.5 0 0 1 .518.854l-6.524 4.155 6.006-3.467a.5.5 0 0 1 .515.856l-2.078 1.3 1.563-.9a.5.5 0 0 1 .519.853l-7.315 4.677 6.8-3.923a.5.5 0 0 1 .52.853l-8.679 5.592 8.159-4.71a.5.5 0 0 1 .525.849l-12.161 8.04 11.632-6.719a.5.5 0 0 1 .517.855l-5.86 3.721 5.343-3.084a.5.5 0 0 1 .524.85l-10.983 7.224 10.459-6.038a.5.5 0 0 1 .515.856l-.686.427.171-.1a.5.5 0 0 1 .526.849l-8.789 5.851 8.263-4.771a.5.5 0 0 1 .527.849l-6.276 4.19 5.749-3.318a.5.5 0 0 1 .524.851l-2.322 1.526 1.8-1.037a.5.5 0 0 1 .54.84l-5 3.563 4.464-2.577a.5.5 0 0 1 .552.831l-3.98 3.021 3.428-1.979a.5.5 0 0 1 .591.8l-3.177 2.966 2.586-1.493a.5.5 0 0 1 .6.787l-.99.987.233-.134a.5.5 0 1 1 .5.865l-3.54 2.033a.5.5 0 0 1 -.6-.786l.99-.987-3.076 1.773a.5.5 0 0 1 -.591-.8l3.178-2.966-6.523 3.766a.5.5 0 0 1 -.553-.831l3.98-3.019-6.671 3.85a.5.5 0 0 1 -.54-.839l5-3.56-7.623 4.399a.5.5 0 0 1 -.524-.85l2.326-1.53-4.121 2.38a.5.5 0 0 1 -.25.07z" fill="#e1efff"/><path d="m17.2 52.5a.5.5 0 0 1 -.268-.922l5.685-3.609-5.337 3.084a.5.5 0 0 1 -.519-.854l7.77-4.979-7.251 4.185a.5.5 0 0 1 -.514-.856l1.757-1.1-1.243.718a.5.5 0 0 1 -.523-.851l10.983-7.189-10.46 6.039a.5.5 0 0 1 -.518-.854l6.573-4.187-6.055 3.495a.5.5 0 0 1 -.529-.848l12-8.075-11.471 6.621a.5.5 0 0 1 -.533-.844l9.6-6.58-9.067 5.232a.5.5 0 0 1 -.524-.851l3.077-2.017-2.553 1.473a.5.5 0 0 1 -.535-.842l4.986-3.466-4.451 2.57a.5.5 0 0 1 -.528-.847l.505-.339a.5.5 0 0 1 -.534-.84l3.76-2.939-3.2 1.849a.5.5 0 0 1 -.566-.82l1.843-1.507-1.28.738a.5.5 0 0 1 -.58-.808l.58-.51a.5.5 0 0 1 -.74-.532l.329-1.646a.491.491 0 0 1 -.271-.224.5.5 0 0 1 .182-.682l.5-.289a.5.5 0 0 1 .74.53l-.284 1.424 3.392-1.958a.5.5 0 0 1 .58.807l-.579.511 2.289-1.321a.5.5 0 0 1 .566.82l-1.844 1.507 4.036-2.33a.5.5 0 0 1 .557.826l-3.76 2.939 6.527-3.769a.5.5 0 0 1 .528.848l-.492.331 2.047-1.182a.5.5 0 0 1 .535.843l-4.992 3.47 7.474-4.316a.5.5 0 0 1 .524.851l-3.079 2.018 4.975-2.872a.5.5 0 0 1 .534.845l-9.592 6.576 12.862-7.426a.5.5 0 0 1 .529.848l-12 8.077 13.368-7.717a.5.5 0 0 1 .518.855l-6.574 4.188 6.059-3.5a.5.5 0 0 1 .523.851l-10.984 7.19 10.463-6.041a.5.5 0 0 1 .514.857l-1.74 1.091 1.23-.709a.5.5 0 0 1 .519.853l-7.771 4.982 7.253-4.189a.5.5 0 0 1 .518.855l-5.695 3.616 5.179-2.99a.5.5 0 0 1 .52.853l-4.5 2.878 3.987-2.3a.5.5 0 0 1 .523.853l-4.512 2.925 3.991-2.3a.5.5 0 0 1 .537.842l-7.848 5.516 7.313-4.221a.5.5 0 0 1 .549.833l-6.338 4.725 5.785-3.35a.5.5 0 0 1 .544.837l-2.733 1.985 2.191-1.262a.5.5 0 0 1 .577.811l-3.019 2.611 2.444-1.411a.5.5 0 0 1 .592.8l-1.14 1.07.55-.317a.5.5 0 0 1 .712.625l-.5 1.188a.5.5 0 0 1 .286.932l-1.035.6a.5.5 0 0 1 -.712-.625l.465-1.114-3.019 1.742a.5.5 0 0 1 -.592-.8l1.138-1.068-3.237 1.869a.5.5 0 0 1 -.577-.81l3.025-2.618-5.94 3.43a.5.5 0 0 1 -.544-.837l2.733-1.984-4.892 2.824a.5.5 0 0 1 -.549-.833l6.341-4.728-9.64 5.565a.5.5 0 0 1 -.537-.842l7.845-5.514-11.017 6.361a.5.5 0 0 1 -.522-.853l4.506-2.922-6.545 3.778a.5.5 0 0 1 -.519-.854l4.513-2.883-6.478 3.74a.494.494 0 0 1 -.255.067z" fill="#3c7bc8"/><path d="m29.58 46.443a.5.5 0 0 1 -.371-.836l2.17-2.4-3.779 2.186a.5.5 0 0 1 -.562-.824l.962-.769-1.146.661a.5.5 0 0 1 -.556-.828l.462-.357-.332.192a.5.5 0 0 1 -.587-.8l2.494-2.27-1.959 1.131a.5.5 0 0 1 -.588-.8l1.889-1.736-.132.075a.5.5 0 0 1 -.592-.8l1.235-1.156a.475.475 0 0 1 -.114-.093.5.5 0 0 1 -.042-.623l1.013-1.456a.466.466 0 0 1 -.086-.11.5.5 0 0 1 .183-.683l.858-.492a.5.5 0 0 1 .66.718l-.527.759.5-.29a.5.5 0 0 1 .592.8l-.415.388.293-.169a.5.5 0 0 1 .587.8l-1.885 1.739 2.047-1.182a.5.5 0 0 1 .586.8l-2.5 2.271 2.8-1.615a.5.5 0 0 1 .556.828l-.456.352.412-.238a.5.5 0 0 1 .561.824l-.96.767.784-.452a.5.5 0 0 1 .621.768l-2.171 2.4 1.273-.734a.5.5 0 1 1 .5.865l-4.028 2.322a.489.489 0 0 1 -.25.067z" fill="#fff"/><path d="m24.275 5.47a.5.5 0 0 1 -.321-.883l.335-.281-1.9 1.1a.5.5 0 0 1 -.6-.793l1.135-1.09-1.642.947a.5.5 0 0 1 -.67-.7l.834-1.291a.5.5 0 0 1 -.383-.915l1.659-.964a.5.5 0 0 1 .67.7l-.815 1.26 3.408-1.96a.5.5 0 0 1 .6.793l-1.139 1.089 3.266-1.882a.5.5 0 0 1 .571.815l-.335.281 1.902-1.096a.5.5 0 0 1 .612.777l-1.362 1.423 3.823-2.2a.5.5 0 0 1 .6.785l-1.269 1.281 3.573-2.066a.5.5 0 0 1 .572.814l-.37.313 1.054-.608a.5.5 0 0 1 .6.078.5.5 0 0 1 .082.6l-1.031 1.816.986-.568a.5.5 0 0 1 .5.865l-2.585 1.49a.5.5 0 0 1 -.685-.68l1.033-1.81-4.313 2.49a.5.5 0 0 1 -.572-.814l.371-.314-1.955 1.128a.5.5 0 0 1 -.605-.785l1.275-1.284-3.584 2.069a.5.5 0 0 1 -.613-.777l1.358-1.423-3.82 2.2a.493.493 0 0 1 -.25.07z" fill="#3c7bc8"/><g fill="#262626"><path d="m22.111 8.64c-.952 4.1-5.3 6.461-5.779 10.765-.3 11.74.071 23.555-.064 35.323-1.07 8.284 14.05 3.631 19.129 4.777 3 0 8.175.753 8.335-3.649.065-11.67-.041-23.349 0-35.022.412-6.079-6.892-9.117-6-15.274a1.873 1.873 0 0 0 2.007-1.945c.239-5.8-10.856-2.258-14.658-3.176-4.683-1.2-6.895 4.788-2.8 5.161a14.15 14.15 0 0 1 -.17 3.04zm-4.381 19.879h24.538v23.142h-24.536q-.003-11.571-.002-23.142zm24.538-1.038h-24.54q0-2.145 0-4.29c13.532-5.025 10.272 3.451 24.54-1.878zm-.068 29.225c-1.122 3.71-14.358 1.016-18.22 1.791-5.41.646-6.749-.807-6.247-6.158h24.535a40.461 40.461 0 0 1 -.068 4.367zm-5.8-48.129c.862 4.625 6.135 7.22 5.87 12.232-13.535 5.026-10.27-3.451-24.542 1.878-1.372-6.907 6.839-10.406 6.01-17.127h12.525a16.51 16.51 0 0 0 .137 3.017zm-14.664-5.286a1.537 1.537 0 0 1 1.964-1.731c4.616.261 9.517-.528 14 .312a2.245 2.245 0 0 1 .36 2.568c-2.566-.605-16.904 1.412-16.324-1.149z"/><path d="m29.34 46.41c6.5 0 6.245-6.167 2.881-10.1-.661-.9-.608-2.715-2-2.739-1.593-.08-1.7 1.7-2.32 2.759-2.717 3.193-4.295 9.343 1.439 10.08zm-.566-9.135a18.66 18.66 0 0 0 1.175-2.423c10.294 14.648-8.981 13.148-1.175 2.423z"/></g></svg>