<svg id="icons" height="512" viewBox="0 0 60 60" width="512" xmlns="http://www.w3.org/2000/svg"><path d="m10.368 50.179a.5.5 0 0 1 -.285-.911l4.949-3.435-5.943 3.431a.5.5 0 0 1 -.517-.856l4.872-3.075-4.791 2.767a.5.5 0 0 1 -.515-.857l17.285-10.827-17.246 9.956a.5.5 0 0 1 -.516-.856l19.067-11.951-19.051 11a.5.5 0 0 1 -.517-.855l20.329-12.8-20.342 11.74a.5.5 0 0 1 -.51-.859l8.287-5.063-8.118 4.686a.5.5 0 0 1 -.511-.859l7.755-4.735-7.58 4.38a.5.5 0 0 1 -.515-.856l18.25-11.409-18.219 10.514a.5.5 0 0 1 -.51-.859l9.824-6.02-9.671 5.584a.5.5 0 0 1 -.509-.86l2.425-1.47-2.208 1.276a.5.5 0 0 1 -.513-.859l12.908-7.955-12.791 7.383a.5.5 0 0 1 -.51-.859l7.726-4.718-7.552 4.36a.5.5 0 0 1 -.509-.86l3.441-2.092-3.231 1.868a.5.5 0 0 1 -.51-.86l1.808-1.1-1.586.915a.5.5 0 0 1 -.518-.855l14.259-9.034-14.207 8.2a.5.5 0 0 1 -.513-.859l1.611-.993-1.388.8a.5.5 0 0 1 -.514-.858l.426-.264-.192.111a.5.5 0 0 1 -.523-.852l6.965-4.544-6.842 3.95a.5.5 0 0 1 -.531-.847l5.707-3.88-5.59 3.227a.5.5 0 0 1 -.549-.834l4.316-3.222-4.215 2.443a.5.5 0 0 1 -.578-.811l1.947-1.691-1.767 1.02a.5.5 0 0 1 -.628-.759l.493-.57a.5.5 0 0 1 -.126-.918l1.905-1.1a.5.5 0 0 1 .628.76l-.208.241 3.714-2.142a.5.5 0 0 1 .578.81l-1.95 1.691 7.052-4.072a.5.5 0 0 1 .549.834l-4.314 3.221 10.015-5.782a.5.5 0 0 1 .532.846l-5.711 3.884 10.957-6.327a.5.5 0 0 1 .523.853l-6.96 4.54 12.007-6.932a.5.5 0 0 1 .514.858l-.424.263 3.805-2.2a.5.5 0 0 1 .513.859l-1.605.989 5.135-2.965a.5.5 0 0 1 .518.856l-14.266 9.04 20.207-11.667a.5.5 0 0 1 .51.86l-1.785 1.086 2.8-1.619a.5.5 0 0 1 .51.861l-3.452 2.095 3.624-2.092a.5.5 0 0 1 .511.859l-7.725 4.717 7.569-4.37a.5.5 0 0 1 .513.858l-12.91 7.957 12.793-7.386a.5.5 0 0 1 .509.861l-2.411 1.461 2.2-1.268a.5.5 0 0 1 .511.86l-9.842 6.029 9.689-5.594a.5.5 0 0 1 .514.857l-18.255 11.41 18.223-10.521a.5.5 0 0 1 .511.86l-7.747 4.729 7.574-4.373a.5.5 0 0 1 .511.86l-8.278 5.062 8.11-4.682a.5.5 0 0 1 .516.856l-20.331 12.8 20.346-11.748a.5.5 0 0 1 .516.857l-19.071 11.953 17.456-10.078a.5.5 0 0 1 .516.857l-17.28 10.823 2.685-1.55a.5.5 0 0 1 .517.856l-9.995 6.308a.493.493 0 0 1 .183.172.5.5 0 0 1 -.136.679l-11.959 8.297a.5.5 0 0 1 -.248.478l-2.649 1.529a.493.493 0 0 1 -.25.072z" fill="#3b7ac8"/><path d="m5.017 29.306a.5.5 0 0 1 -.307-.895l3.98-3.087-5.462 3.154a.5.5 0 0 1 -.582-.808l2.132-1.888-1.978 1.142a.5.5 0 0 1 -.737-.548l.215-.907a.5.5 0 0 1 -.392-.912l.891-.515a.5.5 0 0 1 .737.548l-.21.889 5.263-3.04a.5.5 0 0 1 .581.808l-2.131 1.889 7.526-4.346a.5.5 0 0 1 .557.828l-3.982 3.088 9.882-5.706a.5.5 0 0 1 .557.828l-3.957 3.072 9.861-5.693a.5.5 0 0 1 .556.828l-3.962 3.077 9.868-5.7a.5.5 0 0 1 .549.834l-3.569 2.664 8.869-5.121a.5.5 0 0 1 .558.828l-4.018 3.131 10-5.773a.5.5 0 0 1 .535.844l-1.645 1.136 3.016-1.741a.5.5 0 0 1 .595.794l-3.053 2.926 3.021-1.734a.5.5 0 0 1 .737.548l-.236 1a.5.5 0 0 1 .446.894l-.945.545a.5.5 0 0 1 -.736-.547l.234-1-5.6 3.235a.5.5 0 0 1 -.6-.794l3.054-2.926-10.1 5.833a.5.5 0 0 1 -.534-.844l1.647-1.138-5.568 3.212a.5.5 0 0 1 -.558-.827l4.017-3.132-9.978 5.762a.5.5 0 0 1 -.549-.834l3.568-2.665-8.851 5.111a.5.5 0 0 1 -.557-.828l3.964-3.078-9.85 5.687a.5.5 0 0 1 -.557-.829l3.955-3.071-9.917 5.725a.494.494 0 0 1 -.25.067z" fill="#244766"/><path d="m16.7 53.47a.5.5 0 0 1 -.262-.926l11.49-7.065-13.722 7.921a.5.5 0 0 1 -.516-.856l21.878-13.721-23.89 13.793a.5.5 0 0 1 -.509-.86l5.209-3.15-5.089 2.938a.5.5 0 0 1 -.511-.859l14.644-8.967-14.142 8.164a.5.5 0 0 1 -.508-.861l2.321-1.4-1.813 1.046a.5.5 0 0 1 -.516-.855l20.807-13.083-20.291 11.714a.5.5 0 0 1 -.511-.858l10.031-6.171-9.52 5.5a.5.5 0 0 1 -.514-.856l12.792-7.982-12.278 7.084a.5.5 0 0 1 -.516-.855l12.965-8.186-12.449 7.188a.5.5 0 0 1 -.519-.854l12.285-7.853-11.766 6.8a.5.5 0 0 1 -.523-.85l12.41-8.121-11.887 6.86a.5.5 0 0 1 -.523-.851l9.18-6.006-8.657 5a.5.5 0 0 1 -.525-.851l7.019-4.623-6.494 3.747a.5.5 0 0 1 -.533-.845l7.241-4.968-6.708 3.873a.5.5 0 0 1 -.548-.834l6.912-5.131-6.364 3.671a.5.5 0 0 1 -.562-.824l4.854-3.884-4.292 2.479a.5.5 0 0 1 -.574-.814l2.624-2.24-2.05 1.184a.5.5 0 0 1 -.589-.8l.929-.856-.34.2a.5.5 0 0 1 -.641-.744l.551-.7a.491.491 0 0 1 -.307-.234.5.5 0 0 1 .182-.683l1.657-.956a.5.5 0 0 1 .641.744l-.308.389 1.966-1.132a.5.5 0 0 1 .588.8l-.928.856 2.869-1.656a.5.5 0 0 1 .574.813l-2.624 2.238 5.289-3.051a.5.5 0 0 1 .563.823l-4.852 3.877 8.15-4.7a.5.5 0 0 1 .548.834l-6.91 5.133 10.335-5.967a.5.5 0 0 1 .533.845l-7.243 4.97 10.071-5.815a.5.5 0 0 1 .526.85l-7.026 4.628 9.489-5.478a.5.5 0 0 1 .523.851l-9.177 6 11.873-6.851a.5.5 0 0 1 .524.851l-12.409 8.116 15.537-8.967a.5.5 0 0 1 .519.854l-12.285 7.846 15.072-8.7a.5.5 0 0 1 .517.856l-12.977 8.189 15.672-9.045a.5.5 0 0 1 .515.857l-12.777 7.969 15.292-8.826a.5.5 0 0 1 .511.859l-10.039 6.172 12.184-7.031a.5.5 0 0 1 .516.856l-20.813 13.083 23.826-13.756a.5.5 0 0 1 .508.862l-2.3 1.389 2.627-1.517a.5.5 0 0 1 .511.859l-14.65 8.972 14.447-8.343a.5.5 0 0 1 .509.861l-5.217 3.155 4.708-2.721a.5.5 0 0 1 .515.857l-21.88 13.726 21.365-12.335a.5.5 0 0 1 .511.859l-11.479 7.059 10.968-6.333a.5.5 0 0 1 .514.858l-13.842 8.622 13.328-7.695a.5.5 0 0 1 .516.856l-14.409 9.1 13.893-8.024a.5.5 0 0 1 .514.857l-7.722 4.808 7.208-4.161a.5.5 0 0 1 .514.857l-5.669 3.533 5.155-2.975a.5.5 0 0 1 .512.858l-.419.258a.5.5 0 0 1 .426.9l-7.839 5.026 7.324-4.228a.5.5 0 0 1 .517.855l-3.061 1.939 2.544-1.468a.5.5 0 0 1 .524.851l-6.185 4.061 5.661-3.268a.5.5 0 0 1 .521.852l-1.577 1.015 1.052-.607a.5.5 0 0 1 .53.847l-4.171 2.819 3.641-2.1a.5.5 0 0 1 .547.835l-5.284 3.905 4.737-2.733a.5.5 0 0 1 .538.841l-1.216.859.678-.391a.5.5 0 0 1 .567.82l-2.408 1.975 1.841-1.062a.5.5 0 0 1 .58.808l-.875.764.3-.17a.5.5 0 0 1 .656.725l-.685.953a.5.5 0 0 1 .243.932l-1.655.956a.5.5 0 0 1 -.62-.1.5.5 0 0 1 -.036-.628l.586-.816-2.677 1.548a.5.5 0 0 1 -.58-.808l.875-.767-2.732 1.575a.5.5 0 0 1 -.568-.819l2.409-1.977-4.841 2.796a.5.5 0 0 1 -.538-.84l1.211-.858-2.941 1.7a.5.5 0 0 1 -.547-.835l5.284-3.906-8.215 4.739a.5.5 0 0 1 -.53-.846l4.176-2.818-6.355 3.664a.5.5 0 0 1 -.522-.852l1.558-1-3.218 1.852a.5.5 0 0 1 -.525-.85l6.2-4.068-8.524 4.918a.5.5 0 0 1 -.517-.855l3.059-1.938-4.839 2.793a.5.5 0 0 1 -.519-.853l7.843-5.029-10.191 5.882a.5.5 0 0 1 -.513-.858l.091-.056-1.584.914a.5.5 0 0 1 -.514-.857l5.681-3.543-7.619 4.4a.5.5 0 0 1 -.514-.857l7.722-4.804-9.812 5.661a.5.5 0 0 1 -.517-.855l14.408-9.095-17.235 9.95a.5.5 0 0 1 -.515-.857l13.842-8.621-16.419 9.478a.5.5 0 0 1 -.252.07z" fill="#89d461"/><path d="m20.318 34.47a.5.5 0 0 1 -.34-.866l1.413-1.313-3.569 2.06a.5.5 0 0 1 -.546-.836l.024-.015-.483.278a.5.5 0 0 1 -.583-.8l3.366-3.021-3.32 1.917a.5.5 0 0 1 -.62-.769l1.854-2.04-1.234.712a.5.5 0 0 1 -.633-.754l.48-.571a.5.5 0 0 1 -.062-.9l1.657-.956a.5.5 0 0 1 .632.755l-.115.137 1.549-.894a.5.5 0 0 1 .62.769l-1.854 2.041 4.731-2.732a.5.5 0 0 1 .583.806l-3.368 3.022 4.159-2.4a.5.5 0 0 1 .546.836l-.3.22a.5.5 0 0 1 .407.862l-1.412 1.307.823-.474a.5.5 0 0 1 .655.726l-.676.935a.5.5 0 0 1 .235.932l-1.655.956a.5.5 0 0 1 -.655-.725l.57-.788-2.629 1.513a.49.49 0 0 1 -.25.07z" fill="#fbdd4d"/><g fill="#262626"><path d="m2.566 29.477q2.384 8.612 4.765 17.237c.251 1.618 1 3.548 2.935 3.306-.436 4.939 5.525 3.235 8.632 3.512h37.172c3.32.382 3.879-2.4 3.664-4.947-.035-8.539.055-17.086 0-25.621-.538-3.941-5.585-2.066-8.3-2.5-5.347-20.079-1.38-13.985-25.919-8.4l-21.465 5.936c-6.805.878-2.134 7.312-1.484 11.477zm7.7-5.527v2.922l-6.376 1.761q-.53-1.917-1.06-3.834l7.487-2.072a8.279 8.279 0 0 0 -.051 1.223zm-1.259 23.2q-2.433-8.8-4.865-17.6l6.124-1.692v21.228c-.758-.306-1.001-1.008-1.259-1.94zm47.405-25.618c1.614-.151 2.069 1.451 1.854 2.838v25.883c0 .916.077 2.112-1.2 2.215-14.639-.028-29.314.04-43.933 0-1.894-.259-1.4-2.987-1.4-4.339.046-8.359-.071-16.74 0-25.079.131-1.844 1.715-1.518 3.039-1.518zm-7.646-5.079-14.524 4.015q-7.405.012-14.8-.045l28.268-7.814q.525 1.923 1.056 3.844zm.265 4.015h-12.864l12.733-3.52.972 3.52zm-47.053-.768c13.176-4.819 27.545-7.634 41.115-11.777 3.4-1.671 3.668 1.162 4.348 3.732-11.406 2.681-22.6 7.229-34.154 8.816a2.968 2.968 0 0 0 -2.787 1.603l-7.824 2.166c-.22-1.466-1.366-3.096-.698-4.54z"/><path d="m15.279 29.072c.055 1.814-.641 4.77 1.826 5.187 2.734-.211 8.057 1.343 8.62-2.507.372-3.972-.4-5.553-4.667-5.049-1.943-.003-5.598-.403-5.779 2.369zm7.243-1.772c2.333-.212 2.319 5.543.933 6.4-3.365-.237-7.549 1.4-6.73-3.84 0-.893-.114-1.916.724-2.5 1.6-.169 3.401-.009 5.073-.06z"/><path d="m15.557 42.394c.406.064 1.145-.092 1.167-.588-.152-.655.351-1.858-.28-2.2-.407-.064-1.146.092-1.168.588.152.655-.351 1.858.281 2.2z"/><path d="m20.089 42.332c1.122-.234.475-1.7.636-2.526-.276-.387-.98-.141-1.3.1-.365.631-.049 1.557-.15 2.291.134.272.571.192.814.135z"/><path d="m24.574 39.64a1.064 1.064 0 0 0 -1.3.446c.106.72-.224 1.67.152 2.274a1.064 1.064 0 0 0 1.3-.446c-.106-.72.224-1.67-.152-2.274z"/><path d="m29.938 42.54c.334-.026.751-.23.8-.593-.176-.765.525-2.5-.673-2.487-.334.026-.751.23-.8.592.176.766-.525 2.499.673 2.488z"/><path d="m33.532 42.3c1.6.15 1.148-1.43 1.192-2.5a1.2 1.2 0 0 0 -1.448.388c.15.612-.339 1.871.256 2.112z"/><path d="m37.917 42.46c.313-.04.74-.2.812-.535-.107-.732.23-1.688-.16-2.306a.992.992 0 0 0 -1.3.456c.182.725-.522 2.469.648 2.385z"/><path d="m43.525 42.275c1.646.088 1.135-1.349 1.2-2.469a1.366 1.366 0 0 0 -1.448.388c.148.591-.335 1.872.248 2.081z"/><path d="m47.94 42.546c.336-.025.751-.233.8-.6-.176-.768.525-2.5-.675-2.495-.336.025-.751.233-.8.6.176.768-.525 2.501.675 2.495z"/><path d="m51.539 42.328c1.6.181 1.133-1.476 1.185-2.522a1.084 1.084 0 0 0 -1.448.388c.151.62-.343 1.861.263 2.134z"/><path d="m24.286 46.605c-2.9.29-6.286-.6-8.958.388-.171.284.146.4.386.4h7.009c.637-.047 1.5.182 1.949-.389.171-.281-.146-.399-.386-.399z"/><path d="m29.338 47.031c-.191.264.167.3.359.3 2.918-.269 6.238.559 8.965-.362.191-.265-.167-.3-.359-.3-2.918.268-6.238-.56-8.965.362z"/></g></svg>