<svg height="506pt" viewBox="0 -15 506.03867 506" width="506pt" xmlns="http://www.w3.org/2000/svg"><g fill-rule="evenodd"><path d="m165.613281 477.089844c-1.855469 0-3.5-1.199219-4.066406-2.964844-.570313-1.769531.070313-3.699219 1.582031-4.777344l32.8125-23.433594-51.933594 29.960938c-2 1.1875-4.578124.558594-5.804687-1.414062-1.226563-1.972657-.648437-4.5625 1.296875-5.828126l22.375-14.941406-35.125 20.273438c-1.976562 1.136718-4.5.511718-5.722656-1.410156-1.222656-1.925782-.71875-4.472657 1.152344-5.785157l67.171874-46.777343-85.445312 49.320312c-2 1.085938-4.5.410156-5.679688-1.535156-1.179687-1.949219-.625-4.476563 1.261719-5.75l8.25-5.257813-15.511719 8.933594c-2.003906 1.164063-4.570312.519531-5.78125-1.453125-1.210937-1.976562-.628906-4.558594 1.316407-5.816406l49.707031-32.238282-58.582031 33.824219c-1.984375 1.085938-4.472657.429688-5.667969-1.492187s-.679688-4.441406 1.171875-5.742188l95.164063-63.582031-104.722657 60.457031c-2.007812 1.179688-4.589843.527344-5.800781-1.460937s-.601562-4.582031 1.367188-5.824219l71.320312-45.910156-73.277344 42.300781c-1.988281 1.054687-4.457031.386719-5.636718-1.53125-1.179688-1.917969-.664063-4.425781 1.175781-5.722656l101.1875-66.253907-99.480469 57.429688c-2.003906 1.121094-4.535156.453125-5.730469-1.507812-1.191406-1.960938-.617187-4.515626 1.300781-5.777344l64.308594-40.875-61.527344 35.515625c-2.007812 1.148437-4.566406.484375-5.765624-1.496094-1.199219-1.976563-.601563-4.550781 1.34375-5.800781l68.949218-43.84375-66.214844 38.21875c-2 1.101562-4.511718.433594-5.699218-1.515625-1.191406-1.949219-.632813-4.488281 1.261718-5.761719l89.09375-57.226562-86.550781 49.964843c-2.003906 1.054688-4.484375.363281-5.648437-1.578125-1.167969-1.941406-.613282-4.457031 1.261718-5.726562l37.222657-23.269532-34.246094 19.761719c-2.015625 1.136719-4.570313.457031-5.757813-1.527343-1.183593-1.984376-.574218-4.554688 1.378907-5.792969l11.949219-7.398438-8.824219 5.117188c-2.023438 1.210937-4.644531.550781-5.855469-1.476563-1.207031-2.023437-.546875-4.644531 1.476562-5.851562l3.414063-2.125-.289063.160156c-2.015624 1.164062-4.589843.496094-5.789062-1.496094-1.199219-1.996094-.578125-4.582031 1.394531-5.816406l57.460938-36.085938-54.570313 31.574219c-2.003906 1.117188-4.535156.453125-5.726562-1.507812-1.191406-1.964844-.617188-4.519531 1.300781-5.78125l86.601563-55.089844-83.976563 48.503906c-1.296875.796875-2.921875.84375-4.265625.117188-1.339844-.726563-2.191406-2.109375-2.234375-3.636719-.042969-1.523438.730469-2.953125 2.03125-3.753906l128.734375-83.90625-126.628906 73.113281c-2.015625 1.136719-4.566406.457031-5.753906-1.527344s-.578126-4.554687 1.378906-5.792969l42.785156-26.601562-39.835938 23.042969c-2 1.140625-4.546874.480469-5.75-1.484375-1.203124-1.96875-.625-4.535156 1.304688-5.796875l127.078125-82.175781-124.890625 72.054687c-2.003906 1.121094-4.535156.457031-5.730469-1.507813-1.191406-1.960937-.617187-4.515624 1.300781-5.777343l105.328126-66.980469-102.84375 59.394531c-1.996094 1.082031-4.492188.414063-5.675782-1.523437-1.1875-1.9375-.644531-4.464844 1.226563-5.746094l137.609375-89.097656-135.515625 78.234375c-2.011719 1.125-4.550781.453125-5.742188-1.519531-1.1875-1.972657-.597656-4.535157 1.335938-5.785157l83.371093-52.269531-80.664062 46.585938c-1.992188 1.019531-4.433594.328124-5.59375-1.585938s-.644531-4.398438 1.179688-5.695312l96.734374-60.996094-94.136718 54.324218c-2.007813 1.101563-4.523438.425782-5.707032-1.53125-1.1875-1.957031-.613281-4.5 1.292969-5.765624l85.1875-53.597657-82.5 47.652344c-2 1.082031-4.5.40625-5.679687-1.539063-1.179688-1.945312-.625-4.476562 1.261718-5.75l95.84375-60.84375-93.292968 53.855469c-2.003906 1.101563-4.523438.425781-5.707032-1.53125-1.183593-1.957031-.613281-4.5 1.292969-5.765625l69.035157-43.460937-66.261719 38.257812c-2 1.140625-4.546875.480469-5.75-1.484375-1.203125-1.96875-.625-4.535156 1.304687-5.796875l97.367188-62.796875-94.925782 54.800782c-2.003906 1.085937-4.511718.402343-5.6875-1.550782-1.175781-1.953125-.605468-4.488281 1.292969-5.753906l32.351563-20.273438-29.347656 16.9375c-1.996094 1.085938-4.492188.414063-5.675782-1.523437s-.644531-4.464844 1.230469-5.746094l73.90625-47.785156-71.296875 41.136719c-2.003906 1.121094-4.535156.453125-5.726562-1.507813-1.191407-1.960937-.617188-4.515625 1.300781-5.777343l44.269531-28.347657-41.378906 23.890625c-1.300782.796875-2.929688.835938-4.265625.105469-1.339844-.730469-2.1875-2.121094-2.222657-3.644531-.039062-1.523438.742188-2.953125 2.042969-3.746094l33.03125-21.207031-30.042969 17.347656c-2.003906 1.242187-4.636718.625-5.875-1.378906-1.242187-2-.625-4.632813 1.375-5.875l50.816407-33.695313-48.050781 27.742188c-2 1.246094-4.632813.632812-5.878907-1.367188-1.246093-2-.636719-4.632812 1.363281-5.878906l37.285157-24.925781-34.390625 19.855469c-1.96875 1.125-4.476563.511718-5.703125-1.398438-1.226563-1.90625-.746094-4.441406 1.09375-5.769531l44.324219-31.570313-41.652344 24.011719c-1.96875 1.125-4.476563.507813-5.703125-1.398437-1.226563-1.910157-.746094-4.445313 1.09375-5.769532l18.085937-12.859375-14.765625 8.53125c-1.898437 1.179688-4.386719.691407-5.699219-1.117187s-1.007812-4.324219.699219-5.769532l15.871094-14.105468c-2.078125.726562-4.371094-.253906-5.28125-2.257813-.914063-2.003906-.152344-4.375 1.757813-5.472656l35.089843-20.257813c1.894531-1.078124 4.292969-.554687 5.570313 1.210938 1.273437 1.765625 1.015625 4.207031-.605469 5.667969l-15.546875 13.824219 56.558594-32.65625c1.972656-1.125 4.476562-.511719 5.703125 1.398437 1.226562 1.90625.746093 4.441406-1.09375 5.769531l-18.046875 12.796875 40.804687-23.550781c1.972657-1.15625 4.507813-.554688 5.746094 1.371094 1.238281 1.921875.742187 4.480468-1.128906 5.796875l-44.332031 31.632812 69.488281-40.105469c1.988281-1.117187 4.503906-.46875 5.707031 1.464844 1.207031 1.9375.675781 4.476563-1.203125 5.769532l-37.296875 24.976562 54.953125-31.734375c1.296875-.804687 2.921875-.855469 4.265625-.132813 1.34375.71875 2.199219 2.101563 2.25 3.625.046875 1.523438-.722656 2.957032-2.019531 3.761719l-50.847657 33.722657 67.753907-39.117188c2.011719-1.226562 4.636719-.589844 5.867187 1.421875 1.226563 2.011719.589844 4.640625-1.421875 5.867187l-33.015625 21.1875 45.6875-26.375c2.007813-1.179687 4.589844-.527343 5.800782 1.460938 1.210937 1.988281.605468 4.582031-1.363282 5.824219l-44.332031 28.382812 56.414063-32.570312c2.003906-1.140625 4.550781-.484375 5.753906 1.484375 1.199218 1.964844.621094 4.53125-1.308594 5.792968l-73.792969 47.734376 87.292969-50.40625c2.019531-1.214844 4.644531-.5625 5.859375 1.457031s.566406 4.640625-1.453125 5.859375l-32.324219 20.257812 40.875-23.605468c2-1.140626 4.546875-.484376 5.75 1.484374s.625 4.535157-1.304687 5.796876l-97.460938 62.855468 109.371094-63.148437c2.003906-1.070313 4.492188-.382813 5.664062 1.558593 1.175782 1.945313.621094 4.464844-1.257812 5.738282l-69.035156 43.46875 76.023437-43.894532c2.003907-1.101562 4.523438-.425781 5.707031 1.53125 1.183594 1.957032.609376 4.5-1.296874 5.765626l-95.769532 60.808593 102.246094-59.035156c2.003906-1.101563 4.523438-.425781 5.707031 1.53125 1.183594 1.957031.613281 4.5-1.292969 5.765625l-85.285156 53.621094 87.894532-50.753906c2.015624-1.21875 4.640624-.570313 5.859374 1.445312s.570313 4.640625-1.449218 5.859375l-96.679688 60.960937 94.878906-54.757812c2.019532-1.214844 4.644532-.566406 5.859376 1.453125 1.214843 2.019531.566406 4.644531-1.453126 5.859375l-83.492187 52.328125 77.125-44.511719c1.996094-1.082031 4.492187-.414062 5.675781 1.523438s.644532 4.464844-1.230468 5.746094l-137.597657 89.0625 130.386719-75.28125c2.015625-1.222657 4.640625-.578126 5.863281 1.433593 1.222657 2.015625.582031 4.640625-1.433593 5.863281l-105.328126 66.980469 98.644532-56.953125c1.996094-1.082031 4.492187-.414062 5.675781 1.523438 1.1875 1.9375.644531 4.464844-1.226563 5.746094l-127.054687 82.167968 119.96875-69.257812c2.011719-1.105469 4.539063-.425782 5.71875 1.542968s.59375 4.519532-1.332031 5.773438l-42.851563 26.648438 36.8125-21.257813c2-1.164063 4.566407-.519531 5.78125 1.457031 1.210938 1.972656.625 4.554688-1.320312 5.8125l-128.691407 83.867188 121.488282-70.144532c2.015625-1.222656 4.640625-.582031 5.863281 1.433594s.582031 4.640625-1.433594 5.863282l-86.714843 55.089843 80.214843-46.292969c2.007813-1.125 4.546875-.453124 5.738281 1.519532 1.1875 1.972656.597657 4.535156-1.335937 5.785156l-57.445313 36.054688 51.199219-29.570313c1.308594-.78125 2.933594-.804687 4.265625-.0625 1.332032.742187 2.167969 2.140625 2.191406 3.664063.023438 1.527343-.769531 2.949218-2.082031 3.730468l-5.117187 3.164063c2.050781-.753907 4.339844.164062 5.300781 2.125.964844 1.964843.289063 4.335937-1.5625 5.496093l-11.804687 7.3125 5.972656-3.414062c2.015625-1.160156 4.59375-.492188 5.789062 1.5 1.199219 1.996094.578125 4.582031-1.390625 5.816406l-37.351562 23.277344 31.289062-18.066406c2.003907-1.140625 4.550781-.480469 5.753907 1.484375 1.203124 1.96875.625 4.535156-1.304688 5.796875l-89.183594 57.292968 82.527344-47.644531c2.011719-1.222656 4.636719-.578125 5.859375 1.433594 1.226563 2.015625.582031 4.640625-1.433594 5.863281l-68.863281 43.792969 62.480469-36.070313c2.011719-1.148437 4.570312-.484374 5.769531 1.496094 1.199219 1.976563.601562 4.550782-1.347656 5.800782l-64.296875 40.867187 57.949219-33.453125c1.988281-1.082031 4.480468-.417969 5.671874 1.511719 1.1875 1.929687.660157 4.449219-1.203124 5.742187l-101.203126 66.261719 94.242188-54.40625c1.300781-.796875 2.929688-.835937 4.265625-.105469 1.339844.730469 2.1875 2.121094 2.222656 3.644532.039063 1.523437-.742187 2.953124-2.042969 3.746093l-71.296874 45.882813 64.785156-37.398438c1.988281-1.085937 4.476562-.429687 5.667968 1.492188 1.195313 1.921875.683594 4.441406-1.171874 5.742187l-95.179688 63.609375 88.074219-50.851562c2.007812-1.234375 4.636719-.601563 5.871093 1.40625 1.230469 2.011718.601563 4.640625-1.410156 5.871094l-49.65625 32.207031 43.308594-24.996094c2-1.082031 4.5-.40625 5.679688 1.539063 1.179687 1.945312.625 4.476562-1.257813 5.75l-8.425781 5.367187 2.5625-1.46875c1.976562-1.136719 4.5-.511719 5.722656 1.410156 1.222656 1.925781.71875 4.472657-1.148438 5.785157l-67.140624 46.761718 60.039062-34.671875c1.996094-1.183593 4.574219-.554687 5.800781 1.414063 1.226563 1.972656.652344 4.566406-1.292969 5.832031l-22.425781 14.984375 16.210938-9.386719c1.96875-1.136719 4.484375-.527343 5.71875 1.382813 1.234375 1.914062.75 4.460937-1.101563 5.785156l-32.777344 23.441406 26.148438-15.097656c1.9375-1.097656 4.398438-.519531 5.644531 1.328125 1.246094 1.851563.855469 4.347656-.894531 5.730469l-23.890625 18.542968 17.066406-9.855468c1.875-1.007813 4.207031-.476563 5.464844 1.242187 1.253906 1.722657 1.046875 4.105469-.480469 5.582031l-9.917968 8.910157c1.824218.21875 3.304687 1.574219 3.675781 3.375.371093 1.796875-.449219 3.632812-2.035157 4.554687l-29.65625 17.140625c-1.875 1.007813-4.207031.476563-5.460937-1.242187-1.257813-1.71875-1.050781-4.101563.480469-5.582032l6.875-6.1875-35.839844 20.71875c-1.941406 1.109376-4.410156.527344-5.65625-1.328124-1.246094-1.855469-.847656-4.359376.914062-5.738282l23.890626-18.550781-48.433594 27.9375c-.648438.378906-1.382813.574219-2.132813.574219zm0 0" fill="#67d4f1"/><path d="m162.617188 118.859375c-1.855469-.003906-3.496094-1.203125-4.058594-2.96875-.566406-1.765625.074218-3.695313 1.585937-4.773437l47.785157-34.011719-69.972657 40.414062c-1.988281 1.132813-4.515625.496094-5.730469-1.445312-1.214843-1.9375-.679687-4.492188 1.207032-5.78125l35.78125-24.21875-51.390625 29.695312c-1.996094 1.136719-4.535157.484375-5.738281-1.472656-1.207032-1.957031-.644532-4.515625 1.269531-5.789063l20.105469-13.226562-31.847657 18.371094c-1.976562 1.140625-4.496093.527344-5.722656-1.394532-1.230469-1.917968-.734375-4.464843 1.121094-5.78125l63.148437-44.78125-82.097656 47.367188c-1.972656 1.082031-4.441406.449219-5.652344-1.445312-1.210937-1.890626-.742187-4.398438 1.066406-5.730469l59.34375-41.582031-74.777343 43.125c-1.980469 1.101562-4.476563.464843-5.6875-1.453126-1.207031-1.917968-.703125-4.445312 1.144531-5.757812l43.972656-30.011719-54.382812 31.394531c-1.960938 1.117188-4.457032.511719-5.6875-1.382812-1.230469-1.894531-.769532-4.417969 1.046875-5.757812l57.601562-41.875-69.402343 40.105468c-1.953126 1.105469-4.425782.507813-5.660157-1.367187-1.234375-1.871094-.808593-4.378907.972657-5.738281l49.015624-36.695313-56.214843 32.425781c-1.953125 1.121094-4.4375.53125-5.679688-1.34375-1.242187-1.875-.816406-4.394531.976563-5.753906l29.660156-22.390625-30.164062 17.414063c-1.902344 1.109374-4.335938.585937-5.617188-1.203126-1.28125-1.792968-.988281-4.265624.675781-5.707031l14.617188-12.714843c-1.65625.125-3.242188-.695313-4.101563-2.117188-1.179687-2.039062-.484375-4.644531 1.550782-5.828125l35.089843-20.257813c1.902344-1.089843 4.320313-.5625 5.59375 1.222657 1.273438 1.785156.988281 4.246093-.660156 5.691406l-13.117187 11.425781 51.875-29.953125c1.949218-1.117187 4.433593-.53125 5.675781 1.347657 1.242187 1.875.816406 4.390624-.976563 5.75l-29.675781 22.402343 58.339844-33.683593c1.957031-1.125 4.449219-.535157 5.695312 1.347656 1.242188 1.882812.804688 4.40625-1 5.761718l-48.972656 36.667969 77.566406-44.824219c1.957031-1.082031 4.421875-.46875 5.640625 1.40625s.785156 4.375-.996094 5.726563l-57.609374 41.90625 82.140624-47.417969c1.992188-1.214844 4.589844-.609375 5.835938 1.367188 1.242188 1.972656.667969 4.582031-1.289062 5.851562l-43.996094 30.011719 60.628906-34.988281c1.976562-1.117188 4.480469-.496094 5.703125 1.417968 1.222656 1.914063.730469 4.449219-1.121094 5.769532l-59.316406 41.597656 77.210937-44.578125c1.972657-1.136719 4.496094-.523437 5.722657 1.394531 1.230469 1.917969.734375 4.464844-1.121094 5.785156l-63.148437 44.808594 79.871093-46.082031c2-1.136719 4.539063-.484375 5.742188 1.472656 1.207031 1.957031.644531 4.515625-1.269531 5.789063l-20.035157 13.148437 27.648438-15.972656c1.980469-1.085937 4.464843-.4375 5.664062 1.476563 1.199219 1.914062.699219 4.433593-1.144531 5.742187l-35.769531 24.21875 44.507812-25.695313c1.972657-1.125 4.476563-.507812 5.703125 1.398438 1.226563 1.910156.746094 4.445312-1.09375 5.769531l-47.785156 33.980469 56.53125-32.621094c1.953125-1.105468 4.425781-.507812 5.660156 1.367188 1.234375 1.871094.808594 4.378906-.976562 5.738281l-44.046875 32.914063 50.347656-29.074219c1.949219-1.117188 4.433594-.527344 5.675781 1.347656 1.242188 1.875.816406 4.394531-.976562 5.753906l-25.199219 18.984375 25.515625-14.734375c1.894531-1.09375 4.308594-.578125 5.589844 1.191407 1.285156 1.773437 1.015625 4.230468-.613282 5.683593l-12.628906 11.257813c1.9375-.6875 4.089844.105468 5.117188 1.886718 1.171875 2.039063.476562 4.640626-1.558594 5.820313l-35.039062 20.230469c-1.875.996094-4.195313.457031-5.445313-1.257813-1.25-1.714843-1.050781-4.089843.46875-5.570312l12.382813-11.050781-50.183594 28.972656c-1.953125 1.117187-4.4375.527344-5.679688-1.347656-1.242187-1.875-.8125-4.390626.976563-5.753907l25.207031-18.976562-52.273438 30.183593c-1.953124 1.078126-4.40625.472657-5.632812-1.390624-1.226562-1.863282-.808594-4.355469.957031-5.71875l44.046875-32.921876-71.902344 41.539063c-.652343.363281-1.390624.542969-2.140624.53125zm0 0" fill="#50c0e8"/><path d="m165.554688 238.035156c-1.878907.003906-3.535157-1.21875-4.085938-3.011718-.550781-1.792969.132812-3.734376 1.6875-4.789063l19.34375-13.121094-34.5 19.914063c-1.960938 1.152344-4.480469.5625-5.726562-1.335938-1.25-1.902344-.785157-4.449218 1.050781-5.789062l59.734375-44.210938-85.234375 49.21875c-1.964844 1.113282-4.457031.5-5.683594-1.402344-1.222656-1.898437-.753906-4.421874 1.070313-5.753906l61.335937-44-80.957031 46.738282c-1.996094 1.117187-4.523438.457031-5.71875-1.496094-1.195313-1.953125-.636719-4.5 1.265625-5.773438l10.699219-6.964844-18.933594 10.921876c-2 1.117187-4.523438.457031-5.71875-1.496094-1.195313-1.949219-.636719-4.5 1.265625-5.773438l1.125-.726562-7.277344 4.199218c-1.980469 1.117188-4.488281.488282-5.703125-1.433593-1.21875-1.921875-.714844-4.457031 1.144531-5.769531l47.597657-32.859376-58.367188 33.679688c-1.960938 1.105469-4.441406.5-5.671875-1.386719-1.226563-1.882812-.78125-4.398437 1.023437-5.746093l58.117188-42.523438-69.03125 39.84375c-1.976562 1.105469-4.472656.472656-5.683594-1.4375-1.214844-1.914062-.722656-4.4375 1.117188-5.757812l29.515625-20.480469-33.636719 19.433593c-1.925781 1.101563-4.378906.546876-5.636719-1.285156-1.261719-1.828125-.90625-4.316406.8125-5.722656l41.996094-34.132812-43.480469 25.128906c-1.878906 1.078125-4.269531.574218-5.554687-1.171875-1.285157-1.746094-1.058594-4.175781.53125-5.652344l15.828125-14.59375-.632813.359375c-1.320312.839844-3 .890625-4.367187.125-1.367188-.765625-2.207032-2.214844-2.1875-3.785156.023437-1.566406.902344-2.996094 2.289062-3.722656l33.9375-19.625c1.878906-1.078126 4.269532-.574219 5.554688 1.171874 1.285156 1.746094 1.058594 4.179688-.527344 5.65625l-15.847656 14.632813 56.710937-32.742187c1.925781-1.078126 4.351563-.515626 5.605469 1.300781 1.25 1.816406.910156 4.285156-.78125 5.695312l-41.984375 34.132813 76.800781-44.371094c1.980469-1.152344 4.519532-.535156 5.746094 1.402344 1.230469 1.9375.707031 4.5-1.183594 5.800781l-29.515625 20.4375 47.367188-27.308594c1.960937-1.105469 4.441406-.5 5.671875 1.386719 1.230468 1.882812.78125 4.402344-1.019532 5.746094l-58.105468 42.539062 81.851562-47.265625c1.980469-1.117187 4.488282-.488281 5.703125 1.433594 1.21875 1.921875.714844 4.457031-1.144531 5.769531l-47.609375 32.871094 63.386719-36.59375c1.300781-.792969 2.925781-.835938 4.265625-.105469 1.339843.726563 2.1875 2.113281 2.226562 3.636719.039063 1.523438-.738281 2.953125-2.039062 3.75l-.972657.621094 8.96875-5.171875c1.992188-1.066407 4.472657-.398438 5.65625 1.53125 1.183594 1.925781.65625 4.441406-1.199218 5.734375l-10.8125 7.046875 18.160156-10.480469c1.964844-1.109375 4.457031-.496094 5.683594 1.402344 1.222656 1.902344.757812 4.425781-1.070313 5.757812l-61.335937 43.988282 75.347656-43.519532c1.960938-1.152344 4.480469-.5625 5.730469 1.339844 1.246093 1.902344.785156 4.445312-1.050781 5.785156l-59.734376 44.222656 71.320313-41.175781c1.980469-1.085937 4.46875-.4375 5.667969 1.476563 1.199218 1.914062.699218 4.433594-1.144532 5.742187l-19.371093 13.144531 22.253906-12.851562c1.933594-1.105469 4.390625-.535156 5.640625 1.304688 1.253906 1.839843.882812 4.332031-.851562 5.726562l-42.035157 33.457031 43.972657-25.386719c1.882812-1.1875 4.367187-.722656 5.695312 1.066407 1.332031 1.785156 1.0625 4.296875-.617188 5.761719l-18.09375 17.210937 2.714844-1.570313c1.324219-.839843 3-.886718 4.367188-.125 1.371094.765626 2.210937 2.21875 2.1875 3.785157-.019532 1.566406-.898438 2.996093-2.289063 3.722656l-33.773437 19.472656c-1.871094 1.082031-4.257813.59375-5.550782-1.136719-1.296874-1.730468-1.09375-4.15625.472657-5.648437l18.089843-17.203125-62.546874 36.089844c-1.933594 1.101562-4.390626.53125-5.640626-1.308594-1.253906-1.835938-.882812-4.332031.851563-5.726562l42.035156-33.464844-74.425781 42.988281c-.648438.378906-1.386719.578125-2.132812.582031zm0 0" fill="#f4f6f8"/><path d="m286.308594 204.363281c-1.554688 0-2.980469-.847656-3.730469-2.203125-.753906-1.359375-.707031-3.019531.121094-4.335937l9.871093-15.621094c-.179687-1.683594.644532-3.3125 2.109376-4.15625l1.707031-.992187c1.699219-.980469 3.851562-.679688 5.210937.738281 1.363282 1.414062 1.582032 3.578125.53125 5.234375l-4.34375 6.878906c1.695313.410156 2.972656 1.808594 3.222656 3.539062.25 1.726563-.578124 3.429688-2.085937 4.304688l-10.488281 6.050781c-.644532.371094-1.378906.566407-2.125.5625zm0 0" fill="#e4e8eb"/><path d="m169.265625 476.925781c-1.828125-.019531-3.441406-1.199219-4.011719-2.9375-.570312-1.738281.03125-3.644531 1.492188-4.742187l36.746094-26.863282-58.179688 33.597657c-1.976562 1.117187-4.484375.496093-5.703125-1.417969-1.222656-1.914062-.730469-4.449219 1.121094-5.769531l50.25-35.285157-68.957031 39.808594c-1.992188 1.097656-4.5.4375-5.691407-1.503906-1.195312-1.941406-.652343-4.476562 1.230469-5.757812l25.546875-16.707032-36.042969 20.800782c-1.992187 1.136718-4.527344.492187-5.734375-1.457032-1.210937-1.949218-.664062-4.503906 1.234375-5.785156l62.628906-41.8125-75.53125 43.570312c-1.980468 1.070313-4.457031.417969-5.648437-1.496093-1.191406-1.914063-.691406-4.425781 1.144531-5.730469l86.554688-58.132812-98.730469 56.996093c-2.019531 1.21875-4.640625.570313-5.859375-1.445312-1.21875-2.019531-.570312-4.640625 1.445312-5.859375l32.429688-20.523438-36.34375 20.949219c-2.003906 1.140625-4.550781.484375-5.753906-1.484375-1.199219-1.964844-.621094-4.53125 1.304687-5.792969l71.519531-46.039062-73.386718 42.351562c-1.304688.789063-2.929688.820313-4.265625.085938-1.335938-.738281-2.175781-2.128907-2.207031-3.652344-.027344-1.523437.757812-2.949219 2.0625-3.738281l50.59375-32.007813-48.265626 27.902344c-1.996093 1.058594-4.472656.371094-5.644531-1.5625-1.167969-1.933594-.628906-4.441406 1.234375-5.722656l58.296875-36.976563-55.464843 32.035156c-2.015626 1.21875-4.640626.574219-5.863282-1.441406-1.21875-2.019531-.574218-4.644531 1.441406-5.863281l59-37.359375-56.175781 32.425781c-2.007812 1.148438-4.566406.488281-5.765625-1.492187-1.199218-1.980469-.601562-4.554688 1.347656-5.800782l75.410157-48.070312-72.730469 41.984375c-2.015625 1.222656-4.640625.582031-5.863281-1.433594-1.222657-2.015625-.582031-4.640625 1.433593-5.863281l74.4375-47.332031-71.75 41.460937c-2.023437 1.210938-4.644531.550782-5.851562-1.476562-1.210938-2.023438-.550781-4.644532 1.472656-5.851563l2.5625-1.597656c-2.054687.832031-4.402344-.050781-5.40625-2.027344-1-1.980469-.320312-4.394531 1.566406-5.558593l70.757813-44.757813-68.019531 39.253906c-1.988282 1.117188-4.503906.46875-5.707032-1.464843-1.207031-1.9375-.675781-4.476563 1.203126-5.769532l78.554687-52.738281-76.089844 43.9375c-1.96875 1.113281-4.460937.5-5.683593-1.402344-1.226563-1.898437-.757813-4.421875 1.066406-5.753906l70.433594-50.476563-68.199219 39.363282c-1.292969.804687-2.921875.855468-4.261719.136718-1.34375-.722656-2.203125-2.105468-2.25-3.628906-.046875-1.523437.71875-2.957031 2.015625-3.761718l8.175781-5.410157-4.914062 2.867188c-1.980469 1.15625-4.515625.542969-5.75-1.386719-1.230469-1.929688-.722656-4.488281 1.15625-5.796875l25.457031-17.917969-22.484375 12.960938c-1.972656 1.125-4.476562.507812-5.703125-1.398438-1.226563-1.910156-.746094-4.445312 1.09375-5.769531l13.910156-9.890625-10.695312 6.160156c-1.910157 1.089844-4.332031.546875-5.597657-1.25-1.265624-1.796875-.960937-4.265625.710938-5.695312l27.304688-23.039063-24.523438 14.179688c-1.871094 1.128906-4.285156.660156-5.605469-1.078125-1.316406-1.742188-1.105469-4.195313.484375-5.6875l19.730469-18.953125-16.699219 9.617187c-1.886718 1.148438-4.332031.667969-5.644531-1.105468-1.3125-1.769532-1.0625-4.25.582031-5.71875l7.398438-6.988282-3.839844 2.21875c-1.730469 1.003906-3.929688.671875-5.285156-.800781-1.355469-1.476563-1.503906-3.695313-.355469-5.335937l8.347656-11.949219-4.71875 2.722656c-1.691406.976563-3.824219.679687-5.183593-.710937-1.363282-1.394532-1.609376-3.535157-.59375-5.203126l2.789062-4.554687c-1.203125.183594-2.425781-.160156-3.351562-.949219-1.378907-1.15625-1.878907-3.054687-1.257813-4.742187l1.707031-4.550781c-.347656-.082032-.679687-.207032-.996094-.375-1.289062-.675782-2.144531-1.960938-2.269531-3.410157l-1.042969-13.125c-.59375-.894531-.792968-1.992187-.558593-3.039062.238281-1.046875.894531-1.949219 1.8125-2.5l.710937-.402344c1.269532-.722656 2.820313-.75 4.121094-.074219 1.292969.667969 2.148438 1.960938 2.261719 3.410156l.65625 8.296876.648437-.367188c1.554688-.890625 3.503906-.714844 4.871094.441406 1.371094 1.15625 1.871094 3.046875 1.253906 4.730469l-1.046875 2.839844 2.378907-1.363281c1.6875-.96875 3.816406-.667969 5.175781.722656 1.355469 1.390625 1.601562 3.527344.59375 5.191406l-2.433594 3.976562 6.828125-3.917968c1.730469-1 3.921875-.660156 5.273438.808594 1.351562 1.472656 1.5 3.6875.359374 5.324218l-8.347656 11.949219 18.773438-10.828125c1.886718-1.167969 4.351562-.695312 5.671875 1.082031 1.320312 1.78125 1.058593 4.277344-.601563 5.742188l-7.40625 7 15.664063-9.046875c1.871093-1.125 4.289062-.660156 5.605469 1.082031 1.316406 1.738281 1.109374 4.191406-.484376 5.683594l-19.78125 18.929687 35.722657-20.625c1.914062-1.113281 4.359375-.578125 5.632812 1.234375 1.273438 1.808594.949219 4.292969-.742187 5.71875l-27.308594 23.039063 46.082031-26.589844c1.964844-1.085938 4.433594-.460938 5.648438 1.425781 1.21875 1.886719.761719 4.394531-1.042969 5.734375l-13.839844 9.875 27.648438-15.960937c1.972656-1.105469 4.464844-.484375 5.683594 1.421875s.738281 4.429687-1.09375 5.757812l-25.445313 17.917969 42.078125-24.300781c2.003906-1.242188 4.632812-.625 5.875 1.375 1.242188 2.003906.625 4.636718-1.378906 5.878906l-8.226563 5.449219 24.082031-13.898438c1.972657-1.160156 4.507813-.554687 5.746094 1.367188 1.238282 1.925781.738282 4.484375-1.128906 5.800781l-70.453125 50.484375 110.226563-63.636719c1.984374-1.097656 4.484374-.449218 5.683593 1.472656 1.203125 1.925782.6875 4.457032-1.171875 5.757813l-78.554687 52.734375 141.371093-81.621094c2.015626-1.21875 4.640626-.570312 5.855469 1.445313 1.21875 2.019531.574219 4.640625-1.445312 5.859375l-70.578125 44.636718 64.222656-37.066406c2.015625-1.136718 4.566406-.457031 5.753906 1.527344s.578125 4.554688-1.378906 5.792969l-4.835938 2.996093c2.027344-.574218 4.171876.421876 5.042969 2.339844.871094 1.917969.210938 4.1875-1.554687 5.339844l-74.570313 47.417969 68.101563-39.335938c2.011718-1.148437 4.570312-.488281 5.765625 1.492188 1.199219 1.980469.605469 4.554687-1.34375 5.800781l-75.265625 47.984375 68.8125-39.722656c2.007812-1.101563 4.523437-.425781 5.707031 1.53125 1.1875 1.957031.613281 4.5-1.292969 5.765625l-59.171875 37.46875 52.90625-30.546875c2.007813-1.105469 4.523438-.429688 5.707031 1.527343 1.183594 1.960938.613282 4.503907-1.292968 5.765626l-58.242188 36.933593 51.96875-30.003906c2.019532-1.21875 4.640625-.574219 5.863282 1.441406 1.21875 2.019531.574218 4.644531-1.441407 5.863281l-50.578125 32 44.375-25.597656c2-1.140625 4.546875-.484375 5.75 1.480469 1.203125 1.96875.625 4.535156-1.304687 5.796875l-71.535157 46.035156 65.023438-37.542968c2.003906-1.105469 4.523438-.429688 5.707031 1.527343 1.183594 1.960938.613281 4.503907-1.296875 5.765625l-32.28125 20.445313 26.199219-15.144531c1.988281-1.117188 4.503906-.46875 5.707031 1.464843 1.207032 1.9375.675782 4.476563-1.203125 5.769531l-86.570312 58.148438 79.558593-45.925781c1.992188-1.136719 4.523438-.492188 5.734376 1.457031 1.207031 1.949219.660156 4.503906-1.238282 5.785156l-62.652344 41.816406 55.96875-32.308593c2.003907-1.164063 4.570313-.519531 5.78125 1.457031 1.214844 1.972656.628907 4.554688-1.316406 5.8125l-25.601562 16.71875 19.429687-11.222656c1.980469-1.15625 4.515625-.542969 5.75 1.386718 1.230469 1.929688.722657 4.488282-1.15625 5.796876l-50.246093 35.355468 43.417968-25.0625c1.960938-1.105468 4.441406-.5 5.671875 1.386719 1.230469 1.882813.78125 4.398437-1.019531 5.746094l-36.695312 26.835937 29.867187-17.253906c1.910156-1.085938 4.335937-.546875 5.601563 1.253906 1.265624 1.796875.957031 4.261719-.710938 5.695313l-26.761719 22.730469 18.851563-10.878907c2.023437-1.058593 4.527344-.335937 5.671875 1.644531 1.144531 1.980469.523437 4.507813-1.40625 5.738282l-59.734375 34.515625c-1.910156 1.105469-4.351563.570312-5.625-1.234375-1.273438-1.804688-.957032-4.28125.726562-5.710938l26.769532-22.726562-57.675782 33.28125c-.664062.378906-1.414062.570312-2.175781.554687zm0 0" fill="#e4e8eb"/><path d="m358.320312 460.125c-1.847656-.003906-3.488281-1.195312-4.058593-2.953125-.566407-1.761719.0625-3.6875 1.558593-4.769531l66.996094-48.351563-91.554687 52.855469c-1.996094 1.160156-4.554688.519531-5.769531-1.445312-1.214844-1.964844-.648438-4.535157 1.28125-5.808594l48.296874-31.828125-60.003906 34.644531c-1.988281 1.117188-4.503906.46875-5.710937-1.464844-1.203125-1.9375-.675781-4.476562 1.203125-5.769531l82.203125-55.144531-95.625 55.210937c-2.003907 1.164063-4.570313.519531-5.78125-1.457031-1.210938-1.972656-.625-4.554688 1.320312-5.8125l71.679688-46.644531-81.066407 46.789062c-2.003906 1.242188-4.636718.625-5.878906-1.378906-1.238281-2.003906-.621094-4.632813 1.378906-5.875l103.953126-68.941406-114.03125 65.863281c-2 1.164062-4.566407.515625-5.78125-1.457031-1.210938-1.976563-.625-4.554688 1.320312-5.816407l92.585938-60.097656-99.15625 57.25c-2.011719 1.105469-4.539063.425782-5.71875-1.542968-1.179688-1.96875-.59375-4.519532 1.332031-5.769532l9.242187-5.734375-11.351562 6.550781c-2.015625 1.222657-4.640625.574219-5.859375-1.441406-1.222657-2.015625-.578125-4.640625 1.441406-5.863281l64.75-40.957031-67.730469 39.105468c-2.015625 1.136719-4.566406.457032-5.753906-1.527343s-.578125-4.554688 1.378906-5.792969l7.753906-4.804688-8.53125 4.898438c-2 1.117188-4.523437.457031-5.71875-1.496094-1.195312-1.953125-.640624-4.5 1.265626-5.773437l107.621093-70.027344-111.019531 64.09375c-1.300781.796875-2.925781.839844-4.265625.109375-1.339844-.726562-2.1875-2.113281-2.226563-3.636719-.039062-1.523437.738282-2.953125 2.039063-3.75l102.585937-66.5-104.472656 60.304688c-2.003906 1.164062-4.570312.519531-5.78125-1.457031-1.210937-1.972657-.625-4.554688 1.316406-5.8125l105.550782-68.96875-105.796875 61.066406c-1.996094 1.097656-4.5.4375-5.691407-1.503906-1.195312-1.941407-.652343-4.472657 1.230469-5.757813l96.160157-62.710937-95.28125 54.972656c-2 1.15625-4.554688.515625-5.769532-1.449219-1.214844-1.960937-.648437-4.535156 1.28125-5.804687l100.488282-66.5625-97.554688 56.390624c-1.996094 1.15625-4.554688.515626-5.769531-1.445312-1.214844-1.964844-.644531-4.539062 1.28125-5.808594l85.683593-56.492187-80.683593 46.566406c-2.003907 1.140625-4.550781.484375-5.75-1.484375-1.203125-1.964844-.625-4.53125 1.304687-5.792969l50.585938-32.71875-44.878906 25.917969c-1.296876.796875-2.921876.84375-4.265626.117188-1.339843-.722657-2.191406-2.109376-2.234374-3.632813-.042969-1.527344.730468-2.957031 2.03125-3.753906l45.019531-29.363281-36.332031 20.957031c-2 1.117187-4.523438.457031-5.722657-1.496094-1.195312-1.953125-.636719-4.5 1.265625-5.773437l20.644532-13.40625-11.34375 6.535156c-1.96875 1.109375-4.464844.484375-5.683594-1.421875-1.21875-1.902344-.738282-4.429688 1.09375-5.753907l48.820312-34.40625-32.007812 18.472657c-1.929688 1.089843-4.371094.527343-5.621094-1.300781-1.253906-1.828126-.898438-4.308594.816406-5.710938l31.65625-25.53125c-1.90625-.0625-3.539062-1.378906-4.003906-3.226562-.464844-1.851563.355469-3.785157 2.007812-4.738282l42.078126-24.285156c1.929687-1.089844 4.371093-.523438 5.621093 1.304688 1.25 1.824218.898438 4.308593-.816406 5.710937l-28.433594 22.929687 66.175781-38.203124c1.976563-1.15625 4.515626-.542969 5.75 1.386718 1.230469 1.929688.722657 4.488282-1.160156 5.796875l-48.800781 34.390625 70.828125-40.902344c1.992188-1.097656 4.5-.4375 5.691406 1.503907 1.195313 1.941406.652344 4.476562-1.230468 5.757812l-20.71875 13.464844 30.839843-17.765625c2-1.136719 4.539063-.484375 5.742188 1.472656 1.207031 1.957032.644531 4.515625-1.269531 5.789063l-45.003907 29.347656 55.558594-32.078125c1.996094-1.082031 4.492187-.414062 5.675781 1.523438s.644532 4.464843-1.230468 5.746093l-50.574219 32.710938 59.03125-34.074219c1.996093-1.117188 4.511719-.460938 5.714843 1.480469 1.199219 1.945312.65625 4.488281-1.234374 5.773437l-85.699219 56.5 93.746093-54.128906c2.003907-1.242188 4.632813-.625 5.875 1.378906 1.242188 2.003906.625 4.632813-1.378906 5.875l-100.503906 66.550782 109.652344-63.300782c1.996094-1.097656 4.5-.4375 5.695312 1.503906 1.191406 1.941407.648438 4.476563-1.230468 5.757813l-96.113282 62.710937 104.347656-60.261718c2.007813-1.234375 4.636719-.609375 5.871094 1.398437 1.234375 2.007813.605469 4.636719-1.402344 5.871094l-105.539062 68.96875 114.003906-65.828125c2.011719-1.230469 4.636719-.597656 5.867188 1.414062 1.230468 2.007813.597656 4.636719-1.410156 5.867188l-102.605469 66.558594 106.496093-61.5c2.003907-1.164063 4.570313-.519532 5.78125 1.457031 1.210938 1.972656.625 4.554687-1.320312 5.8125l-107.644531 70 110.753906-63.941406c2.003906-1.070313 4.5-.378907 5.667969 1.574219 1.171875 1.953124.601562 4.476562-1.292969 5.742187l-7.730469 4.792969 7.046875-4.070313c2.019531-1.21875 4.640625-.570312 5.859375 1.449219 1.21875 2.015625.570313 4.636719-1.445312 5.855469l-64.75 41.003906 64.621094-37.308594c2.015624-1.136719 4.570312-.457031 5.757812 1.527344 1.1875 1.988281.574219 4.554687-1.378906 5.792969l-9.175782 5.695312 7.152344-4.132812c2.003906-1.164063 4.570313-.515625 5.78125 1.457031 1.210938 1.972656.625 4.554687-1.316406 5.8125l-92.605469 60.109375 91.382813-52.761719c1.996094-1.15625 4.554687-.515625 5.769531 1.445313 1.214844 1.964844.648437 4.539062-1.28125 5.808594l-103.890625 68.914062 100.957031-58.289062c1.992188-1.070313 4.472657-.398438 5.652344 1.527343 1.183594 1.929688.65625 4.441407-1.199219 5.734375l-71.808594 46.726563 66.65625-38.464844c1.988282-1.117187 4.5-.472656 5.707032 1.464844 1.203125 1.9375.675781 4.476562-1.203125 5.769531l-82.183594 55.125 75.09375-43.347656c1.992187-1.117188 4.511719-.464844 5.710937 1.480468 1.203126 1.945313.65625 4.488282-1.230468 5.773438l-48.335938 31.851562 39.332032-22.679687c1.964843-1.128906 4.472656-.523437 5.703124 1.378906 1.234376 1.902344.761719 4.4375-1.070312 5.773438l-66.96875 48.3125 50.347656-29.078125c1.949219-1.167969 4.472656-.59375 5.734375 1.296875s.816407 4.4375-1.007812 5.792969l-33.007813 25.25 4.105469-2.371094c1.320313-.84375 3-.890625 4.367187-.125 1.367188.761718 2.207032 2.214844 2.1875 3.78125-.019531 1.566406-.898437 2.996094-2.289062 3.722656l-61.054688 35.253906c-1.949218 1.125-4.433593.542969-5.683593-1.328125-1.25-1.871093-.832031-4.390625.957031-5.757812l32.960938-25.214844-66.132813 38.1875c-.648437.367187-1.386719.554687-2.132813.546875zm0 0" fill="#fab155"/><path d="m441.820312 238.351562c-1.769531 0-3.355468-1.09375-3.988281-2.746093-.628906-1.652344-.175781-3.527344 1.144531-4.703125l2.628907-2.355469-10.71875 6.1875c-1.925781 1.074219-4.359375.5-5.601563-1.324219-1.246094-1.824218-.890625-4.296875.816406-5.699218l1.773438-1.425782-5.484375 3.164063c-1.9375 1.082031-4.382813.496093-5.621094-1.34375-1.238281-1.84375-.855469-4.324219.875-5.710938l2.851563-2.21875-4.269532 2.464844c-1.941406 1.339844-4.601562.855469-5.941406-1.085937-1.339844-1.945313-.855468-4.605469 1.085938-5.945313l9.304687-7.5-8.851562 5.121094c-1.882813 1.089843-4.285157.59375-5.574219-1.160157-1.292969-1.75-1.058594-4.191406.539062-5.667968l16.214844-14.992188-11.757812 6.824219c-1.851563 1.066406-4.203125.601563-5.507813-1.085937-1.304687-1.6875-1.164062-4.082032.335938-5.601563l8.710937-8.808594c-1.539062-.582031-2.609375-1.996093-2.746094-3.636719-.136718-1.640624.683594-3.214843 2.105469-4.042968l19.714844-11.382813c1.847656-1.066406 4.199219-.601562 5.503906 1.085938 1.308594 1.691406 1.164063 4.082031-.335937 5.605469l-4.554688 4.597656 17.304688-9.984375c1.882812-1.09375 4.285156-.59375 5.578125 1.15625 1.289062 1.753906 1.058593 4.195312-.542969 5.671875l-16.214844 15 23.453125-13.53125c1.925781-1.113282 4.386719-.554688 5.644531 1.28125 1.261719 1.835937.898438 4.332031-.832031 5.730468l-9.320312 7.511719 10.480469-6.042969c1.9375-1.082031 4.378906-.496093 5.617187 1.347657 1.238281 1.839843.859375 4.324219-.875 5.710937l-2.824219 2.199219.9375-.535156c1.933594-1.097657 4.378906-.53125 5.632813 1.300781 1.25 1.835938.886719 4.320312-.835938 5.71875l-3.078125 2.460938c1.628906-.292969 3.285156.367187 4.265625 1.707031 1.28125 1.773437 1.011719 4.226562-.625 5.679687l-6.382812 5.703125c1.753906.328125 3.117187 1.714844 3.417969 3.472657.300781 1.757812-.523438 3.515624-2.066407 4.410156l-29.253906 16.863281c-.648437.371094-1.386719.5625-2.132813.554687zm0 0" fill="#937662"/><path d="m336.277344 323.042969c-1.6875.003906-3.21875-.992188-3.902344-2.535157-.6875-1.542968-.398438-3.347656.738281-4.597656l9.285157-10.238281-18.03125 10.402344c-1.914063 1.089843-4.34375.546875-5.609376-1.253907-1.265624-1.804687-.949218-4.273437.726563-5.703124l1.136719-.957032-1.339844.769532c-1.875 1.007812-4.207031.476562-5.464844-1.242188-1.253906-1.722656-1.050781-4.105469.480469-5.585938l5.410156-4.863281-3.027343 1.707031c-1.796876 1.03125-4.070313.625-5.398438-.960937s-1.324219-3.894531.003906-5.480469l7.894532-9.335937c-1.777344-.292969-3.179688-1.671875-3.503907-3.445313-.320312-1.769531.5-3.554687 2.058594-4.457031l16.53125-9.539063c1.800781-1.101562 4.132813-.71875 5.492187.894532 1.355469 1.617187 1.328126 3.980468-.066406 5.5625l-6.058594 7.160156 17.238282-9.972656c1.875-1.007813 4.207031-.476563 5.464844 1.242187 1.253906 1.71875 1.050781 4.101563-.480469 5.582031l-5.410157 4.855469 7.808594-4.503906c1.914063-1.117187 4.367188-.582031 5.640625 1.234375 1.273438 1.816406.941407 4.308594-.761719 5.726562l-1.160156.972657c1.835938-.90625 4.058594-.382813 5.292969 1.25 1.238281 1.632812 1.140625 3.914062-.230469 5.433593l-9.285156 10.238282 3.328125-1.910156c2.023437-1.058594 4.527344-.335938 5.671875 1.644531s.523438 4.511719-1.40625 5.738281l-26.90625 15.527344c-.648438.40625-1.394531.625-2.160156.640625zm0 0" fill="#937662"/><path d="m340.101562 238.308594c-1.601562 0-3.070312-.898438-3.796874-2.328125-.730469-1.425781-.597657-3.140625.339843-4.4375l3.570313-4.941407-10.027344 5.785157c-1.84375 1.074219-4.195312.625-5.511719-1.054688-1.316406-1.679687-1.1875-4.070312.296875-5.601562l1.707032-1.816407-.800782.460938c-1.765625 1.015625-4 .644531-5.34375-.886719-1.339844-1.535156-1.410156-3.800781-.171875-5.414062l4.082031-5.261719c-1.179687-.257812-2.191406-1.003906-2.792968-2.050781-1.171875-2.035157-.480469-4.636719 1.554687-5.820313l13.96875-8.0625c1.765625-1.015625 4-.640625 5.339844.894532 1.339844 1.53125 1.40625 3.800781.164063 5.410156l-2.289063 2.953125 8.023437-4.625c1.839844-1.074219 4.195313-.625 5.511719 1.054687 1.316407 1.679688 1.1875 4.070313-.296875 5.601563l-1.707031 1.808593 1.253906-.722656c1.742188-1 3.941407-.648437 5.285157.839844 1.347656 1.488281 1.472656 3.714844.304687 5.34375l-4.574219 6.339844c1.878906.113281 3.464844 1.441406 3.902344 3.277344.433594 1.832031-.386719 3.734374-2.015625 4.675781l-13.859375 8.007812c-.644531.371094-1.375.566407-2.117188.570313zm0 0" fill="#937662"/><path d="m400.65625 381.496094c-1.667969 0-3.179688-.96875-3.878906-2.480469-.695313-1.511719-.449219-3.292969.632812-4.558594l4.601563-5.367187-6.828125 3.949218c-1.6875.972657-3.820313.675782-5.183594-.71875-1.359375-1.398437-1.597656-3.539062-.582031-5.203124l5.808593-9.445313c-2.09375.882813-4.511718-.035156-5.5-2.082031-.984374-2.050782-.191406-4.511719 1.804688-5.597656l13.96875-8.0625c1.691406-.976563 3.828125-.679688 5.191406.714843 1.363282 1.402344 1.601563 3.550781.578125 5.214844l-5.75 9.386719 13.882813-8.011719c1.800781-1.039063 4.085937-.632813 5.414062.964844 1.328125 1.601562 1.3125 3.921875-.039062 5.503906l-4.597656 5.355469 2.175781-1.253906c2.039062-1.15625 4.628906-.453126 5.804687 1.578124 1.171875 2.03125.484375 4.625-1.539062 5.8125l-23.816406 13.746094c-.652344.375-1.394532.566406-2.148438.554688zm0 0" fill="#937662"/><path d="m260.5625 314.597656c-1.617188 0-3.09375-.914062-3.816406-2.359375-.722656-1.445312-.566406-3.175781.402344-4.46875l4.59375-6.074219-10.078126 5.816407c-1.628906.949219-3.679687.71875-5.058593-.566407-1.375-1.285156-1.746094-3.316406-.917969-5.003906l6.828125-13.808594-1.792969 1.035157c-2.023437 1.058593-4.527344.332031-5.671875-1.648438-1.144531-1.976562-.523437-4.507812 1.40625-5.734375l13.960938-8.148437c1.628906-.949219 3.6875-.71875 5.0625.566406 1.378906 1.285156 1.75 3.324219.910156 5.015625l-6.824219 13.789062 16.210938-9.335937c1.757812-1.011719 3.984375-.644531 5.328125.878906 1.339843 1.519531 1.425781 3.773438.203125 5.394531l-4.695313 6.191407c2.066407-.726563 4.347657.226562 5.28125 2.207031.929688 1.980469.214844 4.347656-1.664062 5.476562l-17.507813 10.109376c-.644531.414062-1.394531.644531-2.160156.667968zm0 0" fill="#937662"/><path d="m333.933594 416.050781c-1.601563-.003906-3.0625-.902343-3.792969-2.324219-.726563-1.425781-.597656-3.136718.335937-4.4375l6.828126-9.488281-10.726563 6.1875c-1.714844.960938-3.867187.628907-5.207031-.808593-1.34375-1.4375-1.53125-3.605469-.453125-5.25l5.230469-7.894532c-2.039063.363282-4.046876-.796875-4.753907-2.746094-.707031-1.949218.089844-4.121093 1.886719-5.15625l13.972656-8.0625c1.710938-.992187 3.882813-.671874 5.238282.769532 1.359374 1.445312 1.542968 3.628906.453124 5.28125l-4.90625 7.421875 12.234376-7.074219c1.742187-1.003906 3.949218-.660156 5.300781.832031 1.347656 1.492188 1.472656 3.722657.296875 5.355469l-6.824219 9.488281 4.65625-2.679687c2.027344-1.058594 4.527344-.332032 5.671875 1.648437 1.144531 1.976563.527344 4.507813-1.402344 5.734375l-21.863281 12.621094c-.660156.390625-1.410156.589844-2.175781.582031zm0 0" fill="#937662"/><path d="m432.476562 320.296875c-1.675781-.003906-3.191406-.980469-3.882812-2.503906-.691406-1.523438-.425781-3.3125.671875-4.570313l4.480469-5.121094-5.066406 2.917969c-1.734376.996094-3.929688.652344-5.277344-.824219-1.347656-1.476562-1.488282-3.691406-.339844-5.328124l4.710938-6.648438c-1.921876-.007812-3.601563-1.304688-4.097657-3.164062-.496093-1.859376.3125-3.820313 1.972657-4.785157l13.96875-8.101562c1.738281-1 3.9375-.660157 5.289062.824219 1.347656 1.480468 1.484375 3.703124.328125 5.339843l-3.910156 5.511719 10.511719-6.066406c1.804687-1.027344 4.085937-.605469 5.40625.996094 1.320312 1.605468 1.292968 3.921874-.0625 5.496093l-4.480469 5.121094 3.652343-2.109375c1.324219-.839844 3-.886719 4.367188-.125 1.371094.765625 2.210938 2.21875 2.1875 3.785156-.019531 1.566406-.898438 2.996094-2.289062 3.722656l-26.007813 15.050782c-.648437.382812-1.382813.582031-2.132813.582031zm0 0" fill="#937662"/></g><path d="m10.671875 141.371094c2.902344 22.21875 5.804687 44.4375 8.703125 66.652344 5.691406 43.554687 11.378906 87.105468 17.070312 130.652343 3.863282 29.636719 3.566407 64.273438 12.125 93.015625 13.992188 46.933594 91.230469 47.027344 130.660157 43.859375 30.617187-2.457031 78.695312-9.179687 91.136719-41.199219 137.15625 94.234376 305.050781-80.09375 205.652343-215.796874 3.832031-5.636719 6.039063-12.214844 6.382813-19.023438 0-.167969-.101563-.261719-.117188-.425781-.019531-.160157.128906-.289063.117188-.453125-1.96875-36.742188-45.285156-43.6875-67.582032-25.28125-35.03125-12.824219-73.378906-13.367188-108.757812-1.539063 4.265625-31.9375 9.726562-64 12.476562-96.066406.144532-1.792969 0-3.355469.058594-5.035156.792969-2.492188 1.363282-5.046875 1.707032-7.636719 0-.214844-.085938-.351562-.101563-.546875-.019531-.195313.101563-.273437.074219-.425781-5.636719-46.183594-76.003906-58.625-128.972656-61.296875-13.738282-.917969-27.519532-1.050781-41.273438-.398438l-3.566406.117188c-32.460938 1.179687-143.617188 10.265625-145.597656 62.097656-3.984376 23.65625 6.878906 56.457031 9.804687 78.730469zm162.289063-133.292969c9.582031.34375 23.039062 1.042969 37.828124 2.773437.785157.121094 1.621094.230469 2.355469.351563 39.941407 6.375 90.621094 18.21875 92.746094 61.386719-16.691406 47.265625-121.0625 48.222656-158.71875 46.730468-29.808594-1.179687-124.585937-7.757812-133.078125-50.5625.773438-16.691406 10.074219-31.8125 24.628906-40.027343 38.917969-20.292969 111.308594-21.480469 134.238282-20.652344zm63.425781 213.90625c-51.523438 13.054687-113.996094 15.042969-164.25-4.667969-23.082031-9.046875-56.914063-27.835937-37.460938-56.089844 16.214844-23.535156 51.773438-32.726562 88.089844-35.113281 17.265625 1.167969 34.574219 1.4375 51.867187.808594l2.378907-.101563c10.804687.914063 20.652343 2.160157 28.75 3.472657 23.039062 3.746093 81.636719 15.191406 84.789062 47.667969-21.320312 10.128906-39.894531 25.226562-54.164062 44.023437zm-23.304688-98.03125c31.96875-3.832031 70.164063-12.296875 91.367188-31.675781-2.472657 21.589844-5.496094 43.144531-8.472657 64.683594-15.421874-19.78125-52.710937-28.871094-82.894531-33.007813zm-110.617187.351563c-28.015625 4.546874-54.96875 13.695312-73.105469 31.085937-1.382813 1.320313-2.558594 2.636719-3.71875 3.957031-3.328125-20.949218-8.234375-43.109375-10.488281-64.613281 19.046875 17.367187 54.035156 25.71875 87.3125 29.570313zm-41.480469 304.570312c-7.679687-24.945312-7.253906-55.628906-10.621094-81.425781-6.140625-47.050781-12.277343-94.105469-18.417969-141.15625 4.882813 3.972656 10.179688 7.40625 15.804688 10.238281 53.949219 27.628906 125.203125 25.957031 183.707031 12.132812-.238281.351563-.511719.660157-.742187 1.015626-42 63.699218-29.136719 148.828124 29.8125 197.265624-9.855469 60.355469-180.929688 62.167969-199.542969 1.929688zm387.464844-257.640625c12.804687 4.566406 21.40625 16.632813 21.539062 30.226563-1.058593 16.417968-12.917969 32.691406-31.4375 28.808593-14.3125-3.546875-24.324219-16.449219-24.207031-31.199219-.613281-8.730468 3.054688-17.21875 9.839844-22.753906 6.78125-5.539062 15.832031-7.429687 24.265625-5.082031zm-40.566407 9.882813c-4.035156 6.027343-6.160156 13.128906-6.101562 20.378906-.109375 36.914062 42.238281 43.945312 65.613281 26.222656 34.984375 50.882812 38.109375 116.777344.648438 167.953125-45.109375 60.902344-130.910157 73.996094-192.128907 29.3125-129.074218-95.089844-19.925781-298.539063 131.96875-243.902344zm0 0" fill="#262626"/><path d="m371.554688 302.179688c-2.125-39.464844-63.265626-37.828126-63.726563.9375-.476563 39.964843 61.671875 37.316406 63.726563-.9375zm-33.203126-20.480469c11.5.472656 20.601563 9.894531 20.675782 21.402343.304687 5.433594-1.6875 10.742188-5.488282 14.632813-3.796874 3.894531-9.058593 6.015625-14.496093 5.847656-10.640625-1.582031-18.5625-10.660156-18.6875-21.417969-.542969-10.570312 7.445312-19.644531 17.996093-20.445312zm0 0" fill="#262626"/><path d="m362.9375 215.660156c-1.460938-27.167968-46.769531-21.820312-46.488281 3.3125.296875 27.46875 45.15625 21.476563 46.488281-3.3125zm-21.640625-11.382812c5.679687 2.683594 9.296875 8.410156 9.285156 14.695312-.402343 7.421875-5.554687 15.359375-13.714843 10.851563-5.039063-2.925781-8.117188-8.335938-8.0625-14.164063.066406-6.785156 5.035156-14.625 12.492187-11.382812zm0 0" fill="#262626"/><path d="m431.203125 360.726562c-1.441406-26.871093-46.609375-21.238281-46.488281 3.3125.117187 27.136719 45.183594 20.941407 46.488281-3.3125zm-21.238281-11.382812c5.433594 2.894531 8.84375 8.535156 8.882812 14.695312-.402344 7.339844-5.324218 15.742188-13.652344 10.972657-5.042968-2.988281-8.121093-8.421875-8.097656-14.285157-.019531-6.878906 5.136719-15.273437 12.867188-11.382812zm0 0" fill="#262626"/><path d="m239.640625 295.3125c0 27.816406 45.121094 23.773438 46.515625-1.929688 0-.1875-.113281-.300781-.128906-.46875-.019532-.171874.117187-.292968.109375-.453124-1.476563-27.519532-46.488281-23.089844-46.496094 2.851562zm24.277344-14.039062c5.894531 2.179687 9.804687 7.804687 9.792969 14.089843-.46875 5.84375-3.675782 13.226563-10.722657 11.945313-6.511719-1.714844-11.003906-7.664063-10.875-14.394532.011719-6.476562 4.515625-13.886718 11.804688-11.640624zm0 0" fill="#262626"/><path d="m316.449219 398.171875c.261719 27.398437 45.164062 21.394531 46.488281-3.3125-1.460938-27.117187-46.738281-21.722656-46.488281 3.3125zm20.425781 10.871094c-5.039062-2.9375-8.117188-8.347657-8.070312-14.183594.058593-6.824219 5-14.703125 12.484374-11.40625 5.679688 2.695313 9.300782 8.429687 9.292969 14.71875-.402343 7.421875-5.511719 15.410156-13.707031 10.871094zm0 0" fill="#262626"/><path d="m465.335938 300.992188c-1.441407-26.785157-46.394532-20.980469-46.488282 3.3125-.121094 27.015624 45.203125 20.703124 46.488282-3.3125zm-31.417969-8.832032c.757812-1.726562 2.21875-3.042968 4.015625-3.617187s3.75-.351563 5.371094.617187c4.535156 2.03125 7.902343 6.011719 9.164062 10.820313 1.257812 4.808593.269531 9.929687-2.6875 13.925781-2.875 3.734375-5.394531 4.035156-9.683594 1.867188-5.488281-2.867188-8.921875-8.554688-8.894531-14.746094.027344-3.15625.96875-6.234375 2.714844-8.867188zm0 0" fill="#262626"/><path d="m78.574219 398.171875c.367187 2.839844.730469 5.691406 1.109375 8.53125.3125 2.410156 12.796875-.082031 12.363281-3.308594-.375-2.84375-.742187-5.691406-1.117187-8.535156-.273438-2.40625-12.75.085937-12.355469 3.3125zm0 0" fill="#262626" fill-rule="evenodd"/><path d="m86.515625 360.726562c-4.453125-34.132812-8.90625-68.265624-13.351563-102.398437-.4375-3.3125-12.886718-.667969-12.367187 3.308594 4.457031 34.136719 8.90625 68.269531 13.355469 102.402343.425781 3.308594 12.886718.65625 12.363281-3.3125zm0 0" fill="#262626" fill-rule="evenodd"/><path d="m61.941406 175.152344c-2.234375 1.179687-4.410156 2.425781-6.519531 3.816406-1.894531 1.253906-1.707031 2.183594.613281 2.300781 3.078125.046875 6.109375-.769531 8.746094-2.351562 2.109375-1.382813 4.285156-2.65625 6.519531-3.816407 2.144531-1.117187 1.484375-2.191406-.613281-2.304687-3.066406.039063-6.074219.847656-8.746094 2.355469zm0 0" fill="#262626" fill-rule="evenodd"/><path d="m190.027344 155.875c-29.492188-2.558594-59.199219-.886719-88.21875 4.96875-5.121094 1.082031-10.691406 7.125-2.097656 5.304688 27.117187-5.492188 54.882812-7.070313 82.449218-4.683594 3.078125.25 14.242188-5.085938 7.867188-5.589844zm0 0" fill="#262626" fill-rule="evenodd"/></svg>