<svg xmlns="http://www.w3.org/2000/svg" id="Icons" viewBox="0 0 60 60" width="300" height="300" version="1.1" xmlns:xlink="http://www.w3.org/1999/xlink" xmlns:svgjs="http://svgjs.dev/svgjs"><g width="100%" height="100%" transform="matrix(-1,1.2246467991473532e-16,-1.2246467991473532e-16,-1,61.98231792449951,59.468748855404556)"><path d="M25.136,59.463a.5.5,0,0,1-.291-.906L28.32,56.07l-4.57,2.639a.5.5,0,0,1-.547-.835l6.291-4.641L23.28,56.82a.5.5,0,0,1-.542-.839l5.784-4.156L23.28,54.852a.5.5,0,0,1-.538-.842l4.867-3.428-4.329,2.5a.5.5,0,0,1-.54-.84l5.437-3.876-4.9,2.827a.5.5,0,0,1-.525-.849l.407-.27a.5.5,0,0,1-.411-.9l1.94-1.307-1.411.815a.5.5,0,0,1-.542-.839l5.792-4.163-5.25,3.031a.5.5,0,0,1-.52-.853l13.974-9.005L23.28,44.623a.5.5,0,0,1-.514-.857l5.6-3.49L23.28,43.212a.5.5,0,0,1-.52-.854l9.813-6.3L23.28,41.424a.5.5,0,0,1-.516-.856l3.895-2.459L23.28,40.06a.5.5,0,0,1-.527-.849l8.841-5.882-8.314,4.8a.5.5,0,0,1-.522-.852l3.564-2.316L23.134,36.8a.5.5,0,0,1-.536-.843l6.6-4.6-7.28,4.2a.5.5,0,0,1-.542-.838l5.969-4.3-7.093,4.094a.5.5,0,0,1-.529-.847l1.371-.922-1.911,1.1a.5.5,0,0,1-.55-.832l4.582-3.444-5.653,3.263A.5.5,0,0,1,17.032,32l.632-.437-1.117.644a.5.5,0,0,1-.557-.828l2.894-2.242-3.769,2.176a.5.5,0,0,1-.58-.808l2.877-2.534-3.974,2.294a.5.5,0,0,1-.6-.786l2.118-2.118-3.2,1.849a.5.5,0,0,1-.624-.764L12.408,27l-2.182,1.26a.5.5,0,0,1-.633-.755l.517-.613-1.078.622a.5.5,0,0,1-.746-.369l-.167-1.3-.048.027a.5.5,0,0,1-.5-.865l.7-.4a.5.5,0,0,1,.746.369l.167,1.3,2.9-1.673a.5.5,0,0,1,.633.755l-.517.612,2.37-1.368a.5.5,0,0,1,.624.763l-1.282,1.451,3.838-2.215a.5.5,0,0,1,.6.786L16.233,27.5l5.03-2.9a.5.5,0,0,1,.58.807l-2.878,2.536,5.792-3.344a.5.5,0,0,1,.556.828l-2.9,2.244,5.324-3.073a.5.5,0,0,1,.534.844l-.63.436,2.22-1.281a.5.5,0,0,1,.551.832l-4.578,3.441,7.405-4.275a.5.5,0,0,1,.529.848l-1.373.922,3.07-1.771a.5.5,0,0,1,.542.839l-5.973,4.3,8.9-5.14a.5.5,0,0,1,.537.843l-6.6,4.595L42.3,24.584a.5.5,0,0,1,.522.852l-3.554,2.309,5.477-3.162a.5.5,0,0,1,.528.849l-8.839,5.88L48.09,24.581a.5.5,0,0,1,.516.856l-3.9,2.462,5.75-3.319a.5.5,0,0,1,.521.854l-9.814,6.3,12.392-7.154a.5.5,0,0,1,.514.858l-5.6,3.488,5.518-3.186a.5.5,0,0,1,.521.853L37.162,37.77a.5.5,0,0,1,.1.868L31.47,42.8l5.25-3.031a.5.5,0,0,1,.529.847L35.3,41.93l1.42-.82a.5.5,0,0,1,.525.85l-.4.268a.507.507,0,0,1,.55.212.5.5,0,0,1-.131.678L31.819,47l4.9-2.829a.5.5,0,0,1,.538.842l-4.867,3.428,4.329-2.5a.5.5,0,0,1,.542.839l-5.784,4.157,5.242-3.027a.5.5,0,0,1,.547.835l-6.289,4.64,5.742-3.316a.5.5,0,0,1,.541.839l-3.48,2.49,2.653-1.532a.5.5,0,0,1,.5.866L25.386,59.4A.5.5,0,0,1,25.136,59.463Z" fill="#ffffff" fill-opacity="1" data-original-color="#c0dbf0ff" stroke="none" stroke-opacity="1"/><path d="M9.566,26.484a.5.5,0,0,1-.266-.922L27,14.412,7.436,25.705a.5.5,0,0,1-.519-.854L25.234,13.209,7.28,23.574a.5.5,0,0,1-.517-.855l14-8.852L7.28,21.649a.5.5,0,0,1-.51-.859l.44-.269a.5.5,0,0,1-.444-.891l6.161-3.851L7.28,19.039a.5.5,0,0,1-.523-.851l11.773-7.7-11.25,6.5a.5.5,0,0,1-.522-.851l8.208-5.345L7.28,15.227a.5.5,0,0,1-.528-.848l8.042-5.385L7.28,13.332a.5.5,0,0,1-.536-.843l7.449-5.2L7.28,11.281a.5.5,0,0,1-.532-.844l3.6-2.468L7.28,9.741a.5.5,0,0,1-.547-.835l4.039-2.978L7.28,7.943a.5.5,0,0,1-.565-.82l3.12-2.542L7.28,6.056a.5.5,0,0,1-.569-.818L7.725,4.4l-.445.255A.5.5,0,0,1,6.6,3.958l.925-1.516a.5.5,0,0,1-.462-.885L8.726.6a.5.5,0,0,1,.676.693L8.479,2.805,12.3.6a.5.5,0,0,1,.569.817l-1.015.844L14.735.6a.5.5,0,0,1,.566.82L12.18,3.961,18.006.6a.5.5,0,0,1,.547.835L14.516,4.409,21.119.6a.5.5,0,0,1,.532.844L18.046,3.911,23.787.6a.5.5,0,0,1,.536.842l-7.447,5.2L27.339.6a.5.5,0,0,1,.528.847L19.826,6.829,30.62.6a.5.5,0,0,1,.523.851L22.94,6.79,33.667.6a.5.5,0,0,1,.523.851l-11.775,7.7L37.223.6a.5.5,0,0,1,.514.856L31.575,5.306,39.729.6a.5.5,0,0,1,.511.859l-.26.159L41.745.6a.5.5,0,0,1,.518.855L28.27,10.3,45.078.6a.5.5,0,0,1,.519.854L27.281,13.093,48.924.6a.5.5,0,0,1,.516.855l-17.7,11.154L52.539.6a.5.5,0,0,1,.513.858L42.441,7.991,54.176,1.217a.5.5,0,0,1,.518.854L35.774,14.128,54.72,3.19a.5.5,0,0,1,.511.859L49.684,7.46,54.72,4.553a.5.5,0,0,1,.512.858l-4.5,2.773,3.986-2.3a.5.5,0,0,1,.514.857l-6.269,3.906L54.72,7.323a.5.5,0,0,1,.519.854l-9.853,6.3L54.72,9.087a.5.5,0,0,1,.519.853L47.659,14.8l7.061-4.076a.5.5,0,0,1,.524.85l-8.139,5.351,7.615-4.4a.5.5,0,0,1,.533.845l-8.482,5.834L54.72,14.62a.5.5,0,0,1,.532.846l-5.078,3.468L54.72,16.31a.5.5,0,0,1,.525.849l-.393.26a.51.51,0,0,1,.539.217.5.5,0,0,1-.133.677l-2.446,1.726,1.908-1.1a.5.5,0,0,1,.571.816L51.8,22.687,54.72,21a.5.5,0,0,1,.615.774l-1.946,2.078,1.331-.769a.5.5,0,0,1,.71.629l-.585,1.368a.5.5,0,0,1,.062.9l-.737.425a.5.5,0,0,1-.71-.629l.46-1.074-2.953,1.7a.5.5,0,0,1-.615-.774L52.3,23.553l-4.942,2.852a.5.5,0,0,1-.571-.815l3.492-2.933-6.493,3.749a.5.5,0,0,1-.538-.841l2.444-1.724-4.446,2.566a.5.5,0,0,1-.525-.849l.127-.084-1.618.933a.5.5,0,0,1-.533-.845L43.772,22.1,36.3,26.408a.5.5,0,0,1-.533-.845l8.481-5.833L32.679,26.409a.5.5,0,0,1-.525-.85l8.13-5.345-10.734,6.2a.5.5,0,0,1-.52-.853l7.595-4.87-9.914,5.723a.5.5,0,0,1-.52-.853l9.854-6.3L23.654,26.412a.5.5,0,0,1-.514-.857l6.254-3.9-8.235,4.754a.5.5,0,0,1-.513-.858l4.5-2.774-6.292,3.633a.5.5,0,0,1-.512-.858l5.548-3.411-7.4,4.27a.5.5,0,0,1-.518-.854L34.9,13.5,12.527,26.416a.5.5,0,0,1-.512-.858l10.611-6.537-12.81,7.4A.494.494,0,0,1,9.566,26.484Z" fill="#bf293a" fill-opacity="1" data-original-color="#2963bfff" stroke="none" stroke-opacity="1"/><path d="M6.725,25.387a3.7,3.7,0,0,0,.315.633c-.127.3.01.554.361.514,3.838,3.981,10.7,5.3,14.415,9.336,1.87,2.307.722,7.906.722,10.66-1.3,15.75,1.081,15.717,13.523,7.131,3.849-3.887-1.249-13.391,2.252-17.716,2.182-2.35,7.041-3.912,9.832-5.462,2.421-1.371,6.344-2.5,7.221-5.551.86-7.147-.3-14.686.1-21.907C54.374-1.528,45.306.423,41.977.412H14.73C10.79.412,6.742-.647,6.538,4.3c-.116,2.829-.076,5.678-.037,8.522a.394.394,0,0,0,0,.413C6.881,17.12,5.689,21.58,6.725,25.387Zm33.937,7.9c-5.82,1.939-4.2,7.086-4.123,11.875,0,2.805.78,5.921-1.571,7.762a35.309,35.309,0,0,1-4.26,2.433c-1.2.684-3.27,2.474-4.657,2.662-3.893.525-2.589-5.748-2.589-8,.732-18.746-.375-13.989-14.574-23.487H52.472C49.5,29.617,44.021,31.422,40.662,33.288ZM12.068,20.512H7.245c.039-.985.113-1.974.165-2.917H9.922c.6,0,.744-1.19.156-1.19H7.454c.021-.981-.014-1.96-.039-2.956H11.97c.739,0,.814-.9.06-.9H7.388c-.031-.991-.06-1.986-.074-2.979H9.851c.571,0,.925-1.144.3-1.144H7.309c0-.95.032-1.894.1-2.828h4.6c.6,0,.582-1.2-.02-1.2H7.528c.3-2.058,1.086-2.6,3.31-2.812,12.056-.8,24.346.34,36.432,0,1.7,0,6.507-.936,7.269,1.468,0,6.355.422,12.856,0,19.193a6.264,6.264,0,0,1-1.179,3.217H7.992a7.345,7.345,0,0,1-.769-3.978h4.709C12.56,21.488,12.849,20.512,12.068,20.512Z" fill="#262626" fill-opacity="1" data-original-color="#262626ff" stroke="none" stroke-opacity="1"/></g></svg>