<?xml version="1.0" encoding="UTF-8"?>
<svg xmlns="http://www.w3.org/2000/svg" id="Icons" viewBox="0 0 60 60" width="512" height="512"><defs><style>.cls-1{fill:#e53e53;}.cls-2{fill:#def1ff;}.cls-3{fill:#afc9d8;}.cls-4{fill:#262626;}</style></defs><path class="cls-1" d="M34.471,55.5a.5.5,0,0,1-.25-.933l24.5-14.144a.5.5,0,0,1,.519.853l-3.918,2.512,3.4-1.962a.5.5,0,0,1,.519.854l-1.873,1.2L58.72,43.1a.5.5,0,0,1,.54.839L51.728,49.3l6.992-4.036a.5.5,0,0,1,.529.847L57.4,47.358l1.32-.761a.5.5,0,0,1,.562.823L54.5,51.249l4.222-2.437a.5.5,0,0,1,.593.8l-2.966,2.805,2.373-1.37a.5.5,0,0,1,.581.808l-.384.338a.5.5,0,0,1,.434.822l-.464.544a.5.5,0,0,1,.046.889l-1.659.957a.5.5,0,0,1-.63-.756l.063-.075-1.448.836a.5.5,0,0,1-.581-.807l.222-.2-1.743,1.006a.5.5,0,0,1-.594-.8l2.967-2.8-6.244,3.6a.5.5,0,0,1-.562-.823l4.784-3.829-8.067,4.657a.5.5,0,0,1-.529-.848l1.85-1.247-3.633,2.1a.5.5,0,0,1-.54-.84l7.529-5.361L39.37,55.425a.5.5,0,0,1-.519-.854l1.871-1.2-3.564,2.057a.5.5,0,0,1-.519-.854l3.931-2.52-5.849,3.377A.494.494,0,0,1,34.471,55.5Z"/><path class="cls-1" d="M29,59.339a.5.5,0,0,1-.269-.922l10.149-6.45L27.666,58.44a.5.5,0,0,1-.514-.857L31.479,54.9,26.9,57.547a.5.5,0,0,1-.52-.853L41.6,46.88,26.287,55.718a.5.5,0,0,1-.513-.859l3.415-2.1L24.6,55.4a.5.5,0,0,1-.514-.857L32.9,49.061,21.92,55.4a.5.5,0,0,1-.513-.858l8.8-5.439L19.3,55.4a.5.5,0,0,1-.512-.858l8.237-5.057L16.783,55.4a.5.5,0,0,1-.512-.858l13.472-8.315L13.854,55.4a.5.5,0,0,1-.511-.859l10.2-6.227L11.273,55.4a.5.5,0,0,1-.508-.86l7.424-4.5L8.907,55.4a.5.5,0,0,1-.513-.857L32.8,39.364,5.023,55.4a.5.5,0,0,1-.508-.86L17.86,46.46,2.58,55.281a.5.5,0,0,1-.509-.86l14.968-9.057L1.5,54.335a.5.5,0,0,1-.509-.86l16.07-9.724L1.28,52.862A.5.5,0,0,1,.773,52l6.932-4.159L1.28,51.551a.5.5,0,0,1-.51-.86L22.959,37.164,1.28,49.68a.5.5,0,0,1-.508-.862l11.81-7.113L1.28,48.229a.5.5,0,0,1-.51-.859L25.393,32.3,1.28,46.222a.5.5,0,0,1-.511-.859L27.8,28.744,1.28,44.053a.5.5,0,0,1-.512-.859L27.237,26.881,1.28,41.867a.5.5,0,0,1-.512-.858L24.243,26.522,1.28,39.779a.5.5,0,0,1-.509-.86l11.618-7.058L1.28,38.274a.5.5,0,0,1-.515-.856L22.862,23.6,1.28,36.056a.5.5,0,0,1-.509-.86l6.821-4.152L1.28,34.688a.5.5,0,0,1-.511-.859L11.4,27.289,1.28,33.129a.5.5,0,0,1-.512-.858l8.976-5.535L1.28,31.622a.5.5,0,0,1-.519-.853L16.984,20.384,1.28,29.45A.5.5,0,0,1,.761,28.6L13.2,20.654,1.28,27.535a.5.5,0,0,1-.52-.853l10.231-6.566L1.28,25.723a.5.5,0,0,1-.514-.857l1.177-.735-.663.383a.5.5,0,0,1-.529-.847l10.5-7.092L1.28,22.333a.5.5,0,0,1-.534-.844l8.408-5.8L1.28,20.234A.5.5,0,0,1,.74,19.4l6.606-4.709-6.066,3.5a.5.5,0,0,1-.539-.841L4.31,14.815,1.28,16.564a.5.5,0,0,1-.551-.831l2.985-2.261L1.28,14.877A.5.5,0,0,1,.7,14.072L3.168,11.85,1.28,12.939a.5.5,0,0,1-.58-.808l.362-.318a.485.485,0,0,1-.416-.179.5.5,0,0,1,0-.645l.464-.544a.492.492,0,0,1-.228-.206.5.5,0,0,1,.182-.682L2.726,8.6a.5.5,0,0,1,.63.756l-.062.074L4.735,8.6a.5.5,0,0,1,.58.808l-.166.146L6.8,8.6a.5.5,0,0,1,.584.8L4.915,11.624,10.158,8.6a.5.5,0,0,1,.552.831l-2.985,2.26L13.081,8.6a.5.5,0,0,1,.539.84l-3.566,2.53L15.892,8.6a.5.5,0,0,1,.54.84L9.824,14.147,19.437,8.6a.5.5,0,0,1,.535.843l-8.409,5.8L23.072,8.6a.5.5,0,0,1,.53.846L13.1,16.536,26.85,8.6a.5.5,0,0,1,.514.856l-1.174.733L28.943,8.6a.5.5,0,0,1,.521.853L19.23,16.018,32.083,8.6a.5.5,0,0,1,.52.854L20.162,17.4,35.4,8.6a.5.5,0,0,1,.52.853L19.7,19.835,39.162,8.6a.5.5,0,0,1,.513.858l-8.959,5.523L41.771,8.6a.5.5,0,0,1,.511.858L31.647,16,44.471,8.6a.5.5,0,0,1,.509.859l-6.827,4.156L46.841,8.6a.5.5,0,0,1,.515.856l-22.1,13.824L50.685,8.6a.5.5,0,0,1,.509.86L39.606,16.5,53.289,8.6a.5.5,0,0,1,.513.858L30.327,23.942,56.887,8.608a.5.5,0,0,1,.512.859L30.922,25.785,58.567,9.824a.5.5,0,0,1,.512.859L32.05,27.3l26.67-15.4a.5.5,0,0,1,.51.86L34.623,27.824l24.1-13.912a.5.5,0,0,1,.508.861L47.387,21.906,58.72,15.363a.5.5,0,0,1,.51.86L37.041,29.75,58.72,17.234a.5.5,0,0,1,.507.862L52.3,22.255l6.425-3.709a.5.5,0,0,1,.509.86L43.171,29.122,58.72,20.146a.5.5,0,0,1,.509.86l-14.97,9.057L58.72,21.715a.5.5,0,0,1,.509.86l-13.358,8.09L58.72,23.247a.5.5,0,0,1,.513.857L34.824,39.285l23.9-13.8a.5.5,0,0,1,.509.861L51.8,30.85l6.918-4a.5.5,0,0,1,.51.86l-10.2,6.222,9.687-5.592a.5.5,0,0,1,.512.858L45.761,37.518,58.72,30.036a.5.5,0,0,1,.511.859l-8.246,5.061,7.735-4.465a.5.5,0,0,1,.512.859l-8.8,5.434L58.72,33a.5.5,0,0,1,.513.857l-8.815,5.485,8.3-4.793a.5.5,0,0,1,.512.858l-3.417,2.106,2.905-1.676a.5.5,0,0,1,.52.852L44.022,46.505l14.7-8.485a.5.5,0,0,1,.513.857l-4.327,2.682,3.814-2.2a.5.5,0,0,1,.518.855L34.323,56.047a.5.5,0,0,1-.25.438l-4.824,2.786A.5.5,0,0,1,29,59.339Z"/><path class="cls-2" d="M17.944,51.47a.5.5,0,0,1-.264-.924l12.146-7.577L15.219,51.4a.5.5,0,0,1-.516-.856L31.569,39.967,11.762,51.4a.5.5,0,0,1-.512-.858l11.437-7.016L9.048,51.4a.5.5,0,0,1-.513-.858L26.258,39.593,6.08,51.242a.5.5,0,0,1-.511-.859l16-9.8L5.283,49.99a.5.5,0,0,1-.512-.858l20.591-12.7L5.28,48.027a.5.5,0,0,1-.511-.858L23.83,35.45,5.28,46.16a.5.5,0,0,1-.511-.858L22.709,34.3,5.28,44.358a.5.5,0,0,1-.512-.858L24.891,31.1,5.28,42.425a.5.5,0,0,1-.511-.859l18.469-11.34L5.28,40.593a.5.5,0,0,1-.511-.859l19-11.676L5.28,38.729a.5.5,0,0,1-.513-.857L28.328,23.237,5.28,36.544a.5.5,0,0,1-.512-.857L26.253,22.393,5.28,34.5a.5.5,0,0,1-.511-.859l15.661-9.6L5.28,32.792a.5.5,0,0,1-.515-.856L27.54,17.674,5.28,30.525a.5.5,0,0,1-.514-.856L24.4,17.419,5.28,28.457a.5.5,0,0,1-.515-.856L23.536,15.835,5.28,26.374a.5.5,0,0,1-.515-.856l16.39-10.283L5.28,24.4a.5.5,0,0,1-.513-.857l10.142-6.292L5.28,22.81a.5.5,0,0,1-.512-.859l4.6-2.837L5.28,21.477a.5.5,0,0,1-.522-.852L16.422,13.05,5.28,19.482a.5.5,0,0,1-.523-.851l7.984-5.2L5.28,17.733a.5.5,0,0,1-.519-.853l3.707-2.371L5.28,16.349a.5.5,0,0,1-.521-.853l4.053-2.618L5.28,14.916a.5.5,0,0,1-.527-.849l5.973-3.978L5.28,13.232a.5.5,0,0,1-.536-.842l6.978-4.88L5.28,11.229a.5.5,0,0,1-.524-.851l.474-.313a.5.5,0,0,1-.484-.87L6.885,7.722l-1.6.925a.5.5,0,0,1-.536-.842l.514-.359A.5.5,0,0,1,4.731,6.6l1.3-1.061a.533.533,0,0,1-.446-.25A.5.5,0,0,1,5.77,4.61l4.855-2.8a.5.5,0,0,1,.566.82l-1.011.824L14.793.788a.5.5,0,0,1,.536.843l-.5.35L17.2.609a.5.5,0,0,1,.534.845L15.6,2.928,19.5.676a.5.5,0,0,1,.524.85l-.424.28,1.6-.926a.5.5,0,0,1,.536.843L14.764,6.6l8.985-5.188a.5.5,0,0,1,.527.849L18.308,6.24l7.309-4.22a.5.5,0,0,1,.522.852L22.075,5.5l4.961-2.863a.5.5,0,0,1,.52.853l-3.7,2.365L28.244,3.32a.5.5,0,0,1,.524.852l-7.992,5.21L32.464,2.634a.5.5,0,0,1,.522.851L21.322,11.061,39.16.762a.5.5,0,0,1,.513.858L35.058,4.463,41.754.6a.5.5,0,0,1,.514.857l-10.14,6.29L44.264.739a.5.5,0,0,1,.515.857l-16.4,10.285L46.883,1.2a.5.5,0,0,1,.515.857L28.626,13.824,49.214,1.938a.5.5,0,0,1,.515.857L30.1,15.043l21.1-12.179a.5.5,0,0,1,.516.857L28.927,17.985,53.049,4.06a.5.5,0,0,1,.512.859L37.9,14.512l16.278-9.4a.5.5,0,0,1,.512.858L33.221,19.258,54.72,6.846a.5.5,0,0,1,.513.857L31.672,22.338,54.72,9.031a.5.5,0,0,1,.511.859L36.218,21.577,54.72,10.9a.5.5,0,0,1,.511.858L36.762,23.1,54.72,12.728a.5.5,0,0,1,.512.858L35.124,25.974,54.72,14.66a.5.5,0,0,1,.511.859L37.291,26.524,54.72,16.462a.5.5,0,0,1,.511.858L36.17,29.039l18.55-10.71a.5.5,0,0,1,.512.859l-20.595,12.7L54.72,20.294a.5.5,0,0,1,.51.859l-16,9.8,15.49-8.942a.5.5,0,0,1,.512.858L37.5,33.819,54.72,23.88a.5.5,0,0,1,.511.858L43.783,31.761,54.72,25.447a.5.5,0,0,1,.515.857L38.378,36.877,54.72,27.442a.5.5,0,0,1,.514.857L43.091,35.874,54.72,29.16a.5.5,0,0,1,.521.853L38.967,40.525,54.72,31.431a.5.5,0,0,1,.512.858l-1.327.817.815-.469a.5.5,0,0,1,.524.85L42.389,41.942,54.72,34.823a.5.5,0,0,1,.516.856L52.392,37.47l2.328-1.344a.5.5,0,0,1,.521.853l-5.669,3.667,5.148-2.972a.5.5,0,0,1,.524.85l-5.086,3.341,4.562-2.633a.5.5,0,0,1,.541.839L47.75,45.455l6.97-4.023a.5.5,0,0,1,.544.837l-4.792,3.478L54.72,43.3a.5.5,0,0,1,.559.825l-3.76,2.97,3.2-1.848a.5.5,0,0,1,.552.83l-.716.546.164-.094a.5.5,0,0,1,.647.737l-1.548,2.028.9-.519a.5.5,0,0,1,.5.865L52.158,51.4a.5.5,0,0,1-.647-.736l1.548-2.028L48.27,51.4a.5.5,0,0,1-.553-.83l.716-.546L46.049,51.4a.5.5,0,0,1-.56-.825l3.763-2.972-6.577,3.8a.5.5,0,0,1-.544-.837l4.79-3.476L39.448,51.4a.5.5,0,0,1-.541-.839l7.509-5.382L35.64,51.4a.5.5,0,0,1-.525-.85l5.084-3.34L32.94,51.4a.5.5,0,0,1-.521-.852l5.674-3.67L30.259,51.4a.5.5,0,0,1-.517-.855l2.849-1.794L28,51.4a.5.5,0,0,1-.524-.85L40.333,42.1,24.215,51.4a.5.5,0,0,1-.513-.858l1.325-.816-2.9,1.674a.5.5,0,0,1-.522-.852L37.875,40.04,18.194,51.4A.5.5,0,0,1,17.944,51.47Z"/><path class="cls-3" d="M39.985,51.47a.5.5,0,0,1-.36-.847l1.257-1.306L37.27,51.4a.5.5,0,0,1-.656-.724L38,48.751l-4.6,2.651a.5.5,0,0,1-.7-.645l.55-1.171-2.692,1.553a.5.5,0,0,1-.5-.866l4.071-2.349a.5.5,0,0,1,.7.645l-.55,1.171,5.234-3.019a.5.5,0,0,1,.655.724l-1.388,1.927,4.658-2.688a.5.5,0,0,1,.611.779l-1.256,1.3,2.941-1.7a.5.5,0,0,1,.632.755L45.29,49.108l2.453-1.416a.5.5,0,0,1,.633.754l-.564.672,1.37-.79a.5.5,0,0,1,.639.745l-.1.132.525-.3a.5.5,0,0,1,.746.37l.113.888.593-.342a.5.5,0,0,1,.5.866l-1.245.718a.5.5,0,0,1-.746-.37l-.112-.887L47.909,51.4a.5.5,0,0,1-.639-.745l.1-.131-1.519.876a.5.5,0,0,1-.632-.754l.564-.671L43.315,51.4a.5.5,0,0,1-.631-.755l1.082-1.283L40.235,51.4A.49.49,0,0,1,39.985,51.47Z"/><path class="cls-3" d="M7.174,51.47a.5.5,0,0,1-.25-.933L12.011,47.6a.5.5,0,0,1,.639.745l-.689.86,4.418-2.55A.5.5,0,0,1,17,47.43l-1.342,1.442,3.811-2.2a.5.5,0,0,1,.615.773l-1.321,1.416,3.209-1.851a.5.5,0,0,1,.618.77L21.55,48.91l2.459-1.419a.5.5,0,0,1,.7.66l-.786,1.541L26.323,48.3a.5.5,0,0,1,.683.683l-.356.612,1.057-.61a.5.5,0,0,1,.668.158L29.13,50.3l.214-.124a.5.5,0,0,1,.5.867l-.623.359a.5.5,0,0,1-.668-.159L27.8,50.091,25.525,51.4a.5.5,0,0,1-.682-.683l.355-.612-2.243,1.3a.5.5,0,0,1-.695-.66l.786-1.541-3.813,2.2a.5.5,0,0,1-.618-.77l1.036-1.13-3.294,1.9a.5.5,0,0,1-.615-.773l1.32-1.415L13.271,51.4a.5.5,0,0,1-.617-.773L14,49.186,10.156,51.4a.5.5,0,0,1-.639-.745l.689-.86L7.424,51.4A.5.5,0,0,1,7.174,51.47Z"/><path class="cls-4" d="M59.731,18.459c-.45-3.6,1.968-10.869-4-9.959C54.8-1.609,36.285-1.067,30.106,4.163,23.9-1.119,5.52-1.464,4.265,8.486c-4.938-.689-4,4.637-4,7.88V51.722c0,1.776.176,3.609,2.473,3.772,7.519.07,15.059-.045,22.585,0,.481,5.321,8.658,5.112,9.324,0C70.257,55.738,57.565,59.732,59.731,18.459ZM42.4,1.454c4.192.331,11.716,1.51,11.87,6.773V47.473c1.373,8.634-8.094-7.5-23.549,2.269V5.006C33.445,2.082,38.641,1.347,42.4,1.454Zm8.8,49.1H31.1C36.754,46.322,45.561,46.2,51.2,50.557ZM5.727,7.169C9.256-.693,23.5.112,29.276,5.243V49.436A20.149,20.149,0,0,0,6.749,50.471c-2.367-2.076-.47-6.829-1.023-9.808C5.753,29.5,5.688,18.33,5.727,7.169ZM28.541,50.557c-6.679.024-13.355-.049-20.034.029C14.181,46.25,22.76,46.617,28.541,50.557Zm28.5,3.949c-7.7.654-16.531-1.1-23.768.558-.078,1.828-1.35,3.59-3.355,3.427a3.63,3.63,0,0,1-3.183-3.556c-6.835-1.227-15.1-.017-22.4-.43-1.436.263-2.874-.515-2.6-2.118V19.881C2.49,16.93-.426,9.025,4.273,9.487V47.414c-.058,1.47-.28,3.733,1.611,3.946,15.551.342,31.329-.023,46.955.084,4.239.16,2.569-4.95,2.888-7.61V9.476c1.675-.2,2.861.791,2.542,2.575V36.289C57.546,40.133,59.889,53,57.037,54.506Z"/></svg>
