<?xml version="1.0" encoding="UTF-8"?>
<svg xmlns="http://www.w3.org/2000/svg" id="icons" viewBox="0 0 60 60" width="512" height="512"><defs><style>.cls-1{fill:#6886ff;}.cls-2{fill:#4767cc;}.cls-3{fill:#fbde56;}.cls-4{fill:#262626;}</style></defs><path class="cls-1" d="M23.793,59.47a.5.5,0,0,1-.265-.924l11.052-6.91L21.44,59.222a.5.5,0,0,1-.517-.855L38.517,47.2,20.3,57.718a.5.5,0,0,1-.516-.856L36.15,46.577,20.277,55.741a.5.5,0,0,1-.509-.859l2.88-1.756L20.274,54.5a.5.5,0,0,1-.518-.854L38.924,41.456,20.271,52.226a.5.5,0,0,1-.514-.858l12.68-7.878L20.268,50.516a.5.5,0,0,1-.51-.861l.516-.313-.008.005a.5.5,0,0,1-.519-.855l19.19-12.2L20.262,47.074a.5.5,0,0,1-.513-.857l10.906-6.746L19.268,46.045a.5.5,0,0,1-.514-.857l13.394-8.316-14.728,8.5a.5.5,0,0,1-.517-.855L37.377,31.591,15.012,44.5a.5.5,0,0,1-.514-.857L32.3,32.59,12.955,43.758a.5.5,0,0,1-.509-.861L18.6,39.166l-7.064,4.078a.5.5,0,0,1-.513-.857l20-12.381L9.422,42.478a.5.5,0,0,1-.509-.861L18.1,36.05,7.915,41.932a.5.5,0,0,1-.51-.86l14.466-8.806L6.2,41.312a.5.5,0,0,1-.513-.859L29.1,26.026,4,40.515a.5.5,0,0,1-.511-.86L25.478,26.2,1.967,39.772a.5.5,0,0,1-.509-.86L18.506,28.58,1.328,38.5a.5.5,0,0,1-.508-.861L9.6,32.358l-7.64,4.411a.5.5,0,0,1-.507-.862l5.591-3.354L2.575,35.135a.5.5,0,0,1-.508-.862l8.415-5.065L3.227,33.4a.5.5,0,0,1-.512-.858L22.837,20.192,4.126,31a.5.5,0,0,1-.511-.859L16.368,22.36,4.874,29a.5.5,0,0,1-.514-.857l17.2-10.659L5.774,26.593a.5.5,0,0,1-.516-.856L23.394,14.3,6.786,23.891a.5.5,0,0,1-.517-.855l15.128-9.6L7.75,21.316a.5.5,0,0,1-.519-.854l11.893-7.578L8.641,18.936a.5.5,0,0,1-.525-.851l12.206-8.028L9.661,16.212a.5.5,0,0,1-.527-.849l9.085-6.046-7.625,4.4a.5.5,0,0,1-.521-.854l1.213-.778-.1.059a.5.5,0,0,1-.528-.848l3.092-2.061-1.882,1.086a.5.5,0,0,1-.539-.841l3.709-2.626L12.648,8.233a.5.5,0,0,1-.572-.815l3.712-3.124L13.664,5.52a.5.5,0,0,1-.639-.748l1.636-2.025a.5.5,0,0,1-.311-.929L16.42.623a.5.5,0,0,1,.63.107.5.5,0,0,1,.009.64L15.492,3.311,20.191.6a.5.5,0,0,1,.573.815L17.053,4.536,23.876.6a.5.5,0,0,1,.539.84L20.706,4.065,26.713.6a.5.5,0,0,1,.527.848L24.152,3.5,29.187.6a.5.5,0,0,1,.521.853l-1.223.784L31.323.6a.5.5,0,0,1,.528.848L22.773,7.487,34.707.6a.5.5,0,0,1,.524.85L23.021,9.479,38.405.6a.5.5,0,0,1,.519.854L27.042,9.023,41.637.6a.5.5,0,0,1,.517.854l-15.131,9.6L45.132.6a.5.5,0,0,1,.516.855L27.51,12.89,48.8.6a.5.5,0,0,1,.513.857L32.122,12.11,52.062.6a.5.5,0,0,1,.511.859L39.813,9.236,54.777.6a.5.5,0,0,1,.512.858L35.162,13.805,57.29,1.029a.5.5,0,0,1,.508.862L49.365,6.967l8.821-5.092a.5.5,0,0,1,.506.861l-5.54,3.325,5.486-3.167a.5.5,0,0,1,.508.861L50.35,9.04l8.37-4.832a.5.5,0,0,1,.509.86L42.171,15.406,58.72,5.853a.5.5,0,0,1,.51.859L37.252,20.165,58.72,7.771a.5.5,0,0,1,.512.858l-23.4,14.42L58.72,9.837a.5.5,0,0,1,.509.859L44.753,19.509,58.72,11.445a.5.5,0,0,1,.509.861l-9.195,5.569,8.686-5.014a.5.5,0,0,1,.512.858l-20,12.38L58.72,14.85a.5.5,0,0,1,.509.86L53.1,19.428l5.624-3.247a.5.5,0,0,1,.513.857L41.419,28.1l17.3-9.989a.5.5,0,0,1,.516.856L38.76,31.9,58.72,20.377a.5.5,0,0,1,.513.857l-13.374,8.3L58.72,22.112a.5.5,0,0,1,.512.858l-10.91,6.749,10.4-6a.5.5,0,0,1,.518.854l-19.195,12.2L58.72,25.991a.5.5,0,0,1,.509.861l-.511.31h0a.5.5,0,0,1,.513.858L46.549,35.9,58.72,28.873a.5.5,0,0,1,.518.855L40.073,41.911,58.72,31.146a.5.5,0,0,1,.509.859l-2.888,1.761,2.379-1.373a.5.5,0,0,1,.515.855L42.879,43.529,58.72,34.384a.5.5,0,0,1,.517.854l-17.6,11.17L58.72,36.545a.5.5,0,0,1,.514.856L48.177,44.315,58.72,38.229a.5.5,0,0,1,.522.852L44.147,48.869,58.72,40.456a.5.5,0,0,1,.524.851L46.391,49.735,58.72,42.617a.5.5,0,0,1,.522.852L50.69,49.025l8.03-4.635a.5.5,0,0,1,.524.85l-6.975,4.58L58.72,46.1a.5.5,0,0,1,.52.853l-1.612,1.035,1.092-.63a.5.5,0,0,1,.54.84l-7.129,5.073,6.589-3.8a.5.5,0,0,1,.548.835l-5.189,3.839,4.641-2.679a.5.5,0,0,1,.542.839l-1.73,1.244,1.188-.686a.5.5,0,0,1,.572.816L56.871,55.71l1.849-1.067a.5.5,0,0,1,.612.777l-1.318,1.387.706-.408a.5.5,0,0,1,.5.866l-3.7,2.137a.5.5,0,0,1-.613-.777l1.32-1.388L52.474,59.4a.5.5,0,0,1-.573-.815l2.42-2.038L49.379,59.4a.5.5,0,0,1-.542-.839l1.731-1.245L46.958,59.4a.5.5,0,0,1-.548-.835L51.6,54.729,43.5,59.4a.5.5,0,0,1-.54-.839l7.128-5.072L39.851,59.4a.5.5,0,0,1-.521-.853l1.607-1.032L37.671,59.4a.5.5,0,0,1-.525-.85l6.982-4.583L34.715,59.4a.5.5,0,0,1-.523-.851L42.74,53,31.646,59.4a.5.5,0,0,1-.525-.85l12.854-8.428L27.9,59.4a.5.5,0,0,1-.522-.852l15.1-9.791L24.043,59.4A.5.5,0,0,1,23.793,59.47Z"/><path class="cls-2" d="M19.7,46.36a.5.5,0,0,1-.492-.588l.116-.648-1,.579a.5.5,0,0,1-.663-.715l.692-1.009-1.847,1.065a.5.5,0,0,1-.628-.761l1.8-2.069-3.462,2a.5.5,0,0,1-.586-.8l2.594-2.356-4.137,2.387a.5.5,0,0,1-.559-.826l2.622-2.056-3.864,2.23a.5.5,0,0,1-.551-.832l3.423-2.578L8.418,42.113a.5.5,0,0,1-.53-.846l.347-.236-1.082.624a.5.5,0,0,1-.537-.842l3.7-2.587-4.868,2.81a.5.5,0,0,1-.539-.84l6.134-4.357L3.351,40.277a.5.5,0,0,1-.534-.844l6.4-4.4-7.68,4.434a.5.5,0,0,1-.519-.854l.3-.2a.5.5,0,0,1-.5-.865L6.044,34.1,2.113,36.369a.5.5,0,0,1-.672-.165.5.5,0,0,1,.137-.679L9.73,29.877,3.114,33.7a.5.5,0,0,1-.529-.847l5.236-3.531L3.907,31.577a.5.5,0,0,1-.523-.851l1.011-.659a.5.5,0,0,1-.433-.891l2.914-1.945-1.711.988a.5.5,0,0,1-.527-.849l1.941-1.292-.781.451a.5.5,0,0,1-.539-.841l5.566-3.936L6.693,24.137a.5.5,0,0,1-.537-.842l4.37-3.072-3.02,1.743a.5.5,0,0,1-.547-.835l5.513-4.064L8.477,19.374a.5.5,0,0,1-.552-.831l5.35-4.051L9.485,16.68a.5.5,0,0,1-.548-.833l3.947-2.95-2.529,1.46a.5.5,0,0,1-.54-.839l1.326-.945-.151.087a.5.5,0,0,1-.565-.82l4.4-3.587L12.038,9.862a.5.5,0,0,1-.562-.823l2.848-2.276-1.435.828a.5.5,0,0,1-.594-.8l2.886-2.727-1.242.716a.5.5,0,0,1-.621-.767l1.159-1.282a.5.5,0,0,1-.127-.917L16.42.623a.5.5,0,0,1,.621.768l-.85.939L18.37,1.073a.5.5,0,0,1,.594.8L16.08,4.594l3.478-2.007a.5.5,0,0,1,.562.823L17.271,5.688l2.45-1.415a.5.5,0,0,1,.565.821l-4.4,3.586,3.837-2.215a.5.5,0,0,1,.54.84l-1.318.938.779-.449a.5.5,0,0,1,.548.833l-3.954,2.954,3.408-1.967a.5.5,0,0,1,.551.831L14.929,14.5l4.8-2.77a.5.5,0,0,1,.546.835l-5.513,4.063,4.968-2.868a.5.5,0,0,1,.538.842L15.9,17.667l3.832-2.212a.5.5,0,0,1,.54.841L14.7,20.235l5.032-2.905a.5.5,0,0,1,.528.849l-1.939,1.29,1.412-.816a.5.5,0,0,1,.528.849l-2.915,1.945,2.388-1.379a.5.5,0,0,1,.524.852l-.847.552.325-.188a.5.5,0,0,1,.53.848l-5.232,3.527,4.7-2.715a.5.5,0,0,1,.535.844l-8.151,5.649,7.618-4.4a.5.5,0,0,1,.527.85L15.049,29.34l4.693-2.709a.5.5,0,0,1,.52.853l-.438.281a.5.5,0,0,1,.452.882l-6.4,4.4,5.871-3.39a.5.5,0,0,1,.539.84l-6.135,4.358,5.6-3.231a.5.5,0,0,1,.537.842l-3.692,2.584,3.156-1.822a.5.5,0,0,1,.53.847l-.446.3a.5.5,0,0,1,.469.87l-3.425,2.579,2.875-1.659a.5.5,0,0,1,.559.826l-2.621,2.056,2.064-1.192a.5.5,0,0,1,.586.8l-2.593,2.356,2.009-1.16a.5.5,0,0,1,.628.761l-1.8,2.07,1.171-.675a.5.5,0,0,1,.663.715l-.691,1.008.03-.016a.5.5,0,0,1,.742.52l-.188,1.045a.5.5,0,0,1-.053.831l-.307.177A.508.508,0,0,1,19.7,46.36Z"/><path class="cls-3" d="M20.03,53.5a.5.5,0,0,1-.347-.859l1.193-1.156-.6.344a.5.5,0,0,1-.739-.536l.318-1.505a.491.491,0,0,1-.261-.22.5.5,0,0,1,.182-.682l.5-.289a.5.5,0,0,1,.74.536L20.751,50.4l3.134-1.808a.5.5,0,0,1,.6.792l-1.193,1.155,3.376-1.949a.5.5,0,0,1,.648.735L25.8,51.32l4.731-2.731a.5.5,0,0,1,.605.785l-1.3,1.307,3.628-2.094a.5.5,0,0,1,.581.808l-.759.668,2.563-1.478a.5.5,0,0,1,.589.8l-1,.921,2.983-1.723a.5.5,0,0,1,.572.815l-.387.327,1.98-1.144a.5.5,0,0,1,.627.761l-1.493,1.715,4.294-2.478a.5.5,0,0,1,.594.8l-1.13,1.075,3.245-1.873a.5.5,0,0,1,.63.758l-1.5,1.76,4.365-2.52a.5.5,0,0,1,.633.754l-1.51,1.8,4.43-2.558a.5.5,0,0,1,.63.756L52.891,51.1l4.391-2.536a.5.5,0,0,1,.617.773L56.466,50.89l2.262-1.306a.5.5,0,0,1,.7.646l-.712,1.508.026-.014a.5.5,0,1,1,.5.865l-1.411.814a.5.5,0,0,1-.7-.646l.712-1.508-3.738,2.157a.5.5,0,0,1-.617-.772l1.434-1.548L50.9,53.409a.5.5,0,0,1-.63-.756l1.505-1.776-4.39,2.535a.5.5,0,0,1-.633-.754l1.511-1.8-4.432,2.558a.5.5,0,0,1-.63-.758L44.7,50.9l-4.365,2.52a.5.5,0,0,1-.595-.8l1.132-1.076-3.246,1.873A.5.5,0,0,1,37,52.658l1.491-1.714L34.2,53.422a.5.5,0,0,1-.572-.816l.389-.327-1.983,1.145a.5.5,0,0,1-.589-.8l1-.921-2.983,1.723a.5.5,0,0,1-.581-.808l.759-.669-2.563,1.479a.5.5,0,0,1-.6-.785l1.3-1.307L24.144,53.43a.5.5,0,0,1-.649-.736L25.012,50.7,20.28,53.433A.489.489,0,0,1,20.03,53.5Z"/><path class="cls-3" d="M20.355,43.5a.5.5,0,0,1-.362-.845l1.4-1.469-1.109.639a.5.5,0,0,1-.739-.536l.317-1.5a.5.5,0,0,1-.078-.9l.5-.289a.5.5,0,0,1,.74.536L20.752,40.4l3.126-1.8a.5.5,0,0,1,.612.777L23.1,40.842l3.9-2.25a.5.5,0,0,1,.574.813l-.476.405L29.2,38.59a.5.5,0,0,1,.628.1.5.5,0,0,1,.015.638l-1.522,1.921,4.621-2.667a.5.5,0,0,1,.6.792l-1.186,1.144,3.359-1.938a.5.5,0,0,1,.574.813l-.479.409,2.119-1.224a.5.5,0,0,1,.6.785l-1.3,1.3,3.617-2.088a.5.5,0,0,1,.613.777l-1.4,1.469,3.9-2.248a.5.5,0,0,1,.644.74l-1.52,1.947,4.661-2.69a.5.5,0,0,1,.589.8l-.991.912,2.97-1.715a.5.5,0,0,1,.581.807l-.774.685,2.59-1.494a.5.5,0,0,1,.59.8l-1.025.948,3.033-1.75a.5.5,0,0,1,.616.775l-1.418,1.516,3.972-2.294a.5.5,0,0,1,.643.743l-1.521,1.93,1.128-.65a.5.5,0,0,1,.736.554L59.2,42.226a.491.491,0,0,1,.231.207.5.5,0,0,1-.183.682l-.5.288a.5.5,0,0,1-.735-.553l.2-.8-2.358,1.36a.5.5,0,0,1-.642-.742l1.519-1.931L52.1,43.408a.5.5,0,0,1-.616-.774l1.42-1.518L48.93,43.41a.5.5,0,0,1-.59-.8l1.024-.948-3.033,1.75a.5.5,0,0,1-.581-.807l.774-.685-2.589,1.494a.5.5,0,0,1-.589-.8l.991-.912-2.971,1.715a.5.5,0,0,1-.644-.74l1.52-1.947-4.661,2.69a.5.5,0,0,1-.612-.777l1.393-1.467L34.47,43.422a.5.5,0,0,1-.6-.785l1.3-1.3-3.618,2.089a.5.5,0,0,1-.574-.814l.479-.408L29.33,43.426a.5.5,0,0,1-.6-.792l1.186-1.145L26.56,43.428a.5.5,0,0,1-.642-.743l1.52-1.921-4.621,2.667a.5.5,0,0,1-.574-.814l.477-.4-2.115,1.22A.489.489,0,0,1,20.355,43.5Z"/><path class="cls-4" d="M21.791,59.463c10.862.194,21.75-.109,32.62,0,3.4.329,5.891-.459,5.317-4.422q0-25.092,0-50.185C60,.662,56.487.161,53.1.538,40.991.747,28.69.13,16.68.756c-2.783.223-3.6,3.1-4.352,5.353Q6.732,21.046,1.137,35.983c-.7,1.5-1.688,3.528.728,3.969l17.406,6.307V54C19.271,56.139,18.748,59.32,21.791,59.463ZM20.724,45.806V43.3H58.271v5.174H20.727C20.73,47.587,20.731,46.677,20.724,45.806Zm-.009,3.721H58.271v2.992h-37.6C20.682,51.52,20.7,50.522,20.715,49.527ZM58.271,42.7H20.724V39.435H58.271ZM56.882,58.537c-10.8.051-21.618-.034-32.424,0-4.226.559-3.836-1.691-3.795-5.056H58.271C58,55.1,59.15,58.16,56.882,58.537ZM54.294,1.463c6.4-.787,3.409,8.211,3.978,12.243q0,12.429,0,24.859H20.724V9.024c-.283-2.385.85-5.813-1.125-7.561ZM2.9,39.28a1.317,1.317,0,0,1-.832-2.167Q7.11,23.654,12.152,10.191c.91-2.412,1.8-4.833,2.713-7.243C16.026.24,19.1,1.622,19.276,4.144v41.07Z"/></svg>
