<svg height="504pt" viewBox="0 -66 504.74903 504" width="504pt" xmlns="http://www.w3.org/2000/svg"><path d="m265.355469 228.984375c-1.746094.003906-3.3125-1.078125-3.929688-2.714844-.617187-1.636719-.15625-3.484375 1.160157-4.636719l31.792968-27.914062c-.195312-1.667969.613282-3.292969 2.066406-4.132812l8.074219-4.65625c1.867188-1.066407 4.238281-.550782 5.492188 1.195312 1.25 1.746094.984375 4.15625-.625 5.585938l-9.324219 8.191406 12.589844-7.277344c1.300781-.828125 2.953125-.875 4.296875-.121094 1.347656.75 2.171875 2.179688 2.152343 3.71875-.023437 1.542969-.886718 2.949219-2.25 3.664063l-49.414062 28.535156c-.632812.371094-1.351562.566406-2.082031.5625zm0 0" fill="#fdcd56"/><path d="m117.386719 371.289062c-1.875.003907-3.53125-1.238281-4.046875-3.042968-.515625-1.804688.226562-3.734375 1.824218-4.722656l13.167969-8.199219-26.664062 15.359375c-1.964844 1.050781-4.410157.386718-5.566407-1.519532-1.160156-1.902343-.628906-4.378906 1.210938-5.640624l79.785156-51.003907-100.71875 58.164063c-1.980468 1.089844-4.464844.417968-5.625-1.515625-1.160156-1.9375-.582031-4.445313 1.308594-5.675781l35.554688-22.101563-50.796876 29.292969c-1.96875 1.054687-4.417968.378906-5.570312-1.53125-1.152344-1.914063-.609375-4.394532 1.238281-5.644532l75.820313-47.675781-95.007813 54.851563c-1.953125 1.066406-4.398437.421875-5.574219-1.46875-1.175781-1.890625-.667968-4.367188 1.152344-5.648438l104.128906-69.566406-101.753906 58.753906c-1.972656 1.214844-4.558594.601563-5.773437-1.375-1.214844-1.972656-.597657-4.558594 1.375-5.773437l73.214843-47.726563-27.535156 15.90625c-1.277344.789063-2.875.839844-4.195312.132813-1.324219-.710938-2.167969-2.070313-2.214844-3.570313-.046875-1.496094.710938-2.90625 1.984375-3.695312l39.347656-26.019532c-1.957031.828126-4.226562.0625-5.28125-1.78125-1.054687-1.847656-.5625-4.191406 1.144531-5.457031l49.1875-36.265625c-1.796874.121094-3.46875-.910156-4.164062-2.570312-.691406-1.660156-.25-3.578125 1.097656-4.765625l40.414063-35.730469c-.226563-1.6875.585937-3.347656 2.058593-4.199219l8.199219-4.734375c1.867188-1.082031 4.253907-.570312 5.511719 1.183594 1.261719 1.75.984375 4.175781-.632812 5.601562l-18.710938 16.535157 23.914062-13.800781c1.925782-1.105469 4.378907-.515626 5.59375 1.34375 1.21875 1.855468.777344 4.339843-1.003906 5.664062l-46.070312 33.894531 52.675781-30.410156c1.957031-1.082031 4.417969-.4375 5.597656 1.464844 1.175781 1.898437.65625 4.390625-1.183593 5.660156l-38.953126 25.800781 43.085938-24.867187c1.960938-1.082031 4.425781-.429688 5.597656 1.476562 1.171875 1.910157.640625 4.402344-1.210937 5.664063l-73.207031 47.726562 78.773437-45.46875c1.957031-1.09375 4.429687-.460937 5.613281 1.445313 1.1875 1.902343.664063 4.402343-1.183594 5.671875l-104.109374 69.625 177.101562-102.265625c1.964844-1.027344 4.390625-.34375 5.535156 1.554687 1.144532 1.902344.613282 4.363282-1.214844 5.621094l-75.851562 47.691406 80.453125-46.441406c1.976563-1.089844 4.460937-.417969 5.621094 1.519531 1.164062 1.933594.585937 4.441407-1.308594 5.675781l-35.503906 22.066407 38.609375-22.300781c1.96875-1.082032 4.4375-.425782 5.605468 1.492187 1.167969 1.914063.621094 4.414063-1.238281 5.664063l-79.839843 51.042968 85.09375-49.117187c1.976562-1.089844 4.460937-.421875 5.621093 1.515625 1.164063 1.9375.585938 4.445312-1.308593 5.675781l-13.035157 8.109375 15.46875-8.921875c1.960938-1.097656 4.4375-.457031 5.621094 1.457031 1.179687 1.910156.644531 4.414063-1.214844 5.675782l-86.074219 56.664062 92.628907-53.476562c1.285156-.773438 2.886719-.808594 4.199219-.085938 1.316406.722656 2.144531 2.09375 2.175781 3.59375s-.742188 2.902344-2.023438 3.679688l-24.234375 15.300781 27.136719-15.664063c1.960937-1.113281 4.453125-.480468 5.640625 1.4375 1.1875 1.914063.652344 4.429688-1.21875 5.691406l-64.351562 42.621094 69.867187-40.289062c1.941406-1.058594 4.375-.429688 5.558594 1.4375 1.183593 1.867187.710937 4.335937-1.078125 5.636718l-72.667969 50.234376 80.039063-46.203126c1.953124-1.066406 4.402343-.421874 5.574218 1.46875 1.175782 1.890626.671875 4.367188-1.152344 5.648438l-38.179687 25.457031 42.351563-24.449219c1.9375-1.078124 4.378906-.464843 5.574218 1.398438 1.199219 1.867188.738282 4.339844-1.046875 5.652344l-52.03125 36.746094 58.273438-33.632813c1.945312-1.058594 4.378906-.421875 5.558593 1.453125 1.175782 1.875.695313 4.34375-1.101562 5.636719l-23.28125 15.824219 26.707031-15.417969c1.949219-1.097657 4.421875-.472657 5.609375 1.425781 1.191406 1.894531.683594 4.394531-1.152344 5.671875l-11.851562 8.066406 14.554688-8.390625c1.953124-1.136718 4.453124-.519531 5.65625 1.394532 1.203124 1.914062.675781 4.433593-1.191407 5.703124l-1.03125.699219 2.996094-1.730469c1.925781-1.121093 4.390625-.539062 5.613281 1.320313 1.226563 1.859375.785156 4.355469-1.007812 5.679687l-21.570313 16.050782 25.675781-14.824219c1.917969-1.101563 4.363282-.519531 5.585938 1.324219s.800781 4.320312-.960938 5.660156l-13.09375 9.878906 16.339844-9.425781c1.890625-1.078125 4.289063-.53125 5.527344 1.257813 1.238281 1.789062.90625 4.226562-.765625 5.613281l-13.539063 11.113281 17.265626-9.960938c1.878906-1.085937 4.273437-.558593 5.523437 1.210938 1.253906 1.769531.949219 4.203125-.699219 5.613281l-6.78125 5.78125 9.511719-5.488281c1.660156-.960938 3.761719-.667969 5.101563.703125 1.347656 1.378906 1.582031 3.5.570312 5.136719l-8.785156 14.269531 15.105468-8.726563c1.230469-.714843 2.738282-.757812 4.007813-.113281 1.265625.644531 2.121094 1.886719 2.269531 3.300781l1.117188 10.609376 4.492187-2.578126c1.992188-1.039062 4.453125-.328124 5.578125 1.621094 1.125 1.945313.515625 4.433594-1.382812 5.640625l-10.070313 5.816407c-1.230469.710937-2.734375.75-4 .105468-1.265625-.644531-2.121093-1.882812-2.269531-3.292968l-1.125-10.617188-23.9375 13.746094c-1.675781.992187-3.8125.707031-5.164062-.691406-1.351563-1.402344-1.5625-3.546876-.511719-5.183594l8.78125-14.269532-34.75 20.144532c-1.878907 1.066406-4.257813.535156-5.503907-1.226563-1.242187-1.765625-.949218-4.183593.683594-5.597656l6.785156-5.78125-21.824218 12.589844c-1.890625 1.074219-4.289063.527343-5.527344-1.257813-1.238281-1.789062-.902344-4.226562.769531-5.617187l13.539063-11.113281-31.199219 18.003906c-1.917969 1.078125-4.34375.488281-5.554687-1.34375-1.214844-1.835938-.804688-4.296875.9375-5.640625l13.066406-9.800781-29.183594 16.785156c-1.925781 1.121094-4.390625.542968-5.613281-1.320313-1.226563-1.859375-.785157-4.355469 1.007812-5.679687l21.585938-16.054688-39.945313 23.054688c-1.949218 1.097656-4.417968.46875-5.609375-1.425782-1.191406-1.898437-.683593-4.394531 1.15625-5.675781l1.015625-.679687-13.5 7.78125c-1.945312 1.085937-4.402344.457031-5.589844-1.429688-1.1875-1.886718-.691406-4.375 1.125-5.664062l11.859376-8.015625-26.269532 15.109375c-1.949218 1.085937-4.402344.457031-5.589844-1.429688-1.191406-1.886718-.695312-4.375 1.125-5.664062l23.273438-15.84375-39.742188 22.9375c-1.9375 1.078125-4.378906.464844-5.574218-1.398438-1.195313-1.867187-.738282-4.339844 1.050781-5.652344l52.039063-36.746093-75.894532 43.796875c-1.957031 1.097656-4.429687.460937-5.613281-1.441406-1.1875-1.90625-.664063-4.402344 1.183594-5.675782l38.105469-25.40625-56.335938 32.523438c-1.945312 1.085937-4.398438.464844-5.59375-1.414063-1.191406-1.878906-.707031-4.363281 1.101562-5.660156l72.703126-50.277344-99.328126 57.351563c-1.957031 1.082031-4.417968.4375-5.59375-1.464844-1.179687-1.898438-.660156-4.390625 1.179688-5.660156l64.402344-42.628906-86.199219 49.753906c-1.972656 1.085937-4.449219.421875-5.613281-1.503906-1.164063-1.925782-.601563-4.429688 1.273437-5.671876l24.230469-15.335937-39.011719 22.511719c-1.957031 1.066406-4.40625.414062-5.578125-1.484375-1.171875-1.898438-.652344-4.378907 1.179688-5.648438l86.082031-56.65625-110.53125 63.789063c-.625.378906-1.335937.585937-2.066406.605468zm0 0" fill="#fdcd56"/><path d="m11.019531 366.136719c-1.753906 0-3.324219-1.085938-3.9375-2.730469-.613281-1.640625-.144531-3.492188 1.183594-4.640625l18.625-16.148437-15.042969 8.679687c-1.921875 1.09375-4.363281.503906-5.582031-1.34375-1.214844-1.851563-.785156-4.328125.984375-5.65625l36.402344-26.996094-31.804688 18.367188c-1.964844 1.136719-4.476562.507812-5.671875-1.421875-1.195312-1.933594-.636719-4.464844 1.257813-5.714844l11.214844-7.4375-6.808594 3.929688c-1.96875 1.121093-4.476563.476562-5.65625-1.460938-1.183594-1.933594-.613282-4.457031 1.285156-5.699219l12.160156-7.855469-7.789062 4.492188c-1.964844 1.050781-4.40625.382812-5.566406-1.519531-1.15625-1.902344-.625-4.378907 1.210937-5.640625l27.816406-17.804688-23.460937 13.546875c-1.964844 1.101563-4.449219.449219-5.625-1.46875-1.175782-1.921875-.628906-4.429687 1.246094-5.679687l48.480468-31.46875-44.101562 25.457031c-1.960938 1.082031-4.425782.429687-5.597656-1.476563-1.175782-1.910156-.640626-4.402343 1.207031-5.664062l45.015625-29.335938-40.625 23.449219c-1.972656 1.101563-4.460938.449219-5.632813-1.484375-1.171875-1.929687-.609375-4.441406 1.277344-5.683594l13.765625-8.804687-9.394531 5.421875c-1.953125 1.136719-4.453125.519531-5.65625-1.394531-1.203125-1.914063-.675781-4.433594 1.191406-5.703125l66.738281-45.679688-62.289062 35.957032c-1.964844 1.117187-4.460938.476562-5.648438-1.445313-1.183594-1.925781-.632812-4.445313 1.25-5.695313l28.808594-18.953124-24.410156 14.09375c-1.945313 1.097656-4.414063.476562-5.609375-1.410157-1.195313-1.890625-.699219-4.386719 1.128906-5.675781l53.984375-37.316406-49.519531 28.539062c-1.960938 1.09375-4.4375.453125-5.621094-1.457031-1.179687-1.914063-.644531-4.417969 1.214844-5.679687l13.210937-8.703126-8.804687 5.078126c-1.933594 1.082031-4.375.476562-5.578125-1.382813s-.75-4.332031 1.027344-5.652344l52.878906-38.070312-48.3125 27.914062c-1.941406 1.085938-4.398438.464844-5.589844-1.414062-1.191406-1.878907-.710938-4.363281 1.101562-5.660157l29.015626-20.144531-24.535157 14.167969c-1.914062 1.070312-4.332031.484375-5.542969-1.34375-1.210937-1.828125-.8125-4.28125.917969-5.628906l46.433594-35.179688-41.808594 24.132813c-1.90625 1.082031-4.328125.511719-5.554687-1.304688-1.222656-1.820312-.839844-4.277343.878906-5.636719l40.472656-31.527343-35.796875 20.664062c-1.902343 1.085938-4.316406.527344-5.546875-1.28125-1.234375-1.808593-.867187-4.261719.839844-5.632812l32.949219-26.1875-28.242188 16.300781c-1.921875 1.082031-4.355469.496094-5.566406-1.347656-1.214844-1.839844-.796875-4.308594.957031-5.644532l13.128906-9.839843-8.519531 4.921875c-1.902343 1.070312-4.308593.5-5.53125-1.304688-1.226562-1.808594-.859375-4.25.839844-5.621094l15.316406-12.078124-10.625 6.125c-1.902343 1.054687-4.289062.480468-5.507812-1.320313-1.214844-1.796875-.859375-4.230469.824219-5.601563l7.429687-5.875-2.746094 1.578126c-1.839843.917968-4.074219.371093-5.28125-1.296876-1.203125-1.667968-1.023437-3.960937.429688-5.417968l13.144531-11.59375-8.269531 4.769531c-1.882813 1.238281-4.410157.769531-5.71875-1.066406-1.3125-1.835938-.9375-4.378907.84375-5.757813l5.035156-4.40625-.183594.101563c-1.777343 1.019531-4.027343.609375-5.332031-.972657-1.300781-1.578124-1.273438-3.871093.070312-5.417968l10.625-12.195313-5.363281 3.089844c-1.671875.933594-3.761719.621094-5.082031-.761719-1.324219-1.382812-1.542969-3.488281-.535156-5.113281l7.09375-10.910156-1.484375.835937c-1.421875.824219-3.1875.742188-4.527344-.203125-1.339844-.949219-2.003906-2.589843-1.703125-4.203125l2.878906-15.609375c-.546875-.355469-1.003906-.839843-1.324218-1.410156-1.164063-2-.488282-4.566406 1.511718-5.734375l2.929688-1.679688c1.410156-.832031 3.183594-.75 4.515625.210938 1.328125.953125 1.984375 2.589844 1.675781 4.195312l-2.324219 12.59375 8.789063-5.039062c1.679687-.964844 3.800781-.652344 5.136718.75 1.332032 1.40625 1.53125 3.542969.476563 5.167969l-7.089844 10.914062 11.976563-6.910156c1.773437-1.011719 4.015625-.597656 5.316406.976563 1.296875 1.574218 1.273438 3.855468-.054688 5.402343l-10.574218 12.203125 15.550781-8.980468c1.871094-1.066407 4.246094-.550782 5.5 1.203124 1.25 1.75.976563 4.164063-.636719 5.589844l-5.039062 4.414063 7.496094-4.324219c1.867187-1.082031 4.253906-.570312 5.511718 1.179688 1.261719 1.753906.984375 4.175781-.632812 5.601562l-13.136719 11.585938 17.207031-9.9375c1.90625-1.101563 4.335938-.539063 5.570313 1.28125 1.230469 1.824218.847656 4.289062-.878907 5.648437l-7.4375 5.875 10.113282-5.875c1.90625-1.089844 4.328125-.53125 5.558594 1.285156 1.234374 1.816407.859374 4.273438-.855469 5.640625l-15.371094 12.085938 19.128906-11.035156c1.921875-1.109376 4.378907-.53125 5.601563 1.320312s.792968 4.335938-.984375 5.671875l-13.136719 9.828125 16.351562-9.433594c1.902344-1.109375 4.335938-.554687 5.574219 1.261719 1.242188 1.816406.867188 4.285156-.859375 5.652344l-32.949218 26.179687 39.296874-22.664062c1.90625-1.082032 4.328126-.511719 5.550782 1.304687 1.226562 1.820313.84375 4.277344-.875 5.636719l-40.484375 31.511719 47.535156-27.429688c1.914063-1.09375 4.351563-.511719 5.570313 1.324219s.8125 4.304688-.9375 5.648438l-46.449219 35.179687 53.648437-30.957031c1.953125-1.1875 4.5-.59375 5.726563 1.335937 1.226562 1.929688.679687 4.484375-1.226563 5.75l-29.023437 20.140625 33.128906-19.117187c1.929687-1.085938 4.371094-.480469 5.574219 1.378906 1.203125 1.863281.753906 4.335937-1.027344 5.652344l-52.878906 38.066406 59.59375-34.414063c1.964844-1.140624 4.480468-.507812 5.675781 1.421876 1.195313 1.929687.636719 4.460937-1.257813 5.710937l-13.203124 8.699219 15.871093-9.167969c1.945313-1.097656 4.414063-.480469 5.609375 1.410156 1.195313 1.890625.699219 4.386719-1.128906 5.675781l-53.941406 37.308594 59.867187-34.582031c1.972657-1.179687 4.523438-.558594 5.730469 1.398437 1.203125 1.953126.617188 4.511719-1.324219 5.746094l-28.863281 18.984375 32.363281-18.683593c1.957031-1.136719 4.457031-.519532 5.660157 1.394531 1.203124 1.914062.675781 4.4375-1.191407 5.707031l-66.773437 45.691406 73.367187-42.359375c1.976563-1.160156 4.515625-.519531 5.707031 1.4375 1.191407 1.957031.59375 4.503907-1.339843 5.730469l-13.757813 8.804688 16.332032-9.425782c1.96875-1.117187 4.464843-.476562 5.648437 1.445313 1.1875 1.925781.632813 4.445312-1.25 5.695312l-45.011719 29.328125 49.191406-28.386718c1.960938-1.050782 4.402344-.390626 5.5625 1.503906 1.164063 1.894531.644532 4.367187-1.179687 5.640625l-48.488281 31.464843 43.796875-25.28125c1.972656-1.101562 4.460937-.445312 5.632812 1.484376 1.171875 1.929687.609375 4.441406-1.277343 5.683593l-33.699219 21.554688c1.644531-.1875 3.25.582031 4.128906 1.980469 1.183594 1.945312.601563 4.476562-1.308594 5.707031l-29.914062 19.304687c1.664062.339844 2.957031 1.648438 3.28125 3.3125.324219 1.667969-.386719 3.367188-1.804688 4.300782l-29.839843 19.785156c1.496093.484375 2.59375 1.761718 2.847656 3.3125.253906 1.546875-.375 3.109375-1.636719 4.046875l-43.863281 32.558593c1.5625.324219 2.804687 1.511719 3.207031 3.054688.402344 1.546875-.109375 3.1875-1.320313 4.230469l-39.355468 34.136719c.53125 1.851562-.265625 3.828124-1.929688 4.792968l-11.105468 6.414063c-.636719.371093-1.363282.5625-2.097657.5625zm0 0" fill="#f2a149"/><path d="m491.054688 366.234375c-1.273438 0-2.480469-.582031-3.277344-1.578125-.792969-1-1.09375-2.304688-.808594-3.550781l2.886719-12.679688-9.308594 5.378907c-1.714844.996093-3.894531.660156-5.222656-.8125-1.332031-1.472657-1.449219-3.675782-.285157-5.28125l6.238282-8.660157-10.15625 5.875c-1.757813 1.015625-3.988282.632813-5.300782-.914062-1.316406-1.546875-1.332031-3.8125-.046874-5.382813l12.421874-15.109375-18.464843 10.679688c-1.871094 1.070312-4.25.550781-5.503907-1.203125-1.25-1.757813-.96875-4.175782.652344-5.597656l5.875-5.101563-8.449218 4.875c-1.851563 1.058594-4.203126.5625-5.464844-1.152344-1.265625-1.71875-1.042969-4.109375.519531-5.5625l18.054687-16.617187-23.503906 13.554687c-1.847656 1.015625-4.160156.503907-5.40625-1.199219-1.246094-1.699218-1.035156-4.0625.488282-5.515624l27.085937-24.515626-34.328125 19.816407c-1.925781 1.09375-4.367188.503906-5.582031-1.34375-1.214844-1.851563-.785157-4.324219.980469-5.65625l10.914062-8.167969-13.910156 8.03125c-1.949219 1.269531-4.558594.71875-5.828125-1.230469s-.71875-4.558593 1.230469-5.828125l18.085937-13.429687-21.820313 12.589843c-1.910156 1.132813-4.371093.578126-5.617187-1.261718-1.242187-1.835938-.835937-4.328125.925781-5.679688l37.425782-29.292968-44.152344 25.484374c-1.929688 1.097657-4.382813.5-5.59375-1.363281-1.207032-1.859375-.757813-4.34375 1.03125-5.664062l32.160156-23.5-37.15625 21.46875c-1.929688 1.097656-4.382812.503906-5.59375-1.359375-1.210938-1.863282-.761719-4.347656 1.027344-5.664063l41.128906-29.964843-47.003906 27.152343c-1.957032 1.132813-4.457032.511719-5.65625-1.402343-1.203125-1.914063-.671875-4.4375 1.199218-5.707032l18.464844-12.472656-21.554687 12.449219c-1.964844 1.136719-4.476563.507812-5.671875-1.421875-1.195313-1.933594-.636719-4.464844 1.257812-5.714844l10.828125-7.175781-13.429687 7.722656c-1.949219 1.054687-4.382813.410156-5.558594-1.472656-1.171875-1.882813-.679688-4.351563 1.125-5.636719l27.222656-18.28125-30.839844 17.800781c-1.953124 1.136719-4.453124.519531-5.65625-1.394531-1.203124-1.914062-.675781-4.433594 1.191407-5.703125l47.59375-32.542969-52.832031 30.492188c-1.945313 1.117187-4.425782.507812-5.628907-1.386719s-.707031-4.398437 1.132813-5.6875l67.457031-47.003906-74.652344 43.101562c-1.953125 1.15625-4.472656.550781-5.6875-1.371093-1.210937-1.917969-.679687-4.453126 1.207031-5.722657l70.351563-48.226562-77.21875 44.59375c-1.964844 1.050781-4.40625.382812-5.566406-1.519531-1.15625-1.902344-.625-4.378907 1.210937-5.640626l15.832032-10.207031-18.535157 10.710938c-1.957031 1.066406-4.40625.414062-5.578125-1.484375-1.167968-1.898438-.652344-4.378906 1.179688-5.652344l56.867187-37.367188-61.828125 35.691407c-1.96875 1.144531-4.492187.507812-5.683594-1.433594-1.195312-1.941406-.617187-4.480469 1.296876-5.71875l56.832031-37.015625-30.839844 17.792969c-1.957031 1.097656-4.429687.460937-5.613281-1.441407-1.1875-1.902343-.664063-4.402343 1.183594-5.675781l62.460937-41.90625-15.734375 9.082031c-1.949219 1.097657-4.417969.476563-5.613281-1.414062-1.195313-1.886719-.699219-4.382812 1.128906-5.671875l40.953125-28.242187c-1.601562.222656-3.1875-.492188-4.082031-1.839844-1.21875-1.84375-.796875-4.320313.96875-5.65625l42.527343-32.15625c-.691406-.308594-1.289062-.792969-1.738281-1.402344-1.257812-1.75-.980469-4.171875.640625-5.597656l33.574219-29.585938c-.132813-1.613281.679687-3.160156 2.078125-3.972656l7.429688-4.289062c1.863281-1.046876 4.214843-.523438 5.464843 1.210937 1.246094 1.734375.988281 4.132813-.597656 5.5625l-10.742187 9.46875 7.410156-4.273437c1.917968-1.066407 4.332031-.480469 5.542968 1.347656 1.214844 1.828125.8125 4.28125-.917968 5.628906l-31.574219 23.871094 26.949219-15.554688c1.949218-1.097656 4.414062-.476562 5.609375 1.414063 1.195312 1.886719.699219 4.382812-1.125 5.671875l-37.863281 26.128906 33.386718-19.304688c1.957032-1.097656 4.429688-.460937 5.617188 1.441407 1.183594 1.90625.664062 4.402343-1.183594 5.675781l-62.421875 41.917969 58.023437-33.492188c1.960938-1.050781 4.398438-.390625 5.5625 1.503907 1.164063 1.898437.644532 4.371093-1.179687 5.640624l-56.808594 37.007813 52.425781-30.21875c1.964844-1.117187 4.460938-.476563 5.648438 1.449219 1.183594 1.925781.632812 4.441406-1.25 5.695312l-56.78125 37.265625 52.382812-30.214843c1.972657-1.101563 4.460938-.449219 5.632813 1.484374 1.175781 1.929688.609375 4.441407-1.277344 5.683594l-16.039062 10.253906 11.683593-6.714843c1.941407-1.046875 4.363282-.410157 5.542969 1.457031 1.175781 1.867188.703125 4.328125-1.078125 5.628906l-70.328125 48.167969 65.863281-38.027344c1.945313-1.117187 4.425782-.507812 5.628907 1.386719 1.207031 1.894531.707031 4.398438-1.128907 5.6875l-67.46875 47.070312 62.953126-36.359374c1.953124-1.136719 4.453124-.519532 5.65625 1.394531 1.203124 1.914062.675781 4.433593-1.191407 5.707031l-47.558593 32.523438 43.09375-24.878907c1.957031-1.097656 4.429687-.460937 5.613281 1.441407 1.1875 1.90625.664062 4.40625-1.183594 5.675781l-27.152344 18.230469 22.738281-13.136719c1.964844-1.136719 4.480469-.507813 5.671876 1.425781 1.195312 1.929688.640624 4.460938-1.257813 5.710938l-10.910156 7.242187 6.503906-3.75c1.957031-1.117187 4.441406-.488281 5.636719 1.417969 1.191406 1.910156.667968 4.417968-1.1875 5.691406l-18.398438 12.480469 13.941406-8.050781c1.929688-1.097657 4.382813-.5 5.59375 1.363281 1.210938 1.859375.761719 4.34375-1.027343 5.664062l-41.171875 29.964844 36.613281-21.128906c1.933594-1.125 4.410156-.539063 5.632813 1.335937 1.21875 1.875.753906 4.378906-1.058594 5.691406l-32.1875 23.5 27.613281-15.945312c1.90625-1.078125 4.316406-.511719 5.542969 1.304688 1.222656 1.8125.851562 4.261718-.859375 5.628906l-37.433594 29.257812 32.734375-18.894531c1.925781-1.121094 4.390625-.539063 5.617188 1.320313 1.222656 1.859374.78125 4.355468-1.011719 5.679687l-18.078125 13.429687 13.472656-7.773437c1.925781-1.117187 4.390625-.539063 5.617188 1.320313 1.222656 1.863281.78125 4.355468-1.011719 5.679687l-10.960938 8.167969 6.355469-3.667969c1.847656-1.015625 4.160156-.503906 5.40625 1.199219 1.246094 1.699218 1.039062 4.0625-.488281 5.515625l-27.085938 24.519531 22.167969-12.792969c1.847656-1.058593 4.199219-.5625 5.464844 1.152344 1.261718 1.71875 1.039062 4.109375-.523438 5.5625l-18.042968 16.667969 13.117187-7.554688c1.871094-1.070312 4.25-.550781 5.503906 1.203125 1.253907 1.757813.972657 4.175781-.652343 5.597657l-5.875 5.085937.992187-.5625c1.753906-1.007813 3.976563-.617187 5.285156.925781 1.308594 1.542969 1.332031 3.800782.050781 5.371094l-12.414062 15.105469 7.078125-4.078125c1.710937-.980469 3.875-.640625 5.199219.820312 1.324218 1.464844 1.449218 3.652344.304687 5.257813l-6.246093 8.675781.75-.425781c1.449218-.820313 3.242187-.71875 4.589843.257812 1.339844.992188 1.964844 2.683594 1.59375 4.308594l-3.246093 14.21875c1.671874.398437 2.933593 1.777344 3.179687 3.480469s-.570313 3.382812-2.0625 4.242187l-4.894531 2.820313c-.628906.355468-1.339844.546875-2.066406.550781zm0 0" fill="#f2a149"/><path d="m248.175781 235.257812c-1.78125-.003906-3.363281-1.125-3.957031-2.800781s-.0625-3.546875 1.320312-4.664062l25.710938-20.78125-31.425781 18.136719c-1.9375 1.066406-4.367188.445312-5.558594-1.417969s-.730469-4.328125 1.050781-5.640625l40.363282-28.316406-45.507813 26.261718c-1.960937 1.066406-4.410156.414063-5.578125-1.484375-1.171875-1.898437-.652344-4.378906 1.179688-5.648437l40.160156-26.367188-44.214844 25.527344c-1.96875 1.050781-4.417969.378906-5.570312-1.535156-1.15625-1.910156-.609376-4.390625 1.238281-5.640625l21.671875-13.683594-24.472656 14.125c-1.289063.773437-2.886719.796875-4.199219.070313-1.308594-.730469-2.132813-2.101563-2.15625-3.601563-.023438-1.5.753906-2.898437 2.039062-3.667969l12.246094-7.597656-14.644531 8.453125c-1.984375 1.199219-4.566406.566406-5.769532-1.417969-1.199218-1.984375-.5625-4.566406 1.417969-5.765625l109.484375-69.207031-115.492187 66.671875c-1.988281 1.132813-4.519531.460937-5.6875-1.507813s-.542969-4.511718 1.40625-5.710937l10.753906-6.589844-13.09375 7.554688c-1.960937 1.039062-4.390625.371093-5.546875-1.523438s-.640625-4.359375 1.179688-5.628906l117.082031-75.414063-124.222657 71.703126c-1.972656 1.148437-4.496093.511718-5.6875-1.429688-1.191406-1.941406-.617187-4.480469 1.296876-5.71875l113.738281-74.273438-121.335938 70.066407c-1.976562 1.109375-4.472656.445312-5.644531-1.492188-1.167969-1.941406-.585938-4.460937 1.316406-5.691406l39.734375-24.929687-43.058593 24.871093c-1.964844 1.140625-4.480469.507813-5.675782-1.421875-1.195312-1.933594-.636718-4.464844 1.261719-5.710937l97.363281-64.574219-104.835937 60.5c-1.976563 1.109375-4.476563.449219-5.644531-1.492188-1.171876-1.941406-.589844-4.460937 1.3125-5.691406l18.734374-11.824218-21.417968 12.386718c-1.964844 1.140625-4.480469.507813-5.675782-1.421875-1.195312-1.929687-.636718-4.460937 1.261719-5.710937l71.34375-47.375-77.355469 44.652344c-1.972656 1.105468-4.460937.449218-5.632812-1.480469-1.171875-1.929688-.609375-4.445313 1.277344-5.6875l22.058594-14.132813-24.988282 14.417969c-1.960937 1.136719-4.464844.515625-5.664062-1.40625-1.199219-1.921875-.65625-4.449219 1.222656-5.710937l54.257812-36.5-59.59375 34.410156c-1.96875 1.101562-4.449218.449218-5.625-1.46875-1.179687-1.921875-.628906-4.429688 1.242188-5.679688l13.0625-8.488281-15.664062 9.039063c-1.960938 1.097656-4.4375.457031-5.617188-1.457032-1.183594-1.910156-.648438-4.414062 1.210938-5.675781l18.085937-11.953125-21.03125 12.144531c-1.957031 1.136719-4.457031.519531-5.660156-1.394531s-.675781-4.433594 1.195312-5.703125l29.097657-19.925781-33.042969 19.066406c-1.917969 1.117188-4.375.546875-5.605469-1.300781-1.230469-1.847657-.808594-4.332031.960938-5.671875l44.570312-33.875-51.617188 29.804687c-1.925781 1.09375-4.367187.503907-5.582031-1.34375-1.214843-1.851562-.785156-4.324219.980469-5.65625l26.363281-19.589843-30.980469 17.886718c-1.914062 1.105469-4.359374.535156-5.589843-1.304687-1.226563-1.839844-.816407-4.320313.941406-5.664063l19.304687-14.722656-23.335937 13.429688c-1.871094 1.058593-4.242187.53125-5.484375-1.222657-1.246094-1.753906-.964844-4.164062.652344-5.582031l19.457031-16.703125-24.5625 14.183594c-1.765625 1.023437-4.015625.625-5.324219-.945313-1.308594-1.570312-1.296875-3.851562.03125-5.410156l15.449219-18.121094-22.359375 12.925782c-1.695312.980468-3.84375.65625-5.175781-.777344-1.332031-1.4375-1.492188-3.605469-.386719-5.222656l6.738281-9.878907-11.1875 6.445313c-1.054687.609375-2.320312.730468-3.46875.335937-1.148437-.398437-2.070312-1.273437-2.523437-2.398437l-4.5-11.191406-2.207032 1.25c-1.300781.828124-2.953124.875-4.296874.125-1.347657-.75-2.171876-2.179688-2.152344-3.722657.019531-1.539062.886718-2.945312 2.25-3.660156l6.398437-3.652344c1.046875-.617187 2.316407-.738281 3.464844-.335937 1.148437.398437 2.066406 1.273437 2.519531 2.402344l4.496094 11.1875 22.964844-13.253907c1.695312-.984375 3.847656-.660156 5.179687.773438 1.335938 1.4375 1.496094 3.609375.386719 5.226562l-6.75 9.863281 27.523438-15.863281c1.769531-1.023437 4.015624-.621093 5.324218.945313 1.308594 1.570312 1.296875 3.855468-.027344 5.410156l-15.460937 18.105469 42.410156-24.460938c1.875-1.058593 4.246094-.53125 5.488281 1.222657 1.246094 1.753906.964844 4.167968-.652343 5.585937l-19.457031 16.695313 40.742187-23.503907c1.917969-1.105469 4.363281-.535156 5.589844 1.304688 1.230469 1.839843.816406 4.316406-.9375 5.664062l-19.257813 14.679688 37.539063-21.648438c1.921875-1.09375 4.363281-.503906 5.578125 1.34375 1.21875 1.851563.789062 4.324219-.980469 5.65625l-26.363281 19.566407 46.054687-26.566407c1.917969-1.117187 4.375-.542969 5.605469 1.304688 1.226562 1.847656.804688 4.332031-.964844 5.671875l-44.585937 33.875 70.808593-40.851563c1.949219-1.082031 4.402344-.453125 5.589844 1.433594s.695313 4.371094-1.125 5.660156l-29.109375 19.875 46.777344-26.96875c1.957031-1.078125 4.417969-.4375 5.597656 1.464844 1.175781 1.898437.65625 4.390625-1.183593 5.660156l-18.136719 11.960938 33.113281-19.085938c1.957031-1.050781 4.398438-.390625 5.558594 1.503907 1.164062 1.894531.648437 4.371093-1.179688 5.640624l-13.09375 8.519532 27.128906-15.664063c1.953126-1.082031 4.410157-.445312 5.59375 1.449219 1.179688 1.894531.675782 4.378906-1.15625 5.660156l-54.152343 36.4375 75.449219-43.546875c1.964843-1.050781 4.40625-.382812 5.566406 1.519531 1.15625 1.902344.625 4.378907-1.210938 5.640626l-22.183594 14.269531 37.058594-21.429688c1.957032-1.078125 4.417969-.4375 5.59375 1.464844 1.175782 1.898437.660156 4.390625-1.179687 5.660156l-71.34375 47.367188 94.417969-54.492188c1.96875-1.082031 4.445312-.417969 5.613281 1.507813 1.164062 1.925781.601562 4.425781-1.277344 5.667968l-18.742187 11.769532 32.886718-18.945313c1.957032-1.078125 4.417969-.4375 5.597656 1.464844 1.175782 1.898437.65625 4.390625-1.183593 5.660156l-97.320313 64.53125 124.171875-71.65625c1.972657-1.066406 4.4375-.394531 5.59375 1.527344 1.160157 1.921875.597657 4.414063-1.269531 5.65625l-39.878906 24.996094 55.792968-32.179688c1.960938-1.078125 4.425782-.429687 5.597657 1.480469 1.171875 1.90625.640625 4.402344-1.210938 5.664062l-113.722656 74.222657 141.011719-81.417969c1.960937-1.066406 4.417968-.40625 5.582031 1.5s.632813 4.390625-1.210937 5.652344l-117.070313 75.449218 143.03125-82.550781c1.980469-1.058593 4.441406-.371093 5.589844 1.558594 1.144531 1.929687.570312 4.421875-1.308594 5.652344l-10.710937 6.5625 16.527343-9.574219c1.972657-1.085938 4.449219-.421875 5.613281 1.503906 1.164063 1.925782.605469 4.429688-1.273437 5.671875l-109.484375 69.203125 62.332031-35.984375c1.976563-1.089843 4.460938-.417969 5.621094 1.519531 1.164063 1.933594.582031 4.441407-1.308594 5.675782l-29.871093 18.53125c1.835937.082031 3.402343 1.34375 3.875 3.121094.46875 1.773437-.273438 3.648437-1.828126 4.625l-31.996093 20.203124c1.496093.019532 2.890625.765626 3.734375 2 1.191406 1.929688.628906 4.460938-1.265625 5.707032l-40.195313 26.386718.769532-.453124c1.945312-1.132813 4.441406-.53125 5.65625 1.367187 1.210937 1.898437.710937 4.414063-1.140626 5.703125l-43.039062 30.214844c1.578125-.21875 3.148438.46875 4.0625 1.78125 1.234375 1.808594.871094 4.265625-.839844 5.640625l-41.902344 33.816406c.234376.234375.429688.5.589844.789063 1.152344 2.003906.464844 4.566406-1.535156 5.722656l-25.382812 14.714844c-.640626.363281-1.363282.550781-2.097657.546874zm0 0" fill="#fab153"/><g fill="#262626"><path d="m3.386719 99.769531v231.15625c0 11.289063-2.859375 24.851563 2.957031 33.574219-1.476562 2.15625.492188 3.355469 3.355469 3.617188 1.050781.917968 2.210937 1.707031 3.449219 2.347656 8.648437 4.199218 25.960937.671875 35.070312.671875h437.449219c.679687-.011719 1.351562-.125 1.996093-.335938.953126-.023437 1.894532-.214843 2.777344-.570312 2.589844-1.046875 4.9375-2.613281 6.890625-4.609375 1.679688-.90625 2.738281-1.910156 2.21875-2.625 4.824219-7.488282 2.878907-17.921875 2.878907-28.699219v-228.441406c0-26.492188 5.21875-59.234375 0-85.347657-.65625-3.535156-2.117188-6.871093-4.273438-9.75l.628906-.597656c3.988282-3.761718-1.679687-5.269531-6.175781-4.449218-15.445313-9.769532-44.535156-3.136719-63.691406-3.136719h-353.261719c-16.628906 0-37.90625-3.628907-54.230469 0-2.308593.53125-4.515625 1.421875-6.546875 2.644531-4.632812-.488281-11.574218 3.136719-8.46875 6.074219l.988282.933593c-13.847657 20.636719-4.011719 66.75-4.011719 87.542969zm49.320312 263.722657c-8.660156 0-22.660156 2.761718-31.398437-1.183594l178.242187-168.332032c13.179688 14.167969 35.007813 43.644532 52.679688 42.976563 18.160156-.730469 38.792969-28.277344 52.441406-43.085937l179.617187 169.625zm437.5-303.367188v242.488281c0 7.34375 4.03125 36.511719.738281 52.132813l-178.535156-168.574219 43.140625-40.742187 134.398438-126.917969c3.726562 12.121093.257812 32.238281.257812 41.613281zm-452.507812-49.878906h400.652343c9.652344 0 37.613282-5.253906 46.039063 0 .269531.167968.480469.402344.730469.59375l-123.097656 116.257812-59.59375 56.238282c-10.40625 9.828124-37.015626 45.105468-49.203126 44.558593-13.226562-.59375-38.390624-35.480469-49.203124-45.683593l-56.789063-53.578126-125.339844-118.371093c5.257813-.488281 10.546875-.492188 15.804688-.015625zm111.96875 136.332031 43.570312 41.128906-178.324219 168.429688c-4.675781-11.136719.695313-41.269531.695313-51.652344v-220.152344c0-16.457031-6.210937-48.445312-.386719-64.710937zm0 0"/><path d="m391.675781 42.566406h16.789063c3.035156.121094 6.035156-.683594 8.601562-2.308594 1.679688-1.242187 1.832032-2.859374-.761718-2.859374h-16.789063c-3.035156-.121094-6.035156.683593-8.601563 2.308593-1.6875 1.242188-1.832031 2.859375.761719 2.859375zm0 0"/><path d="m143.222656 44.3125h218.230469c6.855469 0 9.410156-8.660156 1.140625-8.660156h-218.230469c-6.855469 0-9.40625 8.660156-1.140625 8.660156zm0 0"/><path d="m91.03125 43.339844h16.789062c3.039063.195312 6-1.011719 8.039063-3.273438 1.4375-2.375-1.222656-3.355468-3.238281-3.355468h-16.789063c-3.035156-.195313-5.996093 1.003906-8.039062 3.261718-1.4375 2.335938 1.226562 3.367188 3.238281 3.367188zm0 0"/></g></svg>