<svg id="Icons" height="300" viewBox="0 0 60 60" width="300" xmlns="http://www.w3.org/2000/svg" version="1.1" xmlns:xlink="http://www.w3.org/1999/xlink" xmlns:svgjs="http://svgjs.dev/svgjs"><g width="100%" height="100%" transform="matrix(1,0,0,1,0,0)"><path d="m15.677 10.47a.5.5 0 0 1 -.3-.9l.738-.541-2.383 1.371a.5.5 0 0 1 -.547-.834l.983-.728-2.708 1.562a.5.5 0 0 1 -.557-.827l1.907-1.481-4 2.31a.5.5 0 0 1 -.555-.829l1.675-1.286-3.665 2.113a.5.5 0 0 1 -.593-.8l3.184-3-5.989 3.457a.5.5 0 0 1 -.55-.833l.727-.543-1.092.63a.5.5 0 0 1 -.571-.816l1.39-1.165-1.4.809a.5.5 0 0 1 -.66-.719l1.263-1.812-.109.062a.5.5 0 0 1 -.5-.865l2.053-1.185a.5.5 0 0 1 .66.719l-1.264 1.811 4.422-2.55a.5.5 0 0 1 .572.815l-1.39 1.163 3.431-1.978a.5.5 0 0 1 .549.833l-.728.544 2.387-1.377a.5.5 0 0 1 .592.8l-3.185 3 6.59-3.8a.5.5 0 0 1 .554.829l-1.675 1.282 3.667-2.111a.5.5 0 0 1 .556.827l-1.913 1.482 4.006-2.309a.5.5 0 0 1 .548.834l-.984.728 2.708-1.562a.5.5 0 0 1 .546.836l-.738.541 2.387-1.377a.5.5 0 0 1 .587.8l-3.103 2.824 6.285-3.624a.5.5 0 0 1 .543.838l-.24.172 1.752-1.01a.5.5 0 0 1 .548.834l-1.007.747 2.739-1.581a.5.5 0 0 1 .565.821l-2.409 1.951 4.806-2.772a.5.5 0 0 1 .562.824l-2.207 1.754 4.469-2.578a.5.5 0 0 1 .59.8l-3.145 2.912 6.433-3.712a.5.5 0 0 1 .592.8l-3.17 2.969 6.527-3.769a.5.5 0 0 1 .546.835l-.842.621 2.522-1.456a.5.5 0 0 1 .555.829l-1.726 1.325 3.736-2.154a.5.5 0 0 1 .575.812l-2.842 2.436 5.63-3.25a.5.5 0 0 1 .547.835l-.928.685 1.985-1.145a.5.5 0 0 1 .575.813l-2.351 2 2.917-1.686a.5.5 0 0 1 .647.128.5.5 0 0 1 -.044.659l-1.741 1.735 1.514-.874a.5.5 0 0 1 .612.776l-.738.78a.488.488 0 0 1 .234.209.5.5 0 0 1 -.182.682l-2.051 1.185a.5.5 0 0 1 -.612-.776l.252-.267-1.846 1.063a.5.5 0 0 1 -.6-.787l1.742-1.733-4.371 2.52a.5.5 0 0 1 -.574-.813l2.351-2-4.872 2.813a.5.5 0 0 1 -.547-.835l.927-.685-2.633 1.52a.5.5 0 0 1 -.575-.812l2.842-2.439-5.632 3.251a.5.5 0 0 1 -.555-.829l1.72-1.323-3.729 2.152a.5.5 0 0 1 -.547-.835l.843-.621-2.522 1.456a.5.5 0 0 1 -.592-.8l3.17-2.969-6.523 3.769a.5.5 0 0 1 -.59-.8l3.146-2.915-6.439 3.715a.5.5 0 0 1 -.561-.824l2.207-1.756-4.47 2.58a.5.5 0 0 1 -.564-.821l2.409-1.953-4.807 2.774a.5.5 0 0 1 -.548-.834l1-.745-2.731 1.579a.5.5 0 0 1 -.543-.838l.243-.174-1.752 1.012a.5.5 0 0 1 -.587-.8l3.1-2.825-6.286 3.625a.493.493 0 0 1 -.25.07z" fill="#ff6b00" fill-opacity="1" data-original-color="#5a4ed1ff" stroke="none" stroke-opacity="1"/><path d="m31.173 13.461a.5.5 0 0 1 -.342-.864l2.608-2.447-4.681 2.7a.5.5 0 0 1 -.564-.823l3.272-2.627-4.232 2.443a.5.5 0 0 1 -.548-.833l2.56-1.91-2.933 1.69a.5.5 0 0 1 -.56-.824l4.021-3.194-4.224 2.439a.5.5 0 0 1 -.541-.839l.991-.713-.69.4a.5.5 0 0 1 -.553-.83l1.933-1.478-1.336.772a.5.5 0 0 1 -.618-.772l2.283-2.478-.1.056a.5.5 0 1 1 -.5-.865l2.935-1.7a.5.5 0 0 1 .619.771l-2.28 2.482 5.216-3.011a.5.5 0 0 1 .554.83l-1.938 1.48 2.729-1.575a.5.5 0 0 1 .541.839l-.992.713 1.331-.769a.5.5 0 0 1 .56.825l-4.019 3.191 4.446-2.566a.5.5 0 0 1 .549.833l-2.561 1.91 2.471-1.426a.5.5 0 0 1 .564.822l-3.271 2.631 2.819-1.627a.5.5 0 0 1 .592.8l-2.608 2.447 1.15-.664a.5.5 0 1 1 .5.866l-4.9 2.831a.5.5 0 0 1 -.253.064z" fill="#36d3bf" fill-opacity="1" data-original-color="#36d3bfff" stroke="none" stroke-opacity="1"/><path d="m8.066 25.47a.5.5 0 0 1 -.3-.9l.9-.667-2.6 1.5a.5.5 0 0 1 -.551-.831l1.419-1.072-3.2 1.85a.5.5 0 0 1 -.588-.8l3.057-2.8-4.312 2.488a.5.5 0 0 1 -.581-.806l1.679-1.488-1.668.963a.5.5 0 0 1 -.648-.735l1.111-1.464a.5.5 0 0 1 -.419-.9l2.053-1.188a.5.5 0 0 1 .648.734l-1.098 1.446 3.819-2.2a.5.5 0 0 1 .581.806l-1.681 1.487 3.976-2.3a.5.5 0 0 1 .588.8l-3.057 2.807 6.234-3.6a.5.5 0 0 1 .551.831l-1.417 1.069 3.3-1.9a.5.5 0 0 1 .547.835l-.909.665 2.606-1.5a.5.5 0 0 1 .574.813l-2.78 2.354 5.494-3.167a.5.5 0 0 1 .661.147.5.5 0 0 1 -.093.671l-2.587 2.138 5.125-2.956a.5.5 0 0 1 .573.813l-2.783 2.364 5.503-3.177a.5.5 0 0 1 .547.835l-.9.664 2.6-1.5a.5.5 0 0 1 .575.812l-2.842 2.44 5.627-3.251a.5.5 0 0 1 .568.818l-2.544 2.093 5.047-2.911a.5.5 0 0 1 .563.822l-2.334 1.878 4.682-2.7a.5.5 0 0 1 .587.8l-3.1 2.815 6.27-3.615a.5.5 0 0 1 .575.812l-2.834 2.425 5.612-3.237a.5.5 0 0 1 .55.833l-1.207.9 3.008-1.733a.5.5 0 0 1 .576.811l-2.855 2.453 5.657-3.264a.5.5 0 0 1 .569.817l-2.616 2.171 5.177-2.988a.5.5 0 0 1 .558.826l-2.04 1.6 3.439-1.984a.5.5 0 0 1 .577.811l-2.367 2.047 2.88-1.663a.5.5 0 0 1 .57.818l-.643.533.381-.22a.5.5 0 0 1 .609.781l-.729.755a.505.505 0 0 1 .46.249.5.5 0 0 1 -.183.683l-2.72 1.57a.5.5 0 0 1 -.61-.78l.593-.613-2.415 1.387a.5.5 0 0 1 -.569-.817l.644-.534-2.343 1.351a.5.5 0 0 1 -.577-.81l2.366-2.044-4.944 2.854a.5.5 0 0 1 -.559-.826l2.042-1.6-4.209 2.426a.5.5 0 0 1 -.569-.817l2.617-2.172-5.178 2.989a.5.5 0 0 1 -.577-.811l2.855-2.453-5.656 3.264a.5.5 0 0 1 -.55-.833l1.205-.9-3.009 1.733a.5.5 0 0 1 -.575-.812l2.835-2.428-5.61 3.24a.5.5 0 0 1 -.587-.8l3.095-2.815-6.267 3.615a.5.5 0 0 1 -.564-.822l2.335-1.878-4.679 2.7a.5.5 0 0 1 -.568-.818l2.544-2.093-5.044 2.911a.5.5 0 0 1 -.575-.812l2.844-2.441-5.635 3.253a.5.5 0 0 1 -.547-.835l.9-.662-2.6 1.5a.5.5 0 0 1 -.573-.813l2.784-2.365-5.505 3.175a.5.5 0 0 1 -.568-.818l2.587-2.138-5.127 2.956a.5.5 0 0 1 -.573-.813l2.777-2.356-5.488 3.169a.493.493 0 0 1 -.25.07z" fill="#ff6b00" fill-opacity="1" data-original-color="#5a4ed1ff" stroke="none" stroke-opacity="1"/><path d="m17.477 28.446a.5.5 0 0 1 -.322-.883l.94-.79-2.438 1.408a.5.5 0 0 1 -.557-.827l1.892-1.477-2.85 1.645a.5.5 0 0 1 -.559-.826l3.239-2.54-3.976 2.3a.5.5 0 0 1 -.563-.822l4.17-3.344-4.611 2.662a.5.5 0 0 1 -.555-.829l3.19-2.447-3.1 1.79a.5.5 0 0 1 -.548-.834l1.614-1.2-1.143.66a.5.5 0 0 1 -.55-.833l.7-.526a.5.5 0 0 1 -.5-.838l1.609-1.51a.5.5 0 0 1 -.133-.919l2.935-1.7a.5.5 0 0 1 .593.8l-1.172 1.1 3.31-1.909a.5.5 0 0 1 .55.833l-.628.471 1.42-.82a.5.5 0 0 1 .548.834l-1.615 1.2 2.218-1.28a.5.5 0 0 1 .555.829l-3.19 2.448 3.687-2.128a.5.5 0 0 1 .562.822l-4.17 3.344 4.413-2.548a.5.5 0 0 1 .559.826l-3.241 2.541 2.956-1.706a.5.5 0 0 1 .558.827l-1.893 1.477 1.145-.661a.5.5 0 0 1 .572.815l-1.2 1a.509.509 0 0 1 .451.25.5.5 0 0 1 -.183.682l-4.441 2.565a.494.494 0 0 1 -.248.068z" fill="#36d3bf" fill-opacity="1" data-original-color="#36d3bfff" stroke="none" stroke-opacity="1"/><path d="m18.1 41.47a.5.5 0 0 1 -.293-.906l.357-.258-1.9 1.1a.5.5 0 0 1 -.571-.816l2.652-2.21-5.245 3.02a.5.5 0 0 1 -.583-.8l3.039-2.719-6.11 3.519a.5.5 0 0 1 -.548-.834l1.024-.759-2.762 1.593a.5.5 0 0 1 -.583-.8l3.031-2.71-5.965 3.444a.5.5 0 0 1 -.551-.832l1.284-.969-2.032 1.173a.5.5 0 0 1 -.557-.827l.974-.756-1.15.663a.5.5 0 0 1 -.569-.817l.657-.544-.4.232a.5.5 0 0 1 -.636-.751l.967-1.169a.521.521 0 0 1 -.443-.25.5.5 0 0 1 .182-.682l2.048-1.185a.5.5 0 0 1 .636.751l-.853 1.029 3.129-1.8a.5.5 0 0 1 .569.817l-.656.544 2.358-1.361a.5.5 0 0 1 .556.827l-.973.757 2.743-1.584a.5.5 0 0 1 .667.156.5.5 0 0 1 -.116.676l-1.283.967 3.118-1.8a.5.5 0 0 1 .583.8l-3.033 2.708 6.087-3.507a.5.5 0 0 1 .548.834l-1.023.759 2.761-1.593a.5.5 0 0 1 .583.8l-3.038 2.722 6.105-3.522a.5.5 0 0 1 .57.816l-2.655 2.209 5.248-3.025a.5.5 0 0 1 .543.838l-.355.256 1.9-1.094a.5.5 0 0 1 .571.815l-2.688 2.252 5.311-3.067a.5.5 0 0 1 .576.811l-2.852 2.45 5.651-3.261a.5.5 0 0 1 .548.834l-1 .744 2.731-1.578a.5.5 0 0 1 .553.83l-1.553 1.18 3.488-2.01a.5.5 0 0 1 .565.82l-2.444 1.989 4.867-2.809a.5.5 0 0 1 .578.81l-2.9 2.52 5.762-3.33a.5.5 0 0 1 .581.806l-3 2.656 6-3.462a.5.5 0 0 1 .568.819l-2.515 2.062 4.99-2.881a.5.5 0 0 1 .571.816l-2.644 2.2 5.23-3.016a.5.5 0 0 1 .581.806l-3 2.652 4.546-2.624a.5.5 0 0 1 .549.833l-.035.026.079-.045a.5.5 0 0 1 .615.775l-1.709 1.815 1.366-.788a.5.5 0 0 1 .5.865l-4.309 2.485a.5.5 0 0 1 -.614-.775l1.709-1.814-4.486 2.589a.5.5 0 0 1 -.549-.833l.039-.029-1.495.862a.5.5 0 0 1 -.581-.806l2.995-2.651-5.989 3.457a.5.5 0 0 1 -.571-.816l2.645-2.2-5.23 3.016a.5.5 0 0 1 -.567-.819l2.515-2.062-4.991 2.881a.5.5 0 0 1 -.581-.806l3-2.656-6 3.462a.5.5 0 0 1 -.578-.81l2.905-2.52-5.768 3.33a.5.5 0 0 1 -.566-.82l2.447-1.99-4.87 2.81a.5.5 0 0 1 -.553-.83l1.553-1.182-3.483 2.012a.5.5 0 0 1 -.548-.834l1-.744-2.736 1.578a.5.5 0 0 1 -.576-.811l2.851-2.449-5.649 3.26a.5.5 0 0 1 -.571-.815l2.688-2.252-5.314 3.067a.493.493 0 0 1 -.245.07z" fill="#ff6b00" fill-opacity="1" data-original-color="#5a4ed1ff" stroke="none" stroke-opacity="1"/><path d="m43.365 44.451a.5.5 0 0 1 -.313-.888l.374-.3-1.65.952a.5.5 0 0 1 -.559-.825l2.038-1.611-3.07 1.773a.5.5 0 0 1 -.567-.82l3.873-3.157-4.764 2.75a.5.5 0 0 1 -.557-.828l3.607-2.8-3.927 2.269a.5.5 0 0 1 -.548-.834l2.445-1.818-2.339 1.35a.5.5 0 0 1 -.565-.82l3.366-2.737-2.892 1.669a.5.5 0 0 1 -.553-.83l.792-.6a.5.5 0 0 1 -.452-.861l1.317-1.154a.509.509 0 0 1 -.181-.182.5.5 0 0 1 .183-.683l2.935-1.7a.5.5 0 0 1 .579.808l-.344.3 2.082-1.2a.5.5 0 0 1 .554.83l-.678.517 1.6-.921a.5.5 0 0 1 .566.82l-3.372 2.74 4.386-2.532a.5.5 0 0 1 .548.834l-2.442 1.815 2.809-1.621a.5.5 0 0 1 .556.828l-3.606 2.8 3.784-2.184a.5.5 0 0 1 .566.82l-3.873 3.156 3.642-2.1a.5.5 0 0 1 .559.825l-2.037 1.599 1.256-.724a.5.5 0 0 1 .564.821l-.983.794a.5.5 0 0 1 .157.924l-4.616 2.665a.491.491 0 0 1 -.25.071z" fill="#36d3bf" fill-opacity="1" data-original-color="#36d3bfff" stroke="none" stroke-opacity="1"/><path d="m20.11 56.47a.5.5 0 0 1 -.294-.905l.406-.294-1.96 1.129a.5.5 0 0 1 -.584-.8l3.044-2.728-6.122 3.528a.5.5 0 0 1 -.586-.8l3.086-2.79-6.226 3.59a.5.5 0 0 1 -.553-.83l1.579-1.205-3.526 2.035a.5.5 0 0 1 -.582-.8l3.019-2.688-6.052 3.488a.5.5 0 0 1 -.566-.82l2.438-1.98-4.007 2.313a.5.5 0 0 1 -.561-.825l1.514-1.2-1.868 1.082a.5.5 0 0 1 -.579-.809l1.316-1.154-1.15.664a.5.5 0 0 1 -.636-.75l.974-1.184a.548.548 0 0 1 -.451-.25.5.5 0 0 1 .182-.682l2.052-1.185a.5.5 0 0 1 .636.75l-.868 1.057 3.168-1.827a.5.5 0 0 1 .579.808l-1.319 1.154 3.4-1.964a.5.5 0 0 1 .664.151.5.5 0 0 1 -.1.674l-1.513 1.2 3.5-2.02a.5.5 0 0 1 .566.82l-2.43 1.977 4.852-2.8a.5.5 0 0 1 .582.8l-3.024 2.691 6.052-3.491a.5.5 0 0 1 .553.83l-1.582 1.207 3.529-2.037a.5.5 0 0 1 .586.8l-3.081 2.79 6.225-3.59a.5.5 0 0 1 .584.8l-3.045 2.73 6.12-3.532a.5.5 0 0 1 .544.837l-.4.292 1.953-1.127a.5.5 0 0 1 .588.8l-3.118 2.859 6.34-3.659a.5.5 0 0 1 .585.8l-3.063 2.758 6.169-3.56a.5.5 0 0 1 .564.822l-2.329 1.873 4.67-2.695a.5.5 0 0 1 .588.8l-3.113 2.847 6.321-3.645a.5.5 0 0 1 .57.816l-2.656 2.215 5.252-3.031a.5.5 0 0 1 .577.81l-2.893 2.504 5.744-3.314a.5.5 0 0 1 .545.836l-.61.446 2.221-1.282a.5.5 0 0 1 .572.815l-2.717 2.285 5.292-3.054a.5.5 0 0 1 .571.815l-2.639 2.213 3.721-2.151a.5.5 0 0 1 .57.818l-1.518 1.259 1.624-.937a.5.5 0 0 1 .571.815l-.322.271a.5.5 0 0 1 .524.176.5.5 0 0 1 -.036.655l-.707.731a.5.5 0 0 1 .028.881l-2.051 1.188a.5.5 0 0 1 -.609-.78l.144-.15-1.65.952a.5.5 0 0 1 -.572-.815l.247-.207-1.772 1.02a.5.5 0 0 1 -.569-.817l1.518-1.263-3.6 2.08a.5.5 0 0 1 -.571-.815l2.638-2.213-5.248 3.028a.5.5 0 0 1 -.572-.815l2.719-2.285-5.374 3.1a.5.5 0 0 1 -.544-.836l.61-.446-2.222 1.282a.5.5 0 0 1 -.577-.81l2.894-2.506-5.745 3.316a.5.5 0 0 1 -.571-.816l2.656-2.215-5.251 3.031a.5.5 0 0 1 -.588-.8l3.112-2.847-6.32 3.647a.5.5 0 0 1 -.564-.822l2.33-1.874-4.672 2.696a.5.5 0 0 1 -.585-.8l3.063-2.756-6.169 3.556a.5.5 0 0 1 -.588-.8l3.119-2.856-6.34 3.656a.493.493 0 0 1 -.25.07z" fill="#ff6b00" fill-opacity="1" data-original-color="#5a4ed1ff" stroke="none" stroke-opacity="1"/><path d="m31.765 59.416a.5.5 0 0 1 -.336-.87l1.606-1.46-3.553 2.051a.5.5 0 0 1 -.568-.819l3.077-2.54-4.267 2.464a.5.5 0 0 1 -.552-.831l2.691-2.036-3.217 1.857a.5.5 0 0 1 -.559-.826l3.859-3.031-4.181 2.414a.5.5 0 0 1 -.572-.816l4.36-3.65-4.253 2.456a.5.5 0 0 1 -.548-.835l.952-.7-.332.192a.5.5 0 0 1 -.641-.122.5.5 0 0 1 .026-.653l2.191-2.343-.023.013a.5.5 0 1 1 -.5-.865l2.935-1.7a.5.5 0 0 1 .616.774l-2.193 2.344 5.042-2.91a.5.5 0 0 1 .548.835l-.955.706 1.616-.933a.5.5 0 0 1 .572.816l-4.36 3.65 5.281-3.048a.5.5 0 0 1 .559.826l-3.858 3.029 4.11-2.372a.5.5 0 0 1 .552.831l-2.69 2.037 2.487-1.435a.5.5 0 0 1 .568.818l-3.077 2.54 2.393-1.381a.5.5 0 0 1 .586.8l-1.617 1.47a.5.5 0 0 1 .452.89l-3.973 2.294a.489.489 0 0 1 -.254.069z" fill="#36d3bf" fill-opacity="1" data-original-color="#36d3bfff" stroke="none" stroke-opacity="1"/><g fill="#262626"><path d="m3.862 10.459c7.126.094 14.259-.049 21.387 0 2.408 3.9 8.556 3.558 11.138.093 5.749-1.125 20.7 2.843 23.229-2.767 1.214-7.938-17.87-3.085-22.961-4.337-2.395-3.835-8.665-3.484-11.155.093-6.071 1.067-21.795-2.6-24.991 2.365-.935 2.394.991 4.494 3.353 4.553zm50.591-5.907c1.216 0 2.449-.151 3.288.979 3.828 7.108-16.841 2.823-20.663 3.917a5.8 5.8 0 0 0 .168-4.9zm-22.427-3.052c5.121 1.269 5.723 9.157.724 10.985-8.35 2.332-9.525-12.834-.724-10.985zm-28.271 2.959q10.589-.006 21.192 0a6.155 6.155 0 0 0 -.183 5.082c-7.263-.492-15.122 1-22.107-.61-1.53-1.314-1.081-4.186 1.098-4.472z" fill="#262626" fill-opacity="1" data-original-color="#262626ff" stroke="none" stroke-opacity="1"/><path d="m2.031 25.012c2.915.9 6.147.184 9.175.4 2.435 4.149 9.018 3.921 11.451-.066 7.9-1.047 32.19 2.374 36.6-1.853 1.583-2.619-1.047-5.339-3.788-4.843h-32.68c-2.3-4.171-8.961-4.06-11.421-.066-2.626.056-5.275-.118-7.889.074-3.17.342-4.492 4.813-1.448 6.354zm50.56-5.664c1.331 0 3.35-.34 4.5.494 1.756 1.27 1.534 4.582-.932 4.81q-16.551.009-33.119 0a6.046 6.046 0 0 0 .109-5.3zm-34.713-2.761c5.141.966 5.966 8.817.987 10.641-8.296 2.693-9.749-12.059-.987-10.641zm-14.469 2.859c2.486-.1 5 .006 7.5-.032a6.377 6.377 0 0 0 -.116 5.177c-2.806-.453-7.2 1.358-8.845-1.648-.511-1.243-.037-3.189 1.461-3.497z" fill="#262626" fill-opacity="1" data-original-color="#262626ff" stroke="none" stroke-opacity="1"/><path d="m3.1 41.429c11.371.2 22.779 0 34.162.069 2.423 4.016 8.8 3.929 11.282.054 3.677-.465 10.387 1.8 11.19-3.424-.2-5.564-7.419-3.2-11.059-3.68-2.389-4.006-8.842-3.855-11.281.054h-31.448c-4.846-1.138-8.413 5.152-2.846 6.927zm52.8-5.877c2.713 0 3.269 4.4.515 4.875-2.407.07-4.83-.006-7.243.021a6.068 6.068 0 0 0 .069-4.9c2.213-.022 4.44-.08 6.653.004zm-12-2.92c5.134.928 5.923 8.764.952 10.54-8.306 2.706-9.704-11.947-.952-10.54zm-39.819 2.868q16.375 0 32.756 0a6.489 6.489 0 0 0 -.093 5c-11.209-.387-22.782.749-33.825-.4a2.494 2.494 0 0 1 1.162-4.6z" fill="#262626" fill-opacity="1" data-original-color="#262626ff" stroke="none" stroke-opacity="1"/><path d="m3.826 56.323c7.115.047 14.232-.025 21.348 0 2.37 4.167 8.977 3.791 11.433-.034 6.713-.982 17.344 2.248 22.638-1.809 3.653-8.369-17.9-3.6-22.417-4.769-2.3-4.168-8.957-3.9-11.449-.034-6.169 1.047-21.356-2.53-24.859 2.271-1.013 2.388 1.031 4.344 3.306 4.375zm50.274-6.034c3.244-.951 6.02 3.648 2.66 5.326-6.57.273-13.213.006-19.807.1a5.9 5.9 0 0 0 .176-5.422zm-22.067-2.758c5.086 1.235 5.747 9.12.722 10.9-8.379 2.381-9.518-12.731-.722-10.9zm-28.324 2.792c7.085-.006 14.2 0 21.289 0a6.205 6.205 0 0 0 -.177 5.354c-7.275-.624-15.4 1.29-22.261-.812-1.397-1.402-.988-4.129 1.149-4.542z" fill="#262626" fill-opacity="1" data-original-color="#262626ff" stroke="none" stroke-opacity="1"/></g></g></svg>