<svg id="Icons" height="512" viewBox="0 0 60 60" width="512" xmlns="http://www.w3.org/2000/svg"><path d="m13.142 59.47c-.17 0-.336-.087-.43-.244-.14-.234-.065-.538.167-.682l13.182-8.124-15.558 8.982c-.235.138-.537.059-.679-.175-.141-.233-.068-.536.163-.682l22.601-14.177-26.039 15.033c-.238.137-.54.058-.679-.176-.141-.234-.066-.538.165-.682l22.667-14.056-24.405 14.09c-.237.137-.539.059-.68-.177-.14-.235-.064-.539.169-.683l19.041-11.662-18.547 10.708c-.238.137-.54.059-.68-.177-.14-.234-.065-.538.168-.682l21.854-13.457-21.343 12.322c-.239.138-.542.058-.681-.179-.14-.237-.062-.542.174-.683l.427-.257c-.216.081-.476-.004-.6-.215-.14-.235-.064-.539.169-.682l16.548-10.094-16.037 9.259c-.239.138-.541.057-.68-.178-.14-.235-.064-.539.17-.682l15.191-9.248-14.682 8.476c-.238.137-.54.059-.68-.177s-.065-.539.168-.682l20.85-12.812-20.338 11.742c-.239.138-.54.058-.681-.179-.14-.235-.062-.54.172-.682l8.357-5.047-7.849 4.531c-.239.138-.54.058-.681-.178-.14-.236-.062-.541.172-.683l10.864-6.578-10.355 5.979c-.239.138-.542.058-.681-.179-.14-.237-.062-.541.174-.683l.892-.535-.385.222c-.239.137-.542.058-.681-.179-.14-.237-.062-.542.174-.683l.462-.277c-.226.103-.503.02-.636-.201-.14-.236-.062-.54.172-.683l11.406-6.91-10.897 6.291c-.238.137-.54.058-.68-.176-.14-.235-.065-.539.167-.683l22.06-13.628-21.547 12.44c-.238.138-.54.059-.68-.177s-.064-.539.169-.683l14.694-8.997-14.184 8.188c-.238.137-.54.058-.679-.176-.141-.234-.066-.538.165-.682l17.352-10.758-16.838 9.722c-.238.137-.54.059-.68-.177s-.065-.539.168-.682l10.324-6.34-9.812 5.665c-.238.138-.539.058-.679-.175-.141-.234-.067-.538.164-.682l13.805-8.611-13.29 7.673c-.238.137-.54.059-.68-.177s-.064-.539.168-.683l3.902-2.391-3.391 1.957c-.238.138-.541.057-.68-.177-.14-.235-.064-.54.169-.683l.463-.283c-.225.101-.498.02-.629-.197-.142-.231-.072-.534.157-.681l12.962-8.313-12.442 7.183c-.235.136-.533.061-.677-.172-.142-.231-.072-.533.155-.681l11.108-7.189-10.587 6.112c-.236.139-.536.06-.678-.174-.141-.232-.069-.535.16-.681l4.806-3.048-4.288 2.476c-.232.136-.529.062-.673-.166s-.081-.527.141-.679l10.501-7.196-9.969 5.756c-.235.136-.532.061-.675-.169s-.077-.53.147-.68l5.333-3.551-4.806 2.774c-.232.136-.529.062-.673-.166-.144-.227-.082-.526.14-.679l5.054-3.48-4.521 2.609c-.227.136-.522.063-.668-.158s-.093-.519.12-.676l4.973-3.687-4.425 2.555c-.225.133-.515.065-.662-.148-.147-.215-.105-.507.097-.672l3.663-2.984-3.098 1.788c-.22.13-.506.069-.657-.143-.149-.209-.115-.498.079-.667l1.729-1.505-1.151.664c-.218.13-.501.07-.653-.137-.15-.206-.123-.492.065-.664l.368-.338c-.114.011-.233-.026-.33-.099-.16-.12-.233-.324-.186-.519l.288-1.182c-.096-.041-.18-.111-.235-.209-.139-.239-.057-.545.183-.683l.5-.289c.173-.1.389-.088.55.032.16.12.233.324.186.519l-.222.912 2.535-1.464c.22-.127.502-.07.653.137.15.206.123.492-.065.664l-.187.172 1.688-.975c.222-.129.507-.069.657.143.149.209.115.498-.079.667l-1.731 1.507 4.015-2.317c.225-.133.514-.065.662.148.147.215.105.507-.097.672l-3.664 2.985 6.596-3.808c.229-.134.522-.062.668.158.146.222.093.519-.12.676l-4.975 3.688 7.836-4.523c.234-.135.53-.061.673.166.144.227.082.526-.14.679l-5.052 3.479 7.493-4.325c.234-.137.532-.062.675.169.143.229.077.53-.147.68l-5.326 3.546 7.615-4.396c.231-.135.53-.062.673.166.144.228.081.527-.141.679l-10.505 7.198 13.936-8.045c.237-.136.537-.059.678.174s.069.535-.16.681l-4.798 3.043 6.754-3.899c.235-.137.534-.061.677.172.142.231.072.533-.155.681l-11.108 7.189 13.933-8.044c.237-.137.536-.059.677.173.142.231.072.534-.157.681l-12.962 8.314 15.883-9.17c.237-.139.54-.059.68.177s.064.54-.169.683l-.359.22 1.871-1.08c.236-.138.538-.06.68.177.14.235.064.539-.168.683l-3.904 2.392 5.634-3.252c.236-.139.538-.059.679.175s.067.538-.164.682l-13.812 8.616 16.411-9.475c.237-.138.539-.06.68.177.14.235.065.539-.168.682l-10.305 6.327 12.45-7.188c.237-.139.539-.06.679.176.141.234.066.538-.165.682l-17.354 10.759 20.123-11.618c.236-.139.538-.06.68.177.14.235.064.539-.169.683l-14.705 9.004 17.086-9.864c.236-.139.538-.06.68.176.14.235.065.539-.167.683l-22.052 13.622 22.851-13.192c.237-.14.54-.059.681.178.14.236.062.54-.172.683l-11.434 6.927 10.925-6.307c.237-.14.542-.059.681.179.14.237.062.542-.174.683l-.456.273c.229-.097.501-.016.63.205.14.237.062.541-.174.683l-.935.561.428-.246c.237-.14.54-.059.681.178.14.236.062.541-.172.683l-10.864 6.578 10.355-5.979c.237-.14.54-.059.681.179.14.235.062.54-.172.682l-8.326 5.027 7.817-4.513c.236-.139.538-.06.68.177.14.235.065.539-.168.682l-20.85 12.812 20.338-11.742c.237-.139.54-.059.68.178.14.235.064.539-.17.682l-15.214 9.263 14.704-8.489c.236-.139.54-.059.68.178.14.235.064.539-.169.682l-16.548 10.094 16.037-9.259c.237-.139.542-.059.681.179.14.237.062.542-.174.683l-.423.254c.219-.079.472.008.596.216.14.234.065.538-.168.682l-21.87 13.467 21.358-12.331c.236-.139.538-.06.68.177.14.235.064.539-.169.683l-19.044 11.664 18.533-10.7c.236-.139.539-.06.679.176.141.234.066.538-.165.682l-22.675 14.061 22.161-12.794c.236-.136.538-.059.679.175s.068.536-.163.682l-22.594 14.172 22.078-12.746c.236-.139.538-.06.68.177.14.234.065.538-.167.682l-13.186 8.126 12.673-7.316c.236-.136.538-.059.679.175s.067.537-.163.682l-15.933 9.979 15.417-8.9c.237-.139.54-.058.68.178s.064.54-.17.682l-.471.287c.228-.11.507-.025.64.196.141.234.067.538-.165.682l-8.317 5.164 7.804-4.505c.236-.137.537-.059.678.174s.069.536-.161.682l-10.576 6.681 10.06-5.808c.236-.136.538-.06.679.175.141.233.068.536-.163.681l-6.68 4.199 6.164-3.559c.236-.136.537-.059.678.174s.07.535-.159.681l-6.78 4.31 6.262-3.614c.236-.137.537-.059.678.173s.07.535-.159.682l-4.782 3.047 4.264-2.461c.235-.136.534-.061.677.172.142.231.072.533-.155.681l-4.868 3.148 4.347-2.509c.234-.136.53-.061.673.166.144.227.082.526-.14.679l-7.533 5.175 7-4.041c.233-.137.533-.062.675.169.143.23.076.531-.148.681l-2.234 1.481 1.708-.986c.233-.138.532-.061.674.168.143.229.079.529-.145.68l-1.402.943.873-.504c.229-.133.523-.063.669.159.145.223.091.52-.123.677l-3.285 2.413 2.739-1.581c.226-.134.519-.064.665.154s.099.514-.109.674l-2.02 1.559 1.464-.845c.22-.127.502-.068.652.136.151.205.124.491-.063.664l-1.666 1.539 1.077-.621c.211-.124.48-.073.636.114.155.189.151.462-.009.646l-.543.624c.218-.074.478.009.6.222.139.239.057.545-.183.683l-2.493 1.438c-.21.124-.48.074-.636-.115-.155-.188-.151-.462.009-.646l.525-.604-2.364 1.364c-.217.129-.501.07-.652-.136-.151-.205-.124-.491.063-.664l1.666-1.539-4.053 2.339c-.227.133-.519.065-.665-.154s-.099-.514.109-.674l2.018-1.557-4.132 2.385c-.228.135-.522.064-.669-.159-.145-.223-.091-.52.123-.677l3.286-2.414-5.63 3.25c-.235.136-.532.061-.674-.168-.143-.229-.079-.529.145-.68l1.403-.943-3.104 1.791c-.236.136-.534.061-.675-.169-.143-.23-.076-.531.148-.681l2.234-1.48-4.037 2.33c-.232.136-.529.062-.673-.166-.144-.227-.082-.526.14-.679l7.532-5.174-10.426 6.019c-.236.137-.534.061-.677-.172-.142-.231-.072-.533.155-.681l4.87-3.15-6.934 4.003c-.235.138-.537.059-.678-.173s-.07-.535.159-.682l4.776-3.043-6.752 3.897c-.236.138-.536.06-.678-.174-.141-.232-.07-.535.159-.681l6.774-4.307-8.939 5.161c-.236.138-.537.061-.679-.175-.141-.233-.068-.536.163-.681l6.692-4.207-8.77 5.062c-.235.138-.536.06-.678-.174-.141-.233-.069-.536.161-.682l10.577-6.681-13.055 7.536c-.237.137-.539.058-.679-.176-.141-.234-.067-.538.165-.682l8.309-5.159-10.421 6.017c-.238.138-.541.058-.68-.178-.14-.235-.064-.54.17-.682l.385-.235-1.896 1.095c-.236.138-.537.059-.679-.175-.141-.233-.067-.537.163-.682l15.94-9.984-18.778 10.841c-.079.046-.165.067-.25.067z" fill="#ce9b57"/><path d="m23.116 11.47c-.167 0-.329-.084-.424-.235-.143-.229-.079-.528.145-.68l2.791-1.88-4.726 2.728c-.228.133-.521.064-.667-.157s-.095-.517.117-.676l6.57-4.921-9.968 5.754c-.232.136-.53.062-.674-.167-.143-.228-.08-.527.143-.679l3.469-2.362-5.558 3.208c-.23.134-.525.062-.67-.161s-.089-.521.127-.677l5.858-4.237-8.793 5.075c-.233.136-.53.062-.674-.167-.143-.228-.08-.527.143-.679l3.547-2.419-5.655 3.265c-.227.135-.522.063-.668-.158s-.093-.519.12-.676l6.367-4.715-9.322 5.382c-.232.137-.528.062-.673-.165-.143-.227-.082-.526.138-.679l4.11-2.846-3.694 2.132c-.229.134-.524.062-.67-.161-.145-.224-.089-.521.128-.677l3.354-2.416-.895.516c-.228.133-.521.063-.667-.156-.146-.221-.095-.517.116-.676l1.691-1.276c-.103-.026-.198-.085-.269-.174-.154-.192-.145-.47.023-.651l1.793-1.938c-.016-.02-.031-.041-.044-.064-.139-.239-.057-.545.183-.683l1.254-.724c.212-.124.485-.073.641.121.154.192.145.47-.023.651l-.825.892 2.883-1.664c.227-.134.521-.064.667.156.146.221.095.517-.116.676l-.773.584 2.453-1.416c.229-.135.524-.063.67.161.145.224.089.521-.128.677l-3.354 2.416 5.638-3.254c.234-.136.529-.061.673.165.143.227.082.526-.138.679l-4.104 2.842 6.385-3.686c.229-.133.522-.062.668.158.146.222.093.519-.12.676l-6.37 4.717 9.616-5.551c.234-.136.53-.062.674.167.143.228.08.527-.143.679l-3.551 2.421 5.66-3.267c.229-.135.524-.063.67.161.145.223.089.521-.127.677l-5.858 4.237 8.793-5.075c.235-.136.53-.062.674.167.143.228.08.527-.143.679l-3.469 2.362 5.558-3.208c.226-.134.521-.065.667.157.146.221.095.517-.117.676l-6.568 4.92 9.964-5.753c.234-.137.53-.062.674.168.143.229.079.528-.145.68l-2.791 1.88 4.726-2.728c.235-.137.533-.06.676.17.142.23.075.532-.151.681l-.781.514 2.364-1.364c.234-.137.531-.062.675.168.143.229.077.53-.146.68l-2.386 1.599 4.238-2.446c.234-.136.53-.062.673.167.144.228.081.527-.141.679l-3.604 2.46 5.727-3.306c.233-.137.532-.062.675.169.143.229.077.529-.146.68l-2.231 1.491 3.947-2.278c.229-.135.524-.062.669.16.146.223.09.521-.125.677l-5.908 4.298 6.542-3.776c.227-.134.521-.064.667.156s.096.516-.115.675l-4.845 3.666 5.3-3.06c.225-.133.515-.065.663.15.147.216.104.509-.101.672l-3.723 2.987 4.149-2.396c.22-.128.504-.069.654.139.15.207.12.494-.069.666l-2.761 2.484 3.189-1.841c.214-.125.49-.072.645.125.153.196.138.477-.035.655l-1.601 1.653 1.92-1.107c.204-.119.465-.077.623.1.157.177.17.439.029.63l-.713.965.888-.512c.192-.113.436-.083.597.072s.199.397.096.594l-.164.31c.164.008.32.097.408.249.139.239.057.545-.183.683l-1.158.669c-.192.11-.437.082-.597-.072-.161-.155-.199-.396-.096-.594l.094-.178-1.462.844c-.203.121-.464.077-.623-.1-.157-.177-.17-.439-.029-.63l.713-.965-2.936 1.694c-.213.126-.491.071-.645-.125s-.138-.477.035-.655l1.601-1.653-4.217 2.434c-.219.13-.504.07-.654-.139-.15-.207-.12-.494.069-.666l2.761-2.484-5.698 3.289c-.227.133-.516.064-.663-.15-.147-.216-.104-.509.101-.672l3.722-2.985-6.597 3.808c-.229.133-.521.063-.667-.156s-.096-.516.115-.675l4.847-3.667-7.793 4.498c-.23.134-.525.062-.669-.16-.146-.223-.09-.521.125-.677l5.907-4.297-8.894 5.134c-.235.136-.533.061-.675-.169-.143-.229-.077-.529.146-.68l2.235-1.494-4.059 2.343c-.232.136-.529.062-.673-.167-.144-.228-.081-.527.141-.679l3.604-2.46-5.727 3.306c-.235.136-.532.061-.675-.168s-.077-.53.146-.68l2.382-1.596-4.233 2.443c-.235.137-.533.06-.676-.17-.142-.23-.075-.532.151-.681l.781-.514-2.364 1.364c-.079.046-.165.067-.25.067z" fill="#ba8649"/><g fill="#262626"><path d="m3.473 9.67c-.601 15.607-.004 31.62-.208 47.36-.489 3.392 3.472 2.421 5.66 2.511h44.703c1.276 0 2.911.086 3.107-1.621-.214-16.215.446-32.646-.25-48.787-2.539-2.585-3.802-8.166-7.696-8.555-6.086 0-12.172 0-18.258 0-6.42-.022-13.034.006-19.517 0-3.66 1.219-5.219 6.173-7.542 9.092zm51.392 48.789c-16.02.009-32.122-.007-48.17 0-.783 0-1.837.322-1.96-.681-.038-15.439.026-30.928 0-46.385 8.234.165 16.493-.049 24.734.029 8.507-.05 17.245.178 25.796-.088-.397 15.575.763 31.894-.401 47.125zm-6.441-57.037c1.59-.07 6.24 7.331 6.841 9.062-8.095.275-16.376.001-24.532.095v-9.157h17.69zm-42.438 6.416c1.408-2.067 3.285-4.579 4.44-6.417 6.244-.014 12.569.01 18.841 0v9.156c-7.901-.023-15.824.033-23.712 0-1.682-.217-.052-2.049.431-2.74z"/><path d="m32.312 51.584c-9.788 1.281-18.743-7.143-18.556-16.887.685.768 2.339 2.613 2.922 1.039-1.228-.861-2.149-2.966-3.657-3.044-1.492.657-2.429 2.291-3.686 3.33.611 1.218 2.273-1.107 2.944-1.662-.657 10.424 9.119 19.261 19.409 17.822.366.098 1.633-.564.623-.598z"/><path d="m42.947 25.112c6.039 7.806 3.423 19.881-5.22 24.556.054-1.055 1.858-4.095-.271-3.115-.768 1.026-1.201 3.232-1.287 4.435 1.486.104 4.542 1.997 5.297.566-1.264-.339-2.527-.678-3.791-1.016 9.727-4.266 13.213-17.562 6.618-25.991-.285-.389-1.687.1-1.346.564z"/><path d="m40.333 21.655c1.472-.747-.481-3.296-.474-4.67-2.2-1.131-1.089 1.833-.768 2.931-8.919-5.33-21.402-1.405-25.405 8.286-.337.762 1.122.777 1.388.176 3.765-9.257 15.582-12.555 23.825-7.148-7.094 1.866-1.749 1.71 1.434.426z"/></g></svg>