<svg id="Icons" height="512" viewBox="0 0 60 60" width="512" xmlns="http://www.w3.org/2000/svg"><path d="m42.858 21.606a.5.5 0 0 1 -.355-.851l2.108-2.132-.083.048a.5.5 0 0 1 -.5-.865l3.305-1.906a.5.5 0 0 1 .605.785l-2.108 2.128 5.257-3.035a.5.5 0 0 1 .5.866l-8.479 4.9a.489.489 0 0 1 -.25.062z" fill="#e2e2e0"/><path d="m52.881 28.5a.5.5 0 0 1 -.341-.865l2.4-2.242-.906.522a.5.5 0 0 1 -.593-.8l1.086-1.015-.553.319a.5.5 0 0 1 -.6-.791l.8-.783-.581.335a.5.5 0 0 1 -.638-.748l1.281-1.577-1.535.886a.5.5 0 0 1 -.611-.778l.553-.578-.845.487a.5.5 0 0 1 -.657-.724l1-1.389-2.083 1.2a.5.5 0 0 1 -.654-.729l.886-1.208-3.135 1.81a.5.5 0 0 1 -.5-.865l5.2-3a.5.5 0 0 1 .653.728l-.886 1.208 2.03-1.172a.5.5 0 0 1 .657.724l-1 1.391 1.868-1.079a.5.5 0 0 1 .611.779l-.553.578.855-.493a.5.5 0 0 1 .638.748l-1.282 1.577 1.7-.982a.5.5 0 0 1 .6.791l-.8.783.812-.469a.5.5 0 0 1 .593.8l-1.084 1.021.974-.562a.5.5 0 0 1 .591.8l-2.4 2.243 2.203-1.281a.5.5 0 0 1 .5.865l-6 3.467a.5.5 0 0 1 -.254.068z" fill="#e2e2e0"/><path d="m48.056 36.462a.5.5 0 0 1 -.294-.9l2.859-2.077-4.768 2.753a.5.5 0 0 1 -.528-.848l.354-.236-1.436.829a.5.5 0 0 1 -.595-.8l2.623-2.492-4.658 2.689a.5.5 0 0 1 -.606-.783l2.083-2.117-3.884 2.243a.5.5 0 0 1 -.575-.813l1.005-.86-2.086 1.2a.5.5 0 0 1 -.6-.791l1.569-1.524-3 1.735a.5.5 0 0 1 -.593-.8l1.238-1.165-2.51 1.449a.5.5 0 0 1 -.607-.782l1.339-1.367-2.854 1.646a.5.5 0 0 1 -.585-.8l.631-.57-1.838 1.062a.5.5 0 0 1 -.64-.743l1.317-1.665-3.617 2.085a.5.5 0 0 1 -.678-.692l1.143-1.885-4.48 2.586a.5.5 0 0 1 -.576-.811l.061-.053-2.022 1.167a.5.5 0 0 1 -.639-.747l1.095-1.354-7.204 4.169a.5.5 0 0 1 -.586-.8l1.253-1.14-.826.477a.5.5 0 0 1 -.5-.866l4.85-2.8a.5.5 0 0 1 .585.8l-1.252 1.139 5.52-3.186a.5.5 0 0 1 .639.747l-1.095 1.353 4.292-2.477a.5.5 0 0 1 .576.811l-.062.054 1.565-.9a.5.5 0 0 1 .678.691l-1.146 1.877 4.189-2.418a.5.5 0 0 1 .642.743l-1.317 1.665 3.643-2.1a.5.5 0 0 1 .585.8l-.63.571 1.938-1.119a.5.5 0 0 1 .607.782l-1.337 1.368 3.08-1.779a.5.5 0 0 1 .592.8l-1.238 1.164 2.76-1.592a.5.5 0 0 1 .648.13.5.5 0 0 1 -.049.661l-1.569 1.523 3.281-1.895a.5.5 0 0 1 .576.813l-1.005.86 2.393-1.382a.5.5 0 0 1 .607.784l-2.087 2.115 5.12-2.954a.5.5 0 0 1 .595.8l-2.623 2.491 11.265-6.5a.5.5 0 0 1 .528.849l-.633.421a.5.5 0 0 1 .405.892l-2.857 2.069 1.581-.912a.5.5 0 0 1 .562.823l-2.023 1.618a.5.5 0 0 1 .208.931l-4.971 2.869a.5.5 0 0 1 -.562-.823l1.552-1.248-4.141 2.4a.5.5 0 0 1 -.25.062z" fill="#e2e2e0"/><g fill="#ccc"><path d="m32.825 57.416a.5.5 0 0 1 -.309-.893l4.484-3.529-6.318 3.648a.5.5 0 0 1 -.7-.663l.511-.987-1.287.742a.5.5 0 0 1 -.682-.685l.206-.351-.37.213a.5.5 0 0 1 -.52-.012.5.5 0 0 1 -.228-.468l.135-1.4-.332.192a.5.5 0 0 1 -.529-.018.5.5 0 0 1 -.216-.483l.141-1.028a.5.5 0 0 1 -.181-.927l.548-.317a.5.5 0 0 1 .745.5l-.123.9.288-.166a.5.5 0 0 1 .748.48l-.135 1.4 1.165-.672a.5.5 0 0 1 .682.685l-.206.352 1.129-.652a.5.5 0 0 1 .595.072.5.5 0 0 1 .1.591l-.511.987 10.875-6.278a.5.5 0 0 1 .56.825l-4.48 3.526 3.056-1.764a.5.5 0 0 1 .568.819l-2.1 1.734a.492.492 0 0 1 .312.235.5.5 0 0 1 -.182.683l-4.158 2.4a.5.5 0 0 1 -.568-.818l1.452-1.2-3.917 2.261a.491.491 0 0 1 -.248.066z"/><path d="m36.273 52.441a.5.5 0 0 1 -.307-.893l1.533-1.2a.5.5 0 0 1 -.322-.85l2.523-2.56-1.639.947a.5.5 0 0 1 -.621-.77l2.016-2.215-1.943 1.121a.5.5 0 0 1 -.6-.787l1.278-1.267-1.5.862a.5.5 0 0 1 -.583-.806l.533-.474-.858.494a.5.5 0 0 1 -.63-.758l1.788-2.085-3.472 2.005a.5.5 0 0 1 -.568-.818l.384-.317-1.859 1.074a.5.5 0 0 1 -.567-.821l1.046-.852-3.567 2.059a.5.5 0 0 1 -.582-.806l2.92-2.6-7.576 4.376a.5.5 0 0 1 -.568-.819l3.825-3.134-7.827 4.518a.5.5 0 0 1 -.53-.842l.061-.041-1.66.957a.5.5 0 0 1 -.542-.838l1.2-.865-2.789 1.61a.5.5 0 0 1 -.568-.818l1.427-1.175-2.966 1.712a.5.5 0 0 1 -.664-.713l1.124-1.663-3.031 1.745a.5.5 0 0 1 -.741-.525l.269-1.441-1.859 1.074a.5.5 0 0 1 -.733-.3l-.337-1.232-.83.479a.5.5 0 0 1 -.715-.251l-.269-.691-.094.055a.5.5 0 0 1 -.5-.867l.6-.346a.509.509 0 0 1 .417-.039.5.5 0 0 1 .3.291l.267.69.887-.511a.5.5 0 0 1 .732.3l.337 1.233 2.24-1.294a.5.5 0 0 1 .741.524l-.27 1.442 3.961-2.287a.5.5 0 0 1 .664.713l-1.124 1.663 6.325-3.651a.5.5 0 0 1 .568.818l-1.428 1.175 6.041-3.487a.5.5 0 0 1 .543.838l-1.2.864 4.335-2.5a.5.5 0 0 1 .533.845l-.057.038 1.964-1.133a.5.5 0 0 1 .567.819l-3.826 3.132 6.518-3.762a.5.5 0 0 1 .582.806l-2.921 2.6 4.689-2.707a.5.5 0 0 1 .567.82l-1.045.852 1.737-1a.5.5 0 0 1 .568.818l-.385.318.76-.439a.5.5 0 0 1 .63.758l-1.787 2.084 2.527-1.458a.5.5 0 0 1 .583.8l-.532.476.634-.366a.5.5 0 0 1 .6.787l-1.278 1.269 1.385-.8a.5.5 0 0 1 .62.769l-2.016 2.214 2.05-1.183a.5.5 0 0 1 .606.784l-2.523 2.562 2.231-1.283a.5.5 0 0 1 .558.826l-1.048.82.454-.262a.5.5 0 1 1 .5.865l-6.642 3.834a.491.491 0 0 1 -.249.067z"/><path d="m23.93 8.783a.5.5 0 0 1 -.362-.845l2.332-2.43-.261.15a.5.5 0 1 1 -.5-.865l3.295-1.9a.5.5 0 0 1 .611.778l-2.331 2.429 5.661-3.27a.5.5 0 1 1 .5.865l-8.695 5.021a.489.489 0 0 1 -.25.067z"/><path d="m34.024 15.34a.5.5 0 0 1 -.314-.889l1.019-.826a.491.491 0 0 1 -.4-.191.5.5 0 0 1 .033-.656l1.893-1.97-1.233.711a.5.5 0 0 1 -.632-.755l1.553-1.845-1.5.865a.5.5 0 0 1 -.6-.793l.33-.318-.328.189a.5.5 0 0 1 -.62-.769l.722-.79-1.047.608a.5.5 0 0 1 -.646-.737l.934-1.217-1.87 1.076a.5.5 0 0 1 -.667-.708l.937-1.42-3.336 1.927a.5.5 0 1 1 -.5-.865l5.171-2.987a.5.5 0 0 1 .667.708l-.938 1.421 2.206-1.273a.5.5 0 0 1 .647.737l-.933 1.216 1.678-.969a.5.5 0 0 1 .619.77l-.722.791 1.075-.62a.5.5 0 0 1 .6.793l-.331.319.423-.244a.5.5 0 0 1 .633.755l-1.558 1.845 1.811-1.047a.5.5 0 0 1 .61.779l-1.893 1.971 1.868-1.078a.5.5 0 0 1 .564.822l-.7.566.364-.21a.5.5 0 1 1 .5.865l-5.845 3.375a.493.493 0 0 1 -.244.068z"/><path d="m27.986 23.423a.5.5 0 0 1 -.3-.9l4.581-3.368-6.7 3.87a.5.5 0 0 1 -.588-.8l2.8-2.576-4.839 2.788a.5.5 0 0 1 -.586-.8l1.775-1.619-3.217 1.856a.5.5 0 0 1 -.6-.792l1.731-1.673-3.211 1.854a.5.5 0 0 1 -.627-.761l1.883-2.163-3.811 2.2a.5.5 0 0 1 -.609-.78l1.523-1.574-3.149 1.815a.5.5 0 0 1 -.59-.8l.967-.894-2.319 1.339a.5.5 0 0 1 -.6-.787l1.143-1.144-2.866 1.652a.5.5 0 0 1 -.577-.806l.419-.372-1.837 1.057a.5.5 0 0 1 -.63-.758l.988-1.156-3.526 2.035a.5.5 0 0 1 -.711-.625l.38-.909-2.983 1.721a.5.5 0 1 1 -.5-.865l4.263-2.462a.5.5 0 0 1 .711.625l-.38.91 4.764-2.75a.5.5 0 0 1 .63.758l-.988 1.155 3.569-2.061a.5.5 0 0 1 .582.807l-.422.374 1.888-1.089a.5.5 0 0 1 .6.786l-1.142 1.145 2.9-1.675a.5.5 0 0 1 .59.8l-.965.892 2.379-1.373a.5.5 0 0 1 .61.781l-1.525 1.575 3.312-1.911a.5.5 0 0 1 .627.76l-1.875 2.165 4.135-2.387a.5.5 0 0 1 .6.792l-1.733 1.671 3.7-2.133a.5.5 0 0 1 .587.8l-1.775 1.62 4.745-2.74a.5.5 0 0 1 .589.8l-2.8 2.575 10.64-6.143a.5.5 0 0 1 .546.836l-4.583 3.368 3.473-2a.5.5 0 0 1 .582.807l-3.352 2.978.6-.344a.5.5 0 0 1 .5.866l-4.849 2.8a.5.5 0 0 1 -.582-.806l3.349-2.983-7.064 4.078a.493.493 0 0 1 -.25.068z"/></g><path d="m42.011 29.082c-9.461-1.455-24.89-4.015-30.6 5.233.461.6 1.415.21 1.952-.021 12.442-6.858 25.037 3.306 37.691 1.723 17.379-4.117 4.807-29.753-8.119-16.962-1.083 1.306-1.691 4.89 1.056 3.067a4.479 4.479 0 0 1 6.635-1.567 5.484 5.484 0 0 1 1.466 7.6c-2.248 3.062-6.962 1.487-10.081.927zm11.857-1.674c3.27-6.37-5.986-11.462-10.329-6.358 5.607-13.234 21.586 3.736 11.487 12.266-10.964 7.661-26.793-8.131-42.415.5 10.312-13.248 34.933 2.884 41.257-6.408z" fill="#262626"/><path d="m33.356 53.031c-3.764 1.241-4.543-3.443-6.731-2.614-2.015 11.383 19.969 8.453 16.849-5.646-5.541-16.91-24.41-2.216-36.164-4.3-.636-.08-4.283-1.431-4.052.479 8.716 9.068 21.834.54 31.679 3.092 3.481 2.198 2.423 8.09-1.581 8.989zm5.062-6.353c-4.041-10.941-23.469 2.962-32.786-5.338 4.218.875 8.8.232 12.921-.8 37.26-13.915 22.372 28.96 9.291 12.015 3.966 3.925 11.906.219 10.574-5.877z" fill="#262626"/><path d="m29.882 16.893c-9.682-.539-21.508-5.231-29.6 2.389-.072.623.63.688 1.077.631 9.829-2.96 19.026 3.782 28.784 3.405 15.733-.6 12.382-25.38-2.975-19.817-2.49.145-6.634 8.025-1.984 5.551 5.602-7.963 14.023 6.292 4.698 7.841zm4.467-1.622c4.621-6.163-4.893-12.807-9.669-7.287.688-4.122 5.261-5.495 8.69-4 8.777 3.351 7.178 17.582-2.281 18.557-9.6.545-18.561-5.99-28.307-3.662-1.711.648-.589-.456.155-.743 9.693-7.236 23.149 3.909 31.412-2.865z" fill="#262626"/></svg>