<svg height="300" viewBox="0 0 42 60" width="300" xmlns="http://www.w3.org/2000/svg" version="1.1" xmlns:xlink="http://www.w3.org/1999/xlink" xmlns:svgjs="http://svgjs.dev/svgjs"><g width="100%" height="100%" transform="matrix(1,0,0,1,0,0)"><g id="030---Shop-Pin" fill="none"><path id="Path" d="m21.378 59.461c-.2152152 0-.4062846-.137715-.4743416-.3418861-.0680571-.2041711.0021694-.4289848.1743416-.5581139l2.77-2.061-4.94 2.852c-.2248836.1275609-.509928.0626394-.65739-.1497267-.1474621-.2123662-.1087026-.5021295.08939-.6682733l4.53-3.751-7.553 4.361c-.2285233.1282497-.5172952.0583047-.6618051-.1602995-.14451-.2186041-.095725-.5116937.1118051-.6717005l3.48-2.621-5.481 3.159c-.2295527.1314921-.521805.0614183-.6667704-.1598726-.1449654-.2212908-.0924688-.5172061.1197704-.6751274l2.7-1.994-4.3 2.48c-.2290632.1321979-.5214568.063148-.66718057-.1575572-.14572375-.2207053-.09436905-.5167199.11718057-.6754428l2.5-1.872-3.93 2.268c-.22575858.1294404-.51305935.0640705-.66058916-.1503047-.1475298-.2143751-.10595655-.5060712.09558916-.6706953l3-2.431-4.474 2.588c-.22346694.1287231-.50817637.0663691-.65738482-.1439733-.14920846-.2103425-.11396118-.4996608.08138482-.6680267l2.206-1.892-3.2 1.845c-.20245369.1163469-.45847883.0770739-.61675049-.0946066-.15827166-.1716804-.1766405-.4300481-.04424951-.6223934l1.059-1.534-.893.515c-.15499454.0985297-.35153099.1041539-.51190641.0146489-.16037542-.0895049-.25877124-.2597296-.25628554-.4433739s.10545276-.3511436.26819195-.436275l2.813-1.625c.2025051-.1174126.45936443-.078615.61815703.0933704.15879259.1719853.17701042.4311186.04384297.6236296l-1.058 1.534 5.934-3.425c.2233421-.1266456.5063058-.0635478.6546834.1459871.1483776.209535.1139372.4973954-.0796834.6660129l-2.2 1.891 5.322-3.072c.2256086-.1271264.5109479-.0609576.657579.1524896.1466312.2134471.106025.5035297-.093579.6685104l-3 2.432 5.726-3.3c.2290632-.1321979.5214568-.063148.6671806.1575572.1457237.2207053.094369.5167199-.1171806.6754428l-2.506 1.874 4.689-2.707c.2295527-.1314921.521805-.0614183.6667704.1598726.1449654.2212908.0924688.5172061-.1197704.6751274l-2.7 1.993 4.89-2.822c.2286312-.1323821.5207966-.0640496.667.156.1463361.2205214.0954817.5168793-.116.676l-3.477 2.618 5.6-3.234c.2248836-.1275609.509928-.0626394.65739.1497267.1474621.2123662.1087026.5021295-.08939.6682733l-4.532 3.753 7.175-4.143c.2288588-.1292299.518701-.0592157.6633326.1602346.1446317.2194502.0946742.513414-.1143326.6727654l-2.767 2.065 4.29-2.485c.2245986-.1270093.5089574-.0622563.656419.1494768.1474617.2117332.109592.5009023-.087419.6675232l-3.425 2.836 5.156-2.974c.2250277-.1259685.5089467-.060127.6555632.1520265.1466165.2121536.1078274.5010142-.0895632.6669735l-2.15 1.762 3.148-1.818c.2198926-.1179958.4931214-.0557887.6402596.1457705s.1231296.4807496-.0562596.6542295l-1.226 1.1 1.56-.9c.23893-.1358451.5427102-.0533708.6801373.1846528.137427.2380237.0569695.5423443-.1801373.6813472l-5.736 3.314c-.2198926.1179958-.4931214.0557887-.6402596-.1457705s-.1231296-.4807496.0562596-.6542295l1.226-1.1-4.288 2.471c-.2250277.1259685-.5089467.060127-.6555632-.1520265-.1466165-.2121536-.1078274-.5010142.0895632-.6669735l2.151-1.762-4.978 2.874c-.2247363.1292165-.510959.0652384-.6592891-.1473681-.1483301-.2126064-.1095663-.5033193.0892891-.6696319l3.426-2.837-6.535 3.773c-.0759114.0442382-.1621395.0676923-.25.068z" fill="#8ddc0c" fill-opacity="1" data-original-color="#0c70dcff" stroke="none" stroke-opacity="1"/><path id="Path" d="m20.291 55.155c-.2079988.000117-.3943453-.1285474-.4679386-.3230918-.0735934-.1945444-.0190605-.41433.1369386-.5519082l3.077-2.716-3.772 2.178c-.2310609.1298083-.523268.0567757-.6660866-.1664779-.1428185-.2232536-.086628-.5191613.1280866-.6745221l1.086-.766-1.324.763c-.2292016.1303039-.5201978.0602449-.6649792-.1600976s-.0935911-.5152436.1169792-.6739024l6.859-5.075-7.652 4.411c-.2313246.1263251-.5209869.0513891-.6620294-.1712679-.1410425-.2226569-.0850249-.5165645.1280294-.6717321l7.441-5.15-8.076 4.662c-.2321092.1290838-.5246372.0541763-.6661393-.170578-.1415021-.2247542-.0825963-.5209195.1341393-.674422l9.758-6.664-10.458 6.04c-.2363779.1427656-.5437344.0668778-.6865-.1695-.1427656-.2363779-.0668779-.5437344.1695-.6865l1.016-.641-1.181.682c-.2350866.127347-.5287583.0472199-.6665908-.1818764-.1378325-.2290964-.071048-.5260868.1515908-.6741236l.365-.229-.487.281c-.2341443.133112-.5316521.0568382-.672871-.1725078-.1412189-.2293459-.075396-.5293391.148871-.6784922l10.649-6.944-11.182 6.457c-.236654.1424895-.5440105.066154-.6865-.1705-.1424894-.236654-.066154-.5440105.1705-.6865l4.641-2.91-4.866 2.809c-.2361735.1361818-.537908.0580681-.6783318-.1756081-.1404239-.2336761-.0677709-.5367718.1633318-.6813919l4.608-2.879-4.8 2.771c-.2358256.1438702-.5436298.0693256-.6875-.1665s-.0693256-.5436298.1665-.6875l12.672-8.156-13.174 7.607c-.23508655.127347-.52875831.0472199-.66659082-.1818764-.13783251-.2290964-.071048-.5260868.15159082-.6741236l8.45-5.307-8.716 5.033c-.23551248.13196-.53324972.0531389-.67262044-.1780652-.13937073-.2312042-.07004227-.5312938.15662044-.6779348l10.546-6.656-10.861 6.268c-.23560872.1297647-.5316571.04988-.67000668-.1807924-.13834959-.2306723-.06941665-.5294607.15600668-.6762076l6.556-4.073-6.737 3.887c-.23520866.125628-.52761522.0445694-.66457305-.1842276-.13695782-.228797-.07026696-.5248112.15157305-.6727724l5.212-3.224-5.314 3.068c-.23610173.1433179-.54368208.0681017-.68699997-.168-.14331788-.2361017-.06810174-.5436821.16799997-.687l14.294-9.112-14.662 8.465c-.23617349.1361818-.537908.0580681-.67833183-.1756081-.14042384-.2336761-.06777083-.5367718.16333183-.6813919l9.131-5.7-9.3 5.369c-.23402298.1252853-.52515789.0458598-.66313509-.1809119-.13797721-.2267718-.07469786-.5218373.14413509-.6720881l15.712-10.063-16.029 9.253c-.23415271.123715-.52415635.0433988-.66130449-.1831476-.13714814-.2265465-.07386591-.5207372.14430449-.6708524l13.717-8.7-13.951 8.054c-.23473446.1238045-.5252986.0426548-.6619149-.1848618-.13661629-.2275167-.07168534-.5221296.1479149-.6711382l9.739-6.086-9.745 5.628c-.23665401.1424895-.54401052.066154-.68649999-.1705-.14248946-.236654-.06615401-.5440105.17049999-.6865l10.6-6.647-10.626 6.133c-.15290967.0923532-.34347386.0961147-.49990887.0098676-.15643502-.0862471-.25497466-.2493998-.2585-.428-.00352534-.1786003.0884992-.3455144.24140887-.4378676l11.664-7.356-11.637 6.718c-.23319341.1126333-.51379644.0285707-.64665284-.1937233-.1328564-.2222939-.07399236-.5092427.13565284-.6612767l.234-.143c-.23803473.1400042-.5444958.0605347-.68449998-.1775-.14000417-.2380347-.06053473-.5444958.17749998-.6845l13.012-8.3-12.917 7.454c-.23345719.1253051-.52412895.0467367-.66266771-.1791186-.13853877-.2258554-.07683646-.5205686.14066771-.6718814l14.883-9.665-14.566 8.409c-.15237377.0932463-.34291927.098119-.49985983.0127826-.15694057-.0853364-.25643321-.2479173-.261-.4265-.0045668-.1785827.08648606-.3460363.23885983-.4392826l13.121-8.5-12.606 7.273c-.23617349.1361818-.537908.0580681-.67833183-.1756081-.14042384-.2336761-.06777082-.5367718.16333183-.6813919l4.694-2.941-4.066 2.347c-.2341443.133112-.53165209.0568382-.67287099-.1725078-.1412189-.2293459-.07539606-.5293391.14887099-.6784922l11.449-7.522-10.5 6.06c-.233204.1287421-.52639387.0520483-.66668716-.1743946-.1402933-.226443-.07842312-.5231151.14068716-.6746054l9.587-6.349-8.366 4.831c-.23158002.1294027-.52390906.0554223-.6660571-.1685604-.14214803-.2239828-.08462774-.5199909.1310571-.6744396l9.363-6.507-7.408 4.278c-.23174266.1353654-.52902013.0636298-.67352428-.1625272-.14450415-.2261571-.08468698-.5260601.13552428-.6794728l5.179-3.646-2.57 1.483c-.22991383.13282353-.52355008.06277315-.66874271-.15953646-.14519264-.2223096-.09129791-.51933596.12274271-.67646354l2.955-2.164c-.05016588-.03894528-.09199391-.08757462-.123-.143-.13738473-.23891688-.05553486-.54395304.183-.682l5.06-2.924c.2299138-.13282353.5235501-.06277315.6687427.15953646.1451926.2223096.0912979.51933596-.1227427.67646354l-.605.443 4.226-2.44c.2317427-.13536544.5290201-.06362981.6735243.16252724.1445041.22615705.084687.52606004-.1355243.67947276l-5.184 3.65 8.132-4.695c.2311923-.12801413.5220815-.05401297.6639947.16891785s.0858401.51780111-.1279947.67308215l-9.37 6.51 12.1-6.985c.233204-.12874209.5263939-.05204833.6666872.17439464.1402933.22644298.0784231.52311505-.1406872.67460536l-9.577 6.343 11.421-6.591c.2347029-.1405531.538787-.06638836.6824238.16644007s.0734897.5378644-.1574238.68455993l-11.45 7.522 12.992-7.5c.2361735-.13618181.537908-.05806811.6783318.17560806.1404239.23367616.0677709.53677186-.1633318.68139194l-4.691 2.938 5.47-3.158c.2355494-.14442243.5435775-.07054941.688.16500002.1444224.23554943.0705494.54357751-.165.68799998l-13.127 8.509 14.318-8.265c.2337734-.12874562.5274505-.05119801.667188.1761759.1397374.22737391.07627.52441224-.144188.6748241l-14.881 9.663 15.974-9.221c.234481-.12707284.5274228-.04774006.6657366.18029089.1383139.22803094.0733058.52448086-.1477366.67370911l-13 8.291 13.8-7.966c.1536242-.09128136.3442768-.09367127.5001409-.00626949s.2532602.25131686.2555.43c.0022399.17868314-.0910167.34498813-.2446409.43626949l-.251.153.393-.226c.2349709-.12921461.5300387-.05006202.6687925.17940502.1387537.22946704.0717837.52753611-.1517925.67559498l-11.669 7.358 12.148-7.013c.2355125-.13195996.5332497-.0531389.6726204.17806525.1393708.23120415.0700423.53129378-.1566204.67793475l-10.583 6.64 10.879-6.283c.2350866-.12734701.5287583-.04721993.6665908.1818764.1378325.2290964.071048.5260868-.1515908.6741236l-9.751 6.093 9.957-5.749c.2341527-.123715.5241564-.0433988.6613045.1831476.1371481.2265465.0738659.5207372-.1443045.6708524l-13.713 8.7 13.936-8.046c.234023-.1252853.5251579-.0458598.6631351.1809119.1379772.2267718.0746978.5218373-.1441351.6720881l-15.712 10.066 15.907-9.183c.2347345-.1238045.5252986-.0426548.6619149.1848618.1366163.2275167.0716853.5221296-.1479149.6711382l-9.12 5.691 8.991-5.191c.2348642-.1312813.531504-.0531604.6712412.1767732.1397372.2299337.0724576.5292187-.1522412.6772268l-14.3 9.118 14.206-8.2c.2352087-.125628.5276152-.0445694.664573.1842276.1369579.228797.070267.5248112-.151573.6727724l-5.217 3.228 4.868-2.811c.1532669-.0918173.3438754-.094893.5000249-.0080685.1561495.0868244.2541174.2503583.257.429s-.089758.3452512-.2430249.4370685l-6.556 4.074 6.151-3.551c.2355125-.13196.5332497-.0531389.6726204.1780652.1393708.2312042.0700423.5312938-.1566204.6779348l-10.54 6.652 10.049-5.8c.236654-.1424895.5440105-.066154.6865.1705s.066154.5440105-.1705.6865l-8.46 5.312 7.782-4.492c.2358256-.1438701.5436298-.0693256.6875.1665.1438701.2358256.0693256.5436298-.1665.6875l-12.671 8.146 11.709-6.76c.2356087-.1297647.5316571-.04988.6700067.1807924.1383496.2306723.0694166.5294607-.1560067.6762076l-4.607 2.878 3.67-2.118c.2361735-.1361818.537908-.0580681.6783318.1756081.1404239.2336761.0677709.5367718-.1633318.6813919l-4.645 2.914 3.486-2.013c.2352733-.1446986.5433014-.0712733.688.164s.0712733.5433014-.164.688l-10.653 6.951 9.057-5.229c.236654-.1424894.5440105-.066154.6865.1705.1424894.236654.066154.5440105-.1705.6865l-1.168.73c.2339164-.0354031.4606299.0979825.5433013.3196483.0826714.2216657-.0013293.4709338-.2013013.5973517l-1.328.838c.2134751-.0608899.4415363.026262.56.214.1437537.2276587.0814213.5282688-.141.68l-9.763 6.666 7.206-4.159c.2313246-.1263251.5209869-.0513891.6620294.1712679.1410425.2226569.0850249.5165645-.1280294.6717321l-7.441 5.149 4.663-2.689c.228997-.1275142.5175965-.0565488.6613452.1626219.1437487.2191708.0938504.5121485-.1143452.6713781l-6.852 5.076 3.263-1.884c.2310609-.1298083.523268-.0567757.6660866.1664779.1428185.2232536.086628.5191613-.1280866.6745221l-2.186 1.542c.1873833.0358074.3380606.1751234.3884183.3591309.0503578.1840075-.0083813.3806349-.1514183.5068691l-3.847 3.39c.1726731.0757358.2880568.2421688.2984105.4304365.0103536.1882676-.0860837.3663496-.2494105.4605635l-3.105 1.793c-.0762758.0463069-.1637683.0708601-.253.071z" fill="#b7ec27" fill-opacity="1" data-original-color="#2783ecff" stroke="none" stroke-opacity="1"/><path id="Path" d="m21.9 37.39c-.1699291.0005016-.328188-.0863708-.419-.23-.1444365-.2237436-.0881526-.5214327.128-.677l5.654-4.052-8.263 4.769c-.2324067.1328499-.5282158.0590851-.6710333-.1673329s-.0819688-.5251514.1380333-.6776671l7.463-5.141-9.394 5.423c-.2354379.13455-.5352149.0569022-.6757281-.1750261-.1405133-.2319283-.0705395-.5335888.1577281-.6799739l1.132-.72-1.938 1.118c-.2336556.130691-.5287926.0541466-.6694787-.1736308-.140686-.2277774-.0769932-.5259521.1444787-.6763692l8.1-5.349-9.308 5.374c-.2349709.1292146-.5300387.050062-.6687925-.179405-.1387537-.2294671-.0717837-.5275361.1517925-.675595l1.228-.772-1.71.987c-.2363779.1430418-.5439582.0673779-.687-.169s-.0673779-.5439582.169-.687l4-2.534-4.562 2.632c-.2341443.133112-.5316521.0568382-.672871-.1725078-.1412189-.2293459-.075396-.5293391.148871-.6784922l10.519-6.9-11.33 6.54c-.23477127.1336383-.53323995.0566316-.67405087-.1739091-.14081092-.2305408-.07304023-.5312411.15305087-.6790909l9.551-6.177-10.158 5.866c-.23520866.125628-.52761522.0445694-.66457305-.1842276-.13695782-.228797-.07026696-.5248112.15157305-.6727724l1.073-.668-1.164.672c-.23637787.1430418-.54395825.0673779-.687-.169s-.06737787-.5439582.169-.687l5.828-3.684-6.049 3.493c-.15326694.0918173-.34387535.094893-.5000249.0080685-.15614954-.0868244-.25411739-.2503583-.257-.429s.08975796-.3452512.2430249-.4370685l.33-.205-.286.165c-.23377341.1287456-.52745054.051198-.66718798-.1761759-.13973743-.2273739-.07626999-.5244122.14418798-.6748241l11.424-7.468-11.656 6.729c-.23436107.1288923-.5286543.0505227-.66787555-.1778537-.13922124-.2283764-.07406124-.5258734.14787555-.6751463l8.722-5.61-8.644 4.991c-.23472102.145527-.54297296.073221-.68849999-.1615s-.07322102-.542973.16149999-.6885l11.744-7.781-11.65 6.725c-.23415271.123715-.52415635.0433988-.66130449-.1831476-.13714814-.2265465-.07386591-.5207372.14430449-.6708524l4.473-2.84-4.077 2.354c-.23477127.1336383-.53323995.0566316-.67405087-.1739091-.14081092-.2305408-.07304023-.5312411.15305087-.6790909l6.619-4.277-6.143 3.546c-.23551248.13196-.53324972.0531389-.67262044-.1780652-.13937073-.2312042-.07004227-.5312938.15662044-.6779348l.511-.322c-.21331017.0595187-.44035975-.0283714-.558-.216-.14335838-.2281681-.08011637-.5288994.143-.68l8.541-5.788-7.6 4.386c-.23336809.1382671-.53441937.0652417-.67850035-.1645824s-.07863493-.5326135.14750035-.6824176l5.868-3.969-4.624 2.67c-.23004825.1308569-.52222067.059778-.6664488-.1621318-.14422813-.2219099-.09054634-.5177734.1224488-.6748682l5.582-4.056-3.417 1.973c-.22776864.1327124-.51944616.0657934-.66658476-.1529333-.14713861-.2187267-.0991876-.5141157.10958476-.6750667l2.913-2.266c-.1809121-.06743023-.3068361-.23299379-.3235064-.42534278-.0166702-.19234899.0788925-.37710807.2455064-.47465722l4.827-2.788c.2277686-.13271241.5194462-.06579338.6665848.15293332.1471386.21872669.0991876.51411564-.1095848.67506668l-1.882 1.462 5.44-3.14c.2300482-.13085689.5222207-.05977797.6664488.16213184.1442281.22190982.0905463.51777331-.1224488.67486816l-5.581 4.05 8.366-4.83c.2333681-.13826705.5344194-.06524166.6785003.16458243.144081.22982408.078635.53261344-.1475003.68241757l-5.863 3.978 7.571-4.37c.2322377-.12731148.5234633-.05144622.664069.17299225.1406056.22443847.0818101.51958413-.134069.67300775l-8.541 5.788 10.177-5.881c.2355125-.13195996.5332497-.0531389.6726204.17806525.1393708.23120415.0700423.53129378-.1566204.67793475l-.172.108.762-.439c.2342478-.13088329.5300435-.05352709.6702262.17527691.1401827.22880401.074765.52746697-.1482262.67672309l-6.618 4.277 7.452-4.3c.2341527-.12371504.5241564-.04339881.6613045.18314763.1371481.22654645.0738659.52073714-.1443045.67085237l-4.472 2.84 5.056-2.92c.234721-.14552701.5429729-.07322099.6885.16150002.145527.23472101.073221.54297294-.1615.68849998l-11.744 7.779 12.644-7.3c.2354116-.13795832.5379577-.06170795.6798637.17134529.1419059.23305325.070765.53684141-.1598637.68265471l-8.727 5.613 9.249-5.34c.2347034-.1364868.5354374-.0607325.6774741.1706544.1420368.2313868.073465.5338394-.1544741.6813456l-11.422 7.467 11.916-6.88c.2352087-.125628.5276152-.0445694.664573.1842276.1369579.228797.070267.5248112-.151573.6727724l-.341.212.354-.2c.2363779-.1427656.5437344-.0668778.6865.1695.1427656.2363779.0668779.5437344-.1695.6865l-5.829 3.679 5.86-3.383c.2362075-.133071.5354329-.0536509.6745599.1790411.1391271.2326919.0674613.5338687-.1615599.6789589l-1.086.676 1.021-.589c.2338963-.1269547.5262491-.04845.6650871.1785941.1388379.227044.0755015.5230536-.1440871.6734059l-9.542 6.176 9.458-5.46c.2341443-.133112.5316521-.0568382.672871.1725078.1412189.2293459.075396.5293391-.148871.6784922l-10.517 6.9 10.365-5.991c.2349709-.1292146.5300387-.050062.6687925.179405.1387537.2294671.0717837.5275361-.1517925.675595l-4.012 2.545 3.613-2.085c.2355125-.13196.5332497-.0531389.6726204.1780652.1393708.2312042.0700423.5312938-.1566204.6779348l-1.21.761.759-.438c.2340569-.1357068.5336008-.0606207.6759704.1694442s.0759129.5316408-.1499704.6805558l-8.1 5.347 7.4-4.271c.2348642-.1312813.531504-.0531604.6712412.1767732.1397372.2299337.0724576.5292187-.1522412.6772268l-1.145.726.389-.225c.2324067-.1328499.5282158-.0590851.6710333.1673329s.0819688.5251514-.1380333.6776671l-7.458 5.139 6.2-3.578c.2305507-.1302945.5227069-.0582293.6662193.1643342.1435123.2225634.0886.5184238-.1252193.6746658l-5.657 4.056 3.637-2.1c.2275891-.1298897.5168511-.062032.6629348.1555172.1460838.2175492.0994243.5109773-.1069348.6724828l-2.99 2.312c.214488.0244558.3890603.1838085.4329261.3951825.0438658.2113741-.0528815.4270329-.2399261.5348175l-5.542 3.2c-.2275891.1298897-.5168511.062032-.6629348-.1555172-.1460838-.2175492-.0994243-.5109773.1069348-.6724828l2.41-1.864-6 3.466c-.0773304.0462953-.1658723.070506-.256.07z" fill="#f0f2f5" fill-opacity="1" data-original-color="#f0f2f5ff" stroke="none" stroke-opacity="1"/><g fill="#b9bfcc"><path id="Path" d="m25.141 31.24c-.1990641.0005557-.3794942-.117025-.4593743-.2993598-.07988-.1823349-.0439906-.3946841.0913743-.5406402l.3-.329-.54.312c-.195815.1134193-.443395.0811853-.6036408-.0785919-.1602458-.1597773-.1932047-.4072618-.0803592-.6034081l.749-1.3-.03.017c-.2374252.1242009-.5305531.0391619-.6646466-.1928199-.1340935-.2319817-.0614797-.5284321.1646466-.6721801l1.637-.945c.1947566-.113705.4418388-.0807607.6.08.1587822.1590642.1919195.4045261.081.6l-.748 1.3 1.791-1.034c.2140094-.1242074.4866819-.073198.6413187.1199729.1546367.1931709.1447222.4703962-.0233187.6520271l-.314.338c.2439828-.1058966.5281669-.002251.6466874.2358553.1185204.2381063.0298898.5273253-.2016874.6581447l-2.8 1.614c-.0719302.042456-.1535021.0658606-.237.068z" fill="#000000" fill-opacity="1" data-original-color="#b9bfccff" stroke="none" stroke-opacity="1"/><path id="Path" d="m16.412 31.313c-.1875997-.0013851-.3586379-.1076691-.4429587-.2752566-.0843208-.1675876-.0677333-.3682744.0429587-.5197434l.754-1.032-1.27.733c-.1992437.1162507-.4521568.0811062-.6121555-.0850646-.1599987-.1661707-.1855498-.4202324-.0618445-.6149354l.665-1.065c-.2257898.0761825-.4739666-.0175638-.593-.224-.1375532-.2386555-.0561721-.5436114.182-.682l1.637-.945c.1992437-.1162507.4521568-.0811062.6121555.0850646.1599987.1661707.1855498.4202324.0618445.6149354l-.655 1.048 1.587-.916c.2044458-.1175616.4632411-.0762811.6209674.0990507.1577262.1753318.171493.4370369.0330326.6279493l-.755 1.032.4-.229c.1549945-.0985297.351531-.1041539.5119064-.0146489.1603754.0895049.2587712.2597296.2562855.4433739s-.1054527.3511436-.2681919.436275l-2.451 1.415c-.0771814.0455611-.1653807.0690809-.255.068z" fill="#000000" fill-opacity="1" data-original-color="#b9bfccff" stroke="none" stroke-opacity="1"/><path id="Path" d="m20.5 24.471c-.2110877.0000797-.3994859-.1324134-.4707948-.3310917s-.010165-.4207362.1527948-.5549083l4.555-3.754-7.782 4.492c-.2256086.1271264-.5109479.0609576-.657579-.1524896-.1466312-.2134471-.106025-.5035297.093579-.6685104l4.753-3.84-5.72 3.3c-.2300482.1308569-.5222207.059778-.6664488-.1621318-.1442281-.2219099-.0905463-.5177734.1224488-.6748682l1.21-.879-.811.468c-.2237424.1292278-.5090949.0666972-.6582921-.1442547-.1491972-.2109518-.1130922-.5008356.0832921-.6687453l2.028-1.736-1.453.839c-.2115954.1229666-.4811022.0747006-.6368709-.1140573-.1557686-.1887578-.1520147-.4625268.0088709-.6469427l1.122-1.292-.494.285c-.1760274.1013494-.3958745.0861376-.5562661-.0384894-.1603915-.1246271-.2294497-.3338999-.1747339-.5295106l.255-.905c-.0868388-.0453158-.1587248-.1147709-.207-.2-.1380647-.2391402-.0561341-.5449248.183-.683l.5-.288c.1762551-.1023124.3969683-.0874119.5578724.0376624.160904.1250743.2297948.3352895.1741276.5313376l-.167.592 2.012-1.153c.2113234-.1216732.4795951-.0731604.6349231.1148162.155328.1879765.1524028.4605836-.0069231.6451838l-1.122 1.292 3.556-2.052c.2233421-.1266456.5063058-.0635478.6546834.1459871.1483776.209535.1139372.4973954-.0796834.6660129l-2.028 1.737 4.415-2.549c.2300482-.1308569.5222207-.059778.6664488.1621318.1442281.2219099.0905463.5177734-.1224488.6748682l-1.215.881 2.978-1.718c.2257586-.1294404.5130594-.0640705.6605892.1503047.1475298.2143751.1059565.5060712-.0955892.6706953l-4.752 3.837 7.453-4.3c.225024-.1298327.5119893-.0657046.6603401.147566s.108657.5046224-.0913401.670434l-4.555 3.753 3.849-2.221c.2279124-.1308241.5182022-.0628918.6643976.1554793.1461953.2183711.0983971.512647-.1093976.6735207l-.86.662c.2216468-.0816152.470173.0030046.5959635.2029173s.0945295.4605821-.0749635.6250827l-.944.914c.2428319-.0803594.5071561.0355076.6126121.2685398.1054561.2330321.0180349.5080776-.2026121.6374602l-3.398 1.953c-.2187434.1297091-.5000021.0745628-.6535686-.128145s-.1305136-.4883932.0535686-.663855l.916-.886-2.901 1.678c-.2279124.1308241-.5182022.0628918-.6643976-.1554793-.1461953-.2183711-.0983971-.512647.1093976-.6735207l.818-.63-2.527 1.459c-.0757745.0457731-.1624762.0702983-.251.071z" fill="#000000" fill-opacity="1" data-original-color="#b9bfccff" stroke="none" stroke-opacity="1"/></g><path id="Shape" d="m21.289.618c-9.7533886.08633525-18.19131721 6.81159251-20.451 16.3-2.561 11.032 5.049 21.682 11.575 29.859.733.917 1.79 2.509 2.974 4.07-4.021.229-11.93.907-12.109 4.254-.228 4.277 14.181 4.234 16.505 4.264 4.2582894.1250202 8.5169843-.2346238 12.694-1.072 1.534-.337 4.807-.859 5.752-2.392 2.505-4.059-9.244-4.919-12.229-5.112 7.242-8.035 15.338-18.3 15.722-29.248 0-.017-.012-.026-.014-.041s.017-.034.016-.053c-.365-11.205-8.864-20.825-20.435-20.829zm-12.048 39.5c-6.947-10.286-11.758-24.118-.875-33.881 13.249-11.883 31.365-.261 31.907 15.563-.407 10.8-8.413 20.711-15.218 28.52-.8.918-2.181 3.223-3.291 3.623-1.426.515-2.5-1.309-3.562-2.485-.186-.206-.364-.419-.548-.627l-.009-.009c-3.0334391-3.3802078-5.8408538-6.9566216-8.404-10.706zm27.639 14.244c1.373 4.084-13.03 4.229-14.663 4.25-4.665.06-9.894.009-14.355-1.58-2.535-.9-4.8-1.586-.079-4.2 2-1.1 5.665-1.167 8.142-1.3 1.349 1.7 2.817 3.236 4.139 3.642 1.89.581 3.094-1.282 4.239-2.527.338-.368.684-.748 1.028-1.127 3.013.156 10.745.45 11.549 2.842z" fill="#262626" fill-opacity="1" data-original-color="#262626ff" stroke="none" stroke-opacity="1"/><path id="Shape" d="m37.724 20.806c-.1034171-4.767477-2.2730337-9.2548271-5.9454181-12.29672215-3.6723843-3.04189502-8.4851941-4.338201-13.1885819-3.55227785-7.936 1.3-14.348 7.99-14.314 16.237.087 21.453 32.562 20.455 33.448-.388zm-32 0c.01861713-3.1089374.93237874-6.1467087 2.632-8.75 3.777-5.7 12.24-8.212 18.489-5.426 5.877 2.62 9.164 8.3 9.431 14.564-.443 10.415-10.526 18.9-21.121 14.176-5.72365234-2.5898655-9.4094399-8.2817126-9.431-14.564z" fill="#262626" fill-opacity="1" data-original-color="#262626ff" stroke="none" stroke-opacity="1"/><path id="Shape" d="m23.319 29.568c.439 2.747 5.252 2.151 5.4-.666 0-.018-.011-.027-.013-.043s.016-.034.015-.053c-.0330521-1.1103286-.8932056-2.0195108-2-2.114v-2.285h.491c.0981158-.0046338.1947733-.0255875.286-.062.0958663-.0049544.1906716-.0224362.282-.052 2.058-.709 2.039-3.653 2.5-5.494.4-1.6.81-2.957-1.274-3.2-4.3-.493-8.914-.037-13.267-.005.043-.871.185-2.068-.418-2.65-.718-.7-2.151-.428-3.061-.428-.326 0-.8.089-.948.426-.136.3.118.544.424.544h1.179c.343 0 .91-.108 1.166.166.287.308.186.854.186 1.238v1.179c0 .025.015.041.019.064-.0061069.0202026-.0101279.0409778-.012.062 0 2.515-1.081 7.317 2 8.107v2.5c-1.1276398.2310791-1.9526686 1.2009005-2 2.351-.017 2.959 4.44 2.748 5.3.42zm2.7 1.012c-.7694444-.2184291-1.2964022-.9262338-1.285-1.726 0-.758.513-1.677 1.378-1.386.7002577.2726945 1.1602209.9485263 1.157 1.7-.054.68-.42 1.572-1.249 1.412zm-.744-3.794c-.8601802.2020509-1.5632331.8192376-1.875 1.646h-3.74c-.1936108-.9394428-.9780187-1.6422853-1.933-1.732v-2.235c2.486.15 5.038.025 7.549-.035zm-9.552-6.3h4.981c.0112067.0029107.0225549.0052471.034.007h4c.309 0 .821-.085.948-.428.0554377-.1328318.0352337-.2852063-.0529052-.3990007s-.2306202-.1714595-.3730948-.1509993h-4c-.028 0-.064 0-.095.007h-5.441v-3.122h10.11c1.6 0 3.307-.558 3.274 1.488-.016.931-.751 4.942-1.709 5.714-2.921.034-6.124.422-8.979-.006-1.194-.179-.794.335-1.9-.9-.6683549-.5239977-.9776903-1.3843854-.796-2.214zm1.227 10.081c-.7313565-.2513133-1.220456-.9416883-1.215-1.715-.0506179-.6218916.3164191-1.2022179.9-1.423.1164499.0218339.2356805.024536.353.008.0541915.0068316.1077132.018205.16.034.6823947.2891279 1.1252203.958882 1.124 1.7-.059.696-.461 1.659-1.322 1.396z" fill="#262626" fill-opacity="1" data-original-color="#262626ff" stroke="none" stroke-opacity="1"/></g></g></svg>