<svg id="Icons" height="512" viewBox="0 0 60 60" width="512" xmlns="http://www.w3.org/2000/svg"><path d="m15.426 59.47a.5.5 0 0 1 -.264-.925l9.347-5.809-11.521 6.652a.5.5 0 0 1 -.514-.857l13.295-8.292-14.716 8.5a.5.5 0 0 1 -.512-.858l8.577-5.266-9.033 5.215a.5.5 0 0 1 -.511-.859l6.536-3.991-6.588 3.8a.5.5 0 0 1 -.509-.859l5.766-3.521-5.49 3.169a.5.5 0 0 1 -.516-.856l18.461-11.563-17.955 10.367a.5.5 0 0 1 -.512-.859l12.5-7.706-11.988 6.92a.5.5 0 0 1 -.509-.86l3.2-1.944-2.691 1.554a.5.5 0 0 1 -.51-.859l6.9-4.21-6.39 3.687a.5.5 0 0 1 -.508-.86l.452-.274a.5.5 0 0 1 -.458-.885l15.485-9.621-14.972 8.648a.5.5 0 0 1 -.512-.857l13.734-8.491-13.222 7.631a.5.5 0 0 1 -.512-.857l14.034-8.684-13.523 7.81a.5.5 0 0 1 -.509-.859l5.374-3.273-4.865 2.805a.5.5 0 0 1 -.51-.86l7.507-4.586-7 4.039a.5.5 0 0 1 -.509-.859l5.761-3.507-5.25 3.032a.5.5 0 0 1 -.508-.861l1.365-.828-.857.494a.5.5 0 0 1 -.515-.856l17.176-10.797-16.661 9.616a.5.5 0 0 1 -.514-.857l14.652-9.163-14.138 8.166a.5.5 0 0 1 -.511-.859l5.781-3.547-5.271 3.043a.5.5 0 0 1 -.519-.853l15.476-9.892-14.957 8.635a.5.5 0 0 1 -.513-.858l5.138-3.186-4.625 2.671a.5.5 0 0 1 -.513-.858l2.693-1.67-2.181 1.254a.5.5 0 0 1 -.523-.851l10.943-7.15-10.42 6.016a.5.5 0 0 1 -.529-.847l10.555-7.123-10.027 5.785a.5.5 0 0 1 -.518-.854l.84-.535-.322.185a.5.5 0 0 1 -.534-.843l6.813-4.709-6.279 3.622a.5.5 0 0 1 -.55-.832l6.423-4.84-5.874 3.39a.5.5 0 0 1 -.547-.834l3.1-2.3-2.553 1.472a.5.5 0 0 1 -.571-.815l2.544-2.132-1.163.669a.5.5 0 0 1 -.6-.793l2.518-2.416a.5.5 0 0 1 .224-.6l1.04-.6a.5.5 0 0 1 .6.794l-.717.689 2.566-1.474a.5.5 0 0 1 .571.815l-2.544 2.129 5.108-2.944a.5.5 0 0 1 .548.834l-3.1 2.3 5.433-3.134a.5.5 0 0 1 .551.832l-6.423 4.839 9.826-5.672a.5.5 0 0 1 .534.844l-6.817 4.707 9.628-5.557a.5.5 0 0 1 .519.854l-.837.532 2.405-1.387a.5.5 0 0 1 .53.846l-10.545 7.124 13.8-7.971a.5.5 0 0 1 .524.851l-10.944 7.15 13.861-8a.5.5 0 0 1 .513.857l-2.677 1.661 4.364-2.519a.5.5 0 0 1 .514.857l-5.154 3.2 7.029-4.059a.5.5 0 0 1 .519.853l-15.482 9.9 18.621-10.754a.5.5 0 0 1 .512.858l-5.74 3.521 6.127-3.537a.5.5 0 0 1 .515.856l-14.648 9.161 15.234-8.8a.5.5 0 0 1 .516.857l-17.2 10.805 17.888-10.321a.5.5 0 0 1 .509.861l-1.352.819 1.551-.895a.5.5 0 0 1 .51.86l-5.741 3.5 5.451-3.147a.5.5 0 0 1 .51.86l-7.507 4.586 7-4.039a.5.5 0 0 1 .509.859l-5.374 3.272 4.865-2.807a.5.5 0 0 1 .512.857l-14.027 8.677 13.512-7.8a.5.5 0 0 1 .512.858l-13.753 8.5 13.241-7.641a.5.5 0 0 1 .513.857l-15.485 9.617 14.972-8.642a.5.5 0 0 1 .509.86l-.451.273a.5.5 0 0 1 .452.889l-6.9 4.209 6.389-3.687a.5.5 0 0 1 .509.86l-3.2 1.944 2.693-1.554a.5.5 0 0 1 .512.858l-12.5 7.706 11.987-6.921a.5.5 0 0 1 .515.856l-18.463 11.568 17.948-10.361a.5.5 0 0 1 .509.859l-5.792 3.531 5.283-3.05a.5.5 0 0 1 .51.859l-6.5 3.968 5.987-3.456a.5.5 0 0 1 .511.858l-8.593 5.277 8.085-4.666a.5.5 0 0 1 .514.856l-13.291 8.289 12.777-7.376a.5.5 0 0 1 .513.858l-9.365 5.82 8.852-5.11a.5.5 0 0 1 .52.853l-14.288 9.184 13.768-7.954a.5.5 0 0 1 .522.853l-12.263 7.96 11.741-6.777a.5.5 0 0 1 .524.85l-10.444 6.861 9.922-5.728a.5.5 0 0 1 .518.855l-3.111 1.979 2.593-1.5a.5.5 0 0 1 .534.844l-8.856 6.132 8.32-4.8a.5.5 0 0 1 .522.852l-.7.455.179-.1a.5.5 0 0 1 .534.844l-3.911 2.7 3.377-1.949a.5.5 0 0 1 .559.825l-4.866 3.844 4.306-2.486a.5.5 0 0 1 .551.832l-1.288.968.737-.425a.5.5 0 0 1 .595.794l-1.759 1.686.922-.532a.5.5 0 0 1 .5.865l-4.51 2.6a.5.5 0 0 1 -.6-.794l1.759-1.684-4.289 2.476a.5.5 0 0 1 -.551-.832l1.29-.969-3.122 1.8a.5.5 0 0 1 -.559-.825l4.864-3.844-8.087 4.67a.5.5 0 0 1 -.534-.843l3.909-2.7-6.142 3.543a.5.5 0 0 1 -.522-.851l.7-.452-2.259 1.3a.5.5 0 0 1 -.534-.843l8.857-6.13-12.085 6.976a.5.5 0 0 1 -.518-.854l3.1-1.976-4.9 2.83a.5.5 0 0 1 -.524-.85l10.45-6.864-13.36 7.714a.5.5 0 0 1 -.523-.852l12.263-7.948-15.257 8.8a.5.5 0 0 1 -.521-.853l14.289-9.184-17.386 10.037a.5.5 0 0 1 -.25.07z" fill="#e83f58"/><path d="m49.615 15.456a.5.5 0 0 1 -.378-.827l.4-.46-2.007 1.157a.5.5 0 0 1 -.613-.775l1.6-1.7-3.476 2.006a.5.5 0 0 1 -.6-.787l2.179-2.163-3.72 2.145a.5.5 0 0 1 -.59-.8l2.336-2.169-3.458 2a.5.5 0 0 1 -.592-.8l2.684-2.513-3.923 2.264a.5.5 0 0 1 -.556-.828l1.02-.788-8.434 4.869a.5.5 0 0 1 -.54-.84l6.086-4.325-8.692 5.019a.5.5 0 0 1 -.532-.846l4.7-3.2-5.968 3.445a.5.5 0 0 1 -.541-.847l5.239-3.687-6.423 3.708a.5.5 0 0 1 -.537-.842l3.957-2.772-4.836 2.789a.5.5 0 0 1 -.532-.845l1.6-1.094-2.168 1.25a.5.5 0 0 1 -.562-.823l4.5-3.586-12.975 7.488a.5.5 0 0 1 -.538-.841l6.393-4.515-9.192 5.306a.5.5 0 0 1 -.526-.849l2.784-1.846-3.323 1.918a.5.5 0 0 1 -.547-.835l6.354-4.681-6.368 3.678a.5.5 0 0 1 -.539-.841l3.117-2.2a.506.506 0 0 1 -.438-.208.5.5 0 0 1 .077-.668l3.2-2.79a.5.5 0 0 1 -.152-.542l.208-.62a.484.484 0 0 1 -.166-.173.5.5 0 0 1 .182-.682l.5-.289a.5.5 0 0 1 .711.587l-.08.239 1.446-.827a.5.5 0 0 1 .579.809l-1.908 1.661 4.293-2.478a.5.5 0 0 1 .539.841l-2.661 1.881 4.72-2.724a.5.5 0 0 1 .547.835l-6.349 4.675 9.556-5.518a.5.5 0 0 1 .674.169.5.5 0 0 1 -.148.681l-2.8 1.855 4.692-2.703a.5.5 0 0 1 .538.841l-6.396 4.516 9.285-5.36a.5.5 0 0 1 .562.823l-4.5 3.585 7.641-4.412a.5.5 0 0 1 .533.845l-1.6 1.1 3.369-1.945a.5.5 0 0 1 .537.842l-3.952 2.771 6.267-3.618a.5.5 0 0 1 .538.842l-5.239 3.686 7.85-4.533a.5.5 0 0 1 .532.846l-4.7 3.207 6.355-3.667a.5.5 0 0 1 .54.84l-6.084 4.323 5.683-3.281a.5.5 0 0 1 .556.828l-1.015.788 1.242-.717a.5.5 0 0 1 .591.8l-2.68 2.513 3.535-2.047a.5.5 0 0 1 .59.8l-2.336 2.17 3.216-1.857a.5.5 0 0 1 .6.787l-2.18 2.163 3.1-1.786a.5.5 0 0 1 .613.776l-1.6 1.7 1.626-.939a.5.5 0 0 1 .628.76l-.694.8a.492.492 0 0 1 .3.232.5.5 0 0 1 -.182.683l-1.9 1.095a.489.489 0 0 1 -.254.072z" fill="#ffd257"/><path d="m30.279 52.452a.5.5 0 0 1 -.309-.892l2.592-2.046-4.313 2.486a.5.5 0 0 1 -.545-.836l4.67-3.414-5.828 3.364a.5.5 0 0 1 -.546-.834l7.462-5.393-8.562 4.944a.5.5 0 0 1 -.537-.842l8.68-6.089-9.538 5.5a.5.5 0 0 1 -.529-.847l7.54-5.069-8.049 4.647a.5.5 0 0 1 -.527-.849l7.36-4.888-7.752 4.475a.5.5 0 0 1 -.529-.848l8.59-5.76-8.967 5.177a.5.5 0 0 1 -.521-.854l3.269-2.1-3.328 1.926a.5.5 0 0 1 -.519-.854l1.909-1.217-1.9 1.1a.5.5 0 0 1 -.525-.851l6.073-3.988-6.15 3.55a.5.5 0 0 1 -.534-.843l8.33-5.769-8.479 4.9a.5.5 0 0 1 -.543-.837l7.441-5.418-7.484 4.317a.5.5 0 0 1 -.527-.85l.22-.144a.505.505 0 0 1 -.584-.2.5.5 0 0 1 .135-.678l2.1-1.473-1.725 1a.5.5 0 0 1 -.555-.829l2.655-2.041-2 1.153a.5.5 0 0 1 -.567-.819l1.34-1.1-.02.011a.5.5 0 0 1 -.631-.757l1.747-2.053a.5.5 0 0 1 .2-.662l.8-.463a.5.5 0 0 1 .63.757l-.737.867 2.815-1.619a.5.5 0 0 1 .567.819l-1.34 1.1 3.323-1.919a.5.5 0 0 1 .555.829l-2.655 2.035 4.966-2.866a.5.5 0 0 1 .537.842l-2.106 1.475 4.019-2.319a.5.5 0 0 1 .526.849l-.088.058 1.574-.908a.5.5 0 0 1 .544.837l-7.442 5.419 10.843-6.265a.5.5 0 0 1 .534.844l-8.328 5.77 10.919-6.3a.5.5 0 0 1 .524.85l-6.075 3.982 6.321-3.65a.5.5 0 0 1 .519.855l-1.914 1.209 2.033-1.173a.5.5 0 0 1 .52.853l-3.269 2.1 3.416-1.974a.5.5 0 0 1 .528.848l-8.594 5.763 8.659-5a.5.5 0 0 1 .526.849l-7.36 4.89 6.934-4a.5.5 0 0 1 .53.847l-7.541 5.07 6.663-3.847a.5.5 0 0 1 .537.842l-8.682 6.091 7.217-4.166a.5.5 0 0 1 .543.838l-7.46 5.392 5.406-3.121a.5.5 0 0 1 .545.836l-4.667 3.416 2.268-1.309a.5.5 0 0 1 .559.826l-3.033 2.393a.5.5 0 0 1 .223.932l-5.272 3.044a.491.491 0 0 1 -.25.066z" fill="#c13852"/><path d="m40.013 30.175a.5.5 0 0 1 -.314-.111.5.5 0 0 1 -.163-.542l.187-.582-1.426.823a.5.5 0 0 1 -.7-.647l.518-1.095-2.634 1.52a.5.5 0 1 1 -.5-.865l4.019-2.322a.5.5 0 0 1 .7.647l-.518 1.1 1.159-.669a.5.5 0 0 1 .726.585l-.186.582.354-.2a.5.5 0 1 1 .5.865l-1.473.85a.5.5 0 0 1 -.249.061z" fill="#7ade8a"/><path d="m34.209 34.341a.5.5 0 0 1 -.464-.687l.624-1.552-1.879 1.085a.5.5 0 0 1 -.631-.757l.833-.978-1.269.733a.5.5 0 0 1 -.556-.829l1.269-.981-1.385.8a.5.5 0 0 1 -.57-.817l1.77-1.48-1.646.95a.5.5 0 1 1 -.5-.865l6.645-3.836a.5.5 0 0 1 .571.816l-1.767 1.477 2.815-1.62a.5.5 0 0 1 .556.828l-3.335 2.572a.533.533 0 0 1 .046.049.5.5 0 0 1 0 .645l-.832.976.623-.359a.5.5 0 0 1 .714.619l-.651 1.619a.49.49 0 0 1 .485.247.5.5 0 0 1 -.184.683l-1.029.593a.5.5 0 0 1 -.253.069z" fill="#7ade8a"/><path d="m24.924 34.117a.5.5 0 0 1 -.295-.9l3.732-2.728-3.573 2.063a.5.5 0 0 1 -.555-.829l3.209-2.47-2.373 1.369a.5.5 0 0 1 -.556-.828l1.387-1.08-1.473.85a.5.5 0 0 1 -.552-.832l1.343-1.013-3.713 2.143a.5.5 0 0 1 -.569-.818l.693-.571-3.241 1.871a.5.5 0 0 1 -.572-.817l1.542-1.289a.5.5 0 0 1 -.1-.909l3.864-2.229a.5.5 0 0 1 .571.816l-.817.683 3.456-2a.5.5 0 0 1 .568.819l-.69.569 5.526-3.19a.5.5 0 0 1 .552.832l-1.347 1.021.806-.464a.5.5 0 0 1 .557.828l-1.386 1.074 2.552-1.473a.5.5 0 0 1 .554.829l-3.207 2.469 5.1-2.942a.5.5 0 0 1 .545.836l-6.773 4.95a.485.485 0 0 1 .055.079.5.5 0 0 1 -.182.683l-4.388 2.531a.491.491 0 0 1 -.25.067z" fill="#7ade8a"/><path d="m28.03 24.735a.5.5 0 0 1 -.333-.873l.414-.37a.5.5 0 0 1 -.544-.682l.669-1.632a.507.507 0 0 1 -.587-.227.5.5 0 0 1 .184-.683l1.167-.668a.5.5 0 0 1 .713.623l-.661 1.615 2.636-1.522a.5.5 0 0 1 .583.806l-.39.348a.5.5 0 0 1 .351.923l-3.952 2.275a.489.489 0 0 1 -.25.067z" fill="#7ade8a"/><path d="m24.7 42.417a.5.5 0 0 1 -.369-.837l.053-.059-.279.162a.5.5 0 0 1 -.652-.731l1.189-1.6-1.274.735a.5.5 0 0 1 -.658-.722l.621-.877a.5.5 0 0 1 -.263-.932l1.658-.956a.5.5 0 0 1 .619.095.5.5 0 0 1 .039.626l-.536.757 1.386-.8a.5.5 0 0 1 .652.731l-1.191 1.6.978-.563a.5.5 0 0 1 .619.769l-.668.733a.491.491 0 0 1 .156.167.5.5 0 0 1 -.182.682l-1.648.952a.489.489 0 0 1 -.25.068z" fill="#9b2d47"/><path d="m34.816 42.444a.5.5 0 0 1 -.4-.8l.7-.938-1.206.7a.5.5 0 0 1 -.6-.784l.39-.4-.255.146a.5.5 0 0 1 -.675-.694l.755-1.231a.5.5 0 0 1 -.454-.889l1.658-.956a.5.5 0 0 1 .675.694l-.752 1.226 1.748-1.012a.5.5 0 0 1 .606.784l-.389.394.1-.055a.5.5 0 0 1 .65.731l-.96 1.288a.5.5 0 0 1 .087.906l-1.427.823a.489.489 0 0 1 -.251.067z" fill="#9b2d47"/><path d="m29.187 48.112a.5.5 0 0 1 -.358-.85l.2-.2-.241.139a.5.5 0 0 1 -.63-.758l.865-1.009-.707.408a.5.5 0 0 1 -.639-.746l.5-.622a.5.5 0 0 1 -.113-.913l1.658-.956a.5.5 0 0 1 .63.107.5.5 0 0 1 .009.639l-.235.292.931-.536a.5.5 0 0 1 .629.757l-.863 1.008.879-.508a.5.5 0 0 1 .608.784l-.493.5a.5.5 0 0 1 .172.926l-2.553 1.475a.494.494 0 0 1 -.249.063z" fill="#9b2d47"/><path d="m34.019 6.47a.5.5 0 0 1 -.3-.9l.444-.342-2.034 1.172a.5.5 0 0 1 -.561-.824l.927-.736-2.7 1.56a.5.5 0 0 1 -.559-.826l.722-.564-2.414 1.39a.5.5 0 0 1 -.6-.791l2.208-2.153-5.1 2.944a.5.5 0 0 1 -.593-.8l2.113-1.986-4.821 2.786a.5.5 0 0 1 -.608-.781l2.291-2.354-5.434 3.135a.5.5 0 0 1 -.558-.826l.693-.542-2.369 1.368a.5.5 0 0 1 -.6-.789l2.224-2.185-3.737 2.158a.5.5 0 0 1 -.564-.821l.149-.121a.5.5 0 0 1 -.62-.722l.9-1.477a.5.5 0 0 1 -.456-.887l1.66-.956a.5.5 0 0 1 .676.693l-.9 1.472 3.754-2.165a.5.5 0 0 1 .564.821l-.129.1 1.605-.921a.5.5 0 0 1 .6.789l-2.223 2.182 5.152-2.971a.5.5 0 0 1 .558.826l-.694.544 2.373-1.37a.5.5 0 0 1 .608.781l-2.291 2.352 5.433-3.133a.5.5 0 0 1 .592.8l-2.113 1.981 4.821-2.781a.5.5 0 0 1 .6.791l-2.208 2.151 5.1-2.942a.5.5 0 0 1 .558.826l-.723.566 2.413-1.392a.5.5 0 0 1 .56.824l-.927.736 2.705-1.56a.5.5 0 0 1 .554.829l-.444.342 2.029-1.171a.5.5 0 0 1 .613.776l-2.316 2.45 5.519-3.185a.5.5 0 0 1 .586.8l-1.942 1.766 2.705-1.561a.5.5 0 0 1 .6.791l-1.12 1.086.751-.432a.5.5 0 0 1 .641.743l-.55.694a.5.5 0 0 1 .123.916l-1.656.956a.5.5 0 0 1 -.641-.743l.307-.387-1.963 1.13a.5.5 0 0 1 -.6-.791l1.118-1.086-3.251 1.877a.5.5 0 0 1 -.586-.8l1.937-1.763-4.441 2.563a.5.5 0 0 1 -.613-.776l2.317-2.453-5.594 3.229a.5.5 0 0 1 -.25.07z" fill="#f5b635"/><g fill="#262626"><path d="m49.673 8.6a13.785 13.785 0 0 1 -2.72-2.356c2.617-.915 2.376-5.868-.853-5.731-8.816-.04-17.639.026-26.457 0-2.767.316-7.795-1.328-8.374 2.587-.114 1.493.39 2.841 1.765 3.255-1.8 2.518-8.324 4.572-4.758 8.328v39.18a4.745 4.745 0 0 0 5.624 5.48c52.013-.188 35 6.791 37.824-44.826 2.363-2.13.151-4.823-2.051-5.917zm-36.942-5.5c-.088-3.507 18.293-.814 21.935-1.613 3.959.461 8.714-.969 12.282.639.69.955.473 3.318-.939 3.388h-29.509c-1.819.168-4.1.027-3.769-2.414zm1.725 3.41c10.319-.039 20.638-.019 30.958-.023 1.375 2.552 5.518 3.151 5.848 6.179-1.174 4.041-7.791.866-10.119-.7-3.536-2.717-6.614 2.609-10.346 2.5-2.779.295-5.427-1.356-7.687-2.759-3.677-1.91-6.371 3.005-10.25 2.709-1.1.124-2.566.342-3.434-.486-2.988-2.849 3.464-4.994 5.03-7.42zm35.732 49.448c.409 5.389-28.3 1.664-33.712 2.7-9.67 1.82-6.163-9.7-6.752-15.528v-27.75a14.358 14.358 0 0 0 8.905-1.9c.941-.547 1.882-1.662 3.118-1.135 2.391 1.3 4.775 3.032 7.634 3.137 2.648.152 5.232-1.075 7.452-2.4 2.867-2.732 7.223 4.068 13.443 2.238-.092 13.538.173 27.127-.088 40.638z"/><path d="m42.465 28.882c-2.178-3.143-6.08-4.331-9.738-4.271.063-2.378.609-5.741-2.886-5.007-3.137-.327-2.594 2.905-2.57 5.029-2.563-.286-11.159 2.622-9.539 5.8-4.115 6.854 2.358 16.143 7.782 20.485 8.918 6.421 22.049-13.56 16.774-20.766a.864.864 0 0 0 .177-1.27zm-23.145-.262c5.15-6.149 10.443.7 9.4-7.746-.119-.784.782-.44 1.218-.478 2.363-.125 1 3.327 1.334 4.8 3.772.248 7.583 1.037 10.05 4.385-9.775-1.758-6.275-1.406-6.827 3.869-1.8-.85-3.661-2.377-3.775-4.512 0-.423-1.441-.146-1.447.289a5.136 5.136 0 0 1 -3.044 4.038c-1.733.686-.829-3.39-.3-4.228.1-.23-.314-.3-.437-.3a24.272 24.272 0 0 0 -6.813.968c-.16-.162.528-.954.641-1.085zm21.314 11.885c-2.434 4.831-7.764 14.637-14.092 9.665-5.885-4.017-15.205-21.333-2.188-20.628-2.391 6.219 2.629 5.688 5.549 1.751 2.585 4.077 8.043 4.191 5.868-1.727 7.017-.86 7.645 6.049 4.863 10.939z"/><path d="m25.451 36.451c-3.688-.451-4.151 4.849-1.109 6.033 3.386.716 4.907-5.684 1.109-6.033zm.6 3.655c-.2.519-.635 1.4-1.076 1.285-.992-.723-1.726-2.525-.823-3.519.024-.016.472-.278.32-.223 1.428-.488 2.179 1.375 1.58 2.457z"/><path d="m35.435 36.642c-3.541-.387-4.219 4.663-1.087 5.692 3.278.537 4.963-5.524 1.087-5.692zm.006 4.725a1.56 1.56 0 0 1 -.235.238c-1.377-.7-2.218-3.613-.55-4.244 2.036.169 1.899 2.839.785 4.006z"/><path d="m30.539 42.7c-3.5-.433-4.413 4.422-1.283 5.568 3.221.624 5.132-5.315 1.283-5.568zm-1.02.6h.018c-.014 0-.02 0-.018 0zm.933 4.107a2.478 2.478 0 0 1 -.2.212c-1.394-.7-2.225-3.292-.743-4.3 2.114.032 2.104 2.862.943 4.087z"/></g></svg>