<svg xmlns="http://www.w3.org/2000/svg" id="Icons" viewBox="0 0 60 60" width="300" height="300" version="1.1" xmlns:xlink="http://www.w3.org/1999/xlink" xmlns:svgjs="http://svgjs.dev/svgjs"><g width="100%" height="100%" transform="matrix(1,0,0,1,0,0)"><defs><style>.cls-1{fill:#d39c5b;}.cls-2{fill:#f6d0b3;}.cls-3{fill:#fff;}.cls-4{fill:#262626;}</style></defs><path class="" d="M15,59.47a.5.5,0,0,1-.259-.928l1.915-1.158-3.5,2.018a.5.5,0,0,1-.511-.859l10.906-6.654L10.542,59.4a.5.5,0,0,1-.515-.857L33.071,44.2,6.745,59.4a.5.5,0,0,1-.514-.857L31.89,42.626,3.183,59.2a.5.5,0,0,1-.509-.86l13.115-7.925L2.008,58.371a.5.5,0,0,1-.509-.86l13.147-7.936L1.389,57.229a.5.5,0,0,1-.51-.859l21.657-13.2L1.28,55.446a.5.5,0,0,1-.509-.86L18.954,43.561,1.28,53.764A.5.5,0,0,1,.771,52.9l15.046-9.091L1.28,52.2a.5.5,0,0,1-.509-.86l13.6-8.207L1.28,50.7a.5.5,0,0,1-.507-.861l6.817-4.09L1.28,49.387a.5.5,0,0,1-.511-.859l25.8-15.82L1.28,47.306a.5.5,0,0,1-.508-.862l9.63-5.79L1.28,45.921a.5.5,0,0,1-.509-.86l16.145-9.768L1.28,44.32a.5.5,0,0,1-.508-.861l11.84-7.133L1.28,42.869a.5.5,0,0,1-.511-.858l27.618-17L1.28,40.663a.5.5,0,0,1-.509-.86l17.5-10.6L1.28,39.009a.5.5,0,0,1-.511-.86L26.1,22.627,1.28,36.954A.5.5,0,0,1,.771,36.1L20.254,24.246,1.28,35.2a.5.5,0,0,1-.508-.861L6.339,31,1.28,33.918a.5.5,0,0,1-.513-.857l24.85-15.389L1.28,31.723a.5.5,0,0,1-.51-.86l16.191-9.91L1.28,30.006a.5.5,0,0,1-.512-.859L18.376,18.271l-17.1,9.87a.5.5,0,0,1-.509-.86L7.484,23.2l-6.2,3.581a.5.5,0,0,1-.509-.859L5.72,22.9,1.28,25.467a.5.5,0,0,1-.513-.858l12.077-7.5L1.28,23.788a.5.5,0,0,1-.511-.858L6.33,19.51,1.28,22.425a.5.5,0,0,1-.517-.856l12.09-7.641L1.28,20.608a.5.5,0,0,1-.514-.856l6.585-4.118-6.071,3.5a.5.5,0,0,1-.517-.855l7.8-4.953-7.282,4.2a.5.5,0,0,1-.522-.851l9.1-5.928L1.28,15.706a.5.5,0,0,1-.525-.85L8.417,9.8,1.28,13.917a.5.5,0,0,1-.537-.842L9.126,7.209,1.28,11.738A.5.5,0,0,1,.741,10.9L6.417,6.881,1.28,9.847a.5.5,0,0,1-.556-.828L5.733,5.135,1.28,7.705a.5.5,0,0,1-.558-.826L3.122,5,1.28,6.061a.5.5,0,0,1-.592-.8l1.74-1.628-1.139.656a.5.5,0,0,1-.615-.774L1.436,2.7a.488.488,0,0,1-.254-.217A.5.5,0,0,1,1.364,1.8L3.414.62a.5.5,0,0,1,.615.775L3.7,1.744,5.689.6a.5.5,0,0,1,.592.8L4.544,3.021,8.744.6a.5.5,0,0,1,.559.826L6.9,3.3,11.592.6a.5.5,0,0,1,.556.828L7.139,5.311,15.3.6a.5.5,0,0,1,.539.84L10.167,5.453,18.577.6a.5.5,0,0,1,.537.841l-8.386,5.87L22.353.6a.5.5,0,0,1,.525.849l-7.66,5.059L25.451.6a.5.5,0,0,1,.523.851l-9.1,5.926L28.617.6a.5.5,0,0,1,.518.854L21.336,6.4,31.4.6a.5.5,0,0,1,.514.856l-6.58,4.115L33.941.6a.5.5,0,0,1,.518.855L22.361,9.1,37.089.6a.5.5,0,0,1,.512.858l-5.537,3.4L39.448.6a.5.5,0,0,1,.514.857L27.88,8.955,42.356.6a.5.5,0,0,1,.51.859l-4.958,3.02L44.627.6a.5.5,0,0,1,.51.859L38.423,5.542,46.988.6a.5.5,0,0,1,.513.858L29.9,12.331,50.219.6a.5.5,0,0,1,.51.859l-16.181,9.9L53.191.6a.5.5,0,0,1,.514.857L28.847,16.849,56.709.763a.5.5,0,0,1,.508.861L51.65,4.965,57.8,1.418a.5.5,0,0,1,.51.859L38.831,14.12,58.591,2.712a.5.5,0,0,1,.512.859L33.771,19.1,58.72,4.692a.5.5,0,0,1,.509.861L41.751,16.143l16.969-9.8a.5.5,0,0,1,.511.858l-27.618,17L58.72,8.552a.5.5,0,0,1,.508.861L47.355,16.564,58.72,10a.5.5,0,0,1,.509.86l-16.12,9.752L58.72,11.6a.5.5,0,0,1,.508.861l-9.665,5.81,9.157-5.286a.5.5,0,0,1,.511.859L33.45,29.659l25.27-14.59a.5.5,0,0,1,.507.862l-6.817,4.09,6.31-3.643a.5.5,0,0,1,.509.86l-13.6,8.207L58.72,17.887a.5.5,0,0,1,.509.86L44.156,27.855,58.72,19.447a.5.5,0,0,1,.509.861L41.069,31.319,58.72,21.129a.5.5,0,0,1,.509.859l-21.655,13.2L58.72,22.975a.5.5,0,0,1,.509.86L46.054,31.787,58.72,24.475a.5.5,0,0,1,.509.86l-13.1,7.915L58.72,25.981a.5.5,0,0,1,.513.858L33.565,42.764,58.72,28.241a.5.5,0,0,1,.514.858L36.187,43.442,58.72,30.434a.5.5,0,0,1,.51.859L48.348,37.934,58.72,31.945a.5.5,0,0,1,.509.861l-1.945,1.176,1.436-.829a.5.5,0,0,1,.515.857L42.26,44.642l16.46-9.5a.5.5,0,0,1,.509.859l-1.907,1.162,1.4-.807a.5.5,0,0,1,.51.86L56.28,39.02l2.44-1.409a.5.5,0,0,1,.519.854L45.1,47.507,58.72,39.644a.5.5,0,0,1,.52.853l-11.876,7.64L58.72,41.581a.5.5,0,0,1,.521.853L49.72,48.588l9-5.195a.5.5,0,0,1,.531.845L48.13,51.813,58.72,45.7a.5.5,0,0,1,.537.842l-9.094,6.394L58.72,48a.5.5,0,0,1,.533.845L54.3,52.254,58.72,49.7a.5.5,0,0,1,.551.831l-5.26,3.981,4.709-2.719a.5.5,0,0,1,.558.825L56.2,55.039l2.52-1.454a.5.5,0,0,1,.612.777l-2.325,2.444,1.7-.979a.5.5,0,0,1,.609.781l-.694.712a.5.5,0,0,1,.018.876l-2.05,1.184a.5.5,0,0,1-.608-.781l.1-.1-1.568.9a.5.5,0,0,1-.612-.777l2.323-2.442L50.643,59.4a.5.5,0,0,1-.559-.825l3.079-2.422L47.538,59.4a.5.5,0,0,1-.552-.831l5.262-3.98L43.913,59.4a.5.5,0,0,1-.533-.844l4.956-3.413L40.96,59.4a.5.5,0,0,1-.537-.841l9.1-6.4L36.982,59.4a.5.5,0,0,1-.531-.845l11.117-7.572L32.988,59.4a.5.5,0,0,1-.521-.852L41.983,52.4l-12.131,7a.5.5,0,0,1-.521-.853L41.21,50.907,26.5,59.4a.5.5,0,0,1-.519-.853l14.138-9.041L22.976,59.4a.5.5,0,0,1-.511-.859l2.963-1.814L20.8,59.4a.5.5,0,0,1-.51-.859L22.2,57.378,18.693,59.4a.5.5,0,0,1-.515-.856L35.153,47.914,15.253,59.4A.5.5,0,0,1,15,59.47Z" fill="#ffc107" fill-opacity="1" data-original-color="#d39c5bff" stroke="none" stroke-opacity="1"/><path class="" d="M37.386,17.462a.5.5,0,0,1-.426-.762l.547-.888-1.426.823a.5.5,0,0,1-.625-.764l1.106-1.251-1.925,1.111a.5.5,0,0,1-.583-.8l.962-.859-1.581.912a.5.5,0,0,1-.579-.81l1.843-1.6-2.66,1.536a.5.5,0,0,1-.57-.816l2.716-2.266L23.354,17.277a.5.5,0,0,1-.533-.844L28.113,12.8l-6.64,3.834a.5.5,0,0,1-.53-.848L26.58,12l-5.3,3.06a.5.5,0,0,1-.534-.844l7.8-5.392-7.268,4.2a.5.5,0,0,1-.525-.85L24.37,9.778l-3.09,1.784a.5.5,0,0,1-.535-.844l4.724-3.28L21.28,9.856a.5.5,0,0,1-.552-.83l4.817-3.672L21.28,7.815a.5.5,0,0,1-.562-.823l2.794-2.233L21.28,6.047a.5.5,0,0,1-.557-.826l.405-.318a.489.489,0,0,1-.484-.173.5.5,0,0,1,.01-.647l.973-1.1-.347.2a.5.5,0,0,1-.729-.573l.246-.843a.492.492,0,0,1-.2-.193A.5.5,0,0,1,20.78.886l.5-.289a.5.5,0,0,1,.73.573l-.152.518,1.9-1.095a.5.5,0,0,1,.626.762l-.972,1.106L26.656.588a.5.5,0,0,1,.558.826l-.254.2L28.743.584a.5.5,0,0,1,.563.823l-2.8,2.236L31.816.579a.5.5,0,0,1,.553.83L27.553,5.081,35.361.573a.5.5,0,0,1,.535.844L31.173,4.7,38.323.568a.5.5,0,0,1,.526.85L35.239,3.8,38.72,1.792a.5.5,0,0,1,.534.844l-7.8,5.391L38.72,3.832a.5.5,0,0,1,.529.848L33.61,8.472l5.11-2.95a.5.5,0,0,1,.533.845L33.964,10,38.72,7.252a.5.5,0,0,1,.57.816l-2.714,2.264L38.72,9.1a.5.5,0,0,1,.578.81l-1.842,1.6,1.264-.73a.5.5,0,0,1,.583.806l-.965.861.382-.219a.5.5,0,0,1,.625.763l-1.106,1.25.481-.277a.5.5,0,0,1,.676.694l-.61.991a.544.544,0,0,1,.454.25.5.5,0,0,1-.182.682l-1.422.821A.5.5,0,0,1,37.386,17.462Z" fill="#f6d0b3" fill-opacity="1" data-original-color="#f6d0b3ff" stroke="none" stroke-opacity="1"/><path class="" d="M32.865,43.092a.5.5,0,0,1-.25-.933l4.839-2.794a.5.5,0,1,1,.5.865l-4.839,2.794A.5.5,0,0,1,32.865,43.092Z" fill="#ffffff" fill-opacity="1" data-original-color="#ffffffff" stroke="none" stroke-opacity="1"/><path class="" d="M29.476,46.394a.5.5,0,0,1-.372-.835l.379-.421-.812.468a.5.5,0,0,1-.536-.842l1.694-1.185-1.546.892a.5.5,0,0,1-.552-.832l6.194-4.679L28.28,42.219a.5.5,0,0,1-.658-.721l.712-1.009a.483.483,0,0,1-.449-.25.5.5,0,0,1,.182-.682l1.658-.957a.5.5,0,0,1,.658.72l-.631.9,10.682-6.167a.5.5,0,0,1,.551.832l-6.193,4.678,4.506-2.6a.5.5,0,0,1,.536.843l-7.389,5.169a.5.5,0,0,1-.1.491l-.481.534a.473.473,0,0,1,.474.248.5.5,0,0,1-.183.683l-2.425,1.4A.493.493,0,0,1,29.476,46.394Z" fill="#ffffff" fill-opacity="1" data-original-color="#ffffffff" stroke="none" stroke-opacity="1"/><path class="" d="M34.993,37.441a.5.5,0,0,1-.324-.88l2-1.708a.5.5,0,0,1-.42-.834l1.954-2.144-.926.534a.5.5,0,0,1-.644-.739l1.584-2.04-1.253.723a.5.5,0,0,1-.654-.728l1.252-1.713L36.2,28.7a.5.5,0,0,1-.637-.748l.863-1.063-1.133.653a.5.5,0,0,1-.681-.688l1.084-1.831-2.119,1.223a.5.5,0,0,1-.677-.694L33.93,23.87l-2.77,1.6a.5.5,0,0,1-.606-.783l.576-.585-2.673,1.543a.5.5,0,0,1-.5-.866l5.871-3.389a.5.5,0,0,1,.607.783l-.576.584,1.276-.736a.493.493,0,0,1,.608.084.5.5,0,0,1,.069.61L34.779,24.4l2.065-1.191a.5.5,0,0,1,.6.081.5.5,0,0,1,.075.607L36.44,25.725l1.828-1.055a.5.5,0,0,1,.637.748l-.864,1.064,1.075-.62a.5.5,0,0,1,.654.728L38.518,28.3l1.411-.815a.5.5,0,0,1,.644.74L38.99,30.267,40.5,29.4a.5.5,0,0,1,.619.77L39.16,32.312l1.554-.9a.5.5,0,0,1,.574.814l-1.818,1.55,1.139-.657a.5.5,0,1,1,.5.865l-5.866,3.387A.491.491,0,0,1,34.993,37.441Z" fill="#ffffff" fill-opacity="1" data-original-color="#ffffffff" stroke="none" stroke-opacity="1"/><path class="" d="M20.176,34.283a.5.5,0,0,1-.389-.814l1.4-1.733-1.87,1.079a.5.5,0,0,1-.584-.8l2.851-2.563L19.418,30.7a.5.5,0,0,1-.55-.833l5.493-4.111L20.13,28.2a.5.5,0,0,1-.588-.8l3.416-3.126-.065.038a.5.5,0,0,1-.5-.866l4.029-2.326a.5.5,0,0,1,.588.8l-3.416,3.126,7.539-4.353a.5.5,0,0,1,.55.833l-6.151,4.6a.5.5,0,0,1,.279.869l-2.853,2.564.072-.041a.493.493,0,0,1,.63.108.5.5,0,0,1,.009.639L22.266,32l.44-.254a.5.5,0,1,1,.5.865l-2.78,1.606A.489.489,0,0,1,20.176,34.283Z" fill="#ffffff" fill-opacity="1" data-original-color="#ffffffff" stroke="none" stroke-opacity="1"/><path class="" d="M29.394,54.374a.5.5,0,0,1-.369-.839l.207-.224-.546.315a.5.5,0,0,1-.7-.651l.824-1.7-.245.141a.5.5,0,0,1-.5-.865l1.658-.956a.5.5,0,0,1,.7.651L29.6,51.944l1.964-1.133a.5.5,0,0,1,.619.771l-.309.335a.525.525,0,0,1,.481.248.5.5,0,0,1-.183.683l-2.527,1.459A.494.494,0,0,1,29.394,54.374Z" fill="#ffffff" fill-opacity="1" data-original-color="#ffffffff" stroke="none" stroke-opacity="1"/><path class="" d="M56.265.621C39.073.65,21.879.568,4.687.621a4,4,0,0,0-4.411,4.6C.844,22.734-.845,40.781.9,58.045a3.925,3.925,0,0,0,3.421,1.334H54.181c3.974.621,6.257-2.367,5.543-6.147V11.376C59.3,7.8,61.585,1.006,56.265.621Zm-17.989.758c-.572,21.932,2.852,14.434-8.838,11.138-2.27,1.288-4.449,3.071-6.778,4.111C20.3,13.44,22.4,5.678,21.724,1.379Zm20,4.941V55.353c0,1.361-.2,3.172-1.986,3.268-17.581-.158-35.275.306-52.8-.162-2.4-.909-1.764-4.618-1.764-6.645.025-15.968-.035-31.943,0-47.907C1.417-.96,16.563,2.246,20.276,1.379c1.167,9.433-4.68,22.52,9.5,11.735C43.744,23.841,38.905,10.8,39.724,1.379c5.226.043,10.457-.081,15.681,0C58.4,1.479,58.276,4.153,58.276,6.32Z" fill="#262626" fill-opacity="1" data-original-color="#262626ff" stroke="none" stroke-opacity="1"/><path class="" d="M29.715,20.475c-6.06.067-12.137,5.8-11.413,12.042.607,3.095,5.16,2.3,5.432-.572a6.975,6.975,0,0,1,1.984-4.728c6.986-6.432,15.365,6.489,7.056,10.631-2.6.671-6.167.762-5.508,4.459,0,1.1-.2,2.4.558,3.308,1.847,2.127,5.381.247,4.909-2.445C46.012,40.266,43.389,19.754,29.715,20.475Zm2.152,21.848c-.225.045-.6.28-.6.552.472,3.93-3.213,3.032-2.532-.43C27.972,38.469,31.3,40,33.565,38.63A7.535,7.535,0,0,0,34.637,25.9c-4.882-3.578-12.377.068-12.371,6.159-.156,1.176-1.355,1.966-2.216.8-.847-1.144-.075-3.568.384-4.75C30.664,8.987,52.237,35.843,31.867,42.323Z" fill="#262626" fill-opacity="1" data-original-color="#262626ff" stroke="none" stroke-opacity="1"/><path class="" d="M31.166,49.818c-1.98-.567-4.92,1.309-3.552,3.489C29.862,56.422,35.439,51.56,31.166,49.818ZM30.95,53.25a.874.874,0,0,1-.649.437c-1.368.235-1.944-1.711-1.346-2.8a1.011,1.011,0,0,1,1.376-.378A1.977,1.977,0,0,1,30.95,53.25Z" fill="#262626" fill-opacity="1" data-original-color="#262626ff" stroke="none" stroke-opacity="1"/><path class="" d="M6.448,48.623c-2.331.082-.726,3.96-1.173,5.571.3.428,1.39.139,1.449-.388C6.5,52.2,7.187,49.9,6.448,48.623Z" fill="#262626" fill-opacity="1" data-original-color="#262626ff" stroke="none" stroke-opacity="1"/><path class="" d="M10.276,49.194v5c2.447.852,1.145-3.365,1.449-4.768C12.106,48.4,10.626,48.463,10.276,49.194Z" fill="#262626" fill-opacity="1" data-original-color="#262626ff" stroke="none" stroke-opacity="1"/></g></svg>