<svg id="Icons" height="512" viewBox="0 0 60 60" width="512" xmlns="http://www.w3.org/2000/svg"><path d="m30.559 59.456c-.168 0-.333-.085-.427-.239-.142-.23-.073-.533.154-.681l9.458-6.134-11.941 6.895c-.235.136-.534.06-.676-.171-.142-.23-.075-.532.152-.68l14.836-9.704-17.504 10.105c-.236.137-.537.059-.678-.174s-.069-.536.161-.682l12.594-7.959-14.336 8.276c-.237.138-.54.059-.68-.177-.14-.234-.065-.539.168-.682l5.375-3.305-6.382 3.685c-.237.138-.538.059-.678-.175-.141-.233-.068-.536.162-.681l15.641-9.831-17.156 9.904c-.237.138-.539.058-.679-.175-.14-.234-.067-.537.164-.682l15.925-9.946-17.221 9.942c-.237.137-.54.059-.68-.177s-.065-.539.168-.682l10.341-6.346-11.186 6.458c-.238.137-.54.059-.68-.177-.14-.235-.065-.539.168-.683l11.071-6.785-11.853 6.843c-.238.138-.541.058-.68-.178-.14-.236-.063-.54.171-.683l5.004-3.034-5.521 3.187c-.237.137-.539.058-.679-.176s-.066-.538.166-.682l17.644-10.917-18.535 10.7c-.237.137-.54.059-.679-.177-.14-.234-.066-.538.167-.682l17.675-10.91-18.447 10.65c-.238.138-.541.058-.68-.178-.14-.235-.063-.54.17-.683l9.105-5.529-9.524 5.498c-.236.137-.539.058-.679-.176-.141-.233-.067-.537.165-.682l22.125-13.762-22.903 13.222c-.236.137-.538.058-.679-.175-.14-.234-.067-.537.164-.682l24.074-15.036-24.831 14.336c-.238.137-.541.058-.68-.177-.14-.235-.065-.539.168-.683l15.914-9.74-16.27 9.394c-.238.138-.541.057-.68-.177-.14-.235-.064-.54.169-.683l15.342-9.378-15.618 9.017c-.237.138-.54.059-.679-.177-.14-.234-.066-.538.167-.682l20.42-12.605-20.746 11.978c-.237.137-.54.058-.679-.176-.14-.235-.066-.539.167-.683l20.383-12.584-20.621 11.914c-.237.137-.54.059-.679-.177-.14-.234-.066-.538.167-.682l18.973-11.685-19.101 11.029c-.237.139-.541.058-.681-.179-.139-.236-.062-.541.173-.683l3.139-1.891-3.005 1.734c-.238.138-.541.058-.68-.178s-.063-.54.17-.682l10.891-6.624-10.785 6.227c-.236.138-.54.059-.679-.176-.14-.235-.066-.538.167-.683l19.212-11.875-19.142 11.053c-.238.139-.541.058-.681-.179-.139-.235-.062-.54.172-.682l4.985-3.015-4.719 2.724c-.237.137-.539.058-.679-.176s-.066-.538.166-.682l18.881-11.707-18.646 10.766c-.237.137-.539.058-.68-.177-.14-.235-.065-.539.168-.682l13.758-8.453-13.398 7.735c-.236.137-.538.059-.678-.174-.141-.233-.069-.536.162-.682l21.33-13.441-20.886 12.06c-.236.136-.539.058-.678-.175-.141-.234-.068-.537.163-.682l17.791-11.141-17.186 9.922c-.237.136-.538.058-.678-.175-.141-.233-.068-.537.162-.682l16.807-10.565-16.037 9.26c-.237.136-.539.058-.678-.175-.141-.234-.068-.537.163-.682l13.55-8.487-12.649 7.303c-.236.136-.538.059-.678-.174-.141-.232-.07-.535.16-.681l14.237-9.036-13.076 7.549c-.236.135-.538.059-.678-.174-.141-.233-.07-.536.16-.681l11.255-7.146-9.894 5.712c-.235.135-.534.06-.676-.171-.142-.23-.074-.532.152-.68l12.144-7.938-10.221 5.901c-.231.135-.529.061-.673-.167s-.082-.527.14-.679l10.707-7.333-7.711 4.452c-.229.131-.521.063-.666-.156-.146-.22-.097-.515.113-.675l5.715-4.359c-.22.07-.467-.018-.587-.226-.138-.239-.056-.545.183-.683l6.592-3.806c.228-.133.52-.064.666.156s.097.515-.113.675l-5.648 4.309 12.209-7.049c.234-.133.531-.06.673.167.144.228.082.527-.14.679l-10.706 7.333 14.615-8.44c.233-.136.533-.06.676.171.142.23.075.532-.152.68l-12.144 7.938 14.826-8.559c.237-.135.537-.059.678.174s.07.536-.16.681l-11.26 7.149 13.147-7.59c.236-.135.537-.059.678.174.141.232.07.535-.16.681l-14.235 9.035 16.067-9.277c.237-.135.539-.059.679.175.141.234.067.537-.163.682l-13.55 8.487 15.005-8.663c.236-.135.538-.059.679.175s.068.537-.163.682l-16.805 10.564 18.291-10.562c.236-.134.538-.058.679.175.141.234.067.537-.163.682l-17.789 11.139 19.108-11.032c.237-.135.537-.058.678.175s.069.536-.161.681l-21.332 13.443 22.727-13.122c.236-.136.538-.058.68.177.14.235.065.539-.168.682l-13.754 8.45 14.524-8.386c.236-.137.539-.059.679.176.141.234.066.538-.165.682l-18.894 11.714 19.791-11.426c.238-.138.54-.058.681.179.14.236.062.541-.172.682l-4.959 2.999 5.326-3.075c.237-.137.539-.059.68.177.14.234.065.538-.167.682l-19.205 11.871 19.926-11.504c.237-.137.54-.059.68.178.14.236.064.54-.17.682l-10.917 6.639 11.295-6.521c.237-.138.542-.058.681.179.14.236.062.541-.173.682l-3.129 1.886 3.317-1.916c.236-.136.538-.059.68.177.14.235.065.539-.168.682l-18.976 11.687 19.457-11.233c.236-.137.538-.058.68.177.14.234.065.538-.167.682l-20.381 12.583 20.822-12.021c.236-.137.538-.059.68.177.14.235.065.538-.167.682l-20.411 12.6 20.768-11.99c.237-.137.54-.058.68.178.14.235.064.539-.169.682l-15.34 9.376 15.497-8.947c.237-.137.539-.058.68.178.14.235.064.539-.169.682l-15.905 9.735 16.01-9.243c.237-.136.537-.059.679.176.141.234.067.537-.164.682l-24.086 15.043 24.283-14.02c.237-.136.537-.058.679.176.141.234.067.538-.165.682l-22.125 13.763 22.172-12.801c.238-.137.54-.058.681.178.139.236.063.54-.171.682l-9.099 5.526 8.896-5.136c.237-.136.539-.059.68.177.14.235.065.538-.167.682l-17.672 10.909 17.484-10.095c.237-.137.539-.059.679.177.141.234.066.538-.166.682l-17.64 10.915 17.36-10.023c.237-.138.54-.057.681.178.14.236.062.541-.172.683l-5.028 3.049 4.614-2.664c.237-.137.539-.058.68.177.14.235.064.539-.168.682l-11.067 6.784 10.603-6.122c.237-.136.539-.058.68.177.14.235.064.539-.168.682l-10.32 6.332 9.778-5.646c.236-.136.537-.059.679.175.141.234.067.537-.164.682l-15.936 9.953 15.251-8.805c.236-.136.538-.06.679.175.141.233.068.536-.163.681l-15.635 9.828 14.787-8.537c.236-.139.538-.06.68.177.14.234.065.539-.168.682l-5.375 3.304 4.516-2.606c.236-.137.537-.059.678.174s.069.536-.16.682l-12.597 7.96 11.424-6.595c.236-.136.534-.06.676.171s.074.532-.152.68l-14.838 9.705 13.11-7.568c.235-.136.534-.061.677.172.142.23.073.533-.154.681l-9.457 6.133 7.525-4.345c.234-.138.532-.062.675.169s.076.531-.148.681l-7.154 4.739 4.587-2.648c.229-.135.527-.062.671.163.145.226.086.524-.133.679l-4.529 3.188.432-.249c.238-.14.545-.057.683.183.139.239.057.545-.183.683l-10.081 5.82c-.23.135-.527.062-.671-.163-.145-.226-.086-.524.133-.679l4.525-3.185-9.027 5.212c-.234.135-.534.06-.675-.169-.143-.23-.076-.531.148-.681l7.162-4.744-10.173 5.873c-.079.046-.165.067-.25.067z" fill="#4337e5"/><g fill="#7de56b"><path d="m38.535 51.235c-.155 0-.308-.072-.405-.207-.15-.208-.119-.495.072-.666l.636-.568-.798.461c-.22.131-.507.068-.657-.143-.149-.21-.115-.499.08-.668l2.061-1.784-1.846 1.064c-.225.131-.513.065-.661-.147-.148-.215-.107-.506.094-.672l2.76-2.268-2.54 1.466c-.227.131-.516.064-.663-.15-.147-.216-.104-.51.101-.673l3.8-3.038-3.617 2.088c-.228.135-.522.063-.668-.158s-.093-.519.12-.676l3.193-2.364-2.965 1.711c-.228.134-.521.062-.666-.155-.146-.22-.097-.516.113-.675l4.47-3.405-4.293 2.479c-.233.136-.528.062-.672-.165-.144-.226-.084-.525.137-.678l1.002-.697-.709.409c-.229.136-.527.062-.671-.163-.145-.225-.086-.523.132-.678l1.668-1.182-1.391.803c-.227.133-.52.064-.666-.155s-.098-.514.112-.675l3.59-2.748-3.686 2.127c-.228.133-.521.063-.666-.155-.146-.22-.097-.516.113-.675l3.106-2.365-4.208 2.429c-.227.133-.518.064-.665-.153-.146-.218-.1-.513.108-.674l4.141-3.221-6.008 3.468c-.23.136-.526.062-.671-.163-.144-.226-.085-.524.134-.679l2.183-1.535-2.757 1.592c-.232.137-.53.062-.673-.166s-.081-.527.141-.68l.476-.325-.643.371c-.227.134-.518.065-.665-.154-.146-.218-.099-.513.109-.674l3.879-3.004-4.045 2.335c-.223.132-.508.067-.657-.143s-.115-.499.08-.668l3.708-3.214-3.285 1.896c-.215.127-.491.07-.644-.125-.153-.196-.139-.476.034-.655l1.824-1.892c-.231.109-.513.023-.644-.203-.138-.239-.056-.545.183-.683l3.03-1.75c.214-.123.489-.072.644.125.154.196.14.476-.033.655l-1.821 1.888 4.743-2.738c.22-.127.508-.068.657.143.149.21.115.499-.08.668l-3.706 3.212 5.901-3.407c.226-.131.52-.064.665.154.146.218.099.513-.108.674l-3.881 3.005 5.658-3.267c.234-.134.529-.061.673.167s.081.527-.141.679l-.472.323 1.037-.599c.233-.134.527-.061.672.164.144.226.085.524-.134.678l-2.187 1.537 2.616-1.51c.227-.131.518-.064.665.154.146.218.1.513-.108.674l-4.14 3.22 4.718-2.724c.227-.132.521-.063.666.156.146.219.097.515-.113.674l-3.105 2.364 3.54-2.043c.226-.133.52-.063.666.155s.098.514-.112.675l-3.591 2.749 4.062-2.345c.23-.136.527-.062.671.163.145.225.086.523-.132.678l-1.666 1.18 1.701-.981c.23-.135.528-.062.672.165.144.226.084.525-.137.678l-1.004.698.766-.441c.227-.135.52-.063.666.155.146.22.097.516-.113.675l-4.473 3.407 3.781-2.183c.229-.134.522-.062.668.158.146.222.093.519-.12.677l-3.188 2.36 1.733-1.001c.225-.134.515-.065.663.15.147.216.104.51-.101.673l-3.801 3.039 2.071-1.195c.225-.132.513-.065.661.147.148.215.107.506-.094.672l-2.76 2.268 1.126-.649c.222-.131.508-.067.657.143s.115.499-.08.668l-2.059 1.784.463-.268c.22-.129.504-.069.655.14.15.208.119.495-.072.666l-1.041.93c.144.022.277.107.355.244.139.239.057.545-.183.683l-3.473 2.005c-.078.046-.164.067-.25.067z"/><path d="m57.828 35.77c-.117 0-.233-.041-.326-.121-.161-.138-.217-.363-.14-.561l.503-1.286-.504.29c-.205.119-.469.077-.626-.104-.157-.179-.166-.444-.021-.634l.297-.387-.12.069c-.203.118-.46.079-.619-.095-.158-.173-.175-.433-.04-.625l1.016-1.449-1.053.607c-.212.123-.482.073-.639-.117-.154-.191-.147-.466.017-.649l.84-.937-.832.48c-.215.124-.492.072-.646-.128-.152-.199-.135-.48.042-.658l.751-.754-1.322.764c-.216.124-.495.07-.647-.129s-.133-.482.046-.659l1.593-1.579-3.75 2.165c-.22.129-.506.068-.656-.142-.15-.209-.116-.498.077-.667l2.855-2.495-3.863 2.23c-.227.131-.519.064-.665-.154-.146-.219-.099-.513.109-.674l2.08-1.61-2.513 1.451c-.227.132-.518.064-.665-.154-.146-.218-.1-.512.108-.674l2.692-2.091-3.205 1.85c-.225.13-.513.065-.661-.149s-.107-.506.095-.671l4.089-3.35-4.877 2.816c-.228.132-.52.063-.667-.157-.146-.22-.096-.516.115-.675l3.178-2.408-3.918 2.262c-.227.13-.517.065-.664-.152-.146-.216-.102-.51.104-.673l4.612-3.652-7.047 4.069c-.228.131-.522.063-.667-.157-.146-.22-.095-.516.116-.675l5.469-4.121-7.686 4.437c-.233.134-.529.061-.674-.167-.143-.228-.08-.528.143-.679l2.744-1.864-3.103 1.792c-.233.134-.527.062-.672-.165-.144-.226-.084-.524.135-.678l4.643-3.251-4.552 2.628c-.227.133-.523.064-.669-.16-.145-.222-.091-.519.123-.676l4.279-3.145-2.51 1.449c-.24.136-.546.057-.683-.183-.139-.239-.057-.545.183-.683l10.371-5.988c.229-.131.523-.062.669.16.145.222.091.519-.123.676l-4.279 3.145 6.606-3.814c.229-.134.527-.062.672.165.144.226.084.524-.135.678l-4.643 3.25 5.023-2.9c.234-.133.531-.06.674.167.143.228.08.528-.143.679l-2.746 1.865 2.93-1.691c.226-.133.521-.064.667.157.146.22.095.516-.116.675l-5.467 4.119 5.883-3.396c.225-.131.516-.065.664.152.146.216.102.51-.104.673l-4.612 3.652 4.934-2.849c.226-.133.519-.064.667.157.146.22.096.516-.115.675l-3.181 2.41 3.258-1.881c.224-.13.514-.065.661.149.148.214.107.506-.095.671l-4.088 3.349 4.207-2.429c.227-.132.518-.064.665.154.146.218.1.512-.108.674l-2.693 2.093 2.605-1.504c.226-.131.519-.064.665.154.146.219.099.513-.109.674l-2.079 1.609 1.894-1.093c.221-.127.506-.067.656.142s.116.498-.077.667l-2.854 2.495 2.657-1.535c.216-.125.493-.071.647.129.152.2.133.482-.046.659l-1.594 1.58 1.242-.717c.215-.124.494-.071.646.128s.135.48-.042.658l-.751.753.283-.164c.211-.123.482-.073.639.118.154.19.147.466-.017.649l-.841.938.295-.17c.202-.116.46-.077.619.095.158.173.175.433.04.625l-1.016 1.45.345-.2c.204-.118.468-.077.626.104.157.179.166.445.021.634l-.443.577c.101.01.199.05.28.119.161.138.217.363.14.561l-.6 1.533c.113.037.214.114.277.226.139.239.057.545-.183.683l-.732.423c-.078.045-.164.067-.25.067z"/><path d="m18.294 52.114c-.141 0-.281-.06-.378-.173-.157-.182-.163-.449-.014-.638l.604-.763-1.423.821c-.215.126-.489.071-.642-.122-.154-.194-.142-.473.028-.653l2.1-2.232-2.104 1.215c-.224.133-.511.066-.66-.146s-.11-.503.089-.67l1.127-.943-.839.484c-.224.132-.508.066-.657-.143-.149-.21-.115-.499.08-.668l2.507-2.173-2.297 1.326c-.228.133-.517.065-.664-.152s-.101-.511.105-.673l1.87-1.471-1.614.931c-.228.135-.518.065-.665-.154s-.099-.513.109-.674l2.024-1.564-1.773 1.023c-.229.135-.522.063-.668-.158-.146-.222-.093-.518.12-.676l.985-.732-.912.526c-.23.135-.523.062-.669-.159-.145-.223-.091-.521.124-.677l.344-.252-.65.375c-.227.132-.516.064-.663-.151-.147-.216-.103-.51.102-.673l2.261-1.799-2.891 1.669c-.228.134-.517.065-.664-.152s-.101-.511.105-.673l2.048-1.613-2.635 1.521c-.23.135-.523.062-.668-.158-.145-.223-.092-.519.121-.677l.613-.452-.869.501c-.224.132-.507.069-.657-.143-.149-.209-.115-.498.079-.667l3.076-2.676-2.923 1.688c-.226.134-.513.065-.662-.148-.148-.215-.106-.507.095-.672l1.403-1.146-.516.298c-.219.129-.497.07-.649-.132-.152-.201-.13-.484.052-.66l.708-.684c-.112-.038-.211-.114-.274-.225-.138-.239-.056-.545.183-.683l2.612-1.508c.221-.128.498-.07.649.132.152.201.13.484-.052.66l-.206.199 2.356-1.36c.227-.132.514-.064.662.148.148.215.106.507-.095.672l-1.403 1.146 2.05-1.184c.225-.13.507-.067.657.143.149.209.115.498-.079.667l-3.077 2.677 4.039-2.331c.23-.135.523-.062.668.158.145.223.092.519-.121.677l-.609.45 1.003-.579c.227-.133.517-.065.664.152s.101.511-.105.673l-2.049 1.614 2.68-1.547c.227-.134.516-.065.663.151s.103.51-.102.673l-2.259 1.797 2.859-1.65c.229-.135.523-.063.669.159.145.223.091.521-.124.677l-.347.254.37-.213c.23-.134.523-.062.668.158.146.222.093.518-.12.676l-.986.732.729-.42c.229-.133.519-.064.665.154.147.219.099.513-.109.674l-2.025 1.565 1.221-.705c.228-.133.517-.065.664.152s.101.511-.105.673l-1.87 1.472.783-.452c.225-.13.509-.066.657.143.149.21.115.499-.08.668l-2.505 2.171 1.289-.743c.227-.13.511-.065.66.146.149.212.11.503-.089.67l-1.124.941.061-.035c.214-.127.488-.071.642.122.154.194.142.473-.028.653l-2.101 2.233.75-.433c.207-.121.471-.076.628.105.157.182.163.449.014.638l-.862 1.088c.12.035.227.114.294.23.138.239.056.545-.183.683l-1.62.936c-.078.046-.165.067-.25.067z"/><path d="m12.394 24.5c-.173 0-.341-.09-.434-.25-.138-.239-.056-.545.183-.683l4.363-2.519c.238-.139.545-.057.683.183.138.239.056.545-.183.683l-4.363 2.519c-.079.045-.165.067-.25.067z"/><path d="m6.802 29.457c-.151 0-.298-.068-.396-.194-.153-.198-.136-.479.04-.657l.418-.424-1.337.772c-.234.134-.531.061-.674-.168-.143-.228-.079-.528.144-.679l3.085-2.087-3.347 1.933c-.231.134-.529.062-.672-.165s-.083-.525.137-.679l8.377-5.825-8.51 4.913c-.234.136-.534.059-.675-.17-.142-.23-.076-.531.149-.68l5.363-3.547-5.333 3.08c-.233.136-.531.06-.674-.168-.143-.229-.078-.53.146-.68l7.076-4.748-7.109 4.104c-.235.134-.535.059-.676-.172-.142-.231-.073-.533.154-.681l3.468-2.25-3.379 1.951c-.232.136-.53.061-.673-.167-.143-.227-.082-.527.14-.679l8.89-6.106-7.579 4.375c-.234.135-.534.06-.676-.172-.142-.231-.073-.533.154-.681l2.173-1.411-.875.505c-.231.134-.527.062-.671-.164s-.085-.524.134-.678l7.698-5.41-5.424 3.132c-.231.134-.526.062-.67-.163-.145-.224-.087-.522.13-.677l6.146-4.388-2.909 1.679c-.231.133-.526.062-.67-.163-.145-.225-.087-.523.13-.678l4.121-2.935c-.081-.042-.151-.108-.201-.193-.138-.239-.056-.545.183-.683l6.616-3.82c.232-.134.526-.061.67.163.145.225.087.523-.13.678l-2.13 1.517 2.796-1.614c.232-.133.526-.062.67.163.145.224.087.522-.13.677l-6.146 4.388 6.172-3.563c.232-.133.528-.061.671.164.144.226.085.524-.134.678l-7.7 5.411 7.766-4.483c.234-.136.534-.06.676.172.142.231.073.533-.154.681l-2.171 1.409 2.022-1.167c.233-.133.531-.06.673.167.143.227.082.527-.14.679l-8.889 6.105 8.961-5.174c.234-.136.535-.06.676.172.142.231.073.533-.154.681l-3.467 2.25 3.317-1.916c.234-.134.531-.06.674.168.143.229.078.53-.146.68l-7.078 4.749 6.73-3.886c.234-.135.534-.06.675.17.142.23.076.531-.149.68l-5.362 3.546 4.558-2.631c.232-.133.529-.06.672.165.144.227.083.525-.137.679l-8.375 5.824 5.228-3.019c.232-.136.53-.061.674.168.143.228.079.528-.144.679l-9.993 6.759c.062.176.021.378-.116.517l-1.272 1.288c.046.038.086.084.118.138.138.239.056.545-.183.683l-1.792 1.035c-.078.045-.165.067-.25.067z"/><path d="m30.999 15.264c-.158 0-.312-.074-.409-.211-.149-.211-.113-.501.083-.668l2.688-2.298-3.253 1.878c-.224.131-.511.066-.66-.146s-.11-.504.089-.67l2.954-2.47-2.22 1.282c-.229.133-.52.063-.667-.156-.146-.22-.096-.515.114-.675l.933-.709c-.126-.019-.244-.086-.325-.195-.152-.204-.127-.488.058-.663l1.271-1.2-.382.221c-.191.109-.431.082-.592-.068-.161-.151-.204-.389-.107-.586l.806-1.637c-.229.106-.51.022-.641-.205-.138-.239-.056-.545.183-.683l1.383-.798c.189-.11.431-.083.592.068s.204.389.106.586l-.805 1.634 2.656-1.534c.218-.127.498-.07.651.134.151.204.126.488-.059.663l-1.271 1.2 2.119-1.223c.227-.133.52-.064.666.156s.097.515-.113.675l-.235.179.381-.22c.224-.13.512-.066.66.146.148.213.109.504-.09.67l-2.955 2.47 2.959-1.708c.224-.129.509-.066.658.145s.113.501-.083.668l-2.688 2.297 1.714-.99c.238-.138.545-.058.683.183.139.239.057.545-.183.683l-6.42 3.707c-.079.045-.165.067-.25.067z"/></g><path d="m4.495 45.295c14.822 25.333 55.66 14.026 55.241-15.342-.182-33.934-48.848-40.437-58.225-8.124-2.233 7.76-1.313 16.343 2.984 23.467zm53.768-15.25c-.008 1.282-.117 2.55-.292 3.804-2.706-8.493-5.141-2.429-9.827-8.649-1.511-2.034-3.78-2.869-6.271-2.558-9.957-3.141 5.703-9.684 9.187-11.426 4.524 5.07 7.245 11.921 7.203 18.83zm-22.661-27.899c5.85 1.197 11.054 4.287 15 8.55-4.019 1.794-20.946 9.508-9.614 12.663 3.003-.479 5.076 1.325 6.916 3.49 5.491 5.702 5.826-1.623 9.597 9.584-8.844 36.009-62.081 23.818-55.126-12.305.692 3.568 3.673 7.797 7 3.762.944-1.427 1.429-3.148 3.334-3.423 3.124-.483 4.916-3.318 7.271-5.142 6.167-3.917 2.696-10.808.778-16.16 4.69-1.627 9.813-2.048 14.844-1.018zm-16.244 1.558c4.218 9.765 3.734 12.83-4.962 19.237-1.554.934-3.697.48-4.792 2.236-3.425 7.636-5.134.293-6.597-3.615 2.313-8.057 8.706-14.843 16.351-17.857z" fill="#262626"/><path d="m29.291 36.294c1.851 1.653 5.596.408 5.588 3.822.696 3.126 1.283 6.28 2.014 9.397 2.642 5.191 6.467-.688 7.213-3.964 3.493-7.165 6.188-12.149-1.718-17.568-2.135-.944-4.568-1.258-6.857-1.72-5.626-1.136-11.417 5.736-6.239 10.033zm2.54-8.964c5.181-1.225 10.712 1.188 13.48 5.699 3.091 5.383-2.839 11.31-4.312 16.547-3.862 5.038-3.435-10.502-5.512-12.003-1.092-1.159-2.906-.678-4.229-1.413-3.546-1.841-3.232-7.487.573-8.83z" fill="#262626"/><path d="m22.599 35.98c-2.737-1.624-5.356-5.683-8.886-4.04-6.08 1.734-5.548 7.669-.413 10.4 2.087 2.297 1.317 6.163 2.763 8.819 1.394 1.897 4.249.848 4.853-1.131.534-4.422 5.014-10.136 1.683-14.048zm-2.594 12.249c-2.214 8.061-3.832-2.541-4.398-5.147-1.205-2.866-6.426-3.648-4.511-7.613.302-2.291 4.111-3.841 5.797-2.139 2.091 1.981 6.169 3.154 5.455 6.699-.781 2.734-1.562 5.467-2.343 8.201z" fill="#262626"/><path d="m31.947 15.536c15.669-5.705-1.259-16.003-1.681-8.349.275 2.96-3.645 8.078 1.681 8.349zm-1.009-4.435c.906-1.537.727-3.293.822-4.976.15-.653.577-.607 1.105-.461 2.412.404 5.156 2.194 4.054 4.981-1.283 2.673-8.238 6.423-5.982.456z" fill="#262626"/></svg>