<svg id="Icons" height="512" viewBox="0 0 60 60" width="512" xmlns="http://www.w3.org/2000/svg"><path d="m30.738 59.451a.5.5 0 0 1 -.272-.92l9.174-5.947-11.651 6.726a.5.5 0 0 1 -.52-.854l11.851-7.618-14.08 8.129a.5.5 0 0 1 -.518-.855l14.013-8.941-16.008 9.241a.5.5 0 0 1 -.519-.854l16.186-10.286-18.015 10.4a.5.5 0 0 1 -.511-.86l5.507-3.371-6.39 3.689a.5.5 0 0 1 -.517-.856l19.34-12.234-20.936 12.087a.5.5 0 0 1 -.513-.858l13.5-8.332-14.481 8.363a.5.5 0 0 1 -.515-.857l18.8-11.724-19.936 11.505a.5.5 0 0 1 -.509-.861l5.562-3.373-6.063 3.5a.5.5 0 0 1 -.513-.857l17.95-11.1-18.8 10.854a.5.5 0 0 1 -.51-.86l12.456-7.611-13 7.508a.5.5 0 0 1 -.509-.861l5.652-3.418-5.983 3.455a.5.5 0 0 1 -.512-.859l16.132-9.896-16.662 9.619a.5.5 0 0 1 -.509-.86l6.88-4.162-7.131 4.117a.5.5 0 0 1 -.51-.861l11.3-6.867-11.588 6.689a.5.5 0 0 1 -.51-.86l15.173-9.274-15.489 8.942a.5.5 0 0 1 -.513-.857l23.406-14.563-23.887 13.792a.5.5 0 0 1 -.509-.86l6.8-4.108-6.843 3.948a.5.5 0 0 1 -.509-.861l5.6-3.378-5.59 3.225a.5.5 0 0 1 -.51-.86l9.683-5.872-9.68 5.587a.5.5 0 0 1 -.514-.856l23.989-14.981-24.174 13.956a.5.5 0 0 1 -.512-.858l20.229-12.524-20.232 11.682a.5.5 0 0 1 -.509-.86l6.764-4.1-6.542 3.78a.5.5 0 0 1 -.509-.86l10.409-6.339-10.163 5.867a.5.5 0 0 1 -.516-.857l22.506-14.127-22.285 12.867a.5.5 0 0 1 -.513-.859l15.341-9.468-14.941 8.626a.5.5 0 0 1 -.51-.858l12.9-7.944-12.41 7.165a.5.5 0 0 1 -.511-.86l9.064-5.553-8.489 4.9a.5.5 0 0 1 -.518-.856l18.789-11.893-18.02 10.4a.5.5 0 0 1 -.509-.859l1.762-1.072-1.017.587a.5.5 0 0 1 -.514-.858l9.773-6.073-8.835 5.1a.5.5 0 0 1 -.514-.858l6.828-4.235-5.785 3.34a.5.5 0 0 1 -.519-.855l11.57-7.38-10.124 5.845a.5.5 0 0 1 -.525-.851l11.781-7.73-9.749 5.628a.5.5 0 0 1 -.526-.85l7.528-4.971-5.077 2.93a.5.5 0 0 1 -.521-.852l2.12-1.374a.5.5 0 0 1 -.2-.905l3.5-2.421a.486.486 0 0 1 -.106-.128.5.5 0 0 1 .182-.683l6.584-3.806a.5.5 0 0 1 .535.844l-.143.1 4.12-2.378a.5.5 0 0 1 .521.852l-.263.17 2.667-1.54a.5.5 0 0 1 .526.85l-7.527 4.97 10.476-6.048a.5.5 0 0 1 .524.85l-11.776 7.73 14.555-8.404a.5.5 0 0 1 .518.855l-11.572 7.382 13.59-7.846a.5.5 0 0 1 .514.857l-6.832 4.239 8.107-4.681a.5.5 0 0 1 .514.857l-9.773 6.074 11.059-6.384a.5.5 0 0 1 .51.859l-1.786 1.088 2.559-1.476a.5.5 0 0 1 .518.855l-18.774 11.886 20.421-11.79a.5.5 0 0 1 .511.859l-9.088 5.568 9.915-5.724a.5.5 0 0 1 .512.858l-12.906 7.946 13.8-7.965a.5.5 0 0 1 .513.858l-15.346 9.469 16.239-9.375a.5.5 0 0 1 .516.856l-22.5 14.124 23.676-13.67a.5.5 0 0 1 .51.86l-10.42 6.347 10.93-6.311a.5.5 0 0 1 .509.86l-6.748 4.089 7.118-4.109a.5.5 0 0 1 .513.857l-20.233 12.524 20.931-12.085a.5.5 0 0 1 .515.856l-24 14.986 24.762-14.293a.5.5 0 0 1 .51.86l-9.655 5.855 9.886-5.707a.5.5 0 0 1 .509.861l-5.593 3.376 5.715-3.3a.5.5 0 0 1 .508.86l-6.785 4.1 6.887-3.976a.5.5 0 0 1 .514.858l-23.413 14.568 23.813-13.748a.5.5 0 0 1 .511.859l-15.157 9.265 15.266-8.814a.5.5 0 0 1 .51.86l-11.313 6.877 11.306-6.527a.5.5 0 0 1 .509.86l-6.893 4.169 6.789-3.919a.5.5 0 0 1 .512.858l-16.112 9.883 16.06-9.272a.5.5 0 0 1 .509.86l-5.68 3.436 5.47-3.159a.5.5 0 0 1 .511.86l-12.453 7.605 12.241-7.067a.5.5 0 0 1 .513.857l-17.96 11.11 17.718-10.23a.5.5 0 0 1 .509.86l-5.557 3.371 5.178-2.99a.5.5 0 0 1 .515.857l-18.8 11.723 18.38-10.611a.5.5 0 0 1 .513.858l-13.482 8.325 12.953-7.479a.5.5 0 0 1 .518.856l-19.344 12.238 18.628-10.755a.5.5 0 0 1 .511.859l-5.504 3.374 4.772-2.755a.5.5 0 0 1 .519.854l-16.2 10.294 15.148-8.745a.5.5 0 0 1 .519.854l-14.009 8.937 12.722-7.345a.5.5 0 0 1 .52.854l-11.845 7.613 10.254-5.921a.5.5 0 0 1 .523.853l-9.177 5.949 7.226-4.171a.5.5 0 0 1 .535.844l-9.36 6.5 5.953-3.434a.5.5 0 0 1 .53.847l-3.074 2.086a.5.5 0 0 1 .061.895l-9.3 5.37a.5.5 0 0 1 -.53-.846l.865-.587-4.378 2.524a.5.5 0 0 1 -.671-.165.5.5 0 0 1 .136-.679l9.362-6.5-13.613 7.858a.494.494 0 0 1 -.25.067z" fill="#64daf9"/><path d="m29.617 36.451a.5.5 0 0 1 -.319-.885l1.791-1.489-3.189 1.843a.5.5 0 0 1 -.546-.835l1.121-.827-1.73 1a.5.5 0 0 1 -.554-.829l3.094-2.382-3.685 2.124a.5.5 0 0 1 -.566-.82l4.39-3.569-4.757 2.746a.5.5 0 0 1 -.546-.836l1.879-1.376-1.65.954a.5.5 0 0 1 -.561-.826l2.7-2.138-2.136 1.232a.5.5 0 0 1 -.618-.77l2.3-2.5-.113.064a.5.5 0 1 1 -.5-.865l2.935-1.7a.5.5 0 0 1 .619.77l-2.3 2.507 5.251-3.031a.5.5 0 0 1 .664.151.5.5 0 0 1 -.1.674l-2.7 2.136 3.642-2.1a.5.5 0 0 1 .546.836l-1.879 1.375 2.266-1.309a.5.5 0 0 1 .566.821l-4.391 3.569 4.776-2.757a.5.5 0 0 1 .554.829l-3.1 2.384 2.917-1.684a.5.5 0 0 1 .546.835l-1.112.822.553-.32a.5.5 0 0 1 .569.818l-1.79 1.488.645-.372a.5.5 0 0 1 .5.865l-5.731 3.31a.489.489 0 0 1 -.251.067z" fill="#34b1c6"/><path d="m13.005 36.379a.5.5 0 0 1 -.361-.846l2.5-2.624-5.226 3.021a.5.5 0 0 1 -.549-.834l1.381-1.029-2.029 1.172a.5.5 0 0 1 -.539-.841l.481-.34-.772.445a.5.5 0 0 1 -.55-.832l2.849-2.14-3.147 1.817a.5.5 0 0 1 -.563-.823l4.065-3.259-4.139 2.389a.5.5 0 0 1 -.559-.825l2.916-2.295-2.463 1.42a.5.5 0 0 1 -.548-.834l.6-.449a.508.508 0 0 1 -.444-.2.5.5 0 0 1 .063-.664l1.548-1.434a.5.5 0 0 1 -.1-.911l2.935-1.7a.5.5 0 0 1 .59.8l-1.022.947 3.083-1.78a.5.5 0 0 1 .548.834l-.276.2 1.028-.592a.5.5 0 0 1 .559.825l-2.911 2.303 3.772-2.177a.5.5 0 0 1 .562.822l-4.066 3.255 4.654-2.686a.5.5 0 0 1 .55.832l-2.848 2.138 2.883-1.664a.5.5 0 0 1 .539.841l-.48.341.164-.095a.5.5 0 0 1 .548.834l-1.382 1.028.822-.473a.5.5 0 0 1 .611.778l-2.506 2.626.577-.332a.5.5 0 0 1 .5.865l-3.6 2.078a.5.5 0 0 1 -.248.068z" fill="#34b1c6"/><path d="m49.392 36.3a.5.5 0 0 1 -.354-.854l1.709-1.706-4.185 2.416a.5.5 0 0 1 -.547-.834l.667-.495-1.376.794a.5.5 0 0 1 -.551-.832l2.175-1.636-2.784 1.607a.5.5 0 0 1 -.569-.819l4.523-3.731-5.143 2.969a.5.5 0 0 1 -.539-.841l.765-.54-.641.369a.5.5 0 0 1 -.569-.817l3.91-3.24-3.586 2.071a.5.5 0 0 1 -.555-.829l1.223-.94-.409.236a.5.5 0 0 1 -.591-.8l1.58-1.474a.5.5 0 0 1 -.118-.915l2.935-1.7a.5.5 0 0 1 .591.8l-1.1 1.025 3.2-1.846a.5.5 0 0 1 .555.829l-1.224.94 2.136-1.233a.5.5 0 0 1 .569.818l-3.912 3.24 4.923-2.841a.5.5 0 0 1 .539.841l-.757.534.889-.512a.5.5 0 0 1 .569.818l-4.52 3.733 4.727-2.728a.5.5 0 0 1 .551.832l-2.174 1.636 1.79-1.034a.5.5 0 0 1 .548.834l-.678.5a.5.5 0 0 1 .563.808l-1.847 1.853a.5.5 0 0 1 .278.932l-2.934 1.7a.493.493 0 0 1 -.252.062z" fill="#34b1c6"/><g fill="#262626"><path d="m40.155 2.191c-48.7-13.222-54.7 62.841-4.345 56.743 28.896-5.276 32.244-47.216 4.345-56.743zm-.332 54.563c-46.444 13.014-52.249-60.619-4.23-54.644 27.386 5.267 30.551 45.266 4.23 54.644z"/><path d="m32.427 23.88c-10.7-3.275-12.609 14.105-1.234 12.485 6.407-.944 7.53-10.437 1.234-12.485zm-.568 11.32c-8.3 2.7-9.73-12-.975-10.6 5.139.951 5.952 8.8.975 10.6z"/><path d="m14.282 23.922c-10.72-2.851-12.31 14.191-.971 12.257 6.354-1.014 7.356-10.473.971-12.257zm-.533 11.486c-8.381 2.385-9.5-12.667-.712-10.865 5.085 1.218 5.74 9.108.712 10.865z"/><path d="m50.417 23.843c-10.742-3.3-12.573 14.169-1.21 12.574 6.427-.959 7.498-10.517 1.21-12.574zm-.572 11.308c-8.3 2.71-9.687-11.9-.942-10.5 5.134.91 5.908 8.742.942 10.5z"/></g></svg>