<svg id="Icons" height="512" viewBox="0 0 60 60" width="512" xmlns="http://www.w3.org/2000/svg"><path d="m21.536 59.47a.5.5 0 0 1 -.291-.907l2.14-1.532-3.6 2.076a.5.5 0 0 1 -.679-.69l.724-1.2-.433.249a.5.5 0 0 1 -.5-.865l2.107-1.216a.494.494 0 0 1 .606.082.5.5 0 0 1 .073.608l-.724 1.2 10.777-6.221a.5.5 0 0 1 .541.839l-2.138 1.531 1.919-1.108a.5.5 0 0 1 .586.8l-3.413 3.114 4.15-2.394a.5.5 0 0 1 .62.768l-2.115 2.33 3.992-2.3a.5.5 0 0 1 .645.738l-1.467 1.9 3.331-1.923a.5.5 0 0 1 .613.771l-.667.705 1.569-.905a.5.5 0 0 1 .668.707l-.562.854.7-.405a.5.5 0 1 1 .5.865l-2.525 1.459a.494.494 0 0 1 -.614-.089.5.5 0 0 1 -.054-.618l.562-.854-2.7 1.561a.5.5 0 0 1 -.613-.776l.667-.7-2.573 1.476a.5.5 0 0 1 -.645-.738l1.468-1.9-4.566 2.638a.5.5 0 0 1 -.62-.768l2.116-2.33-5.368 3.1a.5.5 0 0 1 -.587-.8l3.412-3.114-6.782 3.912a.493.493 0 0 1 -.25.07z" fill="#eaeaea"/><path d="m27.7 53.216a.5.5 0 0 1 -.353-.854l1.575-1.574-.643.371a.5.5 0 0 1 -.6-.792l1.011-.967-.41.236a.5.5 0 0 1 -.613-.776l1.6-1.691-.983.566a.5.5 0 0 1 -.589-.8l.627-.578-.038.021a.5.5 0 0 1 -.584-.8l.458-.411a.5.5 0 0 1 -.467-.847l1.169-1.106-.576.332a.5.5 0 0 1 -.575-.812l1.037-.89-.555.32a.5.5 0 0 1 -.625-.763l1.677-1.9-1.529.883a.5.5 0 0 1 -.65-.732l.343-.458-.214.123a.491.491 0 0 1 -.421.037.5.5 0 0 1 -.3-.3l-.3-.822a.518.518 0 0 1 -.483-.248.5.5 0 0 1 .183-.683l.333-.192a.493.493 0 0 1 .422-.037.5.5 0 0 1 .3.3l.28.781 1.811-1.053a.5.5 0 0 1 .65.732l-.343.457 2.062-1.189a.5.5 0 0 1 .625.763l-1.677 1.9 2.57-1.484a.5.5 0 0 1 .575.813l-1.227 1.053a.5.5 0 0 1 .388.861l-1.171 1.104.271-.156a.5.5 0 0 1 .584.8l-.47.421a.5.5 0 0 1 .454.854l-.627.578.038-.021a.5.5 0 0 1 .613.775l-1.6 1.692.983-.567a.5.5 0 0 1 .6.792l-1 .971.408-.235a.5.5 0 0 1 .6.786l-1.577 1.58.973-.562a.5.5 0 0 1 .5.866l-4.269 2.464a.49.49 0 0 1 -.251.068z" fill="#eaeaea"/><path d="m29.773 38.462a.5.5 0 0 1 -.275-.918l1.458-.959-2.9 1.672a.5.5 0 0 1 -.527-.85l4.7-3.109-6.186 3.572a.5.5 0 0 1 -.521-.853l3.353-2.158-4.385 2.532a.5.5 0 0 1 -.525-.85l8.6-5.674-9.923 5.733a.5.5 0 0 1 -.526-.85l10.464-6.9-11.68 6.742a.5.5 0 0 1 -.515-.857l2.985-1.871-3.47 2.006a.5.5 0 0 1 -.52-.852l9.9-6.377-10.656 6.147a.5.5 0 0 1 -.52-.853l9.53-6.091-10.088 5.823a.5.5 0 0 1 -.524-.852l13.42-8.775-14.087 8.133a.5.5 0 0 1 -.516-.856l5.854-3.682-6.021 3.475a.5.5 0 0 1 -.521-.853l8.076-5.184-8.242 4.758a.5.5 0 0 1 -.525-.85l9.247-6.1-9.383 5.419a.5.5 0 0 1 -.516-.856l.168-.106a.5.5 0 0 1 -.506-.86l7.23-4.878-7.1 4.1a.5.5 0 0 1 -.523-.851l1.475-.96-1.14.658a.5.5 0 0 1 -.54-.84l5.58-3.969-5.164 2.981a.5.5 0 0 1 -.539-.841l2.9-2.056-2.34 1.352a.5.5 0 0 1 -.539-.841l.7-.493-.089.051a.5.5 0 0 1 -.548-.834l.513-.382a.5.5 0 0 1 -.421-.876l.714-.582a.5.5 0 0 1 -.317-.157.5.5 0 0 1 -.046-.622l1.155-1.692a.413.413 0 0 1 -.041-.059.5.5 0 0 1 .177-.687l.7-.4a.5.5 0 0 1 .663.716l-.6.875 2.76-1.591a.5.5 0 0 1 .565.82l-.255.208 1.782-1.028a.5.5 0 0 1 .547.834l-.344.256 1.89-1.091a.5.5 0 0 1 .539.841l-.7.5 2.317-1.34a.5.5 0 0 1 .539.841l-2.9 2.055 5.02-2.9a.5.5 0 0 1 .54.84l-5.581 3.964 8.332-4.8a.5.5 0 0 1 .522.851l-1.46.95 3.122-1.8a.5.5 0 0 1 .53.846l-7.241 4.887 9.932-5.733a.5.5 0 0 1 .517.855l-.15.1 1.648-.951a.5.5 0 0 1 .525.849l-9.25 6.1 12.037-6.949a.5.5 0 0 1 .521.853l-8.072 5.181 10.455-6.035a.5.5 0 0 1 .516.855l-5.84 3.674 6.841-3.949a.5.5 0 0 1 .524.851l-13.428 8.77 13.681-7.9a.5.5 0 0 1 .519.854l-9.519 6.085 9.2-5.313a.5.5 0 0 1 .52.853l-9.9 6.377 9.518-5.5a.5.5 0 0 1 .516.856l-2.982 1.883 2.529-1.46a.5.5 0 0 1 .525.85l-10.463 6.9 9.863-5.693a.5.5 0 0 1 .525.849l-8.608 5.678 7.776-4.489a.5.5 0 0 1 .521.853l-3.345 2.153 2.412-1.393a.5.5 0 0 1 .526.85l-4.706 3.114 3.447-1.989a.5.5 0 0 1 .525.85l-1.445.952.017-.01a.5.5 0 0 1 .556.828l-4.458 3.44 1.137-.655a.5.5 0 0 1 .5.865l-7.6 4.388a.5.5 0 0 1 -.556-.828l4.454-3.439-8.292 4.786a.5.5 0 0 1 -.25.062z" fill="#dc3244"/><path d="m22.432 21.455a.5.5 0 0 1 -.281-.914l10.108-6.831-12.587 7.267a.5.5 0 0 1 -.522-.853l7.956-5.155-9.3 5.368a.5.5 0 0 1 -.526-.85l11.451-7.555-12.753 7.368a.5.5 0 0 1 -.519-.855l7.413-4.724-8.035 4.638a.5.5 0 0 1 -.525-.849l11.745-7.766-12.464 7.2a.5.5 0 0 1 -.531-.846l11.3-7.653-10.441 6.024a.5.5 0 0 1 -.522-.853l3.341-2.158-2.519 1.454a.5.5 0 0 1 -.524-.851l2.383-1.561-1.5.866a.5.5 0 0 1 -.529-.848l2.649-1.781-1.671.963a.5.5 0 0 1 -.562-.823l5.134-4.1-3.67 2.123a.5.5 0 0 1 -.569-.818l1.976-1.634-.606.35a.5.5 0 0 1 -.633-.753l1.284-1.545a.5.5 0 0 1 -.092-.907l1.717-.993a.5.5 0 0 1 .634.753l-.971 1.164 3.329-1.917a.5.5 0 0 1 .568.818l-1.968 1.631 4.242-2.449a.5.5 0 0 1 .562.823l-5.134 4.1 8.53-4.923a.5.5 0 0 1 .529.847l-2.648 1.782 4.558-2.629a.5.5 0 0 1 .524.851l-2.385 1.556 4.175-2.407a.5.5 0 0 1 .521.852l-3.328 2.148 5.2-3a.5.5 0 0 1 .531.846l-11.3 7.654 14.723-8.5a.5.5 0 0 1 .526.849l-11.752 7.764 13.451-7.766a.5.5 0 0 1 .519.855l-7.407 4.72 7.517-4.339a.5.5 0 0 1 .525.849l-11.452 7.557 11.636-6.718a.5.5 0 0 1 .521.853l-7.956 5.155 7.972-4.6a.5.5 0 0 1 .53.847l-10.11 6.83 10.185-5.88a.5.5 0 0 1 .526.85l-5.484 3.624 5.373-3.1a.5.5 0 0 1 .556.827l-3.014 2.347 2.866-1.654a.5.5 0 0 1 .659.72l-1.024 1.457.766-.442a.5.5 0 0 1 .742.518l-.091.53a.5.5 0 0 1 .091.906l-.478.277a.5.5 0 0 1 -.742-.518l.049-.318-1.8 1.039a.5.5 0 0 1 -.66-.72l1.024-1.457-7.177 4.148a.5.5 0 0 1 -.557-.827l3.015-2.346-13.453 7.763a.5.5 0 0 1 -.525-.849l5.484-3.625-8.069 4.659a.494.494 0 0 1 -.25.07z" fill="#eaeaea"/><path d="m44.776 5.407c-.7-2.375-1.9-5.541-4.954-4.919-6.782.012-13.569-.013-20.35-.001-2.027.1-2.761 1.543-3.465 3.2-5.7 11.793-5.953 30.359 9.306 34.205 3.078 4.04 1.777 9.567 1.869 14.294-.965 4.16-7.881 1.69-8.907 5.592.026 1.85 2.254 1.551 3.512 1.551 6.284-.37 12.937.75 19.056-.442 3.336-3.642-4.426-3.679-6.373-4.807-2.476-1.44-1.746-5.293-1.746-7.693 0-3.024-.221-6.018 1.712-8.511 14.215-3.676 15.687-20.876 10.34-32.469zm-28.2.453c.466-1.253 1.16-4.155 2.7-4.347 5.926-.012 11.87.008 17.8 0 6.871-1.506 7.013 7.5 8.462 12.222-10.613-.034-22.435 13.657-31.5 2.558a45.5 45.5 0 0 1 2.543-10.433zm14.7 38.866c-.271 7.771-.8 10.074 7.668 11.642 1.037.193 1.979 1.683.808 2.3-5.337.04-10.76-.028-16.128 0-1.027 0-3.375.479-3.821-.809-.692-2 3.961-2.509 5.191-2.786 5.788-.714 4.206-13.035 2.391-16.758a16.544 16.544 0 0 0 5.515-.09c-1.376 1.932-1.624 4.119-1.624 6.501zm12.751-15.62c-8.419 16.137-33.177 6.363-30.169-10.959 10.1 9.1 21.061-3.645 31.806-3.762.925 5.036.897 10.145-1.637 14.721z" fill="#262626"/></svg>