<svg id="Icons" height="512" viewBox="0 0 60 60" width="512" xmlns="http://www.w3.org/2000/svg"><path d="m29.622 37.459a.5.5 0 0 1 -.285-.911l7.383-5.116-9.8 5.658a.5.5 0 0 1 -.526-.849l7.625-5.065-9.281 5.357a.5.5 0 0 1 -.517-.855l2.515-1.591-3.371 1.945a.5.5 0 0 1 -.522-.851l9.138-5.948-10.343 5.967a.5.5 0 0 1 -.515-.856l1.853-1.158-2.4 1.387a.5.5 0 0 1 -.515-.856l4.539-2.844-5.1 2.946a.5.5 0 0 1 -.515-.856l5.113-3.206-5.624 3.243a.5.5 0 0 1 -.523-.852l13.08-8.5-13.919 8.033a.5.5 0 0 1 -.522-.852l13.876-9.029-14.58 8.418a.5.5 0 0 1 -.519-.855l10.94-6.963-11.307 6.524a.5.5 0 0 1 -.517-.856l9.063-5.723-9.254 5.343a.5.5 0 0 1 -.523-.852l14.476-9.436-14.753 8.516a.5.5 0 0 1 -.515-.857l6.067-3.8-5.973 3.451a.5.5 0 0 1 -.523-.852l13.6-8.875-13.548 7.817a.5.5 0 0 1 -.521-.854l10.5-6.751-10.216 5.905a.5.5 0 0 1 -.522-.853l10.453-6.777-10.009 5.776a.5.5 0 0 1 -.522-.852l9.371-6.1-8.734 5.042a.5.5 0 0 1 -.522-.852l7.322-4.761-6.477 3.74a.5.5 0 0 1 -.523-.852l5.2-3.384-4.16 2.4a.5.5 0 0 1 -.52-.854l1.088-.7a.5.5 0 0 1 -.468-.879l3.06-2.038-1.436.829a.5.5 0 0 1 -.568-.819l4.354-3.575a.5.5 0 0 1 -.393-.913l5.1-2.944a.5.5 0 0 1 .567.819l-4.286 3.522 9.462-5.462a.5.5 0 0 1 .528.849l-3.054 2.038 4.865-2.809a.5.5 0 0 1 .521.854l-1.026.655 2.19-1.261a.5.5 0 0 1 .522.852l-5.2 3.383 6.528-3.774a.5.5 0 0 1 .523.852l-7.322 4.765 8.583-4.956a.5.5 0 0 1 .523.852l-9.381 6.104 10.574-6.1a.5.5 0 0 1 .523.853l-10.447 6.769 11.49-6.634a.5.5 0 0 1 .52.854l-10.493 6.748 11.323-6.537a.5.5 0 0 1 .524.852l-13.599 8.878 14.485-8.367a.5.5 0 0 1 .516.857l-6.076 3.8 6.4-3.694a.5.5 0 0 1 .524.852l-14.478 9.439 15.089-8.712a.5.5 0 0 1 .517.856l-9.065 5.725 9.273-5.356a.5.5 0 0 1 .518.855l-10.937 6.972 11.1-6.41a.5.5 0 0 1 .523.852l-13.875 9.031 14.006-8.087a.5.5 0 0 1 .522.853l-13.082 8.5 13.015-7.516a.5.5 0 0 1 .515.857l-5.107 3.2 4.8-2.77a.5.5 0 0 1 .515.856l-4.54 2.85 4.127-2.38a.5.5 0 0 1 .515.857l-1.867 1.165 1.36-.785a.5.5 0 0 1 .522.852l-9.13 5.942 8.466-4.888a.5.5 0 0 1 .518.855l-2.519 1.594 1.754-1.013a.5.5 0 0 1 .527.85l-7.626 5.064 6.492-3.749a.5.5 0 0 1 .535.845l-7.384 5.117 5.64-3.256a.5.5 0 0 1 .533.845l-2.757 1.892.684-.395a.5.5 0 0 1 .547.836l-2.832 2.088a.505.505 0 0 1 .144.16.5.5 0 0 1 -.182.682l-5.1 2.945a.5.5 0 0 1 -.547-.835l.744-.549-4.079 2.354a.5.5 0 0 1 -.533-.844l2.758-1.892-5.011 2.893a.494.494 0 0 1 -.25.066z" fill="#36d3bf"/><path d="m17.91 59.433a.5.5 0 0 1 -.276-.917l4.6-3.051-6.293 3.635a.5.5 0 0 1 -.529-.848l8.916-6-10.786 6.221a.5.5 0 0 1 -.525-.85l9.855-6.517-11.344 6.549a.5.5 0 0 1 -.521-.852l9.151-5.923-10.226 5.9a.5.5 0 0 1 -.52-.853l9.156-5.873-10.026 5.792a.5.5 0 0 1 -.521-.853l11.545-7.463-12.415 7.17a.5.5 0 0 1 -.522-.851l12.5-8.114-13.264 7.656a.5.5 0 0 1 -.527-.849l12.81-8.532-13.535 7.814a.5.5 0 0 1 -.519-.853l6.606-4.233-6.84 3.949a.5.5 0 0 1 -.52-.853l6.342-4.087-6.482 3.74a.5.5 0 0 1 -.521-.852l6.087-3.946-6.141 3.546a.5.5 0 0 1 -.532-.844l10.034-6.879-10.151 5.86a.5.5 0 0 1 -.526-.85l5.8-3.824-5.626 3.247a.5.5 0 0 1 -.537-.841l8.939-6.26-8.689 5.016a.5.5 0 0 1 -.537-.842l7.6-5.312-7.1 4.1a.5.5 0 0 1 -.542-.839l7.392-5.3-6.623 3.815a.5.5 0 0 1 -.533-.844l3.76-2.578-2.839 1.64a.5.5 0 0 1 -.547-.835l5.616-4.135-4.156 2.4a.5.5 0 0 1 -.558-.83l5.288-4.155-2.742 1.583a.5.5 0 0 1 -.55-.833l3.074-2.309a.5.5 0 0 1 -.021-.878l5.161-2.979a.5.5 0 0 1 .551.833l-1.55 1.164 1.645-.95a.5.5 0 0 1 .559.826l-5.285 4.155 5.874-3.391a.5.5 0 0 1 .546.836l-5.62 4.136 6.225-3.594a.5.5 0 0 1 .533.846l-3.758 2.576 4.191-2.419a.5.5 0 0 1 .542.839l-7.395 5.307 8.348-4.82a.5.5 0 0 1 .536.843l-7.6 5.311 8.616-4.974a.5.5 0 0 1 .537.842l-8.942 6.261 10.287-5.938a.5.5 0 0 1 .526.85l-5.795 3.821 6.765-3.905a.5.5 0 0 1 .533.844l-10.028 6.878 11.779-6.806a.5.5 0 0 1 .521.853l-6.087 3.947 7.381-4.26a.5.5 0 0 1 .521.852l-6.348 4.091 7.831-4.521a.5.5 0 0 1 .519.854l-6.588 4.225 8.337-4.814a.5.5 0 0 1 .528.849l-12.815 8.534 16.366-9.448a.5.5 0 0 1 .522.851l-12.5 8.116 13.012-7.513a.5.5 0 0 1 .521.852l-11.553 7.467 11.332-6.541a.5.5 0 0 1 .519.854l-9.146 5.867 8.736-5.044a.5.5 0 0 1 .521.852l-9.152 5.923 8.58-4.953a.5.5 0 0 1 .526.85l-9.859 6.517 9.032-5.214a.5.5 0 0 1 .53.848l-8.91 6 7.723-4.456a.5.5 0 0 1 .527.85l-4.613 3.058 3.217-1.856a.5.5 0 0 1 .535.843l-4.375 3.042 2.267-1.308a.5.5 0 0 1 .552.831l-3.172 2.4a.492.492 0 0 1 .229.207.5.5 0 0 1 -.182.683l-5.156 2.977a.5.5 0 0 1 -.551-.831l1.855-1.407-5.653 3.265a.5.5 0 0 1 -.535-.843l4.381-3.049-6.866 3.965a.5.5 0 0 1 -.25.068z" fill="#6e68e2"/><path d="m41.388 31.245a.5.5 0 0 1 -.293-.905l3.149-2.281-.013-.014a.5.5 0 0 1 0-.644l2.284-2.7a.5.5 0 0 1 .234-.558l.542-.313a.5.5 0 0 1 .632.756l-1.072 1.266 2.162-1.248a.5.5 0 0 1 .543.838l-.037.027.508-.294a.5.5 0 0 1 .5.866l-8.891 5.134a.491.491 0 0 1 -.248.07z" fill="#4c39bc"/><path d="m40.709 59.459a.5.5 0 0 1 -.28-.914l5.451-3.688-7.48 4.319a.5.5 0 0 1 -.519-.854l1.389-.887-2.453 1.415a.5.5 0 0 1 -.523-.85l7.082-4.63-8.459 4.883a.5.5 0 0 1 -.517-.853l7.493-4.841-8.62 4.976a.5.5 0 0 1 -.526-.849l12.053-7.966-13.4 7.733a.5.5 0 0 1 -.519-.853l9.288-5.948-10.1 5.829a.5.5 0 0 1 -.517-.854l8.458-5.367-9.069 5.24a.5.5 0 0 1 -.521-.852l12.445-8.039-13.165 7.6a.5.5 0 0 1 -.512-.858l1.561-.964-1.727 1a.5.5 0 0 1 -.514-.857l5.859-3.66-6.067 3.5a.5.5 0 0 1 -.521-.852l13.105-8.452-13.5 7.791a.5.5 0 0 1 -.511-.857l4.09-2.54-4.088 2.359a.5.5 0 0 1 -.514-.857l4.377-2.723-4.313 2.491a.5.5 0 0 1 -.518-.856l8.912-5.639-8.851 5.11a.5.5 0 0 1 -.518-.856l8.529-5.4-8.361 4.827a.5.5 0 0 1 -.517-.855l7.609-4.821-7.31 4.221a.5.5 0 0 1 -.533-.845l3.426-2.354-3 1.73a.5.5 0 0 1 -.563-.823l2.258-1.807-1.669.963a.5.5 0 0 1 -.614-.775l1.323-1.4-.5.289a.5.5 0 0 1 -.706-.638l.525-1.164a.518.518 0 0 1 -.109-.131.5.5 0 0 1 .183-.683l.534-.308a.5.5 0 0 1 .706.637l-.291.646 2.111-1.219a.5.5 0 0 1 .615.776l-1.326 1.405 4.43-2.56a.5.5 0 0 1 .563.823l-2.263 1.808 8.306-4.794a.5.5 0 0 1 .533.845l-3.418 2.349 17.51-10.108a.5.5 0 0 1 .517.855l-7.6 4.814 8.231-4.753a.5.5 0 0 1 .518.855l-8.537 5.406 9.081-5.243a.5.5 0 0 1 .517.855l-8.911 5.64 9.368-5.409a.5.5 0 0 1 .514.857l-4.377 2.723 4.585-2.647a.5.5 0 0 1 .514.858l-4.107 2.55 4.241-2.448a.5.5 0 0 1 .521.853l-13.093 8.445 13.43-7.754a.5.5 0 0 1 .514.857l-5.879 3.672 5.881-3.4a.5.5 0 0 1 .513.858l-1.532.947 1.4-.807a.5.5 0 0 1 .522.852l-12.452 8.041 12.424-7.172a.5.5 0 0 1 .518.854l-8.472 5.38 8.237-4.755a.5.5 0 0 1 .519.854l-9.28 5.939 8.931-5.156a.5.5 0 0 1 .526.849l-12.06 7.967 11.532-6.657a.5.5 0 0 1 .521.853l-7.487 4.844 6.756-3.9a.5.5 0 0 1 .523.852l-7.084 4.631 6.129-3.538a.5.5 0 0 1 .519.854l-1.392.891.375-.217a.5.5 0 0 1 .53.846l-5.444 3.681 3.825-2.208a.5.5 0 0 1 .543.838l-4.425 3.2 1.789-1.033a.5.5 0 1 1 .5.865l-10.27 5.93a.5.5 0 0 1 -.543-.838l4.424-3.195-7.515 4.338a.494.494 0 0 1 -.25.062z" fill="#4c39bc"/><path d="m22.521 35.836a.5.5 0 0 1 -.376-.829l.791-.9-1.607.926a.5.5 0 0 1 -.575-.812l2.179-1.865-3.042 1.755a.5.5 0 0 1 -.554-.83l3.548-2.715-4.337 2.5a.5.5 0 0 1 -.538-.841l.89-.625-1.2.692a.5.5 0 0 1 -.556-.828l3.368-2.609-3.912 2.256a.5.5 0 0 1 -.54-.84l.578-.412-.715.412a.5.5 0 0 1 -.571-.816l3.124-2.615-3.512 2.028a.5.5 0 0 1 -.57-.818l1.854-1.543-1.978 1.142a.5.5 0 0 1 -.648-.736l1.6-2.1-1.762 1.019a.5.5 0 0 1 -.708-.635l.14-.317a.507.507 0 0 1 -.467-.249.5.5 0 0 1 .182-.683l1.072-.618a.5.5 0 0 1 .708.634l-.105.238 2.6-1.5a.5.5 0 0 1 .647.737l-1.6 2.1 4.883-2.82a.5.5 0 0 1 .571.818l-1.853 1.539 3.427-1.976a.5.5 0 0 1 .571.817l-3.128 2.612 4.756-2.746a.5.5 0 0 1 .54.84l-.581.414 1.273-.734a.5.5 0 0 1 .556.828l-3.364 2.609 4.439-2.562a.5.5 0 0 1 .538.842l-.892.627 1.388-.8a.5.5 0 0 1 .553.83l-3.546 2.715 1.055-.61a.5.5 0 0 1 .575.813l-2.418 2.069a.522.522 0 0 1 .406.183.5.5 0 0 1 -.009.646l-1.212 1.387a.5.5 0 0 1 .229.206.5.5 0 0 1 -.183.683l-1.732 1a.5.5 0 0 1 -.25.067z" fill="#7694d0"/><path d="m29.246 37.447a.5.5 0 0 1 -.35-.857l2.377-2.323-4.746 2.739a.5.5 0 0 1 -.572-.816l2.934-2.468-4.631 2.678a.5.5 0 0 1 -.542-.839l.722-.52a.5.5 0 0 1 -.518-.85l1.026-.752a.5.5 0 0 1 -.318-.886l1.8-1.488a.5.5 0 0 1 -.394-.862l2.427-2.28a.5.5 0 0 1 .205-.64l1.286-.743a.5.5 0 0 1 .593.8l-.681.639 1.054-.609a.5.5 0 0 1 .568.819l-1.6 1.319 2.014-1.169a.5.5 0 0 1 .546.836l-.531.389.7-.406a.5.5 0 0 1 .542.84l-.716.514.844-.488a.5.5 0 0 1 .572.816l-2.933 2.47 3.282-1.9a.5.5 0 0 1 .6.79l-2.376 2.323 2.616-1.509a.5.5 0 0 1 .6.784l-.751.758.642-.371a.5.5 0 0 1 .708.633l-.127.291a.5.5 0 0 1 .285.933l-1.07.617a.5.5 0 0 1 -.708-.634l.093-.213-2.558 1.477a.5.5 0 0 1 -.606-.784l.751-.758-2.805 1.633a.489.489 0 0 1 -.254.067z" fill="#6586bc"/><path d="m29.405 55.215a.5.5 0 0 1 -.35-.857l2.773-2.73-3.66 2.112a.5.5 0 0 1 -.549-.833l1.027-.766-1.255.724a.5.5 0 0 1 -.555-.829l3.315-2.549-3.695 2.133a.5.5 0 0 1 -.537-.842l1.165-.816-1.238.715a.5.5 0 0 1 -.539-.841l2.478-1.754-2.562 1.48a.5.5 0 0 1 -.542-.839l3.85-2.769-3.919 2.263a.5.5 0 0 1 -.53-.847l.973-.658-.826.476a.5.5 0 0 1 -.532-.846l1.912-1.307-1.728 1a.5.5 0 0 1 -.537-.842l3.558-2.5-3.34 1.929a.5.5 0 0 1 -.554-.83l3.567-2.729-3.226 1.862a.5.5 0 0 1 -.567-.819l1.925-1.577-1.425.823a.5.5 0 0 1 -.6-.791l1.339-1.3-.647.373a.5.5 0 0 1 -.618-.771l.5-.545a.5.5 0 0 1 -.4-.692l.439-1.034a.539.539 0 0 1 -.056-.079.5.5 0 0 1 .183-.683l.406-.234a.5.5 0 0 1 .71.628l-.177.416 1.008-.582a.5.5 0 0 1 .618.77l-.283.31 1.306-.754a.5.5 0 0 1 .6.791l-1.337 1.3 3.257-1.881a.5.5 0 0 1 .567.819l-1.924 1.575 4.58-2.643a.5.5 0 0 1 .554.83l-3.571 2.725 6.439-3.716a.5.5 0 0 1 .537.841l-3.56 2.5 3.321-1.917a.5.5 0 0 1 .532.846l-1.913 1.308 1.542-.89a.5.5 0 0 1 .53.847l-.967.654.509-.293a.5.5 0 0 1 .542.839l-3.848 2.77 3.28-1.893a.5.5 0 0 1 .539.841l-2.482 1.756 1.763-1.018a.5.5 0 0 1 .537.842l-1.161.813.337-.194a.5.5 0 0 1 .555.829l-3.314 2.548 2.072-1.2a.5.5 0 0 1 .549.833l-1.2.9a.5.5 0 0 1 .452.846l-2.965 2.919a.5.5 0 0 1 .249.932l-2.948 1.7a.49.49 0 0 1 -.258.072z" fill="#5a4ed1"/><path d="m36.133 35.9a.5.5 0 0 1 -.3-.9l1.878-1.391-1.772 1.023a.5.5 0 0 1 -.539-.832l3.611-2.668-3.688 2.129a.5.5 0 0 1 -.544-.837l4.33-3.146-4.56 2.622a.5.5 0 0 1 -.549-.831l3.7-2.733-4.012 2.314a.5.5 0 0 1 -.57-.817l4.1-3.416-4.765 2.753a.5.5 0 0 1 -.545-.837l.235-.171-.436.252a.5.5 0 0 1 -.63-.758l1.36-1.595-2.1 1.211a.5.5 0 1 1 -.5-.866l4.615-2.665a.5.5 0 0 1 .63.758l-1.361 1.6 6.008-3.47a.5.5 0 0 1 .545.837l-.233.171 1.74-1a.5.5 0 0 1 .57.817l-4.1 3.415 6.569-3.793a.5.5 0 0 1 .548.835l-3.7 2.735 5.189-3a.5.5 0 0 1 .544.838l-4.325 3.142 3.106-1.793a.5.5 0 0 1 .546.836l-3.604 2.661 1.7-.981a.5.5 0 0 1 .548.835l-2.434 1.8a.5.5 0 0 1 .228.932l-6.782 3.916a.491.491 0 0 1 -.251.068z" fill="#7694d0"/><path d="m22.555 59.178a18.524 18.524 0 0 0 7.388-3.229c22.665 14.983 43.479-21.025 18.023-32.107 6.773-30.583-42.376-30.2-36.028.075-20.649 8.183-11.112 39.709 10.617 35.261zm35.721-17.984c.4 13.744-16.485 22.649-27.316 13.95 5.411-4.424 8.189-12.316 6.031-19.209a18.885 18.885 0 0 0 10.651-11.1 18.116 18.116 0 0 1 10.634 16.359zm-30.834 10.55a18 18 0 0 1 -3.168-15.221 19.01 19.01 0 0 0 11.326-.087 17.6 17.6 0 0 1 -5.536 18.008 17.617 17.617 0 0 1 -2.622-2.7zm-1.2-20.015a17.286 17.286 0 0 1 3.57-4.214 18.011 18.011 0 0 1 5.588 8.315 16.768 16.768 0 0 1 -10.871-.243 17.172 17.172 0 0 1 1.711-3.858zm-2.9 3.381a17.579 17.579 0 0 1 -9.695-10.7 16.984 16.984 0 0 1 15.453 2.528 17.834 17.834 0 0 0 -5.759 8.172zm7.57-8.459a16.879 16.879 0 0 1 15.543-2.273 17.5 17.5 0 0 1 -9.645 10.922 18.714 18.714 0 0 0 -5.899-8.649zm-15.676-16.936c10.112-17.154 36.442-5.01 31.486 13.7a19.447 19.447 0 0 0 -16.5 2.686 18.7 18.7 0 0 0 -16.868-2.7 17.93 17.93 0 0 1 1.882-13.686zm-11.136 22.385a17.1 17.1 0 0 1 8.143-7.156 18.059 18.059 0 0 0 10.786 11.156 18.187 18.187 0 0 0 6 19.16c-14.538 11.04-34.472-7.86-24.929-23.16z" fill="#262626"/></svg>