<svg id="Icons" height="512" viewBox="0 0 60 60" width="512" xmlns="http://www.w3.org/2000/svg"><g fill="none" stroke-linecap="round" stroke-linejoin="round"><path d="m42.068 38.024.877-.506-3.802 3.431 4.632-2.674-6.206 4.767 7-4.042-6.247 4.865 7.091-4.095-6.321 4.937 7.185-4.149-6.038 5.402 7.324-4.228-6.285 5.364 7.451-4.302-6.088 5.792 7.616-4.397-6.745 5.349 7.721-4.459-6.543 5.746 7.865-4.54-7.073 5.406 7.961-4.596-7.251 5.373 8.048-4.646-7.304 5.458 8.137-4.698-7.32 5.591 8.236-4.755-6.994 6.113 8.387-4.843-7.478 5.836 8.336-4.812-7.441 5.784 7.972-4.603-6.564 5.62 6.746-3.894-5.097 4.332 4.649-2.684" stroke="#90a09c"/><path d="m9.738 5.997 5.811-3.355-9.672 7.255 14.976-8.647-16.734 11.25 19.866-11.47-20.917 13.52 23.219-13.406-24.28 16.22 27.238-15.725-27.769 17.846 29.873-17.247-30.12 18.778 31.58-18.233-31.726 19.736 33.101-19.111-33.139 21.199 34.962-20.185-34.845 22.031 36.378-21.003-36.138 22.65 37.443-21.617-37.11 23.179 38.292-22.108-38.007 23.126 38.745-22.37-38.089 24.227 39.376-22.734-38.604 24.456 39.708-22.925-39 24.227 39.781-22.967-39.161 23.971 39.72-22.933-38.927 24.066 39.516-22.814-38.866 23.651 39.264-22.67-38.271 23.801 38.759-22.377-37.549 23.582 37.982-21.929-36.628 23.09 36.954-21.335-35.976 22.067 36.117-20.852-35.015 21.583 35.095-20.262-33.757 21.032 33.756-19.489-32.489 20.116 32.403-18.707-31.003 19.296 30.809-17.787-28.86 18.425 28.447-16.424-25.717 17.015 24.853-14.349-21.488 14.607 20.036-11.568-15.955 11.218 13.597-7.85-9.132 6.59 5.811-3.355" stroke="#dce5e3"/><path d="m12.02 9.306 5.278-3.047-8.902 6.974 14.093-8.136-15.757 11.07 19.122-11.04-20.096 13.678 22.863-13.2-23.244 14.806 24.827-14.334-25.089 16.211 26.844-15.499-26.919 16.854 28.132-16.242-28.049 18.413 29.886-17.254-29.719 18.553 30.752-17.754-30.455 19.193 31.55-18.216-31.026 19.973 32.285-18.64-31.545 20.426 32.729-18.897-31.926 20.408 32.842-18.961-32.279 19.857 32.777-18.923-31.988 20.02 32.544-18.789-31.544 19.978 32.073-18.517-30.65 19.921 31.152-17.986-29.634 19.202 29.925-17.276-28.527 18.184 28.619-16.523-26.761 17.492 26.667-15.397-24.349 16.273 23.949-13.828-21.994 14.303 21.428-12.371-19.115 12.664 18.207-10.512-15.211 10.462 13.67-7.892-8.752 6.754 5.277-3.047" stroke="#4684aa"/></g><path d="m28.6 47.039a23.294 23.294 0 0 0 8.46-3.527c4.294 4.715 8.54 9.478 12.9 14.134a5.728 5.728 0 0 0 7.136.945c4.177-2.587 2.831-7.581-.861-9.9l-12.693-11.572c16.304-25.088-18.073-50.329-37.735-28.135-14.279 16.994 1.135 42.451 22.793 38.055zm27.632 3.461c3.492 2.333 2.075 8.723-2.527 7.984a4.563 4.563 0 0 1 -2.454-1.471c-4.376-4.747-8.689-9.551-13.053-14.308a24.18 24.18 0 0 0 4.544-4.505zm-51.402-38.037c11.622-19.543 41.284-10.853 41.438 11.599 0 20.868-26.128 30.378-39.4 14.191a22.845 22.845 0 0 1 -2.038-25.79z" fill="#262626"/><path d="m23.528 43.286c18.066.162 27.4-22.06 13.375-34.067a20.162 20.162 0 0 0 -22.2-2.1c-17.722 9.402-11.196 35.941 8.825 36.167zm-12.068-33.005c12.4-12.079 33.064-.3 30.66 16.346-1.135 8.818-8.66 16-17.648 16.086-16.623.053-25.072-20.983-13.012-32.432z" fill="#262626"/></svg>