<svg id="Icon" height="512" viewBox="0 0 60 60" width="512" xmlns="http://www.w3.org/2000/svg"><g fill="#ff634e"><path d="m56.137 29.271c-.142 0-.281-.061-.38-.175-.156-.183-.16-.45-.01-.639l.812-1.011-1.163.671c-.203.118-.459.079-.618-.095-.158-.173-.176-.432-.042-.624l1.389-1.989-1.493.861c-.21.123-.479.075-.635-.113-.155-.188-.153-.46.005-.645l.869-1.014-.89.514c-.213.126-.487.074-.642-.122-.154-.193-.143-.471.026-.652l.502-.537-.522.302c-.207.12-.473.075-.629-.106-.157-.183-.162-.45-.012-.638l.897-1.126-1.18.681c-.207.12-.473.074-.629-.106-.157-.182-.162-.45-.012-.638l.826-1.037-1.356.782c-.214.127-.493.072-.646-.128-.152-.199-.135-.48.042-.657l.15-.151-.924.533c-.24.139-.546.056-.683-.183-.139-.239-.057-.545.183-.683l4.191-2.42c.216-.125.494-.071.646.128s.135.48-.042.657l-.151.152.376-.217c.206-.122.472-.076.629.106s.162.45.012.638l-.825 1.037 1.182-.683c.206-.122.472-.076.629.106s.162.45.012.638l-.897 1.127 1.145-.661c.213-.125.487-.074.642.122.154.193.143.471-.026.652l-.503.537.516-.297c.21-.122.479-.075.635.113.155.188.153.46-.005.645l-.869 1.013.902-.521c.203-.119.459-.078.618.095.158.173.176.432.042.624l-1.389 1.989 1.527-.881c.206-.122.471-.076.63.107.156.183.16.45.01.639l-.813 1.013.514-.296c.238-.14.545-.058.683.183.139.239.057.545-.183.683l-2.821 1.628c-.078.046-.164.067-.25.067z"/><path d="m37.434 36.561c-.161 0-.318-.078-.414-.221-.147-.218-.101-.512.106-.673l1.655-1.294c-.144-.009-.282-.079-.373-.204-.151-.206-.122-.492.066-.664l2.876-2.626-1.141.658c-.218.128-.498.071-.651-.135-.151-.203-.126-.488.059-.662l2.915-2.738-1.407.812c-.223.129-.509.067-.658-.144s-.113-.5.083-.669l2.094-1.796-.845.487c-.229.135-.527.062-.671-.163-.145-.226-.086-.523.133-.678l2.652-1.874-1.476.852c-.228.135-.521.063-.668-.157-.146-.222-.093-.518.119-.676l2.623-1.957-1.221.704c-.217.126-.496.07-.648-.13s-.132-.482.048-.659l2.572-2.529c-.199.008-.349-.088-.441-.25-.139-.239-.057-.545.183-.683l2.98-1.721c.215-.127.495-.071.648.13.152.2.132.482-.048.659l-2.395 2.354 5.19-2.996c.229-.134.522-.062.668.157.146.222.093.518-.119.676l-2.622 1.957 3.574-2.063c.23-.136.528-.062.671.163.145.226.086.523-.133.678l-6.01 4.246c.018.019.035.039.051.061.149.211.113.5-.083.669l-2.093 1.795.484-.279c.218-.128.5-.071.651.135.151.203.126.488-.059.662l-2.917 2.741 1.393-.804c.219-.127.503-.068.653.138.151.206.122.492-.066.664l-2.872 2.622 1.462-.844c.227-.132.518-.064.664.153.147.218.101.512-.106.673l-1.193.934.04-.023c.239-.139.546-.057.683.183.139.239.057.545-.183.683l-6.235 3.6c-.078.046-.165.067-.25.067z"/><path d="m33.393 42.469c-.161 0-.318-.078-.415-.221-.146-.218-.1-.513.108-.674l3.689-2.872-5.771 3.331c-.199.117-.451.08-.61-.086-.16-.167-.186-.42-.062-.614l1.186-1.871-2.687 1.55c-.201.117-.457.079-.616-.092-.158-.171-.179-.429-.048-.621l1.002-1.478-1.775 1.024c-.197.115-.447.08-.607-.083-.159-.163-.188-.413-.07-.608l1.127-1.859-1.756 1.014c-.201.118-.459.079-.618-.095-.158-.172-.176-.432-.042-.624l1.148-1.648-1.47.848c-.202.118-.462.077-.619-.096-.158-.174-.175-.435-.039-.626l1.244-1.756-1.453.838c-.206.12-.468.076-.625-.102-.157-.179-.167-.443-.023-.633l1.236-1.632-1.307.754c-.209.123-.476.075-.632-.11s-.157-.455-.003-.642l1.089-1.311-1.041.601c-.217.126-.497.071-.649-.132-.152-.202-.129-.486.053-.661l.159-.152c-.19.074-.411.024-.552-.132-.158-.175-.173-.436-.035-.627l1.438-1.997-1.455.84c-.217.126-.495.072-.647-.13-.152-.199-.133-.481.046-.658l.326-.322-.101.058c-.202.118-.461.078-.62-.097-.158-.174-.174-.435-.037-.627l1.43-2.001-1.466.846c-.207.121-.473.075-.629-.106s-.162-.449-.013-.638l1.188-1.493-1.17.675c-.211.123-.481.074-.637-.115s-.15-.464.011-.647l.856-.975-.799.461c-.203.119-.462.078-.621-.097-.157-.175-.173-.437-.035-.628l1.206-1.679-1.413.815c-.215.126-.49.072-.645-.126-.153-.196-.138-.477.036-.655l.296-.304-.324.187c-.209.124-.479.074-.636-.114-.155-.188-.152-.461.008-.646l.673-.778-1.031.596c-.203.119-.463.078-.622-.099-.157-.175-.171-.438-.032-.628l.953-1.309-2.516 1.452c-.24.139-.546.056-.683-.183-.139-.239-.057-.545.183-.683l4.56-2.633c.203-.12.464-.077.622.099.157.175.171.438.032.628l-.953 1.309 1.56-.9c.209-.123.479-.074.636.114.155.188.152.461-.008.646l-.675.779.883-.509c.214-.126.491-.072.645.126.153.196.138.477-.036.655l-.297.305.295-.17c.203-.119.463-.078.621.097.157.175.173.437.035.628l-1.206 1.679 1.419-.818c.21-.124.48-.074.637.115.155.189.15.464-.011.647l-.856.974.82-.473c.206-.123.472-.076.629.106.156.182.162.449.013.638l-1.188 1.492 1.182-.682c.203-.119.461-.078.62.097.158.174.174.435.037.627l-1.43 2.001 1.473-.85c.215-.127.493-.073.647.13.152.199.133.481-.046.658l-.325.321.101-.058c.203-.119.463-.078.621.098.158.175.173.436.035.627l-1.438 1.997 1.453-.839c.217-.129.497-.072.649.132.152.202.129.486-.053.661l-.16.154c.192-.074.419-.02.558.146.156.185.157.455.003.642l-1.09 1.312 1.029-.594c.204-.121.466-.077.625.102.157.179.167.443.023.633l-1.237 1.633 1.288-.743c.202-.118.461-.078.619.096s.175.435.039.626l-1.244 1.756 1.433-.826c.201-.118.458-.079.618.095.158.172.176.432.042.624l-1.147 1.648 1.502-.867c.197-.115.447-.08.607.083.159.163.188.413.07.608l-1.127 1.859 1.975-1.14c.2-.119.455-.079.616.092.158.171.179.429.048.621l-1.003 1.479 2.561-1.478c.198-.116.45-.08.61.087.16.166.186.419.062.613l-1.185 1.871 10.282-5.937c.227-.133.518-.064.665.153.146.218.1.513-.107.674l-3.688 2.87 1.675-.967c.225-.133.516-.066.663.151.147.216.104.51-.102.673l-1.797 1.43c.044.036.082.081.111.133.139.239.057.545-.183.683l-3.502 2.021c-.226.131-.517.065-.663-.151-.147-.216-.104-.51.102-.673l.054-.042-2.134 1.231c-.078.046-.165.067-.25.067z"/><path d="m4.029 33.062c-.125 0-.249-.047-.344-.137-.161-.152-.202-.392-.103-.589l.403-.797c-.125-.011-.245-.068-.333-.168-.157-.18-.166-.445-.021-.634l.862-1.127-.217.125c-.213.125-.487.072-.642-.122s-.143-.473.027-.653l2.141-2.272-1.527.881c-.227.132-.519.063-.664-.152-.147-.218-.101-.512.105-.674l.665-.521-.107.062c-.227.134-.523.064-.669-.159-.145-.223-.091-.52.123-.677l6.608-4.856-5.369 3.1c-.229.136-.527.062-.672-.164-.144-.226-.084-.524.135-.678l2.257-1.582-.107.062c-.224.133-.514.066-.662-.149-.147-.215-.105-.507.097-.672l3.143-2.549c-.082-.042-.154-.108-.203-.194-.139-.239-.057-.545.183-.683l3.853-2.224c.226-.132.514-.066.662.149.147.215.105.507-.097.672l-2.004 1.625 4.503-2.6c.23-.136.527-.062.672.164.144.226.084.524-.135.678l-2.258 1.582 3.357-1.938c.229-.134.524-.063.669.159s.091.52-.123.677l-7.846 5.766c.102.034.192.1.256.194.147.218.101.512-.105.674l-1.835 1.439c.07.032.134.081.184.145.154.194.143.473-.027.653l-2.383 2.53c.117.016.229.072.312.166.157.18.166.445.021.634l-1.378 1.8c.009.007.017.015.025.022.161.152.202.392.103.589l-.884 1.744c.036.201-.055.413-.242.521l-.159.092c-.078.045-.164.066-.25.066z"/></g><path d="m.944 37.56h2.332v7.067c-3.836-.23-3.91 1.093 0 .745-.006 2.391.016 4.777-.017 7.168-3.833-.308-3.958 1.32-.013.919-.027 3.611-.876 6.777 4.106 5.842 16.933-.009 33.867.019 50.801 0 5.954-1.167-16.269-.405-17.931-.605-11.124 0-22.248 0-33.373 0-1.773.338-2.435-.608-2.124-2.296 0-7.693 0-15.388 0-23.073h17.795c3.391 11.908 18.171 12.22 21.577.149 19.415.497 20.993-1.427.35-.956 1.505-3.202 3.021-15.646 7.815-8.825 1.779 2.057 1.993 7.126 5.81 5.613 6.532-3.006-11.913-29.442-19.412 3.406h-10.454c-3.894-13.264-11.5-27.678-23.481-10.692-.025-7.062.038-14.167 0-21.218-2.16-.732-1.293 2.399-1.449 3.684-3.916-.347-4.01 1.444 0 1.021v7.096c-3.818-.26-3.884 1.154 0 .786v7.091c-3.92-.35-4.013 1.457 0 1.032.016 1.032-.023 2.118 0 3.126v4.039c-3.792-.17-3.858.946 0 .636v7.122c-.856-.19-4.641.153-2.332 1.12zm5.739-4.889h-1.797c7.381-15.474 11.908-18.747 17.365 0zm30.587.613h1.145c-1.805 5.43-7.993 5.115-9.915 0zm-32.546-8.858c2.699-5.328 9.659-12.649 15.259-6.486 4.449 4.961 4.489 12.437 8.301 17.789 12.461 11.546 11.816-13.52 18.958-17.619 4.326-3.372 13.424 7.436 10.127 10.289-.787.211-1.342-.497-1.607-1.107-6.093-14.588-10.728-2.955-12.965 5.896-2.936 10.8-15.474 10.673-18.661.142-4.912-16.372-10.22-21.274-19.413-3.536v-5.369z" fill="#262626"/></svg>