<svg height="512" viewBox="0 0 64 64" width="512" xmlns="http://www.w3.org/2000/svg"><g id="Filled_outline" data-name="Filled outline"><path d="m3 8h58v16h-58z" fill="#f3f2f0"/><path d="m18 12c-3.314 0-6 1-6 2v8c0 2.006 1.331 2.887 3 4l3 2 3-2c1.669-1.113 3-1.994 3-4v-8c0-1-2.686-2-6-2z" fill="#233b8e"/><path d="m3 24h58v16h-58z" fill="#233b8e"/><path d="m3 40h58v16h-58z" fill="#dd3e46"/><path d="m15 26 3 2 3-2c1.669-1.113 3-1.994 3-4v-1.2l-4-4.8-2 5-2-3-4 4 .089.8c.311 1.462 1.485 2.249 2.911 3.2z" fill="#fff"/><path d="m2 57h60v-50h-60zm2-48h56v14h-35.11a4.741 4.741 0 0 0 .11-1v-8c0-2.2-4.186-3-7-3s-7 .8-7 3v8a4.741 4.741 0 0 0 .11 1h-7.11zm15.694 5.071-1.917 4.792-1.622-2.432-3.155 3.155v-5.462c.348-.359 2.14-1.124 5-1.124s4.652.765 5 1.124v3.914zm3.306 7.091v.838c0 1.4-.824 2.014-2.555 3.168l-2.445 1.632-2.462-1.642c-1.547-1.031-2.362-1.635-2.508-2.772l2.815-2.815 2.378 3.568 2.083-5.208zm-19 3.838h8.143a11.779 11.779 0 0 0 2.3 1.832l3.557 2.368 3.572-2.382a11.62 11.62 0 0 0 2.286-1.818h36.142v14h-56zm0 16h56v14h-56z"/></g></svg>