<svg id="Icons" viewBox="0 0 60 60" xmlns="http://www.w3.org/2000/svg" width="300" height="300" version="1.1" xmlns:xlink="http://www.w3.org/1999/xlink" xmlns:svgjs="http://svgjs.dev/svgjs"><g width="100%" height="100%" transform="matrix(1,0,0,1,0,0)"><path d="m12.598 55.128c-.17 0-.335-.087-.429-.242-.141-.234-.067-.537.164-.682l6.71-4.189-6.41 3.7c-.238.138-.54.059-.68-.177-.14-.234-.065-.539.168-.682l.697-.429c-.217.072-.466-.009-.59-.216-.141-.233-.068-.536.163-.682l8.053-5.06-7.169 4.139c-.235.138-.537.059-.679-.175-.141-.233-.067-.537.163-.682l6.801-4.264-5.935 3.426c-.235.138-.538.059-.679-.175s-.067-.537.163-.682l5.46-3.415-4.611 2.662c-.237.137-.54.058-.679-.176-.141-.234-.066-.538.166-.682l1.182-.731-.386.222c-.236.139-.536.06-.678-.174-.141-.233-.069-.536.161-.682l7.104-4.488-6.225 3.594c-.236.138-.536.06-.678-.174-.141-.232-.07-.535.159-.681l7.91-5.029-7.012 4.048c-.234.135-.532.061-.675-.169-.143-.229-.077-.529.147-.68l12.595-8.413-11.527 6.655c-.235.138-.536.06-.678-.174-.141-.232-.07-.535.159-.681l2.594-1.647-1.769 1.021c-.232.137-.53.062-.674-.167-.143-.228-.08-.528.143-.68l7.521-5.104-6.54 3.775c-.232.136-.529.062-.673-.166s-.081-.528.141-.68l4.647-3.173-3.729 2.152c-.229.133-.521.064-.667-.157s-.095-.517.116-.675l5.062-3.803-4.035 2.329c-.227.133-.517.064-.665-.153-.146-.218-.1-.512.107-.674l2.611-2.035-1.659.957c-.22.13-.504.068-.656-.141-.149-.208-.117-.496.075-.667l1.426-1.261-.473.272c-.179.104-.402.087-.563-.043-.16-.129-.226-.344-.163-.54l.595-1.882c-.073-.043-.137-.104-.182-.183-.139-.239-.057-.545.183-.683l.501-.289c.18-.104.403-.087.563.043.16.129.226.344.163.54l-.482 1.527 3.663-2.115c.221-.128.505-.068.656.141.149.208.117.496-.075.667l-1.428 1.263 3.592-2.073c.226-.133.518-.064.665.153.146.218.1.512-.107.674l-2.612 2.036 4.968-2.867c.227-.134.521-.065.667.157.146.221.095.517-.116.675l-5.057 3.799 8.028-4.636c.231-.135.53-.062.673.166.144.228.081.528-.141.68l-4.658 3.181 6.979-4.029c.234-.135.531-.062.674.167s.08.528-.143.68l-7.516 5.101 10.31-5.952c.236-.137.537-.06.678.174.141.232.07.535-.159.681l-2.589 1.645 4.334-2.502c.233-.137.531-.062.675.169.143.229.077.529-.147.68l-12.604 8.42 14.021-8.095c.237-.136.537-.06.678.174.141.232.07.535-.159.681l-7.903 5.024 7.686-4.437c.237-.137.537-.06.678.174s.069.536-.161.682l-7.095 4.482 6.864-3.963c.236-.138.539-.059.679.176.141.234.066.538-.166.682l-1.196.741.907-.523c.238-.137.538-.059.679.175s.067.537-.163.682l-5.455 3.412 5.203-3.004c.236-.137.538-.058.679.175s.067.537-.163.682l-6.789 4.257 6.551-3.782c.236-.137.538-.06.679.175.141.233.068.536-.163.682l-8.063 5.066 7.839-4.525c.236-.138.538-.06.68.177.14.234.065.539-.168.682l-.406.25.112-.064c.237-.139.537-.059.679.175.141.234.067.537-.164.682l-6.704 4.186 6.463-3.73c.234-.137.532-.06.676.17.142.23.075.532-.151.681l-13.315 8.757 13.204-7.623c.236-.137.537-.059.677.173.142.231.071.534-.157.681l-7.166 4.594 6.945-4.01c.237-.137.537-.059.678.174s.07.535-.16.681l-3.156 2.004 2.888-1.667c.233-.138.53-.061.674.168.143.229.079.528-.145.68l-8.23 5.548 8.063-4.655c.232-.136.528-.062.672.165s.083.525-.137.679l-7.206 5.004 7.042-4.065c.228-.135.525-.063.671.162.144.225.087.523-.131.678l-5.573 3.969 5.387-3.109c.234-.135.528-.061.673.165.144.227.082.526-.139.679l-1.955 1.352 1.677-.968c.229-.134.522-.062.668.158s.093.518-.119.676l-2.676 1.991 2.424-1.399c.227-.134.521-.064.667.156.146.221.095.517-.116.676l-1.038.782.735-.424c.224-.131.511-.065.659.145.148.212.111.503-.086.67l-1.062.898.756-.436c.215-.128.494-.071.647.13.153.2.133.482-.047.659l-.482.476.13-.075c.157-.093.352-.089.509.005.155.094.248.265.241.447l-.049 1.259c.142.024.271.108.35.242.139.239.057.545-.182.684l-.446.259c-.157.091-.352.091-.509-.004-.156-.095-.249-.266-.242-.448l.044-1.125-2.738 1.58c-.216.126-.496.07-.647-.13-.153-.2-.133-.482.047-.659l.481-.474-2.193 1.266c-.223.132-.51.066-.659-.145-.148-.212-.111-.503.086-.67l1.063-.9-2.974 1.717c-.228.133-.521.063-.667-.156-.146-.221-.095-.517.116-.676l1.036-.781-2.8 1.616c-.228.134-.521.063-.668-.158-.146-.221-.093-.518.119-.676l2.672-1.987-4.893 2.824c-.23.136-.527.062-.673-.165-.144-.227-.082-.526.139-.679l1.961-1.355-3.813 2.201c-.229.134-.526.063-.671-.162-.144-.225-.087-.523.131-.678l5.571-3.968-8.334 4.812c-.23.135-.528.063-.672-.165-.144-.227-.083-.525.137-.679l7.211-5.008-10.141 5.854c-.235.136-.531.06-.674-.168-.143-.229-.079-.528.145-.68l8.226-5.544-11.078 6.396c-.236.139-.537.06-.678-.174-.141-.232-.07-.535.16-.681l3.16-2.006-4.959 2.862c-.235.138-.535.06-.677-.173-.142-.231-.071-.534.157-.681l7.167-4.595-9.441 5.451c-.236.137-.533.06-.676-.17-.142-.23-.075-.532.151-.681l13.314-8.756-16.646 9.61c-.079.046-.165.067-.25.067z" fill="#ababab" fill-opacity="1" data-original-color="#c65f3fff" stroke="none" stroke-opacity="1"/><path d="m12.869 22.128c-.17 0-.336-.087-.43-.244-.14-.234-.065-.538.167-.682l1.918-1.183-1.985 1.146c-.238.137-.539.058-.679-.175-.141-.234-.067-.538.164-.682l6.345-3.958-5.488 3.168c-.236.138-.537.061-.678-.175-.141-.232-.069-.536.161-.681l6.617-4.167-5.748 3.318c-.235.138-.533.06-.676-.17-.142-.23-.075-.531.151-.681l10.558-6.947-9.562 5.52c-.232.136-.53.062-.674-.167-.143-.228-.08-.527.143-.679l9.524-6.484-8.49 4.901c-.236.136-.534.061-.677-.172-.142-.231-.072-.533.155-.681l1.311-.848-.497.287c-.235.136-.532.061-.674-.168-.143-.229-.079-.529.145-.68l3.024-2.031-2.156 1.244c-.229.133-.521.064-.667-.157s-.095-.517.117-.676l4.809-3.608-3.793 2.189c-.229.133-.52.064-.667-.156-.146-.22-.096-.516.115-.675l1.988-1.506-1.082.624c-.21.124-.481.074-.637-.115s-.15-.463.011-.647l2.066-2.356-.902.521c-.203.119-.461.078-.62-.097-.158-.175-.174-.436-.036-.627l.455-.637c-.075-.043-.141-.105-.187-.186-.139-.239-.057-.545.183-.683l1.16-.67c.203-.12.462-.078.62.097s.174.436.036.627l-.109.154 1.521-.878c.21-.123.481-.074.637.115s.15.463-.011.647l-2.065 2.355 5.401-3.118c.227-.135.52-.064.667.156.146.22.096.516-.115.675l-1.988 1.506 4.049-2.337c.226-.135.521-.065.667.157.146.221.095.517-.117.676l-4.809 3.608 7.694-4.437c.234-.137.532-.061.674.168.143.229.079.529-.145.68l-3.031 2.036 4.996-2.884c.235-.138.534-.061.677.172.142.231.072.533-.155.681l-1.301.841 2.934-1.693c.235-.136.531-.061.674.167s.08.527-.143.679l-9.528 6.487 12.701-7.334c.235-.138.533-.06.676.17.142.23.075.531-.151.681l-10.554 6.944 13.503-7.795c.236-.136.537-.06.678.175.141.232.069.536-.161.681l-6.606 4.16 8.263-4.772c.236-.139.538-.059.679.175s.067.538-.164.682l-6.355 3.966 6.29-3.632c.236-.138.538-.06.68.177.14.234.065.538-.167.682l-1.912 1.179 1.629-.939c.235-.138.533-.06.676.17.142.23.075.532-.151.681l-13.1 8.615 12.986-7.497c.236-.137.534-.061.677.172.142.231.072.533-.155.681l-8.313 5.379 8.115-4.685c.234-.136.531-.062.674.167.143.228.08.528-.143.679l-10.13 6.887 10.007-5.777c.231-.135.53-.061.673.165.144.228.082.526-.139.679l-7.977 5.501 7.824-4.517c.228-.136.524-.062.669.16.146.224.09.521-.125.677l-7.082 5.147 6.95-4.013c.233-.135.527-.062.671.163.145.226.086.524-.133.678l-3.446 2.433 3.205-1.851c.229-.135.528-.062.672.164s.084.525-.136.679l-.857.597.556-.32c.221-.129.506-.068.656.142s.116.498-.077.668l-3.267 2.854 3.081-1.778c.215-.126.492-.07.646.127.153.198.136.479-.04.657l-1.674 1.691 1.415-.816c.202-.119.462-.078.62.097.158.174.174.435.037.626l-.571.801.207-.119c.239-.14.545-.057.683.183.139.239.057.545-.183.683l-2.202 1.271c-.202.118-.461.078-.62-.097-.158-.174-.174-.435-.037-.626l.571-.801-2.645 1.526c-.214.127-.492.071-.646-.127s-.136-.479.04-.657l1.675-1.692-4.296 2.479c-.222.131-.507.068-.656-.142-.15-.21-.116-.498.077-.668l3.266-2.853-6.351 3.666c-.233.136-.528.062-.672-.164-.144-.227-.084-.525.136-.679l.852-.593-2.49 1.438c-.229.135-.527.062-.671-.163-.145-.226-.086-.524.133-.678l3.453-2.437-5.684 3.28c-.23.134-.526.062-.669-.16-.146-.224-.09-.521.125-.677l7.08-5.146-10.369 5.986c-.233.136-.529.062-.673-.165-.144-.228-.082-.526.139-.679l7.973-5.499-10.992 6.347c-.233.137-.53.062-.674-.167-.143-.228-.08-.528.143-.679l10.139-6.893-13.41 7.741c-.236.137-.533.061-.677-.172-.142-.231-.072-.533.155-.681l8.3-5.37-10.785 6.227c-.235.137-.533.06-.676-.17-.142-.23-.075-.532.151-.681l13.101-8.616-16.404 9.471c-.079.046-.165.067-.25.067z" fill="#ababab" fill-opacity="1" data-original-color="#c65f3fff" stroke="none" stroke-opacity="1"/><g fill="#eb7548"><path d="m20.642 59.47c-.162 0-.32-.079-.416-.223-.146-.22-.097-.516.113-.675l6.072-4.623-9.445 5.453c-.225.132-.514.066-.662-.149-.147-.215-.105-.507.098-.672l1.181-.957-3.082 1.778c-.216.126-.496.07-.648-.131-.152-.2-.131-.482.049-.659l2.216-2.169-3.812 2.2c-.205.122-.469.077-.627-.104-.157-.18-.164-.446-.018-.635l1.682-2.161-1.062.612c-.198.117-.452.081-.611-.088-.16-.166-.184-.421-.06-.615l.309-.48c-.108-.038-.205-.114-.267-.222-.139-.239-.057-.545.183-.683l1.161-.67c.199-.116.452-.081.612.088.159.167.183.421.059.615l-.103.159 1.494-.862c.206-.12.471-.076.627.104.157.18.164.446.018.635l-1.682 2.162 5.026-2.901c.215-.127.495-.071.648.131.152.2.131.482-.049.659l-2.216 2.169 5.126-2.959c.224-.133.514-.066.662.149.147.215.105.507-.098.672l-1.179.956 10.777-6.222c.227-.134.52-.064.666.155s.097.516-.113.675l-6.071 4.622 5.624-3.247c.227-.134.52-.064.666.156s.097.516-.114.675l-3.12 2.368 3.3-1.905c.223-.13.509-.066.657.143.149.211.114.5-.08.669l-2.816 2.431 4.027-2.324c.226-.133.519-.064.666.154.146.219.098.514-.111.675l-.468.359 2.013-1.161c.227-.134.521-.064.667.156.146.221.095.517-.116.676l-.056.042 1.515-.874c.223-.131.512-.066.66.146s.109.504-.09.67l-1.443 1.202 3.497-2.019c.223-.13.51-.067.658.145.149.211.112.501-.084.669l-1.615 1.374 3.789-2.188c.225-.133.513-.065.661.148s.107.506-.094.671l-1.304 1.069 3.093-1.785c.22-.128.504-.069.655.14.149.207.119.494-.071.665l-1.813 1.625 1.767-1.02c.209-.123.478-.074.634.112.155.187.155.458-.002.644l-1.045 1.234.413-.238c.238-.14.545-.057.683.183.139.239.057.545-.183.683l-2.899 1.674c-.209.122-.478.075-.634-.112-.155-.187-.155-.458.002-.644l1.045-1.234-3.447 1.99c-.219.13-.503.07-.655-.14-.149-.207-.119-.494.071-.665l1.813-1.625-4.209 2.43c-.225.132-.513.065-.661-.148s-.107-.506.094-.671l1.306-1.071-3.275 1.891c-.222.132-.509.068-.658-.145-.149-.211-.112-.501.084-.669l1.615-1.374-3.789 2.188c-.224.132-.511.066-.66-.146-.148-.213-.109-.504.09-.67l1.443-1.202-3.497 2.019c-.228.133-.521.063-.667-.156-.146-.221-.095-.517.116-.676l.056-.042-1.515.874c-.227.134-.518.064-.666-.154-.146-.219-.098-.514.111-.675l.467-.358-2.059 1.188c-.222.132-.508.066-.657-.143-.149-.211-.114-.5.08-.669l2.816-2.431-5.617 3.242c-.228.133-.521.063-.666-.156-.146-.22-.097-.516.114-.675l3.118-2.366-5.538 3.197c-.078.046-.165.067-.25.067z" fill="#cccccc" fill-opacity="1" data-original-color="#eb7548ff" stroke="none" stroke-opacity="1"/><path d="m35.646 26.494c-.172 0-.341-.09-.433-.25-.139-.239-.057-.545.183-.683l8.599-4.964c.216-.126.494-.071.646.128.152.198.135.479-.042.657l-2.261 2.271 4.974-2.871c.212-.125.486-.073.641.12s.145.47-.023.651l-2.158 2.339 1.949-1.125c.197-.116.446-.081.607.083.159.163.188.414.07.609l-.669 1.101c.234-.131.538-.049.674.188.139.239.057.545-.183.683l-1.681.971c-.196.116-.447.08-.607-.083-.159-.163-.188-.414-.07-.609l.669-1.102-3.107 1.794c-.212.124-.486.073-.641-.12s-.145-.47.023-.651l2.158-2.339-5.389 3.11c-.214.127-.493.071-.646-.128-.152-.198-.135-.479.042-.657l2.261-2.271-5.336 3.08c-.079.046-.165.067-.25.067z" fill="#cccccc" fill-opacity="1" data-original-color="#eb7548ff" stroke="none" stroke-opacity="1"/><path d="m26.428 53.309c-.16 0-.317-.077-.414-.219-.146-.217-.102-.511.104-.674l1.164-.92-.006.003c-.217.13-.501.07-.652-.136-.151-.205-.124-.491.063-.664l2.655-2.454-2.062 1.189c-.225.132-.513.065-.661-.147-.148-.214-.107-.506.094-.671l1.258-1.035-.69.398c-.219.13-.502.069-.654-.138-.15-.207-.121-.494.068-.665l2.47-2.238-1.884 1.087c-.227.132-.517.065-.664-.151-.146-.217-.102-.511.104-.674l.562-.443c-.22.13-.507.068-.657-.143-.149-.21-.115-.499.08-.668l1.991-1.728-1.414.816c-.219.129-.503.07-.654-.139-.15-.208-.12-.495.07-.666l2.365-2.122-1.781 1.028c-.217.128-.499.07-.651-.135-.151-.203-.126-.488.059-.662l2.797-2.629-2.204 1.272c-.222.131-.51.068-.659-.145-.148-.212-.111-.502.086-.67l1.704-1.444-1.131.652c-.22.13-.506.068-.656-.142-.15-.209-.116-.498.077-.667l2.098-1.837-1.519.877c-.227.131-.516.064-.663-.151s-.104-.51.102-.672l.696-.555-.135.077c-.221.13-.509.067-.657-.143-.149-.211-.114-.5.081-.669l1.946-1.68-1.37.791c-.23.137-.53.062-.674-.167-.143-.228-.08-.527.143-.679l5.182-3.525-4.65 2.685c-.232.135-.528.062-.672-.164s-.084-.525.136-.679l3.94-2.746-3.413 1.97c-.233.137-.53.062-.674-.167-.143-.228-.08-.527.143-.679l.37-.252-.072.041c-.227.131-.516.064-.663-.15-.147-.216-.104-.509.101-.672l3.344-2.682-3.835 2.214c-.227.133-.518.064-.665-.153-.146-.218-.1-.513.108-.674l1.334-1.038-2.3 1.327c-.227.132-.517.065-.663-.151-.147-.217-.103-.51.103-.673l.929-.736-2.68 1.546c-.213.125-.488.073-.643-.123-.153-.195-.142-.474.029-.653l2.315-2.443-5.578 3.22c-.215.127-.491.073-.646-.127-.153-.197-.137-.479.039-.656l2.277-2.313-5.365 3.097c-.223.132-.511.066-.659-.145-.148-.212-.111-.503.086-.67l1.578-1.335-3.092 1.784c-.212.125-.485.073-.641-.12-.154-.193-.145-.47.023-.651l1.993-2.163-1.589.917c-.19.109-.429.084-.589-.065-.161-.148-.207-.384-.112-.582l.558-1.174c-.182.021-.384-.069-.487-.247-.138-.239-.056-.545.184-.684l1.163-.671c.189-.109.428-.083.589.066.161.148.207.384.112.582l-.525 1.105 3.037-1.753c.213-.125.486-.073.641.12s.145.47-.023.651l-1.993 2.163 5.084-2.935c.224-.131.511-.065.659.145.148.212.111.503-.086.67l-1.579 1.336 3.726-2.15c.215-.126.493-.072.646.127.153.197.137.479-.039.656l-2.277 2.313 5.365-3.097c.213-.125.488-.073.643.123.153.195.142.474-.029.653l-2.315 2.443 5.578-3.22c.226-.133.516-.065.663.151s.103.51-.103.673l-.929.736 2.705-1.561c.227-.133.517-.064.665.153.146.218.1.513-.108.674l-1.333 1.037 3.23-1.864c.226-.133.515-.065.663.15.147.216.104.509-.101.672l-3.344 2.681 6.069-3.503c.233-.135.531-.062.674.167.143.228.08.527-.143.679l-.369.251 1.901-1.097c.232-.135.528-.062.672.164s.084.525-.136.679l-3.94 2.746 6.218-3.589c.235-.135.531-.062.674.167.143.228.08.527-.143.679l-10.296 7.005c.146.21.11.497-.084.665l-1.947 1.68 1.353-.78c.225-.134.515-.065.663.151.147.216.104.51-.102.672l-.696.555.135-.077c.221-.129.507-.068.656.142.15.209.116.498-.077.667l-2.098 1.837 1.519-.877c.221-.13.51-.069.659.145.148.212.111.502-.086.67l-1.704 1.444 1.131-.652c.218-.128.499-.07.651.135.151.203.126.488-.059.662l-2.797 2.629 2.204-1.272c.22-.129.505-.068.654.139.15.208.12.495-.07.666l-2.365 2.122 1.781-1.028c.221-.128.508-.067.657.143s.115.499-.08.668l-1.991 1.728 1.414-.816c.225-.133.516-.066.664.151.146.217.102.511-.104.674l-.562.443c.219-.128.503-.068.654.138.15.207.121.494-.068.665l-2.472 2.24 1.886-1.088c.225-.132.513-.065.661.147.148.214.107.506-.094.671l-1.258 1.035.69-.398c.219-.128.502-.069.652.136.151.205.124.491-.063.664l-2.655 2.454 2.066-1.192c.225-.134.516-.065.664.151.146.217.102.511-.104.674l-1.161.918.601-.347c.238-.139.545-.057.683.183.139.239.057.545-.183.683l-6.542 3.777c-.078.046-.165.067-.25.067z" fill="#cccccc" fill-opacity="1" data-original-color="#eb7548ff" stroke="none" stroke-opacity="1"/></g><path d="m11.272 57.07c-.407 2.922 2.579 2.395 4.556 2.38h24.819c3.823-.199 9.284 1.619 8.08-4.367-1.816-9.552-3.946-19.086-5.869-28.633 4.718.112 6.641.625 5.791-5.023-1.415-6.651-2.696-13.362-4.167-19.985-.574-1.286-3.23-.823-4.347-.823-7.591.039-15.195-.063-22.778.007-2.233.188-2.168 2.567-2.523 4.278-1.183 5.745-2.393 11.5-3.562 17.239-.976 5.126 2.111 4.432 5.907 4.308-1.771 10.2-4.916 20.383-5.907 30.619zm7.361-30.62c2.685.226 7.453-1.139 7.639 2.861.221 7.027 0 14.093 0 21.123.079 5.809-9.542 2.094-13.257 3.152 1.873-9.045 3.745-18.091 5.618-27.136zm27.823 24.772c.161.779.322 1.557.483 2.336-4.18-.882-14.162 2.86-13.213-4.266 0-6.791 0-13.581 0-20.371.381-3.907 4.999-2.051 7.601-2.471 1.709 8.257 3.419 16.515 5.128 24.772zm-30.772-43.649c.505-1.155.665-6.42 1.816-6.193h23.395c1.166-.223 2.406-.01 2.372 1.437 1.223 5.905 2.445 11.81 3.668 17.715-11.393.138-22.553-.158-33.949.074.899-4.344 1.799-8.689 2.698-13.033zm-2.265 17.976c-.954-.218-.692-1.378-.692-2.128.012-.329-.196-1.506.086-1.982 10.771.029 21.563.003 32.343.011 2.568-.511 2.31 1.237 2.116 3.156-.018.545.253 1.135-.503.943-20.736-.873-13.127 1.347-14.486 25.809.304 6.814 15.96-.291 14.989 5.096 0 .305.191 1.893-.04 2.096-8.384.05-16.933-.035-25.368 0-2.907-.212-6.061.427-8.84-.214-.682-.925-.317-2.796-.183-3.908 21.068 1.123 13.575-2.175 14.886-20.983 1.684-11.465-6.951-7.096-14.309-7.895z" fill="#262626" fill-opacity="1" data-original-color="#262626ff" stroke="none" stroke-opacity="1"/></g></svg>