<svg id="Icons" height="512" viewBox="0 0 60 60" width="512" xmlns="http://www.w3.org/2000/svg"><path d="m6.343 39.153a.5.5 0 0 1 -.266-.924l11.429-7.169-11.083 6.4a.5.5 0 0 1 -.516-.856l11.659-7.324-10.8 6.239a.5.5 0 0 1 -.515-.858l8.247-5.135-7.441 4.291a.5.5 0 0 1 -.52-.853l14.644-9.389-14.341 8.28a.5.5 0 0 1 -.516-.855l9.828-6.179-10.359 5.979a.5.5 0 0 1 -.513-.859l4.071-2.512-4.31 2.487a.5.5 0 0 1 -.515-.856l8.674-5.421-8.97 5.177a.5.5 0 0 1 -.514-.857l7.39-4.6-7.566 4.366a.5.5 0 0 1 -.518-.855l12.165-7.72-12.387 7.15a.5.5 0 0 1 -.518-.856l11.25-7.125-11.319 6.537a.5.5 0 0 1 -.513-.856l8.46-5.312-8.36 4.824a.5.5 0 0 1 -.519-.855l11.149-7.113-10.96 6.328a.5.5 0 0 1 -.519-.854l9.949-6.351-9.594 5.539a.5.5 0 0 1 -.52-.853l8.814-5.638-8.29 4.785a.5.5 0 0 1 -.523-.852l9.481-6.169-8.72 5.034a.5.5 0 0 1 -.519-.855l3.353-2.13-2.469 1.425a.5.5 0 0 1 -.519-.853l2.534-1.622-1.462.843a.5.5 0 0 1 -.537-.842l7.5-5.267-5.4 3.114a.5.5 0 0 1 -.56-.824l4.216-3.35a.51.51 0 0 1 -.5-.245.5.5 0 0 1 .183-.682l5.487-3.169a.5.5 0 0 1 .561.824l-4.016 3.198 9.322-5.384a.5.5 0 0 1 .537.842l-7.505 5.269 10.636-6.141a.5.5 0 0 1 .519.854l-2.544 1.628 3.924-2.265a.5.5 0 0 1 .519.854l-3.344 2.124 4.548-2.625a.5.5 0 0 1 .522.852l-9.483 6.172 11.069-6.391a.5.5 0 0 1 .52.854l-8.815 5.638 10.024-5.786a.5.5 0 0 1 .518.855l-9.944 6.346 11.042-6.374a.5.5 0 0 1 .518.855l-11.155 7.117 12.145-7.011a.5.5 0 0 1 .515.857l-8.462 5.313 9.137-5.274a.5.5 0 0 1 .518.855l-11.241 7.118 11.936-6.89a.5.5 0 0 1 .518.854l-12.165 7.72 12.78-7.378a.5.5 0 0 1 .514.858l-7.401 4.606 7.7-4.448a.5.5 0 0 1 .515.856l-8.663 5.417 8.926-5.15a.5.5 0 0 1 .513.858l-4.082 2.521 4.152-2.4a.5.5 0 0 1 .515.856l-9.813 6.17 9.926-5.732a.5.5 0 0 1 .52.854l-14.645 9.398 14.777-8.531a.5.5 0 0 1 .515.857l-8.247 5.135 8.085-4.668a.5.5 0 0 1 .516.857l-11.671 7.327 11.435-6.6a.5.5 0 0 1 .515.857l-11.422 7.166 11.02-6.362a.5.5 0 0 1 .515.858l-5.595 3.482 5.054-2.918a.5.5 0 0 1 .528.848l-12.162 8.16 2.486-1.435a.5.5 0 0 1 .527.849l-7.916 5.283a.5.5 0 0 1 -.208.636l-5.568 3.216a.5.5 0 0 1 -.527-.849l.837-.558-1.948 1.124a.5.5 0 0 1 -.528-.848l12.158-8.161-18.348 10.594a.5.5 0 0 1 -.515-.858l5.613-3.493-8.519 4.918a.494.494 0 0 1 -.25.067z" fill="#34dd90"/><path d="m52.731 59.448a.5.5 0 0 1 -.444-.729l.287-.558-1.177.68a.5.5 0 0 1 -.635-.751l.643-.779-1.647.951a.5.5 0 0 1 -.614-.776l1.426-1.516-2.77 1.6a.5.5 0 0 1 -.592-.8l2.223-2.08-3.711 2.144a.5.5 0 0 1 -.559-.826l5.384-4.227-9.613 5.551a.5.5 0 0 1 -.527-.849l3.6-2.394-5.7 3.289a.5.5 0 0 1 -.52-.854l1.341-.856-2.688 1.551a.5.5 0 0 1 -.517-.856l1.275-.8-2.411 1.391a.5.5 0 0 1 -.523-.851l9.179-6.003-10.861 6.274a.5.5 0 0 1 -.521-.853l10.061-6.509-11.487 6.632a.5.5 0 0 1 -.52-.854l10.336-6.626-11.517 6.649a.5.5 0 0 1 -.518-.855l9.165-5.8-10.067 5.811a.5.5 0 0 1 -.512-.859l1.974-1.217-2.426 1.4a.5.5 0 0 1 -.52-.854l13.216-8.467-14.128 8.155a.5.5 0 0 1 -.516-.856l10.877-6.871-11.477 6.627a.5.5 0 0 1 -.512-.858l1.433-.88-1.63.94a.5.5 0 0 1 -.522-.852l15.656-10.114-16.3 9.409a.5.5 0 0 1 -.512-.859l2.064-1.269-2.117 1.223a.5.5 0 0 1 -.513-.859l3.013-1.856-3.023 1.748a.5.5 0 0 1 -.517-.855l11.759-7.459-11.888 6.862a.5.5 0 0 1 -.519-.855l12.263-7.823-12.269 7.083a.5.5 0 0 1 -.523-.852l14.492-9.445-14.384 8.3a.5.5 0 0 1 -.514-.857l4.126-2.573-3.749 2.164a.5.5 0 0 1 -.514-.857l2.677-1.667-2.191 1.264a.5.5 0 0 1 -.517-.854l6.123-3.876-5.51 3.181a.5.5 0 0 1 -.516-.857l2.223-1.395-1.5.867a.5.5 0 0 1 -.526-.85l8.548-5.658-7.415 4.28a.5.5 0 0 1 -.528-.847l6.473-4.345-4.921 2.841a.5.5 0 0 1 -.53-.847l3.21-2.181-1.2.693a.5.5 0 0 1 -.549-.833l3.266-2.437a.488.488 0 0 1 -.227-.2.5.5 0 0 1 .183-.682l5.488-3.169a.5.5 0 0 1 .549.833l-1.836 1.37 5.924-3.42a.5.5 0 0 1 .53.847l-3.218 2.178 5.647-3.26a.5.5 0 0 1 .528.848l-6.471 4.343 8.755-5.054a.5.5 0 0 1 .526.85l-8.55 5.659 10.524-6.075a.5.5 0 0 1 .515.856l-2.215 1.392 3.2-1.845a.5.5 0 0 1 .517.855l-6.116 3.878 7.207-4.161a.5.5 0 0 1 .515.858l-2.669 1.662 3.404-1.975a.5.5 0 0 1 .515.857l-4.155 2.593 4.868-2.809a.5.5 0 0 1 .524.851l-14.493 9.447 15.807-9.126a.5.5 0 0 1 .519.854l-12.26 7.821 13.126-7.578a.5.5 0 0 1 .518.855l-11.759 7.459 12.442-7.184a.5.5 0 0 1 .513.859l-3.006 1.851 3.254-1.878a.5.5 0 0 1 .512.859l-2.077 1.277 2.245-1.3a.5.5 0 0 1 .521.853l-15.649 10.115 16.219-9.363a.5.5 0 0 1 .511.858l-1.416.87 1.416-.817a.5.5 0 0 1 .517.855l-10.891 6.878 11.017-6.357a.5.5 0 0 1 .519.853l-13.209 8.461 13.272-7.662a.5.5 0 0 1 .513.859l-1.96 1.21 1.727-1a.5.5 0 0 1 .518.856l-9.173 5.807 8.923-5.152a.5.5 0 0 1 .519.854l-10.342 6.63 9.942-5.74a.5.5 0 0 1 .521.853l-10.052 6.5 9.452-5.457a.5.5 0 0 1 .523.851l-9.18 6 8.322-4.8a.5.5 0 0 1 .517.855l-1.265.8.348-.2a.5.5 0 0 1 .52.853l-1.325.847.179-.1a.5.5 0 0 1 .526.849l-3.6 2.4 1.939-1.127a.5.5 0 0 1 .558.827l-5.386 4.228 1.392-.8a.5.5 0 0 1 .592.8l-2.223 2.079 1.942-1.12a.5.5 0 0 1 .614.776l-1.428 1.51 1.1-.636a.5.5 0 0 1 .635.751l-.642.778.251-.145a.5.5 0 0 1 .694.662l-.345.668a.5.5 0 0 1 .25.933l-1.167.674a.5.5 0 0 1 -.245.063z" fill="#db6b50"/><g fill="#262626"><path d="m59.465 35.887c-1.565-8.638-9.511-14.2-17.855-15.055 1.784-15.79-17.71-24.914-30.548-17.92-11.319 4.888-14.779 21.173-4.744 29.116-2.8 11.2 1.211 6.874 8.687 4.656a24.2 24.2 0 0 0 3.4.606c-1.59 14.548 14.247 22.31 26.655 19.488 2.243.309 8.309 4.651 9.644 1.163.121-2.049-.915-4.219-1.025-6.232a17 17 0 0 0 5.786-15.822zm-43.659-.027c-2.959.171-5.782 2.12-8.633 2.754-.8-.211-.219-2.137-.139-2.593.16-2.206 1.726-4.365-.708-5.775-6.656-6.756-5.769-18.21 1.484-24.16 11.632-10.573 33.946-1.91 32.367 14.643-9.756-.4-19.915 5.863-21.637 15.653-.919-.142-1.811-.354-2.734-.522zm28.584 20.7c-.134 0-.108-.015 0 0zm10.93-8c-4.268 4.991-2.975 2.969-2.068 9.335.034.931.023.7-.455.636-6.422-2.2-6.279-3.03-13.327-1.829-26.333-.543-25.726-36.42.747-35.322 13.064.42 23.404 15.703 15.103 27.176z"/><path d="m28.674 12.007c-.82-2.565-9.975 11.734-11.632 13.081l-2.366-2.366c-.345-.345-1.714.191-1.348.557 1.325.809 2.65 4.084 4.346 2.728z"/><path d="m39.824 38.858c9.631-8.917 8.192-10.085-.68-.679-1.338-.773-7.216-8.844-7.812-5.885l6.848 6.849c-9.631 8.917-8.192 10.085.68.679 1.338.773 7.216 8.844 7.812 5.885z"/></g></svg>