<svg id="Icons" height="512" viewBox="0 0 60 60" width="512" xmlns="http://www.w3.org/2000/svg"><path d="m17.138 30.337a.5.5 0 0 1 -.452-.714l.314-.653-1.7.978a.5.5 0 0 1 -.634-.754l1.389-1.656-3.457 2a.5.5 0 0 1 -.6-.786l2.148-2.152-2.846 1.64a.5.5 0 0 1 -.655-.725l1.041-1.44a.509.509 0 0 1 -.472-.249.5.5 0 0 1 .183-.682l1.745-1.007a.5.5 0 0 1 .655.725l-.971 1.343 4.115-2.376a.5.5 0 0 1 .6.786l-2.151 2.152 2.61-1.509a.5.5 0 0 1 .633.754l-1.383 1.656.635-.366a.5.5 0 0 1 .7.646l-.419.882a.5.5 0 0 1 .125.917l-.9.523a.509.509 0 0 1 -.253.067z" fill="#e7e7f2"/><path d="m19.488 30.487a.5.5 0 0 1 -.336-.87l1.514-1.373-3.386 1.956a.5.5 0 0 1 -.6-.788l2.749-2.725-1.706.984a.5.5 0 0 1 -.623-.771l.783-.881a.5.5 0 0 1 -.141-.92l2.045-1.181a.5.5 0 0 1 .623.765l-.505.568 2.366-1.365a.5.5 0 0 1 .6.788l-2.749 2.726 4.091-2.361a.5.5 0 0 1 .586.8l-1.515 1.374.272-.156a.494.494 0 0 1 .6.072.5.5 0 0 1 .1.594l-.8 1.512a.477.477 0 0 1 .1.122.5.5 0 0 1 -.182.684l-.619.358a.5.5 0 0 1 -.693-.666l.5-.943-2.824 1.63a.489.489 0 0 1 -.25.067z" fill="#ececf4"/><path d="m42.559 30.47a.5.5 0 0 1 -.31-.893l.033-.026-1.475.851a.5.5 0 0 1 -.561-.825l1.415-1.118a.5.5 0 0 1 -.438-.83l2.467-2.746a.5.5 0 0 1 .191-.67l.925-.534a.5.5 0 0 1 .622.766l-1.358 1.511 2.821-1.628a.5.5 0 0 1 .56.825l-1.215.96 1.578-.91a.5.5 0 0 1 .56.825l-.128.1a.5.5 0 0 1 .557.741l-1.022 1.7.819-.469a.5.5 0 0 1 .735.551l-.142.581a.5.5 0 0 1 .045.89l-.491.283a.5.5 0 0 1 -.55-.034.5.5 0 0 1 -.185-.518l.073-.3-1.48.853a.5.5 0 0 1 -.678-.69l1.021-1.7-4.139 2.384a.5.5 0 0 1 -.25.07z" fill="#ececf4"/><path d="m23.6 30.479a.5.5 0 0 1 -.28-.915l1.79-1.207-2.449 1.413a.5.5 0 0 1 -.536-.843l3.805-2.652-2.492 1.438a.5.5 0 0 1 -.538-.841l2.363-1.666-.408.234a.5.5 0 0 1 -.558-.826l2.828-2.214-.581.335a.5.5 0 0 1 -.589-.8l2.061-1.894a.5.5 0 0 1 -.4-.8l1.46-1.949a.5.5 0 0 1 .213-.623l.537-.311a.5.5 0 0 1 .651.733l-.6.8 1.332-.769a.5.5 0 0 1 .589.8l-1.828 1.678 2.805-1.621a.5.5 0 0 1 .559.827l-2.834 2.221 3.809-2.2a.5.5 0 0 1 .538.841l-2.357 1.662 3.11-1.791a.5.5 0 0 1 .536.843l-3.808 2.653 4.7-2.711a.5.5 0 0 1 .53.847l-1.784 1.2 2.43-1.4a.5.5 0 0 1 .553.83l-5.033 3.839 6.326-3.653a.5.5 0 0 1 .539.841l-1.851 1.31 2.547-1.47a.5.5 0 0 1 .565.821l-3.56 2.882 4.741-2.737a.5.5 0 0 1 .585.8l-3.038 2.747 2.709-1.564a.5.5 0 0 1 .635.752l-1.677 2.031a.5.5 0 0 1 .167.926l-1.869 1.074a.5.5 0 0 1 -.635-.752l1.468-1.772-4.376 2.529a.5.5 0 0 1 -.585-.8l3.038-2.748-6.153 3.55a.5.5 0 0 1 -.565-.821l3.556-2.881-6.417 3.7a.5.5 0 0 1 -.539-.841l1.851-1.31-3.729 2.156a.5.5 0 0 1 -.553-.83l5.033-3.839-8.09 4.671a.494.494 0 0 1 -.247.067z" fill="#498d47"/><path d="m42.424 25.381a.5.5 0 0 1 -.412-.783l1.363-1.989-4.118 2.378a.5.5 0 0 1 -.6-.792l2.631-2.552-4.244 2.45a.5.5 0 0 1 -.578-.81l2.254-1.966-3.277 1.892a.5.5 0 0 1 -.565-.82l1.522-1.233-2.281 1.318a.5.5 0 0 1 -.659-.145.5.5 0 0 1 .086-.67l2-1.694-2.63 1.518a.5.5 0 0 1 -.559-.825l.8-.63-1.047.605a.5.5 0 0 1 -.595-.794l2.3-2.2-2.74 1.582a.5.5 0 0 1 -.6-.785l1.945-1.954-2.094 1.209a.5.5 0 0 1 -.6-.79l1.127-1.11a.522.522 0 0 1 -.47-.249.5.5 0 0 1 .183-.683l3.034-1.759a.5.5 0 0 1 .6.789l-.987.972 1.97-1.136a.5.5 0 0 1 .6.785l-1.945 1.954 3.08-1.779a.5.5 0 0 1 .6.794l-2.306 2.2 3.488-2.006a.5.5 0 0 1 .56.825l-.8.628 1.4-.81a.5.5 0 0 1 .574.815l-2 1.7 2.921-1.685a.5.5 0 0 1 .565.82l-1.52 1.227 2.282-1.317a.5.5 0 0 1 .578.81l-2.256 1.966 3.278-1.891a.5.5 0 0 1 .6.792l-2.63 2.547 2.533-1.462a.5.5 0 0 1 .662.715l-1.363 1.988.373-.215a.5.5 0 1 1 .5.865l-2.283 1.318a.49.49 0 0 1 -.25.072z" fill="#fdc13c"/><path d="m19.865 59.47a.5.5 0 0 1 -.263-.925l.951-.591-2.461 1.421a.5.5 0 0 1 -.52-.854l11.486-7.346-12.787 7.382a.5.5 0 0 1 -.517-.856l10.779-6.8-11.156 6.44a.5.5 0 0 1 -.518-.855l13.357-8.486-13.235 7.641a.5.5 0 0 1 -.514-.858l8.558-5.327-8.278 4.778a.5.5 0 0 1 -.512-.858l4.316-2.657-4 2.311a.5.5 0 0 1 -.522-.852l15.462-10.024-15.286 8.825a.5.5 0 0 1 -.518-.854l9.026-5.725-8.762 5.059a.5.5 0 0 1 -.521-.852l9.305-6-9.055 5.223a.5.5 0 0 1 -.525-.851l9.066-5.963-8.827 5.095a.5.5 0 0 1 -.519-.854l2.325-1.483-2 1.157a.5.5 0 0 1 -.518-.855l.49-.312-.151.087a.5.5 0 0 1 -.535-.844l6.329-4.37-6.079 3.509a.5.5 0 0 1 -.536-.846l4.6-3.233-4.33 2.5a.5.5 0 0 1 -.543-.838l3.333-2.411-3.04 1.755a.5.5 0 0 1 -.552-.831l2.332-1.762-2.015 1.164a.5.5 0 0 1 -.568-.819l1.646-1.356-1.313.758a.5.5 0 0 1 -.659-.72l1.344-1.919-1.035.592a.5.5 0 0 1 -.738-.539l.187-.855a.5.5 0 0 1 -.073-.9l.5-.289a.5.5 0 0 1 .739.539l-.134.612 2-1.153a.5.5 0 0 1 .659.719l-1.34 1.919 4.575-2.641a.5.5 0 0 1 .569.818l-1.649 1.359 3.775-2.179a.5.5 0 0 1 .552.831l-2.328 1.761 4.494-2.594a.5.5 0 0 1 .542.838l-3.33 2.408 5.628-3.249a.5.5 0 0 1 .537.842l-4.606 3.237 7.069-4.081a.5.5 0 0 1 .534.844l-6.327 4.373 9.036-5.216a.5.5 0 0 1 .518.855l-.505.321 2.04-1.177a.5.5 0 0 1 .519.855l-2.312 1.474 4.037-2.331a.5.5 0 0 1 .525.851l-9.064 5.963 11.807-6.817a.5.5 0 0 1 .521.853l-9.309 6 11.88-6.859a.5.5 0 0 1 .517.855l-9.024 5.726 11.4-6.584a.5.5 0 0 1 .522.853l-15.468 10.027 17.846-10.3a.5.5 0 0 1 .511.859l-4.313 2.656 3.635-2.1a.5.5 0 0 1 .514.857l-8.568 5.331 7.767-4.483a.5.5 0 0 1 .517.854l-13.349 8.477 12.48-7.2a.5.5 0 0 1 .517.856l-10.772 6.8 9.94-5.739a.5.5 0 0 1 .519.854l-11.489 7.35 10.62-6.134a.5.5 0 0 1 .514.857l-.957.594.222-.128a.5.5 0 0 1 .528.849l-10.769 7.172 9.853-5.687a.5.5 0 0 1 .52.852l-3.709 2.39 2.93-1.69a.5.5 0 0 1 .537.842l-7.7 5.392 6.771-3.909a.5.5 0 0 1 .535.844l-3.981 2.762 3.156-1.816a.5.5 0 0 1 .546.836l-3.338 2.453 2.479-1.431a.5.5 0 0 1 .587.8l-3.147 2.878 2.153-1.247a.5.5 0 0 1 .628.76l-1.2 1.386a.554.554 0 0 1 .455.25.5.5 0 0 1 -.182.683l-2.232 1.288a.5.5 0 0 1 -.628-.76l1.089-1.257-3.556 2.05a.5.5 0 0 1 -.586-.8l3.145-2.876-6.371 3.676a.5.5 0 0 1 -.542-.834l3.334-2.449-5.694 3.283a.5.5 0 0 1 -.536-.843l3.982-2.757-6.248 3.6a.5.5 0 0 1 -.537-.841l7.699-5.392-10.8 6.233a.5.5 0 0 1 -.52-.852l3.7-2.384-5.61 3.236a.5.5 0 0 1 -.528-.848l10.77-7.174-13.897 8.022a.5.5 0 0 1 -.25.07z" fill="#b9b9ce"/><path d="m40.377 33.47a.5.5 0 0 1 -.316-.887l.04-.033-1.478.852a.5.5 0 0 1 -.623-.762l1.458-1.662-4.2 2.424a.5.5 0 0 1 -.64-.746l1.49-1.856-4.5 2.6a.5.5 0 0 1 -.617-.772l1.409-1.517-3.975 2.289a.5.5 0 0 1 -.576-.811l.545-.47-2.22 1.281a.5.5 0 0 1 -.61-.78l1.336-1.374-3.741 2.154a.5.5 0 0 1 -.6-.793l1.141-1.092-3.27 1.885a.5.5 0 0 1 -.641-.744l1.494-1.876-4.54 2.62a.5.5 0 0 1 -.645-.738l1.493-1.933-4.627 2.671a.5.5 0 0 1 -.571-.815l.328-.275-1.83 1.055a.5.5 0 0 1 -.617-.772l1.366-1.471-2.13 1.23a.5.5 0 0 1 -.68-.688l.738-1.246a.5.5 0 0 1 -.5-.865l1.657-.956a.5.5 0 0 1 .679.687l-.738 1.246 3.352-1.93a.5.5 0 0 1 .616.772l-1.364 1.468 3.883-2.24a.5.5 0 0 1 .572.815l-.329.276 1.892-1.091a.5.5 0 0 1 .646.738l-1.494 1.931 4.627-2.669a.5.5 0 0 1 .641.744l-1.494 1.876 4.54-2.62a.5.5 0 0 1 .6.793l-1.138 1.094 3.27-1.887a.5.5 0 0 1 .61.78l-1.331 1.376 3.735-2.156a.5.5 0 0 1 .576.811l-.546.471 2.22-1.282a.5.5 0 0 1 .617.772l-1.4 1.519 3.965-2.291a.5.5 0 0 1 .639.746l-1.493 1.854 4.5-2.6a.5.5 0 0 1 .626.762l-1.459 1.662 4.2-2.424a.5.5 0 0 1 .567.819l-.038.031 1.474-.85a.5.5 0 0 1 .651.732l-1.489 1.987 3.9-2.253a.5.5 0 0 1 .674.7l-1.1 1.777 1.1-.638a.5.5 0 0 1 .5.866l-2.829 1.629a.5.5 0 0 1 -.674-.7l1.105-1.777-4.286 2.477a.5.5 0 0 1 -.65-.732l1.488-1.987-4.711 2.719a.493.493 0 0 1 -.25.07z" fill="#d6d6e5"/><path d="m41.16 20.343a.5.5 0 0 1 -.381-.824l1.3-1.532-2.77 1.6a.5.5 0 0 1 -.586-.8l2.159-1.966-3.218 1.858a.5.5 0 0 1 -.57-.817l3.892-3.243-4.955 2.861a.5.5 0 0 1 -.549-.834l4.2-3.129-4.576 2.641a.5.5 0 0 1 -.534-.843l1.3-.9-1.2.7a.5.5 0 0 1 -.559-.826l5.424-4.258a.51.51 0 0 1 -.433-.17.5.5 0 0 1 -.015-.636l1.911-2.441-.018-.027a.5.5 0 0 1 .184-.684l.8-.462a.5.5 0 0 1 .642.743l-1.131 1.439 3.41-1.968a.5.5 0 0 1 .558.826l-5.19 4.077 5.709-3.3a.5.5 0 0 1 .534.843l-1.3.9 1.393-.8a.5.5 0 0 1 .549.834l-4.2 3.128 2.6-1.5a.5.5 0 0 1 .57.816l-3.893 3.245 2.183-1.257a.5.5 0 0 1 .586.8l-2.159 1.966 1.266-.73a.5.5 0 0 1 .631.757l-1.3 1.53.751-.434a.5.5 0 0 1 .5.866l-3.265 1.883a.49.49 0 0 1 -.25.068z" fill="#fcae2e"/><path d="m47.22 9.49a.5.5 0 0 1 -.383-.822l.474-.563-1.134.655a.5.5 0 0 1 -.626-.76l1.807-2.067-3.081 1.776a.5.5 0 0 1 -.592-.8l1.415-1.329-2.287 1.32a.5.5 0 0 1 -.625-.763l2-2.273-2.72 1.572a.5.5 0 0 1 -.637-.75l1.82-2.219a.5.5 0 0 1 -.089-.906l1.66-.961a.5.5 0 0 1 .636.75l-1.512 1.85 2.99-1.726a.5.5 0 0 1 .625.763l-2 2.274 3.361-1.941a.5.5 0 0 1 .593.8l-1.415 1.33 1.974-1.139a.5.5 0 0 1 .626.761l-1.811 2.064.986-.57a.5.5 0 0 1 .633.755l-1.176 1.4a.474.474 0 0 1 .08.1.5.5 0 0 1 -.183.683l-1.159.669a.489.489 0 0 1 -.25.067z" fill="#fdc13c"/><path d="m36.75 24.865a.5.5 0 0 1 -.351-.856l.255-.25-1.279.738a.5.5 0 0 1 -.6-.79l1.771-1.729-2.277 1.314a.5.5 0 0 1 -.6-.794l1.831-1.745-1.518.876a.5.5 0 0 1 -.622-.767l1.23-1.371a.5.5 0 0 1 -.213-.931l2.244-1.3a.5.5 0 0 1 .622.766l-1.043 1.168 2.4-1.387a.5.5 0 0 1 .595.794l-1.827 1.746 2.121-1.224a.5.5 0 0 1 .6.79l-1.771 1.73 1.249-.721a.5.5 0 0 1 .6.789l-.938.92a.485.485 0 0 1 .2.189.5.5 0 0 1 -.183.683l-2.246 1.297a.489.489 0 0 1 -.25.065z" fill="#4a4a6b"/><g fill="#262626"><path d="m8.276 31.194a2.088 2.088 0 0 0 2.006 2.038c5.852 24.628-2.982 27.257 20.542 26.122 4.786-.815 13.371 2.567 15.1-3.69q1.893-11.287 3.762-22.576c2.536-.362 2.715-4.18.024-4.334-.352-2.636-1.342-5-4.355-5.11.926-5-1.561-9.6 2.1-14.361 1.8-.229 2.142-2.225 3-3.512 1.227-2.934-3.589-4.558-5.755-5.03-2.168-.023-4.986 3.6-3.788 5.433-5.486 9.949-9.912 3.946-16.488 17.965-2.008-.546-4.025-.816-5.928.231-2.791-2.249-9.8.245-7.888 4.471-1.195.267-2.332.991-2.332 2.353zm36.474 23.096c-.285 1.712-.429 4.245-2.723 4.356-8.129-.2-16.386.388-24.457-.21-4.346-4.056-3.739-18.653-5.754-25.082h36.423zm2.35-28.825c.707.915.694 2.176 1.053 3.25h-5.183c.67-1.372 1.339-2.775 2.026-4.123a5.65 5.65 0 0 1 2.104.873zm-10.772-1.531c-3.025-.6-2.142-5.758.735-5.824 3.093.362 2.538 5.036-.029 5.791a1.8 1.8 0 0 1 -.706.033zm3.79-1.4a4.423 4.423 0 0 0 .521-2.378 8.251 8.251 0 0 0 3.4-.394 6.263 6.263 0 0 1 -.25 4.41 10.073 10.073 0 0 1 -4.9-.241 4.746 4.746 0 0 0 1.229-1.4zm1.866-17.961c.68-1.058 1.058-2.387 1.994-3.241-.072-.088 0-.054.068-.05a.153.153 0 0 0 .041-.039c-.009.025-.018.025-.027.041 4.126 1.63 6.953 2.909 3.536 7.363-1.565-1.347-5.529-1.821-5.612-4.074zm-3.761 7.037a18.665 18.665 0 0 0 3.683-4.856l4.252 2.352c-1.649 3.167-3.213 6.585-2.22 10.21a5.163 5.163 0 0 1 -3.452.029 3.2 3.2 0 0 0 -3.648-2.119 6.565 6.565 0 0 1 -1.938-3.716 12.094 12.094 0 0 0 3.323-1.9zm-4.744 2.437a6.719 6.719 0 0 0 1.952 3.626 4.663 4.663 0 0 0 -2.338 2.89 10.411 10.411 0 0 1 -2.533-4.063 5.627 5.627 0 0 1 2.919-2.453zm-3.893 4.009a11.812 11.812 0 0 0 3.451 4.222 3.265 3.265 0 0 0 4.33 2.435 12.252 12.252 0 0 0 5.849.649l-1.631 3.353h-18.651c2.222-3.555 4.429-7.097 6.652-10.659zm-10.404 7.044.038-.013c-.068.033-.066.027-.038.013zm.052-.017c1.517-.8 3.025-.312 4.589.028q-1.12 1.8-2.246 3.6h-3.791c.47-1.15.23-2.964 1.448-3.624zm-7.334 1.59c.263-2.017 2.516-1.764 4.043-2.157.6-.112 1.07.371 1.5.713-.684 1.012-.716 2.333-1.084 3.479-1.375-.01-2.752-.02-4.126 0a1.958 1.958 0 0 1 -.333-2.035zm-1 2.637c.211.317.83.229 1.17-.026h4.242a.911.911 0 0 0 1.173 0h3.958c6.617.022 13.388-.015 20.049 0 2.125.145 4.618-.107 6.847 0a.723.723 0 0 0 .774.148c1.26.373 1.639 2.591.4 3.236-3.138-1.134-47.835 2.987-38.619-3.358z"/><path d="m44.06 1.284h-.014c-.019.015-.042.032-.068.05.022.015.05.002.082-.05z"/></g></svg>