<svg id="Icons" height="512" viewBox="0 0 60 60" width="512" xmlns="http://www.w3.org/2000/svg"><path d="m29.49 40.377a.5.5 0 0 1 -.288-.909l6.148-4.332-7.392 4.264a.5.5 0 0 1 -.544-.837l7.291-5.3-9.974 5.758a.5.5 0 0 1 -.531-.845l5.687-3.876-7.856 4.534a.5.5 0 0 1 -.527-.849l5.171-3.449-7.145 4.133a.5.5 0 0 1 -.53-.845l8.209-5.634-10.844 6.259a.5.5 0 0 1 -.525-.849l6.46-4.258-8.538 4.928a.5.5 0 0 1 -.519-.855l1.889-1.2-3.324 1.919a.5.5 0 0 1 -.531-.847l8.705-5.9-11.31 6.53a.5.5 0 0 1 -.524-.852l5.213-3.4-7.075 4.086a.5.5 0 0 1 -.528-.848l7.394-4.955-9.71 5.607a.5.5 0 0 1 -.52-.853l3.232-2.085-3.681 2.125a.5.5 0 1 1 -.5-.865l21.286-12.29a.5.5 0 0 1 .52.852l-3.227 2.082 5.085-2.935a.5.5 0 0 1 .528.848l-7.4 4.958 10.057-5.807a.5.5 0 0 1 .524.852l-5.212 3.4 7.366-4.253a.5.5 0 0 1 .53.847l-8.707 5.9 11.691-6.749a.5.5 0 0 1 .518.855l-1.883 1.2 2.751-1.591a.5.5 0 0 1 .526.85l-6.462 4.26 7.362-4.25a.5.5 0 0 1 .533.845l-8.2 5.63 9.422-5.44a.5.5 0 0 1 .528.849l-5.182 3.456 6.05-3.492a.5.5 0 0 1 .531.846l-5.684 3.875 6.666-3.849a.5.5 0 0 1 .544.837l-7.287 5.292 8.7-5.02a.5.5 0 0 1 .538.842l-6.151 4.334 7.31-4.22a.5.5 0 0 1 .55.833l-4.628 3.461 5.785-3.339a.5.5 0 0 1 .548.833l-2.929 2.178 3.826-2.209a.5.5 0 0 1 .549.834l-1.606 1.2 2.313-1.336a.5.5 0 0 1 .605.785l-2.665 2.669 4.067-2.347a.5.5 0 0 1 .577.811l-.7.6 1.316-.759a.5.5 0 0 1 .654.727l-.9 1.236 1.869-1.079a.5.5 0 0 1 .74.334l.258 1.274.956-.552a.5.5 0 0 1 .6.08l.467.469a.5.5 0 0 1 .477.879l-.31.178a.5.5 0 0 1 -.6-.08l-.463-.471-1.226.708a.5.5 0 0 1 -.74-.334l-.254-1.274-3.3 1.905a.5.5 0 0 1 -.654-.726l.9-1.237-3.836 2.213a.5.5 0 0 1 -.578-.81l.7-.6-2.764 1.6a.5.5 0 0 1 -.6-.785l2.652-2.67-6.521 3.764a.5.5 0 0 1 -.548-.834l1.605-1.194-3.849 2.223a.5.5 0 0 1 -.548-.834l2.931-2.18-5.606 3.236a.5.5 0 0 1 -.55-.833l4.627-3.46-9.601 5.532a.5.5 0 0 1 -.25.067z" fill="#753e49"/><g fill="#cd4c60"><path d="m57.339 37.375a.5.5 0 0 1 -.5-.546l.064-.7-1.439.831a.5.5 0 0 1 -.666-.71l.336-.5-1.347.777a.5.5 0 0 1 -.643-.741l.747-.95-1.879 1.084a.5.5 0 0 1 -.614-.776l.973-1.03-1.96 1.131a.5.5 0 0 1 -.62-.768l1.789-1.977-3.1 1.788a.5.5 0 0 1 -.565-.82l.437-.356-.982.567a.5.5 0 0 1 -.583-.806l2-1.786-2.916 1.683a.5.5 0 0 1 -.569-.817l1.9-1.579-2.642 1.532a.5.5 0 0 1 -.56-.826l1.635-1.28-2.235 1.286a.5.5 0 0 1 -.669-.159.5.5 0 0 1 .123-.677l.415-.3-.78.449a.5.5 0 0 1 -.658-.144.5.5 0 0 1 .084-.669l3.714-3.165-4.7 2.715a.5.5 0 0 1 -.557-.828l2.928-2.275-3.564 2.057a.5.5 0 0 1 -.545-.836l1.8-1.317-2.2 1.268a.5.5 0 0 1 -.568-.818l4.525-3.741-5.384 3.107a.5.5 0 0 1 -.561-.823l4.227-3.37-4.954 2.859a.5.5 0 0 1 -.562-.822l4.42-3.549-9.259 5.346a.5.5 0 0 1 -.534-.844l3.841-2.656-5.856 3.38a.5.5 0 0 1 -.532-.845l4.459-3.041-6.066 3.5a.5.5 0 0 1 -.521-.853l.12-.077-.945.545a.5.5 0 1 1 -.5-.865l18.059-10.424a.5.5 0 0 1 .522.852l-.135.087.5-.288a.5.5 0 0 1 .532.846l-4.459 3.042 4.975-2.872a.5.5 0 0 1 .534.844l-3.838 2.653 4.269-2.463a.5.5 0 0 1 .562.822l-4.42 3.549 5.079-2.932a.5.5 0 0 1 .562.823l-4.23 3.372 4.765-2.75a.5.5 0 0 1 .568.818l-4.523 3.74 5.049-2.915a.5.5 0 0 1 .545.836l-1.811 1.322 1.9-1.1a.5.5 0 0 1 .556.828l-2.927 2.272 3.094-1.786a.5.5 0 0 1 .574.814l-3.714 3.172 4.009-2.315a.5.5 0 0 1 .546.836l-.415.3.353-.2a.5.5 0 0 1 .558.826l-1.634 1.282 1.676-.966a.5.5 0 0 1 .57.817l-1.9 1.578 2.008-1.158a.5.5 0 0 1 .583.806l-2 1.785 2.193-1.266a.5.5 0 0 1 .566.82l-.442.355.444-.256a.5.5 0 0 1 .62.769l-1.789 1.973 2.157-1.245a.5.5 0 0 1 .613.776l-.971 1.029 1.161-.67a.5.5 0 0 1 .643.741l-.746.949.951-.549a.5.5 0 0 1 .666.71l-.336.505.427-.246a.5.5 0 0 1 .748.479l-.064.7.186-.107a.5.5 0 1 1 .5.865l-1.022.59a.5.5 0 0 1 -.249.062z"/><path d="m2.205 37.419a.5.5 0 0 1 -.263-.925l10.9-6.74-9.969 5.752a.5.5 0 0 1 -.513-.859l8.162-5.041-5.695 3.294a.5.5 0 0 1 -.511-.86l1.584-.977a.5.5 0 0 1 -.482-.233.5.5 0 0 1 .148-.681l10.946-7.257-8.552 4.939a.5.5 0 0 1 -.523-.852l4.652-3.018-3.008 1.739a.5.5 0 0 1 -.522-.851l2.619-1.7-1.1.632a.5.5 0 0 1 -.525-.849l2.487-1.646-.827.478a.5.5 0 0 1 -.535-.844l3.328-2.308-1.131.653a.5.5 0 0 1 -.575-.813l3.87-3.313a.5.5 0 0 1 -.141-.921l3.771-2.183a.5.5 0 0 1 .575.813l-3.323 2.845 6.909-3.988a.5.5 0 0 1 .535.844l-3.329 2.308 4.643-2.68a.5.5 0 0 1 .526.849l-2.484 1.643 3.281-1.894a.5.5 0 0 1 .522.852l-2.628 1.708 3.211-1.854a.5.5 0 0 1 .523.853l-4.642 3.011 5.881-3.39a.5.5 0 0 1 .526.85l-10.95 7.258 18.073-10.435a.5.5 0 0 1 .511.859l-.237.146 1.282-.74a.5.5 0 0 1 .513.858l-8.159 5.039 9.241-5.337a.5.5 0 0 1 .512.858l-17.543 10.855a.508.508 0 0 1 .189.18.5.5 0 0 1 -.155.68l-3.137 2.03a.492.492 0 0 1 .394.248.5.5 0 0 1 -.183.682l-15.364 8.87a.5.5 0 0 1 -.522-.856l1.671-1.081-4.207 2.433a.5.5 0 0 1 -.25.067z"/><path d="m29.955 52.47a.5.5 0 0 1 -.275-.917l8.62-5.688-11.177 6.454a.5.5 0 0 1 -.516-.856l.153-.095-1.426.822a.5.5 0 0 1 -.529-.847l9.847-6.63-12.33 7.119a.5.5 0 0 1 -.522-.852l6.14-3.989-7.733 4.465a.5.5 0 0 1 -.517-.855l.96-.607-1.95 1.123a.5.5 0 0 1 -.524-.85l6.157-4.04-7.556 4.362a.5.5 0 0 1 -.536-.843l9.246-6.452-11.154 6.441a.5.5 0 0 1 -.524-.85l3.491-2.285-4.4 2.538a.5.5 0 0 1 -.528-.848l3.842-2.578-4.728 2.73a.5.5 0 0 1 -.527-.849l3.109-2.07-3.841 2.217a.5.5 0 0 1 -.527-.84l5.589-3.946-6.579 3.8a.5.5 0 0 1 -.552-.831l5.873-4.449-6.971 4.016a.5.5 0 0 1 -.555-.829l4.46-3.433-5.254 3.032a.5.5 0 0 1 -.567-.82l3.572-2.933-4.222 2.437a.5.5 0 0 1 -.591-.8l2.666-2.484-3.19 1.84a.5.5 0 0 1 -.634-.753l1.569-1.882-1.905 1.1a.5.5 0 0 1 -.68-.687l.512-.869-.48.276a.5.5 0 0 1 -.75-.444l.011-.48a.507.507 0 0 1 -.337-.242.5.5 0 0 1 .183-.683l.422-.236a.5.5 0 0 1 .75.445l-.008.337 1.354-.782a.493.493 0 0 1 .605.081.5.5 0 0 1 .075.6l-.511.869 2.694-1.55a.5.5 0 0 1 .634.753l-1.57 1.881 4.565-2.634a.5.5 0 0 1 .591.8l-2.669 2.48 5.688-3.28a.5.5 0 0 1 .568.819l-3.576 2.933 6.5-3.754a.5.5 0 0 1 .555.829l-4.456 3.43 7.384-4.257a.5.5 0 0 1 .552.831l-5.875 4.45 9.149-5.281a.5.5 0 0 1 .538.84l-5.586 3.944 7.932-4.584a.5.5 0 0 1 .527.848l-3.108 2.07 3.99-2.3a.5.5 0 0 1 .528.848l-3.841 2.578 6.936-4.005a.5.5 0 0 1 .524.85l-3.5 2.3 5.862-3.389a.5.5 0 0 1 .536.842l-9.243 6.451 12.634-7.293a.5.5 0 0 1 .524.85l-6.158 4.04 8.473-4.89a.5.5 0 0 1 .517.855l-.96.607 2.533-1.462a.5.5 0 0 1 .523.851l-6.138 3.988 8.383-4.84a.5.5 0 0 1 .529.847l-9.854 6.63 12.96-7.476a.5.5 0 0 1 .515.856l-.127.079 1.623-.936a.5.5 0 0 1 .526.849l-8.625 5.69 11.326-6.539a.5.5 0 0 1 .517.855l-2.583 1.633 4.313-2.489a.5.5 0 0 1 .532.845l-10.31 7.034 9.649-5.577a.5.5 0 0 1 .521.854l-1.462.937a.529.529 0 0 1 .445.235.5.5 0 0 1 -.144.679l-2.458 1.665a.5.5 0 0 1 .239.932l-10.982 6.34a.5.5 0 0 1 -.53-.847l1.614-1.095-5.1 2.944a.5.5 0 0 1 -.521-.854l.448-.287-2.748 1.586a.5.5 0 0 1 -.532-.846l10.304-7.027-14.267 8.238a.5.5 0 0 1 -.517-.855l2.584-1.632-4.395 2.533a.5.5 0 0 1 -.25.07z"/></g><path d="m23.929 29.47a.5.5 0 0 1 -.33-.875l.775-.683-2.51 1.448a.5.5 0 0 1 -.59-.8l1.368-1.267-2.057 1.187a.5.5 0 0 1 -.6-.793l3.144-3.017a.5.5 0 0 1 .243-.517l.789-.455a.5.5 0 0 1 .6.794l-1.105 1.061 2.344-1.353a.5.5 0 0 1 .59.8l-1.37 1.27 3.012-1.74a.5.5 0 0 1 .58.808l-.775.683 1.683-.971a.5.5 0 0 1 .607.782l-.864.883.257-.148a.5.5 0 0 1 .5.866l-3.412 1.967a.5.5 0 0 1 -.608-.782l.864-.883-2.885 1.665a.493.493 0 0 1 -.25.07z" fill="#fff"/><path d="m33.627 29.47a.5.5 0 0 1 -.348-.86l.665-.643-2.314 1.333a.5.5 0 0 1 -.563-.823l.038-.031-.382.221a.5.5 0 0 1 -.571-.816l.346-.29-.2.115a.5.5 0 0 1 -.546-.03.5.5 0 0 1 -.192-.512l.3-1.347a.5.5 0 0 1 -.085-.9l.52-.3a.5.5 0 0 1 .739.542l-.251 1.116 4.221-2.436a.5.5 0 0 1 .57.816l-.346.289 1.035-.6a.5.5 0 0 1 .562.823l-.039.032.168-.1a.5.5 0 0 1 .6.792l-.665.644.937-.541a.5.5 0 0 1 .707.636l-.517 1.165 1.068-.617a.5.5 0 0 1 .5.866l-2.4 1.384a.5.5 0 0 1 -.707-.635l.523-1.163-3.121 1.8a.49.49 0 0 1 -.252.07z" fill="#fff"/><path d="m29.922 38.749a.5.5 0 0 1 -.354-.853l2.532-2.528-4.06 2.344a.5.5 0 0 1 -.682-.686l1.083-1.843-3.853 2.222a.5.5 0 0 1 -.588-.805l.352-.313-1.945 1.123a.5.5 0 0 1 -.6-.792l1.123-1.088-3.265 1.885a.5.5 0 0 1 -.619-.769l1.157-1.27-.59.34a.5.5 0 0 1 -.5-.865l3.378-1.95a.5.5 0 0 1 .619.77l-1.155 1.267 3.98-2.3a.5.5 0 0 1 .6.792l-1.122 1.09 2.718-1.569a.5.5 0 0 1 .582.807l-.357.315 1.218-.7a.5.5 0 0 1 .6.08.5.5 0 0 1 .077.606l-1.076 1.841 5.712-3.3a.5.5 0 0 1 .6.786l-2.528 2.527 4.793-2.767a.5.5 0 0 1 .658.722l-1.076 1.532 2.2-1.267a.5.5 0 0 1 .658.723l-.383.539.709-.41a.492.492 0 0 1 .405-.042.5.5 0 0 1 .3.273l.468 1.061a.507.507 0 0 1 .57.233.5.5 0 0 1 -.185.683l-.376.207a.5.5 0 0 1 -.706-.231l-.462-1.047-2.216 1.278a.5.5 0 0 1 -.657-.722l.383-.539-2.186 1.261a.5.5 0 0 1 -.658-.721l1.079-1.524-6.1 3.525a.489.489 0 0 1 -.255.069z" fill="#f26376"/><path d="m59.455 36.642c-7.7-8.381-13.089-31.511-28.14-23.2a2.114 2.114 0 0 1 -2.431-.021c-15.099-8.261-20.542 14.896-28.253 23.321a.71.71 0 0 0 -.076.643c6.177 20.515 52.807 20.277 58.884-.249a.52.52 0 0 0 .016-.494zm-17.25-.266c-2.962-5.146-8.2-3.16-13-3.425-4.408-.244-8.808-.972-11.4 3.435-3.641.134-7.2.026-10.833.059a33.839 33.839 0 0 0 13.015-7.9c1.536 1.732 5.134 1.025 7.2 1a2.971 2.971 0 0 0 2.654-1.153c.673 1.024 1.819 1.068 2.91 1.065 2.047 0 5.436.678 7.1-.874a33.416 33.416 0 0 0 12.939 7.86c-3.554-.033-7.018.084-10.585-.067zm-11.412 1.124a1.166 1.166 0 0 1 -1.389-.022c-2.708-1.606-6.8-1.372-10.341-1.165 3.317-3.98 6.856-2.22 10.968-1.884 3.973-.1 8.165-1.666 10.9 1.873-3.489-.202-7.457-.389-10.138 1.198zm-1.8-11.992c.136.006.27.006.405.007a10.035 10.035 0 0 0 .023 1.724 2.813 2.813 0 0 1 -3 1.211c-1.441 0-4.372.543-5.545-.729 2.897-2.972 4.072-2.795 8.117-2.21zm7.885.466a23.965 23.965 0 0 1 2.222 1.9c-1.155 1.227-4.23.66-5.648.66-2.228.291-3.155-.906-2.874-3.081 2.299-.212 4.37-.888 6.3.524zm-33.214 8.445c6.436-7.448 11.097-27.93 24.536-20.019a3.015 3.015 0 0 0 3.409-.02c13.427-7.89 18.276 12.745 24.667 20.186.724 1.447 1.608 1.456-.451 1.525-2.436.082-6.028-2-7.964-3.08a42.044 42.044 0 0 1 -10.976-8.811c.591-.326 1.716-.554 1.551-1.426-.059-.232-.317-.485-.569-.32a17.868 17.868 0 0 1 -2.219 1.078 19.1 19.1 0 0 1 -11.456-.089 9.36 9.36 0 0 1 -1.753-.835c-.478-.313-1.4.448-.878.792a9.833 9.833 0 0 0 1.7.848c-4.952 5.321-12.087 11.022-19.489 11.929-2.184-.065-1.072-.277-.108-1.758zm24.836 16.981c-9.394-.261-23.2-3.613-26.756-13.842 5.418-.073 10.453.19 15.93-.2.171.266.491.358.7-.046 3.667-.236 7.779-.367 10.341 1.152a2.059 2.059 0 0 0 2.366-.022c2.616-1.552 6.825-1.379 10.521-1.127.166.384.478.394.663.046 5.51.388 10.614.115 16.07.192-3.743 11.407-19.744 14.125-29.835 13.847z" fill="#262626"/><path d="m15.769 22.206c1.69-2.439 3.834-5.612 7.069-5.756.746-.034.714-.933-.035-.9-3.735.167-6.122 3.407-8.087 6.243-.394.569.73.879 1.053.413z" fill="#262626"/><path d="m13.341 26.322c.153-.364.505-.714.37-1.13-.065-.25-.313-.532-.6-.454-.341.177-.41.635-.616.94-.27.502.505 1.329.846.644z" fill="#262626"/></svg>