<svg id="Icons" height="512" viewBox="0 0 60 60" width="512" xmlns="http://www.w3.org/2000/svg"><path d="m31.139 17.47a.5.5 0 0 1 -.28-.914l1.108-.749-2.767 1.593a.5.5 0 0 1 -.528-.848l2.3-1.54-4.038 2.332a.5.5 0 0 1 -.535-.845l7.284-5.045-7.41 4.279a.5.5 0 0 1 -.524-.852l2.724-1.779-2.2 1.27a.5.5 0 0 1 -.532-.846l4.972-3.387-4.44 2.563a.5.5 0 0 1 -.539-.841l4.174-2.947-3.635 2.1a.5.5 0 0 1 -.543-.839l2.484-1.791-1.934 1.122a.5.5 0 0 1 -.551-.833l1.443-1.084-.892.516a.5.5 0 0 1 -.6-.788l1.947-1.932-1.345.777a.5.5 0 0 1 -.706-.639l.6-1.33a.5.5 0 0 1 -.34-.925l1.164-.668a.5.5 0 0 1 .706.638l-.579 1.286 3.338-1.934a.5.5 0 0 1 .6.788l-1.944 1.932 4.72-2.726a.5.5 0 0 1 .551.833l-1.446 1.083 3.33-1.923a.5.5 0 0 1 .542.839l-2.481 1.792 4.563-2.633a.5.5 0 0 1 .539.842l-4.179 2.949 6.574-3.8a.5.5 0 0 1 .531.847l-4.971 3.387 6.328-3.653a.5.5 0 0 1 .523.853l-2.726 1.784 2.206-1.274a.5.5 0 0 1 .535.844l-7.282 5.046 6.751-3.9a.5.5 0 0 1 .527.848l-2.3 1.537 1.775-1.025a.5.5 0 0 1 .531.847l-1.116.754.588-.34a.5.5 0 0 1 .536.844l-.855.594.321-.186a.5.5 0 0 1 .553.831l-1.865 1.422 1.316-.76a.5.5 0 0 1 .58.808l-1.527 1.344.95-.549a.5.5 0 0 1 .611.78l-.525.545a.5.5 0 0 1 .648.611l-.244.835a.5.5 0 0 1 .016.874l-.5.289a.5.5 0 0 1 -.73-.572l.148-.51-1.873 1.079a.5.5 0 0 1 -.61-.779l.5-.524-2.254 1.303a.5.5 0 0 1 -.58-.808l1.527-1.344-3.728 2.152a.5.5 0 0 1 -.552-.83l1.865-1.422-3.9 2.252a.5.5 0 0 1 -.536-.843l.862-.6-2.5 1.442a.494.494 0 0 1 -.249.071z" fill="#159cdc"/><path d="m44.483 28.489a.5.5 0 0 1 -.395-.806l.954-1.232-1.762 1.018a.5.5 0 0 1 -.609-.781l1.5-1.551-.887.512a.5.5 0 0 1 -.6-.789l1.169-1.151-.569.329a.5.5 0 0 1 -.587-.8l.563-.513a.5.5 0 0 1 -.573-.806l1.045-1.019-.452.261a.5.5 0 0 1 -.579-.81l.332-.289a.417.417 0 0 1 -.394-.19.5.5 0 0 1 .027-.653l1.62-1.72-1.006.581a.5.5 0 0 1 -.613-.776l1.606-1.7-.993.574a.5.5 0 0 1 -.62-.769l1.805-1.991-1.185.682a.5.5 0 0 1 -.6-.787l1.228-1.223-.626.362a.5.5 0 0 1 -.607-.783l1.4-1.43-.791.457a.5.5 0 0 1 -.611-.779l1.518-1.584-.907.523a.5.5 0 0 1 -.6-.794l.97-.932-.374.216a.5.5 0 0 1 -.583-.805l.431-.386a.5.5 0 0 1 -.485-.806l1.612-1.983-.975.563a.5.5 0 0 1 -.642-.743l.559-.71a.491.491 0 0 1 -.314-.236.5.5 0 0 1 .182-.683l1.658-.957a.5.5 0 0 1 .642.742l-.328.417 1.063-.618a.5.5 0 0 1 .638.749l-1.608 1.983 1.591-.918a.5.5 0 0 1 .583.8l-.43.385a.5.5 0 0 1 .444.86l-.971.933.377-.218a.5.5 0 0 1 .611.779l-1.518 1.58.909-.525a.5.5 0 0 1 .607.783l-1.4 1.432.8-.46a.5.5 0 0 1 .6.788l-1.233 1.222.628-.362a.5.5 0 0 1 .621.769l-1.8 1.989 1.185-.685a.5.5 0 0 1 .614.777l-1.607 1.7 1-.575a.5.5 0 0 1 .615.776l-1.621 1.72 1.009-.583a.5.5 0 0 1 .579.81l-.331.288a.5.5 0 0 1 .351.86l-1.051 1.017.455-.262a.5.5 0 0 1 .587.8l-.562.514a.5.5 0 0 1 .578.8l-1.169 1.151.57-.329a.5.5 0 0 1 .61.78l-1.5 1.551.889-.513a.5.5 0 0 1 .646.739l-.954 1.232.31-.18a.5.5 0 0 1 .5.866l-2.515 1.452a.5.5 0 0 1 -.254.073z" fill="#59689b"/><g fill="#f5ba1e"><path d="m5.346 59.47a.5.5 0 0 1 -.259-.928l8.631-5.21-10.51 6.068a.5.5 0 0 1 -.508-.86l9.3-5.619-10.17 5.873a.5.5 0 0 1 -.509-.86l8.932-5.4-8.953 5.166a.5.5 0 0 1 -.555-.828l2.2-1.7-1.664.961a.5.5 0 0 1 -.572-.816l1.224-1.017-.653.377a.5.5 0 0 1 -.68-.696l.935-1.544a.5.5 0 0 1 -.471-.881l1.657-.956a.5.5 0 0 1 .678.691l-.934 1.543 3.9-2.25a.5.5 0 0 1 .572.815l-1.225 1.029 3.21-1.854a.5.5 0 0 1 .556.828l-2.2 1.7 45.9-26.5a.5.5 0 0 1 .508.861l-8.932 5.4 10.846-6.263a.5.5 0 0 1 .508.861l-9.3 5.614 10.839-6.259a.5.5 0 0 1 .509.862l-8.656 5.222 9.015-5.2a.5.5 0 0 1 .513.858l-23.181 14.39 22.873-13.206a.5.5 0 0 1 .51.86l-13.536 8.281 13.026-7.52a.5.5 0 0 1 .51.86l-11.482 7.032 10.972-6.334a.5.5 0 0 1 .517.855l-19.865 12.583 19.348-11.17a.5.5 0 0 1 .514.857l-12.785 7.981 12.271-7.084a.5.5 0 0 1 .514.857l-9.771 6.1 9.257-5.344a.5.5 0 0 1 .511.858l-1.39.855.879-.507a.5.5 0 0 1 .52.852l-11.923 7.68 11.4-6.583a.5.5 0 0 1 .521.852l-9.513 6.16 8.992-5.192a.5.5 0 0 1 .53.847l-10.577 7.161 10.05-5.8a.5.5 0 0 1 .52.853l-2.642 1.7 2.122-1.225a.5.5 0 0 1 .526.85l-3.979 2.643 3.453-1.994a.5.5 0 0 1 .527.849l-2.033 1.355 1.506-.87a.5.5 0 0 1 .542.838l-3.936 2.836 3.394-1.959a.5.5 0 0 1 .546.836l-2.066 1.52 1.523-.879a.5.5 0 0 1 .586.8l-2.536 2.3 1.95-1.125a.5.5 0 0 1 .6.793l-.656.633.06-.034a.5.5 0 0 1 .5.865l-3.6 2.079a.5.5 0 0 1 -.6-.793l.658-.633-2.477 1.423a.5.5 0 0 1 -.586-.8l2.536-2.3-5.37 3.1a.5.5 0 0 1 -.546-.836l2.07-1.518-4.079 2.354a.5.5 0 0 1 -.542-.838l3.934-2.835-6.361 3.673a.5.5 0 0 1 -.528-.848l2.035-1.352-3.82 2.2a.5.5 0 0 1 -.526-.849l3.98-2.644-6.051 3.493a.5.5 0 0 1 -.52-.852l2.636-1.7-4.42 2.552a.5.5 0 0 1 -.53-.846l10.58-7.154-13.871 8a.5.5 0 0 1 -.521-.852l9.514-6.159-12.145 7.011a.5.5 0 0 1 -.521-.852l11.928-7.687-14.791 8.539a.5.5 0 0 1 -.512-.858l1.383-.85-2.964 1.708a.5.5 0 0 1 -.514-.856l9.782-6.1-12.051 6.956a.5.5 0 0 1 -.514-.856l12.787-7.981-15.311 8.837a.5.5 0 0 1 -.517-.855l19.862-12.579-23.273 13.434a.5.5 0 0 1 -.512-.859l11.487-7.035-13.674 7.894a.5.5 0 0 1 -.51-.859l13.526-8.275-15.822 9.134a.5.5 0 0 1 -.513-.857l23.188-14.4-26.421 15.257a.5.5 0 0 1 -.254.07z"/><path d="m11.03 50.979a.5.5 0 0 1 -.3-.9l3.4-2.562-2.85 1.645a.5.5 0 0 1 -.551-.832l1.108-.837-.557.321a.5.5 0 0 1 -.573-.814l.9-.759-.324.187a.5.5 0 0 1 -.613-.089.5.5 0 0 1 -.056-.618l.817-1.245a.5.5 0 0 1 -.362-.92l1.655-.956a.5.5 0 0 1 .669.707l-.79 1.2 3.336-1.926a.5.5 0 0 1 .573.814l-.894.757 2.738-1.581a.5.5 0 0 1 .551.832l-1.112.84 2.905-1.676a.5.5 0 0 1 .55.832l-3.4 2.563 33.55-19.362a.5.5 0 0 1 .5.866l-40.62 23.446a.494.494 0 0 1 -.25.067z"/><path d="m21.03 43.211a.5.5 0 0 1 -.268-.923l4.065-2.573-3.547 2.048a.5.5 0 0 1 -.585-.8l3.489-3.147-2.9 1.675a.5.5 0 0 1 -.575-.812l.582-.5h-.007a.5.5 0 0 1 -.657-.724l.693-.97a.5.5 0 0 1 -.25-.932l1.655-.956a.5.5 0 0 1 .657.723l-.6.839 2.73-1.575a.5.5 0 0 1 .575.812l-.581.5 2.282-1.318a.5.5 0 0 1 .585.8l-3.493 3.152 20.668-11.93a.5.5 0 0 1 .517.855l-4.08 2.584 5.956-3.439a.5.5 0 0 1 .5.866l-27.161 15.678a.5.5 0 0 1 -.25.067z"/><path d="m31.03 34.58a.5.5 0 0 1 -.289-.908l1.163-.823-.624.359a.5.5 0 0 1 -.584-.8l2.831-2.539-2.247 1.3a.5.5 0 0 1 -.576-.811l.407-.358a.5.5 0 0 1 -.474-.8l.565-.72a.5.5 0 0 1 -.137-.921l1.657-.956a.5.5 0 0 1 .643.742l-.342.435 2.042-1.18a.5.5 0 0 1 .578.811l-.282.242 1.826-1.053a.5.5 0 0 1 .584.8l-2.832 2.539 5.792-3.339a.5.5 0 0 1 .54.841l-1.164.824 2.884-1.665a.5.5 0 0 1 .5.866l-12.211 7.047a.491.491 0 0 1 -.25.067z"/></g><path d="m.276 57.174c.784 4.548 18.368 1.18 22.813 2.135 5.697-1.109 36.911 2.748 36.636-2.528.015-9.322-.011-18.651 0-27.975-.85-4.057-8.813-1.387-12-2.113v-22.759c.73-3.474-4.167-4.534-5.25-1.412-15.8 1.4-18.324-5.922-17.2 12.578-1.14 4.7 13.737 1.5 17.005 2.378v9.215c-7.7.4-13.425-2.742-12 8-7.726-.071-11.06-1.45-10 8-7.726-.071-11.06-1.45-10 8-5.846.181-11.315-1.826-10.004 6.481zm33.976-40.652c-11.493.818-6.582-1.364-7.523-12.589.01-.344-.053-.359.137-.455 5.117-.005 10.286 0 15.421 0-.075 4.345.005 8.7-.011 13.044zm9.43-13.463c4.238-8.923 2.16 21.719 2.594 23.634h-2.552c-.024-7.893.051-15.747-.042-23.634zm-40.805 48.248c4.839-1.093 9.981 3.023 8.847-4.484 0-1.027-.328-3.232 1.009-3.516 2.823-.41 6.538.792 8.992-.5.448-2.488-1.631-8.4 2.664-7.5 2.3-.332 5.419.713 7.336-.5-1.035-11.1 2.211-6.656 10.621-7.5 1.231.078 2.713-.05 4 0 2.973.725 11.139-1.876 11.93 1.886-.86 3.851 2.068 31.141-1.8 29.5h-50.233c-1.915 0-4.484.487-4.519-2.26-.016-1.265-.579-4.887 1.153-5.126z" fill="#262626"/></svg>