<svg id="Icons" height="512" viewBox="0 0 60 60" width="512" xmlns="http://www.w3.org/2000/svg"><path d="m20.817 7.499c-.162 0-.32-.079-.416-.223-.146-.22-.097-.515.113-.675l1.619-1.235-1.854 1.07c-.219.128-.506.068-.656-.142-.15-.209-.117-.498.076-.667l1.858-1.631-1.278.738c-.196.112-.445.08-.605-.082s-.19-.411-.074-.607l.965-1.625c-.24.137-.546.056-.683-.183-.139-.239-.057-.545.183-.683l1.656-.956c.195-.114.445-.082.605.082.16.162.19.411.074.607l-.965 1.625 4.01-2.315c.222-.127.507-.068.656.142.15.209.117.498-.076.667l-1.859 1.632 4.228-2.441c.226-.133.52-.064.666.156s.097.515-.113.675l-1.618 1.234 3.576-2.065c.229-.134.523-.063.67.161.145.224.089.521-.127.677l-.356.258 1.898-1.096c.22-.127.505-.068.655.14s.119.495-.071.666l-3.065 2.744 6.148-3.55c.222-.129.508-.067.657.143s.115.499-.079.668l-2.931 2.547 4.829-2.788c.225-.131.513-.066.661.148s.107.505-.094.671l-1.87 1.54 1.879-1.085c.226-.131.513-.066.661.148s.107.505-.094.671l-.415.342c.161-.04.34.006.465.128.16.156.197.399.092.596l-.72 1.333.044-.025c.239-.139.545-.057.683.183.139.239.057.545-.183.683l-1.57.906c-.193.111-.438.082-.599-.075-.16-.156-.197-.399-.092-.596l.719-1.333-3.479 2.009c-.224.131-.513.066-.661-.148s-.107-.505.094-.671l.314-.259-1.873 1.082c-.224.13-.514.065-.661-.148-.148-.213-.107-.505.094-.671l1.872-1.541-4.095 2.364c-.22.129-.507.069-.657-.143-.149-.21-.115-.499.079-.668l2.932-2.547-5.826 3.363c-.219.128-.503.068-.655-.14-.15-.208-.119-.495.071-.666l3.064-2.744-6.156 3.555c-.229.132-.525.062-.67-.161-.145-.224-.089-.521.127-.677l.354-.255-1.9 1.097c-.078.045-.165.067-.25.067z" fill="#7de56b"/><path d="m23.615 59.47c-.168 0-.332-.085-.426-.238-.143-.231-.074-.533.153-.681l8.883-5.775-11.479 6.627c-.236.137-.535.059-.677-.172-.142-.232-.072-.534.156-.682l10.461-6.727-13.131 7.58c-.236.137-.534.06-.676-.171-.143-.231-.074-.533.153-.681l15.591-10.139-18.547 10.707c-.236.138-.537.06-.678-.174s-.069-.536.161-.682l13.543-8.546-13.95 8.054c-.235.138-.535.06-.678-.173-.141-.232-.07-.535.159-.682l17.097-10.905-16.77 9.682c-.238.137-.54.059-.68-.177s-.064-.539.169-.683l3.588-2.197-3.181 1.836c-.238.137-.539.058-.679-.176-.141-.234-.067-.537.165-.682l10.436-6.483-10.053 5.804c-.238.138-.54.059-.68-.177-.14-.235-.065-.539.168-.682l5.466-3.356-5.064 2.924c-.235.139-.537.06-.678-.174-.141-.232-.07-.535.16-.681l17.214-10.929-16.87 9.739c-.235.138-.537.06-.679-.175-.141-.233-.068-.536.163-.682l14.601-9.161-14.238 8.22c-.238.138-.539.058-.679-.175-.141-.234-.067-.537.164-.682l13.618-8.51-13.249 7.649c-.235.138-.537.061-.679-.175-.141-.233-.068-.536.163-.682l15.585-9.791-15.228 8.791c-.238.137-.54.059-.68-.177s-.065-.539.168-.682l7.349-4.515-6.953 4.014c-.235.139-.536.06-.678-.174-.141-.233-.069-.536.16-.682l17.808-11.258-17.463 10.082c-.237.138-.539.059-.68-.177-.14-.235-.064-.54.169-.683l5.417-3.312-5.015 2.895c-.237.138-.539.059-.679-.176-.141-.233-.067-.537.164-.681l14.367-8.958-14 8.083c-.238.138-.54.059-.68-.177-.14-.234-.065-.538.168-.682l9.628-5.929-9.239 5.334c-.238.138-.54.059-.68-.177-.14-.234-.065-.538.167-.682l10.348-6.378-9.962 5.751c-.239.138-.541.058-.68-.178-.14-.235-.064-.54.17-.683l2.179-1.324-1.768 1.021c-.238.137-.538.058-.679-.176s-.067-.538.165-.682l10.821-6.715-10.439 6.027c-.235.139-.537.06-.678-.174s-.069-.536.16-.682l13.519-8.553-13.155 7.595c-.235.136-.536.059-.678-.175-.142-.233-.069-.537.161-.682l9.365-5.891-8.981 5.186c-.238.136-.538.058-.679-.176s-.067-.538.164-.682l3.862-2.404-3.456 1.996c-.235.135-.534.06-.677-.172-.142-.231-.073-.533.154-.681l10.296-6.685-9.927 5.731c-.235.135-.533.06-.676-.171-.142-.23-.075-.532.151-.68l8.778-5.767-8.404 4.852c-.235.135-.535.059-.677-.173-.142-.231-.072-.534.156-.681l3.729-2.402-3.321 1.917c-.235.136-.536.06-.677-.173-.142-.232-.071-.534.157-.681l.63-.403-.208.12c-.23.132-.526.062-.671-.163-.144-.225-.087-.523.131-.678l6.961-4.958-6.59 3.805c-.227.134-.523.063-.669-.16s-.091-.52.124-.677l4.839-3.531-4.447 2.568c-.224.131-.514.065-.662-.149-.147-.215-.105-.507.097-.672l4.043-3.287-3.648 2.106c-.215.124-.492.071-.646-.128-.152-.199-.135-.479.042-.657l2.561-2.574-2.137 1.234c-.213.123-.487.072-.642-.123-.154-.194-.143-.472.027-.653l.604-.644-.087.05c-.177.103-.397.086-.558-.039s-.229-.336-.173-.532l.25-.872c-.082-.042-.153-.108-.202-.193-.139-.239-.057-.545.183-.684l.5-.289c.176-.102.397-.086.558.039s.229.336.173.532l-.158.553 1.949-1.125c.213-.123.487-.072.642.123.154.194.143.472-.027.653l-.604.643 2.459-1.42c.216-.124.493-.071.646.128.152.199.135.479-.042.657l-2.562 2.574 5.824-3.362c.225-.131.515-.065.662.149.147.215.105.507-.097.672l-4.042 3.286 7.119-4.11c.229-.132.523-.063.669.16s.091.52-.124.677l-4.84 3.531 7.569-4.37c.229-.134.525-.062.671.163.144.225.087.523-.131.678l-6.96 4.957 10.046-5.8c.237-.135.536-.059.677.173.142.232.071.534-.157.681l-.625.4 2.175-1.256c.235-.135.536-.06.677.173.142.231.072.534-.156.681l-3.738 2.408 5.652-3.263c.235-.135.533-.06.676.171.142.23.075.532-.151.68l-8.778 5.767 11.467-6.62c.235-.136.534-.06.677.172.142.231.073.533-.154.681l-10.292 6.682 13.055-7.537c.236-.136.537-.058.679.176.141.234.067.538-.164.682l-3.859 2.401 5.647-3.26c.237-.136.537-.058.678.175.142.233.069.537-.161.682l-9.373 5.896 11.699-6.755c.236-.135.537-.059.678.174s.069.536-.16.681l-13.52 8.554 16.302-9.412c.236-.136.538-.059.679.176.141.234.067.538-.165.682l-10.802 6.703 12.879-7.436c.237-.137.541-.058.68.178.14.236.064.54-.17.682l-2.185 1.328 1.675-.967c.236-.136.538-.059.68.177.14.235.065.539-.167.682l-10.348 6.378 9.754-5.632c.237-.136.539-.059.68.177.14.235.065.539-.168.682l-9.637 5.934 8.988-5.189c.236-.137.538-.059.679.176.141.234.067.537-.164.682l-14.374 8.961 13.697-7.908c.237-.136.539-.059.68.178.14.235.064.539-.169.682l-5.401 3.303 4.771-2.754c.236-.135.537-.058.678.174.141.233.069.536-.16.682l-17.815 11.262 17.107-9.876c.237-.136.539-.058.68.177.14.235.065.539-.168.682l-7.331 4.504 6.691-3.863c.236-.134.538-.058.679.175s.068.536-.163.681l-15.586 9.792 14.896-8.6c.236-.137.537-.059.679.176.141.233.067.537-.164.681l-13.614 8.507 12.938-7.471c.237-.135.539-.059.679.175.141.233.068.537-.163.681l-14.613 9.17 13.93-8.042c.237-.135.537-.059.678.174s.07.536-.16.681l-17.209 10.925 16.499-9.525c.236-.136.538-.058.68.177.14.235.065.539-.168.682l-5.458 3.351 4.825-2.786c.236-.137.538-.059.679.176.141.234.067.537-.165.682l-10.439 6.485 9.781-5.646c.237-.139.539-.06.68.177.14.235.064.539-.169.683l-3.595 2.201 2.97-1.714c.237-.137.536-.059.678.173.141.232.07.535-.159.682l-17.096 10.904 16.381-9.457c.236-.137.537-.06.678.174s.069.536-.161.682l-13.549 8.55 12.864-7.427c.235-.137.534-.061.676.171.143.231.074.533-.153.681l-15.593 10.141 14.865-8.582c.235-.137.535-.059.677.172.142.232.072.534-.156.682l-10.454 6.723 9.769-5.64c.235-.138.535-.06.676.171.143.231.074.533-.153.681l-8.889 5.779 8.205-4.736c.234-.135.53-.062.673.166.144.227.082.526-.14.679l-10.182 7.003 9.444-5.452c.229-.135.529-.062.672.164.144.227.084.525-.136.679l-7.34 5.124 6.621-3.822c.234-.135.531-.062.674.167s.079.528-.144.68l-2.713 1.838 2.056-1.187c.229-.134.523-.063.669.16s.091.52-.124.676l-3.634 2.655 2.936-1.694c.226-.133.519-.065.666.155.146.219.098.514-.111.674l-2.219 1.702 1.523-.879c.216-.128.496-.071.649.132.152.202.13.485-.053.661l-1.926 1.855 1.161-.67c.211-.124.481-.074.637.115s.15.463-.011.647l-.556.632c.162.011.314.099.401.249.139.239.057.545-.183.683l-2.174 1.255c-.21.123-.481.074-.637-.115s-.15-.463.011-.647l.383-.436-2.076 1.198c-.217.127-.497.071-.649-.132-.152-.202-.13-.485.053-.661l1.926-1.855-4.588 2.648c-.226.133-.519.065-.666-.155-.146-.219-.098-.514.111-.674l2.22-1.703-4.387 2.532c-.227.135-.523.064-.669-.16-.146-.223-.091-.52.124-.676l3.634-2.655-6.048 3.491c-.232.136-.53.062-.674-.167-.143-.229-.079-.528.144-.68l2.712-1.838-4.649 2.685c-.232.135-.528.062-.672-.164s-.084-.525.136-.679l7.339-5.123-10.334 5.966c-.232.136-.529.062-.673-.166-.144-.227-.082-.526.14-.679l10.185-7.005-13.598 7.85c-.079.046-.165.067-.25.067z" fill="#7de56b"/><path d="m46.298 12.47c-.163 0-.323-.081-.419-.227-.145-.223-.091-.52.123-.677l.151-.111-1.641.948c-.218.128-.501.07-.653-.137-.15-.206-.122-.492.065-.665l3.117-2.856-6.336 3.658c-.226.13-.514.065-.661-.148-.148-.214-.107-.506.094-.671l2.528-2.076-5.015 2.896c-.225.13-.516.065-.662-.15-.147-.215-.105-.508.099-.672l2.352-1.896-4.708 2.719c-.222.128-.511.067-.659-.145s-.111-.502.086-.669l2.772-2.351-5.482 3.166c-.227.131-.519.063-.666-.155-.146-.219-.098-.514.111-.674l1.714-1.317-3.718 2.146c-.228.131-.521.063-.666-.156-.146-.22-.097-.515.113-.675l1.581-1.206-3.527 2.037c-.222.13-.509.067-.659-.145-.148-.211-.111-.502.086-.669l2.782-2.363-5.503 3.177c-.222.128-.509.067-.658-.144-.149-.21-.113-.5.082-.668l2.849-2.445-5.643 3.258c-.22.129-.507.068-.657-.143-.149-.21-.115-.499.08-.668l2.903-2.518-5.767 3.329c-.218.126-.499.07-.651-.135-.151-.204-.126-.489.06-.663l3.174-2.979-6.541 3.777c-.219.128-.504.069-.654-.139-.15-.207-.121-.494.069-.665l3.07-2.772-6.193 3.576c-.227.131-.519.064-.665-.155s-.099-.513.109-.674l1.782-1.375-3.293 1.901c-.218.123-.497.07-.649-.133-.152-.202-.129-.485.053-.661l2.902-2.791-2.579 1.489c-.219.128-.505.069-.655-.14-.15-.208-.119-.496.072-.667l.43-.382c-.159.03-.323-.015-.443-.131-.161-.154-.199-.396-.096-.594l.472-.892c-.164-.008-.321-.096-.409-.25-.139-.239-.057-.545.183-.683l1.161-.671c.193-.111.436-.082.597.073s.199.397.096.594l-.402.761 2.472-1.428c.22-.127.505-.068.655.14s.119.496-.072.667l-.332.295 1.908-1.102c.216-.126.496-.071.649.133.152.202.129.485-.053.661l-2.901 2.791 6.207-3.584c.227-.131.52-.064.665.155.146.219.099.513-.109.674l-1.784 1.376 3.82-2.206c.22-.127.505-.068.654.139.15.207.12.494-.069.665l-3.07 2.772 6.193-3.576c.218-.126.499-.069.651.135.151.204.126.489-.06.663l-3.174 2.979 6.541-3.777c.221-.127.508-.067.657.143s.115.499-.08.668l-2.903 2.518 5.767-3.329c.221-.129.508-.068.658.144.149.21.113.5-.082.668l-2.848 2.445 5.641-3.257c.221-.129.507-.068.659.145.148.211.111.502-.086.669l-2.782 2.363 5.503-3.177c.227-.132.52-.064.666.156s.097.515-.113.675l-1.583 1.208 3.53-2.038c.227-.131.519-.063.666.155.146.219.098.514-.111.674l-1.712 1.315 3.715-2.145c.22-.129.51-.068.659.145.148.212.111.502-.086.669l-2.772 2.351 5.482-3.166c.225-.13.516-.065.662.15.147.215.105.508-.099.672l-2.352 1.896 4.708-2.719c.225-.13.513-.064.661.148.148.214.107.506-.094.671l-2.529 2.077 5.017-2.896c.219-.126.502-.068.653.137.15.206.122.492-.065.665l-3.117 2.856 5.586-3.225c.229-.132.523-.062.669.16.145.223.091.52-.123.677l-.263.193c.196-.057.423.018.547.198.147.215.105.508-.098.672l-.52.42c.202-.093.448-.037.594.141.154.191.147.466-.017.649l-.743.828.121-.07c.238-.137.545-.057.683.183.139.239.057.545-.183.683l-2.84 1.64c-.213.121-.482.073-.639-.118-.154-.191-.147-.466.017-.649l.743-.828-2.763 1.595c-.225.13-.514.065-.662-.15-.147-.215-.105-.508.098-.672l.508-.41-2.134 1.232c-.078.045-.165.067-.25.067z" fill="#64ce5b"/><g fill="#fff"><path d="m36.481 47.493c-.172 0-.341-.09-.433-.25-.139-.239-.057-.545.183-.683l5.283-3.05c.215-.127.495-.07.648.13.152.201.132.483-.049.66l-1.058 1.037c.059.041.11.096.148.162.139.239.057.545-.183.683l-2.067 1.193c-.217.125-.495.07-.648-.13-.152-.201-.132-.483.049-.66l.241-.236-1.865 1.076c-.079.046-.165.067-.25.067z"/><path d="m35.332 49.076c-.157 0-.312-.074-.408-.211-.149-.211-.113-.501.083-.669l3.161-2.706-3.653 2.109c-.23.135-.527.062-.671-.163-.145-.226-.086-.524.133-.679l.104-.073-.18.104c-.233.136-.527.062-.672-.164-.144-.226-.084-.524.135-.678l1.577-1.107-1.751 1.011c-.21.123-.478.074-.635-.112-.155-.188-.153-.46.004-.645l1.857-2.177-2.034 1.174c-.208.123-.479.075-.634-.112-.156-.187-.155-.458.002-.644l2.987-3.522c-.11-.233-.025-.516.202-.646l.754-.436c.208-.122.478-.075.634.112s.155.458-.002.644l-1.95 2.299 2.057-1.187c.21-.124.478-.074.635.112.155.188.153.46-.004.645l-1.857 2.177 9.023-5.209c.23-.136.526-.062.672.164.144.226.084.524-.135.678l-1.581 1.11.051-.029c.232-.135.527-.062.671.163.145.226.086.524-.133.679l-1.097.771c.13.02.252.091.333.205.149.211.113.501-.083.669l-6.46 5.53c-.018.152-.104.295-.247.377l-.639.369c-.078.046-.164.067-.25.067z"/><path d="m39.938 40.712c-.146 0-.29-.064-.388-.185-.155-.19-.148-.466.015-.648l2.125-2.377-2.439 1.408c-.212.125-.486.072-.641-.12-.154-.193-.145-.471.023-.652l2.019-2.183-2.285 1.319c-.212.123-.483.074-.639-.118-.155-.191-.147-.467.018-.649l1.736-1.924-1.688.975c-.239.139-.546.056-.683-.183-.139-.239-.057-.545.183-.683l4.435-2.561c.211-.125.483-.074.639.118.155.191.147.467-.018.649l-1.737 1.925 2.397-1.384c.212-.125.486-.073.641.12s.145.471-.023.652l-2.019 2.183 2.285-1.319c.211-.124.482-.074.638.117.155.19.148.466-.015.648l-2.125 2.377 2.095-1.209c.238-.141.546-.057.683.183.139.239.057.545-.183.683l-4.798 2.77c-.078.046-.164.067-.25.067z"/><path d="m36.647 31.114c-.138 0-.273-.057-.371-.165-.158-.175-.173-.437-.034-.627l1.136-1.578-3.222 1.86c-.227.132-.519.064-.665-.155-.146-.218-.099-.513.109-.674l.082-.063-1.104.637c-.225.131-.515.065-.661-.149-.148-.215-.106-.507.095-.671l.921-.752c-.187.053-.394-.01-.522-.168-.154-.192-.146-.468.02-.65l2.099-2.312-2.381 1.375c-.208.119-.474.075-.632-.11-.156-.184-.158-.454-.005-.641l1.839-2.237-2.131 1.23c-.24.136-.546.057-.683-.183-.139-.239-.057-.545.183-.683l4.515-2.606c.206-.12.474-.076.632.11.156.184.158.454.005.641l-1.839 2.237 2.768-1.598c.211-.123.482-.073.64.119.154.192.146.468-.02.65l-2.099 2.312 2.401-1.386c.225-.13.514-.065.661.149.148.215.106.507-.095.671l-.844.688 2.191-1.265c.226-.131.519-.064.665.155.146.218.099.513-.109.674l-.924.713c.093.024.179.074.247.149.158.175.173.437.034.627l-1.465 2.035c.082.042.153.108.202.194.139.239.057.545-.183.683l-1.207.696c-.078.046-.164.067-.25.067z"/><path d="m26.616 30.375c-.148 0-.294-.066-.392-.189-.154-.194-.143-.472.027-.653l.212-.226-.661.381c-.224.13-.511.065-.659-.146-.149-.212-.111-.502.087-.669l4.264-3.591-5.524 3.19c-.219.128-.504.07-.654-.14-.15-.207-.12-.495.07-.666l3.133-2.812-3.749 2.165c-.214.123-.488.072-.643-.124-.153-.195-.142-.473.029-.653l2.29-2.417c-.119-.035-.227-.114-.293-.23-.139-.239-.057-.545.183-.683l2.217-1.28c.213-.123.488-.072.643.124.153.195.142.473-.029.653l-1.919 2.025 4.92-2.84c.22-.126.505-.068.654.14.15.207.12.495-.07.666l-3.133 2.812 6.274-3.623c.224-.129.511-.066.659.146.149.212.111.502-.087.669l-5.131 4.321c.075.031.144.082.197.15.154.194.143.472-.027.653l-1.289 1.374c.009.012.017.024.023.037.139.239.057.545-.183.683l-1.189.687c-.078.045-.164.067-.25.067z"/><path d="m24.679 38.411c-.085 0-.171-.021-.247-.065-.154-.088-.251-.251-.253-.429l-.005-.417-.408.235c-.24.139-.546.056-.683-.183-.139-.239-.057-.545.183-.683l1.147-.662c.153-.09.344-.09.497-.002.154.088.251.251.253.429l.007.521c.156.014.305.102.39.248.138.239.056.545-.184.684l-.447.258c-.077.044-.164.066-.25.066z"/><path d="m25.001 47.47c-.148 0-.296-.066-.394-.191-.153-.195-.14-.475.032-.654l.551-.575-2.078 1.199c-.218.13-.501.07-.653-.137-.15-.205-.123-.491.064-.664l1.783-1.642-2.669 1.541c-.228.133-.521.063-.666-.155-.146-.219-.098-.515.112-.675l.04-.03-.096.055c-.213.125-.489.072-.643-.123-.153-.194-.142-.473.029-.653l1.505-1.593-1.786 1.03c-.213.124-.486.073-.641-.12s-.145-.47.023-.651l.301-.326-.301.173c-.208.121-.476.075-.632-.109-.156-.186-.157-.455-.004-.642l.871-1.053-1.04.6c-.221.13-.505.068-.655-.14s-.119-.496.072-.666l.927-.825-1.034.597c-.225.132-.513.065-.661-.148-.148-.215-.107-.507.095-.671l1.553-1.27-1.719.992c-.218.128-.499.07-.651-.134-.151-.204-.126-.489.059-.663l3.121-2.938-3.005 1.734c-.217.127-.497.07-.648-.131-.152-.201-.131-.484.05-.66l2.562-2.488-.679.392c-.126.074-.277.089-.415.039-.138-.048-.247-.153-.3-.288l-.445-1.129-.29.167c-.239.138-.546.056-.683-.183-.139-.239-.057-.545.183-.683l.793-.458c.127-.073.277-.089.415-.039.137.048.247.153.3.288l.445 1.129 3.662-2.113c.216-.128.497-.071.648.131.152.201.131.484-.05.66l-2.562 2.487 3.238-1.869c.218-.128.499-.07.651.134.151.204.126.489-.059.663l-3.119 2.937 3.348-1.933c.225-.132.513-.066.661.148s.107.507-.095.671l-1.577 1.289c.21-.083.457-.017.593.171.15.208.119.496-.072.666l-1.371 1.222c.11.021.213.077.29.168.156.186.157.455.004.642l-.87 1.053.737-.426c.213-.125.485-.073.641.12.154.193.145.47-.023.651l-.302.328 1.905-1.1c.214-.125.488-.073.643.123.153.194.142.473-.029.653l-1.503 1.591 3.802-2.194c.227-.133.52-.064.666.155s.098.515-.112.675l-.065.05c.206-.086.454-.021.593.167.15.205.123.491-.064.664l-1.784 1.642 1.195-.689c.214-.125.489-.073.644.124.153.195.14.475-.032.654l-.56.585c.226-.097.503-.014.631.209.139.239.057.545-.183.683l-2.969 1.714c-.078.046-.164.067-.25.067z"/><path d="m36.481 47.493c-.172 0-.341-.09-.433-.25-.139-.239-.057-.545.183-.683l5.283-3.05c.215-.127.495-.07.648.13.152.201.132.483-.049.66l-1.058 1.037c.059.041.11.096.148.162.139.239.057.545-.183.683l-2.067 1.193c-.217.125-.495.07-.648-.13-.152-.201-.132-.483.049-.66l.241-.236-1.865 1.076c-.079.046-.165.067-.25.067z"/><path d="m35.332 49.076c-.157 0-.312-.074-.408-.211-.149-.211-.113-.501.083-.669l3.161-2.706-3.653 2.109c-.23.135-.527.062-.671-.163-.145-.226-.086-.524.133-.679l.104-.073-.18.104c-.233.136-.527.062-.672-.164-.144-.226-.084-.524.135-.678l1.577-1.107-1.751 1.011c-.21.123-.478.074-.635-.112-.155-.188-.153-.46.004-.645l1.857-2.177-2.034 1.174c-.208.123-.479.075-.634-.112-.156-.187-.155-.458.002-.644l2.987-3.522c-.11-.233-.025-.516.202-.646l.754-.436c.208-.122.478-.075.634.112s.155.458-.002.644l-1.95 2.299 2.057-1.187c.21-.124.478-.074.635.112.155.188.153.46-.004.645l-1.857 2.177 9.023-5.209c.23-.136.526-.062.672.164.144.226.084.524-.135.678l-1.581 1.11.051-.029c.232-.135.527-.062.671.163.145.226.086.524-.133.679l-1.097.771c.13.02.252.091.333.205.149.211.113.501-.083.669l-6.46 5.53c-.018.152-.104.295-.247.377l-.639.369c-.078.046-.164.067-.25.067z"/><path d="m39.938 40.712c-.146 0-.29-.064-.388-.185-.155-.19-.148-.466.015-.648l2.125-2.377-2.439 1.408c-.212.125-.486.072-.641-.12-.154-.193-.145-.471.023-.652l2.019-2.183-2.285 1.319c-.212.123-.483.074-.639-.118-.155-.191-.147-.467.018-.649l1.736-1.924-1.688.975c-.239.139-.546.056-.683-.183-.139-.239-.057-.545.183-.683l4.435-2.561c.211-.125.483-.074.639.118.155.191.147.467-.018.649l-1.737 1.925 2.397-1.384c.212-.125.486-.073.641.12s.145.471-.023.652l-2.019 2.183 2.285-1.319c.211-.124.482-.074.638.117.155.19.148.466-.015.648l-2.125 2.377 2.095-1.209c.238-.141.546-.057.683.183.139.239.057.545-.183.683l-4.798 2.77c-.078.046-.164.067-.25.067z"/><path d="m36.647 31.114c-.138 0-.273-.057-.371-.165-.158-.175-.173-.437-.034-.627l1.136-1.578-3.222 1.86c-.227.132-.519.064-.665-.155-.146-.218-.099-.513.109-.674l.082-.063-1.104.637c-.225.131-.515.065-.661-.149-.148-.215-.106-.507.095-.671l.921-.752c-.187.053-.394-.01-.522-.168-.154-.192-.146-.468.02-.65l2.099-2.312-2.381 1.375c-.208.119-.474.075-.632-.11-.156-.184-.158-.454-.005-.641l1.839-2.237-2.131 1.23c-.24.136-.546.057-.683-.183-.139-.239-.057-.545.183-.683l4.515-2.606c.206-.12.474-.076.632.11.156.184.158.454.005.641l-1.839 2.237 2.768-1.598c.211-.123.482-.073.64.119.154.192.146.468-.02.65l-2.099 2.312 2.401-1.386c.225-.13.514-.065.661.149.148.215.106.507-.095.671l-.844.688 2.191-1.265c.226-.131.519-.064.665.155.146.218.099.513-.109.674l-.924.713c.093.024.179.074.247.149.158.175.173.437.034.627l-1.465 2.035c.082.042.153.108.202.194.139.239.057.545-.183.683l-1.207.696c-.078.046-.164.067-.25.067z"/><path d="m26.616 30.375c-.148 0-.294-.066-.392-.189-.154-.194-.143-.472.027-.653l.212-.226-.661.381c-.224.13-.511.065-.659-.146-.149-.212-.111-.502.087-.669l4.264-3.591-5.524 3.19c-.219.128-.504.07-.654-.14-.15-.207-.12-.495.07-.666l3.133-2.812-3.749 2.165c-.214.123-.488.072-.643-.124-.153-.195-.142-.473.029-.653l2.29-2.417c-.119-.035-.227-.114-.293-.23-.139-.239-.057-.545.183-.683l2.217-1.28c.213-.123.488-.072.643.124.153.195.142.473-.029.653l-1.919 2.025 4.92-2.84c.22-.126.505-.068.654.14.15.207.12.495-.07.666l-3.133 2.812 6.274-3.623c.224-.129.511-.066.659.146.149.212.111.502-.087.669l-5.131 4.321c.075.031.144.082.197.15.154.194.143.472-.027.653l-1.289 1.374c.009.012.017.024.023.037.139.239.057.545-.183.683l-1.189.687c-.078.045-.164.067-.25.067z"/><path d="m24.679 38.411c-.085 0-.171-.021-.247-.065-.154-.088-.251-.251-.253-.429l-.005-.417-.408.235c-.24.139-.546.056-.683-.183-.139-.239-.057-.545.183-.683l1.147-.662c.153-.09.344-.09.497-.002.154.088.251.251.253.429l.007.521c.156.014.305.102.39.248.138.239.056.545-.184.684l-.447.258c-.077.044-.164.066-.25.066z"/><path d="m25.001 47.47c-.148 0-.296-.066-.394-.191-.153-.195-.14-.475.032-.654l.551-.575-2.078 1.199c-.218.13-.501.07-.653-.137-.15-.205-.123-.491.064-.664l1.783-1.642-2.669 1.541c-.228.133-.521.063-.666-.155-.146-.219-.098-.515.112-.675l.04-.03-.096.055c-.213.125-.489.072-.643-.123-.153-.194-.142-.473.029-.653l1.505-1.593-1.786 1.03c-.213.124-.486.073-.641-.12s-.145-.47.023-.651l.301-.326-.301.173c-.208.121-.476.075-.632-.109-.156-.186-.157-.455-.004-.642l.871-1.053-1.04.6c-.221.13-.505.068-.655-.14s-.119-.496.072-.666l.927-.825-1.034.597c-.225.132-.513.065-.661-.148-.148-.215-.107-.507.095-.671l1.553-1.27-1.719.992c-.218.128-.499.07-.651-.134-.151-.204-.126-.489.059-.663l3.121-2.938-3.005 1.734c-.217.127-.497.07-.648-.131-.152-.201-.131-.484.05-.66l2.562-2.488-.679.392c-.126.074-.277.089-.415.039-.138-.048-.247-.153-.3-.288l-.445-1.129-.29.167c-.239.138-.546.056-.683-.183-.139-.239-.057-.545.183-.683l.793-.458c.127-.073.277-.089.415-.039.137.048.247.153.3.288l.445 1.129 3.662-2.113c.216-.128.497-.071.648.131.152.201.131.484-.05.66l-2.562 2.487 3.238-1.869c.218-.128.499-.07.651.134.151.204.126.489-.059.663l-3.119 2.937 3.348-1.933c.225-.132.513-.066.661.148s.107.507-.095.671l-1.577 1.289c.21-.083.457-.017.593.171.15.208.119.496-.072.666l-1.371 1.222c.11.021.213.077.29.168.156.186.157.455.004.642l-.87 1.053.737-.426c.213-.125.485-.073.641.12.154.193.145.47-.023.651l-.302.328 1.905-1.1c.214-.125.488-.073.643.123.153.194.142.473-.029.653l-1.503 1.591 3.802-2.194c.227-.133.52-.064.666.155s.098.515-.112.675l-.065.05c.206-.086.454-.021.593.167.15.205.123.491-.064.664l-1.784 1.642 1.195-.689c.214-.125.489-.073.644.124.153.195.14.475-.032.654l-.56.585c.226-.097.503-.014.631.209.139.239.057.545-.183.683l-2.969 1.714c-.078.046-.164.067-.25.067z"/></g><path d="m25.604 47.47c-.136 0-.271-.056-.367-.161-.159-.172-.177-.431-.044-.623l1.105-1.604-3.535 2.04c-.217.129-.503.069-.653-.138-.151-.206-.122-.493.066-.665l1.988-1.808-2.746 1.585c-.213.125-.486.073-.642-.121-.154-.194-.143-.472.026-.652l2.039-2.187-2.154 1.243c-.188.107-.423.083-.584-.061-.161-.145-.211-.376-.123-.574l.827-1.871c-.083-.042-.154-.107-.204-.194-.139-.239-.057-.545.183-.683l.691-.399c.188-.107.423-.083.584.061.161.145.211.376.123.574l-.67 1.516 3.726-2.15c.213-.125.487-.074.642.121.154.194.143.472-.026.652l-2.038 2.186 3.868-2.233c.219-.128.503-.069.653.138.151.206.122.493-.066.665l-1.991 1.811 1.438-.829c.201-.118.459-.078.617.094.159.172.177.431.044.623l-1.105 1.604.444-.256c.238-.14.545-.057.683.183.139.239.057.545-.183.683l-2.365 1.365c-.078.046-.164.067-.25.067z" fill="#e2e8e7"/><path d="m26.479 30.341c-.146 0-.289-.063-.387-.183-.155-.189-.15-.463.011-.647l1.666-1.894-2.721 1.571c-.218.127-.5.07-.652-.136-.15-.205-.125-.49.062-.663l2.222-2.069-3.184 1.838c-.223.127-.51.067-.658-.145-.149-.211-.113-.501.084-.669l1.803-1.535-1.932 1.115c-.214.124-.49.072-.644-.125-.153-.196-.14-.475.033-.655l2.24-2.328c-.11-.038-.207-.114-.27-.223-.139-.239-.057-.545.183-.683l2.217-1.28c.215-.123.489-.072.644.125.153.196.14.475-.033.655l-1.809 1.879 3.621-2.091c.22-.129.509-.067.658.145.149.211.113.501-.084.669l-1.803 1.535 2.241-1.294c.218-.126.5-.069.652.136.15.205.125.49-.062.663l-2.221 2.069 1.544-.892c.211-.121.481-.074.637.116.155.189.15.463-.011.647l-2.299 2.614c.052.039.096.089.13.148.139.239.057.545-.183.683l-1.447.836c-.078.045-.164.067-.25.067z" fill="#e2e8e7"/><path d="m40.205 41.205c-.153 0-.305-.071-.402-.203-.151-.204-.124-.49.062-.663l1.185-1.102-1.235.713c-.217.127-.496.071-.649-.132-.152-.201-.13-.485.052-.66l1.505-1.453-1.616.933c-.212.124-.483.072-.638-.117-.155-.19-.148-.465.015-.648l2.131-2.39-2.449 1.414c-.217.126-.499.07-.649-.133-.152-.202-.129-.485.054-.661l1.084-1.04-.857.495c-.239.139-.546.056-.683-.183-.139-.239-.057-.545.183-.683l4.435-2.561c.216-.128.498-.071.649.133.152.202.129.485-.054.661l-1.085 1.041 1.566-.904c.211-.125.482-.074.638.117.155.19.148.465-.015.648l-2.131 2.389 2.448-1.413c.217-.127.496-.071.649.132.152.201.13.485-.052.66l-1.506 1.455 1.534-.886c.218-.128.5-.07.652.136.151.204.124.49-.062.663l-1.183 1.1.635-.366c.237-.14.545-.057.683.183.139.239.057.545-.183.683l-4.46 2.575c-.078.046-.164.067-.25.067z" fill="#e2e8e7"/><path d="m6.865 12.361c.475.02.951.026 1.428.033 1.157 13.6 2.315 27.201 3.472 40.801.319 2.347-.336 6.277 3.067 6.26 9.49.215 19.009 0 28.502 0 2.818.466 5.102-1.172 4.706-4.196 1.217-14.298 2.434-28.596 3.651-42.894 3.461.604 3.18-2.777 3.034-5.187-.51-3.242-11.017-.839-13.997-1.539.852-5.364-2.34-5.211-6.588-4.949-4.818.9-16.088-3.219-14.871 4.949-3.703.979-14.993-2.849-13.992 3.305 0 1.481-.399 3.335 1.59 3.417zm41.337 24.043c-2.925 31.433 3.429 20.172-31.291 22.142-3.099.578-3.647-1.55-3.567-4.214-1.19-13.976-2.379-27.953-3.569-41.93 13.492-.132 26.98.047 40.471-.027-.682 8.01-1.363 16.02-2.045 24.029zm-26.464-35.093c5.182.027 10.421-.125 15.616 0 2.242.078 2.006 2.58 1.936 4.328h-18.569c-.037-1.23-.42-4.053 1.017-4.328zm-14.919 5.05c15.069-.004 30.226.003 45.325 0 1.349 0 1.132 1.401 1.132 2.461 0 1.462.602 3.349-1.692 2.817-13.898-.002-27.976-.014-41.932.013-.502-.325-1.527.284-2.143-.013-1.492-.601-.749-4.049-.69-5.278z" fill="#262626"/><path d="m28.724 41.806c-.835-2.288-4.633-.684-6.584-1.138.468-.864.936-1.728 1.405-2.592 4.731 2.254.552-4.464-.201-6.058-1.164-.932-11.604.509-6.239 2.56-1.345 1.838-1.881 4.138-.277 5.977 1.723 2.112 2.65 5.184 5.14 6.495 5.275.887 7.522.808 6.757-5.244zm-11.424-4.568c.099-1.424 2.682-3.166.35-3.834 5.15-.868 4.233-1.347 6.313 3.413-1.969-.709-2.625 3.097-3.504 4.364-.205.424-.447.844-.596 1.29-.891-1.709-2.816-3.148-2.564-5.234zm9.797 9.421c-.064.096-.106.142-.012 0-3.411.767-7.616-1.497-5.381-5.328 5.635-.053 6.172-.897 5.409 5.308.041-.01.099-.007.188.028-.051-.02-.129-.015-.203-.009z" fill="#262626"/><path d="m27.085 46.66s.008 0 .012 0c.007-.008.009-.012.015-.019-.014.004-.018.014-.028.02z" fill="#262626"/><path d="m35.738 31.025c1.127.34 2.444.172 2.85-1.08.579-1.614 4.399-7.312 0-5.052-1.768-5.175-9.144-3.584-13.281-2.72-3.113 2.779-5.465 5.068-.487 7.352 2.834 2.508 4.47-1.686 5.864-3.603.439.831.879 1.662 1.318 2.494-4.365 2.093 2.098 2.224 3.737 2.61zm-2.657-8.549c4.342-.902 3.233 5.171 6.04 3.26-.641 1.495-1.47 2.951-2.053 4.449-1.593-.286-3.21-.497-4.807-.781.408-.38 1.53-.477 1.286-1.201-1.138-1.9-1.844-4.174-3.46-5.723.998-.001 1.996-.003 2.995-.004zm-4.976 5.314c-.378.566-.754 1.134-1.132 1.7-1.178-.864-2.651-1.489-3.664-2.53.045-1.611 1.845-4.128 3.468-4.537 1.587-.084 2.667 1.026 3.316 2.384-.662.995-1.325 1.989-1.987 2.984z" fill="#262626"/><path d="m45.056 35.593c-1.865-5.103-3.792-3.2-7.487-1.161-2.17 1.539 1.165 4.22 1.655 6.048h-2.487c.121-5.43-4.367 1.784-5.381 3.197-.206 1.618 5.757 9.43 5.38 3.837 5.153.9 6.411-5.131 8.368-8.606.515-1.063.504-2.268-.048-3.316zm-6.86-.2c.197-1.439 2.461-1.646 3.516-2.515 2.226 2.075 3.831 7.797-.722 7.8-.894-1.774-2.006-3.482-2.794-5.285zm3.39 7.572c-1.96 6.055-5.445 1.809-6.303 4.394-3.016-3.776-3.052-3.115-.022-6.896-.626 1.77 4.647 1.097 5.591.806.612-.035 1.239-.093 1.81-.34-.358.679-.717 1.358-1.075 2.036z" fill="#262626"/></svg>