<svg id="Icons" height="512" viewBox="0 0 60 60" width="512" xmlns="http://www.w3.org/2000/svg"><path d="m19.914 39.5a.5.5 0 0 1 -.279-.915l8.965-6.03-9.32 5.38a.5.5 0 0 1 -.521-.853l4.487-2.907-3.966 2.288a.5.5 0 0 1 -.536-.843l7.6-5.292-7.064 4.072a.5.5 0 0 1 -.527-.848l1.891-1.252-1.364.787a.5.5 0 0 1 -.554-.829l5.251-4.044-4.7 2.711a.5.5 0 0 1 -.572-.815l3.372-2.848-2.8 1.616a.5.5 0 0 1 -.613-.776l1.821-1.923-1.208.7a.5.5 0 0 1 -.739-.534l.321-1.55a.49.49 0 0 1 -.264-.221.5.5 0 0 1 .182-.682l.5-.289a.506.506 0 0 1 .543.027.5.5 0 0 1 .2.507l-.274 1.318 3.218-1.857a.5.5 0 0 1 .613.776l-1.821 1.923 4.683-2.7a.5.5 0 0 1 .573.814l-3.373 2.85 6.361-3.679a.5.5 0 0 1 .555.829l-5.255 4.044 8.449-4.878a.5.5 0 0 1 .527.849l-1.9 1.262 3.662-2.114a.5.5 0 0 1 .536.843l-7.595 5.29 10.632-6.138a.5.5 0 0 1 .522.853l-4.484 2.905 5.07-2.927a.5.5 0 0 1 .529.848l-8.964 6.029 8.439-4.871a.5.5 0 0 1 .523.852l-3.19 2.082 2.673-1.54a.5.5 0 0 1 .529.847l-4.088 2.753 3.561-2.055a.5.5 0 0 1 .531.846l-1.905 1.287 1.377-.794a.5.5 0 0 1 .533.844l-.759.521.228-.132a.5.5 0 0 1 .567.819l-3.333 2.727 2.77-1.6a.5.5 0 0 1 .569.819l-1.049.866.483-.279a.5.5 0 0 1 .677.693l-.975 1.6.3-.175a.5.5 0 1 1 .5.865l-2 1.155a.5.5 0 0 1 -.677-.693l.975-1.6-3.977 2.3a.5.5 0 0 1 -.566-.822l1.047-.864-2.921 1.686a.5.5 0 0 1 -.566-.819l3.34-2.728-6.152 3.551a.5.5 0 0 1 -.532-.845l.755-.517-2.371 1.365a.5.5 0 0 1 -.531-.847l1.907-1.288-3.706 2.139a.5.5 0 0 1 -.529-.847l4.091-2.76-6.253 3.61a.5.5 0 0 1 -.523-.852l3.187-2.076-5.079 2.932a.494.494 0 0 1 -.25.068z" fill="#4d40f4"/><path d="m29.359 6.47a.5.5 0 0 1 -.317-.886l.469-.386-2.087 1.202a.5.5 0 0 1 -.6-.789l2.228-2.194-3.752 2.168a.5.5 0 0 1 -.589-.8l1.168-1.078-.6.344a.5.5 0 0 1 -.649-.733l.625-.834a.492.492 0 0 1 -.373-.246.5.5 0 0 1 .182-.682l1.658-.956a.5.5 0 0 1 .649.732l-.473.631 2.366-1.363a.5.5 0 0 1 .589.8l-1.166 1.075 3.25-1.875a.5.5 0 0 1 .6.789l-2.226 2.193 3.944-2.277a.5.5 0 0 1 .567.818l-.47.388.347-.2a.5.5 0 0 1 .643.742l-.933 1.184.311-.178a.5.5 0 0 1 .5.865l-2.561 1.476a.5.5 0 0 1 -.642-.742l.933-1.185-3.341 1.927a.493.493 0 0 1 -.25.07z" fill="#3636ce"/><path d="m20.693 25.47a.5.5 0 0 1 -.269-.921l.222-.143-1.657.956a.5.5 0 0 1 -.526-.849l5.433-3.6-5.616 3.242a.5.5 0 0 1 -.53-.846l6.647-4.5-6.117 3.528a.5.5 0 0 1 -.526-.85l3.608-2.387-3.082 1.775a.5.5 0 0 1 -.522-.852l.889-.58-.367.212a.5.5 0 0 1 -.538-.842l6.817-4.792-6.267 3.617a.5.5 0 0 1 -.526-.85l2.326-1.54-1.425.822a.5.5 0 0 1 -.524-.85l5.843-3.844a.533.533 0 0 1 -.046-.058.5.5 0 0 1 .095-.671l1.807-1.477a.5.5 0 0 1 -.439-.616l.433-1.775a.494.494 0 0 1 -.239-.211.5.5 0 0 1 .183-.683l.5-.29a.5.5 0 0 1 .736.551l-.368 1.508 3.595-2.074a.5.5 0 0 1 .567.819l-1.366 1.117 3.37-1.946a.5.5 0 0 1 .525.851l-.3.2.682-.393a.5.5 0 0 1 .526.849l-2.33 1.54 1.829-1.055a.5.5 0 0 1 .538.841l-6.814 4.797 6.8-3.924a.5.5 0 0 1 .522.852l-.882.574.983-.566a.5.5 0 0 1 .526.849l-3.615 2.4 4.152-2.4a.5.5 0 0 1 .53.847l-6.645 4.5 7.627-4.4a.5.5 0 0 1 .526.849l-5.431 3.6 6.25-3.608a.5.5 0 0 1 .519.853l-.225.145.67-.387a.5.5 0 0 1 .538.842l-6.681 4.693 7.392-4.267a.5.5 0 0 1 .55.833l-6.476 4.829 6.588-3.8a.5.5 0 0 1 .549.833l-3.963 2.961 3.445-1.989a.5.5 0 0 1 .559.826l-2.448 1.928 1.89-1.091a.5.5 0 0 1 .575.813l-1.23 1.056.655-.378a.5.5 0 0 1 .683.681l-.834 1.453.151-.086a.5.5 0 0 1 .5.865l-1.76 1.014a.5.5 0 0 1 -.684-.681l.835-1.454-3.7 2.135a.5.5 0 0 1 -.575-.812l1.229-1.056-3.234 1.868a.5.5 0 0 1 -.56-.825l2.452-1.932-4.779 2.757a.5.5 0 0 1 -.548-.833l3.961-2.96-6.57 3.793a.5.5 0 0 1 -.55-.833l6.475-4.839-9.826 5.672a.5.5 0 0 1 -.537-.841l6.675-4.69-9.581 5.531a.5.5 0 0 1 -.25.07z" fill="#89d2ff"/><path d="m23.605 59.47a.5.5 0 0 1 -.27-.921l.642-.412-2.193 1.263a.5.5 0 0 1 -.532-.844l9.68-6.627-11.645 6.724a.5.5 0 0 1 -.519-.853l4.286-2.74-4.5 2.6a.5.5 0 0 1 -.523-.851l7.65-4.968-7.4 4.269a.5.5 0 0 1 -.527-.848l10.818-7.2-10.292 5.944a.5.5 0 0 1 -.518-.855l4.083-2.6-3.565 2.061a.5.5 0 0 1 -.529-.847l9.041-6.092-8.512 4.914a.5.5 0 0 1 -.54-.84l8.416-5.98-7.876 4.546a.5.5 0 0 1 -.534-.843l4.146-2.87-3.612 2.088a.5.5 0 0 1 -.553-.83l4.648-3.558-4.095 2.359a.5.5 0 0 1 -.559-.825l2.4-1.892-1.841 1.064a.5.5 0 0 1 -.607-.782l1.894-1.934-1.287.743a.5.5 0 0 1 -.7-.646l.563-1.19a.5.5 0 0 1 -.308-.929l1.161-.67a.5.5 0 0 1 .7.646l-.531 1.124 3.068-1.77a.5.5 0 0 1 .608.782l-1.894 1.933 4.7-2.715a.5.5 0 0 1 .56.825l-2.4 1.89 4.706-2.713a.5.5 0 0 1 .553.829l-4.647 3.562 7.606-4.391a.5.5 0 0 1 .535.843l-4.15 2.87 6.433-3.713a.5.5 0 0 1 .54.84l-8.413 5.976 11.809-6.816a.5.5 0 0 1 .53.847l-9.04 6.091 11.279-6.512a.5.5 0 0 1 .518.855l-4.091 2.6 3.745-2.162a.5.5 0 0 1 .527.849l-10.818 7.2 10.291-5.94a.5.5 0 0 1 .522.851l-7.652 4.965 7.13-4.115a.5.5 0 0 1 .519.853l-4.28 2.737 3.761-2.171a.5.5 0 0 1 .532.845l-9.684 6.629 9.152-5.283a.5.5 0 0 1 .52.854l-.634.407.114-.065a.5.5 0 0 1 .53.846l-4.156 2.819 3.626-2.093a.5.5 0 0 1 .553.83l-5.666 4.33 5.113-2.951a.5.5 0 0 1 .538.842l-.566.4.028-.015a.5.5 0 0 1 .586.8l-2.712 2.457 2.126-1.227a.5.5 0 0 1 .629.758l-1.149 1.334.157-.09a.5.5 0 1 1 .5.865l-2.703 1.56a.5.5 0 0 1 -.629-.758l1.147-1.332-3.622 2.09a.5.5 0 0 1 -.586-.8l2.713-2.463-5.656 3.263a.5.5 0 0 1 -.539-.841l.561-.394-2.143 1.235a.5.5 0 0 1 -.553-.83l5.669-4.332-8.942 5.162a.5.5 0 0 1 -.53-.846l4.15-2.813-6.339 3.659a.5.5 0 0 1 -.25.07z" fill="#89d2ff"/><g fill="#262626"><path d="m42.724 38.81a1.163 1.163 0 0 0 -1-1.065v-12.729c.835-.362 1-.964 1-1.836 2.042-13.736-7.688-7.992-8-16.939 1.519-.65.993-2.722.912-4.029-1.147-2.804-4.926-1.318-7.274-1.668-2.3-.365-4.6 1.1-4.09 3.633-.1.857-.011 1.975 1.005 2.2.428 8.123-10.288 4.732-8 15.571 0 1.181-.349 2.922 1 3.261v12.684c-2.442 3.012-.33 9.887-1 13.928-1.351 8.924 3.856 7.566 10.526 7.515 21.203 1.629 13.597-4.171 14.921-20.526zm-23-13.445h20.552v12.27h-20.552zm6-21.243c-.783-4.092 4.111-2.322 6.562-2.666 2.27-.326 2.219 2.594 1.855 4.088-1.949-.561-8.865 1.444-8.413-1.422zm-6.938 12.449c.917-4.652 8.882-4.5 7.945-10.1 2.183-.024 4.365-.006 6.548-.011.586 9.783 9.8 2.384 8.093 18.182q-10.953-.014-21.907 0c-1.621-1.756-.554-5.69-.679-8.071zm20.514 42.093c-23.98-.216-20.761 4.167-20.5-20.3 24.27 1.731 23.006-7.5 22.474 16.269.002 1.499.149 3.916-1.974 4.031z"/><path d="m21.268 43.064c.4 1.359-1.194 10.682 1.463 7.873-.399-1.36 1.195-10.683-1.463-7.873z"/><path d="m21.931 21.512c1.171.293 1.221-4.339.138-4.024-1.169-.288-1.221 4.339-.138 4.024z"/></g></svg>