<svg id="Icons" height="512" viewBox="0 0 60 60" width="512" xmlns="http://www.w3.org/2000/svg"><g fill="none" stroke-linecap="round" stroke-linejoin="round"><path d="m11.492 6.68 6.341-3.661-11.323 8.689 18.118-10.461-20.437 14.081 24.725-14.275-25.951 16.917 28.863-16.665-29.616 18.782 31.82-18.371-32.315 20.247 34.205-19.748-34.548 21.49 36.221-20.912-36.433 22.546 37.951-21.912-38.055 23.461 39.454-22.779-39.463 24.655 41.096-23.727-41.023 25.097 42.169-24.347-41.955 26.281 43.511-25.121-43.307 26.275 44.205-25.522-43.864 27.049 45.013-25.988-44.517 27.658 45.722-26.397-45.164 27.932 46.213-26.681-45.627 28.047 46.518-26.857-45.987 27.938 46.659-26.938-45.704 28.636 46.703-26.964-45.867 28.235 46.551-26.877-45.731 27.994 46.29-26.725-45.157 28.095 45.775-26.428-44.887 27.385 45.271-26.138-44.066 27.307 44.474-25.676-43.145 26.798 43.457-25.09-41.705 26.381 41.933-24.21-40.791 24.935 40.846-23.582-38.83 24.68 38.773-22.386-37.583 22.934 37.465-21.63-35.874 22.258 35.621-20.566-33.519 21.221 33.044-19.078-30.916 19.553 30.271-17.477-27.327 17.847 26.184-15.118-22.506 15.13 20.672-11.936-17.816 11.597 16.085-9.287-10.535 7.7 6.341-3.661" stroke="#57b27c"/><path d="m47.642 52.639 6.301-3.638-5.323 4.606 6.295-3.635-5.224 4.696 6.288-3.631-4.981 4.927 6.282-3.627-5.276 4.623 6.275-3.623-4.883 5.003 5.522-3.188-4.475 3.788 2.489-1.437" stroke="#e1c53a"/><path d="m38.139 38.803 1.316-.76-1.253 2.01 2.729-1.575-2.304 2.928 4.096-2.364-3.61 3.907 5.653-3.264-5.139 4.898 7.305-4.217-6.881 5.564 8.665-5.003-8.086 6.845 10.526-6.077-10.031 7.65 12.116-6.994-11.701 8.311 13.445-7.762-13.049 9.022 14.571-8.413-14.005 10.211 10.245-5.915-9.683 7.703 4.033-2.329-3.626 3.287 2.788-1.61" stroke="#e1c53a"/></g><path d="m55.673 27.756c.476-16.796-16.701-30.372-32.954-26.756-18.296 3.065-28.519 25.545-18.486 41.233 7.293 12.567 24.423 16.855 36.949 9.888.9 1.82.593 5.511 3.462 5.126 1.844-.352 2.135-2.322 2.971-3.7 4.414 3.992 6.333 9.177 11.536 2.433 1.633-1.9-.843-3.6-2.079-4.834l-3.719-3.719c7.2-3.1 4.662-4.354-1.233-5.961a27.574 27.574 0 0 0 3.557-13.6.107.107 0 0 0 -.004-.11zm-14.473 10.244c-3.073-1.1-4.709.758-3.314 3.637h-9.15v-13.325h13.579a49.1 49.1 0 0 1 -1.115 9.688zm-12.4 16.39h-.057v-12.024h9.376q.407 1.287.811 2.576c-1.913 4.167-5.157 8.994-10.137 9.445zm-.064-46.79v-5.981c5.947.856 9.234 6.912 11.236 12.01h-11.236zm-1.472-5.97v12h-11.228c1.829-5.156 5.272-11.303 11.228-12.005zm-7.034 12.741h7.034v13.317h-13.526a43.4 43.4 0 0 1 2.05-13.317zm-1.43 13.941h8.462v13.322h-11.417a43.262 43.262 0 0 1 -2.1-13.322zm8.462 14.054v11.984c-5.874-.85-9.321-6.835-11.162-11.984zm9.938-14.678h-8.464v-13.317h11.5a40.824 40.824 0 0 1 2.084 13.317zm4.581-13.317h8.64a26.9 26.9 0 0 1 3.755 13.317h-10.387a42.289 42.289 0 0 0 -2.01-13.317zm8.166-.742h-8.41c-1.587-4.329-3.854-8.688-7.737-11.372a26.1 26.1 0 0 1 16.145 11.372zm-29.905-10.909a25.457 25.457 0 0 1 2.69-.668c-4.132 2.556-6.584 7.118-8.157 11.577h-8.651a26.259 26.259 0 0 1 14.118-10.909zm-14.576 11.651h8.85a44.176 44.176 0 0 0 -2.048 13.317h-10.506a25.808 25.808 0 0 1 3.704-13.317zm-3.709 13.941h10.514a43.969 43.969 0 0 0 2 13.322h-8.691a27.065 27.065 0 0 1 -3.823-13.322zm9.771 20.225a26.176 26.176 0 0 1 -5.487-6.171h8.466c1.507 4.373 3.858 8.769 7.769 11.39a26.151 26.151 0 0 1 -10.748-5.219zm21.941 5.318a18.655 18.655 0 0 0 6.031-7.071l1.362 4.332a26.193 26.193 0 0 1 -7.393 2.739zm21.293-10.555c2.425.623 1.515 2.222-.315 2.814l-2.413 1.206c-.13.065-.4.268-.241.431l3.507 3.508c1.068 1.068 3.971 3.058 2.519 4.749a20.921 20.921 0 0 1 -2.4 2.4c-1.219.949-5.833-5.226-7.256-6.2-2.14-.837-2.167 3.82-3.651 4.314-.716-.072-1.137-2.42-1.281-2.879q-1.416-4.5-2.83-9c-.244-1.909-3.9-7.945.64-5.665.077.234.4.3.731.238l8.784 2.764a.67.67 0 0 0 .563.177zm-3.9-2.235-8.31-2.615a48.917 48.917 0 0 0 1.231-10.14h10.4a26.731 26.731 0 0 1 -3.322 12.757z" fill="#262626"/></svg>