<svg id="Icons" height="300" viewBox="0 0 60 60" width="300" xmlns="http://www.w3.org/2000/svg" version="1.1" xmlns:xlink="http://www.w3.org/1999/xlink" xmlns:svgjs="http://svgjs.dev/svgjs"><g width="100%" height="100%" transform="matrix(1,0,0,1,0,0)"><path d="m24.422 59.471a.5.5 0 0 1 -.275-.918l5.708-3.744-7.955 4.591a.5.5 0 0 1 -.529-.847l10.58-7.119-13.803 7.966a.5.5 0 0 1 -.522-.851l9.642-6.26-12.32 7.111a.5.5 0 0 1 -.515-.856l4.254-2.661-5.636 3.257a.5.5 0 0 1 -.519-.855l10.033-6.4-10.725 6.189a.5.5 0 0 1 -.515-.857l3.535-2.2-3.462 2a.5.5 0 0 1 -.519-.854l9.954-6.385-9.553 5.514a.5.5 0 0 1 -.526-.85l11.711-7.751-11.185 6.457a.5.5 0 0 1 -.52-.853l5.245-3.372-4.725 2.727a.5.5 0 0 1 -.526-.849l6.309-4.178-5.783 3.339a.5.5 0 0 1 -.532-.846l5.909-4.035-5.377 3.1a.5.5 0 0 1 -.529-.848l2.26-1.518-1.656.955a.5.5 0 0 1 -.53-.846l.62-.419a.5.5 0 0 1 -.489-.864l2.514-1.868-1.291.744a.5.5 0 0 1 -.574-.813l2.122-1.8a.5.5 0 0 1 -.041-.887l3.434-1.982a.5.5 0 0 1 .573.814l-1.221 1.041 3.971-2.29a.5.5 0 0 1 .548.834l-2.512 1.866 4.681-2.7a.5.5 0 0 1 .53.846l-.56.379 2.123-1.225a.5.5 0 0 1 .529.847l-2.26 1.518 4.1-2.365a.5.5 0 0 1 .532.845l-5.91 4.036 8.456-4.881a.5.5 0 0 1 .527.849l-6.311 4.178 8.706-5.027a.5.5 0 0 1 .521.853l-5.243 3.369 7.24-4.179a.5.5 0 0 1 .526.849l-11.712 7.751 13.911-8.031a.5.5 0 0 1 .52.853l-9.951 6.383 11.1-6.407a.5.5 0 0 1 .515.857l-3.539 2.202 4.046-2.336a.5.5 0 0 1 .518.854l-10.03 6.4 10.631-6.138a.5.5 0 0 1 .515.856l-4.269 2.671 4.406-2.544a.5.5 0 0 1 .523.852l-9.631 6.255 9.83-5.675a.5.5 0 0 1 .529.848l-10.578 7.12 10.563-6.1a.5.5 0 0 1 .524.851l-5.7 3.74 5.339-3.082a.5.5 0 0 1 .524.85l-3.63 2.387 3.106-1.793a.5.5 0 0 1 .525.851l-1.639 1.079 1.114-.643a.5.5 0 0 1 .553.829l-5.829 4.468 5.271-3.043a.5.5 0 0 1 .54.84l-1.2.86.664-.383a.5.5 0 0 1 .56.824l-1.688 1.338 1.128-.651a.5.5 0 0 1 .629.759l-1.572 1.822.727-.419a.5.5 0 1 1 .5.865l-3.284 1.9a.5.5 0 0 1 -.629-.758l1.57-1.821-4.472 2.567a.5.5 0 0 1 -.56-.824l1.689-1.339-3.748 2.163a.5.5 0 0 1 -.54-.839l1.2-.858-2.935 1.697a.5.5 0 0 1 -.554-.829l5.821-4.459-9.167 5.288a.5.5 0 0 1 -.525-.85l1.642-1.081-3.343 1.931a.5.5 0 0 1 -.525-.85l3.633-2.389-5.61 3.239a.5.5 0 0 1 -.25.071z" fill="#f85384" fill-opacity="1" data-original-color="#f8536cff" stroke="none" stroke-opacity="1"/><path d="m34.7 46.571a.5.5 0 0 1 -.345-.861l1.26-1.2-.337.194a.5.5 0 0 1 -.595-.794l.925-.884-.336.2a.5.5 0 0 1 -.583-.807l.407-.36a.508.508 0 0 1 -.451-.16.5.5 0 0 1 -.032-.629l1.087-1.492-.44.254a.5.5 0 0 1 -.727-.582l.22-.7a.507.507 0 0 1 -.182-.183.5.5 0 0 1 .183-.682l.5-.288a.5.5 0 0 1 .727.582l-.108.344 1.383-.8a.5.5 0 0 1 .653.727l-1.084 1.482 1.9-1.1a.5.5 0 0 1 .582.807l-.408.362a.5.5 0 0 1 .423.855l-.925.884.332-.191a.5.5 0 0 1 .595.794l-1.262 1.2.67-.386a.5.5 0 0 1 .5.865l-4.283 2.478a.489.489 0 0 1 -.249.071z" fill="#fccb55" fill-opacity="1" data-original-color="#fccb55ff" stroke="none" stroke-opacity="1"/><path d="m19.521 59.5a.5.5 0 0 1 -.282-.913l8.585-5.867-10.544 6.085a.5.5 0 0 1 -.518-.855l2.146-1.364-1.628.939a.5.5 0 0 1 -.541-.838l5.761-4.123-5.215 3.01a.5.5 0 0 1 -.549-.834l4.022-2.994-3.473 2a.5.5 0 0 1 -.543-.838l.736-.53-.193.11a.5.5 0 0 1 -.6-.793l2.432-2.339-1.837 1.064a.5.5 0 0 1 -.593-.8l1.094-1.03-.5.289a.5.5 0 0 1 -.6-.792l1.035-1-.438.253a.5.5 0 0 1 -.611-.778l1.52-1.589-.909.524a.5.5 0 0 1 -.624-.765l1.887-2.122-1.263.729a.5.5 0 0 1 -.613-.776l1.57-1.656-.957.552a.5.5 0 0 1 -.723-.594l.521-1.534a.516.516 0 0 1 -.48-.248.5.5 0 0 1 .182-.683l.927-.535a.5.5 0 0 1 .724.594l-.5 1.47 2.789-1.61a.5.5 0 0 1 .613.777l-1.571 1.656.959-.553a.5.5 0 0 1 .624.765l-1.887 2.122 1.263-.729a.5.5 0 0 1 .611.779l-1.52 1.588.909-.525a.5.5 0 0 1 .6.792l-1.037 1 .718-.41a.5.5 0 0 1 .593.8l-1.093 1.028 1.677-.968a.5.5 0 0 1 .6.793l-2.437 2.337 5.152-2.971a.5.5 0 0 1 .543.838l-.739.533 2.376-1.371a.5.5 0 0 1 .549.834l-4.022 3 6.633-3.834a.5.5 0 0 1 .541.839l-5.754 4.121 13.11-7.569a.5.5 0 0 1 .518.855l-2.134 1.354 1.617-.933a.5.5 0 0 1 .533.845l-8.59 5.87 8.06-4.653a.5.5 0 0 1 .541.839l-7.4 5.3 6.858-3.959a.5.5 0 0 1 .55.833l-5.349 4 4.8-2.773a.5.5 0 0 1 .553.83l-2.921 2.225 2.37-1.368a.5.5 0 0 1 .572.814l-1.972 1.665 1.4-.809a.5.5 0 0 1 .631.757l-1.2 1.412.573-.33a.5.5 0 0 1 .6.075.5.5 0 0 1 .09.6l-.275.5a.511.511 0 0 1 .27.223.5.5 0 0 1 -.183.683l-.97.56a.5.5 0 0 1 -.689-.672l.117-.213-1.539.888a.5.5 0 0 1 -.631-.757l1.2-1.414-3.767 2.175a.5.5 0 0 1 -.562-.813l1.973-1.665-4.3 2.483a.5.5 0 0 1 -.552-.83l2.919-2.223-5.295 3.057a.5.5 0 0 1 -.55-.833l5.348-4-8.379 4.838a.5.5 0 0 1 -.541-.839l7.4-5.3-10.652 6.142a.494.494 0 0 1 -.25.07z" fill="#fccb55" fill-opacity="1" data-original-color="#fccb55ff" stroke="none" stroke-opacity="1"/><path d="m23.91 59.494a.5.5 0 0 1 -.3-.9l3.784-2.833-6.114 3.529a.5.5 0 0 1 -.554-.829l4.174-3.207-3.619 2.089a.5.5 0 0 1 -.575-.813l2.762-2.365-2.187 1.263a.5.5 0 0 1 -.566-.82l.345-.283a.484.484 0 0 1 -.36-.125.5.5 0 0 1 -.126-.572l.631-1.454a.5.5 0 0 1 -.337-.926l1.128-.65a.5.5 0 0 1 .709.632l-.61 1.407 3.528-2.037a.5.5 0 0 1 .566.819l-.089.074 1.547-.893a.5.5 0 0 1 .576.812l-2.763 2.362 5.5-3.177a.5.5 0 0 1 .555.829l-4.175 3.209 6.813-3.935a.5.5 0 0 1 .55.833l-3.783 2.837 3.8-2.2a.5.5 0 0 1 .568.817l-3.123 2.593 2.565-1.48a.5.5 0 0 1 .626.761l-1.9 2.173 1.287-.742a.5.5 0 0 1 .739.54l-.3 1.382a.493.493 0 0 1 .256.218.5.5 0 0 1 -.183.682l-.5.289a.5.5 0 0 1 -.738-.54l.25-1.139-2.924 1.687a.5.5 0 0 1 -.626-.762l1.9-2.172-5.1 2.942a.5.5 0 0 1 -.569-.817l3.127-2.589-5.915 3.414a.491.491 0 0 1 -.25.067z" fill="#e0b24c" fill-opacity="1" data-original-color="#e0b24cff" stroke="none" stroke-opacity="1"/><path d="m27.208 38.868a.5.5 0 0 1 -.341-.868l1.545-1.439-2.229 1.288a.5.5 0 0 1 -.594-.8l2.972-2.821-4.074 2.352a.5.5 0 0 1 -.585-.8l2.185-1.97-1.807 1.046a.5.5 0 0 1 -.584-.8l.392-.352a.514.514 0 0 1 -.356-.1.5.5 0 0 1 -.189-.514l.3-1.308a.491.491 0 0 1 -.249-.215.5.5 0 0 1 .183-.683l.5-.29a.5.5 0 0 1 .738.546l-.239 1.06 2.793-1.612a.5.5 0 0 1 .584.805l-.242.217 1.785-1.03a.5.5 0 0 1 .585.8l-2.181 1.971 3.627-2.094a.5.5 0 0 1 .593.795l-2.971 2.819 2.378-1.371a.5.5 0 0 1 .59.8l-1.547 1.44.961-.554a.5.5 0 1 1 .5.865l-4.773 2.749a.489.489 0 0 1 -.25.068z" fill="#e8cbba" fill-opacity="1" data-original-color="#916953ff" stroke="none" stroke-opacity="1"/><path d="m15.613 22.408a.5.5 0 0 1 -.481-.635l.376-1.35-1.786 1.032a.5.5 0 0 1 -.622-.767l.959-1.067-1.242.716a.5.5 0 0 1 -.613-.777l1.871-1.978-1.768 1.018a.5.5 0 0 1 -.641-.746l1.562-1.949a.5.5 0 1 1 -.5-.866l2.308-1.333a.5.5 0 0 1 .641.745l-1.563 1.95 2.432-1.401a.5.5 0 0 1 .613.777l-1.872 1.979.995-.575a.5.5 0 0 1 .622.767l-.958 1.066.122-.07a.5.5 0 0 1 .732.567l-.483 1.731a.478.478 0 0 1 .158.167.5.5 0 0 1 -.183.683l-.429.248a.5.5 0 0 1 -.25.068z" fill="#e8cbba" fill-opacity="1" data-original-color="#916953ff" stroke="none" stroke-opacity="1"/><path d="m39.931 22a.5.5 0 0 1 -.367-.841l1.65-1.77-1.252.723a.5.5 0 0 1 -.623-.766l1.461-1.632-1.048.606a.5.5 0 0 1 -.633-.755l.849-1.011-.4.231a.5.5 0 0 1 -.748-.481l.146-1.516a.5.5 0 0 1 -.144-.921l.468-.27a.5.5 0 0 1 .748.48l-.13 1.357 2.015-1.164a.5.5 0 0 1 .633.754l-.856 1.012 1.289-.744a.5.5 0 0 1 .623.766l-1.457 1.633 1.449-.837a.5.5 0 0 1 .617.774l-1.648 1.772.922-.532a.5.5 0 0 1 .5.866l-3.814 2.2a.5.5 0 0 1 -.25.066z" fill="#e8cbba" fill-opacity="1" data-original-color="#916953ff" stroke="none" stroke-opacity="1"/><path d="m18.765 14.45a.5.5 0 0 1 -.286-.91l7.136-4.984-9.968 5.755a.5.5 0 0 1 -.522-.853l3.037-1.972-1.712.989a.5.5 0 0 1 -.531-.847l4.938-3.357-3.436 1.985a.5.5 0 0 1 -.557-.828l5.572-4.334-3.69 2.131a.5.5 0 0 1 -.546-.836l1.021-.75a.5.5 0 0 1 -.384-.821l1.748-2.089a.5.5 0 0 1 -.194-.93l1.957-1.131a.5.5 0 0 1 .633.754l-1.565 1.871 4.67-2.693a.5.5 0 0 1 .546.836l-.534.392 2.128-1.228a.5.5 0 0 1 .556.827l-5.571 4.331 8.94-5.158a.5.5 0 0 1 .532.847l-4.942 3.353 6.513-3.76a.5.5 0 0 1 .522.852l-3.038 1.974 3.431-1.981a.5.5 0 0 1 .536.844l-7.135 4.982 7.405-4.274a.5.5 0 0 1 .541.839l-5.7 4.067 5.829-3.365a.5.5 0 0 1 .547.835l-4.434 3.281 4.542-2.623a.5.5 0 0 1 .542.839l-1.719 1.239 1.667-.963a.5.5 0 0 1 .542.839l-.164.119.032-.019a.5.5 0 0 1 .555.829l-.494.381.374-.216a.5.5 0 0 1 .581.807l-.8.709.7-.407a.5.5 0 0 1 .719.606l-.588 1.591.663-.383a.5.5 0 0 1 .5.866l-1.862 1.075a.5.5 0 0 1 -.719-.606l.588-1.59-3.8 2.2a.5.5 0 0 1 -.581-.807l.8-.71-2.626 1.513a.5.5 0 0 1 -.555-.829l.5-.382-2.1 1.211a.5.5 0 0 1 -.542-.839l.163-.117-1.656.956a.5.5 0 0 1 -.542-.839l1.722-1.239-3.6 2.078a.5.5 0 0 1 -.547-.835l4.439-3.282-7.131 4.117a.5.5 0 0 1 -.541-.84l5.7-4.066-8.5 4.906a.491.491 0 0 1 -.255.067z" fill="#fccb55" fill-opacity="1" data-original-color="#fccb55ff" stroke="none" stroke-opacity="1"/><path d="m28.713 33.4a.5.5 0 0 1 -.286-.91l.646-.45-2.136 1.233a.5.5 0 0 1 -.544-.837l5.5-4.015-7.458 4.306a.5.5 0 0 1 -.532-.846l4.543-3.092-5.634 3.251a.5.5 0 0 1 -.529-.848l5.347-3.6-6.257 3.612a.5.5 0 0 1 -.529-.848l6.992-4.717-7.771 4.486a.5.5 0 0 1 -.529-.847l8.142-5.478-8.754 5.055a.5.5 0 0 1 -.524-.855l9.1-6.112-9.564 5.522a.5.5 0 0 1 -.531-.847l8.977-6.063-9.242 5.331a.5.5 0 0 1 -.539-.841l8.748-6.207-8.818 5.091a.5.5 0 0 1 -.537-.843l5.565-3.9-5.208 3.007a.5.5 0 0 1 -.538-.843l3.087-2.163-2.62 1.511a.5.5 0 0 1 -.542-.839l1.819-1.3-1.277.737a.5.5 0 0 1 -.582-.807l2.841-2.53-2.259 1.296a.5.5 0 0 1 -.613-.777l1.187-1.255-.574.331a.5.5 0 0 1 -.735-.552l.288-1.173a.49.49 0 0 1 -.235-.209.5.5 0 0 1 .182-.683l.5-.29a.5.5 0 0 1 .736.552l-.222.9 2.527-1.459a.5.5 0 0 1 .614.777l-1.187 1.254 3.523-2.034a.5.5 0 0 1 .582.807l-2.84 2.53 5.787-3.335a.5.5 0 0 1 .542.84l-1.82 1.3 3.721-2.148a.5.5 0 0 1 .537.842l-3.089 2.166 5.216-3.011a.5.5 0 0 1 .537.842l-5.56 3.9 8.216-4.741a.5.5 0 0 1 .539.841l-8.749 6.208 12.22-7.054a.5.5 0 0 1 .531.847l-8.974 6.065 10.053-5.8a.5.5 0 0 1 .529.848l-9.1 6.116 8.573-4.95a.5.5 0 0 1 .529.848l-8.141 5.477 7.61-4.394a.5.5 0 0 1 .529.848l-6.991 4.716 6.462-3.731a.5.5 0 0 1 .529.849l-5.349 3.592 4.756-2.746a.5.5 0 0 1 .531.847l-4.541 3.099 3.841-2.217a.5.5 0 0 1 .545.837l-5.5 4.014 4.205-2.434a.5.5 0 0 1 .536.843l-1.263.881a.571.571 0 0 1 .421.222.5.5 0 0 1 -.111.674l-2.145 1.653a.5.5 0 0 1 -.067.821l-4.017 2.319a.5.5 0 0 1 -.555-.829l.213-.164-2.786 1.608a.494.494 0 0 1 -.25.072z" fill="#e8cbba" fill-opacity="1" data-original-color="#9e785fff" stroke="none" stroke-opacity="1"/><path d="m24.77 42.37a.5.5 0 0 1 -.36-.848l.482-.5-.781.451a.5.5 0 0 1 -.632-.755l.817-.97-1.172.676a.5.5 0 0 1 -.632-.756l.639-.754-.926.534a.5.5 0 0 1 -.64-.745l.6-.742-.88.507a.5.5 0 0 1 -.5-.866l3.188-1.839a.5.5 0 0 1 .639.745l-.594.742 1.1-.638a.5.5 0 0 1 .632.756l-.639.754 1.152-.664a.5.5 0 0 1 .633.755l-.817.969 1.413-.816a.5.5 0 0 1 .61.78l-1.685 1.739.014.022a.5.5 0 0 1 -.183.683l-1.228.71a.494.494 0 0 1 -.25.07z" fill="#e1efff" fill-opacity="1" data-original-color="#e1efffff" stroke="none" stroke-opacity="1"/><path d="m30.47 42.175a.5.5 0 0 1 -.337-.869l.845-.772-1.117.644a.5.5 0 0 1 -.582-.807l.4-.354-.58.335a.5.5 0 0 1 -.62-.769l1.656-1.823a.492.492 0 0 1 -.246-.214.5.5 0 0 1 .182-.683l1.916-1.106a.5.5 0 0 1 .62.768l-1.234 1.359 2.056-1.184a.5.5 0 0 1 .582.807l-.4.354.849-.489a.5.5 0 0 1 .587.8l-1.947 1.777a.5.5 0 0 1 -.065.822l-2.315 1.336a.493.493 0 0 1 -.25.068z" fill="#e1efff" fill-opacity="1" data-original-color="#e1efffff" stroke="none" stroke-opacity="1"/><g fill="#262626"><path d="m32.253 25.481a.966.966 0 0 0 -.944.441c-.014.026-.028.051-.044.076a.512.512 0 0 0 -.033.06c-.008.009-.015.016-.04.047a3.579 3.579 0 0 1 -.545.572 4.012 4.012 0 0 1 -2.617.8 3.843 3.843 0 0 1 -3.366-1.794c-.285-.561-1.668-.038-1.328.634a4.4 4.4 0 0 0 2.686 1.959 6.3 6.3 0 0 0 5.787-1.129 3.8 3.8 0 0 0 .882-1.069c.162-.319-.146-.562-.438-.597z" fill="#262626" fill-opacity="1" data-original-color="#262626ff" stroke="none" stroke-opacity="1"/><path d="m24.579 55.477a.878.878 0 0 0 .353.039h1a.86.86 0 0 0 .291-.069.8.8 0 0 0 .254-.13.526.526 0 0 0 .17-.178.377.377 0 0 0 .086-.2.371.371 0 0 0 -.173-.351l-.139-.067a.878.878 0 0 0 -.353-.039h-1a.86.86 0 0 0 -.291.069.792.792 0 0 0 -.254.129.538.538 0 0 0 -.17.179.377.377 0 0 0 -.086.2.371.371 0 0 0 .173.351z" fill="#262626" fill-opacity="1" data-original-color="#262626ff" stroke="none" stroke-opacity="1"/><path d="m29.586 55.5a.856.856 0 0 0 .355.047h1a.784.784 0 0 0 .291-.068.726.726 0 0 0 .253-.134.613.613 0 0 0 .25-.4.419.419 0 0 0 -.179-.378l-.142-.074a.856.856 0 0 0 -.355-.047h-1a.784.784 0 0 0 -.291.068.726.726 0 0 0 -.253.134.613.613 0 0 0 -.25.4.419.419 0 0 0 .179.378z" fill="#262626" fill-opacity="1" data-original-color="#262626ff" stroke="none" stroke-opacity="1"/><path d="m13.359 14.394a4.434 4.434 0 0 0 -1.759 2.074 4.327 4.327 0 0 0 1.271 4.99 4.583 4.583 0 0 0 2.5.976 12 12 0 0 0 7.9 10.124v3.122c0 .059-.013.2-.011.335l-2.6 1.728-.03.017a14.89 14.89 0 0 0 -3 .436c-.319-.392-1.368-.154-1.368.383v.056a9.235 9.235 0 0 0 -4.639 3.774c-1.7 2.743-1.352 5.957-1.352 9.035 0 2.42-.844 6.7 2.176 7.668a11.724 11.724 0 0 0 3.884.186c.219.331.9.266 1.222-.024h2.786a.48.48 0 0 0 .376.144h13.959a1.384 1.384 0 0 0 .732-.144h.97c.649 0 1.3.007 1.949.012.212.374.93.318 1.249 0 .635 0 1.27 0 1.9-.012a4.611 4.611 0 0 0 3.656-1.638 5.239 5.239 0 0 0 .59-3.283v-5.286a20.132 20.132 0 0 0 -.192-4.115 9.156 9.156 0 0 0 -4.12-5.851 8.3 8.3 0 0 0 -1.719-.8c-.123-.329-.583-.4-.954-.268a14.514 14.514 0 0 0 -3.049-.306.3.3 0 0 0 -.231-.131l-2.726-1.815v-3.5a12.5 12.5 0 0 0 7.885-9.9 4.852 4.852 0 0 0 3.74-2.75 4.32 4.32 0 0 0 -1.13-5 4.605 4.605 0 0 0 -.441-.31 12.415 12.415 0 0 0 6.825-3.079c.651-.64-.736-.952-1.224-.472.24-.236-.043.034-.1.082-.181.14-.357.284-.544.417a10.908 10.908 0 0 1 -2.154 1.16 13.966 13.966 0 0 1 -4.357.964q-1.618-3.7-3.238-7.4c-.48-1.1-.919-2.228-1.445-3.3a3.516 3.516 0 0 0 -3.408-2.004c-3.1-.036-6.195 0-9.291 0a4.711 4.711 0 0 0 -4 1.627 14.479 14.479 0 0 0 -1.314 2.8l-3.614 8.262c-2.644-.2-5.477-.948-7.368-2.808-.488-.48-1.722.264-1.108.868a11.585 11.585 0 0 0 6.916 2.956zm-.625 3.69a3.456 3.456 0 0 1 2.37-3.53l.17.009c0 2.206-.027 4.414 0 6.62 0 .061.012.12.013.18a3.675 3.675 0 0 1 -2.553-3.279zm19.087 18.5q1.2.8 2.393 1.594l-2.585 2.782-.476.512c-.094-.1-.183-.208-.27-.3l-.792-.872-1.3-1.438zm1.87 9.837c-.431.329-1.264.17-1.768.17h-6.972c-.551 0-1.117.039-1.667 0-1.338-.094-1.56-1.338-1.56-2.412v-4.4l1.545 1.662c.179.193.354.389.536.577a1.449 1.449 0 0 0 1.507.264c.759-.223 1.275-.994 1.785-1.556l.781-.86.78.86.862.95a2.619 2.619 0 0 0 .488.493 2 2 0 0 0 2.125-.422c.143-.14.274-.294.41-.44l1.733-1.865v4.446c0 .832.171 1.957-.585 2.535zm-8.875-4.654c-.022.033-.016.042 0 .002zm1.339-1.467-.845.933c-.061.066-.128.133-.193.2l-.013-.015-.558-.6-1.708-1.838-.991-1.066 1.938-1.291 3.4 2.545zm-12.984 18.052c-1.3-.735-1.447-2.042-1.447-3.358 0-2.709-.039-5.421 0-8.13a9.042 9.042 0 0 1 2.267-5.977 7.458 7.458 0 0 1 2.276-1.742v19.581h-1.078a3.789 3.789 0 0 1 -2.018-.374zm8.57-6.62c-.009.116.073-.259.026-.314a.1.1 0 0 0 .042 0 2.407 2.407 0 0 1 .724 0h8.56c.784 0 1.574-.031 2.358 0 .717.028.824.572.824 1.19v5.974h-12.55v-5.5c0-.354-.01-.711 0-1.065.003-.095.009-.187.016-.285zm13.984 6.994v-6.126c0-.244.016-.494 0-.737a1.38 1.38 0 0 0 -1.45-1.277c-.595-.027-1.2 0-1.793 0h-7.807c-1.422 0-4.357-.43-4.4 1.678-.044 2.154-.006 4.312 0 6.466h-2.54v-20.13a10.79 10.79 0 0 1 2.543-.317v6.112c0 1.075.089 2.106 1.165 2.7a4.867 4.867 0 0 0 2.4.318h7.419a10.209 10.209 0 0 0 2.218-.085 2.715 2.715 0 0 0 2.248-2.76q0-3.126 0-6.251a10.4 10.4 0 0 1 2.541.452v19.957zm8.049-14.5c.822 2.351.5 5.141.5 7.592 0 1.728.748 6.573-1.82 6.909a16.21 16.21 0 0 1 -2.721.034v-19.361l.029.014a8.97 8.97 0 0 1 4.012 4.811zm-12.5-8.135-3.058 2.29-3.493-2.616v-2.778a13.192 13.192 0 0 0 6.542-.2v3.271c.002.012.01.02.011.032zm3.347-5.537a10.321 10.321 0 0 1 -2.239 1.275.775.775 0 0 0 -.317-.04 1.043 1.043 0 0 0 -.737.406 11.024 11.024 0 0 1 -6.692-.179.529.529 0 0 0 -.359-.127 11.275 11.275 0 0 1 -2.145-1.09 12.047 12.047 0 0 1 -5.41-10c-.026-2.061-.007-4.123 0-6.184 1.8.025 3.586-.051 5.223-.051 5.777 0 11.554.024 17.331 0v6.278a11.982 11.982 0 0 1 -4.653 9.711zm8.647-12.53a3.4 3.4 0 0 1 -2.568 3.453c.157-2.26.063-4.561.037-6.832a3.665 3.665 0 0 1 2.533 3.378zm-24.2-11.1 1.611-3.685c.461-1.052 1.1-1.924 2.346-1.924h8.825a3.236 3.236 0 0 1 3.268 1.8c.49.992.891 2.038 1.334 3.051q1.591 3.634 3.182 7.274c-1.97.007-3.941 0-5.912 0-5.778 0-11.557.025-17.335 0l-.166-.006z" fill="#262626" fill-opacity="1" data-original-color="#262626ff" stroke="none" stroke-opacity="1"/><path d="m49.724 28.108v-4.3c0-.33-1.448-.1-1.448.388v9.269c-.405.005-.808.006-1.209-.015a1.568 1.568 0 0 1 -1.271-1.11 2.433 2.433 0 0 1 -.06-.669v-7.72c0-.78-1.472-.584-1.472.1v7.678a2.605 2.605 0 0 0 1.355 2.528 5.662 5.662 0 0 0 2.657.3v24.637c0 .33 1.448.095 1.448-.388v-24.235c.454.007.907.007 1.354-.024a2.791 2.791 0 0 0 2.658-2.654c.014-.7 0-1.4 0-2.106v-5.836c0-.78-1.472-.584-1.472.1v7.322c0 .663.067 1.405-.528 1.862a1.426 1.426 0 0 1 -.947.215h-1.065z" fill="#262626" fill-opacity="1" data-original-color="#262626ff" stroke="none" stroke-opacity="1"/></g></g></svg>