<svg height="512" viewBox="0 0 60 60" width="512" xmlns="http://www.w3.org/2000/svg"><g id="Colour"><g fill="#cad0d7"><path d="m40.042 59.422a.5.5 0 0 1 -.338-.869l2.376-2.177-4.6 2.657a.5.5 0 0 1 -.567-.82l1.756-1.433-3.035 1.752a.5.5 0 0 1 -.572-.814l3.356-2.836-4.534 2.618a.5.5 0 0 1 -.66-.719l1.04-1.491-.721.415a.5.5 0 1 1 -.5-.865l2.663-1.54a.5.5 0 0 1 .66.719l-1.039 1.491 7.45-4.3a.5.5 0 0 1 .573.814l-3.359 2.837 3.544-2.046a.5.5 0 0 1 .567.821l-1.756 1.432 3.189-1.84a.5.5 0 0 1 .588.8l-2.375 2.176 3.78-2.183a.5.5 0 0 1 .582.807l-1.294 1.148 1.7-.98a.5.5 0 0 1 .61.779l-.43.448a.542.542 0 0 1 .452.25.5.5 0 0 1 -.183.682l-2.677 1.545a.5.5 0 0 1 -.61-.779l.286-.3-2.927 1.69a.5.5 0 0 1 -.582-.807l1.294-1.148-3.457 2a.49.49 0 0 1 -.25.066z"/><path d="m39.014 53.314a.5.5 0 0 1 -.338-.869l.7-.637-.139.08a.5.5 0 0 1 -.586-.8l.675-.609-.118.067a.5.5 0 0 1 -.614-.774l2-2.131-1.466.845a.5.5 0 0 1 -.616-.772l2.335-2.52-1.847 1.057a.5.5 0 0 1 -.574-.813l.7-.6-.216.124a.5.5 0 0 1 -.631-.757l1.4-1.648-.933.538a.5.5 0 0 1 -.744-.512l.173-1.084a.494.494 0 0 1 -.29-.229.5.5 0 0 1 .182-.683l.486-.28a.5.5 0 0 1 .744.511l-.142.886 2.524-1.456a.5.5 0 0 1 .631.757l-1.4 1.646 2.436-1.406a.5.5 0 0 1 .575.813l-.706.6a.5.5 0 0 1 .6.78l-2.335 2.52 1.527-.881a.5.5 0 0 1 .614.774l-2 2.131 1.261-.727a.5.5 0 0 1 .585.8l-.674.61.025-.015a.5.5 0 0 1 .588.8l-.7.639.074-.043a.5.5 0 1 1 .5.865l-4.031 2.327a.489.489 0 0 1 -.235.076z"/><path d="m33.975 21.31a.5.5 0 0 1 -.375-.831l2.071-2.345-4.4 2.538a.5.5 0 0 1 -.611-.778l1.44-1.494-.642.37a.5.5 0 0 1 -.724-.594l.4-1.17a.49.49 0 0 1 -.19-.188.5.5 0 0 1 .182-.682l.54-.313a.5.5 0 0 1 .724.6l-.279.821 2.52-1.455a.5.5 0 0 1 .611.779l-1.434 1.5 4.021-2.322a.5.5 0 0 1 .625.764l-2.071 2.345 5.478-3.162a.5.5 0 0 1 .573.813l-1.31 1.112 3.4-1.961a.5.5 0 0 1 .595.794l-1.941 1.863 4.679-2.7a.5.5 0 0 1 .62.768l-2.177 2.383 4.117-2.376a.5.5 0 0 1 .59.8l-1.03.956.583-.336a.5.5 0 0 1 .658.72l-.491.7a.5.5 0 0 1 .476.879l-1.943 1.121a.5.5 0 0 1 -.66-.729l.489-.694-2.458 1.418a.5.5 0 0 1 -.59-.8l1.027-.954-3.044 1.76a.5.5 0 0 1 -.62-.768l2.172-2.393-5.484 3.166a.5.5 0 0 1 -.6-.794l1.942-1.862-4.609 2.66a.5.5 0 0 1 -.573-.813l1.307-1.112-3.338 1.928a.493.493 0 0 1 -.246.068z"/></g><path d="m39.727 41.339a.5.5 0 0 1 -.286-.91l2.384-1.659-3.818 2.2a.5.5 0 0 1 -.537-.842l4.962-3.486-6.322 3.658a.5.5 0 0 1 -.524-.851l1.414-.932-1.974 1.138a.5.5 0 0 1 -.522-.851l1.095-.712-1.6.922a.5.5 0 0 1 -.535-.844l7.941-5.515-8.742 5.045a.5.5 0 0 1 -.521-.852l1.979-1.278-2.146 1.239a.5.5 0 0 1 -.53-.847l7.393-4.962-7.716 4.45a.5.5 0 0 1 -.53-.846l8.814-5.982-8.842 5.1a.5.5 0 0 1 -.528-.849l6.25-4.178-5.92 3.418a.5.5 0 0 1 -.525-.849l3.3-2.175-2.8 1.617a.5.5 0 0 1 -.529-.848l3.41-2.3-2.742 1.587a.5.5 0 0 1 -.535-.844l3.306-2.291-2.619 1.511a.5.5 0 0 1 -.546-.835l3.561-2.616-2.847 1.643a.5.5 0 0 1 -.573-.816l2.158-1.816-1.415.816a.5.5 0 0 1 -.717-.612l.557-1.446a.5.5 0 0 1 -.143-.921l.8-.46a.5.5 0 0 1 .717.612l-.484 1.254 5.086-2.935a.5.5 0 0 1 .572.815l-2.158 1.817 5.826-3.364a.5.5 0 0 1 .546.836l-3.561 2.615 5.225-3.016a.5.5 0 0 1 .536.844l-3.306 2.291 4.754-2.745a.5.5 0 0 1 .529.848l-3.4 2.293 4.789-2.765a.5.5 0 0 1 .525.85l-3.3 2.178 4.618-2.665a.5.5 0 0 1 .528.848l-6.25 4.178 7.574-4.373a.5.5 0 0 1 .53.847l-8.818 5.979 8.464-4.887a.5.5 0 0 1 .529.848l-7.395 4.973 7.031-4.06a.5.5 0 0 1 .521.853l-1.973 1.273 1.566-.9a.5.5 0 0 1 .535.844l-7.944 5.516 7.594-4.384a.5.5 0 0 1 .522.852l-1.088.708.675-.39a.5.5 0 0 1 .524.851l-1.416.93 1-.576a.5.5 0 0 1 .538.842l-4.959 3.483 4.323-2.495a.5.5 0 0 1 .535.842l-2.388 1.662 1.4-.807a.5.5 0 0 1 .582.806l-3.489 3.094.525-.3a.5.5 0 0 1 .5.866l-4.8 2.771a.5.5 0 0 1 -.582-.806l3.489-3.094-7.384 4.262a.5.5 0 0 1 -.253.062z" fill="#eb5565"/><path d="m16.716 59.421a.5.5 0 0 1 -.331-.874l3.542-3.136-6.439 3.717a.5.5 0 0 1 -.545-.836l3.238-2.366-4.677 2.7a.5.5 0 0 1 -.533-.845l2.218-1.524-3.106 1.793a.5.5 0 0 1 -.538-.841l5.131-3.619-6.046 3.489a.5.5 0 0 1 -.533-.845l5-3.429-4.817 2.779a.5.5 0 0 1 -.539-.841l7.14-5.056-6.601 3.813a.5.5 0 0 1 -.542-.839l7.745-5.561-7.2 4.158a.5.5 0 0 1 -.532-.846l5.011-3.422-4.482 2.585a.5.5 0 0 1 -.537-.842l6.619-4.639-6.082 3.506a.5.5 0 0 1 -.533-.844l5.606-3.856-5.073 2.926a.5.5 0 0 1 -.526-.849l2.384-1.58-1.858 1.073a.5.5 0 0 1 -.529-.848l3.818-2.567-3.289 1.9a.5.5 0 0 1 -.527-.849l3.226-2.156-2.7 1.559a.5.5 0 0 1 -.543-.838l7.954-5.739-7.41 4.276a.5.5 0 0 1 -.536-.843l6.327-4.411-5.791 3.346a.5.5 0 0 1 -.538-.841l7.017-4.959-6.479 3.738a.5.5 0 0 1 -.523-.85l.992-.651-.469.271a.5.5 0 0 1 -.53-.847l4.114-2.781-3.584 2.068a.5.5 0 0 1 -.543-.838l7.41-5.364-6.868 3.965a.5.5 0 0 1 -.525-.85l.872-.575-.347.2a.5.5 0 0 1 -.537-.841l4.738-3.331-4.2 2.425a.5.5 0 0 1 -.54-.84l4.224-3.007-3.685 2.125a.5.5 0 0 1 -.556-.828l5.454-4.234-4.729 2.73a.5.5 0 0 1 -.555-.83l4.828-3.719-3.441 1.985a.5.5 0 0 1 -.537-.842l2.357-1.654a.508.508 0 0 1 -.239-.19.5.5 0 0 1 .113-.675l2.038-1.56a.5.5 0 0 1 -.316-.872l2.364-2.12-1.78 1.027a.5.5 0 0 1 -.613-.776l1.4-1.48-.788.456a.5.5 0 0 1 -.737-.546l.3-1.289a.5.5 0 0 1 -.065-.9l.5-.291a.5.5 0 0 1 .737.546l-.235 1.045 2.767-1.6a.5.5 0 0 1 .613.777l-1.4 1.477 2.961-1.711a.5.5 0 0 1 .584.8l-2.366 2.121 1.783-1.028a.5.5 0 0 1 .553.83l-1.563 1.2 1.01-.583a.5.5 0 0 1 .537.842l-.645.452.108-.061a.5.5 0 0 1 .555.829l-4.827 3.719 4.561-2.632a.5.5 0 0 1 .556.827l-5.455 4.241 6.434-3.714a.5.5 0 0 1 .54.84l-4.224 3.004 4.839-2.795a.5.5 0 0 1 .537.842l-4.737 3.333 5.135-2.964a.5.5 0 0 1 .525.85l-.859.567.75-.433a.5.5 0 0 1 .543.838l-7.41 5.364 7.39-4.266a.5.5 0 0 1 .531.847l-4.113 2.78 3.731-2.154a.5.5 0 0 1 .523.851l-.992.65.469-.27a.5.5 0 0 1 .538.841l-7.02 4.96 6.483-3.742a.5.5 0 0 1 .536.842l-6.33 4.411 5.791-3.342a.5.5 0 0 1 .543.838l-7.952 5.737 7.409-4.277a.5.5 0 0 1 .527.848l-3.227 2.156 2.7-1.558a.5.5 0 0 1 .529.847l-3.826 2.574 3.3-1.9a.5.5 0 0 1 .526.85l-2.387 1.575 1.858-1.072a.5.5 0 0 1 .533.845l-5.609 3.864 5.077-2.931a.5.5 0 0 1 .537.842l-6.614 4.637 6.077-3.509a.5.5 0 0 1 .532.846l-5.018 3.425 4.486-2.589a.5.5 0 0 1 .542.839l-7.742 5.557 7.2-4.156a.5.5 0 0 1 .539.841l-7.14 5.056 6.6-3.81a.5.5 0 0 1 .533.844l-5 3.432 4.468-2.579a.5.5 0 0 1 .538.841l-5.133 3.621 4.6-2.653a.5.5 0 0 1 .533.844l-2.223 1.525 1.686-.973a.5.5 0 0 1 .545.836l-3.238 2.366 2.693-1.554a.5.5 0 0 1 .581.807l-3.542 3.136 2.961-1.708a.5.5 0 0 1 .608.781l-.924.949.128-.073a.5.5 0 1 1 .5.865l-3.25 1.878a.5.5 0 0 1 -.608-.781l.923-.948-4.134 2.386a.5.5 0 0 1 -.25.064z" fill="#636c77"/><path d="m14.237 50.35a.5.5 0 0 1 -.289-.909l.97-.686-2.133 1.23a.5.5 0 0 1 -.531-.845l.312-.213-1.156.667a.5.5 0 0 1 -.534-.844l2.792-1.934-3.733 2.156a.5.5 0 0 1 -.541-.839l5.924-4.233-6.84 3.949a.5.5 0 0 1 -.537-.849l6.194-4.323-5.855 3.382a.5.5 0 0 1 -.534-.844l5.7-3.935-5.166 2.984a.5.5 0 0 1 -.534-.844l5.719-3.947-5.185 2.993a.5.5 0 0 1 -.532-.846l4.935-3.365-4.403 2.545a.5.5 0 0 1 -.532-.845l5.252-3.603-4.72 2.724a.5.5 0 0 1 -.531-.847l4.6-3.124-4.069 2.35a.5.5 0 0 1 -.563-.822l3.728-3.008-3.165 1.827a.5.5 0 0 1 -.593-.8l2.413-2.278-1.82 1.05a.5.5 0 0 1 -.6-.791l.807-.786-.209.12a.5.5 0 0 1 -.65-.732l.591-.793a.5.5 0 0 1 -.648-.665l.314-.7a.452.452 0 0 1 -.125-.056.5.5 0 0 1 -.23-.465l.075-.865-.005-.019a.5.5 0 0 1 .181-.684l.108-.062a.5.5 0 0 1 .749.475l-.025.282a.5.5 0 0 1 .707.635l-.2.459.7-.406a.5.5 0 0 1 .651.732l-.585.784 1.574-.908a.5.5 0 0 1 .6.791l-.809.787 2.034-1.174a.5.5 0 0 1 .594.8l-2.412 2.282 5.051-2.916a.5.5 0 0 1 .563.822l-3.726 3.006 10.365-5.99a.5.5 0 0 1 .531.846l-4.605 3.127 4.075-2.352a.5.5 0 0 1 .532.845l-5.253 3.599 4.721-2.724a.5.5 0 0 1 .532.845l-4.928 3.361 4.4-2.538a.5.5 0 0 1 .534.844l-5.729 3.951 5.191-3a.5.5 0 0 1 .534.844l-5.7 3.933 5.167-2.983a.5.5 0 0 1 .536.843l-6.2 4.324 5.66-3.266a.5.5 0 0 1 .541.839l-5.919 4.24 5.382-3.108a.5.5 0 0 1 .534.844l-2.789 1.932 2.255-1.3a.5.5 0 0 1 .531.846l-.436.3a.5.5 0 0 1 .445.883l-.967.686.428-.247a.5.5 0 0 1 .6.789l-2.852 2.8 2.252-1.3a.5.5 0 0 1 .5.865l-5.666 3.265a.5.5 0 0 1 -.6-.789l2.851-2.8-6.32 3.648a.493.493 0 0 1 -.251.071z" fill="#e4e8eb"/><path d="m40.2 19.439a.5.5 0 0 1 -.3-.9l.8-.62-2.309 1.333a.5.5 0 0 1 -.589-.8l2.752-2.53-4.988 2.878a.5.5 0 0 1 -.567-.82l1.74-1.425-2.965 1.711a.5.5 0 0 1 -.6-.786l1.986-1.994-3.094 1.787a.5.5 0 0 1 -.636-.751l.673-.814-.226.13a.5.5 0 1 1 -.5-.865l2.623-1.515a.5.5 0 0 1 .636.751l-.673.813 3.961-2.286a.5.5 0 0 1 .6.785l-1.987 1.995 5-2.884a.5.5 0 0 1 .567.819l-1.741 1.427 3.608-2.078a.5.5 0 0 1 .589.8l-2.752 2.53 4.923-2.842a.5.5 0 0 1 .555.829l-.806.62 1.714-.989a.5.5 0 0 1 .563.822l-.784.63 1.443-.833a.5.5 0 0 1 .63.757l-1.163 1.363 1.4-.807a.5.5 0 1 1 .5.865l-3.918 2.255a.5.5 0 0 1 -.63-.757l1.165-1.359-4.6 2.652a.5.5 0 0 1 -.563-.822l.786-.631-2.581 1.489a.491.491 0 0 1 -.242.067z" fill="#e4e8eb"/><path d="m39.948 24.43a.5.5 0 0 1 -.291-.907l.948-.679-2.423 1.4a.5.5 0 0 1 -.553-.83l1.034-.788-2.391 1.38a.5.5 0 0 1 -.6-.788l1.856-1.836-3.571 2.061a.5.5 0 0 1 -.572-.815l.58-.488-1.347.777a.5.5 0 0 1 -.579-.809l.618-.541-1.058.611a.5.5 0 0 1 -.621-.769l1.164-1.285-.9.52a.5.5 0 0 1 -.725-.587l.506-1.564a.5.5 0 0 1 -.232-.932l.822-.475a.5.5 0 0 1 .726.587l-.471 1.455 2.532-1.463a.5.5 0 0 1 .622.769l-1.168 1.286 2.72-1.57a.5.5 0 0 1 .579.809l-.617.54 1.83-1.056a.5.5 0 0 1 .572.816l-.579.487 2.029-1.171a.5.5 0 0 1 .6.788l-1.854 1.837 5.826-3.363a.5.5 0 0 1 .553.83l-1.034.788 4.47-2.581a.5.5 0 0 1 .541.839l-.948.68 2.2-1.269a.5.5 0 0 1 .567.819l-2.978 2.441 2.438-1.407a.5.5 0 0 1 .645.738l-1.275 1.648.412-.237a.5.5 0 0 1 .5.865l-2.614 1.509a.5.5 0 0 1 -.646-.738l1.275-1.649-5.545 3.2a.5.5 0 0 1 -.567-.82l2.978-2.439-5.732 3.308a.493.493 0 0 1 -.252.068z" fill="#d94653"/><path d="m15.841 10.454a.5.5 0 0 1 -.373-.832l2.068-2.322-4.218 2.432a.5.5 0 0 1 -.566-.819l2.13-1.742-2.523 1.456a.5.5 0 0 1 -.588-.8l2.321-2.143-1.812 1.045a.5.5 0 0 1 -.611-.779l.712-.742-.1.058a.5.5 0 0 1 -.731-.567l.26-.932a.5.5 0 0 1 -.212-.2.5.5 0 0 1 .183-.683l.5-.29a.5.5 0 0 1 .732.567l-.174.626 2.083-1.2a.5.5 0 0 1 .611.778l-.714.744 2.654-1.531a.5.5 0 0 1 .588.8l-2.317 2.141 3.977-2.3a.5.5 0 0 1 .566.819l-2.13 1.742 1.564-.9a.5.5 0 0 1 .623.764l-2.069 2.328 1.447-.835a.5.5 0 0 1 .5.865l-4.131 2.385a.489.489 0 0 1 -.25.067z" fill="#d94653"/><path d="m15.6 5.43a.5.5 0 0 1 -.418-.775l1.21-1.84-3.183 1.837a.5.5 0 0 1 -.7-.647l.743-1.563-.745.431a.5.5 0 1 1 -.5-.865l2.138-1.236a.5.5 0 0 1 .7.648l-.745 1.562 3.618-2.082a.494.494 0 0 1 .613.089.5.5 0 0 1 .055.618l-1.21 1.839 2.35-1.356a.5.5 0 1 1 .5.865l-4.176 2.407a.493.493 0 0 1 -.25.068z" fill="#eb5565"/><path d="m42.018 19.419a.509.509 0 0 1 -.206-.044l-1.652-.745-1.16.67a.5.5 0 0 1 -.349.056l-2.16-.436-.1.056a.5.5 0 0 1 -.5-.868l.261-.149a.5.5 0 0 1 .348-.057l2.159.437 1.218-.7a.505.505 0 0 1 .456-.023l1.651.745 1.139-.656a.5.5 0 0 1 .35-.057l1.975.4.11-.065a.5.5 0 1 1 .5.868l-.274.158a.5.5 0 0 1 -.35.056l-1.975-.4-1.2.691a.509.509 0 0 1 -.241.063z" fill="#eb5565"/></g><g id="Outer_Lines" fill="#262626" data-name="Outer Lines"><path d="m24.721 55.9c.749-1.861 0-5.547 0-7.513v-14.919c0-3.182.258-6.488 0-9.662a8.8 8.8 0 0 0 -1.9-5.145c-1.065-1.282-2.65-1.969-3.1-3.684-.42-1.61-.056-3.761-.009-5.5a2.342 2.342 0 0 0 1.016-1.7c.157-1.582 0-3.251 0-4.843 0-.022-.013-.036-.015-.057v-.017c0-.016.018-.032.015-.049-.284-2.079-3.672-2.226-5.222-2.074-1.206.118-3.963.648-4.2 2.212a.339.339 0 0 0 -.035.116c0 1.581-.125 3.21 0 4.785a2.315 2.315 0 0 0 1.009 1.756 34.139 34.139 0 0 1 0 4.965c-.418 2.833-3.495 3.963-4.494 6.735-.906 2.512-.506 5.661-.506 8.273v14.578c0 3.5-.774 7.985 0 11.407 1.191 5.288 15.407 5.391 17.441.336zm-16-26.937c2.245 1.37 6.37 1.479 8.157 1.353 1.477-.1 4.545-.5 6.4-1.674v18.474c-.945 3.652-13.551 3.668-14.552-.31zm4.01-21.053a7.11 7.11 0 0 1 0-1.557v-1.424a8.763 8.763 0 0 0 6.538-.347v1.9a7.434 7.434 0 0 1 0 1.557c-.332 1.4-2.363 1.527-3.553 1.447-1.055-.071-2.682-.373-2.985-1.576zm6.538-4.739c-.4 2.245-6.478 2.053-6.512-.331-.033-2.24 6.143-2.079 6.512.331zm-7.713 14.829c2.532-2.577 2.261-4.429 2.184-7.745a8.593 8.593 0 0 0 2.186.241 8.942 8.942 0 0 0 2.336-.335c-.091 2.46-.576 5.36 1.092 7.2 2.926 3.231 3.922 5.337 3.922 9.494v.263c-.935 3.6-13.536 3.723-14.552-.313 0-.007-.01-.01-.013-.017-.011-3.272.16-6.058 2.845-8.788zm-2.832 34.535v-3.575c2.25 1.375 6.387 1.484 8.159 1.36 1.487-.1 4.546-.5 6.393-1.671v1.775a26.274 26.274 0 0 1 0 4.161c-.057.335.115.8 0 1.115-.418 1.151-5.772 2.807-6.984 2.927-5.92.588-7.568-1.662-7.568-6.092z"/><path d="m51.735 20.648-.4-4.842c-1.14-4.818-20.884-4.58-20.723.388 0 .041.015.078.019.118q-.2 2.454-.4 4.907v.007c-.344 3.451-1.152 7.133-.945 10.6.282 4.752 3.951 8.149 8.276 9.288a109.138 109.138 0 0 1 .688 11.545c-2.02.268-5.178.837-5.847 2.8-.621 1.819 1.534 2.815 2.912 3.284 3.1 1.053 13.545 2.1 14.425-2.793a.383.383 0 0 0 -.012-.134v-.008-.021a.284.284 0 0 0 -.015-.08c-.28-2.221-3.974-2.85-5.951-3.084a106.534 106.534 0 0 1 .7-11.641c4.265-1.276 7.973-4.655 8.27-9.334.225-3.535-.616-7.312-.972-10.828a.345.345 0 0 0 -.025-.172zm-19.785-2.6c3.74 2.3 14.265 2.228 18.055-.427q.138 1.686.278 3.374c-.7 2.87-8.626 2.491-10.538 2.406-2.144-.095-6.774-.19-8.037-2.407q.122-1.473.242-2.946zm6.079-4.53a26.959 26.959 0 0 1 5.276-.031c1.833.175 5.987.441 6.567 2.665-1.005 3.6-17.938 3.454-17.778-.116.079-1.765 4.827-2.406 5.935-2.518zm4.246 39.634a.448.448 0 0 0 .025.1c0 .014-.014.026-.014.04-.01.633-.01 1.267-.01 1.9 0 .349 1.448.108 1.448-.388 0-.353 0-.706.006-1.059 1.71.222 4.288.751 4.524 2.338-.585 2.932-7.761 2.462-9.627 2.207-1.077-.146-3.107-.368-3.978-1.2-2.116-2.033 1.715-3.019 3.619-3.348 0 .485.008.969.008 1.454 0 .307 1.448.079 1.448-.388 0-.575 0-1.149-.009-1.723 0-.013.01-.023.01-.036-.055-3.88-.209-7.769-.647-11.627a12.267 12.267 0 0 0 2.5.093 13 13 0 0 0 1.382-.181 110.35 110.35 0 0 0 -.685 11.818zm-3.826-13.073c-8.939-2.085-7.751-10.241-6.942-17.2 2.716 1.986 8.3 1.753 10.89 1.63 1.992-.094 5.952-.238 8.055-1.785l.6 6c.716 7.241-4.694 13.2-12.603 11.355z"/><path d="m12.724 23.806a3.826 3.826 0 0 1 1.376-2.878 13.474 13.474 0 0 0 2.314-1.946c.35-.429-1.071-.282-1.331.036-.81.992-2 1.468-2.813 2.438a4.409 4.409 0 0 0 -.989 2.738c-.017.332 1.426.111 1.443-.388z"/><path d="m12.724 44.806v-7c0-.346-1.448-.106-1.448.388v7c0 .346 1.448.106 1.448-.388z"/><path d="m12.724 33.806v-1c0-.346-1.448-.106-1.448.388v1c0 .346 1.448.106 1.448-.388z"/><path d="m37.548 35.58a5.268 5.268 0 0 1 -2.793-4.81c.044-.941.188-1.886.282-2.824.074-.748-1.4-.554-1.469.108a24.731 24.731 0 0 0 -.294 3.569 6.111 6.111 0 0 0 3.159 4.8c.546.337 1.812-.41 1.115-.843z"/></g></svg>